<svg xmlns="http://www.w3.org/2000/svg" width="795.41" height="18.965" viewBox="0 0 795.41 18.965">
  <path id="img-txt-2" d="M11.367,21.414a8.214,8.214,0,0,1-3.867.82,6.236,6.236,0,0,1-4.785-1.924,7.1,7.1,0,0,1-1.8-5.049,7.44,7.44,0,0,1,2.021-5.43,6.861,6.861,0,0,1,5.127-2.07,8.22,8.22,0,0,1,3.3.576v1.748a6.694,6.694,0,0,0-3.32-.84,5.1,5.1,0,0,0-3.911,1.611,6.07,6.07,0,0,0-1.5,4.307,5.776,5.776,0,0,0,1.4,4.077A4.768,4.768,0,0,0,7.715,20.76a6.9,6.9,0,0,0,3.652-.937ZM21.162,22h-1.6V20.438h-.039a3.353,3.353,0,0,1-3.076,1.8,3.288,3.288,0,0,1-2.339-.791,2.741,2.741,0,0,1-.845-2.1q0-2.8,3.3-3.262l3-.42q0-2.549-2.061-2.549a4.923,4.923,0,0,0-3.262,1.23V12.7a6.2,6.2,0,0,1,3.4-.937q3.525,0,3.525,3.73Zm-1.6-5.059-2.412.332a3.916,3.916,0,0,0-1.68.552,1.591,1.591,0,0,0-.566,1.4,1.526,1.526,0,0,0,.522,1.2,2.019,2.019,0,0,0,1.392.464,2.571,2.571,0,0,0,1.968-.835,2.983,2.983,0,0,0,.776-2.114ZM32.48,22h-1.6V16.3q0-3.184-2.324-3.184a2.521,2.521,0,0,0-1.987.9,3.348,3.348,0,0,0-.786,2.28V22h-1.6V12h1.6v1.66h.039A3.609,3.609,0,0,1,29.1,11.766a3.059,3.059,0,0,1,2.51,1.06,4.72,4.72,0,0,1,.869,3.062Zm7.656-.1a3.088,3.088,0,0,1-1.494.313q-2.627,0-2.627-2.93V13.367H34.3V12h1.719V9.559l1.6-.518V12h2.52v1.367h-2.52V19a2.336,2.336,0,0,0,.342,1.436,1.364,1.364,0,0,0,1.133.43,1.684,1.684,0,0,0,1.045-.332ZM43.1,9.461a1.015,1.015,0,0,1-.732-.293.989.989,0,0,1-.3-.742A1.026,1.026,0,0,1,43.1,7.381a1.034,1.034,0,0,1,.747.3,1.043,1.043,0,0,1,0,1.479A1.025,1.025,0,0,1,43.1,9.461ZM43.877,22h-1.6V12h1.6Zm11.777,0h-1.6V20.3h-.039a3.7,3.7,0,0,1-3.437,1.934,3.735,3.735,0,0,1-3.013-1.343,5.509,5.509,0,0,1-1.128-3.657,5.993,5.993,0,0,1,1.25-3.975,4.123,4.123,0,0,1,3.33-1.494,3.206,3.206,0,0,1,3,1.621h.039V7.2h1.6Zm-1.6-4.521V16a2.861,2.861,0,0,0-.8-2.051,2.686,2.686,0,0,0-2.031-.84,2.766,2.766,0,0,0-2.3,1.074,4.707,4.707,0,0,0-.84,2.969,4.234,4.234,0,0,0,.806,2.729,2.633,2.633,0,0,0,2.163,1,2.735,2.735,0,0,0,2.173-.967A3.6,3.6,0,0,0,54.053,17.479Zm12,4.521h-1.6V20.438h-.039a3.353,3.353,0,0,1-3.076,1.8A3.288,3.288,0,0,1,59,21.443a2.741,2.741,0,0,1-.845-2.1q0-2.8,3.3-3.262l3-.42q0-2.549-2.061-2.549a4.923,4.923,0,0,0-3.262,1.23V12.7a6.2,6.2,0,0,1,3.4-.937q3.525,0,3.525,3.73Zm-1.6-5.059-2.412.332a3.916,3.916,0,0,0-1.68.552,1.591,1.591,0,0,0-.566,1.4,1.526,1.526,0,0,0,.522,1.2,2.019,2.019,0,0,0,1.392.464,2.571,2.571,0,0,0,1.968-.835,2.983,2.983,0,0,0,.776-2.114ZM77.607,22h-1.6V20.3h-.039a3.7,3.7,0,0,1-3.437,1.934,3.735,3.735,0,0,1-3.013-1.343,5.509,5.509,0,0,1-1.128-3.657,5.993,5.993,0,0,1,1.25-3.975,4.123,4.123,0,0,1,3.33-1.494,3.206,3.206,0,0,1,3,1.621h.039V7.2h1.6Zm-1.6-4.521V16a2.861,2.861,0,0,0-.8-2.051,2.686,2.686,0,0,0-2.031-.84,2.766,2.766,0,0,0-2.3,1.074,4.707,4.707,0,0,0-.84,2.969,4.234,4.234,0,0,0,.806,2.729,2.633,2.633,0,0,0,2.163,1,2.735,2.735,0,0,0,2.173-.967A3.6,3.6,0,0,0,76.006,17.479Zm5.4-3.525a1.037,1.037,0,0,1-.767-.322,1.061,1.061,0,0,1-.317-.771,1.029,1.029,0,0,1,.317-.762,1.053,1.053,0,0,1,.767-.312,1.081,1.081,0,0,1,.781.313,1.021,1.021,0,0,1,.322.762,1.053,1.053,0,0,1-.322.771A1.064,1.064,0,0,1,81.406,13.953Zm0,8.262a1.037,1.037,0,0,1-.767-.322,1.061,1.061,0,0,1-.317-.771,1.077,1.077,0,0,1,.317-.776,1.029,1.029,0,0,1,.767-.327,1.056,1.056,0,0,1,.781.327,1.069,1.069,0,0,1,.322.776,1.053,1.053,0,0,1-.322.771A1.064,1.064,0,0,1,81.406,22.215Zm19.082-7.48h-9.18V13.445h9.18Zm0,4.16h-9.18V17.605h9.18Zm3.418,2.539V19.5a3.755,3.755,0,0,0,.8.527,6.448,6.448,0,0,0,.977.4,7.774,7.774,0,0,0,1.03.249,5.744,5.744,0,0,0,.957.088,3.749,3.749,0,0,0,2.261-.562,2.106,2.106,0,0,0,.5-2.6,2.805,2.805,0,0,0-.688-.767,6.832,6.832,0,0,0-1.04-.664q-.6-.317-1.294-.669-.732-.371-1.367-.752a5.924,5.924,0,0,1-1.1-.84,3.5,3.5,0,0,1-.737-1.04,3.219,3.219,0,0,1-.269-1.362,3.2,3.2,0,0,1,.42-1.665,3.6,3.6,0,0,1,1.1-1.167,5,5,0,0,1,1.558-.684,7.132,7.132,0,0,1,1.782-.225,6.83,6.83,0,0,1,3.018.5v1.846a5.47,5.47,0,0,0-3.184-.859,5.236,5.236,0,0,0-1.074.112,3.034,3.034,0,0,0-.957.366,2.12,2.12,0,0,0-.684.654,1.737,1.737,0,0,0-.264.977,2.011,2.011,0,0,0,.2.928,2.274,2.274,0,0,0,.591.713,5.884,5.884,0,0,0,.952.625q.562.3,1.294.664.752.371,1.426.781a6.517,6.517,0,0,1,1.182.908,4.036,4.036,0,0,1,.806,1.1,3.1,3.1,0,0,1,.3,1.387,3.517,3.517,0,0,1-.405,1.753,3.326,3.326,0,0,1-1.094,1.167,4.777,4.777,0,0,1-1.587.649,8.691,8.691,0,0,1-1.895.2,7.721,7.721,0,0,1-.82-.054q-.488-.054-1-.156a8.128,8.128,0,0,1-.962-.254A2.993,2.993,0,0,1,103.906,21.434Zm12.92.566h-1.641V8h1.641Zm4.023.215a1.037,1.037,0,0,1-.767-.322,1.061,1.061,0,0,1-.317-.771,1.077,1.077,0,0,1,.317-.776,1.029,1.029,0,0,1,.767-.327,1.056,1.056,0,0,1,.781.327,1.069,1.069,0,0,1,.322.776,1.053,1.053,0,0,1-.322.771A1.064,1.064,0,0,1,120.85,22.215ZM132.266,22h-7.422V8h7.109V9.48h-5.469v4.658h5.059v1.475h-5.059v4.9h5.781ZM145,22h-1.953L140.7,18.074a8.55,8.55,0,0,0-.625-.933,3.563,3.563,0,0,0-.62-.63,2.148,2.148,0,0,0-.684-.356,2.811,2.811,0,0,0-.825-.112H136.6V22h-1.641V8h4.18a5.957,5.957,0,0,1,1.694.229,3.791,3.791,0,0,1,1.348.7,3.245,3.245,0,0,1,.894,1.167,3.87,3.87,0,0,1,.322,1.636,3.939,3.939,0,0,1-.22,1.343,3.507,3.507,0,0,1-.625,1.089,3.789,3.789,0,0,1-.977.815,4.985,4.985,0,0,1-1.284.522v.039a2.954,2.954,0,0,1,.61.356,3.359,3.359,0,0,1,.493.474,6.274,6.274,0,0,1,.464.62q.229.347.513.806ZM136.6,9.48v5.078h2.227a3.377,3.377,0,0,0,1.138-.186,2.634,2.634,0,0,0,.9-.532,2.414,2.414,0,0,0,.6-.85,2.844,2.844,0,0,0,.215-1.128,2.2,2.2,0,0,0-.728-1.753,3.125,3.125,0,0,0-2.1-.63ZM156.963,22H155.01l-2.344-3.926a8.55,8.55,0,0,0-.625-.933,3.563,3.563,0,0,0-.62-.63,2.148,2.148,0,0,0-.684-.356,2.811,2.811,0,0,0-.825-.112h-1.348V22h-1.641V8h4.18a5.957,5.957,0,0,1,1.694.229,3.791,3.791,0,0,1,1.348.7,3.245,3.245,0,0,1,.894,1.167,3.87,3.87,0,0,1,.322,1.636,3.939,3.939,0,0,1-.22,1.343,3.507,3.507,0,0,1-.625,1.089,3.789,3.789,0,0,1-.977.815,4.985,4.985,0,0,1-1.284.522v.039a2.954,2.954,0,0,1,.61.356,3.359,3.359,0,0,1,.493.474,6.274,6.274,0,0,1,.464.62q.229.347.513.806Zm-8.4-12.52v5.078h2.227a3.377,3.377,0,0,0,1.138-.186,2.634,2.634,0,0,0,.9-.532,2.414,2.414,0,0,0,.6-.85,2.844,2.844,0,0,0,.215-1.128,2.2,2.2,0,0,0-.728-1.753,3.125,3.125,0,0,0-2.1-.63Zm15.771,12.754a6.147,6.147,0,0,1-4.771-1.963,7.28,7.28,0,0,1-1.792-5.107A7.714,7.714,0,0,1,159.6,9.773a6.378,6.378,0,0,1,4.971-2.012,6.009,6.009,0,0,1,4.673,1.953,7.307,7.307,0,0,1,1.772,5.107,7.739,7.739,0,0,1-1.816,5.42A6.26,6.26,0,0,1,164.336,22.234Zm.117-12.988a4.515,4.515,0,0,0-3.584,1.592,6.162,6.162,0,0,0-1.377,4.18,6.205,6.205,0,0,0,1.343,4.165,4.379,4.379,0,0,0,3.5,1.577,4.6,4.6,0,0,0,3.633-1.5,6.146,6.146,0,0,0,1.328-4.209,6.422,6.422,0,0,0-1.289-4.287A4.42,4.42,0,0,0,164.453,9.246ZM183.809,22h-1.953l-2.344-3.926a8.55,8.55,0,0,0-.625-.933,3.563,3.563,0,0,0-.62-.63,2.148,2.148,0,0,0-.684-.356,2.811,2.811,0,0,0-.825-.112H175.41V22H173.77V8h4.18a5.957,5.957,0,0,1,1.694.229,3.791,3.791,0,0,1,1.348.7,3.245,3.245,0,0,1,.894,1.167,3.87,3.87,0,0,1,.322,1.636,3.939,3.939,0,0,1-.22,1.343,3.507,3.507,0,0,1-.625,1.089,3.789,3.789,0,0,1-.977.815,4.985,4.985,0,0,1-1.284.522v.039a2.954,2.954,0,0,1,.61.356,3.359,3.359,0,0,1,.493.474,6.274,6.274,0,0,1,.464.62q.229.347.513.806Zm-8.4-12.52v5.078h2.227a3.377,3.377,0,0,0,1.138-.186,2.634,2.634,0,0,0,.9-.532,2.414,2.414,0,0,0,.6-.85,2.844,2.844,0,0,0,.215-1.128,2.2,2.2,0,0,0-.728-1.753,3.125,3.125,0,0,0-2.1-.63Zm14.307,15.7h-1.426a12.48,12.48,0,0,1-3.027-8.525A12.953,12.953,0,0,1,188.291,8h1.445a13.161,13.161,0,0,0-3.066,8.643A12.931,12.931,0,0,0,189.717,25.184Zm1.4-3.75V19.5a3.755,3.755,0,0,0,.8.527,6.448,6.448,0,0,0,.977.4,7.774,7.774,0,0,0,1.03.249,5.744,5.744,0,0,0,.957.088,3.749,3.749,0,0,0,2.261-.562,2.106,2.106,0,0,0,.5-2.6,2.805,2.805,0,0,0-.688-.767,6.832,6.832,0,0,0-1.04-.664q-.6-.317-1.294-.669-.732-.371-1.367-.752a5.925,5.925,0,0,1-1.1-.84,3.5,3.5,0,0,1-.737-1.04,3.219,3.219,0,0,1-.269-1.362,3.2,3.2,0,0,1,.42-1.665,3.6,3.6,0,0,1,1.1-1.167,5,5,0,0,1,1.558-.684A7.132,7.132,0,0,1,196,7.762a6.83,6.83,0,0,1,3.018.5v1.846a5.47,5.47,0,0,0-3.184-.859,5.236,5.236,0,0,0-1.074.112,3.034,3.034,0,0,0-.957.366,2.12,2.12,0,0,0-.684.654,1.737,1.737,0,0,0-.264.977,2.01,2.01,0,0,0,.2.928,2.274,2.274,0,0,0,.591.713,5.885,5.885,0,0,0,.952.625q.562.3,1.294.664.752.371,1.426.781a6.517,6.517,0,0,1,1.182.908,4.036,4.036,0,0,1,.806,1.1,3.1,3.1,0,0,1,.3,1.387,3.517,3.517,0,0,1-.405,1.753,3.326,3.326,0,0,1-1.094,1.167,4.777,4.777,0,0,1-1.587.649,8.691,8.691,0,0,1-1.895.2,7.72,7.72,0,0,1-.82-.054q-.488-.054-1-.156a8.127,8.127,0,0,1-.962-.254A2.993,2.993,0,0,1,191.113,21.434Zm21.523-5.1q0,5.9-5.322,5.9-5.1,0-5.1-5.674V8h1.641v8.457q0,4.307,3.633,4.307Q211,20.76,211,16.6V8h1.641ZM230.41,22h-1.631V12.605q0-1.113.137-2.725h-.039a8.71,8.71,0,0,1-.42,1.357L223.672,22h-.8L218.1,11.316a8.371,8.371,0,0,1-.42-1.436h-.039q.078.84.078,2.744V22h-1.582V8H218.3l4.3,9.766a12.5,12.5,0,0,1,.645,1.68h.059q.42-1.152.674-1.719L228.359,8h2.051Zm14.521,0h-1.816l-1.484-3.926h-5.937L234.3,22h-1.826l5.371-14h1.7Zm-3.838-5.4-2.2-5.967a5.713,5.713,0,0,1-.215-.937h-.039a5.231,5.231,0,0,1-.225.938L236.24,16.6ZM257.031,22h-1.953l-2.344-3.926a8.55,8.55,0,0,0-.625-.933,3.563,3.563,0,0,0-.62-.63,2.148,2.148,0,0,0-.684-.356,2.811,2.811,0,0,0-.825-.112h-1.348V22h-1.641V8h4.18a5.957,5.957,0,0,1,1.694.229,3.791,3.791,0,0,1,1.348.7,3.245,3.245,0,0,1,.894,1.167,3.87,3.87,0,0,1,.322,1.636,3.939,3.939,0,0,1-.22,1.343,3.507,3.507,0,0,1-.625,1.089,3.789,3.789,0,0,1-.977.815,4.985,4.985,0,0,1-1.284.522v.039a2.954,2.954,0,0,1,.61.356,3.359,3.359,0,0,1,.493.474,6.274,6.274,0,0,1,.464.62q.229.347.513.806Zm-8.4-12.52v5.078h2.227A3.377,3.377,0,0,0,252,14.373a2.634,2.634,0,0,0,.9-.532,2.414,2.414,0,0,0,.6-.85,2.844,2.844,0,0,0,.215-1.128,2.2,2.2,0,0,0-.728-1.753,3.125,3.125,0,0,0-2.1-.63ZM259.3,22.215a1.037,1.037,0,0,1-.767-.322,1.061,1.061,0,0,1-.317-.771,1.077,1.077,0,0,1,.317-.776,1.029,1.029,0,0,1,.767-.327,1.056,1.056,0,0,1,.781.327,1.069,1.069,0,0,1,.322.776,1.053,1.053,0,0,1-.322.771A1.064,1.064,0,0,1,259.3,22.215Zm3.34-.781V19.5a3.755,3.755,0,0,0,.8.527,6.448,6.448,0,0,0,.977.4,7.774,7.774,0,0,0,1.03.249,5.744,5.744,0,0,0,.957.088,3.749,3.749,0,0,0,2.261-.562,2.106,2.106,0,0,0,.5-2.6,2.805,2.805,0,0,0-.688-.767,6.832,6.832,0,0,0-1.04-.664q-.6-.317-1.294-.669-.732-.371-1.367-.752a5.924,5.924,0,0,1-1.1-.84,3.5,3.5,0,0,1-.737-1.04,3.219,3.219,0,0,1-.269-1.362,3.2,3.2,0,0,1,.42-1.665,3.6,3.6,0,0,1,1.1-1.167,5,5,0,0,1,1.558-.684,7.132,7.132,0,0,1,1.782-.225,6.83,6.83,0,0,1,3.018.5v1.846a5.47,5.47,0,0,0-3.184-.859,5.236,5.236,0,0,0-1.074.112,3.034,3.034,0,0,0-.957.366,2.12,2.12,0,0,0-.684.654,1.737,1.737,0,0,0-.264.977,2.011,2.011,0,0,0,.2.928,2.274,2.274,0,0,0,.591.713,5.884,5.884,0,0,0,.952.625q.562.3,1.294.664.752.371,1.426.781a6.517,6.517,0,0,1,1.182.908,4.036,4.036,0,0,1,.806,1.1,3.1,3.1,0,0,1,.3,1.387,3.517,3.517,0,0,1-.405,1.753,3.326,3.326,0,0,1-1.094,1.167,4.777,4.777,0,0,1-1.587.649,8.691,8.691,0,0,1-1.895.2,7.721,7.721,0,0,1-.82-.054q-.488-.054-1-.156a8.128,8.128,0,0,1-.962-.254A2.993,2.993,0,0,1,262.637,21.434Zm12.92.566h-1.641V8h1.641Zm4.023.215a1.037,1.037,0,0,1-.767-.322,1.061,1.061,0,0,1-.317-.771,1.077,1.077,0,0,1,.317-.776,1.029,1.029,0,0,1,.767-.327,1.056,1.056,0,0,1,.781.327,1.069,1.069,0,0,1,.322.776,1.053,1.053,0,0,1-.322.771A1.064,1.064,0,0,1,279.58,22.215Zm13.525-.8a8.214,8.214,0,0,1-3.867.82,6.236,6.236,0,0,1-4.785-1.924,7.1,7.1,0,0,1-1.8-5.049,7.44,7.44,0,0,1,2.021-5.43,6.861,6.861,0,0,1,5.127-2.07,8.22,8.22,0,0,1,3.3.576v1.748a6.694,6.694,0,0,0-3.32-.84,5.1,5.1,0,0,0-3.911,1.611,6.07,6.07,0,0,0-1.5,4.307,5.776,5.776,0,0,0,1.4,4.077,4.768,4.768,0,0,0,3.677,1.519,6.9,6.9,0,0,0,3.652-.937Zm7.959.82a6.147,6.147,0,0,1-4.771-1.963,7.28,7.28,0,0,1-1.792-5.107,7.714,7.714,0,0,1,1.826-5.391A6.378,6.378,0,0,1,301.3,7.762a6.009,6.009,0,0,1,4.673,1.953,7.307,7.307,0,0,1,1.772,5.107,7.739,7.739,0,0,1-1.816,5.42A6.26,6.26,0,0,1,301.064,22.234Zm.117-12.988a4.515,4.515,0,0,0-3.584,1.592,6.162,6.162,0,0,0-1.377,4.18,6.206,6.206,0,0,0,1.343,4.165,4.379,4.379,0,0,0,3.5,1.577,4.6,4.6,0,0,0,3.633-1.5,6.146,6.146,0,0,0,1.328-4.209,6.422,6.422,0,0,0-1.289-4.287A4.42,4.42,0,0,0,301.182,9.246ZM321.787,22h-2.012l-7.207-11.162a4.665,4.665,0,0,1-.449-.879h-.059a14.415,14.415,0,0,1,.078,1.924V22H310.5V8h2.129l7.012,10.986q.439.684.566.938h.039a14.818,14.818,0,0,1-.1-2.061V8h1.641Zm7.256-5.02a6.259,6.259,0,0,1-1.055,3.872,3.37,3.37,0,0,1-2.822,1.382A3.336,3.336,0,0,1,323.818,22V20.379a2.28,2.28,0,0,0,1.367.381q2.217,0,2.217-3.76V8h1.641Zm13.8-.645q0,5.9-5.322,5.9-5.1,0-5.1-5.674V8h1.641v8.457q0,4.307,3.633,4.307,3.506,0,3.506-4.16V8h1.641ZM357.627,22h-2.012l-7.207-11.162a4.665,4.665,0,0,1-.449-.879H347.9a14.415,14.415,0,0,1,.078,1.924V22h-1.641V8h2.129l7.012,10.986q.439.684.566.938h.039a14.818,14.818,0,0,1-.1-2.061V8h1.641ZM369.58,9.48h-4.043V22H363.9V9.48h-4.033V8h9.717Zm6.914,12.754a6.147,6.147,0,0,1-4.771-1.963,7.28,7.28,0,0,1-1.792-5.107,7.714,7.714,0,0,1,1.826-5.391,6.378,6.378,0,0,1,4.971-2.012A6.009,6.009,0,0,1,381.4,9.715a7.307,7.307,0,0,1,1.772,5.107,7.739,7.739,0,0,1-1.816,5.42A6.26,6.26,0,0,1,376.494,22.234Zm.117-12.988a4.515,4.515,0,0,0-3.584,1.592,6.162,6.162,0,0,0-1.377,4.18,6.206,6.206,0,0,0,1.343,4.165,4.379,4.379,0,0,0,3.5,1.577,4.6,4.6,0,0,0,3.633-1.5,6.146,6.146,0,0,0,1.328-4.209,6.422,6.422,0,0,0-1.289-4.287A4.42,4.42,0,0,0,376.611,9.246Zm13.3,15.938h-1.426a12.48,12.48,0,0,1-3.027-8.525A12.953,12.953,0,0,1,388.486,8h1.445a13.161,13.161,0,0,0-3.066,8.643A12.931,12.931,0,0,0,389.912,25.184ZM391.963,22V8h3.867q7.4,0,7.4,6.826a6.879,6.879,0,0,1-2.056,5.21,7.626,7.626,0,0,1-5.5,1.968ZM393.6,9.48V20.516h2.09a5.931,5.931,0,0,0,4.287-1.475,5.528,5.528,0,0,0,1.533-4.18q0-5.381-5.723-5.381ZM416.338,22h-1.816l-1.484-3.926H407.1L405.7,22h-1.826l5.371-14h1.7ZM412.5,16.6l-2.2-5.967a5.713,5.713,0,0,1-.215-.937h-.039a5.231,5.231,0,0,1-.225.938L407.646,16.6ZM425.244,9.48H421.2V22h-1.641V9.48h-4.033V8h9.717Zm6.914,12.754a6.147,6.147,0,0,1-4.771-1.963,7.28,7.28,0,0,1-1.792-5.107,7.714,7.714,0,0,1,1.826-5.391,6.378,6.378,0,0,1,4.971-2.012,6.009,6.009,0,0,1,4.673,1.953,7.307,7.307,0,0,1,1.772,5.107,7.739,7.739,0,0,1-1.816,5.42A6.26,6.26,0,0,1,432.158,22.234Zm.117-12.988a4.515,4.515,0,0,0-3.584,1.592,6.162,6.162,0,0,0-1.377,4.18,6.206,6.206,0,0,0,1.343,4.165,4.379,4.379,0,0,0,3.5,1.577,4.6,4.6,0,0,0,3.633-1.5,6.146,6.146,0,0,0,1.328-4.209,6.422,6.422,0,0,0-1.289-4.287A4.42,4.42,0,0,0,432.275,9.246Zm8.662,12.188V19.5a3.755,3.755,0,0,0,.8.527,6.448,6.448,0,0,0,.977.4,7.774,7.774,0,0,0,1.03.249,5.744,5.744,0,0,0,.957.088,3.749,3.749,0,0,0,2.261-.562,2.106,2.106,0,0,0,.5-2.6,2.805,2.805,0,0,0-.688-.767,6.832,6.832,0,0,0-1.04-.664q-.6-.317-1.294-.669-.732-.371-1.367-.752a5.924,5.924,0,0,1-1.1-.84,3.5,3.5,0,0,1-.737-1.04,3.219,3.219,0,0,1-.269-1.362,3.2,3.2,0,0,1,.42-1.665,3.6,3.6,0,0,1,1.1-1.167,5,5,0,0,1,1.558-.684,7.132,7.132,0,0,1,1.782-.225,6.83,6.83,0,0,1,3.018.5v1.846a5.47,5.47,0,0,0-3.184-.859,5.236,5.236,0,0,0-1.074.112,3.034,3.034,0,0,0-.957.366,2.12,2.12,0,0,0-.684.654,1.737,1.737,0,0,0-.264.977,2.011,2.011,0,0,0,.2.928,2.274,2.274,0,0,0,.591.713,5.884,5.884,0,0,0,.952.625q.562.3,1.294.664.752.371,1.426.781a6.517,6.517,0,0,1,1.182.908,4.036,4.036,0,0,1,.806,1.1,3.1,3.1,0,0,1,.3,1.387,3.517,3.517,0,0,1-.405,1.753,3.326,3.326,0,0,1-1.094,1.167,4.777,4.777,0,0,1-1.587.649,8.691,8.691,0,0,1-1.895.2,7.721,7.721,0,0,1-.82-.054q-.488-.054-1-.156a8.128,8.128,0,0,1-.962-.254A2.993,2.993,0,0,1,440.938,21.434ZM454.043,8l-.186,10.059h-1.318L452.363,8Zm-.82,14.18a1.053,1.053,0,0,1-.767-.312,1.029,1.029,0,0,1-.317-.762,1.084,1.084,0,0,1,2.168,0,1.021,1.021,0,0,1-.322.762A1.058,1.058,0,0,1,453.223,22.176Zm8.857-.254v2.119h-1.016V22a6.129,6.129,0,0,1-3.379-.84v-1.7a4.576,4.576,0,0,0,1.548.835,5.66,5.66,0,0,0,1.831.337v-5a7.662,7.662,0,0,1-2.783-1.909,3.42,3.42,0,0,1-.635-2.065,3.454,3.454,0,0,1,.967-2.446,4,4,0,0,1,2.451-1.235V6.219h1.016V7.938a5.405,5.405,0,0,1,2.646.547v1.66a4.436,4.436,0,0,0-2.646-.84v5.156a8.3,8.3,0,0,1,2.778,1.87,3.137,3.137,0,0,1,.747,2.056,3.181,3.181,0,0,1-.933,2.329A4.531,4.531,0,0,1,462.08,21.922Zm-1.016-8.008V9.363a2.225,2.225,0,0,0-1.3.728,2.029,2.029,0,0,0-.479,1.362,2.283,2.283,0,0,0,.391,1.377A4.209,4.209,0,0,0,461.064,13.914Zm1.016,2.227v4.414q1.885-.41,1.885-2.031Q463.965,17.176,462.08,16.141Zm17.07,4.9a9.365,9.365,0,0,1-4.687,1.191,6.405,6.405,0,0,1-4.849-1.934,7.092,7.092,0,0,1-1.851-5.117,7.282,7.282,0,0,1,2.056-5.337,7.008,7.008,0,0,1,5.21-2.085,8.866,8.866,0,0,1,3.838.742V10.32a7.371,7.371,0,0,0-4.023-1.074,5.027,5.027,0,0,0-3.857,1.621,5.929,5.929,0,0,0-1.5,4.2,5.932,5.932,0,0,0,1.4,4.175,4.895,4.895,0,0,0,3.789,1.519,5.854,5.854,0,0,0,2.842-.654V16.18h-3.066V14.7h4.707Zm7.432.879v2.119h-1.016V22a6.129,6.129,0,0,1-3.379-.84v-1.7a4.576,4.576,0,0,0,1.548.835,5.66,5.66,0,0,0,1.831.337v-5a7.662,7.662,0,0,1-2.783-1.909,3.42,3.42,0,0,1-.635-2.065,3.454,3.454,0,0,1,.967-2.446,4,4,0,0,1,2.451-1.235V6.219h1.016V7.938a5.405,5.405,0,0,1,2.646.547v1.66a4.436,4.436,0,0,0-2.646-.84v5.156a8.3,8.3,0,0,1,2.778,1.87,3.137,3.137,0,0,1,.747,2.056,3.181,3.181,0,0,1-.933,2.329A4.531,4.531,0,0,1,486.582,21.922Zm-1.016-8.008V9.363a2.225,2.225,0,0,0-1.3.728,2.029,2.029,0,0,0-.479,1.362,2.283,2.283,0,0,0,.391,1.377A4.209,4.209,0,0,0,485.566,13.914Zm1.016,2.227v4.414q1.885-.41,1.885-2.031Q488.467,17.176,486.582,16.141Zm12.3-4.473a2.9,2.9,0,0,0-.2-1.123,2.174,2.174,0,0,0-1.362-1.27,3.193,3.193,0,0,0-1.016-.156,3.359,3.359,0,0,0-.918.127,4.463,4.463,0,0,0-.874.352,5.377,5.377,0,0,0-.82.537,5.926,5.926,0,0,0-.737.693V9.109a4.788,4.788,0,0,1,1.509-1,5.312,5.312,0,0,1,2.036-.347,4.915,4.915,0,0,1,1.592.249,3.649,3.649,0,0,1,1.27.728,3.363,3.363,0,0,1,.845,1.182,3.985,3.985,0,0,1,.308,1.611,5.525,5.525,0,0,1-.19,1.5,4.651,4.651,0,0,1-.576,1.27,6.126,6.126,0,0,1-.972,1.143,13.764,13.764,0,0,1-1.377,1.113q-.986.7-1.626,1.2a7.188,7.188,0,0,0-1.016.933,2.707,2.707,0,0,0-.527.869,3.038,3.038,0,0,0-.151,1h6.973V22h-8.643v-.693a5.778,5.778,0,0,1,.2-1.582,4.108,4.108,0,0,1,.645-1.3,7.208,7.208,0,0,1,1.177-1.23q.728-.615,1.782-1.387a11.267,11.267,0,0,0,1.274-1.045,5.433,5.433,0,0,0,.825-1,3.577,3.577,0,0,0,.444-1.011A4.358,4.358,0,0,0,498.887,11.668Zm5.42,2.285a1.037,1.037,0,0,1-.767-.322,1.061,1.061,0,0,1-.317-.771,1.029,1.029,0,0,1,.317-.762,1.053,1.053,0,0,1,.767-.312,1.081,1.081,0,0,1,.781.313,1.021,1.021,0,0,1,.322.762,1.053,1.053,0,0,1-.322.771A1.064,1.064,0,0,1,504.307,13.953Zm0,8.262a1.037,1.037,0,0,1-.767-.322,1.061,1.061,0,0,1-.317-.771,1.077,1.077,0,0,1,.317-.776,1.029,1.029,0,0,1,.767-.327,1.056,1.056,0,0,1,.781.327,1.069,1.069,0,0,1,.322.776,1.053,1.053,0,0,1-.322.771A1.064,1.064,0,0,1,504.307,22.215Zm8.174-.293v2.119h-1.016V22a6.129,6.129,0,0,1-3.379-.84v-1.7a4.576,4.576,0,0,0,1.548.835,5.66,5.66,0,0,0,1.831.337v-5a7.662,7.662,0,0,1-2.783-1.909,3.42,3.42,0,0,1-.635-2.065,3.454,3.454,0,0,1,.967-2.446,4,4,0,0,1,2.451-1.235V6.219h1.016V7.938a5.405,5.405,0,0,1,2.646.547v1.66a4.436,4.436,0,0,0-2.646-.84v5.156a8.3,8.3,0,0,1,2.778,1.87,3.137,3.137,0,0,1,.747,2.056,3.181,3.181,0,0,1-.933,2.329A4.531,4.531,0,0,1,512.48,21.922Zm-1.016-8.008V9.363a2.225,2.225,0,0,0-1.3.728,2.029,2.029,0,0,0-.479,1.362,2.283,2.283,0,0,0,.391,1.377A4.209,4.209,0,0,0,511.465,13.914Zm1.016,2.227v4.414q1.885-.41,1.885-2.031Q514.365,17.176,512.48,16.141Zm17.07,4.9a9.365,9.365,0,0,1-4.687,1.191,6.405,6.405,0,0,1-4.849-1.934,7.092,7.092,0,0,1-1.851-5.117,7.282,7.282,0,0,1,2.056-5.337,7.008,7.008,0,0,1,5.21-2.085,8.866,8.866,0,0,1,3.838.742V10.32a7.371,7.371,0,0,0-4.023-1.074,5.027,5.027,0,0,0-3.857,1.621,5.929,5.929,0,0,0-1.5,4.2,5.932,5.932,0,0,0,1.4,4.175,4.895,4.895,0,0,0,3.789,1.519,5.854,5.854,0,0,0,2.842-.654V16.18h-3.066V14.7h4.707Zm7.432.879v2.119h-1.016V22a6.129,6.129,0,0,1-3.379-.84v-1.7a4.576,4.576,0,0,0,1.548.835,5.66,5.66,0,0,0,1.831.337v-5a7.661,7.661,0,0,1-2.783-1.909,3.42,3.42,0,0,1-.635-2.065,3.454,3.454,0,0,1,.967-2.446,4,4,0,0,1,2.451-1.235V6.219h1.016V7.938a5.405,5.405,0,0,1,2.646.547v1.66a4.436,4.436,0,0,0-2.646-.84v5.156a8.3,8.3,0,0,1,2.778,1.87,3.137,3.137,0,0,1,.747,2.056,3.181,3.181,0,0,1-.933,2.329A4.531,4.531,0,0,1,536.982,21.922Zm-1.016-8.008V9.363a2.225,2.225,0,0,0-1.3.728,2.029,2.029,0,0,0-.479,1.362,2.283,2.283,0,0,0,.391,1.377A4.209,4.209,0,0,0,535.967,13.914Zm1.016,2.227v4.414q1.885-.41,1.885-2.031Q538.867,17.176,536.982,16.141Zm14.229,1.582a4.713,4.713,0,0,1-.352,1.855,4.057,4.057,0,0,1-1,1.426,4.482,4.482,0,0,1-1.567.918,6.13,6.13,0,0,1-2.041.322,5.638,5.638,0,0,1-2.9-.586v-1.7a5.333,5.333,0,0,0,2.92.918,3.952,3.952,0,0,0,1.372-.225,3.048,3.048,0,0,0,1.04-.625,2.677,2.677,0,0,0,.659-.967,3.272,3.272,0,0,0,.229-1.24,2.657,2.657,0,0,0-.918-2.144,4.026,4.026,0,0,0-2.666-.776q-.283,0-.6.01t-.625.024q-.312.015-.61.034t-.542.049L544.092,8h6.475V9.441h-5.088l-.283,4.111q.312-.02.664-.034t.625-.015a6.285,6.285,0,0,1,1.992.293,4.221,4.221,0,0,1,1.489.835,3.5,3.5,0,0,1,.928,1.328A4.671,4.671,0,0,1,551.211,17.723Zm8.857-6.055a2.9,2.9,0,0,0-.2-1.123,2.174,2.174,0,0,0-1.362-1.27,3.193,3.193,0,0,0-1.016-.156,3.359,3.359,0,0,0-.918.127,4.462,4.462,0,0,0-.874.352,5.377,5.377,0,0,0-.82.537,5.924,5.924,0,0,0-.737.693V9.109a4.788,4.788,0,0,1,1.509-1,5.312,5.312,0,0,1,2.036-.347,4.915,4.915,0,0,1,1.592.249,3.65,3.65,0,0,1,1.27.728,3.363,3.363,0,0,1,.845,1.182,3.985,3.985,0,0,1,.308,1.611,5.525,5.525,0,0,1-.19,1.5,4.652,4.652,0,0,1-.576,1.27,6.125,6.125,0,0,1-.972,1.143,13.764,13.764,0,0,1-1.377,1.113q-.986.7-1.626,1.2a7.188,7.188,0,0,0-1.016.933,2.706,2.706,0,0,0-.527.869,3.039,3.039,0,0,0-.151,1h6.973V22h-8.643v-.693a5.779,5.779,0,0,1,.2-1.582,4.107,4.107,0,0,1,.645-1.3,7.208,7.208,0,0,1,1.177-1.23q.728-.615,1.782-1.387a11.267,11.267,0,0,0,1.274-1.045,5.432,5.432,0,0,0,.825-1,3.578,3.578,0,0,0,.444-1.011A4.358,4.358,0,0,0,560.068,11.668Zm5.449,2.285a1.048,1.048,0,0,1-.776-.322,1.061,1.061,0,0,1-.317-.771,1.028,1.028,0,0,1,.317-.762,1.115,1.115,0,0,1,1.548,0,1.021,1.021,0,0,1,.322.762,1.1,1.1,0,0,1-1.094,1.094Zm.879,5.82-1.562,4.8h-1.143l1.143-4.8ZM569.482,22V8h3.867q7.4,0,7.4,6.826a6.879,6.879,0,0,1-2.056,5.21,7.626,7.626,0,0,1-5.5,1.968Zm1.641-12.52V20.516h2.09a5.931,5.931,0,0,0,4.287-1.475,5.528,5.528,0,0,0,1.533-4.18q0-5.381-5.723-5.381ZM593.857,22h-1.816l-1.484-3.926h-5.937L583.223,22H581.4l5.371-14h1.7Zm-3.838-5.4-2.2-5.967a5.713,5.713,0,0,1-.215-.937h-.039a5.231,5.231,0,0,1-.225.938L585.166,16.6ZM602.764,9.48h-4.043V22H597.08V9.48h-4.033V8h9.717Zm6.914,12.754a6.147,6.147,0,0,1-4.771-1.963,7.28,7.28,0,0,1-1.792-5.107,7.714,7.714,0,0,1,1.826-5.391,6.378,6.378,0,0,1,4.971-2.012,6.009,6.009,0,0,1,4.673,1.953,7.307,7.307,0,0,1,1.772,5.107,7.739,7.739,0,0,1-1.816,5.42A6.26,6.26,0,0,1,609.678,22.234Zm.117-12.988a4.515,4.515,0,0,0-3.584,1.592,6.162,6.162,0,0,0-1.377,4.18,6.205,6.205,0,0,0,1.343,4.165,4.379,4.379,0,0,0,3.5,1.577,4.6,4.6,0,0,0,3.633-1.5,6.146,6.146,0,0,0,1.328-4.209,6.422,6.422,0,0,0-1.289-4.287A4.42,4.42,0,0,0,609.795,9.246Zm8.662,12.188V19.5a3.755,3.755,0,0,0,.8.527,6.449,6.449,0,0,0,.977.4,7.775,7.775,0,0,0,1.03.249,5.744,5.744,0,0,0,.957.088,3.749,3.749,0,0,0,2.261-.562,2.106,2.106,0,0,0,.5-2.6,2.805,2.805,0,0,0-.688-.767,6.832,6.832,0,0,0-1.04-.664q-.6-.317-1.294-.669-.732-.371-1.367-.752a5.925,5.925,0,0,1-1.1-.84,3.5,3.5,0,0,1-.737-1.04,3.22,3.22,0,0,1-.269-1.362,3.2,3.2,0,0,1,.42-1.665A3.6,3.6,0,0,1,620,8.67a5,5,0,0,1,1.558-.684,7.132,7.132,0,0,1,1.782-.225,6.83,6.83,0,0,1,3.018.5v1.846a5.47,5.47,0,0,0-3.184-.859,5.236,5.236,0,0,0-1.074.112,3.034,3.034,0,0,0-.957.366,2.12,2.12,0,0,0-.684.654,1.737,1.737,0,0,0-.264.977,2.01,2.01,0,0,0,.2.928,2.274,2.274,0,0,0,.591.713,5.886,5.886,0,0,0,.952.625q.561.3,1.294.664.752.371,1.426.781a6.518,6.518,0,0,1,1.182.908,4.035,4.035,0,0,1,.806,1.1,3.1,3.1,0,0,1,.3,1.387,3.516,3.516,0,0,1-.405,1.753,3.326,3.326,0,0,1-1.094,1.167,4.777,4.777,0,0,1-1.587.649,8.691,8.691,0,0,1-1.895.2,7.72,7.72,0,0,1-.82-.054q-.488-.054-1-.156a8.127,8.127,0,0,1-.962-.254A2.994,2.994,0,0,1,618.457,21.434ZM631.563,8l-.186,10.059h-1.318L629.883,8Zm-.82,14.18a1.053,1.053,0,0,1-.767-.312,1.028,1.028,0,0,1-.317-.762,1.084,1.084,0,0,1,2.168,0,1.021,1.021,0,0,1-.322.762A1.058,1.058,0,0,1,630.742,22.176Zm8.857-.254v2.119h-1.016V22a6.129,6.129,0,0,1-3.379-.84v-1.7a4.576,4.576,0,0,0,1.548.835,5.66,5.66,0,0,0,1.831.337v-5a7.661,7.661,0,0,1-2.783-1.909,3.42,3.42,0,0,1-.635-2.065,3.454,3.454,0,0,1,.967-2.446,4,4,0,0,1,2.451-1.235V6.219H639.6V7.938a5.405,5.405,0,0,1,2.646.547v1.66A4.436,4.436,0,0,0,639.6,9.3v5.156a8.3,8.3,0,0,1,2.778,1.87,3.137,3.137,0,0,1,.747,2.056,3.181,3.181,0,0,1-.933,2.329A4.531,4.531,0,0,1,639.6,21.922Zm-1.016-8.008V9.363a2.225,2.225,0,0,0-1.3.728,2.029,2.029,0,0,0-.479,1.362,2.283,2.283,0,0,0,.391,1.377A4.209,4.209,0,0,0,638.584,13.914Zm1.016,2.227v4.414q1.885-.41,1.885-2.031Q641.484,17.176,639.6,16.141Zm16.133,5.273a8.214,8.214,0,0,1-3.867.82,6.237,6.237,0,0,1-4.785-1.924,7.1,7.1,0,0,1-1.8-5.049,7.44,7.44,0,0,1,2.021-5.43,6.861,6.861,0,0,1,5.127-2.07,8.22,8.22,0,0,1,3.3.576v1.748a6.694,6.694,0,0,0-3.32-.84,5.1,5.1,0,0,0-3.911,1.611,6.07,6.07,0,0,0-1.5,4.307,5.776,5.776,0,0,0,1.4,4.077,4.768,4.768,0,0,0,3.677,1.519,6.9,6.9,0,0,0,3.652-.937Zm7.031.508v2.119h-1.016V22a6.129,6.129,0,0,1-3.379-.84v-1.7a4.576,4.576,0,0,0,1.548.835,5.66,5.66,0,0,0,1.831.337v-5a7.661,7.661,0,0,1-2.783-1.909,3.42,3.42,0,0,1-.635-2.065,3.454,3.454,0,0,1,.967-2.446,4,4,0,0,1,2.451-1.235V6.219h1.016V7.938a5.405,5.405,0,0,1,2.646.547v1.66a4.436,4.436,0,0,0-2.646-.84v5.156a8.3,8.3,0,0,1,2.778,1.87,3.137,3.137,0,0,1,.747,2.056,3.181,3.181,0,0,1-.933,2.329A4.531,4.531,0,0,1,662.764,21.922Zm-1.016-8.008V9.363a2.225,2.225,0,0,0-1.3.728,2.029,2.029,0,0,0-.479,1.362,2.283,2.283,0,0,0,.391,1.377A4.209,4.209,0,0,0,661.748,13.914Zm1.016,2.227v4.414q1.885-.41,1.885-2.031Q664.648,17.176,662.764,16.141Zm12.3-4.473a2.9,2.9,0,0,0-.2-1.123,2.174,2.174,0,0,0-1.362-1.27,3.193,3.193,0,0,0-1.016-.156,3.359,3.359,0,0,0-.918.127,4.462,4.462,0,0,0-.874.352,5.377,5.377,0,0,0-.82.537,5.924,5.924,0,0,0-.737.693V9.109a4.788,4.788,0,0,1,1.509-1,5.312,5.312,0,0,1,2.036-.347,4.915,4.915,0,0,1,1.592.249,3.65,3.65,0,0,1,1.27.728,3.363,3.363,0,0,1,.845,1.182,3.985,3.985,0,0,1,.308,1.611,5.525,5.525,0,0,1-.19,1.5,4.652,4.652,0,0,1-.576,1.27,6.125,6.125,0,0,1-.972,1.143,13.764,13.764,0,0,1-1.377,1.113q-.986.7-1.626,1.2a7.188,7.188,0,0,0-1.016.933,2.706,2.706,0,0,0-.527.869,3.039,3.039,0,0,0-.151,1h6.973V22h-8.643v-.693a5.779,5.779,0,0,1,.2-1.582,4.107,4.107,0,0,1,.645-1.3,7.208,7.208,0,0,1,1.177-1.23q.728-.615,1.782-1.387a11.267,11.267,0,0,0,1.274-1.045,5.432,5.432,0,0,0,.825-1,3.578,3.578,0,0,0,.444-1.011A4.358,4.358,0,0,0,675.068,11.668Zm5.42,2.285a1.037,1.037,0,0,1-.767-.322,1.061,1.061,0,0,1-.317-.771,1.028,1.028,0,0,1,.317-.762,1.053,1.053,0,0,1,.767-.312,1.081,1.081,0,0,1,.781.313,1.021,1.021,0,0,1,.322.762,1.053,1.053,0,0,1-.322.771A1.064,1.064,0,0,1,680.488,13.953Zm0,8.262a1.037,1.037,0,0,1-.767-.322,1.061,1.061,0,0,1-.317-.771,1.077,1.077,0,0,1,.317-.776,1.029,1.029,0,0,1,.767-.327,1.056,1.056,0,0,1,.781.327,1.069,1.069,0,0,1,.322.776,1.053,1.053,0,0,1-.322.771A1.064,1.064,0,0,1,680.488,22.215Zm8.174-.293v2.119h-1.016V22a6.129,6.129,0,0,1-3.379-.84v-1.7a4.576,4.576,0,0,0,1.548.835,5.66,5.66,0,0,0,1.831.337v-5a7.661,7.661,0,0,1-2.783-1.909,3.42,3.42,0,0,1-.635-2.065,3.454,3.454,0,0,1,.967-2.446,4,4,0,0,1,2.451-1.235V6.219h1.016V7.938a5.405,5.405,0,0,1,2.646.547v1.66a4.436,4.436,0,0,0-2.646-.84v5.156a8.3,8.3,0,0,1,2.778,1.87,3.137,3.137,0,0,1,.747,2.056,3.181,3.181,0,0,1-.933,2.329A4.531,4.531,0,0,1,688.662,21.922Zm-1.016-8.008V9.363a2.225,2.225,0,0,0-1.3.728,2.029,2.029,0,0,0-.479,1.362,2.283,2.283,0,0,0,.391,1.377A4.209,4.209,0,0,0,687.646,13.914Zm1.016,2.227v4.414q1.885-.41,1.885-2.031Q690.547,17.176,688.662,16.141Zm16.133,5.273a8.214,8.214,0,0,1-3.867.82,6.237,6.237,0,0,1-4.785-1.924,7.1,7.1,0,0,1-1.8-5.049,7.44,7.44,0,0,1,2.021-5.43,6.861,6.861,0,0,1,5.127-2.07,8.22,8.22,0,0,1,3.3.576v1.748a6.694,6.694,0,0,0-3.32-.84,5.1,5.1,0,0,0-3.911,1.611,6.07,6.07,0,0,0-1.5,4.307,5.776,5.776,0,0,0,1.4,4.077,4.768,4.768,0,0,0,3.677,1.519,6.9,6.9,0,0,0,3.652-.937Zm7.031.508v2.119h-1.016V22a6.129,6.129,0,0,1-3.379-.84v-1.7a4.576,4.576,0,0,0,1.548.835,5.66,5.66,0,0,0,1.831.337v-5a7.661,7.661,0,0,1-2.783-1.909,3.42,3.42,0,0,1-.635-2.065,3.454,3.454,0,0,1,.967-2.446,4,4,0,0,1,2.451-1.235V6.219h1.016V7.938a5.405,5.405,0,0,1,2.646.547v1.66a4.436,4.436,0,0,0-2.646-.84v5.156a8.3,8.3,0,0,1,2.778,1.87,3.137,3.137,0,0,1,.747,2.056,3.181,3.181,0,0,1-.933,2.329A4.531,4.531,0,0,1,711.826,21.922Zm-1.016-8.008V9.363a2.225,2.225,0,0,0-1.3.728,2.029,2.029,0,0,0-.479,1.362,2.283,2.283,0,0,0,.391,1.377A4.209,4.209,0,0,0,710.811,13.914Zm1.016,2.227v4.414q1.885-.41,1.885-2.031Q713.711,17.176,711.826,16.141Zm14.229,1.582a4.713,4.713,0,0,1-.352,1.855,4.057,4.057,0,0,1-1,1.426,4.482,4.482,0,0,1-1.567.918,6.13,6.13,0,0,1-2.041.322,5.638,5.638,0,0,1-2.9-.586v-1.7a5.333,5.333,0,0,0,2.92.918,3.952,3.952,0,0,0,1.372-.225,3.048,3.048,0,0,0,1.04-.625,2.677,2.677,0,0,0,.659-.967,3.272,3.272,0,0,0,.229-1.24,2.657,2.657,0,0,0-.918-2.144,4.026,4.026,0,0,0-2.666-.776q-.283,0-.6.01t-.625.024q-.312.015-.61.034t-.542.049L718.936,8h6.475V9.441h-5.088l-.283,4.111q.312-.02.664-.034t.625-.015a6.285,6.285,0,0,1,1.992.293,4.221,4.221,0,0,1,1.489.835,3.5,3.5,0,0,1,.928,1.328A4.671,4.671,0,0,1,726.055,17.723Zm8.857-6.055a2.9,2.9,0,0,0-.2-1.123,2.174,2.174,0,0,0-1.362-1.27,3.193,3.193,0,0,0-1.016-.156,3.359,3.359,0,0,0-.918.127,4.462,4.462,0,0,0-.874.352,5.377,5.377,0,0,0-.82.537,5.924,5.924,0,0,0-.737.693V9.109a4.788,4.788,0,0,1,1.509-1,5.312,5.312,0,0,1,2.036-.347,4.915,4.915,0,0,1,1.592.249,3.65,3.65,0,0,1,1.27.728,3.363,3.363,0,0,1,.845,1.182,3.985,3.985,0,0,1,.308,1.611,5.525,5.525,0,0,1-.19,1.5,4.652,4.652,0,0,1-.576,1.27,6.125,6.125,0,0,1-.972,1.143,13.764,13.764,0,0,1-1.377,1.113q-.986.7-1.626,1.2a7.188,7.188,0,0,0-1.016.933,2.706,2.706,0,0,0-.527.869,3.039,3.039,0,0,0-.151,1h6.973V22h-8.643v-.693a5.779,5.779,0,0,1,.2-1.582,4.107,4.107,0,0,1,.645-1.3,7.208,7.208,0,0,1,1.177-1.23q.728-.615,1.782-1.387a11.267,11.267,0,0,0,1.274-1.045,5.432,5.432,0,0,0,.825-1,3.578,3.578,0,0,0,.444-1.011A4.358,4.358,0,0,0,734.912,11.668Zm5.449,2.285a1.048,1.048,0,0,1-.776-.322,1.061,1.061,0,0,1-.317-.771,1.028,1.028,0,0,1,.317-.762,1.115,1.115,0,0,1,1.548,0,1.021,1.021,0,0,1,.322.762,1.1,1.1,0,0,1-1.094,1.094Zm.879,5.82-1.562,4.8h-1.143l1.143-4.8ZM755.166,22H753.35l-1.484-3.926h-5.937L744.531,22h-1.826l5.371-14h1.7Zm-3.838-5.4-2.2-5.967a5.713,5.713,0,0,1-.215-.937h-.039a5.231,5.231,0,0,1-.225.938L746.475,16.6Zm13.926-7.676q-.322.557-.776,1.387t-.962,1.865q-.508,1.035-1.035,2.227t-.986,2.461q-.459,1.27-.806,2.573a19.144,19.144,0,0,0-.5,2.563h-1.719a19.473,19.473,0,0,1,.542-2.554q.366-1.3.83-2.559t.981-2.417q.518-1.162,1.006-2.139t.894-1.724q.405-.747.649-1.167h-7.021V8h8.906Zm2.578,16.26h-1.426a12.931,12.931,0,0,0,3.047-8.545A13.161,13.161,0,0,0,766.387,8h1.445a12.9,12.9,0,0,1,3.047,8.662A12.432,12.432,0,0,1,767.832,25.184Zm6.582-11.23a1.048,1.048,0,0,1-.776-.322,1.061,1.061,0,0,1-.317-.771,1.028,1.028,0,0,1,.317-.762,1.115,1.115,0,0,1,1.548,0,1.021,1.021,0,0,1,.322.762,1.1,1.1,0,0,1-1.094,1.094Zm.879,5.82-1.562,4.8h-1.143l1.143-4.8Zm7.813-12.012-1.367,4.355h-1.152l1.055-4.355Zm-2.969,0-1.367,4.355h-1.152L778.7,7.762Zm10.508,0-1.367,4.355h-1.152l1.055-4.355Zm-2.969,0-1.367,4.355h-1.152l1.084-4.355Zm5.605,17.422h-1.426a12.931,12.931,0,0,0,3.047-8.545A13.161,13.161,0,0,0,791.836,8h1.445a12.9,12.9,0,0,1,3.047,8.662A12.432,12.432,0,0,1,793.281,25.184Z" transform="translate(-0.918 -6.219)" fill="#707070"/>
</svg>
