<svg xmlns="http://www.w3.org/2000/svg" width="698.807" height="17.422" viewBox="0 0 698.807 17.422">
  <g id="img-txt1" transform="translate(3071.547 10014.422)">
    <path id="Trazado_143852" data-name="Trazado 143852" d="M11.445,14.734H2.266V13.445h9.18Zm0,4.16H2.266V17.605h9.18Zm3.418,2.539V19.5a3.755,3.755,0,0,0,.8.527,6.448,6.448,0,0,0,.977.4,7.774,7.774,0,0,0,1.03.249,5.744,5.744,0,0,0,.957.088,3.749,3.749,0,0,0,2.261-.562,2.106,2.106,0,0,0,.5-2.6,2.805,2.805,0,0,0-.688-.767,6.832,6.832,0,0,0-1.04-.664q-.6-.317-1.294-.669-.732-.371-1.367-.752a5.924,5.924,0,0,1-1.1-.84,3.5,3.5,0,0,1-.737-1.04,3.219,3.219,0,0,1-.269-1.362,3.2,3.2,0,0,1,.42-1.665,3.6,3.6,0,0,1,1.1-1.167,5,5,0,0,1,1.558-.684,7.132,7.132,0,0,1,1.782-.225,6.83,6.83,0,0,1,3.018.5v1.846a5.47,5.47,0,0,0-3.184-.859,5.236,5.236,0,0,0-1.074.112,3.034,3.034,0,0,0-.957.366,2.12,2.12,0,0,0-.684.654,1.737,1.737,0,0,0-.264.977,2.011,2.011,0,0,0,.2.928,2.274,2.274,0,0,0,.591.713,5.885,5.885,0,0,0,.952.625q.562.3,1.294.664.752.371,1.426.781a6.517,6.517,0,0,1,1.182.908,4.036,4.036,0,0,1,.806,1.1,3.1,3.1,0,0,1,.3,1.387,3.517,3.517,0,0,1-.405,1.753,3.326,3.326,0,0,1-1.094,1.167,4.777,4.777,0,0,1-1.587.649,8.691,8.691,0,0,1-1.895.2,7.72,7.72,0,0,1-.82-.054q-.488-.054-1-.156a8.128,8.128,0,0,1-.962-.254A2.993,2.993,0,0,1,14.863,21.434ZM27.783,22H26.143V8h1.641Zm4.023.215a1.037,1.037,0,0,1-.767-.322,1.061,1.061,0,0,1-.317-.771,1.077,1.077,0,0,1,.317-.776,1.029,1.029,0,0,1,.767-.327,1.056,1.056,0,0,1,.781.327,1.069,1.069,0,0,1,.322.776,1.053,1.053,0,0,1-.322.771A1.064,1.064,0,0,1,31.807,22.215ZM43.223,22H35.8V8H42.91V9.48H37.441v4.658H42.5v1.475H37.441v4.9h5.781Zm12.734,0H54L51.66,18.074a8.55,8.55,0,0,0-.625-.933,3.563,3.563,0,0,0-.62-.63,2.148,2.148,0,0,0-.684-.356,2.811,2.811,0,0,0-.825-.112H47.559V22H45.918V8H50.1a5.957,5.957,0,0,1,1.694.229,3.791,3.791,0,0,1,1.348.7,3.245,3.245,0,0,1,.894,1.167,3.87,3.87,0,0,1,.322,1.636,3.939,3.939,0,0,1-.22,1.343,3.507,3.507,0,0,1-.625,1.089,3.789,3.789,0,0,1-.977.815,4.986,4.986,0,0,1-1.284.522v.039a2.954,2.954,0,0,1,.61.356,3.359,3.359,0,0,1,.493.474,6.274,6.274,0,0,1,.464.62q.229.347.513.806Zm-8.4-12.52v5.078h2.227a3.377,3.377,0,0,0,1.138-.186,2.634,2.634,0,0,0,.9-.532,2.414,2.414,0,0,0,.6-.85,2.844,2.844,0,0,0,.215-1.128,2.2,2.2,0,0,0-.728-1.753,3.125,3.125,0,0,0-2.1-.63ZM67.92,22H65.967l-2.344-3.926A8.55,8.55,0,0,0,63,17.142a3.563,3.563,0,0,0-.62-.63,2.148,2.148,0,0,0-.684-.356,2.811,2.811,0,0,0-.825-.112H59.521V22H57.881V8h4.18a5.957,5.957,0,0,1,1.694.229,3.791,3.791,0,0,1,1.348.7A3.245,3.245,0,0,1,66,10.091a3.87,3.87,0,0,1,.322,1.636,3.939,3.939,0,0,1-.22,1.343,3.507,3.507,0,0,1-.625,1.089,3.789,3.789,0,0,1-.977.815,4.986,4.986,0,0,1-1.284.522v.039a2.954,2.954,0,0,1,.61.356,3.359,3.359,0,0,1,.493.474,6.273,6.273,0,0,1,.464.62q.229.347.513.806Zm-8.4-12.52v5.078h2.227a3.377,3.377,0,0,0,1.138-.186,2.634,2.634,0,0,0,.9-.532,2.414,2.414,0,0,0,.6-.85,2.844,2.844,0,0,0,.215-1.128,2.2,2.2,0,0,0-.728-1.753,3.125,3.125,0,0,0-2.1-.63ZM75.293,22.234a6.147,6.147,0,0,1-4.771-1.963,7.28,7.28,0,0,1-1.792-5.107,7.714,7.714,0,0,1,1.826-5.391,6.378,6.378,0,0,1,4.971-2.012A6.009,6.009,0,0,1,80.2,9.715a7.307,7.307,0,0,1,1.772,5.107,7.739,7.739,0,0,1-1.816,5.42A6.26,6.26,0,0,1,75.293,22.234ZM75.41,9.246a4.515,4.515,0,0,0-3.584,1.592,6.162,6.162,0,0,0-1.377,4.18,6.206,6.206,0,0,0,1.343,4.165,4.379,4.379,0,0,0,3.5,1.577,4.6,4.6,0,0,0,3.633-1.5,6.146,6.146,0,0,0,1.328-4.209,6.422,6.422,0,0,0-1.289-4.287A4.42,4.42,0,0,0,75.41,9.246ZM94.766,22H92.813l-2.344-3.926a8.551,8.551,0,0,0-.625-.933,3.563,3.563,0,0,0-.62-.63,2.148,2.148,0,0,0-.684-.356,2.811,2.811,0,0,0-.825-.112H86.367V22H84.727V8h4.18a5.957,5.957,0,0,1,1.694.229,3.791,3.791,0,0,1,1.348.7,3.245,3.245,0,0,1,.894,1.167,3.87,3.87,0,0,1,.322,1.636,3.939,3.939,0,0,1-.22,1.343,3.507,3.507,0,0,1-.625,1.089,3.789,3.789,0,0,1-.977.815,4.986,4.986,0,0,1-1.284.522v.039a2.954,2.954,0,0,1,.61.356,3.359,3.359,0,0,1,.493.474,6.273,6.273,0,0,1,.464.62q.229.347.513.806Zm-8.4-12.52v5.078h2.227a3.377,3.377,0,0,0,1.138-.186,2.634,2.634,0,0,0,.9-.532,2.414,2.414,0,0,0,.6-.85,2.844,2.844,0,0,0,.215-1.128,2.2,2.2,0,0,0-.728-1.753,3.125,3.125,0,0,0-2.1-.63Zm14.307,15.7H99.248a12.48,12.48,0,0,1-3.027-8.525A12.953,12.953,0,0,1,99.248,8h1.445a13.161,13.161,0,0,0-3.066,8.643A12.931,12.931,0,0,0,100.674,25.184Zm1.4-3.75V19.5a3.755,3.755,0,0,0,.8.527,6.448,6.448,0,0,0,.977.4,7.774,7.774,0,0,0,1.03.249,5.744,5.744,0,0,0,.957.088,3.749,3.749,0,0,0,2.261-.562,2.106,2.106,0,0,0,.5-2.6,2.805,2.805,0,0,0-.688-.767,6.832,6.832,0,0,0-1.04-.664q-.6-.317-1.294-.669-.732-.371-1.367-.752a5.924,5.924,0,0,1-1.1-.84,3.5,3.5,0,0,1-.737-1.04,3.219,3.219,0,0,1-.269-1.362,3.2,3.2,0,0,1,.42-1.665,3.6,3.6,0,0,1,1.1-1.167,5,5,0,0,1,1.558-.684,7.132,7.132,0,0,1,1.782-.225,6.83,6.83,0,0,1,3.018.5v1.846a5.47,5.47,0,0,0-3.184-.859,5.236,5.236,0,0,0-1.074.112,3.034,3.034,0,0,0-.957.366,2.12,2.12,0,0,0-.684.654,1.737,1.737,0,0,0-.264.977,2.011,2.011,0,0,0,.2.928A2.274,2.274,0,0,0,104.6,13a5.884,5.884,0,0,0,.952.625q.562.3,1.294.664.752.371,1.426.781a6.517,6.517,0,0,1,1.182.908,4.036,4.036,0,0,1,.806,1.1,3.1,3.1,0,0,1,.3,1.387,3.517,3.517,0,0,1-.405,1.753,3.326,3.326,0,0,1-1.094,1.167,4.777,4.777,0,0,1-1.587.649,8.691,8.691,0,0,1-1.895.2,7.721,7.721,0,0,1-.82-.054q-.488-.054-1-.156a8.128,8.128,0,0,1-.962-.254A2.993,2.993,0,0,1,102.07,21.434Zm21.523-5.1q0,5.9-5.322,5.9-5.1,0-5.1-5.674V8h1.641v8.457q0,4.307,3.633,4.307,3.506,0,3.506-4.16V8h1.641ZM141.367,22h-1.631V12.605q0-1.113.137-2.725h-.039a8.71,8.71,0,0,1-.42,1.357L134.629,22h-.8l-4.775-10.684a8.371,8.371,0,0,1-.42-1.436h-.039q.078.84.078,2.744V22H127.09V8h2.168l4.3,9.766a12.5,12.5,0,0,1,.645,1.68h.059q.42-1.152.674-1.719L139.316,8h2.051Zm14.521,0h-1.816l-1.484-3.926H146.65L145.254,22h-1.826L148.8,8h1.7Zm-3.838-5.4-2.2-5.967a5.713,5.713,0,0,1-.215-.937H149.6a5.231,5.231,0,0,1-.225.938L147.2,16.6ZM167.988,22h-1.953l-2.344-3.926a8.55,8.55,0,0,0-.625-.933,3.563,3.563,0,0,0-.62-.63,2.148,2.148,0,0,0-.684-.356,2.811,2.811,0,0,0-.825-.112H159.59V22h-1.641V8h4.18a5.957,5.957,0,0,1,1.694.229,3.791,3.791,0,0,1,1.348.7,3.245,3.245,0,0,1,.894,1.167,3.87,3.87,0,0,1,.322,1.636,3.939,3.939,0,0,1-.22,1.343,3.507,3.507,0,0,1-.625,1.089,3.789,3.789,0,0,1-.977.815,4.985,4.985,0,0,1-1.284.522v.039a2.954,2.954,0,0,1,.61.356,3.359,3.359,0,0,1,.493.474,6.274,6.274,0,0,1,.464.62q.229.347.513.806Zm-8.4-12.52v5.078h2.227a3.377,3.377,0,0,0,1.138-.186,2.634,2.634,0,0,0,.9-.532,2.414,2.414,0,0,0,.6-.85,2.844,2.844,0,0,0,.215-1.128,2.2,2.2,0,0,0-.728-1.753,3.125,3.125,0,0,0-2.1-.63Zm10.664,12.734a1.037,1.037,0,0,1-.767-.322,1.061,1.061,0,0,1-.317-.771,1.077,1.077,0,0,1,.317-.776,1.029,1.029,0,0,1,.767-.327,1.056,1.056,0,0,1,.781.327,1.069,1.069,0,0,1,.322.776,1.053,1.053,0,0,1-.322.771A1.064,1.064,0,0,1,170.254,22.215Zm3.34-.781V19.5a3.755,3.755,0,0,0,.8.527,6.448,6.448,0,0,0,.977.4,7.774,7.774,0,0,0,1.03.249,5.744,5.744,0,0,0,.957.088,3.749,3.749,0,0,0,2.261-.562,2.106,2.106,0,0,0,.5-2.6,2.805,2.805,0,0,0-.688-.767,6.832,6.832,0,0,0-1.04-.664q-.6-.317-1.294-.669-.732-.371-1.367-.752a5.925,5.925,0,0,1-1.1-.84,3.5,3.5,0,0,1-.737-1.04,3.219,3.219,0,0,1-.269-1.362,3.2,3.2,0,0,1,.42-1.665,3.6,3.6,0,0,1,1.1-1.167,5,5,0,0,1,1.558-.684,7.132,7.132,0,0,1,1.782-.225,6.83,6.83,0,0,1,3.018.5v1.846a5.47,5.47,0,0,0-3.184-.859,5.236,5.236,0,0,0-1.074.112,3.034,3.034,0,0,0-.957.366,2.12,2.12,0,0,0-.684.654,1.737,1.737,0,0,0-.264.977,2.01,2.01,0,0,0,.2.928,2.274,2.274,0,0,0,.591.713,5.885,5.885,0,0,0,.952.625q.562.3,1.294.664.752.371,1.426.781a6.517,6.517,0,0,1,1.182.908,4.036,4.036,0,0,1,.806,1.1,3.1,3.1,0,0,1,.3,1.387,3.517,3.517,0,0,1-.405,1.753,3.326,3.326,0,0,1-1.094,1.167,4.777,4.777,0,0,1-1.587.649,8.691,8.691,0,0,1-1.895.2,7.72,7.72,0,0,1-.82-.054q-.488-.054-1-.156a8.127,8.127,0,0,1-.962-.254A2.993,2.993,0,0,1,173.594,21.434Zm12.92.566h-1.641V8h1.641Zm4.023.215a1.037,1.037,0,0,1-.767-.322,1.061,1.061,0,0,1-.317-.771,1.077,1.077,0,0,1,.317-.776,1.029,1.029,0,0,1,.767-.327,1.056,1.056,0,0,1,.781.327,1.069,1.069,0,0,1,.322.776,1.053,1.053,0,0,1-.322.771A1.064,1.064,0,0,1,190.537,22.215Zm19-.8a8.214,8.214,0,0,1-3.867.82,6.236,6.236,0,0,1-4.785-1.924,7.1,7.1,0,0,1-1.8-5.049,7.44,7.44,0,0,1,2.021-5.43,6.861,6.861,0,0,1,5.127-2.07,8.22,8.22,0,0,1,3.3.576v1.748a6.694,6.694,0,0,0-3.32-.84,5.1,5.1,0,0,0-3.911,1.611,6.07,6.07,0,0,0-1.5,4.307,5.776,5.776,0,0,0,1.4,4.077,4.768,4.768,0,0,0,3.677,1.519,6.9,6.9,0,0,0,3.652-.937Zm7.959.82a6.147,6.147,0,0,1-4.771-1.963,7.28,7.28,0,0,1-1.792-5.107,7.714,7.714,0,0,1,1.826-5.391,6.378,6.378,0,0,1,4.971-2.012,6.009,6.009,0,0,1,4.673,1.953,7.307,7.307,0,0,1,1.772,5.107,7.739,7.739,0,0,1-1.816,5.42A6.26,6.26,0,0,1,217.5,22.234Zm.117-12.988a4.515,4.515,0,0,0-3.584,1.592,6.162,6.162,0,0,0-1.377,4.18A6.205,6.205,0,0,0,214,19.183a4.379,4.379,0,0,0,3.5,1.577,4.6,4.6,0,0,0,3.633-1.5,6.146,6.146,0,0,0,1.328-4.209,6.422,6.422,0,0,0-1.289-4.287A4.42,4.42,0,0,0,217.617,9.246ZM238.223,22h-2.012L229,10.838a4.664,4.664,0,0,1-.449-.879H228.5a14.418,14.418,0,0,1,.078,1.924V22h-1.641V8h2.129l7.012,10.986q.439.684.566.938h.039a14.816,14.816,0,0,1-.1-2.061V8h1.641Zm7.256-5.02a6.259,6.259,0,0,1-1.055,3.872,3.37,3.37,0,0,1-2.822,1.382A3.336,3.336,0,0,1,240.254,22V20.379a2.28,2.28,0,0,0,1.367.381q2.217,0,2.217-3.76V8h1.641Zm13.8-.645q0,5.9-5.322,5.9-5.1,0-5.1-5.674V8H250.5v8.457q0,4.307,3.633,4.307,3.506,0,3.506-4.16V8h1.641ZM274.063,22h-2.012l-7.207-11.162a4.665,4.665,0,0,1-.449-.879h-.059a14.415,14.415,0,0,1,.078,1.924V22h-1.641V8H264.9l7.012,10.986q.439.684.566.938h.039a14.818,14.818,0,0,1-.1-2.061V8h1.641ZM286.016,9.48h-4.043V22h-1.641V9.48H276.3V8h9.717Zm6.914,12.754a6.147,6.147,0,0,1-4.771-1.963,7.28,7.28,0,0,1-1.792-5.107,7.714,7.714,0,0,1,1.826-5.391,6.378,6.378,0,0,1,4.971-2.012,6.009,6.009,0,0,1,4.673,1.953,7.307,7.307,0,0,1,1.772,5.107,7.739,7.739,0,0,1-1.816,5.42A6.26,6.26,0,0,1,292.93,22.234Zm.117-12.988a4.515,4.515,0,0,0-3.584,1.592,6.162,6.162,0,0,0-1.377,4.18,6.206,6.206,0,0,0,1.343,4.165,4.379,4.379,0,0,0,3.5,1.577,4.6,4.6,0,0,0,3.633-1.5,6.146,6.146,0,0,0,1.328-4.209A6.422,6.422,0,0,0,296.6,10.76,4.42,4.42,0,0,0,293.047,9.246Zm13.3,15.938h-1.426a12.48,12.48,0,0,1-3.027-8.525A12.953,12.953,0,0,1,304.922,8h1.445a13.161,13.161,0,0,0-3.066,8.643A12.931,12.931,0,0,0,306.348,25.184ZM308.4,22V8h3.867q7.4,0,7.4,6.826a6.879,6.879,0,0,1-2.056,5.21,7.626,7.626,0,0,1-5.5,1.968Zm1.641-12.52V20.516h2.09a5.931,5.931,0,0,0,4.287-1.475,5.528,5.528,0,0,0,1.533-4.18q0-5.381-5.723-5.381ZM332.773,22h-1.816l-1.484-3.926h-5.937L322.139,22h-1.826l5.371-14h1.7Zm-3.838-5.4-2.2-5.967a5.713,5.713,0,0,1-.215-.937h-.039a5.231,5.231,0,0,1-.225.938L324.082,16.6ZM341.68,9.48h-4.043V22H336V9.48h-4.033V8h9.717Zm6.914,12.754a6.147,6.147,0,0,1-4.771-1.963,7.28,7.28,0,0,1-1.792-5.107,7.714,7.714,0,0,1,1.826-5.391,6.378,6.378,0,0,1,4.971-2.012A6.009,6.009,0,0,1,353.5,9.715a7.307,7.307,0,0,1,1.772,5.107,7.739,7.739,0,0,1-1.816,5.42A6.26,6.26,0,0,1,348.594,22.234Zm.117-12.988a4.515,4.515,0,0,0-3.584,1.592,6.162,6.162,0,0,0-1.377,4.18,6.206,6.206,0,0,0,1.343,4.165,4.379,4.379,0,0,0,3.5,1.577,4.6,4.6,0,0,0,3.633-1.5,6.146,6.146,0,0,0,1.328-4.209,6.422,6.422,0,0,0-1.289-4.287A4.42,4.42,0,0,0,348.711,9.246Zm8.662,12.188V19.5a3.755,3.755,0,0,0,.8.527,6.448,6.448,0,0,0,.977.4,7.774,7.774,0,0,0,1.03.249,5.744,5.744,0,0,0,.957.088,3.749,3.749,0,0,0,2.261-.562,2.106,2.106,0,0,0,.5-2.6,2.805,2.805,0,0,0-.688-.767,6.832,6.832,0,0,0-1.04-.664q-.6-.317-1.294-.669-.732-.371-1.367-.752a5.924,5.924,0,0,1-1.1-.84,3.5,3.5,0,0,1-.737-1.04,3.219,3.219,0,0,1-.269-1.362,3.2,3.2,0,0,1,.42-1.665,3.6,3.6,0,0,1,1.1-1.167,5,5,0,0,1,1.558-.684,7.132,7.132,0,0,1,1.782-.225,6.83,6.83,0,0,1,3.018.5v1.846a5.47,5.47,0,0,0-3.184-.859,5.236,5.236,0,0,0-1.074.112,3.034,3.034,0,0,0-.957.366,2.12,2.12,0,0,0-.684.654,1.737,1.737,0,0,0-.264.977,2.011,2.011,0,0,0,.2.928A2.274,2.274,0,0,0,359.9,13a5.884,5.884,0,0,0,.952.625q.562.3,1.294.664.752.371,1.426.781a6.517,6.517,0,0,1,1.182.908,4.036,4.036,0,0,1,.806,1.1,3.1,3.1,0,0,1,.3,1.387,3.517,3.517,0,0,1-.405,1.753,3.326,3.326,0,0,1-1.094,1.167,4.777,4.777,0,0,1-1.587.649,8.691,8.691,0,0,1-1.895.2,7.721,7.721,0,0,1-.82-.054q-.488-.054-1-.156a8.128,8.128,0,0,1-.962-.254A2.993,2.993,0,0,1,357.373,21.434ZM370.479,8l-.186,10.059h-1.318L368.8,8Zm-.82,14.18a1.053,1.053,0,0,1-.767-.312,1.029,1.029,0,0,1-.317-.762,1.084,1.084,0,0,1,2.168,0,1.021,1.021,0,0,1-.322.762A1.058,1.058,0,0,1,369.658,22.176Zm8.262-5.2a6.259,6.259,0,0,1-1.055,3.872,3.37,3.37,0,0,1-2.822,1.382A3.336,3.336,0,0,1,372.7,22V20.379a2.28,2.28,0,0,0,1.367.381q2.217,0,2.217-3.76V8h1.641Zm3.9-3.027a1.037,1.037,0,0,1-.767-.322,1.061,1.061,0,0,1-.317-.771,1.029,1.029,0,0,1,.317-.762,1.053,1.053,0,0,1,.767-.312,1.081,1.081,0,0,1,.781.313,1.021,1.021,0,0,1,.322.762,1.053,1.053,0,0,1-.322.771A1.064,1.064,0,0,1,381.816,13.953Zm0,8.262a1.037,1.037,0,0,1-.767-.322,1.061,1.061,0,0,1-.317-.771,1.077,1.077,0,0,1,.317-.776,1.029,1.029,0,0,1,.767-.327,1.056,1.056,0,0,1,.781.327,1.069,1.069,0,0,1,.322.776,1.053,1.053,0,0,1-.322.771A1.064,1.064,0,0,1,381.816,22.215Zm7.578-5.234a6.259,6.259,0,0,1-1.055,3.872,3.37,3.37,0,0,1-2.822,1.382A3.336,3.336,0,0,1,384.17,22V20.379a2.28,2.28,0,0,0,1.367.381q2.217,0,2.217-3.76V8h1.641Zm3.926-3.027a1.048,1.048,0,0,1-.776-.322,1.061,1.061,0,0,1-.317-.771,1.029,1.029,0,0,1,.317-.762,1.115,1.115,0,0,1,1.548,0,1.021,1.021,0,0,1,.322.762,1.1,1.1,0,0,1-1.094,1.094Zm.879,5.82-1.562,4.8h-1.143l1.143-4.8ZM397.285,22V8h3.867q7.4,0,7.4,6.826a6.879,6.879,0,0,1-2.056,5.21A7.626,7.626,0,0,1,401,22Zm1.641-12.52V20.516h2.09a5.931,5.931,0,0,0,4.287-1.475,5.528,5.528,0,0,0,1.533-4.18q0-5.381-5.723-5.381ZM421.66,22h-1.816l-1.484-3.926h-5.937L411.025,22H409.2L414.57,8h1.7Zm-3.838-5.4-2.2-5.967a5.713,5.713,0,0,1-.215-.937h-.039a5.231,5.231,0,0,1-.225.938L412.969,16.6ZM430.566,9.48h-4.043V22h-1.641V9.48H420.85V8h9.717Zm6.914,12.754a6.147,6.147,0,0,1-4.771-1.963,7.28,7.28,0,0,1-1.792-5.107,7.714,7.714,0,0,1,1.826-5.391,6.378,6.378,0,0,1,4.971-2.012,6.009,6.009,0,0,1,4.673,1.953,7.307,7.307,0,0,1,1.772,5.107,7.739,7.739,0,0,1-1.816,5.42A6.26,6.26,0,0,1,437.48,22.234ZM437.6,9.246a4.515,4.515,0,0,0-3.584,1.592,6.162,6.162,0,0,0-1.377,4.18,6.206,6.206,0,0,0,1.343,4.165,4.379,4.379,0,0,0,3.5,1.577,4.6,4.6,0,0,0,3.633-1.5,6.146,6.146,0,0,0,1.328-4.209,6.422,6.422,0,0,0-1.289-4.287A4.42,4.42,0,0,0,437.6,9.246Zm8.662,12.188V19.5a3.755,3.755,0,0,0,.8.527,6.448,6.448,0,0,0,.977.4,7.774,7.774,0,0,0,1.03.249,5.744,5.744,0,0,0,.957.088,3.749,3.749,0,0,0,2.261-.562,2.106,2.106,0,0,0,.5-2.6,2.805,2.805,0,0,0-.688-.767,6.832,6.832,0,0,0-1.04-.664q-.6-.317-1.294-.669-.732-.371-1.367-.752a5.924,5.924,0,0,1-1.1-.84,3.5,3.5,0,0,1-.737-1.04,3.219,3.219,0,0,1-.269-1.362,3.2,3.2,0,0,1,.42-1.665,3.6,3.6,0,0,1,1.1-1.167,5,5,0,0,1,1.558-.684,7.132,7.132,0,0,1,1.782-.225,6.83,6.83,0,0,1,3.018.5v1.846a5.47,5.47,0,0,0-3.184-.859,5.236,5.236,0,0,0-1.074.112,3.034,3.034,0,0,0-.957.366,2.12,2.12,0,0,0-.684.654,1.737,1.737,0,0,0-.264.977,2.011,2.011,0,0,0,.2.928,2.274,2.274,0,0,0,.591.713,5.884,5.884,0,0,0,.952.625q.562.3,1.294.664.752.371,1.426.781a6.517,6.517,0,0,1,1.182.908,4.036,4.036,0,0,1,.806,1.1,3.1,3.1,0,0,1,.3,1.387,3.517,3.517,0,0,1-.405,1.753,3.326,3.326,0,0,1-1.094,1.167,4.777,4.777,0,0,1-1.587.649,8.691,8.691,0,0,1-1.895.2,7.721,7.721,0,0,1-.82-.054q-.488-.054-1-.156a8.128,8.128,0,0,1-.962-.254A2.993,2.993,0,0,1,446.26,21.434ZM459.365,8l-.186,10.059h-1.318L457.686,8Zm-.82,14.18a1.053,1.053,0,0,1-.767-.312,1.029,1.029,0,0,1-.317-.762,1.084,1.084,0,0,1,2.168,0,1.021,1.021,0,0,1-.322.762A1.058,1.058,0,0,1,458.545,22.176Zm14.209-.762a8.214,8.214,0,0,1-3.867.82,6.236,6.236,0,0,1-4.785-1.924,7.1,7.1,0,0,1-1.8-5.049,7.44,7.44,0,0,1,2.021-5.43,6.861,6.861,0,0,1,5.127-2.07,8.22,8.22,0,0,1,3.3.576v1.748a6.694,6.694,0,0,0-3.32-.84,5.1,5.1,0,0,0-3.911,1.611,6.07,6.07,0,0,0-1.5,4.307,5.776,5.776,0,0,0,1.4,4.077A4.768,4.768,0,0,0,469.1,20.76a6.9,6.9,0,0,0,3.652-.937Zm3.193-7.461a1.037,1.037,0,0,1-.767-.322,1.061,1.061,0,0,1-.317-.771,1.029,1.029,0,0,1,.317-.762,1.053,1.053,0,0,1,.767-.312,1.081,1.081,0,0,1,.781.313,1.021,1.021,0,0,1,.322.762,1.053,1.053,0,0,1-.322.771A1.064,1.064,0,0,1,475.947,13.953Zm0,8.262a1.037,1.037,0,0,1-.767-.322,1.061,1.061,0,0,1-.317-.771,1.077,1.077,0,0,1,.317-.776,1.029,1.029,0,0,1,.767-.327,1.056,1.056,0,0,1,.781.327,1.069,1.069,0,0,1,.322.776,1.053,1.053,0,0,1-.322.771A1.064,1.064,0,0,1,475.947,22.215Zm13.525-.8a8.214,8.214,0,0,1-3.867.82,6.236,6.236,0,0,1-4.785-1.924,7.1,7.1,0,0,1-1.8-5.049,7.44,7.44,0,0,1,2.021-5.43,6.861,6.861,0,0,1,5.127-2.07,8.22,8.22,0,0,1,3.3.576v1.748a6.694,6.694,0,0,0-3.32-.84,5.1,5.1,0,0,0-3.911,1.611,6.07,6.07,0,0,0-1.5,4.307,5.776,5.776,0,0,0,1.4,4.077,4.768,4.768,0,0,0,3.677,1.519,6.9,6.9,0,0,0,3.652-.937Zm3.223-7.461a1.048,1.048,0,0,1-.776-.322,1.061,1.061,0,0,1-.317-.771,1.029,1.029,0,0,1,.317-.762,1.115,1.115,0,0,1,1.548,0,1.021,1.021,0,0,1,.322.762,1.1,1.1,0,0,1-1.094,1.094Zm.879,5.82-1.562,4.8h-1.143l1.143-4.8ZM507.5,22h-1.816L504.2,18.074h-5.937L496.865,22h-1.826L500.41,8h1.7Zm-3.838-5.4-2.2-5.967a5.713,5.713,0,0,1-.215-.937h-.039a5.231,5.231,0,0,1-.225.938L498.809,16.6Zm13.926-7.676q-.322.557-.776,1.387t-.962,1.865q-.508,1.035-1.035,2.227t-.986,2.461q-.459,1.27-.806,2.573a19.144,19.144,0,0,0-.5,2.563H510.8a19.473,19.473,0,0,1,.542-2.554q.366-1.3.83-2.559t.981-2.417q.518-1.162,1.006-2.139t.894-1.724q.405-.747.649-1.167h-7.021V8h8.906Zm2.578,16.26H518.74a12.931,12.931,0,0,0,3.047-8.545A13.161,13.161,0,0,0,518.721,8h1.445a12.9,12.9,0,0,1,3.047,8.662A12.432,12.432,0,0,1,520.166,25.184ZM532.48,8l-6.719,16.328h-1.494L530.967,8Zm1.689,14V8h3.867q7.4,0,7.4,6.826a6.879,6.879,0,0,1-2.056,5.21,7.626,7.626,0,0,1-5.5,1.968Zm1.641-12.52V20.516h2.09a5.931,5.931,0,0,0,4.287-1.475,5.528,5.528,0,0,0,1.533-4.18q0-5.381-5.723-5.381Zm20.41-.557q-.322.557-.776,1.387t-.962,1.865q-.508,1.035-1.035,2.227t-.986,2.461q-.459,1.27-.806,2.573a19.144,19.144,0,0,0-.5,2.563h-1.719a19.473,19.473,0,0,1,.542-2.554q.366-1.3.83-2.559t.981-2.417q.518-1.162,1.006-2.139t.894-1.724q.405-.747.649-1.167h-7.021V8h8.906Zm3.125,5.029a1.048,1.048,0,0,1-.776-.322,1.061,1.061,0,0,1-.317-.771,1.028,1.028,0,0,1,.317-.762,1.115,1.115,0,0,1,1.548,0,1.021,1.021,0,0,1,.322.762,1.1,1.1,0,0,1-1.094,1.094Zm.879,5.82-1.562,4.8H557.52l1.143-4.8Zm7.813-12.012-1.367,4.355h-1.152l1.055-4.355Zm-2.969,0L563.7,12.117h-1.152l1.084-4.355Zm10.508,0-1.367,4.355h-1.152l1.055-4.355Zm-2.969,0-1.367,4.355h-1.152l1.084-4.355Zm5.605,17.422h-1.426a12.931,12.931,0,0,0,3.047-8.545A13.161,13.161,0,0,0,576.768,8h1.445a12.9,12.9,0,0,1,3.047,8.662A12.432,12.432,0,0,1,578.213,25.184Z" transform="translate(-2954 -10022.184)" fill="#12263f"/>
    <path id="Trazado_143853" data-name="Trazado 143853" d="M13.262,8,8.438,22H4.863L.1,8H3.5l2.92,9.746a6.98,6.98,0,0,1,.283,1.4h.059a7.893,7.893,0,0,1,.3-1.436L9.961,8Zm7.2,6.787a2.677,2.677,0,0,0-1.3-.3,1.871,1.871,0,0,0-1.572.737,3.217,3.217,0,0,0-.566,2.007V22H13.936V12h3.086v1.855h.039A2.67,2.67,0,0,1,19.7,11.824a1.987,1.987,0,0,1,.762.117Zm1.211,7.461a1.8,1.8,0,0,1-1.27-.469,1.507,1.507,0,0,1-.508-1.152,1.451,1.451,0,0,1,.522-1.152,1.929,1.929,0,0,1,1.3-.449,1.857,1.857,0,0,1,1.294.454A1.573,1.573,0,0,1,23,21.79,1.936,1.936,0,0,1,21.67,22.244Zm21.279-6.309q0,6.309-5.879,6.309-5.7,0-5.7-6.162V8h3.164v8.125q0,3.4,2.656,3.4,2.607,0,2.607-3.281V8h3.154ZM55.352,22H52.275V16.443q0-2.324-1.66-2.324a1.647,1.647,0,0,0-1.318.615,2.344,2.344,0,0,0-.518,1.563V22H45.693V12h3.086v1.582h.039a3.536,3.536,0,0,1,3.213-1.826q3.32,0,3.32,4.121Zm4-11.582a1.8,1.8,0,0,1-1.279-.464,1.5,1.5,0,0,1-.5-1.138,1.441,1.441,0,0,1,.5-1.133,2.089,2.089,0,0,1,2.563,0,1.448,1.448,0,0,1,.493,1.133,1.489,1.489,0,0,1-.493,1.152A1.833,1.833,0,0,1,59.355,10.418ZM60.879,22H57.793V12h3.086Zm8.643-.117a4.561,4.561,0,0,1-2.061.361q-3.262,0-3.262-3.389v-4.58H62.578V12H64.2V9.842l3.076-.879V12h2.246v2.275H67.275v4.043q0,1.562,1.24,1.563a2.091,2.091,0,0,0,1.006-.283ZM79.58,22H76.66V20.564h-.039a3.259,3.259,0,0,1-2.979,1.68,3.116,3.116,0,0,1-2.29-.825,2.957,2.957,0,0,1-.835-2.2q0-2.91,3.447-3.359L76.68,15.5q0-1.641-1.777-1.641a6.067,6.067,0,0,0-3.4,1.064V12.6a7.646,7.646,0,0,1,1.763-.586,9.266,9.266,0,0,1,2.036-.254q4.277,0,4.277,4.268Zm-2.9-4.062v-.674l-1.816.234q-1.5.2-1.5,1.357a1.122,1.122,0,0,0,.366.864,1.407,1.407,0,0,0,.991.337,1.827,1.827,0,0,0,1.416-.6A2.169,2.169,0,0,0,76.68,17.938Zm11.865-3.154a2.677,2.677,0,0,0-1.3-.3,1.871,1.871,0,0,0-1.572.737,3.217,3.217,0,0,0-.566,2.007V22H82.021V12h3.086v1.855h.039a2.67,2.67,0,0,1,2.637-2.031,1.987,1.987,0,0,1,.762.117Zm3.076-4.365a1.8,1.8,0,0,1-1.279-.464,1.5,1.5,0,0,1-.5-1.138,1.441,1.441,0,0,1,.5-1.133,2.089,2.089,0,0,1,2.563,0A1.448,1.448,0,0,1,93.4,8.816a1.489,1.489,0,0,1-.493,1.152A1.833,1.833,0,0,1,91.621,10.418ZM93.145,22H90.059V12h3.086Zm7.363.244a5.376,5.376,0,0,1-3.931-1.4,5.081,5.081,0,0,1-1.431-3.8,5.081,5.081,0,0,1,1.484-3.882,5.609,5.609,0,0,1,4.014-1.4,5.311,5.311,0,0,1,3.906,1.4,4.981,4.981,0,0,1,1.416,3.706,5.288,5.288,0,0,1-1.46,3.936A5.435,5.435,0,0,1,100.508,22.244Zm.078-8.125a2.058,2.058,0,0,0-1.7.752A3.316,3.316,0,0,0,98.281,17q0,2.881,2.324,2.881,2.217,0,2.217-2.959Q102.822,14.119,100.586,14.119Zm8.76.977a1.811,1.811,0,0,1-1.27-.464,1.492,1.492,0,0,1-.508-1.147,1.451,1.451,0,0,1,.522-1.152,1.929,1.929,0,0,1,1.3-.449,1.857,1.857,0,0,1,1.294.454,1.567,1.567,0,0,1-.01,2.31A1.949,1.949,0,0,1,109.346,15.1Zm0,7.148a1.8,1.8,0,0,1-1.27-.469,1.507,1.507,0,0,1-.508-1.152,1.451,1.451,0,0,1,.522-1.152,1.929,1.929,0,0,1,1.3-.449,1.857,1.857,0,0,1,1.294.454,1.573,1.573,0,0,1-.01,2.314A1.936,1.936,0,0,1,109.346,22.244Z" transform="translate(-3071.645 -10021.666)" fill="#12263f"/>
  </g>
</svg>
