<svg xmlns="http://www.w3.org/2000/svg" width="615.437" height="140.772" viewBox="0 0 615.437 140.772">
  <g id="img12" transform="translate(-545 -10219.681)">
    <g id="Grupo_78850" data-name="Grupo 78850" transform="translate(0 -1.166)">
      <rect id="Rectángulo_33969" data-name="Rectángulo 33969" width="570.126" height="44.667" transform="translate(546 10316.952)" fill="#f2f2f2"/>
      <line id="Línea_486" data-name="Línea 486" y2="37.203" transform="translate(546 10316.952)" fill="none" stroke="#9d9d9d" stroke-miterlimit="10" stroke-width="2"/>
      <g id="Grupo_78848" data-name="Grupo 78848" transform="translate(696.219 10316.952)">
        <path id="Rectángulo_33971" data-name="Rectángulo 33971" d="M0,0H167.411a0,0,0,0,1,0,0V30.3a6.9,6.9,0,0,1-6.9,6.9H6.9A6.9,6.9,0,0,1,0,30.3V0A0,0,0,0,1,0,0Z" transform="translate(194.827)" fill="#fff"/>
        <path id="Trazado_143771" data-name="Trazado 143771" d="M632.92,407.158h-8.394v30.877a7.212,7.212,0,0,1-7.213,7.212H464.324a7.212,7.212,0,0,1-7.212-7.212V407.158H262.241v38.088" transform="translate(-262.241 -407.158)" fill="none" stroke="#9d9d9d" stroke-miterlimit="10" stroke-width="2"/>
      </g>
      <path id="Trazado_143785" data-name="Trazado 143785" d="M1.465,0V-14.316H4.355v5.635H10.02v-5.635H12.91V0H10.02V-6.26H4.355V0ZM15.244-5.332a5.61,5.61,0,0,1,.674-2.646,4.625,4.625,0,0,1,1.909-1.953,5.666,5.666,0,0,1,2.759-.674,5.178,5.178,0,0,1,3.857,1.528,5.28,5.28,0,0,1,1.5,3.862,5.343,5.343,0,0,1-1.519,3.9A5.133,5.133,0,0,1,20.605.234a6.022,6.022,0,0,1-2.72-.645A4.421,4.421,0,0,1,15.918-2.3,6.3,6.3,0,0,1,15.244-5.332Zm2.813.146a3.436,3.436,0,0,0,.732,2.363A2.327,2.327,0,0,0,20.6-2a2.312,2.312,0,0,0,1.8-.82,3.483,3.483,0,0,0,.728-2.383A3.42,3.42,0,0,0,22.4-7.549a2.312,2.312,0,0,0-1.8-.82,2.327,2.327,0,0,0-1.807.82A3.436,3.436,0,0,0,18.057-5.186Zm9.98-6.592v-2.539h2.744v2.539Zm2.744,1.406V-.322a10.416,10.416,0,0,1-.259,2.8,2.268,2.268,0,0,1-1,1.274,3.5,3.5,0,0,1-1.88.459,5.8,5.8,0,0,1-.884-.073,9.688,9.688,0,0,1-1.021-.22l.479-2.344q.2.039.366.063a2.254,2.254,0,0,0,.317.024,1.209,1.209,0,0,0,.688-.181.87.87,0,0,0,.356-.435,7.114,7.114,0,0,0,.088-1.523v-9.893ZM35.7-7.207l-2.49-.449a3.879,3.879,0,0,1,1.445-2.227,5.289,5.289,0,0,1,3.047-.723,6.566,6.566,0,0,1,2.734.435,2.727,2.727,0,0,1,1.265,1.1,5.659,5.659,0,0,1,.366,2.456l-.029,3.2a11.12,11.12,0,0,0,.132,2.017A5.886,5.886,0,0,0,42.666,0H39.951q-.107-.273-.264-.811-.068-.244-.1-.322a4.947,4.947,0,0,1-1.5,1.025,4.307,4.307,0,0,1-1.709.342,3.534,3.534,0,0,1-2.524-.869,2.889,2.889,0,0,1-.923-2.2A2.949,2.949,0,0,1,33.35-4.4a2.744,2.744,0,0,1,1.177-1.055,9.2,9.2,0,0,1,2.183-.64,14.951,14.951,0,0,0,2.666-.674v-.273a1.421,1.421,0,0,0-.391-1.128,2.341,2.341,0,0,0-1.475-.337,1.964,1.964,0,0,0-1.143.288A2,2,0,0,0,35.7-7.207ZM39.375-4.98a17.153,17.153,0,0,1-1.67.42,5.03,5.03,0,0,0-1.494.479,1.144,1.144,0,0,0-.537.967,1.346,1.346,0,0,0,.43,1A1.5,1.5,0,0,0,37.2-1.7a2.376,2.376,0,0,0,1.416-.488,1.719,1.719,0,0,0,.654-.908,5.419,5.419,0,0,0,.107-1.338ZM44.092-3.8l2.656-.322a2.515,2.515,0,0,0,.684,1.553,1.87,1.87,0,0,0,1.348.537,1.851,1.851,0,0,0,1.431-.645,2.5,2.5,0,0,0,.581-1.738,2.33,2.33,0,0,0-.557-1.641,1.775,1.775,0,0,0-1.357-.605,4.787,4.787,0,0,0-1.26.205l.3-2.236a2.4,2.4,0,0,0,1.7-.483,1.721,1.721,0,0,0,.586-1.362,1.557,1.557,0,0,0-.43-1.152,1.544,1.544,0,0,0-1.143-.43,1.654,1.654,0,0,0-1.2.488,2.294,2.294,0,0,0-.605,1.426l-2.529-.43a5.653,5.653,0,0,1,.8-2.075,3.592,3.592,0,0,1,1.484-1.221,4.986,4.986,0,0,1,2.134-.444,4.256,4.256,0,0,1,3.242,1.289A3.365,3.365,0,0,1,52.959-10.7,3.372,3.372,0,0,1,50.9-7.7a3.334,3.334,0,0,1,1.968,1.182A3.429,3.429,0,0,1,53.6-4.3a4.3,4.3,0,0,1-1.377,3.213A4.743,4.743,0,0,1,48.8.244,4.719,4.719,0,0,1,45.576-.874,4.394,4.394,0,0,1,44.092-3.8Z" transform="translate(962.674 10343.744)" fill="#409165"/>
      <path id="Trazado_143786" data-name="Trazado 143786" d="M1.465,0V-14.316H3.359V-1.689H10.41V0ZM12.451-12.295v-2.021h1.758v2.021ZM12.451,0V-10.371h1.758V0Zm6.055,0H16.875V-14.316h1.758v5.107a3.478,3.478,0,0,1,2.842-1.4,4.352,4.352,0,0,1,1.812.386,3.7,3.7,0,0,1,1.406,1.084,5.24,5.24,0,0,1,.864,1.685,6.945,6.945,0,0,1,.313,2.109,5.924,5.924,0,0,1-1.318,4.121A4.123,4.123,0,0,1,21.387.234,3.3,3.3,0,0,1,18.506-1.3Zm-.02-5.264a5.383,5.383,0,0,0,.508,2.7A2.531,2.531,0,0,0,21.24-1.211a2.528,2.528,0,0,0,1.992-1,4.549,4.549,0,0,0,.84-2.983,4.627,4.627,0,0,0-.806-3,2.454,2.454,0,0,0-1.948-.967,2.528,2.528,0,0,0-1.992,1A4.394,4.394,0,0,0,18.486-5.264ZM27.988,0V-10.371H29.57V-8.8a4.29,4.29,0,0,1,1.118-1.455,1.952,1.952,0,0,1,1.128-.352,3.429,3.429,0,0,1,1.807.566l-.605,1.631a2.515,2.515,0,0,0-1.289-.381,1.674,1.674,0,0,0-1.035.347,1.878,1.878,0,0,0-.654.962,6.847,6.847,0,0,0-.293,2.051V0Zm6.025-5.186a5.346,5.346,0,0,1,1.6-4.268,4.826,4.826,0,0,1,3.262-1.152,4.653,4.653,0,0,1,3.5,1.4A5.331,5.331,0,0,1,43.73-5.332a6.861,6.861,0,0,1-.6,3.149A4.251,4.251,0,0,1,41.382-.4a5.089,5.089,0,0,1-2.5.635,4.662,4.662,0,0,1-3.521-1.4A5.578,5.578,0,0,1,34.014-5.186Zm1.807,0A4.417,4.417,0,0,0,36.689-2.2a2.786,2.786,0,0,0,2.188.991,2.77,2.77,0,0,0,2.178-1,4.522,4.522,0,0,0,.869-3.037,4.285,4.285,0,0,0-.874-2.915,2.78,2.78,0,0,0-2.173-.991,2.792,2.792,0,0,0-2.187.986A4.4,4.4,0,0,0,35.82-5.186ZM51.514,0V-14.316h2.852L57.754-4.18q.469,1.416.684,2.119.244-.781.762-2.295l3.428-9.961h2.549V0H63.35V-11.982L59.189,0H57.48L53.34-12.187V0ZM74.775-1.279A6.546,6.546,0,0,1,72.9-.107a5.432,5.432,0,0,1-1.938.342A3.771,3.771,0,0,1,68.33-.6a2.756,2.756,0,0,1-.918-2.134,2.838,2.838,0,0,1,.347-1.392,2.87,2.87,0,0,1,.908-1.011,4.271,4.271,0,0,1,1.265-.576,12.561,12.561,0,0,1,1.563-.264,16.067,16.067,0,0,0,3.135-.605q.01-.361.01-.459a1.941,1.941,0,0,0-.5-1.514,2.942,2.942,0,0,0-2-.6,3.1,3.1,0,0,0-1.831.435,2.655,2.655,0,0,0-.874,1.538l-1.719-.234a4.259,4.259,0,0,1,.771-1.782,3.382,3.382,0,0,1,1.553-1.045,6.926,6.926,0,0,1,2.354-.366,6.229,6.229,0,0,1,2.158.313,2.844,2.844,0,0,1,1.221.786,2.765,2.765,0,0,1,.547,1.2,9.9,9.9,0,0,1,.088,1.621v2.344a24.877,24.877,0,0,0,.112,3.1A3.912,3.912,0,0,0,76.963,0H75.127A3.727,3.727,0,0,1,74.775-1.279Zm-.146-3.926a12.9,12.9,0,0,1-2.871.664,6.641,6.641,0,0,0-1.533.352,1.528,1.528,0,0,0-.693.571,1.5,1.5,0,0,0-.244.835,1.5,1.5,0,0,0,.532,1.172,2.29,2.29,0,0,0,1.558.469,3.625,3.625,0,0,0,1.807-.444A2.736,2.736,0,0,0,74.346-2.8a4.246,4.246,0,0,0,.283-1.758Zm4.424,9.2-.2-1.65a3.917,3.917,0,0,0,1.006.156,1.93,1.93,0,0,0,.938-.2,1.6,1.6,0,0,0,.576-.547A8.623,8.623,0,0,0,81.914.449Q81.963.3,82.07.02L78.135-10.371h1.895l2.158,6.006q.42,1.143.752,2.4a23.651,23.651,0,0,1,.723-2.363l2.217-6.045h1.758L83.691.176a20.7,20.7,0,0,1-.986,2.354A3.472,3.472,0,0,1,81.631,3.8a2.537,2.537,0,0,1-1.445.405A3.52,3.52,0,0,1,79.053,3.994Zm9.424-9.18a5.346,5.346,0,0,1,1.6-4.268,4.826,4.826,0,0,1,3.262-1.152,4.653,4.653,0,0,1,3.5,1.4,5.331,5.331,0,0,1,1.357,3.872,6.861,6.861,0,0,1-.6,3.149A4.251,4.251,0,0,1,95.845-.4a5.089,5.089,0,0,1-2.5.635,4.662,4.662,0,0,1-3.521-1.4A5.578,5.578,0,0,1,88.477-5.186Zm1.807,0A4.417,4.417,0,0,0,91.152-2.2a2.786,2.786,0,0,0,2.188.991,2.77,2.77,0,0,0,2.178-1,4.522,4.522,0,0,0,.869-3.037,4.285,4.285,0,0,0-.874-2.915A2.78,2.78,0,0,0,93.34-9.15a2.792,2.792,0,0,0-2.187.986A4.4,4.4,0,0,0,90.283-5.186ZM100.234,0V-10.371h1.582V-8.8a4.29,4.29,0,0,1,1.118-1.455,1.952,1.952,0,0,1,1.128-.352,3.429,3.429,0,0,1,1.807.566l-.605,1.631a2.515,2.515,0,0,0-1.289-.381,1.674,1.674,0,0,0-1.035.347,1.878,1.878,0,0,0-.654.962,6.847,6.847,0,0,0-.293,2.051V0Z" transform="translate(735.112 10344.785)" fill="#727272"/>
      <path id="Trazado_143787" data-name="Trazado 143787" d="M1.465,0V-14.316H3.359V-1.689H10.41V0ZM12.451-12.295v-2.021h1.758v2.021ZM12.451,0V-10.371h1.758V0Zm6.055,0H16.875V-14.316h1.758v5.107a3.478,3.478,0,0,1,2.842-1.4,4.352,4.352,0,0,1,1.812.386,3.7,3.7,0,0,1,1.406,1.084,5.24,5.24,0,0,1,.864,1.685,6.945,6.945,0,0,1,.313,2.109,5.924,5.924,0,0,1-1.318,4.121A4.123,4.123,0,0,1,21.387.234,3.3,3.3,0,0,1,18.506-1.3Zm-.02-5.264a5.383,5.383,0,0,0,.508,2.7A2.531,2.531,0,0,0,21.24-1.211a2.528,2.528,0,0,0,1.992-1,4.549,4.549,0,0,0,.84-2.983,4.627,4.627,0,0,0-.806-3,2.454,2.454,0,0,0-1.948-.967,2.528,2.528,0,0,0-1.992,1A4.394,4.394,0,0,0,18.486-5.264ZM27.988,0V-10.371H29.57V-8.8a4.29,4.29,0,0,1,1.118-1.455,1.952,1.952,0,0,1,1.128-.352,3.429,3.429,0,0,1,1.807.566l-.605,1.631a2.515,2.515,0,0,0-1.289-.381,1.674,1.674,0,0,0-1.035.347,1.878,1.878,0,0,0-.654.962,6.847,6.847,0,0,0-.293,2.051V0Zm6.025-5.186a5.346,5.346,0,0,1,1.6-4.268,4.826,4.826,0,0,1,3.262-1.152,4.653,4.653,0,0,1,3.5,1.4A5.331,5.331,0,0,1,43.73-5.332a6.861,6.861,0,0,1-.6,3.149A4.251,4.251,0,0,1,41.382-.4a5.089,5.089,0,0,1-2.5.635,4.662,4.662,0,0,1-3.521-1.4A5.578,5.578,0,0,1,34.014-5.186Zm1.807,0A4.417,4.417,0,0,0,36.689-2.2a2.786,2.786,0,0,0,2.188.991,2.77,2.77,0,0,0,2.178-1,4.522,4.522,0,0,0,.869-3.037,4.285,4.285,0,0,0-.874-2.915,2.78,2.78,0,0,0-2.173-.991,2.792,2.792,0,0,0-2.187.986A4.4,4.4,0,0,0,35.82-5.186ZM58.076,0V-1.309a3.226,3.226,0,0,1-2.9,1.543A4.067,4.067,0,0,1,52.9-.449a4.5,4.5,0,0,1-1.611-1.909,6.6,6.6,0,0,1-.571-2.817,7.374,7.374,0,0,1,.518-2.817,4.082,4.082,0,0,1,1.553-1.938,4.151,4.151,0,0,1,2.314-.674,3.458,3.458,0,0,1,1.67.4,3.491,3.491,0,0,1,1.191,1.03v-5.137h1.748V0ZM52.52-5.176a4.5,4.5,0,0,0,.84,2.979,2.532,2.532,0,0,0,1.982.986A2.486,2.486,0,0,0,57.3-2.153a4.345,4.345,0,0,0,.806-2.876,4.877,4.877,0,0,0-.82-3.125,2.523,2.523,0,0,0-2.021-1,2.436,2.436,0,0,0-1.958.957A4.724,4.724,0,0,0,52.52-5.176Zm9.961-7.119v-2.021h1.758v2.021ZM62.48,0V-10.371h1.758V0Zm11.2-1.279A6.546,6.546,0,0,1,71.8-.107a5.432,5.432,0,0,1-1.938.342A3.771,3.771,0,0,1,67.236-.6a2.756,2.756,0,0,1-.918-2.134,2.838,2.838,0,0,1,.347-1.392,2.87,2.87,0,0,1,.908-1.011,4.271,4.271,0,0,1,1.265-.576A12.561,12.561,0,0,1,70.4-5.977a16.067,16.067,0,0,0,3.135-.605q.01-.361.01-.459a1.941,1.941,0,0,0-.5-1.514,2.942,2.942,0,0,0-2-.6,3.1,3.1,0,0,0-1.831.435,2.655,2.655,0,0,0-.874,1.538l-1.719-.234a4.259,4.259,0,0,1,.771-1.782,3.382,3.382,0,0,1,1.553-1.045,6.926,6.926,0,0,1,2.354-.366,6.229,6.229,0,0,1,2.158.313,2.844,2.844,0,0,1,1.221.786,2.765,2.765,0,0,1,.547,1.2,9.9,9.9,0,0,1,.088,1.621v2.344a24.877,24.877,0,0,0,.112,3.1A3.912,3.912,0,0,0,75.869,0H74.033A3.727,3.727,0,0,1,73.682-1.279Zm-.146-3.926a12.9,12.9,0,0,1-2.871.664,6.641,6.641,0,0,0-1.533.352,1.528,1.528,0,0,0-.693.571,1.5,1.5,0,0,0-.244.835,1.5,1.5,0,0,0,.532,1.172,2.29,2.29,0,0,0,1.558.469,3.625,3.625,0,0,0,1.807-.444A2.736,2.736,0,0,0,73.252-2.8a4.246,4.246,0,0,0,.283-1.758ZM78.018,0V-10.371H79.6V-8.8a4.29,4.29,0,0,1,1.118-1.455,1.952,1.952,0,0,1,1.128-.352,3.429,3.429,0,0,1,1.807.566l-.605,1.631a2.515,2.515,0,0,0-1.289-.381,1.674,1.674,0,0,0-1.035.347,1.878,1.878,0,0,0-.654.962,6.847,6.847,0,0,0-.293,2.051V0Zm6.689-12.295v-2.021h1.758v2.021ZM84.707,0V-10.371h1.758V0Zm3.779-5.186a5.346,5.346,0,0,1,1.6-4.268,4.826,4.826,0,0,1,3.262-1.152,4.653,4.653,0,0,1,3.5,1.4A5.331,5.331,0,0,1,98.2-5.332a6.861,6.861,0,0,1-.6,3.149A4.251,4.251,0,0,1,95.854-.4a5.089,5.089,0,0,1-2.5.635,4.662,4.662,0,0,1-3.521-1.4A5.578,5.578,0,0,1,88.486-5.186Zm1.807,0A4.417,4.417,0,0,0,91.162-2.2a2.786,2.786,0,0,0,2.188.991,2.77,2.77,0,0,0,2.178-1A4.522,4.522,0,0,0,96.4-5.244a4.285,4.285,0,0,0-.874-2.915A2.78,2.78,0,0,0,93.35-9.15a2.792,2.792,0,0,0-2.187.986A4.4,4.4,0,0,0,90.293-5.186Z" transform="translate(573.839 10344.785)" fill="#727272"/>
      <path id="Trazado_143773" data-name="Trazado 143773" d="M0,0H570.126" transform="translate(546 10360.619)" fill="none" stroke="#9d9d9d" stroke-width="1"/>
      <rect id="Rectángulo_33974" data-name="Rectángulo 33974" width="2.639" height="17.308" transform="translate(1074.954 10337.315) rotate(-90)" fill="#606060"/>
      <rect id="Rectángulo_33975" data-name="Rectángulo 33975" width="2.639" height="17.308" transform="translate(1082.289 10327.342)" fill="#606060"/>
      <path id="Trazado_143772" data-name="Trazado 143772" d="M-6981.287-1424.722h151.5" transform="translate(7527.287 11741.674)" fill="none" stroke="#9d9d9d" stroke-width="2"/>
    </g>
    <g id="Grupo_78849" data-name="Grupo 78849">
      <line id="Línea_485" data-name="Línea 485" x2="352.878" transform="translate(736.126 10275.681)" fill="none" stroke="#9d9d9d" stroke-miterlimit="10" stroke-width="2"/>
      <rect id="Rectángulo_33968" data-name="Rectángulo 33968" width="352.878" height="43.495" transform="translate(736.126 10232.192)" fill="#f2f2f2"/>
      <path id="Rectángulo_33970" data-name="Rectángulo 33970" d="M0,0H136.108a0,0,0,0,1,0,0V30.3a6.9,6.9,0,0,1-6.9,6.9H6.9A6.9,6.9,0,0,1,0,30.3V0A0,0,0,0,1,0,0Z" transform="translate(887.295 10232.192)" fill="#fff"/>
      <path id="Trazado_143770" data-name="Trazado 143770" d="M312.906,376.755v-37.2l152.182.409v31.371a7.423,7.423,0,0,0,7.423,7.423H593.773a7.423,7.423,0,0,0,7.423-7.423V339.961h4.6" transform="translate(422.206 9892.231)" fill="none" stroke="#9d9d9d" stroke-miterlimit="10" stroke-width="2"/>
      <path id="Trazado_143784" data-name="Trazado 143784" d="M1.465,0V-14.316H4.355v5.635H10.02v-5.635H12.91V0H10.02V-6.26H4.355V0ZM15.244-5.332a5.61,5.61,0,0,1,.674-2.646,4.625,4.625,0,0,1,1.909-1.953,5.666,5.666,0,0,1,2.759-.674,5.178,5.178,0,0,1,3.857,1.528,5.28,5.28,0,0,1,1.5,3.862,5.343,5.343,0,0,1-1.519,3.9A5.133,5.133,0,0,1,20.605.234a6.022,6.022,0,0,1-2.72-.645A4.421,4.421,0,0,1,15.918-2.3,6.3,6.3,0,0,1,15.244-5.332Zm2.813.146a3.436,3.436,0,0,0,.732,2.363A2.327,2.327,0,0,0,20.6-2a2.312,2.312,0,0,0,1.8-.82,3.483,3.483,0,0,0,.728-2.383A3.42,3.42,0,0,0,22.4-7.549a2.312,2.312,0,0,0-1.8-.82,2.327,2.327,0,0,0-1.807.82A3.436,3.436,0,0,0,18.057-5.186Zm9.98-6.592v-2.539h2.744v2.539Zm2.744,1.406V-.322a10.416,10.416,0,0,1-.259,2.8,2.268,2.268,0,0,1-1,1.274,3.5,3.5,0,0,1-1.88.459,5.8,5.8,0,0,1-.884-.073,9.688,9.688,0,0,1-1.021-.22l.479-2.344q.2.039.366.063a2.254,2.254,0,0,0,.317.024,1.209,1.209,0,0,0,.688-.181.87.87,0,0,0,.356-.435,7.114,7.114,0,0,0,.088-1.523v-9.893ZM35.7-7.207l-2.49-.449a3.879,3.879,0,0,1,1.445-2.227,5.289,5.289,0,0,1,3.047-.723,6.566,6.566,0,0,1,2.734.435,2.727,2.727,0,0,1,1.265,1.1,5.659,5.659,0,0,1,.366,2.456l-.029,3.2a11.12,11.12,0,0,0,.132,2.017A5.886,5.886,0,0,0,42.666,0H39.951q-.107-.273-.264-.811-.068-.244-.1-.322a4.947,4.947,0,0,1-1.5,1.025,4.307,4.307,0,0,1-1.709.342,3.534,3.534,0,0,1-2.524-.869,2.889,2.889,0,0,1-.923-2.2A2.949,2.949,0,0,1,33.35-4.4a2.744,2.744,0,0,1,1.177-1.055,9.2,9.2,0,0,1,2.183-.64,14.951,14.951,0,0,0,2.666-.674v-.273a1.421,1.421,0,0,0-.391-1.128,2.341,2.341,0,0,0-1.475-.337,1.964,1.964,0,0,0-1.143.288A2,2,0,0,0,35.7-7.207ZM39.375-4.98a17.153,17.153,0,0,1-1.67.42,5.03,5.03,0,0,0-1.494.479,1.144,1.144,0,0,0-.537.967,1.346,1.346,0,0,0,.43,1A1.5,1.5,0,0,0,37.2-1.7a2.376,2.376,0,0,0,1.416-.488,1.719,1.719,0,0,0,.654-.908,5.419,5.419,0,0,0,.107-1.338ZM53.457-2.549V0H43.838a6.625,6.625,0,0,1,.938-2.739,18.228,18.228,0,0,1,3.086-3.433,19.41,19.41,0,0,0,2.275-2.344A3.019,3.019,0,0,0,50.7-10.2a1.909,1.909,0,0,0-.493-1.411,1.841,1.841,0,0,0-1.362-.493,1.828,1.828,0,0,0-1.367.518,2.658,2.658,0,0,0-.586,1.719l-2.734-.273a4.483,4.483,0,0,1,1.533-3.252,5.148,5.148,0,0,1,3.223-.986,4.658,4.658,0,0,1,3.33,1.143,3.748,3.748,0,0,1,1.211,2.842A4.947,4.947,0,0,1,53.11-8.55a7.486,7.486,0,0,1-1.1,1.831,17.581,17.581,0,0,1-1.8,1.826q-1.3,1.191-1.646,1.582a4.737,4.737,0,0,0-.562.762Z" transform="translate(926.653 10257.092)" fill="#409165"/>
      <path id="Trazado_143783" data-name="Trazado 143783" d="M1.465,0V-14.316H3.359V-1.689H10.41V0ZM12.451-12.295v-2.021h1.758v2.021ZM12.451,0V-10.371h1.758V0Zm6.055,0H16.875V-14.316h1.758v5.107a3.478,3.478,0,0,1,2.842-1.4,4.352,4.352,0,0,1,1.812.386,3.7,3.7,0,0,1,1.406,1.084,5.24,5.24,0,0,1,.864,1.685,6.945,6.945,0,0,1,.313,2.109,5.924,5.924,0,0,1-1.318,4.121A4.123,4.123,0,0,1,21.387.234,3.3,3.3,0,0,1,18.506-1.3Zm-.02-5.264a5.383,5.383,0,0,0,.508,2.7A2.531,2.531,0,0,0,21.24-1.211a2.528,2.528,0,0,0,1.992-1,4.549,4.549,0,0,0,.84-2.983,4.627,4.627,0,0,0-.806-3,2.454,2.454,0,0,0-1.948-.967,2.528,2.528,0,0,0-1.992,1A4.394,4.394,0,0,0,18.486-5.264ZM27.988,0V-10.371H29.57V-8.8a4.29,4.29,0,0,1,1.118-1.455,1.952,1.952,0,0,1,1.128-.352,3.429,3.429,0,0,1,1.807.566l-.605,1.631a2.515,2.515,0,0,0-1.289-.381,1.674,1.674,0,0,0-1.035.347,1.878,1.878,0,0,0-.654.962,6.847,6.847,0,0,0-.293,2.051V0Zm6.025-5.186a5.346,5.346,0,0,1,1.6-4.268,4.826,4.826,0,0,1,3.262-1.152,4.653,4.653,0,0,1,3.5,1.4A5.331,5.331,0,0,1,43.73-5.332a6.861,6.861,0,0,1-.6,3.149A4.251,4.251,0,0,1,41.382-.4a5.089,5.089,0,0,1-2.5.635,4.662,4.662,0,0,1-3.521-1.4A5.578,5.578,0,0,1,34.014-5.186Zm1.807,0A4.417,4.417,0,0,0,36.689-2.2a2.786,2.786,0,0,0,2.188.991,2.77,2.77,0,0,0,2.178-1,4.522,4.522,0,0,0,.869-3.037,4.285,4.285,0,0,0-.874-2.915,2.78,2.78,0,0,0-2.173-.991,2.792,2.792,0,0,0-2.187.986A4.4,4.4,0,0,0,35.82-5.186ZM58.076,0V-1.309a3.226,3.226,0,0,1-2.9,1.543A4.067,4.067,0,0,1,52.9-.449a4.5,4.5,0,0,1-1.611-1.909,6.6,6.6,0,0,1-.571-2.817,7.374,7.374,0,0,1,.518-2.817,4.082,4.082,0,0,1,1.553-1.938,4.151,4.151,0,0,1,2.314-.674,3.458,3.458,0,0,1,1.67.4,3.491,3.491,0,0,1,1.191,1.03v-5.137h1.748V0ZM52.52-5.176a4.5,4.5,0,0,0,.84,2.979,2.532,2.532,0,0,0,1.982.986A2.486,2.486,0,0,0,57.3-2.153a4.345,4.345,0,0,0,.806-2.876,4.877,4.877,0,0,0-.82-3.125,2.523,2.523,0,0,0-2.021-1,2.436,2.436,0,0,0-1.958.957A4.724,4.724,0,0,0,52.52-5.176Zm9.961-7.119v-2.021h1.758v2.021ZM62.48,0V-10.371h1.758V0Zm11.2-1.279A6.546,6.546,0,0,1,71.8-.107a5.432,5.432,0,0,1-1.938.342A3.771,3.771,0,0,1,67.236-.6a2.756,2.756,0,0,1-.918-2.134,2.838,2.838,0,0,1,.347-1.392,2.87,2.87,0,0,1,.908-1.011,4.271,4.271,0,0,1,1.265-.576A12.561,12.561,0,0,1,70.4-5.977a16.067,16.067,0,0,0,3.135-.605q.01-.361.01-.459a1.941,1.941,0,0,0-.5-1.514,2.942,2.942,0,0,0-2-.6,3.1,3.1,0,0,0-1.831.435,2.655,2.655,0,0,0-.874,1.538l-1.719-.234a4.259,4.259,0,0,1,.771-1.782,3.382,3.382,0,0,1,1.553-1.045,6.926,6.926,0,0,1,2.354-.366,6.229,6.229,0,0,1,2.158.313,2.844,2.844,0,0,1,1.221.786,2.765,2.765,0,0,1,.547,1.2,9.9,9.9,0,0,1,.088,1.621v2.344a24.877,24.877,0,0,0,.112,3.1A3.912,3.912,0,0,0,75.869,0H74.033A3.727,3.727,0,0,1,73.682-1.279Zm-.146-3.926a12.9,12.9,0,0,1-2.871.664,6.641,6.641,0,0,0-1.533.352,1.528,1.528,0,0,0-.693.571,1.5,1.5,0,0,0-.244.835,1.5,1.5,0,0,0,.532,1.172,2.29,2.29,0,0,0,1.558.469,3.625,3.625,0,0,0,1.807-.444A2.736,2.736,0,0,0,73.252-2.8a4.246,4.246,0,0,0,.283-1.758ZM78.018,0V-10.371H79.6V-8.8a4.29,4.29,0,0,1,1.118-1.455,1.952,1.952,0,0,1,1.128-.352,3.429,3.429,0,0,1,1.807.566l-.605,1.631a2.515,2.515,0,0,0-1.289-.381,1.674,1.674,0,0,0-1.035.347,1.878,1.878,0,0,0-.654.962,6.847,6.847,0,0,0-.293,2.051V0Zm6.689-12.295v-2.021h1.758v2.021ZM84.707,0V-10.371h1.758V0Zm3.779-5.186a5.346,5.346,0,0,1,1.6-4.268,4.826,4.826,0,0,1,3.262-1.152,4.653,4.653,0,0,1,3.5,1.4A5.331,5.331,0,0,1,98.2-5.332a6.861,6.861,0,0,1-.6,3.149A4.251,4.251,0,0,1,95.854-.4a5.089,5.089,0,0,1-2.5.635,4.662,4.662,0,0,1-3.521-1.4A5.578,5.578,0,0,1,88.486-5.186Zm1.807,0A4.417,4.417,0,0,0,91.162-2.2a2.786,2.786,0,0,0,2.188.991,2.77,2.77,0,0,0,2.178-1A4.522,4.522,0,0,0,96.4-5.244a4.285,4.285,0,0,0-.874-2.915A2.78,2.78,0,0,0,93.35-9.15a2.792,2.792,0,0,0-2.187.986A4.4,4.4,0,0,0,90.293-5.186Z" transform="translate(762.887 10255.448)" fill="#727272"/>
      <rect id="Rectángulo_33972" data-name="Rectángulo 33972" width="2.639" height="17.308" transform="translate(1044.876 10252.113) rotate(-90)" fill="#606060"/>
      <rect id="Rectángulo_33973" data-name="Rectángulo 33973" width="2.639" height="17.308" transform="translate(1052.211 10242.14)" fill="#606060"/>
      <g id="Elipse_4786" data-name="Elipse 4786" transform="translate(1019.287 10219.681)" fill="none" stroke="#d9a171" stroke-width="5" stroke-dasharray="10">
        <circle cx="32" cy="32" r="32" stroke="none"/>
        <circle cx="32" cy="32" r="29.5" fill="none"/>
      </g>
      <path id="Trazado_143546" data-name="Trazado 143546" d="M65.379,9.275q-6.6-4.258-13.2-8.522A5.809,5.809,0,0,0,51.043.124,2.205,2.205,0,0,0,48.354,1.2a2.145,2.145,0,0,0,.75,2.868c2.168,1.442,4.363,2.845,6.543,4.267.108.07.208.146.288.209H2.682A2.6,2.6,0,0,0,0,11.054a2.6,2.6,0,0,0,2.682,2.509H57.318C54.588,15.3,52.082,16.895,49.6,18.5a4.51,4.51,0,0,0-1.134.943,2.149,2.149,0,0,0,.045,2.6,2.237,2.237,0,0,0,2.584.723,6.994,6.994,0,0,0,1.054-.6q6.627-4.229,13.249-8.472C67.48,12.369,67.471,10.627,65.379,9.275Z" transform="translate(1160.437 10269.396) rotate(180)" fill="#6595bf"/>
    </g>
    <path id="Trazado_143545" data-name="Trazado 143545" d="M57.588,8.17Q51.774,4.419,45.962.663a5.117,5.117,0,0,0-1-.554,1.943,1.943,0,0,0-2.369.95,1.889,1.889,0,0,0,.661,2.526c1.909,1.271,3.843,2.506,5.763,3.759.1.062.183.129.254.184H2.362A2.289,2.289,0,0,0,0,9.737a2.288,2.288,0,0,0,2.362,2.21H50.488c-2.4,1.534-4.612,2.935-6.8,4.349a3.973,3.973,0,0,0-1,.831,1.893,1.893,0,0,0,.04,2.294A1.97,1.97,0,0,0,45,20.057a6.16,6.16,0,0,0,.928-.524q5.837-3.725,11.67-7.462C59.44,10.895,59.431,9.361,57.588,8.17Z" transform="matrix(-0.438, 0.899, -0.899, -0.438, 1050.77, 10276.221)" fill="#6595bf"/>
  </g>
</svg>
