<svg xmlns="http://www.w3.org/2000/svg" width="610" height="531" viewBox="0 0 610 531">
  <g id="img1" transform="translate(-810 -606)">
    <rect id="Rectángulo_33737" data-name="Rectángulo 33737" width="610" height="531" transform="translate(810 606)" fill="none"/>
    <g id="Grupo_78624" data-name="Grupo 78624" transform="translate(3 4.662)">
      <path id="Trazado_143523" data-name="Trazado 143523" d="M239.328,315.026a7.2,7.2,0,0,0-6.861-2.984,10.931,10.931,0,0,0-6.7,3.829,23.473,23.473,0,0,0-3.893,6.814A29.679,29.679,0,0,0,219.4,335.45a122.16,122.16,0,0,1-13.132-13.962l-1.085-1.372,11.17-7.8a24.047,24.047,0,0,0,6.718-6.079,8.17,8.17,0,0,0,.638-8.616,7.2,7.2,0,0,0-6.861-3,10.9,10.9,0,0,0-6.7,3.83,23.553,23.553,0,0,0-3.893,6.829,29.088,29.088,0,0,0-2.457,13.132,127.044,127.044,0,0,1-11.361-18l11.09-8.345a23.837,23.837,0,0,0,6.494-6.383,8.154,8.154,0,0,0,.287-8.632,7.2,7.2,0,0,0-6.973-2.729,10.946,10.946,0,0,0-6.542,4.085,23.042,23.042,0,0,0-3.622,6.973,30.141,30.141,0,0,0-2.042,12.4,127.238,127.238,0,0,1-5.936-14.217c-.495-1.436-.957-2.888-1.4-4.356l11.17-8.952a24.031,24.031,0,0,0,6.287-6.542,8.2,8.2,0,0,0,0-8.648,7.2,7.2,0,0,0-7.069-2.489,10.866,10.866,0,0,0-6.383,4.292,23.391,23.391,0,0,0-3.383,7.085,31.624,31.624,0,0,0-1.739,11.17,120.021,120.021,0,0,1-3-15.191q2.681-6.383,5.377-12.765a24.334,24.334,0,0,0,2.409-8.76,8.186,8.186,0,0,0-4.1-7.611,7.2,7.2,0,0,0-7.388,1.165,10.962,10.962,0,0,0-3.59,6.829,22.915,22.915,0,0,0,.383,7.867,27.972,27.972,0,0,0,5.649,13.228h0a121.264,121.264,0,0,0,3.191,16.164,30.972,30.972,0,0,0-8.712-7.978,23.455,23.455,0,0,0-7.133-3.319,10.978,10.978,0,0,0-7.675.75,7.212,7.212,0,0,0-3.877,6.383,8.2,8.2,0,0,0,5.5,6.67,24.446,24.446,0,0,0,9.015,1.069l13.9-.128a123.49,123.49,0,0,0,7.388,18.733,30.4,30.4,0,0,0-10.882-5.936,23.806,23.806,0,0,0-7.723-1.452,10.9,10.9,0,0,0-7.244,2.649,7.18,7.18,0,0,0-2.17,7.164,8.17,8.17,0,0,0,6.989,5.09,23.711,23.711,0,0,0,8.984-1.2l13.435-3.574.287.559a128.847,128.847,0,0,0,11.17,17.552,28.531,28.531,0,0,0-13.084-4.4,23.154,23.154,0,0,0-7.851.144,10.946,10.946,0,0,0-6.574,4.053,7.2,7.2,0,0,0-.654,7.452,8.186,8.186,0,0,0,7.867,3.59,23.933,23.933,0,0,0,8.553-3.016l12.765-6.383.176.223v.128h.1a127.252,127.252,0,0,0,13.675,14.9,30.781,30.781,0,0,0-12.478.351,24.062,24.062,0,0,0-7.547,2.665,11.17,11.17,0,0,0-5.042,6.032,7.276,7.276,0,0,0,1.739,7.42,8.3,8.3,0,0,0,8.744.925,24.589,24.589,0,0,0,7.324-5.649l9.335-9.35.335-.223a120.713,120.713,0,0,0,18,13.116c.67.4,1.436-.574.75-.973a121,121,0,0,1-17.7-12.861l10.659-7.4a24.333,24.333,0,0,0,6.734-6.079A8.218,8.218,0,0,0,239.328,315.026Z" transform="translate(839.582 615.182)" fill="#aed3f2"/>
      <g id="Grupo_78616" data-name="Grupo 78616" transform="translate(1065.203 897.69)">
        <rect id="Rectángulo_8360" data-name="Rectángulo 8360" width="237.943" height="224.157" rx="5.28" transform="translate(0 0.031)" fill="#e8c7aa"/>
        <path id="Trazado_106839" data-name="Trazado 106839" d="M425.607,263H208.072a10.1,10.1,0,0,0-7.292,3.1h202.5a10.276,10.276,0,0,1,10.2,10.34V480.008a10.388,10.388,0,0,1-2.92,7.228h15.047a10.26,10.26,0,0,0,10.2-10.34V273.372A10.26,10.26,0,0,0,425.607,263Z" transform="translate(-197.876 -263.001)" fill="#b47742"/>
      </g>
      <g id="Grupo_78617" data-name="Grupo 78617" transform="translate(895.55 733.05)">
        <path id="Trazado_106840" data-name="Trazado 106840" d="M299.837,273.49c-67.879,66.267-22.722,104.1-127.173,185.765-22.658-8.537-45.189,1.436-60.316,14.09-22.211,18.573,27.637,2.409,61.624,13.26,61.145-25.355,108.5-58.3,129.71-131.641Z" transform="translate(-84.18 -92.112)" fill="#d9a171"/>
        <path id="Trazado_106841" data-name="Trazado 106841" d="M361.605,264.575c-10.691-43.082-1.34-71.676-40.434-79.016-10.276-1.931-7.372-10.675-26.568-19.387-58.656-26.631-103.159,35.854-64.735,87.761,19.978,27.03-5.3,27-14.68,83.213-7.516,45.141,71.405,42.173,69.762,51.7-2.505,14.361.112,29.057,3.8,43.083,1.6,6.255,4.9,33.86,8.569,39.061,15.079,21.366,50.566,6.383,71.629,21.031,21.86,15.159,8.489,27.652,32.471,38.647,56.279,19.148,80.564-21.908,65.134-72.841-16.228-50.04,30.62-18.478,38.854-64.751C506.394,305.391,380.817,342.011,361.605,264.575Z" transform="translate(-19.941 -159.82)" fill="#344154"/>
        <g id="Grupo_57812" data-name="Grupo 57812" transform="translate(187.19 130.381)">
          <path id="Trazado_106842" data-name="Trazado 106842" d="M286.508,308.037H243.745c-2.058,0,3.75-35.551,3.75-35.551V248.95l30.557-7.42,7.978,30.317.383,31.913Z" transform="translate(-190.083 -241.53)" fill="#ffbf9d"/>
          <path id="Trazado_106843" data-name="Trazado 106843" d="M284.862,303.732l-5.952,1.6s-.894-38.407-7.787-47.072c-5.01-6.287-18.3-4.133-25.163-2.489v-6.8l30.557-7.42,7.978,30.317Z" transform="translate(-188.501 -241.518)" fill="#ebb0b0"/>
          <path id="Trazado_106844" data-name="Trazado 106844" d="M356.622,491.867c.7,1.6,1.4,3.3,2.106,4.915H210.588l-.638-.351c1.037-1.6,2.026-3.048,2.952-4.564,58.273-93.76-58.385-170.08,54.459-230.7l6.574,29.344,24.413-22.85,7.579-7.133c24.972.973,44.678,5.313,58.5,13.4C322.092,349.982,334.219,437.535,356.622,491.867Z" transform="translate(-209.95 -230.213)" fill="#d9a171"/>
          <g id="Grupo_57810" data-name="Grupo 57810" transform="translate(53.662 73.735)">
            <path id="Trazado_106845" data-name="Trazado 106845" d="M246.65,292.655a4.9,4.9,0,1,1,4.883,4.883A4.9,4.9,0,0,1,246.65,292.655Z" transform="translate(-241.751 -287.74)" fill="#a66d58"/>
            <path id="Trazado_106846" data-name="Trazado 106846" d="M244.44,304.349a4.883,4.883,0,1,1,1.424,3.463,4.9,4.9,0,0,1-1.424-3.463Z" transform="translate(-243.068 -280.765)" fill="#a66d58"/>
            <ellipse id="Elipse_4121" data-name="Elipse 4121" cx="4.899" cy="4.899" rx="4.899" ry="4.899" transform="translate(0 38.312)" fill="#a66d58"/>
          </g>
          <path id="Trazado_106847" data-name="Trazado 106847" d="M250.511,260.93l6.574,29.344-6.574,2.106L238.24,274.764Z" transform="translate(-193.099 -229.974)" fill="#fff"/>
          <path id="Trazado_106848" data-name="Trazado 106848" d="M288.649,273.07l-31.993,20.951-6.606-3.479,32.009-30.062Z" transform="translate(-186.065 -230.242)" fill="#fff"/>
          <g id="Grupo_57811" data-name="Grupo 57811" transform="translate(51.204 73.735)">
            <path id="Trazado_106849" data-name="Trazado 106849" d="M245.11,292.655a4.9,4.9,0,1,1,4.9,4.883,4.9,4.9,0,0,1-4.9-4.883Z" transform="translate(-240.211 -287.74)" fill="#fff"/>
            <path id="Trazado_106850" data-name="Trazado 106850" d="M242.9,304.349a4.9,4.9,0,1,1,4.9,4.9,4.9,4.9,0,0,1-4.9-4.9Z" transform="translate(-241.528 -280.765)" fill="#fff"/>
            <ellipse id="Elipse_4122" data-name="Elipse 4122" cx="4.899" cy="4.899" rx="4.899" ry="4.899" transform="translate(0 38.312)" fill="#fff"/>
          </g>
        </g>
        <path id="Trazado_106851" data-name="Trazado 106851" d="M319.643,472.729H290.921c0-1.6-.1-3.3-.16-4.915-3-71.9-29.216-99.169-6.558-160.522l24.334-6.383c-23.839,59.039-3.191,136.54,9.079,166.873A33.521,33.521,0,0,0,319.643,472.729Z" transform="translate(16.022 -75.779)" fill="#a66d58"/>
        <path id="Trazado_106852" data-name="Trazado 106852" d="M415.1,430.044c-2.489,26.982-85.048,22.451-120.5,19.244-9.733-.878-15.956-1.6-15.956-1.6-20.871,4.005-36.78,30.908-42.6,21.525-18.892-30.445,10.116-42.2,38.168-42.827l14.233-4.085,68.948-19.85-35.1-44.1c-25.291-30.206-7.978-114.36,30.317-87.505C376.8,287.871,418.192,395.641,415.1,430.044Z" transform="translate(-10.819 -96.792)" fill="#ffbf9d"/>
        <path id="Trazado_106853" data-name="Trazado 106853" d="M393.265,430.23c-2.489,26.982-85.048,22.451-120.5,19.244l-6.111-27.126L335.6,402.5l-35.1-44.1c-31.737-37.354-7.978-114.36,30.317-87.505C354.969,288.058,396.36,395.828,393.265,430.23Z" transform="translate(11.013 -96.978)" fill="#d9a171"/>
        <path id="Trazado_106854" data-name="Trazado 106854" d="M328.864,270.23a32.357,32.357,0,0,0-6.638-3.67c24.541,24.062,62.071,123.487,59.039,156.278-2.3,24.94-72.953,22.945-111.7,19.977l1.324,5.92c35.455,3.191,118.078,7.739,120.5-19.243C394.621,395.089,353.23,287.319,328.864,270.23Z" transform="translate(12.752 -96.24)" fill="#a66d58"/>
        <path id="Trazado_106855" data-name="Trazado 106855" d="M305.26,246.664s-5.776,21.589-19.866,32.088a32.594,32.594,0,0,1-3.447,2.234,26.169,26.169,0,0,1-17.648,2.968c-15.542-2.665-33.7-14.712-38.519-47.662-4.436-30.19,1.6-36.221,4.181-37.418h0a2.856,2.856,0,0,1,1.053-.287s22.467,10.611,45.955-13.627c0,0,9.4,29.376,22,41.168C324.854,207.491,314.993,242.467,305.26,246.664Z" transform="translate(-14.273 -144.845)" fill="#ffbf9d"/>
        <path id="Trazado_106856" data-name="Trazado 106856" d="M303.127,246.676s-5.776,21.589-19.866,32.088c10.26-9.574,15.015-42.987,6.957-48.4-14.169-9.494-14.728-33.11-16.387-35.758s-11.824,9.43-25.419,9.67-20.632-5.425-20.632-5.425h0a2.857,2.857,0,0,1,1.053-.287s22.467,10.611,45.955-13.627c0,0,9.4,29.376,22,41.168C322.721,207.5,312.86,242.479,303.127,246.676Z" transform="translate(-12.14 -144.857)" fill="#d9a171"/>
        <path id="Trazado_106857" data-name="Trazado 106857" d="M277.45,228.73Z" transform="translate(17.446 -118.773)" fill="#b7d8f2"/>
        <g id="Grupo_57814" data-name="Grupo 57814" transform="translate(0 220.487)">
          <g id="Grupo_57813" data-name="Grupo 57813">
            <path id="Trazado_106858" data-name="Trazado 106858" d="M337.686,469.452H123.007a15.414,15.414,0,0,1-15.334-13.786L92.722,315.042A15.43,15.43,0,0,1,108.056,298H322.75a15.414,15.414,0,0,1,15.318,13.786L353.02,452.395a15.43,15.43,0,0,1-15.334,17.058Z" transform="translate(-92.637 -298)" fill="#5e6178"/>
            <path id="Trazado_106859" data-name="Trazado 106859" d="M347.508,452.395,332.557,311.786A15.414,15.414,0,0,0,317.239,298H304.713c16.355,161.767-18.877,155.177-91.734,155.177H101.89l.271,2.489A15.414,15.414,0,0,0,117.5,469.452H332.174a15.43,15.43,0,0,0,15.334-17.057Z" transform="translate(-87.126 -298)" fill="#47495a"/>
            <ellipse id="Elipse_4123" data-name="Elipse 4123" cx="12.111" cy="12.111" rx="12.111" ry="12.111" transform="translate(118.131 73.607)" fill="#fff"/>
          </g>
          <rect id="Rectángulo_8361" data-name="Rectángulo 8361" width="122.306" height="18.637" rx="2.73" transform="translate(238.411 152.911)" fill="#7179a6"/>
        </g>
      </g>
      <g id="Grupo_78618" data-name="Grupo 78618" transform="translate(842.097 603.339)">
        <g id="Grupo_57816" data-name="Grupo 57816" transform="translate(38.484 71.172)">
          <path id="Trazado_106860" data-name="Trazado 106860" d="M30.728,308.469h0a1.307,1.307,0,0,1-1.228-1.307c0-1.581,0-3.149.091-4.717a1.262,1.262,0,1,1,2.522.091c0,1.555-.078,3.11-.1,4.678A1.307,1.307,0,0,1,30.728,308.469Z" transform="translate(-29.5 -31.071)" fill="#6595bf"/>
          <path id="Trazado_106861" data-name="Trazado 106861" d="M31.151,357.617h-.078a1.307,1.307,0,0,1-1.163-1.307c.2-3.162.457-6.363.758-9.526a1.307,1.307,0,0,1,2.5.248c-.3,3.123-.562,6.3-.758,9.434A1.307,1.307,0,0,1,31.151,357.617Zm1.855-18.934h-.17a1.307,1.307,0,0,1-1.071-1.411c.418-3.149.889-6.324,1.411-9.447a1.307,1.307,0,1,1,2.47.405c-.51,3.1-.98,6.259-1.4,9.369A1.307,1.307,0,0,1,33.007,338.684Zm3.136-18.829a.85.85,0,0,1-.248,0,1.307,1.307,0,0,1-.98-1.476c.64-3.11,1.307-6.259,2.065-9.33a1.307,1.307,0,1,1,2.443.588c-.732,3.045-1.424,6.154-2.051,9.238A1.307,1.307,0,0,1,36.143,319.855Zm4.43-18.5a.954.954,0,0,1-.327,0,1.307,1.307,0,0,1-.875-1.529c.836-3.058,1.751-6.141,2.7-9.147a1.246,1.246,0,1,1,2.378.745c-.941,3.018-1.842,6.063-2.613,9.147a1.307,1.307,0,0,1-1.267.836Zm5.7-18.084a1.189,1.189,0,0,1-.418-.078,1.307,1.307,0,0,1-.758-1.594c1.045-2.992,2.169-6.011,3.319-8.964a1.307,1.307,0,0,1,2.339.915c-1.15,2.927-2.261,5.919-3.306,8.885A1.307,1.307,0,0,1,46.269,283.268Zm6.925-17.731a1.23,1.23,0,0,1-1.15-1.738l.8-1.842c1.019-2.313,2.065-4.626,3.136-6.873a1.251,1.251,0,1,1,2.261,1.071c-1.045,2.234-2.091,4.521-3.1,6.808-.261.6-.536,1.215-.8,1.829a1.307,1.307,0,0,1-1.15.732Zm8.114-17.209A1.24,1.24,0,0,1,60.2,246.5c1.45-2.822,2.966-5.658,4.508-8.415a1.307,1.307,0,0,1,2.2,1.215c-1.529,2.744-3.031,5.553-4.469,8.35a1.307,1.307,0,0,1-1.124.666Zm9.225-16.634a1.215,1.215,0,0,1-.653-.183,1.307,1.307,0,0,1-.418-1.712c1.633-2.718,3.345-5.436,5.083-8.1a1.307,1.307,0,1,1,2.091,1.372c-1.712,2.613-3.41,5.331-5.031,8.023A1.307,1.307,0,0,1,70.534,231.694Zm10.453-15.941a1.228,1.228,0,0,1-.719-.222,1.307,1.307,0,0,1-.3-1.751c1.816-2.613,3.711-5.227,5.619-7.722a1.307,1.307,0,1,1,1.934,1.516c-1.895,2.509-3.776,5.083-5.566,7.657A1.307,1.307,0,0,1,80.987,215.753ZM92.447,200.57a1.247,1.247,0,0,1-.967-2.038c1.986-2.47,4.051-4.926,6.141-7.33a1.307,1.307,0,0,1,1.882,1.646c-2.051,2.378-4.1,4.822-6.076,7.265a1.307,1.307,0,0,1-.993.457ZM104.925,186.2a1.307,1.307,0,0,1-.928-2.1c2.156-2.313,4.39-4.639,6.625-6.886a1.307,1.307,0,1,1,1.725,1.764c-2.221,2.234-4.43,4.534-6.533,6.834a1.307,1.307,0,0,1-.9.392Zm13.406-13.485a1.307,1.307,0,0,1-.849-2.169c2.313-2.182,4.691-4.338,7.069-6.429A1.307,1.307,0,1,1,126.2,166c-2.352,2.065-4.717,4.207-7,6.377a1.307,1.307,0,0,1-.875.34Zm14.295-12.57a1.307,1.307,0,0,1-.8-2.221c2.457-2.025,4.978-4.025,7.487-5.945a1.253,1.253,0,1,1,1.529,1.986c-2.5,1.908-4.991,3.92-7.422,5.893a1.307,1.307,0,0,1-.81.287Zm15.105-11.577a1.307,1.307,0,0,1-.719-2.274c2.613-1.842,5.227-3.659,7.84-5.41a1.307,1.307,0,0,1,1.385,2.091c-2.613,1.738-5.227,3.541-7.84,5.357a1.307,1.307,0,0,1-.679.235Zm15.876-10.453a1.307,1.307,0,0,1-.666-2.313c2.7-1.659,5.475-3.293,8.232-4.861a1.307,1.307,0,0,1,1.307,2.182c-2.731,1.542-5.475,3.162-8.154,4.809a1.215,1.215,0,0,1-.732.131Zm16.542-9.382a1.307,1.307,0,0,1-.575-2.365c2.809-1.463,5.684-2.9,8.546-4.273a1.307,1.307,0,1,1,1.085,2.247c-2.835,1.307-5.684,2.8-8.467,4.247a1.216,1.216,0,0,1-.6.091Zm17.156-8.232a1.307,1.307,0,0,1-.51-2.391c2.313-1.019,4.665-2.012,7-2.966l1.816-.732a1.307,1.307,0,1,1,.928,2.326l-1.79.732c-2.326.941-4.665,1.921-6.951,2.927a1.1,1.1,0,0,1-.523.052Zm17.666-7.1a1.307,1.307,0,0,1-.431-2.43c2.992-1.085,6.037-2.117,9.055-3.084a1.307,1.307,0,0,1,.771,2.378c-2.992.967-6.011,2-8.977,3.058A1.137,1.137,0,0,1,214.972,113.4Zm18.11-5.828a1.307,1.307,0,0,1-.34-2.457c3.058-.862,6.167-1.7,9.238-2.457a1.307,1.307,0,0,1,1.516.915,1.228,1.228,0,0,1-.915,1.516c-3.045.758-6.128,1.581-9.147,2.43a.98.98,0,0,1-.353.052Zm18.476-4.56a1.307,1.307,0,0,1-.261-2.483c3.1-.653,6.259-1.307,9.395-1.8a1.307,1.307,0,0,1,.431,2.47c-3.11.536-6.233,1.137-9.3,1.79Zm18.738-3.28a1.255,1.255,0,0,1-.17-2.5c3.149-.431,6.337-.823,9.486-1.15a1.307,1.307,0,1,1,.261,2.5c-3.123.327-6.285.706-9.395,1.137Zm18.934-2.012a1.307,1.307,0,0,1-.091-2.509c3.162-.222,6.376-.392,9.539-.5a1.307,1.307,0,1,1,.091,2.5c-3.136.118-6.324.287-9.46.51Z" transform="translate(-29.374 -94.423)" fill="#6595bf"/>
          <path id="Trazado_106862" data-name="Trazado 106862" d="M247.961,97.147H243.3a1.307,1.307,0,1,1,0-2.613h4.717a1.307,1.307,0,1,1,0,2.5Z" transform="translate(35.663 -94.475)" fill="#6595bf"/>
        </g>
        <g id="Grupo_57817" data-name="Grupo 57817" transform="translate(62.279 95.071)">
          <path id="Trazado_106863" data-name="Trazado 106863" d="M247.629,115.333h-4.678a1.307,1.307,0,0,1,0-2.509h4.717a1.307,1.307,0,1,1,0,2.5Z" transform="translate(11.874 -112.765)" fill="#6595bf"/>
          <path id="Trazado_106864" data-name="Trazado 106864" d="M49.417,352.253h-.144a1.307,1.307,0,0,1-1.163-1.307c.222-3.162.51-6.376.849-9.539a1.228,1.228,0,0,1,1.372-1.111,1.307,1.307,0,0,1,1.163,1.4c-.327,3.136-.614,6.311-.823,9.447A1.307,1.307,0,0,1,49.417,352.253Zm2.025-18.947h-.183a1.307,1.307,0,0,1-1.058-1.424c.457-3.149.98-6.324,1.555-9.447a1.307,1.307,0,1,1,2.457.457c-.562,3.084-1.071,6.233-1.529,9.356A1.307,1.307,0,0,1,51.442,333.307Zm3.437-18.737H54.6a1.307,1.307,0,0,1-.941-1.49c.693-3.11,1.45-6.233,2.261-9.3a1.25,1.25,0,1,1,2.417.64c-.8,3.031-1.555,6.128-2.234,9.212A1.307,1.307,0,0,1,54.879,314.569Zm4.848-18.424a1.2,1.2,0,0,1-.366,0,1.307,1.307,0,0,1-.836-1.555c.928-3.044,1.921-6.115,2.953-9.147a1.307,1.307,0,0,1,1.594-.771,1.228,1.228,0,0,1,.771,1.581c-1.019,2.979-2,6.011-2.914,9.029a1.307,1.307,0,0,1-1.2.862Zm6.22-18.019a1.241,1.241,0,0,1-1.176-1.7c1.15-2.953,2.365-5.919,3.619-8.833a1.307,1.307,0,0,1,2.3.993c-1.307,2.888-2.443,5.828-3.58,8.742A1.307,1.307,0,0,1,65.946,278.126Zm7.526-17.444a1.243,1.243,0,0,1-1.124-1.79c1.307-2.862,2.8-5.736,4.273-8.546a1.307,1.307,0,0,1,2.221,1.163c-1.463,2.783-2.888,5.632-4.234,8.467A1.307,1.307,0,0,1,73.472,260.683Zm8.833-16.843a1.307,1.307,0,0,1-1.085-1.869c1.568-2.757,3.214-5.514,4.9-8.206a1.307,1.307,0,1,1,2.13,1.307c-1.673,2.613-3.306,5.4-4.861,8.127A1.307,1.307,0,0,1,82.305,243.84Zm10.087-16.15a1.238,1.238,0,0,1-1.032-1.947c1.777-2.613,3.633-5.227,5.5-7.84a1.307,1.307,0,0,1,2.065,1.49c-1.855,2.535-3.7,5.148-5.462,7.749A1.2,1.2,0,0,1,92.393,227.689ZM103.6,212.336a1.215,1.215,0,0,1-.771-.274,1.307,1.307,0,0,1-.209-1.764c1.973-2.5,4.025-4.978,6.076-7.4a1.256,1.256,0,0,1,1.908,1.633c-2.038,2.378-4.064,4.848-6.024,7.317a1.215,1.215,0,0,1-.98.484Zm12.309-14.491a1.307,1.307,0,0,1-.928-2.1c2.156-2.339,4.377-4.665,6.612-6.925a1.307,1.307,0,1,1,1.777,1.764c-2.208,2.234-4.417,4.547-6.533,6.86A1.307,1.307,0,0,1,115.913,197.845Zm13.393-13.55a1.215,1.215,0,0,1-.9-.392,1.228,1.228,0,0,1,0-1.764c2.313-2.169,4.7-4.338,7.108-6.429a1.307,1.307,0,1,1,1.633,1.895c-2.365,2.065-4.743,4.207-7.03,6.35a1.2,1.2,0,0,1-.758.34Zm14.373-12.5a1.215,1.215,0,0,1-.967-.47,1.307,1.307,0,0,1,.183-1.764c2.47-1.986,5.018-3.92,7.566-5.88a1.307,1.307,0,0,1,1.5,2.012c-2.522,1.882-5.044,3.842-7.487,5.815a1.228,1.228,0,0,1-.745.327Zm15.353-11.42a1.307,1.307,0,0,1-.719-2.287c2.613-1.8,5.305-3.593,7.984-5.305A1.307,1.307,0,0,1,167.6,154.9c-2.613,1.686-5.305,3.463-7.84,5.227A1.307,1.307,0,0,1,159.033,160.37ZM175.1,150.113a1.307,1.307,0,0,1-.627-2.326c2.744-1.62,5.553-3.188,8.35-4.7a1.307,1.307,0,0,1,1.189,2.208c-2.77,1.49-5.553,3.058-8.271,4.652a1.306,1.306,0,0,1-.666.17Zm16.8-9.029a1.307,1.307,0,0,1-.549-2.378c2.862-1.4,5.788-2.757,8.689-4.051a1.252,1.252,0,1,1,1.019,2.287c-2.875,1.307-5.775,2.613-8.611,4.011a1.137,1.137,0,0,1-.575.131Zm17.457-7.749a1.307,1.307,0,0,1-.47-2.417c2.953-1.176,5.971-2.313,8.977-3.384a1.307,1.307,0,0,1,.836,2.352c-2.966,1.058-5.958,2.2-8.885,3.358a1.189,1.189,0,0,1-.483.091Zm17.98-6.4a1.307,1.307,0,0,1-.379-2.457c3.044-.954,6.141-1.869,9.212-2.7a1.307,1.307,0,1,1,.666,2.417c-3.045.836-6.115,1.738-9.147,2.613a1.307,1.307,0,0,1-.379.131Zm18.411-5.044a1.307,1.307,0,0,1-.287-2.47c3.1-.719,6.246-1.385,9.356-2a1.258,1.258,0,0,1,.483,2.47c-3.084.588-6.207,1.307-9.277,1.973a.981.981,0,0,1-.3.026Zm18.672-3.632a1.307,1.307,0,0,1-.2-2.5c3.136-.483,6.337-.915,9.486-1.307a1.257,1.257,0,1,1,.3,2.5c-3.123.366-6.285.8-9.382,1.307Zm18.92-2.208a1.307,1.307,0,0,1-.091-2.5c3.162-.248,6.376-.444,9.552-.575a1.307,1.307,0,1,1,.1,2.5c-3.149.131-6.337.327-9.46.575Z" transform="translate(-47.587 -112.723)" fill="#6595bf"/>
          <path id="Trazado_106865" data-name="Trazado 106865" d="M48.938,308.7h0a1.307,1.307,0,0,1-1.228-1.307c0-1.594,0-3.175.1-4.717a1.307,1.307,0,0,1,1.307-1.215h0a1.307,1.307,0,0,1,1.215,1.307c0,1.529-.091,3.1-.118,4.678a1.307,1.307,0,0,1-1.281,1.254Z" transform="translate(-47.71 -54.9)" fill="#6595bf"/>
        </g>
        <circle id="Elipse_4124" data-name="Elipse 4124" cx="43.669" cy="43.669" r="43.669" transform="translate(204.74 61.757) rotate(-45)" fill="#d9a171"/>
        <ellipse id="Elipse_4125" data-name="Elipse 4125" cx="43.669" cy="43.669" rx="43.669" ry="43.669" transform="translate(3.998 158.672) rotate(-22.5)" fill="#d0c9ff"/>
        <ellipse id="Elipse_4126" data-name="Elipse 4126" cx="30.497" cy="30.497" rx="30.497" ry="30.497" transform="translate(151.397 129.276) rotate(-22.5)" fill="#e8c7aa"/>
        <ellipse id="Elipse_4127" data-name="Elipse 4127" cx="30.497" cy="30.497" rx="30.497" ry="30.497" transform="translate(64.735 246.533)" fill="#d9a171"/>
        <path id="Trazado_106866" data-name="Trazado 106866" d="M157.313,162.824c0-4.521-2.613-7.043-7.762-9.055v-10.7a12.413,12.413,0,0,1,5.423,1.463l1.1-3.267a13.837,13.837,0,0,0-6.533-1.516V135.41h-3.267V140.1c-4.377.967-7.121,4.116-7.121,8.127s2.692,6.533,7.121,8.389v11.878a14.373,14.373,0,0,1-6.755-2.025l-1.006,3.358a16.032,16.032,0,0,0,7.762,1.986v4.338H149.6v-4.691C154.83,170.468,157.313,166.874,157.313,162.824Zm-14.1-15.118a4.456,4.456,0,0,1,3.071-4.181v8.755C144.181,151.09,143.214,149.783,143.214,147.706Zm6.39,20.319V157.937c2.613,1.307,3.672,2.875,3.672,5.227a4.952,4.952,0,0,1-3.672,4.861Z" transform="translate(42.413 -10.75)" fill="#fff"/>
        <path id="Trazado_106867" data-name="Trazado 106867" d="M58.63,247.71a8.885,8.885,0,0,1,.9-3.92,6.324,6.324,0,0,1,2.744-2.862,9.068,9.068,0,0,1,4.377-1.006,7.84,7.84,0,0,1,5.854,2.13,8.559,8.559,0,0,1,0,11.329,7.84,7.84,0,0,1-5.854,2.13,9.067,9.067,0,0,1-4.377-1.006,6.325,6.325,0,0,1-2.744-2.862,8.9,8.9,0,0,1-.9-3.933Zm5.671,0a6.377,6.377,0,0,0,.81,3.633,1.764,1.764,0,0,0,1.542.745,1.725,1.725,0,0,0,1.516-.745,6.376,6.376,0,0,0,.81-3.633,6.533,6.533,0,0,0-.81-3.646,1.738,1.738,0,0,0-1.516-.719,1.777,1.777,0,0,0-1.542.719,6.429,6.429,0,0,0-.771,3.685Zm19.482-7.84h4.273L70.939,271.517H66.705ZM80.02,263.73a8.885,8.885,0,0,1,.889-3.92,6.22,6.22,0,0,1,2.744-2.849,8.937,8.937,0,0,1,4.364-1.019,8,8,0,0,1,5.88,2.13,8.572,8.572,0,0,1,0,11.342,7.944,7.944,0,0,1-5.88,2.13,9.147,9.147,0,0,1-4.364-1.006,6.311,6.311,0,0,1-2.744-2.862,8.846,8.846,0,0,1-.889-3.946Zm5.671,0a6.429,6.429,0,0,0,.81,3.646,1.712,1.712,0,0,0,1.516.719,1.777,1.777,0,0,0,1.542-.719,6.442,6.442,0,0,0,.8-3.646,6.533,6.533,0,0,0-.8-3.659,1.777,1.777,0,0,0-1.542-.719,1.712,1.712,0,0,0-1.516.745,6.377,6.377,0,0,0-.836,3.672Z" transform="translate(17.917 21.284)" fill="#fff"/>
        <g id="Grupo_57819" data-name="Grupo 57819" transform="translate(43.776 157.758)">
          <g id="Grupo_57818" data-name="Grupo 57818" transform="translate(4.913 20.867)">
            <rect id="Rectángulo_8362" data-name="Rectángulo 8362" width="4.691" height="5.174" transform="translate(0 14.752)" fill="#dbdfff"/>
            <rect id="Rectángulo_8363" data-name="Rectángulo 8363" width="4.691" height="15.575" transform="translate(8.376 4.351)" fill="#dbdfff"/>
            <rect id="Rectángulo_8364" data-name="Rectángulo 8364" width="4.691" height="9.735" transform="translate(16.751 10.192)" fill="#dbdfff"/>
            <rect id="Rectángulo_8365" data-name="Rectángulo 8365" width="4.691" height="19.94" transform="translate(25.114)" fill="#dbdfff"/>
          </g>
          <path id="Trazado_106868" data-name="Trazado 106868" d="M34.7,203.35V160.74H33.55v43.773H74.527V203.35Z" transform="translate(-33.55 -160.74)" fill="#dbdfff"/>
          <path id="Trazado_106869" data-name="Trazado 106869" d="M66.566,170.281l-2.509-.379-2.5-.392c-.157,0-.222.144-.144.3l1.045,1.882-5.1,2.744-1.581-1.49-.47-.444-.575.287-7.265,3.633-1.816-1.045-.379-.209-.327.209-8.193,3.136a.213.213,0,0,0,.131.405l1.659-.353,6.533-1.307,1.947,1.058.431.235.431-.209,7.121-3.554,1.594,1.5.483.457.588-.314,5.7-3.071.353.64.693,1.307c0,.144.222.183.3.1h0l1.019-2.313.967-2.182V170.8a.3.3,0,0,0-.144-.523Z" transform="translate(-32.606 -158.051)" fill="#dbdfff"/>
        </g>
        <circle id="Elipse_4128" data-name="Elipse 4128" cx="43.669" cy="43.669" r="43.669" transform="translate(0 182.316) rotate(-45)" fill="#6595bf"/>
        <g id="Grupo_57821" data-name="Grupo 57821" transform="translate(37.544 153.133)">
          <g id="Grupo_57820" data-name="Grupo 57820" transform="translate(6.089 25.793)">
            <rect id="Rectángulo_8366" data-name="Rectángulo 8366" width="5.802" height="6.403" transform="translate(0 18.254)" fill="#fff"/>
            <rect id="Rectángulo_8367" data-name="Rectángulo 8367" width="5.802" height="19.247" transform="translate(10.349 5.397)" fill="#fff"/>
            <rect id="Rectángulo_8368" data-name="Rectángulo 8368" width="5.802" height="12.034" transform="translate(20.684 12.609)" fill="#fff"/>
            <rect id="Rectángulo_8369" data-name="Rectángulo 8369" width="5.802" height="24.644" transform="translate(31.033)" fill="#fff"/>
          </g>
          <path id="Trazado_106870" data-name="Trazado 106870" d="M30.2,209.885V157.2H28.78v54.109H79.439v-1.424Z" transform="translate(-28.78 -157.2)" fill="#fff"/>
          <path id="Trazado_106871" data-name="Trazado 106871" d="M69.587,169l-3.1-.483-3.1-.47c-.17,0-.261.17-.157.366l1.307,2.326-6.3,3.384L56.3,172.3l-.588-.549-.719.353-8.977,4.482-2.247-1.228-.457-.248-.418.157-10.114,3.92a.248.248,0,0,0-.157.287.261.261,0,0,0,.3.209l2.065-.431,8.049-1.646,2.4,1.307.523.3.536-.274,8.833-4.417,1.973,1.855.6.575.732-.405,7.03-3.776.444.784.849,1.555c.091.17.274.222.366.118h0l1.307-2.862,1.2-2.7.065-.144a.353.353,0,0,0-.314-.51Z" transform="translate(-27.604 -153.873)" fill="#fff"/>
        </g>
        <g id="Grupo_57822" data-name="Grupo 57822" transform="translate(240.729 33.351)">
          <path id="Trazado_106872" data-name="Trazado 106872" d="M208.924,112.282a26.865,26.865,0,0,1-17.274-6.246L209.212,87.56l21.926,13.067a26.983,26.983,0,0,1-22.213,11.655Z" transform="translate(-182.02 -58.774)" fill="#fff"/>
          <path id="Trazado_106873" data-name="Trazado 106873" d="M206.11,90.644V65.53a26.878,26.878,0,0,1,25.232,25.114Z" transform="translate(-177.585 -65.53)" fill="#fff"/>
          <path id="Trazado_106874" data-name="Trazado 106874" d="M213.23,87.92h20.907a26.6,26.6,0,0,1-2.979,10.715Z" transform="translate(-175.402 -58.664)" fill="#fff"/>
          <path id="Trazado_106875" data-name="Trazado 106875" d="M191.545,110.568a26.434,26.434,0,0,1-7.265-18.293A26.878,26.878,0,0,1,209.564,65.54V91.673Z" transform="translate(-184.28 -65.527)" fill="#fff"/>
        </g>
      </g>
      <g id="Grupo_78619" data-name="Grupo 78619" transform="translate(812.548 1119.038)">
        <path id="Trazado_106876" data-name="Trazado 106876" d="M613.681,406.7H43.109a2.489,2.489,0,0,1,0-4.978H613.681a2.489,2.489,0,1,1,0,4.978Z" transform="translate(-40.62 -401.721)" fill="#212c82"/>
      </g>
      <g id="Grupo_78620" data-name="Grupo 78620" transform="translate(812.548 1080.23)">
        <g id="Grupo_57825" data-name="Grupo 57825" transform="translate(0 19.547)">
          <path id="Trazado_106878" data-name="Trazado 106878" d="M132.492,391.38v14.01H91.755a7,7,0,0,1,0-14.01Z" transform="translate(-14.334 -388.619)" fill="#fff"/>
          <path id="Trazado_106879" data-name="Trazado 106879" d="M118.041,392.41c-6.111,0-10.42,7.883-3.319,14.01h44.056V409.2H40.62V389.65H158.778v2.76Z" transform="translate(-40.62 -389.65)" fill="#e8c7aa"/>
          <path id="Trazado_106880" data-name="Trazado 106880" d="M85.639,399.431a7,7,0,0,0,7,6.989h40.737V409.2H92.644a9.781,9.781,0,0,1,0-19.547h40.737v2.76H92.644A7.021,7.021,0,0,0,85.639,399.431Z" transform="translate(-15.223 -389.65)" fill="#d5b090"/>
          <rect id="Rectángulo_8370" data-name="Rectángulo 8370" width="2.617" height="19.547" transform="translate(41.279)" fill="#fff"/>
          <rect id="Rectángulo_8371" data-name="Rectángulo 8371" width="2.617" height="19.547" transform="translate(34.721)" fill="#fff"/>
          <path id="Trazado_106881" data-name="Trazado 106881" d="M90.81,394.52v6.1l3.1-2.154,3.1,2.154v-6.1Z" transform="translate(-10.724 -386.749)" fill="#b59b89"/>
          <path id="Trazado_106882" data-name="Trazado 106882" d="M71.69,398.545a5.681,5.681,0,1,1,5.681,5.7,5.681,5.681,0,0,1-5.681-5.7Z" transform="translate(-22.113 -387.726)" fill="#fff"/>
        </g>
        <g id="Grupo_57826" data-name="Grupo 57826" transform="translate(11.186 0)">
          <path id="Trazado_106883" data-name="Trazado 106883" d="M47.63,379.13v14.01H88.351a7,7,0,0,0,0-14.01Z" transform="translate(-47.63 -376.37)" fill="#fff"/>
          <path id="Trazado_106884" data-name="Trazado 106884" d="M88.351,380.16c6.111,0,10.42,7.883,3.335,14.01H47.63v2.776H165.788V377.4H47.63v2.76Z" transform="translate(-47.63 -377.4)" fill="#d9a171"/>
          <path id="Trazado_106885" data-name="Trazado 106885" d="M95.356,387.181a7,7,0,0,1-7,6.989H47.63v2.776H88.351a9.781,9.781,0,0,0,0-19.547H47.63v2.76H88.351A7.021,7.021,0,0,1,95.356,387.181Z" transform="translate(-47.63 -377.4)" fill="#c38e61"/>
          <rect id="Rectángulo_8372" data-name="Rectángulo 8372" width="2.617" height="19.547" transform="translate(76.878 19.547) rotate(180)" fill="#fff"/>
          <rect id="Rectángulo_8373" data-name="Rectángulo 8373" width="2.617" height="19.547" transform="translate(83.436 19.547) rotate(180)" fill="#fff"/>
          <path id="Trazado_106886" data-name="Trazado 106886" d="M73.8,382.28v6.079l-3.1-2.154-3.1,2.154V382.28Z" transform="translate(-35.729 -374.493)" fill="#d9a171"/>
          <path id="Trazado_106887" data-name="Trazado 106887" d="M83.46,385.521a5.361,5.361,0,1,1,5.361,5.361,5.361,5.361,0,0,1-5.361-5.361Z" transform="translate(-26.288 -375.756)" fill="#fff"/>
        </g>
      </g>
      <path id="Trazado_143524" data-name="Trazado 143524" d="M318.793,133.96v-7.388a3.032,3.032,0,1,0-6.063,0v7.388h-7.388a3.032,3.032,0,1,0,0,6.063h7.388v7.388a3.032,3.032,0,0,0,5.17,2.138,2.984,2.984,0,0,0,.894-2.138v-7.388h7.372a3,3,0,0,0,3.032-3.032,3.032,3.032,0,0,0-3.032-3.032Z" transform="translate(927.803 551.621)" fill="#aed3f2"/>
      <g id="Grupo_78621" data-name="Grupo 78621" transform="translate(924.483 789.297)">
        <path id="Trazado_106890" data-name="Trazado 106890" d="M110.77,198.022h0a2.952,2.952,0,0,1,2.968-2.952h20.743a2.952,2.952,0,0,1,2.952,2.952h0a2.952,2.952,0,0,1-2.952,2.952H113.738a2.952,2.952,0,0,1-2.968-2.952Z" transform="translate(-110.77 -195.07)" fill="#aed3f2"/>
        <path id="Trazado_106891" data-name="Trazado 106891" d="M110.77,205.282h0a2.952,2.952,0,0,1,2.968-2.952h20.743a2.952,2.952,0,0,1,2.952,2.952h0a2.952,2.952,0,0,1-3,2.9H113.69a2.968,2.968,0,0,1-2.92-2.9Z" transform="translate(-110.77 -190.746)" fill="#aed3f2"/>
      </g>
      <g id="Grupo_78622" data-name="Grupo 78622" transform="translate(1367.1 674.395)">
        <path id="Trazado_106892" data-name="Trazado 106892" d="M388.16,126.012h0c0-1.6.878-2.952,1.963-2.952h13.738c1.085,0,1.963,1.324,1.963,2.952h0c0,1.6-.878,2.952-1.963,2.952h-13.8C389.038,128.964,388.16,127.64,388.16,126.012Z" transform="translate(-388.16 -123.06)" fill="#aed3f2"/>
        <path id="Trazado_106893" data-name="Trazado 106893" d="M388.16,133.282h0c0-1.6.878-2.952,1.963-2.952h13.738c1.085,0,1.963,1.308,1.963,2.952h0c0,1.6-.878,2.952-1.963,2.952h-13.8C389.038,136.186,388.16,134.91,388.16,133.282Z" transform="translate(-388.16 -118.73)" fill="#aed3f2"/>
      </g>
      <path id="Trazado_143526" data-name="Trazado 143526" d="M413.428,394.674a16.052,16.052,0,1,1,16.036-16.036,16.052,16.052,0,0,1-16.036,16.036Zm0-26.424a10.388,10.388,0,1,0,10.388,10.388,10.388,10.388,0,0,0-10.388-10.388Z" transform="translate(984.42 693.997)" fill="#aed3f2"/>
      <path id="Trazado_143527" data-name="Trazado 143527" d="M113.578,134.835a16.052,16.052,0,1,1,15.956-15.956A16.052,16.052,0,0,1,113.578,134.835Zm0-26.424A10.388,10.388,0,1,0,123.966,118.8,10.388,10.388,0,0,0,113.578,108.411Z" transform="translate(805.767 539.225)" fill="#aed3f2"/>
      <path id="Trazado_143528" data-name="Trazado 143528" d="M206.57,187.312l5.218-5.218A3.035,3.035,0,1,0,207.5,177.8l-5.218,5.218-5.234-5.218a3.035,3.035,0,1,0-4.292,4.292l5.234,5.218-5.218,5.218a3.035,3.035,0,0,0,4.292,4.292l5.218-5.218,5.2,5.218a3.08,3.08,0,0,0,2.154.973,3.048,3.048,0,0,0,2.138-5.186Z" transform="translate(862.017 583.412)" fill="#aed3f2"/>
      <path id="Trazado_143529" data-name="Trazado 143529" d="M53.714,330.522l5.234-5.218a3.035,3.035,0,1,0-4.292-4.292l-5.234,5.3L44.2,321.092a3.035,3.035,0,0,0-4.292,4.292L45.13,330.6l-5.2,5.218a3.035,3.035,0,1,0,4.292,4.292l5.2-5.218,5.218,5.218a3.035,3.035,0,1,0,4.292-4.292Z" transform="translate(770.977 668.715)" fill="#aed3f2"/>
      <g id="Grupo_78623" data-name="Grupo 78623" transform="translate(1113.01 804.722)">
        <path id="Trazado_106898" data-name="Trazado 106898" d="M231.383,213.109a3.271,3.271,0,1,0,2.585-3.766,3.191,3.191,0,0,0-2.585,3.766Z" transform="translate(-227.491 -202.03)" fill="#344154"/>
        <path id="Trazado_106899" data-name="Trazado 106899" d="M229.047,211.91c.479.351,2.473-2.09,5.9-3s6.383.255,6.654-.287-.447-.91-1.755-1.42a8.792,8.792,0,0,0-10,2.649C228.936,210.937,228.76,211.8,229.047,211.91Z" transform="translate(-228.921 -203.623)" fill="#344154"/>
        <path id="Trazado_106900" data-name="Trazado 106900" d="M249.009,211.369a3.319,3.319,0,1,0,2.872-3.638h-.176a3.3,3.3,0,0,0-2.7,3.638Z" transform="translate(-216.969 -202.97)" fill="#344154"/>
        <path id="Trazado_106901" data-name="Trazado 106901" d="M247.309,210.055c.511.335,2.521-2.106,5.936-3s6.383.239,6.622-.287-.447-.91-1.707-1.436a8.824,8.824,0,0,0-10.021,2.649C247.293,209.066,247.1,209.944,247.309,210.055Z" transform="translate(-218.014 -204.737)" fill="#344154"/>
        <path id="Trazado_106902" data-name="Trazado 106902" d="M248,239.61a26.137,26.137,0,0,0-5.792.463c-.846.16-1.755.351-2.122-.4a4.133,4.133,0,0,1,0-2.808l.957-7.42c.67-5.3,1.181-10.085,1.6-13.563a24.683,24.683,0,0,0,.207-5.633,25.007,25.007,0,0,0-1.165,5.521c-.559,3.447-1.261,8.218-1.787,13.356-.287,2.569-.558,4.994-.862,7.452a5.187,5.187,0,0,0,.4,3.558,2.952,2.952,0,0,0,3.191.7A28.306,28.306,0,0,0,248,239.61Z" transform="translate(-222.985 -201.453)" fill="#344154"/>
        <path id="Trazado_106903" data-name="Trazado 106903" d="M253.947,230.369c3.048-3-8.585,7.563-15.637,8.983a9.973,9.973,0,0,0,12.143.862C257.155,235.715,253.947,230.369,253.947,230.369Z" transform="translate(-223.328 -189.787)" fill="#fff"/>
      </g>
      <g id="Grupo_78614" data-name="Grupo 78614" transform="translate(1285.341 928.077)">
        <g id="Grupo_57805" data-name="Grupo 57805" transform="translate(0 0)">
          <path id="Trazado_106823" data-name="Trazado 106823" d="M509.247,333.653a27.7,27.7,0,0,0-13-6.813A24.763,24.763,0,0,0,502,314.234a1.181,1.181,0,1,0-2.33-.319c-1.723,18.924-24.541,18.3-34.1,30.908a51.062,51.062,0,0,1,.686-19.977,27.127,27.127,0,0,0,16.292-6.478,25.337,25.337,0,0,1,4.931-4.229c1.372-.734.574-3.016-.8-2.266-5.92,4.659-11.616,10.324-19.738,10.436a50.391,50.391,0,0,1,11.76-20.2c.718-7.691-10.5,9.8-10.835,11.553a23.935,23.935,0,0,1-2.01-13.2,1.181,1.181,0,1,0-2.33-.3,26.552,26.552,0,0,0,3.08,16.307,51.348,51.348,0,0,0-4.069,19.148,26.615,26.615,0,0,1-15.957-20.6c-1.276-9.015,2.3-19.563-1.979-27.988-.814-1.308-2.76.191-1.947,1.484,4.133,10.132-.894,21.988,2.888,32.264-8.3-4.021-17.935-6.3-26.935-2.026-1.4.67-.606,2.936.814,2.266,9.366-4.516,19.148-1.021,27.557,3.191,3.191,6.175,8.728,12.015,15.542,13.962,1.6,23.217,14.536,38.742-2.792,61.353a1.2,1.2,0,0,0,1.787,1.6c13.1-14.871,10.148-35.583,4.627-52.736,4.4-8.409,14.137-10.643,21.685-14.68,4.931-2.808,6.654-6.271,12.558-2.649a21.83,21.83,0,0,1,7.292,4.787C508.768,336.749,510.3,334.722,509.247,333.653Z" transform="translate(-410.698 -279.376)" fill="#212c82"/>
          <g id="Grupo_57804" data-name="Grupo 57804">
            <path id="Trazado_106824" data-name="Trazado 106824" d="M430.783,285.165a5.233,5.233,0,1,1,9.575,4.229C437.533,296.031,427.768,291.723,430.783,285.165Z" transform="translate(-403.353 -282.044)" fill="#e8c7aa"/>
            <path id="Trazado_106825" data-name="Trazado 106825" d="M413.827,307.239c2.824-6.638,12.59-2.33,9.574,4.228a5.233,5.233,0,1,1-9.575-4.229Z" transform="translate(-413.379 -269.014)" fill="#e8c7aa"/>
            <path id="Trazado_106826" data-name="Trazado 106826" d="M443.486,292.653a5.25,5.25,0,1,1,.3,5.481A5.25,5.25,0,0,1,443.486,292.653Z" transform="translate(-395.822 -277.82)" fill="#e8c7aa"/>
            <path id="Trazado_106827" data-name="Trazado 106827" d="M454.653,293.635a5.233,5.233,0,1,1,9.575,4.229C461.4,304.5,451.638,300.193,454.653,293.635Z" transform="translate(-389.135 -276.999)" fill="#e8c7aa"/>
            <path id="Trazado_106828" data-name="Trazado 106828" d="M458.847,301.985a5.233,5.233,0,1,1,2.673,6.9,5.233,5.233,0,0,1-2.673-6.9Z" transform="translate(-386.563 -272.025)" fill="#e8c7aa"/>
            <path id="Trazado_106829" data-name="Trazado 106829" d="M468.5,301.835a5.233,5.233,0,1,1,9.574,4.229C475.253,312.7,465.488,308.393,468.5,301.835Z" transform="translate(-380.885 -272.115)" fill="#e8c7aa"/>
            <path id="Trazado_106830" data-name="Trazado 106830" d="M472.937,316.689c2.824-6.638,12.59-2.33,9.574,4.228a5.233,5.233,0,1,1-9.575-4.229Z" transform="translate(-378.17 -263.385)" fill="#e8c7aa"/>
          </g>
        </g>
        <g id="Grupo_57806" data-name="Grupo 57806" transform="translate(40.706 97.615)">
          <path id="Trazado_106831" data-name="Trazado 106831" d="M471.323,438.352c-9.781,1.963-19.148,2.521-27.876,0-5.3-31.8-6.781-63.746,0-95.132a78.3,78.3,0,0,0,27.876,0C477.9,374.622,476.844,406.823,471.323,438.352Z" transform="translate(-438.884 -343.22)" fill="#a66d58"/>
          <path id="Trazado_106832" data-name="Trazado 106832" d="M469.965,438.2c-9.781,1.947-19.148,2.505-27.876,0q-.479-2.872-.91-5.744c21.126-8.744,27.3-44.678,28.865-88.941C476.619,375.375,475.391,406.857,469.965,438.2Z" transform="translate(-437.526 -343.047)" fill="#53372c"/>
          <path id="Trazado_106833" data-name="Trazado 106833" d="M474.181,356.757c-11.664-5.9-23.312,17.9-34.961,10.228,0-1.117.16-2.234.239-3.335,11.425,7.1,22.834-15.637,34.259-10.6C473.878,354.3,473.973,355.528,474.181,356.757Z" transform="translate(-438.693 -337.801)" fill="#fff"/>
          <path id="Trazado_106834" data-name="Trazado 106834" d="M475.315,363.547c-12.127-7.9-24.254,18.174-36.365,9.366,0-1.133,0-2.282.1-3.415,12,8.521,23.935-16.93,35.982-9.574C475.139,361.106,475.219,362.334,475.315,363.547Z" transform="translate(-438.854 -334.075)" fill="#fff"/>
          <path id="Trazado_106835" data-name="Trazado 106835" d="M475.765,370.132c-12.3-8.936-24.589,18-36.875,9.015v-3.526c12.255,9.031,24.525-17.759,36.7-9.063A24.4,24.4,0,0,1,475.765,370.132Z" transform="translate(-438.89 -330.369)" fill="#fff"/>
        </g>
      </g>
    </g>
  </g>
</svg>
