<svg xmlns="http://www.w3.org/2000/svg" width="604" height="32" viewBox="0 0 604 32">
  <g id="img23" transform="translate(-633 -758)">
    <rect id="Rectángulo_33977" data-name="Rectángulo 33977" width="604" height="32" transform="translate(633 758)" fill="#d9e1f2"/>
    <path id="Trazado_143796" data-name="Trazado 143796" d="M15.8,0H12.343L10.968-3.577H4.673L3.373,0H0L6.134-15.748H9.5ZM9.947-6.23l-2.17-5.844L5.65-6.23ZM17.5,0V-15.748h6.692a11.455,11.455,0,0,1,3.668.424,3.619,3.619,0,0,1,1.832,1.509,4.537,4.537,0,0,1,.688,2.481,4.2,4.2,0,0,1-1.042,2.927A5,5,0,0,1,26.222-6.95a7.418,7.418,0,0,1,1.7,1.321,17.948,17.948,0,0,1,1.81,2.557L31.657,0h-3.8l-2.3-3.427A22.228,22.228,0,0,0,23.88-5.742a2.44,2.44,0,0,0-.956-.655,5.241,5.241,0,0,0-1.6-.177h-.645V0Zm3.18-9.088h2.353a12.148,12.148,0,0,0,2.857-.193,1.713,1.713,0,0,0,.892-.666,2.05,2.05,0,0,0,.322-1.182,1.888,1.888,0,0,0-.424-1.284,1.947,1.947,0,0,0-1.2-.618q-.387-.054-2.32-.054H20.679ZM36.921,0V-13.084H32.248v-2.664H44.763v2.664H40.1V0Zm9.8,0V-15.748H49.9V0Zm-.365-16.65,1.482-3.212h3.384L48.265-16.65ZM63-5.79l3.083.978a6.915,6.915,0,0,1-2.358,3.83A6.726,6.726,0,0,1,59.544.269a6.774,6.774,0,0,1-5.156-2.143,8.2,8.2,0,0,1-2.02-5.86,8.609,8.609,0,0,1,2.03-6.107,6.962,6.962,0,0,1,5.339-2.175,6.55,6.55,0,0,1,4.694,1.708,6.212,6.212,0,0,1,1.611,2.9l-3.147.752A3.338,3.338,0,0,0,61.73-12.59a3.339,3.339,0,0,0-2.154-.709,3.583,3.583,0,0,0-2.841,1.257,6.161,6.161,0,0,0-1.09,4.071,6.606,6.606,0,0,0,1.074,4.254,3.488,3.488,0,0,0,2.793,1.268,3.185,3.185,0,0,0,2.181-.806A4.68,4.68,0,0,0,63-5.79Zm5.79-9.958h3.18v8.529a17.693,17.693,0,0,0,.118,2.632,2.55,2.55,0,0,0,.972,1.552,3.387,3.387,0,0,0,2.1.585A3.2,3.2,0,0,0,77.2-3a2.186,2.186,0,0,0,.827-1.359,17.716,17.716,0,0,0,.14-2.675v-8.712h3.18v8.271a21.253,21.253,0,0,1-.258,4.007,4.435,4.435,0,0,1-.951,1.977A4.8,4.8,0,0,1,78.289-.209,8.061,8.061,0,0,1,75.26.269a8.722,8.722,0,0,1-3.421-.521A4.893,4.893,0,0,1,70-1.606,4.339,4.339,0,0,1,69.1-3.352a19.126,19.126,0,0,1-.312-4ZM84.788,0V-15.619h3.18V-2.653h7.906V0ZM97.5-7.777a10.016,10.016,0,0,1,.72-4.039,7.412,7.412,0,0,1,1.466-2.159,6.131,6.131,0,0,1,2.036-1.418,8.646,8.646,0,0,1,3.395-.623,7.394,7.394,0,0,1,5.57,2.159,8.275,8.275,0,0,1,2.089,6A8.248,8.248,0,0,1,110.7-1.885,7.337,7.337,0,0,1,105.155.269a7.412,7.412,0,0,1-5.586-2.143A8.133,8.133,0,0,1,97.5-7.777Zm3.276-.107a5.9,5.9,0,0,0,1.235,4.055,4.025,4.025,0,0,0,3.137,1.38,3.99,3.99,0,0,0,3.121-1.37,6.018,6.018,0,0,0,1.219-4.109,5.922,5.922,0,0,0-1.187-4.039,4.016,4.016,0,0,0-3.153-1.332,4.043,4.043,0,0,0-3.169,1.348A5.95,5.95,0,0,0,100.772-7.885Z" transform="translate(641 782)" fill="#12263f"/>
    <path id="Trazado_143797" data-name="Trazado 143797" d="M11.677-5.79l3.083.978A6.915,6.915,0,0,1,12.4-.983,6.726,6.726,0,0,1,8.218.269,6.774,6.774,0,0,1,3.062-1.875a8.2,8.2,0,0,1-2.02-5.86,8.609,8.609,0,0,1,2.03-6.107,6.962,6.962,0,0,1,5.339-2.175,6.55,6.55,0,0,1,4.694,1.708,6.212,6.212,0,0,1,1.611,2.9l-3.147.752A3.338,3.338,0,0,0,10.4-12.59,3.339,3.339,0,0,0,8.25-13.3a3.583,3.583,0,0,0-2.841,1.257,6.161,6.161,0,0,0-1.09,4.071A6.606,6.606,0,0,0,5.393-3.717,3.488,3.488,0,0,0,8.186-2.449a3.185,3.185,0,0,0,2.181-.806A4.68,4.68,0,0,0,11.677-5.79Zm5.167-1.987a10.016,10.016,0,0,1,.72-4.039,7.412,7.412,0,0,1,1.466-2.159,6.131,6.131,0,0,1,2.036-1.418,8.646,8.646,0,0,1,3.395-.623,7.394,7.394,0,0,1,5.57,2.159,8.275,8.275,0,0,1,2.089,6,8.248,8.248,0,0,1-2.073,5.967A7.337,7.337,0,0,1,24.5.269a7.412,7.412,0,0,1-5.586-2.143A8.133,8.133,0,0,1,16.844-7.777Zm3.276-.107A5.9,5.9,0,0,0,21.355-3.83a4.025,4.025,0,0,0,3.137,1.38,3.99,3.99,0,0,0,3.121-1.37,6.018,6.018,0,0,0,1.219-4.109,5.922,5.922,0,0,0-1.187-4.039A4.016,4.016,0,0,0,24.492-13.3a4.043,4.043,0,0,0-3.169,1.348A5.95,5.95,0,0,0,20.12-7.885Zm2.406-8.766,1.482-3.212h3.384L24.438-16.65Zm12.063.9H40.4a11.348,11.348,0,0,1,3,.3A5.266,5.266,0,0,1,45.772-14a6.88,6.88,0,0,1,1.5,2.551,11.622,11.622,0,0,1,.516,3.722,10.35,10.35,0,0,1-.483,3.352A6.943,6.943,0,0,1,45.622-1.59,5.59,5.59,0,0,1,43.388-.333,9.62,9.62,0,0,1,40.573,0H34.59Zm3.18,2.664V-2.653h2.374a8.664,8.664,0,0,0,1.923-.15,2.935,2.935,0,0,0,1.284-.655,3.334,3.334,0,0,0,.833-1.52A10.273,10.273,0,0,0,44.5-7.863a9.408,9.408,0,0,0-.322-2.8,3.6,3.6,0,0,0-.9-1.525,3.026,3.026,0,0,0-1.472-.741,14.417,14.417,0,0,0-2.61-.15ZM50.392,0V-15.748h3.18V0ZM63.927-5.79V-8.443H70.78V-2.17a8.628,8.628,0,0,1-2.9,1.7,10.537,10.537,0,0,1-3.84.736A8.619,8.619,0,0,1,59.737-.768a6.591,6.591,0,0,1-2.761-2.965,9.581,9.581,0,0,1-.924-4.195A9.064,9.064,0,0,1,57.084-12.3,6.945,6.945,0,0,1,60.1-15.232a8.145,8.145,0,0,1,3.771-.784,7.523,7.523,0,0,1,4.582,1.23,5.554,5.554,0,0,1,2.122,3.4l-3.158.591a3.335,3.335,0,0,0-1.251-1.832,3.783,3.783,0,0,0-2.293-.671,4.309,4.309,0,0,0-3.314,1.321,5.566,5.566,0,0,0-1.23,3.921,6.166,6.166,0,0,0,1.246,4.206,4.161,4.161,0,0,0,3.266,1.4,5.476,5.476,0,0,0,2-.392,6.865,6.865,0,0,0,1.724-.951v-2Zm9.142-1.987a10.016,10.016,0,0,1,.72-4.039,7.412,7.412,0,0,1,1.466-2.159,6.131,6.131,0,0,1,2.036-1.418,8.646,8.646,0,0,1,3.395-.623,7.394,7.394,0,0,1,5.57,2.159,8.275,8.275,0,0,1,2.089,6,8.248,8.248,0,0,1-2.073,5.967A7.337,7.337,0,0,1,80.728.269a7.412,7.412,0,0,1-5.586-2.143A8.133,8.133,0,0,1,73.068-7.777Zm3.276-.107A5.9,5.9,0,0,0,77.58-3.83a4.025,4.025,0,0,0,3.137,1.38,3.99,3.99,0,0,0,3.121-1.37,6.018,6.018,0,0,0,1.219-4.109,5.922,5.922,0,0,0-1.187-4.039A4.016,4.016,0,0,0,80.717-13.3a4.043,4.043,0,0,0-3.169,1.348A5.95,5.95,0,0,0,76.345-7.885Z" transform="translate(1142 782)" fill="#12263f"/>
  </g>
</svg>
