<svg xmlns="http://www.w3.org/2000/svg" width="447.467" height="103" viewBox="0 0 447.467 103">
  <g id="img25" transform="translate(3057.467 10421)">
    <rect id="Rectángulo_33978" data-name="Rectángulo 33978" width="447" height="33" transform="translate(-3057 -10421)" fill="#fafafa"/>
    <rect id="Rectángulo_33980" data-name="Rectángulo 33980" width="151" height="32" transform="translate(-3057 -10420)" fill="#f3f3f3"/>
    <g id="Rectángulo_33977" data-name="Rectángulo 33977" transform="translate(-3057.467 -10388.103)" fill="#d9e1f2" stroke="#707070" stroke-width="1">
      <rect width="447.333" height="69.082" stroke="none"/>
      <rect x="0.5" y="0.5" width="446.333" height="68.082" fill="none"/>
    </g>
    <rect id="Rectángulo_33979" data-name="Rectángulo 33979" width="151" height="69" transform="translate(-3057 -10388)" fill="#a8afbc"/>
    <path id="Trazado_143811" data-name="Trazado 143811" d="M.728,0V-7.158H6.035v1.211H2.173V-4.36H5.767v1.206H2.173v1.948h4V0ZM7.412,0V-7.158H8.818l2.93,4.78v-4.78h1.343V0h-1.45L8.755-4.668V0ZM16.23,0V-5.947H14.106V-7.158h5.688v1.211H17.676V0Zm4.5,0V-7.158h3.042a5.207,5.207,0,0,1,1.667.193,1.645,1.645,0,0,1,.833.686,2.062,2.062,0,0,1,.313,1.128,1.911,1.911,0,0,1-.474,1.331,2.275,2.275,0,0,1-1.416.662,3.372,3.372,0,0,1,.774.6A8.158,8.158,0,0,1,26.294-1.4L27.168,0H25.439L24.395-1.558a10.1,10.1,0,0,0-.762-1.052,1.109,1.109,0,0,0-.435-.3,2.382,2.382,0,0,0-.728-.081h-.293V0Zm1.445-4.131h1.069a5.522,5.522,0,0,0,1.3-.088.778.778,0,0,0,.405-.3.932.932,0,0,0,.146-.537.858.858,0,0,0-.193-.583.885.885,0,0,0-.544-.281q-.176-.024-1.055-.024H22.178ZM34.4,0H32.832l-.625-1.626H29.346L28.755,0H27.222L30.01-7.158h1.528ZM31.743-2.832l-.986-2.656L29.79-2.832Zm3.423-4.326h2.642a5.158,5.158,0,0,1,1.362.137,2.394,2.394,0,0,1,1.079.659,3.127,3.127,0,0,1,.684,1.16,5.283,5.283,0,0,1,.234,1.692,4.7,4.7,0,0,1-.22,1.523,3.156,3.156,0,0,1-.767,1.265,2.541,2.541,0,0,1-1.016.571A4.373,4.373,0,0,1,37.886,0h-2.72Zm1.445,1.211v4.741H37.69a3.938,3.938,0,0,0,.874-.068,1.334,1.334,0,0,0,.583-.3,1.516,1.516,0,0,0,.378-.691,4.67,4.67,0,0,0,.146-1.311,4.276,4.276,0,0,0-.146-1.274,1.638,1.638,0,0,0-.41-.693,1.375,1.375,0,0,0-.669-.337,6.553,6.553,0,0,0-1.187-.068ZM48.848,0H47.275L46.65-1.626H43.789L43.2,0H41.665l2.788-7.158h1.528ZM46.187-2.832,45.2-5.488l-.967,2.656Z" transform="translate(-3043.877 -10349.658)" fill="#12263f"/>
    <path id="Trazado_143810" data-name="Trazado 143810" d="M6.9-4.474v-2.05h5.3v4.848A6.667,6.667,0,0,1,9.957-.361,8.142,8.142,0,0,1,6.989.208a6.661,6.661,0,0,1-3.329-.8A5.093,5.093,0,0,1,1.527-2.885,7.4,7.4,0,0,1,.813-6.126,7,7,0,0,1,1.61-9.5a5.367,5.367,0,0,1,2.333-2.266,6.294,6.294,0,0,1,2.914-.606,5.813,5.813,0,0,1,3.54.95A4.292,4.292,0,0,1,12.036-8.8L9.6-8.342a2.577,2.577,0,0,0-.967-1.415,2.923,2.923,0,0,0-1.772-.519A3.33,3.33,0,0,0,4.3-9.255a4.3,4.3,0,0,0-.95,3.03,4.765,4.765,0,0,0,.963,3.25A3.215,3.215,0,0,0,6.832-1.893,4.231,4.231,0,0,0,8.38-2.2,5.305,5.305,0,0,0,9.712-2.93V-4.474Z" transform="translate(-3025 -10399)" fill="#217345"/>
    <path id="Trazado_143815" data-name="Trazado 143815" d="M1.585,0V-12.169H3.2V0Z" transform="translate(-2863 -10399)" fill="#767676"/>
    <path id="Trazado_143813" data-name="Trazado 143813" d="M1.245,0V-12.169H3.7v4.79H8.517v-4.79h2.457V0H8.517V-5.321H3.7V0Z" transform="translate(-2948 -10399)" fill="#217345"/>
    <path id="Trazado_143817" data-name="Trazado 143817" d="M.49-3.453l1.453-.2a3.11,3.11,0,0,0,.523,1.909,1.646,1.646,0,0,0,1.287.515A1.916,1.916,0,0,0,4.8-1.507,1.428,1.428,0,0,0,5.4-2.262,5.044,5.044,0,0,0,5.57-3.785v-8.384H7.18v8.292a6.041,6.041,0,0,1-.369,2.366A2.63,2.63,0,0,1,5.64-.232a3.845,3.845,0,0,1-1.88.44A3.173,3.173,0,0,1,1.307-.714,3.8,3.8,0,0,1,.49-3.453Z" transform="translate(-2787 -10399)" fill="#767676"/>
    <path id="Trazado_143818" data-name="Trazado 143818" d="M1.245,0V-12.169h1.61v6.035L8.9-12.169h2.183l-5.1,4.931L11.306,0H9.181L4.848-6.159,2.855-4.217V0Z" transform="translate(-2714 -10399)" fill="#767676"/>
    <path id="Trazado_143820" data-name="Trazado 143820" d="M1.245,0V-12.169h1.61V-1.436H8.849V0Z" transform="translate(-2647 -10399)" fill="#767676"/>
    <path id="Trazado_143812" data-name="Trazado 143812" d="M.361-2.329l1.406-.137a1.716,1.716,0,0,0,.515,1.04,1.558,1.558,0,0,0,1.047.332,1.61,1.61,0,0,0,1.052-.3.879.879,0,0,0,.354-.691.652.652,0,0,0-.149-.432,1.19,1.19,0,0,0-.52-.31Q3.813-2.91,2.91-3.135a3.926,3.926,0,0,1-1.631-.708A1.863,1.863,0,0,1,.62-5.283,1.84,1.84,0,0,1,.93-6.306a1.941,1.941,0,0,1,.894-.725A3.581,3.581,0,0,1,3.232-7.28a3.022,3.022,0,0,1,2.029.591,2.085,2.085,0,0,1,.715,1.577l-1.445.063a1.227,1.227,0,0,0-.4-.793,1.457,1.457,0,0,0-.916-.242,1.651,1.651,0,0,0-.986.259A.521.521,0,0,0,2-5.381a.55.55,0,0,0,.215.435,3.8,3.8,0,0,0,1.328.479,7.009,7.009,0,0,1,1.56.515,2.011,2.011,0,0,1,.791.728,2.128,2.128,0,0,1,.286,1.14A2.108,2.108,0,0,1,5.84-.933a2.048,2.048,0,0,1-.967.8A4.054,4.054,0,0,1,3.315.127,3.1,3.1,0,0,1,1.23-.5,2.729,2.729,0,0,1,.361-2.329ZM13.853,0H12.28l-.625-1.626H8.794L8.2,0H6.67L9.458-7.158h1.528ZM11.191-2.832l-.986-2.656L9.238-2.832ZM14.658,0V-7.1H16.1v5.894H19.7V0Zm6.025,0V-7.158h1.445V0ZM23.5-7.158h2.642a5.158,5.158,0,0,1,1.362.137,2.394,2.394,0,0,1,1.079.659,3.127,3.127,0,0,1,.684,1.16A5.283,5.283,0,0,1,29.5-3.511a4.7,4.7,0,0,1-.22,1.523,3.156,3.156,0,0,1-.767,1.265A2.541,2.541,0,0,1,27.5-.151,4.373,4.373,0,0,1,26.221,0H23.5Zm1.445,1.211v4.741h1.079a3.938,3.938,0,0,0,.874-.068,1.334,1.334,0,0,0,.583-.3,1.516,1.516,0,0,0,.378-.691,4.67,4.67,0,0,0,.146-1.311,4.276,4.276,0,0,0-.146-1.274,1.638,1.638,0,0,0-.41-.693,1.375,1.375,0,0,0-.669-.337A6.553,6.553,0,0,0,25.6-5.947ZM37.183,0H35.61l-.625-1.626H32.124L31.533,0H30l2.788-7.158h1.528ZM34.521-2.832l-.986-2.656-.967,2.656Zm3.062.5,1.406-.137a1.716,1.716,0,0,0,.515,1.04,1.558,1.558,0,0,0,1.047.332,1.61,1.61,0,0,0,1.052-.3.879.879,0,0,0,.354-.691.652.652,0,0,0-.149-.432,1.19,1.19,0,0,0-.52-.31q-.254-.088-1.157-.312A3.926,3.926,0,0,1,38.5-3.843a1.863,1.863,0,0,1-.659-1.44,1.84,1.84,0,0,1,.31-1.023,1.941,1.941,0,0,1,.894-.725,3.581,3.581,0,0,1,1.409-.249,3.022,3.022,0,0,1,2.029.591A2.085,2.085,0,0,1,43.2-5.112l-1.445.063a1.227,1.227,0,0,0-.4-.793,1.457,1.457,0,0,0-.916-.242,1.651,1.651,0,0,0-.986.259.521.521,0,0,0-.229.444.55.55,0,0,0,.215.435,3.8,3.8,0,0,0,1.328.479,7.009,7.009,0,0,1,1.56.515,2.011,2.011,0,0,1,.791.728,2.128,2.128,0,0,1,.286,1.14,2.108,2.108,0,0,1-.342,1.152,2.048,2.048,0,0,1-.967.8,4.054,4.054,0,0,1-1.558.261A3.1,3.1,0,0,1,38.452-.5,2.729,2.729,0,0,1,37.583-2.329Z" transform="translate(-2964.603 -10349.658)" fill="#12263f"/>
    <path id="Trazado_143814" data-name="Trazado 143814" d="M5.308-2.632l1.4.444A3.143,3.143,0,0,1,5.637-.447a3.057,3.057,0,0,1-1.9.569A3.079,3.079,0,0,1,1.392-.852,3.727,3.727,0,0,1,.474-3.516,3.913,3.913,0,0,1,1.4-6.292,3.164,3.164,0,0,1,3.823-7.28,2.977,2.977,0,0,1,5.957-6.5a2.823,2.823,0,0,1,.732,1.318l-1.431.342a1.517,1.517,0,0,0-.53-.879,1.518,1.518,0,0,0-.979-.322,1.629,1.629,0,0,0-1.292.571,2.8,2.8,0,0,0-.5,1.851,3,3,0,0,0,.488,1.934,1.586,1.586,0,0,0,1.27.576,1.448,1.448,0,0,0,.991-.366A2.127,2.127,0,0,0,5.308-2.632Zm2.349-.9a4.553,4.553,0,0,1,.327-1.836,3.369,3.369,0,0,1,.667-.981A2.787,2.787,0,0,1,9.575-7a3.93,3.93,0,0,1,1.543-.283A3.361,3.361,0,0,1,13.65-6.3a3.761,3.761,0,0,1,.95,2.729,3.749,3.749,0,0,1-.942,2.712,3.335,3.335,0,0,1-2.52.979A3.369,3.369,0,0,1,8.6-.852,3.7,3.7,0,0,1,7.656-3.535Zm1.489-.049a2.682,2.682,0,0,0,.562,1.843,1.83,1.83,0,0,0,1.426.627,1.814,1.814,0,0,0,1.418-.623A2.736,2.736,0,0,0,13.105-3.6a2.692,2.692,0,0,0-.54-1.836,1.826,1.826,0,0,0-1.433-.605,1.838,1.838,0,0,0-1.44.613A2.7,2.7,0,0,0,9.146-3.584Zm6.216,1.255,1.406-.137a1.716,1.716,0,0,0,.515,1.04,1.558,1.558,0,0,0,1.047.332,1.61,1.61,0,0,0,1.052-.3.879.879,0,0,0,.354-.691.652.652,0,0,0-.149-.432,1.19,1.19,0,0,0-.52-.31q-.254-.088-1.157-.312a3.926,3.926,0,0,1-1.631-.708,1.863,1.863,0,0,1-.659-1.44,1.84,1.84,0,0,1,.31-1.023,1.941,1.941,0,0,1,.894-.725,3.581,3.581,0,0,1,1.409-.249,3.022,3.022,0,0,1,2.029.591,2.085,2.085,0,0,1,.715,1.577l-1.445.063a1.227,1.227,0,0,0-.4-.793,1.457,1.457,0,0,0-.916-.242,1.651,1.651,0,0,0-.986.259A.521.521,0,0,0,17-5.381a.55.55,0,0,0,.215.435,3.8,3.8,0,0,0,1.328.479,7.009,7.009,0,0,1,1.56.515,2.011,2.011,0,0,1,.791.728,2.128,2.128,0,0,1,.286,1.14A2.108,2.108,0,0,1,20.84-.933a2.048,2.048,0,0,1-.967.8,4.054,4.054,0,0,1-1.558.261A3.1,3.1,0,0,1,16.23-.5,2.729,2.729,0,0,1,15.361-2.329ZM24.009,0V-5.947H21.885V-7.158h5.688v1.211H25.454V0Zm4.023-3.535a4.553,4.553,0,0,1,.327-1.836,3.369,3.369,0,0,1,.667-.981A2.787,2.787,0,0,1,29.951-7a3.93,3.93,0,0,1,1.543-.283,3.361,3.361,0,0,1,2.532.981,3.761,3.761,0,0,1,.95,2.729,3.749,3.749,0,0,1-.942,2.712,3.335,3.335,0,0,1-2.52.979,3.369,3.369,0,0,1-2.539-.974A3.7,3.7,0,0,1,28.032-3.535Zm1.489-.049a2.682,2.682,0,0,0,.562,1.843,1.83,1.83,0,0,0,1.426.627,1.814,1.814,0,0,0,1.418-.623A2.736,2.736,0,0,0,33.481-3.6a2.692,2.692,0,0,0-.54-1.836,1.826,1.826,0,0,0-1.433-.605,1.838,1.838,0,0,0-1.44.613A2.7,2.7,0,0,0,29.521-3.584Zm9.351-3.574h1.445v3.877a8.042,8.042,0,0,0,.054,1.2,1.159,1.159,0,0,0,.442.706,1.539,1.539,0,0,0,.955.266,1.457,1.457,0,0,0,.928-.251.993.993,0,0,0,.376-.618A8.053,8.053,0,0,0,43.135-3.2v-3.96H44.58V-3.4a9.661,9.661,0,0,1-.117,1.821,2.016,2.016,0,0,1-.432.9,2.183,2.183,0,0,1-.842.583,3.664,3.664,0,0,1-1.377.217,3.964,3.964,0,0,1-1.555-.237,2.224,2.224,0,0,1-.837-.615,1.972,1.972,0,0,1-.405-.793,8.693,8.693,0,0,1-.142-1.816ZM46.118,0V-7.158h1.406l2.93,4.78v-4.78H51.8V0h-1.45L47.461-4.668V0Zm7.163,0V-7.158h1.445V0Zm4.434,0V-5.947H55.591V-7.158h5.688v1.211H59.16V0Z" transform="translate(-2889.425 -10349.658)" fill="#12263f"/>
    <path id="Trazado_143816" data-name="Trazado 143816" d="M-15.964,0l-2.559-7.158h1.567l1.812,5.3,1.753-5.3h1.533L-14.421,0ZM-5.408,0H-6.98L-7.6-1.626h-2.861L-11.057,0H-12.59L-9.8-7.158h1.528ZM-8.069-2.832l-.986-2.656-.967,2.656ZM-4.6,0V-7.1h1.445v5.894H.437V0ZM1.174-3.535A4.553,4.553,0,0,1,1.5-5.371a3.369,3.369,0,0,1,.667-.981A2.787,2.787,0,0,1,3.093-7,3.93,3.93,0,0,1,4.636-7.28,3.361,3.361,0,0,1,7.168-6.3a3.761,3.761,0,0,1,.95,2.729A3.749,3.749,0,0,1,7.175-.857a3.335,3.335,0,0,1-2.52.979A3.369,3.369,0,0,1,2.117-.852,3.7,3.7,0,0,1,1.174-3.535Zm1.489-.049a2.682,2.682,0,0,0,.562,1.843,1.83,1.83,0,0,0,1.426.627,1.814,1.814,0,0,0,1.418-.623A2.736,2.736,0,0,0,6.624-3.6a2.692,2.692,0,0,0-.54-1.836,1.826,1.826,0,0,0-1.433-.605,1.838,1.838,0,0,0-1.44.613A2.7,2.7,0,0,0,2.664-3.584ZM9.25,0V-7.158h3.042a5.207,5.207,0,0,1,1.667.193,1.645,1.645,0,0,1,.833.686A2.062,2.062,0,0,1,15.1-5.151a1.911,1.911,0,0,1-.474,1.331,2.275,2.275,0,0,1-1.416.662,3.372,3.372,0,0,1,.774.6A8.158,8.158,0,0,1,14.812-1.4L15.686,0H13.958L12.913-1.558a10.1,10.1,0,0,0-.762-1.052,1.109,1.109,0,0,0-.435-.3,2.382,2.382,0,0,0-.728-.081H10.7V0ZM10.7-4.131h1.069a5.522,5.522,0,0,0,1.3-.088.778.778,0,0,0,.405-.3.932.932,0,0,0,.146-.537.858.858,0,0,0-.193-.583.885.885,0,0,0-.544-.281q-.176-.024-1.055-.024H10.7ZM-13.862,12V6.053h-2.124V4.842H-10.3V6.053h-2.119V12Zm4.023-3.535a4.553,4.553,0,0,1,.327-1.836,3.369,3.369,0,0,1,.667-.981A2.787,2.787,0,0,1-7.92,5,3.93,3.93,0,0,1-6.377,4.72,3.361,3.361,0,0,1-3.845,5.7,3.761,3.761,0,0,1-2.9,8.431a3.749,3.749,0,0,1-.942,2.712,3.335,3.335,0,0,1-2.52.979A3.369,3.369,0,0,1-8.9,11.148,3.7,3.7,0,0,1-9.839,8.465Zm1.489-.049a2.682,2.682,0,0,0,.562,1.843,1.83,1.83,0,0,0,1.426.627,1.814,1.814,0,0,0,1.418-.623A2.736,2.736,0,0,0-4.39,8.4a2.692,2.692,0,0,0-.54-1.836,1.826,1.826,0,0,0-1.433-.605,1.838,1.838,0,0,0-1.44.613A2.7,2.7,0,0,0-8.35,8.416ZM-.156,12V6.053H-2.28V4.842H3.408V6.053H1.289V12Zm10.21,0H8.481l-.625-1.626H5L4.4,12H2.871L5.659,4.842H7.188ZM7.393,9.168,6.406,6.512,5.439,9.168ZM10.859,12V4.9H12.3v5.894H15.9V12Zm-27.773,9.368,1.4.444a3.143,3.143,0,0,1-1.072,1.741,3.057,3.057,0,0,1-1.9.569,3.079,3.079,0,0,1-2.344-.974,3.727,3.727,0,0,1-.918-2.664,3.913,3.913,0,0,1,.923-2.776A3.164,3.164,0,0,1-18.4,16.72a2.977,2.977,0,0,1,2.134.776,2.823,2.823,0,0,1,.732,1.318l-1.431.342a1.517,1.517,0,0,0-.53-.879,1.518,1.518,0,0,0-.979-.322,1.629,1.629,0,0,0-1.292.571,2.8,2.8,0,0,0-.5,1.851,3,3,0,0,0,.488,1.934,1.586,1.586,0,0,0,1.27.576,1.448,1.448,0,0,0,.991-.366A2.127,2.127,0,0,0-16.914,21.368Zm2.349-.9a4.553,4.553,0,0,1,.327-1.836,3.369,3.369,0,0,1,.667-.981A2.787,2.787,0,0,1-12.646,17,3.93,3.93,0,0,1-11.1,16.72a3.361,3.361,0,0,1,2.532.981,3.761,3.761,0,0,1,.95,2.729,3.749,3.749,0,0,1-.942,2.712,3.335,3.335,0,0,1-2.52.979,3.369,3.369,0,0,1-2.539-.974A3.7,3.7,0,0,1-14.565,20.465Zm1.489-.049a2.682,2.682,0,0,0,.562,1.843,1.83,1.83,0,0,0,1.426.627,1.814,1.814,0,0,0,1.418-.623A2.736,2.736,0,0,0-9.116,20.4a2.692,2.692,0,0,0-.54-1.836,1.826,1.826,0,0,0-1.433-.605,1.838,1.838,0,0,0-1.44.613A2.7,2.7,0,0,0-13.076,20.416ZM-6.514,24V16.842h2.163l1.3,4.883,1.284-4.883H.4V24H-.942V18.365L-2.363,24H-3.755l-1.416-5.635V24Zm8.35,0V16.842H4.155a8.41,8.41,0,0,1,1.719.107,1.877,1.877,0,0,1,1.03.7,2.222,2.222,0,0,1,.415,1.394,2.335,2.335,0,0,1-.239,1.108,1.963,1.963,0,0,1-.608.706,2.1,2.1,0,0,1-.75.339,8.25,8.25,0,0,1-1.5.1H3.281V24Zm1.445-5.947v2.031h.791a3.737,3.737,0,0,0,1.143-.112.949.949,0,0,0,.452-.352.962.962,0,0,0,.164-.557.925.925,0,0,0-.229-.645A1,1,0,0,0,5.02,18.1a6.947,6.947,0,0,0-1.04-.049ZM8.511,24V16.842h3.042a5.207,5.207,0,0,1,1.667.193,1.645,1.645,0,0,1,.833.686,2.062,2.062,0,0,1,.313,1.128,1.911,1.911,0,0,1-.474,1.331,2.275,2.275,0,0,1-1.416.662,3.372,3.372,0,0,1,.774.6,8.158,8.158,0,0,1,.823,1.162l.874,1.4H13.218l-1.045-1.558a10.1,10.1,0,0,0-.762-1.052,1.109,1.109,0,0,0-.435-.3,2.382,2.382,0,0,0-.728-.081H9.956V24Zm1.445-4.131h1.069a5.522,5.522,0,0,0,1.3-.088.778.778,0,0,0,.405-.3.932.932,0,0,0,.146-.537.858.858,0,0,0-.193-.583.885.885,0,0,0-.544-.281q-.176-.024-1.055-.024H9.956ZM22.183,24H20.61l-.625-1.626H17.124L16.533,24H15l2.788-7.158h1.528Zm-2.661-2.832-.986-2.656-.967,2.656Z" transform="translate(-2781.79 -10363.248)" fill="#12263f"/>
    <path id="Trazado_143821" data-name="Trazado 143821" d="M-12.476,0V-5.353h-1.912v-1.09h5.12v1.09h-1.907V0Zm3.621-3.182a4.1,4.1,0,0,1,.294-1.652,3.032,3.032,0,0,1,.6-.883,2.508,2.508,0,0,1,.833-.58,3.537,3.537,0,0,1,1.389-.255,3.025,3.025,0,0,1,2.279.883,3.385,3.385,0,0,1,.855,2.457A3.374,3.374,0,0,1-3.454-.771,3,3,0,0,1-5.722.11,3.032,3.032,0,0,1-8.007-.767,3.327,3.327,0,0,1-8.855-3.182Zm1.34-.044a2.414,2.414,0,0,0,.505,1.659A1.647,1.647,0,0,0-5.726-1a1.632,1.632,0,0,0,1.277-.56,2.462,2.462,0,0,0,.5-1.681A2.422,2.422,0,0,0-4.436-4.9a1.643,1.643,0,0,0-1.29-.545,1.654,1.654,0,0,0-1.3.552A2.434,2.434,0,0,0-7.515-3.226ZM-.141,0V-5.353H-2.052v-1.09h5.12v1.09H1.16V0ZM9.048,0H7.633L7.071-1.463H4.5L3.964,0H2.584L5.093-6.442H6.469Zm-2.4-2.549L5.766-4.939,4.9-2.549ZM9.773,0V-6.39h1.3v5.3h3.234V0ZM-13.933,4.558h2.377a4.643,4.643,0,0,1,1.226.123,2.154,2.154,0,0,1,.971.593,2.815,2.815,0,0,1,.615,1.044A4.754,4.754,0,0,1-8.532,7.84a4.234,4.234,0,0,1-.2,1.371,2.84,2.84,0,0,1-.69,1.138,2.287,2.287,0,0,1-.914.514A3.935,3.935,0,0,1-11.485,11h-2.448Zm1.3,1.09V9.915h.971a3.544,3.544,0,0,0,.787-.062,1.2,1.2,0,0,0,.525-.268,1.364,1.364,0,0,0,.341-.622,4.2,4.2,0,0,0,.132-1.18,3.849,3.849,0,0,0-.132-1.147,1.474,1.474,0,0,0-.369-.624,1.238,1.238,0,0,0-.6-.3,5.9,5.9,0,0,0-1.068-.062ZM-7.429,11V4.558h4.777v1.09H-6.128V7.076h3.234V8.161H-6.128V9.915h3.6V11ZM1.11,11V4.61h1.3v5.3H5.645V11Zm11.272,0H10.967L10.4,9.537H7.829L7.3,11H5.917L8.427,4.558H9.8Zm-2.4-2.549L9.1,6.061l-.87,2.391ZM-12.619,22l-2.3-6.442h1.411l1.63,4.768,1.578-4.768h1.38L-11.23,22Zm4.359,0V15.558h4.777v1.09H-6.959v1.428h3.234v1.085H-6.959v1.753h3.6V22Zm6.016,0V15.558H-.978l2.637,4.3v-4.3H2.867V22H1.562l-2.6-4.2V22Zm7.937,0V16.647H3.781v-1.09H8.9v1.09H6.994V22Zm9.189,0H13.467L12.9,20.537H10.329L9.8,22H8.418l2.509-6.442H12.3Zm-2.4-2.549L11.6,17.061l-.87,2.391Z" transform="translate(-2642.698 -10364.248)" fill="#12263f"/>
    <path id="Trazado_143819" data-name="Trazado 143819" d="M-16.6,0V-6.442h2.087a7.569,7.569,0,0,1,1.547.1,1.689,1.689,0,0,1,.927.631,2,2,0,0,1,.374,1.255,2.1,2.1,0,0,1-.215,1,1.766,1.766,0,0,1-.547.635,1.885,1.885,0,0,1-.675.305,7.425,7.425,0,0,1-1.349.092H-15.3V0Zm1.3-5.353v1.828h.712a3.364,3.364,0,0,0,1.028-.1.854.854,0,0,0,.406-.316.866.866,0,0,0,.147-.5.832.832,0,0,0-.207-.58.9.9,0,0,0-.523-.286,6.252,6.252,0,0,0-.936-.044ZM-10.591,0V-6.442h2.738a4.686,4.686,0,0,1,1.5.174,1.48,1.48,0,0,1,.749.617,1.856,1.856,0,0,1,.281,1.015,1.72,1.72,0,0,1-.426,1.2,2.047,2.047,0,0,1-1.274.6,3.035,3.035,0,0,1,.7.541,7.342,7.342,0,0,1,.74,1.046L-4.8,0H-6.354l-.94-1.4a9.094,9.094,0,0,0-.686-.947,1,1,0,0,0-.391-.268,2.144,2.144,0,0,0-.655-.073H-9.29V0Zm1.3-3.718h.962A4.97,4.97,0,0,0-7.159-3.8a.7.7,0,0,0,.365-.272.839.839,0,0,0,.132-.483.772.772,0,0,0-.174-.525.8.8,0,0,0-.49-.253q-.158-.022-.949-.022H-9.29ZM-4.1,0V-6.442H.681v1.09H-2.795v1.428H.439v1.085H-2.795v1.753H.8V0ZM6.029-2.369l1.261.4A2.829,2.829,0,0,1,6.326-.4,2.751,2.751,0,0,1,4.614.11,2.771,2.771,0,0,1,2.5-.767a3.355,3.355,0,0,1-.826-2.4,3.522,3.522,0,0,1,.831-2.5,2.848,2.848,0,0,1,2.184-.89,2.68,2.68,0,0,1,1.92.7,2.541,2.541,0,0,1,.659,1.187l-1.288.308a1.366,1.366,0,0,0-.477-.791,1.366,1.366,0,0,0-.881-.29,1.466,1.466,0,0,0-1.162.514,2.52,2.52,0,0,0-.446,1.666,2.7,2.7,0,0,0,.439,1.74A1.427,1.427,0,0,0,4.6-1a1.3,1.3,0,0,0,.892-.33A1.914,1.914,0,0,0,6.029-2.369ZM8.367,0V-6.442h1.3V0Zm2.276-3.182a4.1,4.1,0,0,1,.294-1.652,3.032,3.032,0,0,1,.6-.883,2.508,2.508,0,0,1,.833-.58,3.537,3.537,0,0,1,1.389-.255,3.025,3.025,0,0,1,2.279.883,3.385,3.385,0,0,1,.855,2.457,3.374,3.374,0,0,1-.848,2.441A3,3,0,0,1,13.777.11a3.032,3.032,0,0,1-2.285-.877A3.327,3.327,0,0,1,10.644-3.182Zm1.34-.044a2.414,2.414,0,0,0,.505,1.659A1.647,1.647,0,0,0,13.772-1a1.632,1.632,0,0,0,1.277-.56,2.462,2.462,0,0,0,.5-1.681A2.422,2.422,0,0,0,15.062-4.9a1.643,1.643,0,0,0-1.29-.545,1.654,1.654,0,0,0-1.3.552A2.434,2.434,0,0,0,11.984-3.226ZM-20.769,3.558h1.3V7.047a7.238,7.238,0,0,0,.048,1.077,1.043,1.043,0,0,0,.4.635,1.386,1.386,0,0,0,.859.24,1.311,1.311,0,0,0,.835-.226.894.894,0,0,0,.338-.556,7.248,7.248,0,0,0,.057-1.094V3.558h1.3V6.941a8.7,8.7,0,0,1-.105,1.639,1.814,1.814,0,0,1-.389.809,1.965,1.965,0,0,1-.758.525,3.3,3.3,0,0,1-1.239.2,3.568,3.568,0,0,1-1.4-.213,2,2,0,0,1-.754-.554,1.775,1.775,0,0,1-.365-.714,7.824,7.824,0,0,1-.127-1.635ZM-14.247,10V3.558h1.266l2.637,4.3v-4.3h1.208V10h-1.305l-2.6-4.2V10ZM-7.8,10V3.558h1.3V10Zm3.99,0V4.647H-5.722V3.558H-.6v1.09H-2.509V10Zm9.189,0H3.964L3.4,8.537H.826L.294,10h-1.38L1.424,3.558H2.8Zm-2.4-2.549L2.1,5.061l-.87,2.391ZM6.073,10V3.558H8.811a4.686,4.686,0,0,1,1.5.174,1.48,1.48,0,0,1,.749.617,1.856,1.856,0,0,1,.281,1.015,1.72,1.72,0,0,1-.426,1.2,2.047,2.047,0,0,1-1.274.6,3.035,3.035,0,0,1,.7.541,7.342,7.342,0,0,1,.74,1.046L11.865,10H10.31l-.94-1.4a9.093,9.093,0,0,0-.686-.947,1,1,0,0,0-.391-.268,2.144,2.144,0,0,0-.655-.073H7.374V10Zm1.3-3.718h.962A4.97,4.97,0,0,0,9.505,6.2a.7.7,0,0,0,.365-.272A.839.839,0,0,0,10,5.447a.772.772,0,0,0-.174-.525.8.8,0,0,0-.49-.253q-.158-.022-.949-.022H7.374ZM12.529,10V3.558h1.3V10Zm2.276-3.182A4.1,4.1,0,0,1,15.1,5.166a3.032,3.032,0,0,1,.6-.883,2.508,2.508,0,0,1,.833-.58,3.537,3.537,0,0,1,1.389-.255,3.025,3.025,0,0,1,2.279.883,3.385,3.385,0,0,1,.855,2.457,3.374,3.374,0,0,1-.848,2.441,3,3,0,0,1-2.268.881,3.032,3.032,0,0,1-2.285-.877A3.327,3.327,0,0,1,14.805,6.818Zm1.34-.044a2.414,2.414,0,0,0,.505,1.659,1.737,1.737,0,0,0,2.56,0,2.462,2.462,0,0,0,.5-1.681A2.422,2.422,0,0,0,19.224,5.1a1.8,1.8,0,0,0-2.586.007A2.434,2.434,0,0,0,16.146,6.774Z" transform="translate(-2713.708 -10358.585)" fill="#12263f"/>
    <line id="Línea_494" data-name="Línea 494" y2="69.567" transform="translate(-2976.065 -10387.567)" fill="none" stroke="#707070" stroke-width="1"/>
    <line id="Línea_495" data-name="Línea 495" y2="69.567" transform="translate(-2906.498 -10387.567)" fill="none" stroke="#707070" stroke-width="1"/>
    <line id="Línea_496" data-name="Línea 496" y2="69.567" transform="translate(-2816.596 -10387.567)" fill="none" stroke="#707070" stroke-width="1"/>
    <line id="Línea_497" data-name="Línea 497" y2="69.567" transform="translate(-2744.889 -10387.567)" fill="none" stroke="#707070" stroke-width="1"/>
    <line id="Línea_498" data-name="Línea 498" y2="69.567" transform="translate(-2671.041 -10387.567)" fill="none" stroke="#707070" stroke-width="1"/>
    <line id="Línea_499" data-name="Línea 499" y2="29.445" transform="translate(-2975.965 -10419.301)" fill="none" stroke="#c9c4c4" stroke-width="1"/>
    <line id="Línea_500" data-name="Línea 500" y2="29.445" transform="translate(-2906.884 -10419.301)" fill="none" stroke="#c9c4c4" stroke-width="1"/>
    <line id="Línea_501" data-name="Línea 501" y2="29.445" transform="translate(-2816.596 -10419.301)" fill="none" stroke="#c9c4c4" stroke-width="1"/>
    <line id="Línea_502" data-name="Línea 502" y2="29.445" transform="translate(-2744.889 -10419.301)" fill="none" stroke="#c9c4c4" stroke-width="1"/>
    <line id="Línea_503" data-name="Línea 503" y2="29.445" transform="translate(-2670.242 -10419.301)" fill="none" stroke="#c9c4c4" stroke-width="1"/>
    <g id="Rectángulo_33981" data-name="Rectángulo 33981" transform="translate(-3057 -10389)" fill="none" stroke="#217345" stroke-width="2">
      <rect width="151" height="70" stroke="none"/>
      <rect x="1" y="1" width="149" height="68" fill="none"/>
    </g>
  </g>
</svg>
