<svg xmlns="http://www.w3.org/2000/svg" width="561.084" height="49.107" viewBox="0 0 561.084 49.107">
  <g id="img27" transform="translate(3061.467 10180.607)">
    <g id="Rectángulo_33977" data-name="Rectángulo 33977" transform="translate(-3061.467 -10180.607)" fill="#d9e1f2" stroke="#707070" stroke-width="1">
      <rect width="561.084" height="49.009" stroke="none"/>
      <rect x="0.5" y="0.5" width="560.084" height="48.009" fill="none"/>
    </g>
    <path id="Trazado_143817" data-name="Trazado 143817" d="M6.464,0H5.049L4.487-1.463H1.912L1.38,0H0L2.509-6.442H3.885Zm-2.4-2.549L3.182-4.939l-.87,2.391ZM7.159,0V-6.442H9.9a4.686,4.686,0,0,1,1.5.174,1.48,1.48,0,0,1,.749.617,1.856,1.856,0,0,1,.281,1.015A1.72,1.72,0,0,1,12-3.439a2.047,2.047,0,0,1-1.274.6,3.035,3.035,0,0,1,.7.541,7.342,7.342,0,0,1,.74,1.046L12.951,0H11.4l-.94-1.4a9.093,9.093,0,0,0-.686-.947,1,1,0,0,0-.391-.268,2.144,2.144,0,0,0-.655-.073H8.459V0Zm1.3-3.718h.962A4.97,4.97,0,0,0,10.591-3.8a.7.7,0,0,0,.365-.272.839.839,0,0,0,.132-.483.772.772,0,0,0-.174-.525.8.8,0,0,0-.49-.253q-.158-.022-.949-.022H8.459ZM15.1,0V-5.353H13.192v-1.09h5.12v1.09H16.4V0Zm4.008,0V-6.442h1.3V0Zm-.149-6.812.606-1.314h1.384L19.745-6.812Zm6.812,4.443,1.261.4A2.829,2.829,0,0,1,26.071-.4,2.751,2.751,0,0,1,24.359.11,2.771,2.771,0,0,1,22.25-.767a3.355,3.355,0,0,1-.826-2.4,3.522,3.522,0,0,1,.831-2.5,2.848,2.848,0,0,1,2.184-.89,2.68,2.68,0,0,1,1.92.7,2.541,2.541,0,0,1,.659,1.187l-1.288.308a1.366,1.366,0,0,0-.477-.791,1.366,1.366,0,0,0-.881-.29,1.466,1.466,0,0,0-1.162.514,2.52,2.52,0,0,0-.446,1.666,2.7,2.7,0,0,0,.439,1.74A1.427,1.427,0,0,0,24.346-1a1.3,1.3,0,0,0,.892-.33A1.914,1.914,0,0,0,25.774-2.369Zm2.369-4.074h1.3v3.489a7.238,7.238,0,0,0,.048,1.077,1.043,1.043,0,0,0,.4.635,1.386,1.386,0,0,0,.859.24,1.311,1.311,0,0,0,.835-.226.894.894,0,0,0,.338-.556,7.248,7.248,0,0,0,.057-1.094V-6.442h1.3v3.384a8.7,8.7,0,0,1-.105,1.639,1.814,1.814,0,0,1-.389.809,1.965,1.965,0,0,1-.758.525,3.3,3.3,0,0,1-1.239.2,3.568,3.568,0,0,1-1.4-.213,2,2,0,0,1-.754-.554,1.775,1.775,0,0,1-.365-.714,7.824,7.824,0,0,1-.127-1.635ZM34.686,0V-6.39h1.3v5.3h3.234V0Zm5.2-3.182a4.1,4.1,0,0,1,.294-1.652,3.032,3.032,0,0,1,.6-.883,2.508,2.508,0,0,1,.833-.58A3.537,3.537,0,0,1,43-6.552a3.025,3.025,0,0,1,2.279.883,3.385,3.385,0,0,1,.855,2.457,3.374,3.374,0,0,1-.848,2.441A3,3,0,0,1,43.018.11a3.032,3.032,0,0,1-2.285-.877A3.327,3.327,0,0,1,39.885-3.182Zm1.34-.044a2.414,2.414,0,0,0,.505,1.659A1.647,1.647,0,0,0,43.014-1a1.632,1.632,0,0,0,1.277-.56,2.462,2.462,0,0,0,.5-1.681A2.422,2.422,0,0,0,44.3-4.9a1.643,1.643,0,0,0-1.29-.545,1.654,1.654,0,0,0-1.3.552A2.434,2.434,0,0,0,41.225-3.226Z" transform="translate(-2988.884 -10154)" fill="#12263f"/>
    <path id="Trazado_143816" data-name="Trazado 143816" d="M4.777-2.369l1.261.4A2.829,2.829,0,0,1,5.073-.4,2.751,2.751,0,0,1,3.362.11,2.771,2.771,0,0,1,1.252-.767a3.355,3.355,0,0,1-.826-2.4,3.522,3.522,0,0,1,.831-2.5,2.848,2.848,0,0,1,2.184-.89,2.68,2.68,0,0,1,1.92.7,2.541,2.541,0,0,1,.659,1.187l-1.288.308a1.366,1.366,0,0,0-.477-.791,1.366,1.366,0,0,0-.881-.29,1.466,1.466,0,0,0-1.162.514,2.52,2.52,0,0,0-.446,1.666,2.7,2.7,0,0,0,.439,1.74A1.427,1.427,0,0,0,3.349-1a1.3,1.3,0,0,0,.892-.33A1.914,1.914,0,0,0,4.777-2.369Zm2.114-.813a4.1,4.1,0,0,1,.294-1.652,3.032,3.032,0,0,1,.6-.883,2.508,2.508,0,0,1,.833-.58,3.537,3.537,0,0,1,1.389-.255,3.025,3.025,0,0,1,2.279.883,3.385,3.385,0,0,1,.855,2.457,3.374,3.374,0,0,1-.848,2.441A3,3,0,0,1,10.024.11,3.032,3.032,0,0,1,7.739-.767,3.327,3.327,0,0,1,6.891-3.182Zm1.34-.044a2.414,2.414,0,0,0,.505,1.659A1.647,1.647,0,0,0,10.02-1a1.632,1.632,0,0,0,1.277-.56,2.462,2.462,0,0,0,.5-1.681A2.422,2.422,0,0,0,11.309-4.9a1.643,1.643,0,0,0-1.29-.545,1.654,1.654,0,0,0-1.3.552A2.434,2.434,0,0,0,8.231-3.226Zm.984-3.586.606-1.314h1.384L10-6.812Zm4.935.369h2.377a4.643,4.643,0,0,1,1.226.123,2.154,2.154,0,0,1,.971.593,2.815,2.815,0,0,1,.615,1.044,4.754,4.754,0,0,1,.211,1.523,4.234,4.234,0,0,1-.2,1.371,2.84,2.84,0,0,1-.69,1.138,2.287,2.287,0,0,1-.914.514A3.935,3.935,0,0,1,16.6,0H14.15Zm1.3,1.09v4.267h.971a3.544,3.544,0,0,0,.787-.062,1.2,1.2,0,0,0,.525-.268,1.364,1.364,0,0,0,.341-.622,4.2,4.2,0,0,0,.132-1.18,3.849,3.849,0,0,0-.132-1.147,1.474,1.474,0,0,0-.369-.624,1.238,1.238,0,0,0-.6-.3,5.9,5.9,0,0,0-1.068-.062ZM20.615,0V-6.442h1.3V0Zm5.537-2.369V-3.454h2.8V-.888a3.529,3.529,0,0,1-1.184.7A4.311,4.311,0,0,1,26.2.11a3.526,3.526,0,0,1-1.762-.424,2.7,2.7,0,0,1-1.129-1.213,3.92,3.92,0,0,1-.378-1.716,3.708,3.708,0,0,1,.422-1.789,2.841,2.841,0,0,1,1.235-1.2,3.332,3.332,0,0,1,1.542-.321,3.077,3.077,0,0,1,1.874.5,2.272,2.272,0,0,1,.868,1.391l-1.292.242a1.364,1.364,0,0,0-.512-.749,1.547,1.547,0,0,0-.938-.275,1.763,1.763,0,0,0-1.356.541,2.277,2.277,0,0,0-.5,1.6,2.522,2.522,0,0,0,.51,1.72A1.7,1.7,0,0,0,26.117-1a2.24,2.24,0,0,0,.82-.16,2.809,2.809,0,0,0,.705-.389v-.817Zm3.74-.813a4.1,4.1,0,0,1,.294-1.652,3.032,3.032,0,0,1,.6-.883,2.508,2.508,0,0,1,.833-.58,3.537,3.537,0,0,1,1.389-.255,3.025,3.025,0,0,1,2.279.883,3.385,3.385,0,0,1,.855,2.457,3.374,3.374,0,0,1-.848,2.441A3,3,0,0,1,33.025.11,3.032,3.032,0,0,1,30.74-.767,3.327,3.327,0,0,1,29.892-3.182Zm1.34-.044a2.414,2.414,0,0,0,.505,1.659A1.647,1.647,0,0,0,33.021-1a1.632,1.632,0,0,0,1.277-.56,2.462,2.462,0,0,0,.5-1.681A2.422,2.422,0,0,0,34.31-4.9a1.643,1.643,0,0,0-1.29-.545,1.654,1.654,0,0,0-1.3.552A2.434,2.434,0,0,0,31.232-3.226Z" transform="translate(-3049.874 -10154)" fill="#12263f"/>
    <path id="Trazado_143818" data-name="Trazado 143818" d="M2.3,0,0-6.442H1.406l1.63,4.768L4.614-6.442h1.38L3.687,0ZM6.662,0V-6.442H9.4a4.686,4.686,0,0,1,1.5.174,1.48,1.48,0,0,1,.749.617,1.856,1.856,0,0,1,.281,1.015,1.72,1.72,0,0,1-.426,1.2,2.047,2.047,0,0,1-1.274.6,3.035,3.035,0,0,1,.7.541,7.342,7.342,0,0,1,.74,1.046L12.454,0H10.9l-.94-1.4a9.093,9.093,0,0,0-.686-.947,1,1,0,0,0-.391-.268,2.144,2.144,0,0,0-.655-.073H7.963V0Zm1.3-3.718h.962A4.97,4.97,0,0,0,10.094-3.8a.7.7,0,0,0,.365-.272.839.839,0,0,0,.132-.483.772.772,0,0,0-.174-.525.8.8,0,0,0-.49-.253q-.158-.022-.949-.022H7.963Zm7.686-2.725h1.3v3.489A7.238,7.238,0,0,0,17-1.876a1.043,1.043,0,0,0,.4.635,1.386,1.386,0,0,0,.859.24,1.311,1.311,0,0,0,.835-.226.894.894,0,0,0,.338-.556,7.248,7.248,0,0,0,.057-1.094V-6.442h1.3v3.384a8.7,8.7,0,0,1-.105,1.639,1.814,1.814,0,0,1-.389.809,1.965,1.965,0,0,1-.758.525,3.3,3.3,0,0,1-1.239.2,3.568,3.568,0,0,1-1.4-.213,2,2,0,0,1-.754-.554,1.775,1.775,0,0,1-.365-.714,7.824,7.824,0,0,1-.127-1.635ZM22.17,0V-6.442h1.266l2.637,4.3v-4.3h1.208V0H25.976l-2.6-4.2V0Zm6.447,0V-6.442h1.3V0Zm3.99,0V-5.353H30.7v-1.09h5.12v1.09H33.908V0Z" transform="translate(-2919.808 -10154)" fill="#12263f"/>
    <path id="Trazado_143820" data-name="Trazado 143820" d="M4.777-2.369l1.261.4A2.829,2.829,0,0,1,5.073-.4,2.751,2.751,0,0,1,3.362.11,2.771,2.771,0,0,1,1.252-.767a3.355,3.355,0,0,1-.826-2.4,3.522,3.522,0,0,1,.831-2.5,2.848,2.848,0,0,1,2.184-.89,2.68,2.68,0,0,1,1.92.7,2.541,2.541,0,0,1,.659,1.187l-1.288.308a1.366,1.366,0,0,0-.477-.791,1.366,1.366,0,0,0-.881-.29,1.466,1.466,0,0,0-1.162.514,2.52,2.52,0,0,0-.446,1.666,2.7,2.7,0,0,0,.439,1.74A1.427,1.427,0,0,0,3.349-1a1.3,1.3,0,0,0,.892-.33A1.914,1.914,0,0,0,4.777-2.369ZM12.964,0H11.549l-.562-1.463H8.411L7.879,0H6.5L9.009-6.442h1.375Zm-2.4-2.549L9.681-4.939l-.87,2.391ZM13.667,0V-6.442h1.266l2.637,4.3v-4.3h1.208V0H17.473l-2.6-4.2V0ZM21.6,0V-5.353H19.692v-1.09h5.12v1.09H22.9V0Z" transform="translate(-2855.545 -10138.813)" fill="#12263f"/>
    <path id="Trazado_143823" data-name="Trazado 143823" d="M4.777-2.369l1.261.4A2.829,2.829,0,0,1,5.073-.4,2.751,2.751,0,0,1,3.362.11,2.771,2.771,0,0,1,1.252-.767a3.355,3.355,0,0,1-.826-2.4,3.522,3.522,0,0,1,.831-2.5,2.848,2.848,0,0,1,2.184-.89,2.68,2.68,0,0,1,1.92.7,2.541,2.541,0,0,1,.659,1.187l-1.288.308a1.366,1.366,0,0,0-.477-.791,1.366,1.366,0,0,0-.881-.29,1.466,1.466,0,0,0-1.162.514,2.52,2.52,0,0,0-.446,1.666,2.7,2.7,0,0,0,.439,1.74A1.427,1.427,0,0,0,3.349-1a1.3,1.3,0,0,0,.892-.33A1.914,1.914,0,0,0,4.777-2.369ZM12.964,0H11.549l-.562-1.463H8.411L7.879,0H6.5L9.009-6.442h1.375Zm-2.4-2.549L9.681-4.939l-.87,2.391ZM13.667,0V-6.442h1.266l2.637,4.3v-4.3h1.208V0H17.473l-2.6-4.2V0ZM21.6,0V-5.353H19.692v-1.09h5.12v1.09H22.9V0Z" transform="translate(-2721.993 -10138.813)" fill="#12263f"/>
    <path id="Trazado_143826" data-name="Trazado 143826" d="M4.777-2.369l1.261.4A2.829,2.829,0,0,1,5.073-.4,2.751,2.751,0,0,1,3.362.11,2.771,2.771,0,0,1,1.252-.767a3.355,3.355,0,0,1-.826-2.4,3.522,3.522,0,0,1,.831-2.5,2.848,2.848,0,0,1,2.184-.89,2.68,2.68,0,0,1,1.92.7,2.541,2.541,0,0,1,.659,1.187l-1.288.308a1.366,1.366,0,0,0-.477-.791,1.366,1.366,0,0,0-.881-.29,1.466,1.466,0,0,0-1.162.514,2.52,2.52,0,0,0-.446,1.666,2.7,2.7,0,0,0,.439,1.74A1.427,1.427,0,0,0,3.349-1a1.3,1.3,0,0,0,.892-.33A1.914,1.914,0,0,0,4.777-2.369ZM12.964,0H11.549l-.562-1.463H8.411L7.879,0H6.5L9.009-6.442h1.375Zm-2.4-2.549L9.681-4.939l-.87,2.391ZM13.667,0V-6.442h1.266l2.637,4.3v-4.3h1.208V0H17.473l-2.6-4.2V0ZM21.6,0V-5.353H19.692v-1.09h5.12v1.09H22.9V0Z" transform="translate(-2597.046 -10138.813)" fill="#12263f"/>
    <path id="Trazado_143821" data-name="Trazado 143821" d="M2.3,0,0-6.442H1.406l1.63,4.768L4.614-6.442h1.38L3.687,0Zm9.5,0H10.384L9.822-1.463H7.247L6.715,0H5.335L7.844-6.442H9.22ZM9.4-2.549,8.517-4.939l-.87,2.391ZM12.524,0V-6.39h1.3v5.3H17.06V0Zm5.2-3.182a4.1,4.1,0,0,1,.294-1.652,3.032,3.032,0,0,1,.6-.883,2.508,2.508,0,0,1,.833-.58,3.537,3.537,0,0,1,1.389-.255,3.025,3.025,0,0,1,2.279.883,3.385,3.385,0,0,1,.855,2.457,3.374,3.374,0,0,1-.848,2.441A3,3,0,0,1,20.856.11a3.032,3.032,0,0,1-2.285-.877A3.327,3.327,0,0,1,17.723-3.182Zm1.34-.044a2.414,2.414,0,0,0,.505,1.659A1.647,1.647,0,0,0,20.852-1a1.632,1.632,0,0,0,1.277-.56,2.462,2.462,0,0,0,.5-1.681A2.422,2.422,0,0,0,22.142-4.9a1.643,1.643,0,0,0-1.29-.545,1.654,1.654,0,0,0-1.3.552A2.434,2.434,0,0,0,19.063-3.226ZM24.992,0V-6.442h2.738a4.686,4.686,0,0,1,1.5.174,1.48,1.48,0,0,1,.749.617,1.856,1.856,0,0,1,.281,1.015,1.72,1.72,0,0,1-.426,1.2,2.047,2.047,0,0,1-1.274.6,3.035,3.035,0,0,1,.7.541A7.342,7.342,0,0,1,30-1.257L30.784,0H29.228l-.94-1.4a9.093,9.093,0,0,0-.686-.947,1,1,0,0,0-.391-.268,2.144,2.144,0,0,0-.655-.073h-.264V0Zm1.3-3.718h.962A4.97,4.97,0,0,0,28.424-3.8a.7.7,0,0,0,.365-.272.839.839,0,0,0,.132-.483.772.772,0,0,0-.174-.525.8.8,0,0,0-.49-.253q-.158-.022-.949-.022H26.292Z" transform="translate(-2791.993 -10138.813)" fill="#12263f"/>
    <path id="Trazado_143824" data-name="Trazado 143824" d="M2.3,0,0-6.442H1.406l1.63,4.768L4.614-6.442h1.38L3.687,0Zm9.5,0H10.384L9.822-1.463H7.247L6.715,0H5.335L7.844-6.442H9.22ZM9.4-2.549,8.517-4.939l-.87,2.391ZM12.524,0V-6.39h1.3v5.3H17.06V0Zm5.2-3.182a4.1,4.1,0,0,1,.294-1.652,3.032,3.032,0,0,1,.6-.883,2.508,2.508,0,0,1,.833-.58,3.537,3.537,0,0,1,1.389-.255,3.025,3.025,0,0,1,2.279.883,3.385,3.385,0,0,1,.855,2.457,3.374,3.374,0,0,1-.848,2.441A3,3,0,0,1,20.856.11a3.032,3.032,0,0,1-2.285-.877A3.327,3.327,0,0,1,17.723-3.182Zm1.34-.044a2.414,2.414,0,0,0,.505,1.659A1.647,1.647,0,0,0,20.852-1a1.632,1.632,0,0,0,1.277-.56,2.462,2.462,0,0,0,.5-1.681A2.422,2.422,0,0,0,22.142-4.9a1.643,1.643,0,0,0-1.29-.545,1.654,1.654,0,0,0-1.3.552A2.434,2.434,0,0,0,19.063-3.226ZM24.992,0V-6.442h2.738a4.686,4.686,0,0,1,1.5.174,1.48,1.48,0,0,1,.749.617,1.856,1.856,0,0,1,.281,1.015,1.72,1.72,0,0,1-.426,1.2,2.047,2.047,0,0,1-1.274.6,3.035,3.035,0,0,1,.7.541A7.342,7.342,0,0,1,30-1.257L30.784,0H29.228l-.94-1.4a9.093,9.093,0,0,0-.686-.947,1,1,0,0,0-.391-.268,2.144,2.144,0,0,0-.655-.073h-.264V0Zm1.3-3.718h.962A4.97,4.97,0,0,0,28.424-3.8a.7.7,0,0,0,.365-.272.839.839,0,0,0,.132-.483.772.772,0,0,0-.174-.525.8.8,0,0,0-.49-.253q-.158-.022-.949-.022H26.292Z" transform="translate(-2658.993 -10138.813)" fill="#12263f"/>
    <path id="Trazado_143827" data-name="Trazado 143827" d="M2.3,0,0-6.442H1.406l1.63,4.768L4.614-6.442h1.38L3.687,0Zm9.5,0H10.384L9.822-1.463H7.247L6.715,0H5.335L7.844-6.442H9.22ZM9.4-2.549,8.517-4.939l-.87,2.391ZM12.524,0V-6.39h1.3v5.3H17.06V0Zm5.2-3.182a4.1,4.1,0,0,1,.294-1.652,3.032,3.032,0,0,1,.6-.883,2.508,2.508,0,0,1,.833-.58,3.537,3.537,0,0,1,1.389-.255,3.025,3.025,0,0,1,2.279.883,3.385,3.385,0,0,1,.855,2.457,3.374,3.374,0,0,1-.848,2.441A3,3,0,0,1,20.856.11a3.032,3.032,0,0,1-2.285-.877A3.327,3.327,0,0,1,17.723-3.182Zm1.34-.044a2.414,2.414,0,0,0,.505,1.659A1.647,1.647,0,0,0,20.852-1a1.632,1.632,0,0,0,1.277-.56,2.462,2.462,0,0,0,.5-1.681A2.422,2.422,0,0,0,22.142-4.9a1.643,1.643,0,0,0-1.29-.545,1.654,1.654,0,0,0-1.3.552A2.434,2.434,0,0,0,19.063-3.226ZM24.992,0V-6.442h2.738a4.686,4.686,0,0,1,1.5.174,1.48,1.48,0,0,1,.749.617,1.856,1.856,0,0,1,.281,1.015,1.72,1.72,0,0,1-.426,1.2,2.047,2.047,0,0,1-1.274.6,3.035,3.035,0,0,1,.7.541A7.342,7.342,0,0,1,30-1.257L30.784,0H29.228l-.94-1.4a9.093,9.093,0,0,0-.686-.947,1,1,0,0,0-.391-.268,2.144,2.144,0,0,0-.655-.073h-.264V0Zm1.3-3.718h.962A4.97,4.97,0,0,0,28.424-3.8a.7.7,0,0,0,.365-.272.839.839,0,0,0,.132-.483.772.772,0,0,0-.174-.525.8.8,0,0,0-.49-.253q-.158-.022-.949-.022H26.292Z" transform="translate(-2541.046 -10138.813)" fill="#12263f"/>
    <path id="Trazado_143819" data-name="Trazado 143819" d="M.655,0V-6.442H5.432v1.09H1.956v1.428H5.19v1.085H1.956v1.753h3.6V0ZM6.671,0V-6.442H7.937l2.637,4.3v-4.3h1.208V0H10.477l-2.6-4.2V0Zm7.937,0V-5.353H12.7v-1.09h5.12v1.09H15.908V0Zm4.052,0V-6.442H21.4a4.686,4.686,0,0,1,1.5.174,1.48,1.48,0,0,1,.749.617,1.856,1.856,0,0,1,.281,1.015,1.72,1.72,0,0,1-.426,1.2,2.047,2.047,0,0,1-1.274.6,3.035,3.035,0,0,1,.7.541,7.342,7.342,0,0,1,.74,1.046L24.451,0H22.9l-.94-1.4a9.093,9.093,0,0,0-.686-.947,1,1,0,0,0-.391-.268,2.144,2.144,0,0,0-.655-.073H19.96V0Zm1.3-3.718h.962A4.97,4.97,0,0,0,22.091-3.8a.7.7,0,0,0,.365-.272.839.839,0,0,0,.132-.483.772.772,0,0,0-.174-.525.8.8,0,0,0-.49-.253q-.158-.022-.949-.022H19.96ZM30.964,0H29.549l-.562-1.463H26.411L25.879,0H24.5l2.509-6.442h1.375Zm-2.4-2.549-.888-2.391-.87,2.391Zm3.081-3.894h2.377a4.643,4.643,0,0,1,1.226.123,2.154,2.154,0,0,1,.971.593,2.815,2.815,0,0,1,.615,1.044A4.754,4.754,0,0,1,37.05-3.16a4.234,4.234,0,0,1-.2,1.371,2.84,2.84,0,0,1-.69,1.138,2.287,2.287,0,0,1-.914.514A3.935,3.935,0,0,1,34.1,0H31.649Zm1.3,1.09v4.267h.971a3.544,3.544,0,0,0,.787-.062,1.2,1.2,0,0,0,.525-.268,1.364,1.364,0,0,0,.341-.622,4.2,4.2,0,0,0,.132-1.18,3.849,3.849,0,0,0-.132-1.147,1.474,1.474,0,0,0-.369-.624,1.238,1.238,0,0,0-.6-.3,5.9,5.9,0,0,0-1.068-.062ZM43.963,0H42.548l-.562-1.463H39.41L38.878,0H37.5l2.509-6.442h1.375Zm-2.4-2.549L40.68-4.939l-.87,2.391Zm2.755.453,1.266-.123a1.544,1.544,0,0,0,.464.936,1.4,1.4,0,0,0,.943.3,1.449,1.449,0,0,0,.947-.266.791.791,0,0,0,.319-.622.586.586,0,0,0-.134-.389,1.071,1.071,0,0,0-.468-.279q-.229-.079-1.042-.281a3.533,3.533,0,0,1-1.468-.637,1.676,1.676,0,0,1-.593-1.3,1.656,1.656,0,0,1,.279-.921,1.747,1.747,0,0,1,.8-.653,3.223,3.223,0,0,1,1.268-.224,2.719,2.719,0,0,1,1.826.532A1.877,1.877,0,0,1,49.377-4.6l-1.3.057a1.1,1.1,0,0,0-.358-.714,1.311,1.311,0,0,0-.824-.218,1.486,1.486,0,0,0-.888.233.469.469,0,0,0-.207.4.5.5,0,0,0,.193.391,3.42,3.42,0,0,0,1.2.431,6.308,6.308,0,0,1,1.4.464A1.81,1.81,0,0,1,49.3-2.9a1.915,1.915,0,0,1,.257,1.026,1.9,1.9,0,0,1-.308,1.037,1.844,1.844,0,0,1-.87.719,3.649,3.649,0,0,1-1.4.235A2.791,2.791,0,0,1,45.105-.45,2.456,2.456,0,0,1,44.323-2.1Z" transform="translate(-2834.545 -10166)" fill="#12263f"/>
    <path id="Trazado_143822" data-name="Trazado 143822" d="M.325-2.1l1.266-.123a1.544,1.544,0,0,0,.464.936A1.4,1.4,0,0,0,3-.984a1.449,1.449,0,0,0,.947-.266.791.791,0,0,0,.319-.622.586.586,0,0,0-.134-.389,1.071,1.071,0,0,0-.468-.279q-.229-.079-1.042-.281a3.533,3.533,0,0,1-1.468-.637,1.676,1.676,0,0,1-.593-1.3,1.656,1.656,0,0,1,.279-.921,1.747,1.747,0,0,1,.8-.653,3.223,3.223,0,0,1,1.268-.224,2.719,2.719,0,0,1,1.826.532A1.877,1.877,0,0,1,5.379-4.6l-1.3.057a1.1,1.1,0,0,0-.358-.714A1.311,1.311,0,0,0,2.9-5.476a1.486,1.486,0,0,0-.888.233.469.469,0,0,0-.207.4A.5.5,0,0,0,2-4.452a3.42,3.42,0,0,0,1.2.431,6.308,6.308,0,0,1,1.4.464,1.81,1.81,0,0,1,.712.655,1.915,1.915,0,0,1,.257,1.026A1.9,1.9,0,0,1,5.256-.839a1.844,1.844,0,0,1-.87.719,3.649,3.649,0,0,1-1.4.235A2.791,2.791,0,0,1,1.107-.45,2.456,2.456,0,0,1,.325-2.1ZM12.467,0H11.052L10.49-1.463H7.915L7.383,0H6L8.512-6.442H9.888Zm-2.4-2.549L9.185-4.939l-.87,2.391ZM13.192,0V-6.39h1.3v5.3h3.234V0Zm5.423,0V-6.442h1.3V0Zm2.536-6.442h2.377a4.643,4.643,0,0,1,1.226.123,2.154,2.154,0,0,1,.971.593,2.815,2.815,0,0,1,.615,1.044,4.754,4.754,0,0,1,.211,1.523,4.234,4.234,0,0,1-.2,1.371,2.84,2.84,0,0,1-.69,1.138,2.287,2.287,0,0,1-.914.514A3.935,3.935,0,0,1,23.6,0H21.151Zm1.3,1.09v4.267h.971a3.544,3.544,0,0,0,.787-.062,1.2,1.2,0,0,0,.525-.268,1.364,1.364,0,0,0,.341-.622,4.2,4.2,0,0,0,.132-1.18,3.849,3.849,0,0,0-.132-1.147,1.474,1.474,0,0,0-.369-.624,1.238,1.238,0,0,0-.6-.3,5.9,5.9,0,0,0-1.068-.062ZM33.464,0H32.049l-.562-1.463H28.912L28.38,0H27l2.509-6.442h1.375Zm-2.4-2.549-.888-2.391-.87,2.391Zm2.755.453,1.266-.123a1.544,1.544,0,0,0,.464.936,1.4,1.4,0,0,0,.943.3,1.449,1.449,0,0,0,.947-.266.791.791,0,0,0,.319-.622.586.586,0,0,0-.134-.389,1.071,1.071,0,0,0-.468-.279q-.229-.079-1.042-.281a3.533,3.533,0,0,1-1.468-.637,1.676,1.676,0,0,1-.593-1.3,1.656,1.656,0,0,1,.279-.921,1.747,1.747,0,0,1,.8-.653,3.223,3.223,0,0,1,1.268-.224,2.719,2.719,0,0,1,1.826.532A1.877,1.877,0,0,1,38.878-4.6l-1.3.057a1.1,1.1,0,0,0-.358-.714,1.311,1.311,0,0,0-.824-.218,1.486,1.486,0,0,0-.888.233.469.469,0,0,0-.207.4.5.5,0,0,0,.193.391,3.42,3.42,0,0,0,1.2.431,6.308,6.308,0,0,1,1.4.464,1.81,1.81,0,0,1,.712.655,1.915,1.915,0,0,1,.257,1.026,1.9,1.9,0,0,1-.308,1.037,1.844,1.844,0,0,1-.87.719,3.649,3.649,0,0,1-1.4.235A2.791,2.791,0,0,1,34.607-.45,2.456,2.456,0,0,1,33.825-2.1Z" transform="translate(-2697.796 -10166)" fill="#12263f"/>
    <path id="Trazado_143825" data-name="Trazado 143825" d="M.325-2.1l1.266-.123a1.544,1.544,0,0,0,.464.936A1.4,1.4,0,0,0,3-.984a1.449,1.449,0,0,0,.947-.266.791.791,0,0,0,.319-.622.586.586,0,0,0-.134-.389,1.071,1.071,0,0,0-.468-.279q-.229-.079-1.042-.281a3.533,3.533,0,0,1-1.468-.637,1.676,1.676,0,0,1-.593-1.3,1.656,1.656,0,0,1,.279-.921,1.747,1.747,0,0,1,.8-.653,3.223,3.223,0,0,1,1.268-.224,2.719,2.719,0,0,1,1.826.532A1.877,1.877,0,0,1,5.379-4.6l-1.3.057a1.1,1.1,0,0,0-.358-.714A1.311,1.311,0,0,0,2.9-5.476a1.486,1.486,0,0,0-.888.233.469.469,0,0,0-.207.4A.5.5,0,0,0,2-4.452a3.42,3.42,0,0,0,1.2.431,6.308,6.308,0,0,1,1.4.464,1.81,1.81,0,0,1,.712.655,1.915,1.915,0,0,1,.257,1.026A1.9,1.9,0,0,1,5.256-.839a1.844,1.844,0,0,1-.87.719,3.649,3.649,0,0,1-1.4.235A2.791,2.791,0,0,1,1.107-.45,2.456,2.456,0,0,1,.325-2.1ZM12.467,0H11.052L10.49-1.463H7.915L7.383,0H6L8.512-6.442H9.888Zm-2.4-2.549L9.185-4.939l-.87,2.391ZM13.192,0V-6.39h1.3v5.3h3.234V0ZM18.65-6.442h2.377a4.643,4.643,0,0,1,1.226.123,2.154,2.154,0,0,1,.971.593,2.815,2.815,0,0,1,.615,1.044,4.754,4.754,0,0,1,.211,1.523,4.234,4.234,0,0,1-.2,1.371,2.84,2.84,0,0,1-.69,1.138,2.287,2.287,0,0,1-.914.514A3.935,3.935,0,0,1,21.1,0H18.65Zm1.3,1.09v4.267h.971a3.544,3.544,0,0,0,.787-.062,1.2,1.2,0,0,0,.525-.268,1.364,1.364,0,0,0,.341-.622,4.2,4.2,0,0,0,.132-1.18,3.849,3.849,0,0,0-.132-1.147,1.474,1.474,0,0,0-.369-.624,1.238,1.238,0,0,0-.6-.3,5.9,5.9,0,0,0-1.068-.062Zm4.939,2.171a4.1,4.1,0,0,1,.294-1.652,3.032,3.032,0,0,1,.6-.883,2.508,2.508,0,0,1,.833-.58,3.537,3.537,0,0,1,1.389-.255,3.025,3.025,0,0,1,2.279.883,3.385,3.385,0,0,1,.855,2.457,3.374,3.374,0,0,1-.848,2.441A3,3,0,0,1,28.024.11a3.032,3.032,0,0,1-2.285-.877A3.327,3.327,0,0,1,24.891-3.182Zm1.34-.044a2.414,2.414,0,0,0,.505,1.659A1.647,1.647,0,0,0,28.02-1a1.632,1.632,0,0,0,1.277-.56,2.462,2.462,0,0,0,.5-1.681A2.422,2.422,0,0,0,29.309-4.9a1.643,1.643,0,0,0-1.29-.545,1.654,1.654,0,0,0-1.3.552A2.434,2.434,0,0,0,26.231-3.226ZM31.825-2.1l1.266-.123a1.544,1.544,0,0,0,.464.936,1.4,1.4,0,0,0,.943.3,1.449,1.449,0,0,0,.947-.266.791.791,0,0,0,.319-.622.586.586,0,0,0-.134-.389,1.071,1.071,0,0,0-.468-.279q-.229-.079-1.042-.281a3.533,3.533,0,0,1-1.468-.637,1.676,1.676,0,0,1-.593-1.3,1.656,1.656,0,0,1,.279-.921,1.747,1.747,0,0,1,.8-.653,3.223,3.223,0,0,1,1.268-.224,2.719,2.719,0,0,1,1.826.532A1.877,1.877,0,0,1,36.879-4.6l-1.3.057a1.1,1.1,0,0,0-.358-.714,1.311,1.311,0,0,0-.824-.218,1.486,1.486,0,0,0-.888.233.469.469,0,0,0-.207.4.5.5,0,0,0,.193.391,3.42,3.42,0,0,0,1.2.431,6.308,6.308,0,0,1,1.4.464,1.81,1.81,0,0,1,.712.655,1.915,1.915,0,0,1,.257,1.026,1.9,1.9,0,0,1-.308,1.037,1.844,1.844,0,0,1-.87.719,3.649,3.649,0,0,1-1.4.235A2.791,2.791,0,0,1,32.607-.45,2.456,2.456,0,0,1,31.825-2.1Z" transform="translate(-2574.73 -10164)" fill="#12263f"/>
    <line id="Línea_488" data-name="Línea 488" y2="48.536" transform="translate(-3002.401 -10180.135)" fill="none" stroke="#707070" stroke-width="1"/>
    <line id="Línea_489" data-name="Línea 489" y2="48.536" transform="translate(-2927.742 -10180.135)" fill="none" stroke="#707070" stroke-width="1"/>
    <line id="Línea_490" data-name="Línea 490" y2="48.536" transform="translate(-2873.334 -10180.135)" fill="none" stroke="#707070" stroke-width="1"/>
    <line id="Línea_504" data-name="Línea 504" y2="25.401" transform="translate(-2809.993 -10157)" fill="none" stroke="#707070" stroke-width="1"/>
    <line id="Línea_506" data-name="Línea 506" y2="25.401" transform="translate(-2677.993 -10157)" fill="none" stroke="#707070" stroke-width="1"/>
    <line id="Línea_507" data-name="Línea 507" y2="25.401" transform="translate(-2560.046 -10157)" fill="none" stroke="#707070" stroke-width="1"/>
    <line id="Línea_493" data-name="Línea 493" y2="48.536" transform="translate(-2744.171 -10180.135)" fill="none" stroke="#707070" stroke-width="1"/>
    <line id="Línea_494" data-name="Línea 494" y2="48.635" transform="translate(-2613.519 -10180.135)" fill="none" stroke="#707070" stroke-width="1"/>
    <line id="Línea_505" data-name="Línea 505" x2="373" transform="translate(-2873.5 -10156.5)" fill="none" stroke="#707070" stroke-width="1"/>
  </g>
</svg>
