<svg xmlns="http://www.w3.org/2000/svg" width="561.084" height="75.107" viewBox="0 0 561.084 75.107">
  <g id="img36" transform="translate(3061.467 10206.607)">
    <g id="Rectángulo_33977" data-name="Rectángulo 33977" transform="translate(-3061.467 -10206.607)" fill="#d9e1f2" stroke="#707070" stroke-width="1">
      <rect width="561.084" height="75.009" stroke="none"/>
      <rect x="0.5" y="0.5" width="560.084" height="74.009" fill="none"/>
    </g>
    <path id="Trazado_143851" data-name="Trazado 143851" d="M.65-6.442H3.028a4.643,4.643,0,0,1,1.226.123,2.154,2.154,0,0,1,.971.593A2.815,2.815,0,0,1,5.84-4.682,4.754,4.754,0,0,1,6.051-3.16a4.234,4.234,0,0,1-.2,1.371A2.84,2.84,0,0,1,5.164-.65a2.287,2.287,0,0,1-.914.514A3.935,3.935,0,0,1,3.1,0H.65Zm1.3,1.09v4.267h.971a3.544,3.544,0,0,0,.787-.062,1.2,1.2,0,0,0,.525-.268,1.364,1.364,0,0,0,.341-.622,4.2,4.2,0,0,0,.132-1.18,3.849,3.849,0,0,0-.132-1.147,1.474,1.474,0,0,0-.369-.624,1.238,1.238,0,0,0-.6-.3,5.9,5.9,0,0,0-1.068-.062Zm7.9,3.867,1.23.207a2.018,2.018,0,0,1-.749,1.031A2.2,2.2,0,0,1,9.048.105a2.088,2.088,0,0,1-1.8-.8A2.672,2.672,0,0,1,6.785-2.3a2.577,2.577,0,0,1,.606-1.817,2,2,0,0,1,1.534-.657,2.072,2.072,0,0,1,1.644.688,3.043,3.043,0,0,1,.576,2.107H8.051a1.249,1.249,0,0,0,.3.855.935.935,0,0,0,.712.305.756.756,0,0,0,.488-.158A.977.977,0,0,0,9.848-1.485Zm.07-1.248a1.189,1.189,0,0,0-.277-.815A.85.85,0,0,0,9-3.828a.858.858,0,0,0-.668.294,1.139,1.139,0,0,0-.259.8Zm1.8,1.4,1.239-.189a.908.908,0,0,0,.321.547,1.084,1.084,0,0,0,.677.187,1.222,1.222,0,0,0,.721-.176.392.392,0,0,0,.163-.33.324.324,0,0,0-.088-.233.984.984,0,0,0-.413-.163,6.662,6.662,0,0,1-1.894-.6,1.2,1.2,0,0,1-.554-1.05,1.294,1.294,0,0,1,.479-1.02,2.237,2.237,0,0,1,1.485-.413,2.591,2.591,0,0,1,1.424.312,1.6,1.6,0,0,1,.642.923l-1.165.215a.72.72,0,0,0-.283-.417,1.036,1.036,0,0,0-.6-.145,1.342,1.342,0,0,0-.7.136.293.293,0,0,0-.141.25.273.273,0,0,0,.123.224,4.633,4.633,0,0,0,1.154.347,3.434,3.434,0,0,1,1.378.549,1.142,1.142,0,0,1,.387.918,1.41,1.41,0,0,1-.536,1.1,2.373,2.373,0,0,1-1.586.461,2.6,2.6,0,0,1-1.51-.387A1.782,1.782,0,0,1,11.716-1.332Zm9.51-1.956-1.217.22a.883.883,0,0,0-.279-.549.843.843,0,0,0-.565-.185.923.923,0,0,0-.736.319,1.633,1.633,0,0,0-.275,1.066,1.888,1.888,0,0,0,.279,1.173.916.916,0,0,0,.749.343.832.832,0,0,0,.576-.2,1.2,1.2,0,0,0,.316-.688l1.213.207a2.152,2.152,0,0,1-.725,1.261,2.244,2.244,0,0,1-1.437.426,2.136,2.136,0,0,1-1.633-.646,2.5,2.5,0,0,1-.609-1.789,2.51,2.51,0,0,1,.611-1.8,2.17,2.17,0,0,1,1.652-.644,2.254,2.254,0,0,1,1.356.367A2.033,2.033,0,0,1,21.226-3.287ZM23.344,0H22.109V-4.667h1.147V-4a2,2,0,0,1,.53-.62.974.974,0,0,1,.534-.149,1.567,1.567,0,0,1,.813.233L24.75-3.463a1.084,1.084,0,0,0-.58-.2.685.685,0,0,0-.439.143.976.976,0,0,0-.283.516,7.335,7.335,0,0,0-.1,1.564Zm2.32-5.3V-6.442H26.9V-5.3Zm0,5.3V-4.667H26.9V0Zm2.465-4.667h1.151v.686a1.723,1.723,0,0,1,.606-.571,1.672,1.672,0,0,1,.848-.22,1.779,1.779,0,0,1,1.38.637,2.579,2.579,0,0,1,.567,1.775,2.657,2.657,0,0,1-.571,1.817,1.78,1.78,0,0,1-1.384.648,1.573,1.573,0,0,1-.7-.154,2.363,2.363,0,0,1-.661-.527V1.775H28.129Zm1.222,2.254a1.8,1.8,0,0,0,.312,1.162.954.954,0,0,0,.76.376.892.892,0,0,0,.716-.345,1.777,1.777,0,0,0,.286-1.132,1.687,1.687,0,0,0-.294-1.09A.911.911,0,0,0,30.4-3.8a.947.947,0,0,0-.751.349A1.555,1.555,0,0,0,29.351-2.413Zm8.38-.875-1.217.22a.883.883,0,0,0-.279-.549A.843.843,0,0,0,35.67-3.8a.923.923,0,0,0-.736.319,1.633,1.633,0,0,0-.275,1.066,1.888,1.888,0,0,0,.279,1.173.916.916,0,0,0,.749.343.832.832,0,0,0,.576-.2,1.2,1.2,0,0,0,.316-.688l1.213.207a2.152,2.152,0,0,1-.725,1.261,2.244,2.244,0,0,1-1.437.426A2.136,2.136,0,0,1,34-.541a2.5,2.5,0,0,1-.609-1.789A2.51,2.51,0,0,1,34-4.129a2.17,2.17,0,0,1,1.652-.644,2.254,2.254,0,0,1,1.356.367A2.033,2.033,0,0,1,37.731-3.287ZM38.667-5.3V-6.442H39.9V-5.3Zm0,5.3V-4.667H39.9V0Zm2.215-2.4a2.525,2.525,0,0,1,.3-1.191,2.081,2.081,0,0,1,.859-.879,2.55,2.55,0,0,1,1.241-.3,2.33,2.33,0,0,1,1.736.688A2.376,2.376,0,0,1,45.7-2.347a2.4,2.4,0,0,1-.683,1.756,2.31,2.31,0,0,1-1.72.7,2.71,2.71,0,0,1-1.224-.29,1.99,1.99,0,0,1-.885-.85A2.833,2.833,0,0,1,40.882-2.4Zm1.266.066a1.546,1.546,0,0,0,.33,1.063,1.047,1.047,0,0,0,.813.369A1.041,1.041,0,0,0,44.1-1.27a1.568,1.568,0,0,0,.327-1.072A1.539,1.539,0,0,0,44.1-3.4a1.041,1.041,0,0,0-.811-.369,1.047,1.047,0,0,0-.813.369A1.546,1.546,0,0,0,42.148-2.333Zm.519-2.9.606-1.314h1.384L43.449-5.238ZM50.911,0H49.676V-2.382A3.681,3.681,0,0,0,49.6-3.36.686.686,0,0,0,49.34-3.7a.735.735,0,0,0-.428-.123.99.99,0,0,0-.576.176.886.886,0,0,0-.349.466,4.026,4.026,0,0,0-.094,1.072V0H46.657V-4.667H47.8v.686a1.869,1.869,0,0,1,1.538-.791,1.853,1.853,0,0,1,.747.147,1.252,1.252,0,0,1,.512.376,1.361,1.361,0,0,1,.242.519,3.857,3.857,0,0,1,.068.831Zm7.822-3.287-1.217.22a.883.883,0,0,0-.279-.549.843.843,0,0,0-.565-.185.923.923,0,0,0-.736.319,1.633,1.633,0,0,0-.275,1.066,1.888,1.888,0,0,0,.279,1.173.916.916,0,0,0,.749.343.832.832,0,0,0,.576-.2,1.2,1.2,0,0,0,.316-.688l1.213.207a2.152,2.152,0,0,1-.725,1.261,2.244,2.244,0,0,1-1.437.426A2.136,2.136,0,0,1,55-.541a2.5,2.5,0,0,1-.609-1.789A2.51,2.51,0,0,1,55-4.129a2.17,2.17,0,0,1,1.652-.644,2.254,2.254,0,0,1,1.356.367A2.033,2.033,0,0,1,58.733-3.287ZM62.741,0V-.7a1.8,1.8,0,0,1-.67.589,1.879,1.879,0,0,1-.877.215A1.714,1.714,0,0,1,60.35-.1a1.219,1.219,0,0,1-.541-.58,2.589,2.589,0,0,1-.167-1.033V-4.667h1.235v2.145a5.947,5.947,0,0,0,.068,1.206.658.658,0,0,0,.248.352.763.763,0,0,0,.457.13.972.972,0,0,0,.567-.174.883.883,0,0,0,.343-.431A5,5,0,0,0,62.653-2.7V-4.667h1.235V0Zm5.128-1.485,1.23.207A2.018,2.018,0,0,1,68.35-.248a2.2,2.2,0,0,1-1.281.354,2.088,2.088,0,0,1-1.8-.8A2.672,2.672,0,0,1,64.806-2.3a2.577,2.577,0,0,1,.606-1.817,2,2,0,0,1,1.534-.657,2.072,2.072,0,0,1,1.644.688,3.043,3.043,0,0,1,.576,2.107H66.072a1.249,1.249,0,0,0,.3.855.935.935,0,0,0,.712.305.756.756,0,0,0,.488-.158A.977.977,0,0,0,67.869-1.485Zm.07-1.248a1.189,1.189,0,0,0-.277-.815.85.85,0,0,0-.642-.279.858.858,0,0,0-.668.294,1.139,1.139,0,0,0-.259.8ZM74.417,0H73.182V-2.382A3.681,3.681,0,0,0,73.1-3.36a.686.686,0,0,0-.257-.345.735.735,0,0,0-.428-.123.99.99,0,0,0-.576.176.886.886,0,0,0-.349.466A4.026,4.026,0,0,0,71.4-2.114V0H70.163V-4.667H71.31v.686a1.869,1.869,0,0,1,1.538-.791,1.853,1.853,0,0,1,.747.147,1.252,1.252,0,0,1,.512.376,1.361,1.361,0,0,1,.242.519,3.857,3.857,0,0,1,.068.831ZM77.81-4.667v.984h-.844V-1.8a4.678,4.678,0,0,0,.024.666.271.271,0,0,0,.11.156.348.348,0,0,0,.209.062,1.6,1.6,0,0,0,.5-.119l.105.958a2.455,2.455,0,0,1-.976.185,1.547,1.547,0,0,1-.6-.112A.879.879,0,0,1,75.94-.3a1.145,1.145,0,0,1-.174-.481,5.986,5.986,0,0,1-.04-.87V-3.683H75.16v-.984h.567v-.927l1.239-.721v1.648Zm1.78,1.424-1.121-.2a1.745,1.745,0,0,1,.65-1,2.38,2.38,0,0,1,1.371-.325,2.955,2.955,0,0,1,1.23.2,1.227,1.227,0,0,1,.569.5,2.546,2.546,0,0,1,.165,1.105l-.013,1.441a5,5,0,0,0,.059.907A2.649,2.649,0,0,0,82.723,0H81.5q-.048-.123-.119-.365-.031-.11-.044-.145a2.226,2.226,0,0,1-.677.461,1.938,1.938,0,0,1-.769.154,1.59,1.59,0,0,1-1.136-.391,1.3,1.3,0,0,1-.415-.989,1.327,1.327,0,0,1,.189-.705,1.235,1.235,0,0,1,.53-.475,4.139,4.139,0,0,1,.982-.288,6.728,6.728,0,0,0,1.2-.3v-.123a.639.639,0,0,0-.176-.508,1.053,1.053,0,0,0-.664-.152.884.884,0,0,0-.514.13A.9.9,0,0,0,79.589-3.243Zm1.652,1a7.719,7.719,0,0,1-.751.189,2.264,2.264,0,0,0-.672.215.515.515,0,0,0-.242.435.606.606,0,0,0,.193.448.675.675,0,0,0,.492.189,1.069,1.069,0,0,0,.637-.22.773.773,0,0,0,.294-.409,2.438,2.438,0,0,0,.048-.6Z" transform="translate(-2979.884 -10154)" fill="#12263f"/>
    <path id="Trazado_143849" data-name="Trazado 143849" d="M.659-6.442H3.234a7.439,7.439,0,0,1,1.14.064,1.676,1.676,0,0,1,.672.266,1.654,1.654,0,0,1,.494.538,1.458,1.458,0,0,1,.2.754A1.5,1.5,0,0,1,5.5-3.99a1.511,1.511,0,0,1-.661.567,1.7,1.7,0,0,1,.905.584,1.551,1.551,0,0,1,.316.971,1.915,1.915,0,0,1-.2.855,1.722,1.722,0,0,1-.558.664,1.843,1.843,0,0,1-.872.305Q4.1-.009,2.852,0H.659ZM1.96-5.37v1.49h.853q.76,0,.945-.022a.86.86,0,0,0,.525-.231.68.68,0,0,0,.191-.5.707.707,0,0,0-.165-.486.746.746,0,0,0-.49-.226Q3.625-5.37,2.707-5.37Zm0,2.562v1.723h1.2a5.884,5.884,0,0,0,.892-.04.806.806,0,0,0,.472-.257.791.791,0,0,0,.182-.547.84.84,0,0,0-.141-.492.8.8,0,0,0-.406-.294A4.419,4.419,0,0,0,3.01-2.808Zm6.108-.435-1.121-.2a1.745,1.745,0,0,1,.65-1,2.38,2.38,0,0,1,1.371-.325,2.955,2.955,0,0,1,1.23.2,1.227,1.227,0,0,1,.569.5,2.546,2.546,0,0,1,.165,1.105L10.92-1.534a5,5,0,0,0,.059.907A2.649,2.649,0,0,0,11.2,0H9.98q-.048-.123-.119-.365-.031-.11-.044-.145a2.226,2.226,0,0,1-.677.461,1.938,1.938,0,0,1-.769.154A1.59,1.59,0,0,1,7.236-.286a1.3,1.3,0,0,1-.415-.989,1.327,1.327,0,0,1,.189-.705,1.235,1.235,0,0,1,.53-.475,4.139,4.139,0,0,1,.982-.288,6.728,6.728,0,0,0,1.2-.3v-.123a.639.639,0,0,0-.176-.508,1.053,1.053,0,0,0-.664-.152.884.884,0,0,0-.514.13A.9.9,0,0,0,8.068-3.243Zm1.652,1a7.719,7.719,0,0,1-.751.189,2.264,2.264,0,0,0-.672.215.515.515,0,0,0-.242.435.606.606,0,0,0,.193.448.675.675,0,0,0,.492.189,1.069,1.069,0,0,0,.637-.22.773.773,0,0,0,.294-.409A2.438,2.438,0,0,0,9.721-2ZM12.151,0V-6.442h1.235V0Zm3.423-3.243-1.121-.2a1.745,1.745,0,0,1,.65-1,2.38,2.38,0,0,1,1.371-.325,2.955,2.955,0,0,1,1.23.2,1.227,1.227,0,0,1,.569.5,2.546,2.546,0,0,1,.165,1.105l-.013,1.441a5,5,0,0,0,.059.907A2.649,2.649,0,0,0,18.708,0H17.486q-.048-.123-.119-.365-.031-.11-.044-.145a2.226,2.226,0,0,1-.677.461,1.938,1.938,0,0,1-.769.154,1.59,1.59,0,0,1-1.136-.391,1.3,1.3,0,0,1-.415-.989,1.327,1.327,0,0,1,.189-.705,1.235,1.235,0,0,1,.53-.475,4.139,4.139,0,0,1,.982-.288,6.728,6.728,0,0,0,1.2-.3v-.123a.639.639,0,0,0-.176-.508,1.053,1.053,0,0,0-.664-.152.884.884,0,0,0-.514.13A.9.9,0,0,0,15.574-3.243Zm1.652,1a7.719,7.719,0,0,1-.751.189,2.264,2.264,0,0,0-.672.215.515.515,0,0,0-.242.435.606.606,0,0,0,.193.448.675.675,0,0,0,.492.189,1.069,1.069,0,0,0,.637-.22.773.773,0,0,0,.294-.409,2.438,2.438,0,0,0,.048-.6ZM23.9,0H22.667V-2.382a3.681,3.681,0,0,0-.079-.978.686.686,0,0,0-.257-.345.735.735,0,0,0-.428-.123.99.99,0,0,0-.576.176.886.886,0,0,0-.349.466,4.026,4.026,0,0,0-.094,1.072V0H19.648V-4.667h1.147v.686a1.869,1.869,0,0,1,1.538-.791,1.853,1.853,0,0,1,.747.147,1.252,1.252,0,0,1,.512.376,1.361,1.361,0,0,1,.242.519A3.857,3.857,0,0,1,23.9-2.9Zm5.322-3.287-1.217.22a.883.883,0,0,0-.279-.549.843.843,0,0,0-.565-.185.923.923,0,0,0-.736.319,1.633,1.633,0,0,0-.275,1.066,1.888,1.888,0,0,0,.279,1.173A.916.916,0,0,0,27.18-.9a.832.832,0,0,0,.576-.2,1.2,1.2,0,0,0,.316-.688l1.213.207A2.152,2.152,0,0,1,28.56-.321a2.244,2.244,0,0,1-1.437.426A2.136,2.136,0,0,1,25.49-.541a2.5,2.5,0,0,1-.609-1.789,2.51,2.51,0,0,1,.611-1.8,2.17,2.17,0,0,1,1.652-.644,2.254,2.254,0,0,1,1.356.367A2.033,2.033,0,0,1,29.224-3.287Zm3.639,1.8,1.23.207a2.018,2.018,0,0,1-.749,1.031,2.2,2.2,0,0,1-1.281.354,2.088,2.088,0,0,1-1.8-.8A2.672,2.672,0,0,1,29.8-2.3a2.577,2.577,0,0,1,.606-1.817,2,2,0,0,1,1.534-.657,2.072,2.072,0,0,1,1.644.688,3.043,3.043,0,0,1,.576,2.107H31.065a1.249,1.249,0,0,0,.3.855.935.935,0,0,0,.712.305.756.756,0,0,0,.488-.158A.977.977,0,0,0,32.862-1.485Zm.07-1.248a1.189,1.189,0,0,0-.277-.815.85.85,0,0,0-.642-.279.858.858,0,0,0-.668.294,1.139,1.139,0,0,0-.259.8ZM41.946,0H40.8V-.686a1.853,1.853,0,0,1-.675.6,1.731,1.731,0,0,1-.784.2,1.778,1.778,0,0,1-1.378-.648,2.637,2.637,0,0,1-.573-1.808,2.606,2.606,0,0,1,.558-1.8,1.819,1.819,0,0,1,1.411-.617,1.747,1.747,0,0,1,1.354.65v-2.32h1.235Zm-3.3-2.435a2.137,2.137,0,0,0,.207,1.081.933.933,0,0,0,.835.483.909.909,0,0,0,.725-.363,1.673,1.673,0,0,0,.3-1.083,1.831,1.831,0,0,0-.29-1.158.918.918,0,0,0-.743-.354.928.928,0,0,0-.736.349A1.579,1.579,0,0,0,38.65-2.435Zm7.216.949,1.23.207a2.018,2.018,0,0,1-.749,1.031,2.2,2.2,0,0,1-1.281.354,2.088,2.088,0,0,1-1.8-.8A2.672,2.672,0,0,1,42.8-2.3a2.577,2.577,0,0,1,.606-1.817,2,2,0,0,1,1.534-.657,2.072,2.072,0,0,1,1.644.688,3.043,3.043,0,0,1,.576,2.107H44.068a1.249,1.249,0,0,0,.3.855.935.935,0,0,0,.712.305.756.756,0,0,0,.488-.158A.977.977,0,0,0,45.866-1.485Zm.07-1.248a1.189,1.189,0,0,0-.277-.815.85.85,0,0,0-.642-.279.858.858,0,0,0-.668.294,1.139,1.139,0,0,0-.259.8Zm4.7-1.934h1.151v.686a1.723,1.723,0,0,1,.606-.571,1.672,1.672,0,0,1,.848-.22,1.779,1.779,0,0,1,1.38.637,2.579,2.579,0,0,1,.567,1.775,2.657,2.657,0,0,1-.571,1.817,1.78,1.78,0,0,1-1.384.648,1.573,1.573,0,0,1-.7-.154,2.363,2.363,0,0,1-.661-.527V1.775H50.634Zm1.222,2.254a1.8,1.8,0,0,0,.312,1.162.954.954,0,0,0,.76.376.892.892,0,0,0,.716-.345,1.777,1.777,0,0,0,.286-1.132,1.687,1.687,0,0,0-.294-1.09.911.911,0,0,0-.729-.356.947.947,0,0,0-.751.349A1.555,1.555,0,0,0,51.855-2.413ZM57.349,0H56.114V-4.667h1.147V-4a2,2,0,0,1,.53-.62.974.974,0,0,1,.534-.149,1.567,1.567,0,0,1,.813.233l-.382,1.077a1.084,1.084,0,0,0-.58-.2.685.685,0,0,0-.439.143.976.976,0,0,0-.283.516,7.335,7.335,0,0,0-.1,1.564Zm5.392,0V-.7a1.8,1.8,0,0,1-.67.589,1.879,1.879,0,0,1-.877.215A1.714,1.714,0,0,1,60.35-.1a1.219,1.219,0,0,1-.541-.58,2.589,2.589,0,0,1-.167-1.033V-4.667h1.235v2.145a5.947,5.947,0,0,0,.068,1.206.658.658,0,0,0,.248.352.763.763,0,0,0,.457.13.972.972,0,0,0,.567-.174.883.883,0,0,0,.343-.431A5,5,0,0,0,62.653-2.7V-4.667h1.235V0Zm5.128-1.485,1.23.207A2.018,2.018,0,0,1,68.35-.248a2.2,2.2,0,0,1-1.281.354,2.088,2.088,0,0,1-1.8-.8A2.672,2.672,0,0,1,64.806-2.3a2.577,2.577,0,0,1,.606-1.817,2,2,0,0,1,1.534-.657,2.072,2.072,0,0,1,1.644.688,3.043,3.043,0,0,1,.576,2.107H66.072a1.249,1.249,0,0,0,.3.855.935.935,0,0,0,.712.305.756.756,0,0,0,.488-.158A.977.977,0,0,0,67.869-1.485Zm.07-1.248a1.189,1.189,0,0,0-.277-.815.85.85,0,0,0-.642-.279.858.858,0,0,0-.668.294,1.139,1.139,0,0,0-.259.8ZM70.119,0V-6.442h1.235v2.32a1.747,1.747,0,0,1,1.354-.65,1.819,1.819,0,0,1,1.411.617,2.556,2.556,0,0,1,.558,1.773,2.7,2.7,0,0,1-.569,1.841,1.776,1.776,0,0,1-1.382.646,1.708,1.708,0,0,1-.789-.2,1.886,1.886,0,0,1-.67-.591V0Zm1.226-2.435a1.985,1.985,0,0,0,.229,1.072.977.977,0,0,0,.853.492.874.874,0,0,0,.7-.349,1.719,1.719,0,0,0,.288-1.1,1.823,1.823,0,0,0-.29-1.154.918.918,0,0,0-.743-.354.931.931,0,0,0-.738.345A1.584,1.584,0,0,0,71.345-2.435Zm5.247-.809-1.121-.2a1.745,1.745,0,0,1,.65-1,2.38,2.38,0,0,1,1.371-.325,2.955,2.955,0,0,1,1.23.2,1.227,1.227,0,0,1,.569.5,2.546,2.546,0,0,1,.165,1.105l-.013,1.441a5,5,0,0,0,.059.907A2.649,2.649,0,0,0,79.726,0H78.5q-.048-.123-.119-.365-.031-.11-.044-.145a2.226,2.226,0,0,1-.677.461A1.938,1.938,0,0,1,76.9.105,1.59,1.59,0,0,1,75.76-.286a1.3,1.3,0,0,1-.415-.989,1.327,1.327,0,0,1,.189-.705,1.235,1.235,0,0,1,.53-.475,4.139,4.139,0,0,1,.982-.288,6.728,6.728,0,0,0,1.2-.3v-.123a.639.639,0,0,0-.176-.508,1.053,1.053,0,0,0-.664-.152.884.884,0,0,0-.514.13A.9.9,0,0,0,76.592-3.243Zm1.652,1a7.719,7.719,0,0,1-.751.189,2.264,2.264,0,0,0-.672.215.515.515,0,0,0-.242.435.606.606,0,0,0,.193.448.675.675,0,0,0,.492.189,1.069,1.069,0,0,0,.637-.22.773.773,0,0,0,.294-.409,2.438,2.438,0,0,0,.048-.6Z" transform="translate(-2817.493 -10188.607)" fill="#12263f"/>
    <path id="Trazado_143850" data-name="Trazado 143850" d="M4.777-2.369l1.261.4A2.829,2.829,0,0,1,5.073-.4,2.751,2.751,0,0,1,3.362.11,2.771,2.771,0,0,1,1.252-.767a3.355,3.355,0,0,1-.826-2.4,3.522,3.522,0,0,1,.831-2.5,2.848,2.848,0,0,1,2.184-.89,2.68,2.68,0,0,1,1.92.7,2.541,2.541,0,0,1,.659,1.187l-1.288.308a1.366,1.366,0,0,0-.477-.791,1.366,1.366,0,0,0-.881-.29,1.466,1.466,0,0,0-1.162.514,2.52,2.52,0,0,0-.446,1.666,2.7,2.7,0,0,0,.439,1.74A1.427,1.427,0,0,0,3.349-1a1.3,1.3,0,0,0,.892-.33A1.914,1.914,0,0,0,4.777-2.369ZM6.86-2.4a2.525,2.525,0,0,1,.3-1.191,2.081,2.081,0,0,1,.859-.879,2.55,2.55,0,0,1,1.241-.3A2.33,2.33,0,0,1,11-4.085a2.376,2.376,0,0,1,.677,1.738,2.4,2.4,0,0,1-.683,1.756,2.31,2.31,0,0,1-1.72.7,2.71,2.71,0,0,1-1.224-.29,1.99,1.99,0,0,1-.885-.85A2.833,2.833,0,0,1,6.86-2.4Zm1.266.066a1.546,1.546,0,0,0,.33,1.063A1.047,1.047,0,0,0,9.268-.9a1.041,1.041,0,0,0,.811-.369,1.568,1.568,0,0,0,.327-1.072A1.539,1.539,0,0,0,10.079-3.4a1.041,1.041,0,0,0-.811-.369,1.047,1.047,0,0,0-.813.369A1.546,1.546,0,0,0,8.125-2.333Zm.519-2.9L9.25-6.552h1.384L9.426-5.238ZM16.923,0H15.776V-.686a1.853,1.853,0,0,1-.675.6,1.731,1.731,0,0,1-.784.2A1.778,1.778,0,0,1,12.94-.543a2.637,2.637,0,0,1-.573-1.808,2.606,2.606,0,0,1,.558-1.8,1.819,1.819,0,0,1,1.411-.617,1.747,1.747,0,0,1,1.354.65v-2.32h1.235Zm-3.3-2.435a2.137,2.137,0,0,0,.207,1.081.933.933,0,0,0,.835.483.909.909,0,0,0,.725-.363,1.673,1.673,0,0,0,.3-1.083,1.831,1.831,0,0,0-.29-1.158.918.918,0,0,0-.743-.354.928.928,0,0,0-.736.349A1.579,1.579,0,0,0,13.627-2.435ZM18.141-5.3V-6.442h1.235V-5.3Zm0,5.3V-4.667h1.235V0Zm2.386.308,1.411.171A.482.482,0,0,0,22.1.817a.928.928,0,0,0,.554.132A1.438,1.438,0,0,0,23.379.8a.6.6,0,0,0,.246-.312,1.875,1.875,0,0,0,.057-.567V-.756a1.671,1.671,0,0,1-1.4.756,1.72,1.72,0,0,1-1.49-.8,2.7,2.7,0,0,1-.431-1.564,2.573,2.573,0,0,1,.565-1.793,1.822,1.822,0,0,1,1.4-.62,1.709,1.709,0,0,1,1.428.76v-.655h1.156V-.479A4.173,4.173,0,0,1,24.781.756,1.53,1.53,0,0,1,24.4,1.4a1.691,1.691,0,0,1-.657.365,3.458,3.458,0,0,1-1.039.132,2.69,2.69,0,0,1-1.683-.406,1.275,1.275,0,0,1-.5-1.031Q20.522.4,20.527.308Zm1.1-2.738a1.683,1.683,0,0,0,.288,1.088.89.89,0,0,0,.71.345.981.981,0,0,0,.765-.354A1.542,1.542,0,0,0,23.7-2.4a1.634,1.634,0,0,0-.3-1.077.95.95,0,0,0-.756-.352.912.912,0,0,0-.732.345A1.618,1.618,0,0,0,21.63-2.43Zm4.223.031a2.525,2.525,0,0,1,.3-1.191,2.081,2.081,0,0,1,.859-.879,2.55,2.55,0,0,1,1.241-.3,2.33,2.33,0,0,1,1.736.688,2.376,2.376,0,0,1,.677,1.738,2.4,2.4,0,0,1-.683,1.756,2.31,2.31,0,0,1-1.72.7,2.71,2.71,0,0,1-1.224-.29,1.99,1.99,0,0,1-.885-.85A2.833,2.833,0,0,1,25.853-2.4Zm1.266.066a1.546,1.546,0,0,0,.33,1.063,1.047,1.047,0,0,0,.813.369,1.041,1.041,0,0,0,.811-.369A1.568,1.568,0,0,0,29.4-2.342,1.539,1.539,0,0,0,29.072-3.4a1.041,1.041,0,0,0-.811-.369,1.047,1.047,0,0,0-.813.369A1.546,1.546,0,0,0,27.119-2.333Z" transform="translate(-3049.874 -10154)" fill="#12263f"/>
    <path id="Trazado_143853" data-name="Trazado 143853" d="M.65-6.442H3.028a4.643,4.643,0,0,1,1.226.123,2.154,2.154,0,0,1,.971.593A2.815,2.815,0,0,1,5.84-4.682,4.754,4.754,0,0,1,6.051-3.16a4.234,4.234,0,0,1-.2,1.371A2.84,2.84,0,0,1,5.164-.65a2.287,2.287,0,0,1-.914.514A3.935,3.935,0,0,1,3.1,0H.65Zm1.3,1.09v4.267h.971a3.544,3.544,0,0,0,.787-.062,1.2,1.2,0,0,0,.525-.268,1.364,1.364,0,0,0,.341-.622,4.2,4.2,0,0,0,.132-1.18,3.849,3.849,0,0,0-.132-1.147,1.474,1.474,0,0,0-.369-.624,1.238,1.238,0,0,0-.6-.3,5.9,5.9,0,0,0-1.068-.062Zm7.9,3.867,1.23.207a2.018,2.018,0,0,1-.749,1.031A2.2,2.2,0,0,1,9.048.105a2.088,2.088,0,0,1-1.8-.8A2.672,2.672,0,0,1,6.785-2.3a2.577,2.577,0,0,1,.606-1.817,2,2,0,0,1,1.534-.657,2.072,2.072,0,0,1,1.644.688,3.043,3.043,0,0,1,.576,2.107H8.051a1.249,1.249,0,0,0,.3.855.935.935,0,0,0,.712.305.756.756,0,0,0,.488-.158A.977.977,0,0,0,9.848-1.485Zm.07-1.248a1.189,1.189,0,0,0-.277-.815A.85.85,0,0,0,9-3.828a.858.858,0,0,0-.668.294,1.139,1.139,0,0,0-.259.8Zm-1.578-2.5.606-1.314h1.384L9.123-5.238ZM12.1,0V-6.442h1.235v2.32a1.747,1.747,0,0,1,1.354-.65,1.819,1.819,0,0,1,1.411.617,2.556,2.556,0,0,1,.558,1.773,2.7,2.7,0,0,1-.569,1.841A1.776,1.776,0,0,1,14.7.105a1.708,1.708,0,0,1-.789-.2,1.886,1.886,0,0,1-.67-.591V0Zm1.226-2.435a1.985,1.985,0,0,0,.229,1.072.977.977,0,0,0,.853.492.874.874,0,0,0,.7-.349,1.719,1.719,0,0,0,.288-1.1,1.823,1.823,0,0,0-.29-1.154.918.918,0,0,0-.743-.354.931.931,0,0,0-.738.345A1.584,1.584,0,0,0,13.324-2.435ZM17.648-5.3V-6.442h1.235V-5.3Zm0,5.3V-4.667h1.235V0Zm4.641-4.667v.984h-.844V-1.8a4.678,4.678,0,0,0,.024.666.271.271,0,0,0,.11.156.348.348,0,0,0,.209.062,1.6,1.6,0,0,0,.5-.119l.105.958a2.455,2.455,0,0,1-.976.185,1.547,1.547,0,0,1-.6-.112.879.879,0,0,1-.393-.29,1.145,1.145,0,0,1-.174-.481,5.986,5.986,0,0,1-.04-.87V-3.683h-.567v-.984h.567v-.927l1.239-.721v1.648ZM22.86-2.4a2.525,2.525,0,0,1,.3-1.191,2.081,2.081,0,0,1,.859-.879,2.55,2.55,0,0,1,1.241-.3A2.33,2.33,0,0,1,27-4.085a2.376,2.376,0,0,1,.677,1.738,2.4,2.4,0,0,1-.683,1.756,2.31,2.31,0,0,1-1.72.7,2.71,2.71,0,0,1-1.224-.29,1.99,1.99,0,0,1-.885-.85A2.833,2.833,0,0,1,22.86-2.4Zm1.266.066a1.546,1.546,0,0,0,.33,1.063,1.047,1.047,0,0,0,.813.369,1.041,1.041,0,0,0,.811-.369,1.568,1.568,0,0,0,.327-1.072A1.539,1.539,0,0,0,26.079-3.4a1.041,1.041,0,0,0-.811-.369,1.047,1.047,0,0,0-.813.369A1.546,1.546,0,0,0,24.126-2.333Z" transform="translate(-2855.545 -10140.813)" fill="#12263f"/>
    <path id="Trazado_143855" data-name="Trazado 143855" d="M.65-6.442H3.028a4.643,4.643,0,0,1,1.226.123,2.154,2.154,0,0,1,.971.593A2.815,2.815,0,0,1,5.84-4.682,4.754,4.754,0,0,1,6.051-3.16a4.234,4.234,0,0,1-.2,1.371A2.84,2.84,0,0,1,5.164-.65a2.287,2.287,0,0,1-.914.514A3.935,3.935,0,0,1,3.1,0H.65Zm1.3,1.09v4.267h.971a3.544,3.544,0,0,0,.787-.062,1.2,1.2,0,0,0,.525-.268,1.364,1.364,0,0,0,.341-.622,4.2,4.2,0,0,0,.132-1.18,3.849,3.849,0,0,0-.132-1.147,1.474,1.474,0,0,0-.369-.624,1.238,1.238,0,0,0-.6-.3,5.9,5.9,0,0,0-1.068-.062Zm7.9,3.867,1.23.207a2.018,2.018,0,0,1-.749,1.031A2.2,2.2,0,0,1,9.048.105a2.088,2.088,0,0,1-1.8-.8A2.672,2.672,0,0,1,6.785-2.3a2.577,2.577,0,0,1,.606-1.817,2,2,0,0,1,1.534-.657,2.072,2.072,0,0,1,1.644.688,3.043,3.043,0,0,1,.576,2.107H8.051a1.249,1.249,0,0,0,.3.855.935.935,0,0,0,.712.305.756.756,0,0,0,.488-.158A.977.977,0,0,0,9.848-1.485Zm.07-1.248a1.189,1.189,0,0,0-.277-.815A.85.85,0,0,0,9-3.828a.858.858,0,0,0-.668.294,1.139,1.139,0,0,0-.259.8Zm-1.578-2.5.606-1.314h1.384L9.123-5.238ZM12.1,0V-6.442h1.235v2.32a1.747,1.747,0,0,1,1.354-.65,1.819,1.819,0,0,1,1.411.617,2.556,2.556,0,0,1,.558,1.773,2.7,2.7,0,0,1-.569,1.841A1.776,1.776,0,0,1,14.7.105a1.708,1.708,0,0,1-.789-.2,1.886,1.886,0,0,1-.67-.591V0Zm1.226-2.435a1.985,1.985,0,0,0,.229,1.072.977.977,0,0,0,.853.492.874.874,0,0,0,.7-.349,1.719,1.719,0,0,0,.288-1.1,1.823,1.823,0,0,0-.29-1.154.918.918,0,0,0-.743-.354.931.931,0,0,0-.738.345A1.584,1.584,0,0,0,13.324-2.435ZM17.648-5.3V-6.442h1.235V-5.3Zm0,5.3V-4.667h1.235V0Zm4.641-4.667v.984h-.844V-1.8a4.678,4.678,0,0,0,.024.666.271.271,0,0,0,.11.156.348.348,0,0,0,.209.062,1.6,1.6,0,0,0,.5-.119l.105.958a2.455,2.455,0,0,1-.976.185,1.547,1.547,0,0,1-.6-.112.879.879,0,0,1-.393-.29,1.145,1.145,0,0,1-.174-.481,5.986,5.986,0,0,1-.04-.87V-3.683h-.567v-.984h.567v-.927l1.239-.721v1.648ZM22.86-2.4a2.525,2.525,0,0,1,.3-1.191,2.081,2.081,0,0,1,.859-.879,2.55,2.55,0,0,1,1.241-.3A2.33,2.33,0,0,1,27-4.085a2.376,2.376,0,0,1,.677,1.738,2.4,2.4,0,0,1-.683,1.756,2.31,2.31,0,0,1-1.72.7,2.71,2.71,0,0,1-1.224-.29,1.99,1.99,0,0,1-.885-.85A2.833,2.833,0,0,1,22.86-2.4Zm1.266.066a1.546,1.546,0,0,0,.33,1.063,1.047,1.047,0,0,0,.813.369,1.041,1.041,0,0,0,.811-.369,1.568,1.568,0,0,0,.327-1.072A1.539,1.539,0,0,0,26.079-3.4a1.041,1.041,0,0,0-.811-.369,1.047,1.047,0,0,0-.813.369A1.546,1.546,0,0,0,24.126-2.333Z" transform="translate(-2720.572 -10140.813)" fill="#12263f"/>
    <path id="Trazado_143859" data-name="Trazado 143859" d="M.65-6.442H3.028a4.643,4.643,0,0,1,1.226.123,2.154,2.154,0,0,1,.971.593A2.815,2.815,0,0,1,5.84-4.682,4.754,4.754,0,0,1,6.051-3.16a4.234,4.234,0,0,1-.2,1.371A2.84,2.84,0,0,1,5.164-.65a2.287,2.287,0,0,1-.914.514A3.935,3.935,0,0,1,3.1,0H.65Zm1.3,1.09v4.267h.971a3.544,3.544,0,0,0,.787-.062,1.2,1.2,0,0,0,.525-.268,1.364,1.364,0,0,0,.341-.622,4.2,4.2,0,0,0,.132-1.18,3.849,3.849,0,0,0-.132-1.147,1.474,1.474,0,0,0-.369-.624,1.238,1.238,0,0,0-.6-.3,5.9,5.9,0,0,0-1.068-.062Zm7.9,3.867,1.23.207a2.018,2.018,0,0,1-.749,1.031A2.2,2.2,0,0,1,9.048.105a2.088,2.088,0,0,1-1.8-.8A2.672,2.672,0,0,1,6.785-2.3a2.577,2.577,0,0,1,.606-1.817,2,2,0,0,1,1.534-.657,2.072,2.072,0,0,1,1.644.688,3.043,3.043,0,0,1,.576,2.107H8.051a1.249,1.249,0,0,0,.3.855.935.935,0,0,0,.712.305.756.756,0,0,0,.488-.158A.977.977,0,0,0,9.848-1.485Zm.07-1.248a1.189,1.189,0,0,0-.277-.815A.85.85,0,0,0,9-3.828a.858.858,0,0,0-.668.294,1.139,1.139,0,0,0-.259.8Zm-1.578-2.5.606-1.314h1.384L9.123-5.238ZM12.1,0V-6.442h1.235v2.32a1.747,1.747,0,0,1,1.354-.65,1.819,1.819,0,0,1,1.411.617,2.556,2.556,0,0,1,.558,1.773,2.7,2.7,0,0,1-.569,1.841A1.776,1.776,0,0,1,14.7.105a1.708,1.708,0,0,1-.789-.2,1.886,1.886,0,0,1-.67-.591V0Zm1.226-2.435a1.985,1.985,0,0,0,.229,1.072.977.977,0,0,0,.853.492.874.874,0,0,0,.7-.349,1.719,1.719,0,0,0,.288-1.1,1.823,1.823,0,0,0-.29-1.154.918.918,0,0,0-.743-.354.931.931,0,0,0-.738.345A1.584,1.584,0,0,0,13.324-2.435ZM17.648-5.3V-6.442h1.235V-5.3Zm0,5.3V-4.667h1.235V0Zm4.641-4.667v.984h-.844V-1.8a4.678,4.678,0,0,0,.024.666.271.271,0,0,0,.11.156.348.348,0,0,0,.209.062,1.6,1.6,0,0,0,.5-.119l.105.958a2.455,2.455,0,0,1-.976.185,1.547,1.547,0,0,1-.6-.112.879.879,0,0,1-.393-.29,1.145,1.145,0,0,1-.174-.481,5.986,5.986,0,0,1-.04-.87V-3.683h-.567v-.984h.567v-.927l1.239-.721v1.648ZM22.86-2.4a2.525,2.525,0,0,1,.3-1.191,2.081,2.081,0,0,1,.859-.879,2.55,2.55,0,0,1,1.241-.3A2.33,2.33,0,0,1,27-4.085a2.376,2.376,0,0,1,.677,1.738,2.4,2.4,0,0,1-.683,1.756,2.31,2.31,0,0,1-1.72.7,2.71,2.71,0,0,1-1.224-.29,1.99,1.99,0,0,1-.885-.85A2.833,2.833,0,0,1,22.86-2.4Zm1.266.066a1.546,1.546,0,0,0,.33,1.063,1.047,1.047,0,0,0,.813.369,1.041,1.041,0,0,0,.811-.369,1.568,1.568,0,0,0,.327-1.072A1.539,1.539,0,0,0,26.079-3.4a1.041,1.041,0,0,0-.811-.369,1.047,1.047,0,0,0-.813.369A1.546,1.546,0,0,0,24.126-2.333Z" transform="translate(-2598.94 -10140.813)" fill="#12263f"/>
    <path id="Trazado_143854" data-name="Trazado 143854" d="M4.777-2.369l1.261.4A2.829,2.829,0,0,1,5.073-.4,2.751,2.751,0,0,1,3.362.11,2.771,2.771,0,0,1,1.252-.767a3.355,3.355,0,0,1-.826-2.4,3.522,3.522,0,0,1,.831-2.5,2.848,2.848,0,0,1,2.184-.89,2.68,2.68,0,0,1,1.92.7,2.541,2.541,0,0,1,.659,1.187l-1.288.308a1.366,1.366,0,0,0-.477-.791,1.366,1.366,0,0,0-.881-.29,1.466,1.466,0,0,0-1.162.514,2.52,2.52,0,0,0-.446,1.666,2.7,2.7,0,0,0,.439,1.74A1.427,1.427,0,0,0,3.349-1a1.3,1.3,0,0,0,.892-.33A1.914,1.914,0,0,0,4.777-2.369ZM8.328,0H7.093V-4.667H8.24V-4a2,2,0,0,1,.53-.62A.974.974,0,0,1,9.3-4.772a1.567,1.567,0,0,1,.813.233L9.734-3.463a1.084,1.084,0,0,0-.58-.2.685.685,0,0,0-.439.143.976.976,0,0,0-.283.516,7.335,7.335,0,0,0-.1,1.564Zm5.023-1.485,1.23.207a2.018,2.018,0,0,1-.749,1.031,2.2,2.2,0,0,1-1.281.354,2.088,2.088,0,0,1-1.8-.8A2.672,2.672,0,0,1,10.288-2.3a2.577,2.577,0,0,1,.606-1.817,2,2,0,0,1,1.534-.657,2.072,2.072,0,0,1,1.644.688,3.043,3.043,0,0,1,.576,2.107H11.553a1.249,1.249,0,0,0,.3.855.935.935,0,0,0,.712.305.756.756,0,0,0,.488-.158A.977.977,0,0,0,13.351-1.485Zm.07-1.248a1.189,1.189,0,0,0-.277-.815.85.85,0,0,0-.642-.279.858.858,0,0,0-.668.294,1.139,1.139,0,0,0-.259.8Zm-1.578-2.5.606-1.314h1.384L12.625-5.238ZM19.934,0H18.787V-.686a1.853,1.853,0,0,1-.675.6,1.731,1.731,0,0,1-.784.2A1.778,1.778,0,0,1,15.95-.543a2.637,2.637,0,0,1-.573-1.808,2.606,2.606,0,0,1,.558-1.8,1.819,1.819,0,0,1,1.411-.617,1.747,1.747,0,0,1,1.354.65v-2.32h1.235Zm-3.3-2.435a2.137,2.137,0,0,0,.207,1.081.933.933,0,0,0,.835.483.909.909,0,0,0,.725-.363,1.673,1.673,0,0,0,.3-1.083,1.831,1.831,0,0,0-.29-1.158.918.918,0,0,0-.743-.354.928.928,0,0,0-.736.349A1.579,1.579,0,0,0,16.638-2.435ZM21.151-5.3V-6.442h1.235V-5.3Zm0,5.3V-4.667h1.235V0Zm4.641-4.667v.984h-.844V-1.8a4.678,4.678,0,0,0,.024.666.271.271,0,0,0,.11.156.348.348,0,0,0,.209.062,1.6,1.6,0,0,0,.5-.119l.105.958a2.455,2.455,0,0,1-.976.185,1.547,1.547,0,0,1-.6-.112.879.879,0,0,1-.393-.29,1.145,1.145,0,0,1-.174-.481,5.986,5.986,0,0,1-.04-.87V-3.683h-.567v-.984h.567v-.927l1.239-.721v1.648ZM26.363-2.4a2.525,2.525,0,0,1,.3-1.191,2.081,2.081,0,0,1,.859-.879,2.55,2.55,0,0,1,1.241-.3,2.33,2.33,0,0,1,1.736.688,2.376,2.376,0,0,1,.677,1.738A2.4,2.4,0,0,1,30.5-.591a2.31,2.31,0,0,1-1.72.7,2.71,2.71,0,0,1-1.224-.29,1.99,1.99,0,0,1-.885-.85A2.833,2.833,0,0,1,26.363-2.4Zm1.266.066a1.546,1.546,0,0,0,.33,1.063,1.047,1.047,0,0,0,.813.369,1.041,1.041,0,0,0,.811-.369,1.568,1.568,0,0,0,.327-1.072A1.539,1.539,0,0,0,29.582-3.4a1.041,1.041,0,0,0-.811-.369,1.047,1.047,0,0,0-.813.369A1.546,1.546,0,0,0,27.628-2.333Z" transform="translate(-2791.993 -10140.813)" fill="#12263f"/>
    <path id="Trazado_143857" data-name="Trazado 143857" d="M4.777-2.369l1.261.4A2.829,2.829,0,0,1,5.073-.4,2.751,2.751,0,0,1,3.362.11,2.771,2.771,0,0,1,1.252-.767a3.355,3.355,0,0,1-.826-2.4,3.522,3.522,0,0,1,.831-2.5,2.848,2.848,0,0,1,2.184-.89,2.68,2.68,0,0,1,1.92.7,2.541,2.541,0,0,1,.659,1.187l-1.288.308a1.366,1.366,0,0,0-.477-.791,1.366,1.366,0,0,0-.881-.29,1.466,1.466,0,0,0-1.162.514,2.52,2.52,0,0,0-.446,1.666,2.7,2.7,0,0,0,.439,1.74A1.427,1.427,0,0,0,3.349-1a1.3,1.3,0,0,0,.892-.33A1.914,1.914,0,0,0,4.777-2.369ZM8.328,0H7.093V-4.667H8.24V-4a2,2,0,0,1,.53-.62A.974.974,0,0,1,9.3-4.772a1.567,1.567,0,0,1,.813.233L9.734-3.463a1.084,1.084,0,0,0-.58-.2.685.685,0,0,0-.439.143.976.976,0,0,0-.283.516,7.335,7.335,0,0,0-.1,1.564Zm5.023-1.485,1.23.207a2.018,2.018,0,0,1-.749,1.031,2.2,2.2,0,0,1-1.281.354,2.088,2.088,0,0,1-1.8-.8A2.672,2.672,0,0,1,10.288-2.3a2.577,2.577,0,0,1,.606-1.817,2,2,0,0,1,1.534-.657,2.072,2.072,0,0,1,1.644.688,3.043,3.043,0,0,1,.576,2.107H11.553a1.249,1.249,0,0,0,.3.855.935.935,0,0,0,.712.305.756.756,0,0,0,.488-.158A.977.977,0,0,0,13.351-1.485Zm.07-1.248a1.189,1.189,0,0,0-.277-.815.85.85,0,0,0-.642-.279.858.858,0,0,0-.668.294,1.139,1.139,0,0,0-.259.8Zm-1.578-2.5.606-1.314h1.384L12.625-5.238ZM19.934,0H18.787V-.686a1.853,1.853,0,0,1-.675.6,1.731,1.731,0,0,1-.784.2A1.778,1.778,0,0,1,15.95-.543a2.637,2.637,0,0,1-.573-1.808,2.606,2.606,0,0,1,.558-1.8,1.819,1.819,0,0,1,1.411-.617,1.747,1.747,0,0,1,1.354.65v-2.32h1.235Zm-3.3-2.435a2.137,2.137,0,0,0,.207,1.081.933.933,0,0,0,.835.483.909.909,0,0,0,.725-.363,1.673,1.673,0,0,0,.3-1.083,1.831,1.831,0,0,0-.29-1.158.918.918,0,0,0-.743-.354.928.928,0,0,0-.736.349A1.579,1.579,0,0,0,16.638-2.435ZM21.151-5.3V-6.442h1.235V-5.3Zm0,5.3V-4.667h1.235V0Zm4.641-4.667v.984h-.844V-1.8a4.678,4.678,0,0,0,.024.666.271.271,0,0,0,.11.156.348.348,0,0,0,.209.062,1.6,1.6,0,0,0,.5-.119l.105.958a2.455,2.455,0,0,1-.976.185,1.547,1.547,0,0,1-.6-.112.879.879,0,0,1-.393-.29,1.145,1.145,0,0,1-.174-.481,5.986,5.986,0,0,1-.04-.87V-3.683h-.567v-.984h.567v-.927l1.239-.721v1.648ZM26.363-2.4a2.525,2.525,0,0,1,.3-1.191,2.081,2.081,0,0,1,.859-.879,2.55,2.55,0,0,1,1.241-.3,2.33,2.33,0,0,1,1.736.688,2.376,2.376,0,0,1,.677,1.738A2.4,2.4,0,0,1,30.5-.591a2.31,2.31,0,0,1-1.72.7,2.71,2.71,0,0,1-1.224-.29,1.99,1.99,0,0,1-.885-.85A2.833,2.833,0,0,1,26.363-2.4Zm1.266.066a1.546,1.546,0,0,0,.33,1.063,1.047,1.047,0,0,0,.813.369,1.041,1.041,0,0,0,.811-.369,1.568,1.568,0,0,0,.327-1.072A1.539,1.539,0,0,0,29.582-3.4a1.041,1.041,0,0,0-.811-.369,1.047,1.047,0,0,0-.813.369A1.546,1.546,0,0,0,27.628-2.333Z" transform="translate(-2657.02 -10140.813)" fill="#12263f"/>
    <path id="Trazado_143860" data-name="Trazado 143860" d="M4.777-2.369l1.261.4A2.829,2.829,0,0,1,5.073-.4,2.751,2.751,0,0,1,3.362.11,2.771,2.771,0,0,1,1.252-.767a3.355,3.355,0,0,1-.826-2.4,3.522,3.522,0,0,1,.831-2.5,2.848,2.848,0,0,1,2.184-.89,2.68,2.68,0,0,1,1.92.7,2.541,2.541,0,0,1,.659,1.187l-1.288.308a1.366,1.366,0,0,0-.477-.791,1.366,1.366,0,0,0-.881-.29,1.466,1.466,0,0,0-1.162.514,2.52,2.52,0,0,0-.446,1.666,2.7,2.7,0,0,0,.439,1.74A1.427,1.427,0,0,0,3.349-1a1.3,1.3,0,0,0,.892-.33A1.914,1.914,0,0,0,4.777-2.369ZM8.328,0H7.093V-4.667H8.24V-4a2,2,0,0,1,.53-.62A.974.974,0,0,1,9.3-4.772a1.567,1.567,0,0,1,.813.233L9.734-3.463a1.084,1.084,0,0,0-.58-.2.685.685,0,0,0-.439.143.976.976,0,0,0-.283.516,7.335,7.335,0,0,0-.1,1.564Zm5.023-1.485,1.23.207a2.018,2.018,0,0,1-.749,1.031,2.2,2.2,0,0,1-1.281.354,2.088,2.088,0,0,1-1.8-.8A2.672,2.672,0,0,1,10.288-2.3a2.577,2.577,0,0,1,.606-1.817,2,2,0,0,1,1.534-.657,2.072,2.072,0,0,1,1.644.688,3.043,3.043,0,0,1,.576,2.107H11.553a1.249,1.249,0,0,0,.3.855.935.935,0,0,0,.712.305.756.756,0,0,0,.488-.158A.977.977,0,0,0,13.351-1.485Zm.07-1.248a1.189,1.189,0,0,0-.277-.815.85.85,0,0,0-.642-.279.858.858,0,0,0-.668.294,1.139,1.139,0,0,0-.259.8Zm-1.578-2.5.606-1.314h1.384L12.625-5.238ZM19.934,0H18.787V-.686a1.853,1.853,0,0,1-.675.6,1.731,1.731,0,0,1-.784.2A1.778,1.778,0,0,1,15.95-.543a2.637,2.637,0,0,1-.573-1.808,2.606,2.606,0,0,1,.558-1.8,1.819,1.819,0,0,1,1.411-.617,1.747,1.747,0,0,1,1.354.65v-2.32h1.235Zm-3.3-2.435a2.137,2.137,0,0,0,.207,1.081.933.933,0,0,0,.835.483.909.909,0,0,0,.725-.363,1.673,1.673,0,0,0,.3-1.083,1.831,1.831,0,0,0-.29-1.158.918.918,0,0,0-.743-.354.928.928,0,0,0-.736.349A1.579,1.579,0,0,0,16.638-2.435ZM21.151-5.3V-6.442h1.235V-5.3Zm0,5.3V-4.667h1.235V0Zm4.641-4.667v.984h-.844V-1.8a4.678,4.678,0,0,0,.024.666.271.271,0,0,0,.11.156.348.348,0,0,0,.209.062,1.6,1.6,0,0,0,.5-.119l.105.958a2.455,2.455,0,0,1-.976.185,1.547,1.547,0,0,1-.6-.112.879.879,0,0,1-.393-.29,1.145,1.145,0,0,1-.174-.481,5.986,5.986,0,0,1-.04-.87V-3.683h-.567v-.984h.567v-.927l1.239-.721v1.648ZM26.363-2.4a2.525,2.525,0,0,1,.3-1.191,2.081,2.081,0,0,1,.859-.879,2.55,2.55,0,0,1,1.241-.3,2.33,2.33,0,0,1,1.736.688,2.376,2.376,0,0,1,.677,1.738A2.4,2.4,0,0,1,30.5-.591a2.31,2.31,0,0,1-1.72.7,2.71,2.71,0,0,1-1.224-.29,1.99,1.99,0,0,1-.885-.85A2.833,2.833,0,0,1,26.363-2.4Zm1.266.066a1.546,1.546,0,0,0,.33,1.063,1.047,1.047,0,0,0,.813.369,1.041,1.041,0,0,0,.811-.369,1.568,1.568,0,0,0,.327-1.072A1.539,1.539,0,0,0,29.582-3.4a1.041,1.041,0,0,0-.811-.369,1.047,1.047,0,0,0-.813.369A1.546,1.546,0,0,0,27.628-2.333Z" transform="translate(-2544.224 -10140.813)" fill="#12263f"/>
    <path id="Trazado_143852" data-name="Trazado 143852" d="M.571-2.087l1.261-.066a1.408,1.408,0,0,0,.207.813A1.358,1.358,0,0,0,3.111-1a1.507,1.507,0,0,0,.94-.233.7.7,0,0,0,.29-.562A.607.607,0,0,0,4.1-2.276a4.613,4.613,0,0,0-.916-.47,8.725,8.725,0,0,1-1.094-.543,1.59,1.59,0,0,1-.543-.565,1.615,1.615,0,0,1-.2-.813,1.747,1.747,0,0,1,.589-1.349,2.449,2.449,0,0,1,1.705-.536A2.622,2.622,0,0,1,5.4-6.021a1.959,1.959,0,0,1,.683,1.415l-1.27.057a1.034,1.034,0,0,0-.334-.708A1.261,1.261,0,0,0,3.639-5.5a1.244,1.244,0,0,0-.784.193.605.605,0,0,0-.235.488.57.57,0,0,0,.215.457,4.417,4.417,0,0,0,.954.505A5.32,5.32,0,0,1,5.2-3.081a1.505,1.505,0,0,1,.453,1.129A1.888,1.888,0,0,1,4.981-.494,2.717,2.717,0,0,1,3.1.11,3.428,3.428,0,0,1,1.663-.169,1.714,1.714,0,0,1,.8-.945,2.357,2.357,0,0,1,.571-2.087ZM8.143-3.344,6.913-3.45a1.851,1.851,0,0,1,.736-.976A2.462,2.462,0,0,1,9.04-4.777a2.039,2.039,0,0,1,1.332.363,1.116,1.116,0,0,1,.431.885,2.889,2.889,0,0,1-.037.448q-.037.237-.261,1.248a6.407,6.407,0,0,0-.185,1.169A2.409,2.409,0,0,0,10.424,0H9.2a2.424,2.424,0,0,1-.092-.527,1.933,1.933,0,0,1-.637.472A1.729,1.729,0,0,1,7.743.11a1.294,1.294,0,0,1-.958-.38,1.328,1.328,0,0,1-.378-.978,1.414,1.414,0,0,1,.415-1.068A2.417,2.417,0,0,1,8.306-2.8a5.89,5.89,0,0,0,1.2-.18A1.557,1.557,0,0,0,9.589-3.4a.424.424,0,0,0-.163-.338.737.737,0,0,0-.483-.136.909.909,0,0,0-.534.138A.688.688,0,0,0,8.143-3.344Zm1.2,1.169a2.589,2.589,0,0,1-.3.057A2.882,2.882,0,0,0,7.8-1.784a.509.509,0,0,0-.207.426.494.494,0,0,0,.158.371.578.578,0,0,0,.417.152,1.1,1.1,0,0,0,.538-.138.947.947,0,0,0,.378-.356,2.432,2.432,0,0,0,.222-.679ZM11.36,0l1.349-6.442h1.257L12.621,0Zm6.82,0h-1.2l.105-.505a2.319,2.319,0,0,1-.675.472,1.878,1.878,0,0,1-.749.143,1.516,1.516,0,0,1-1.176-.494,2.1,2.1,0,0,1-.45-1.461,3.454,3.454,0,0,1,.633-2.026,1.952,1.952,0,0,1,1.674-.905,1.557,1.557,0,0,1,1.411.747l.505-2.413h1.261ZM15.267-1.9a1.129,1.129,0,0,0,.253.782.8.8,0,0,0,.622.281,1.01,1.01,0,0,0,.639-.235,1.591,1.591,0,0,0,.475-.719,2.681,2.681,0,0,0,.178-.927,1.2,1.2,0,0,0-.272-.817.816.816,0,0,0-.628-.312,1.044,1.044,0,0,0-.91.615A2.614,2.614,0,0,0,15.267-1.9Zm4.285-.04a2.88,2.88,0,0,1,.732-2.068,2.528,2.528,0,0,1,1.923-.771,2.2,2.2,0,0,1,1.613.569,2.048,2.048,0,0,1,.58,1.531,2.873,2.873,0,0,1-.725,1.96A2.455,2.455,0,0,1,21.731.11a2.508,2.508,0,0,1-1.169-.264A1.72,1.72,0,0,1,19.8-.9,2.222,2.222,0,0,1,19.551-1.938Zm3.595-.9a.99.99,0,0,0-.261-.719.9.9,0,0,0-.675-.27,1.13,1.13,0,0,0-.725.253,1.624,1.624,0,0,0-.492.734,2.6,2.6,0,0,0-.176.885,1.125,1.125,0,0,0,.272.8.894.894,0,0,0,.686.294,1.071,1.071,0,0,0,.87-.444A2.376,2.376,0,0,0,23.146-2.839ZM24.7-1.305,25.923-1.5a1.182,1.182,0,0,0,.4.547,1.18,1.18,0,0,0,.659.16,1.127,1.127,0,0,0,.69-.193.388.388,0,0,0,.18-.321.33.33,0,0,0-.092-.229,1.6,1.6,0,0,0-.523-.237,5.664,5.664,0,0,1-1.415-.6,1.1,1.1,0,0,1-.426-.9,1.282,1.282,0,0,1,.413-.954,2.364,2.364,0,0,1,1.709-.558,2.337,2.337,0,0,1,1.362.33,1.436,1.436,0,0,1,.584.892l-1.165.2a.719.719,0,0,0-.3-.382,1.276,1.276,0,0,0-.677-.171.955.955,0,0,0-.569.132.378.378,0,0,0-.174.3.338.338,0,0,0,.176.29,4.131,4.131,0,0,0,.708.246,3.748,3.748,0,0,1,1.235.527,1.106,1.106,0,0,1,.439.879,1.485,1.485,0,0,1-.558,1.151A2.315,2.315,0,0,1,27.013.11a2.783,2.783,0,0,1-1.562-.371A1.84,1.84,0,0,1,24.7-1.305Zm9.013-5.137h1.261L34.739-5.3H33.478Zm-.369,1.775h1.261L33.631,0H32.37Zm2.518,0h1.2l-.123.606a3.286,3.286,0,0,1,.837-.552,2.079,2.079,0,0,1,.82-.165,1.231,1.231,0,0,1,.907.33,1.178,1.178,0,0,1,.332.875,5.538,5.538,0,0,1-.145.932L39.138,0H37.876l.554-2.65a5.816,5.816,0,0,0,.123-.708.5.5,0,0,0-.143-.38.548.548,0,0,0-.4-.138,1.116,1.116,0,0,0-.615.233,1.62,1.62,0,0,0-.532.615,5.205,5.205,0,0,0-.316,1.112L36.149,0H34.888Zm5.849-1.775h1.261L42.737-5.3H41.476Zm-.369,1.775H42.6L41.629,0H40.368Zm4.689,2.909,1.226.2a2.585,2.585,0,0,1-.9,1.244A2.3,2.3,0,0,1,44.987.11a1.894,1.894,0,0,1-1.415-.532,2,2,0,0,1-.523-1.463,3.352,3.352,0,0,1,.316-1.437,2.426,2.426,0,0,1,.954-1.066,2.632,2.632,0,0,1,1.4-.389,1.931,1.931,0,0,1,1.318.431,1.634,1.634,0,0,1,.554,1.134l-1.2.127a.9.9,0,0,0-.24-.576.715.715,0,0,0-.512-.185,1.026,1.026,0,0,0-.681.272,1.722,1.722,0,0,0-.486.815A3.427,3.427,0,0,0,44.3-1.74a.919.919,0,0,0,.2.637.652.652,0,0,0,.505.224.938.938,0,0,0,.584-.22A1.42,1.42,0,0,0,46.033-1.758Zm3.186-4.685H50.48L50.243-5.3H48.981ZM48.85-4.667h1.261L49.135,0H47.874Zm3.3,1.323-1.23-.105a1.851,1.851,0,0,1,.736-.976,2.462,2.462,0,0,1,1.391-.352,2.039,2.039,0,0,1,1.332.363,1.116,1.116,0,0,1,.431.885,2.889,2.889,0,0,1-.037.448q-.037.237-.261,1.248A6.407,6.407,0,0,0,54.33-.664,2.409,2.409,0,0,0,54.435,0H53.209a2.424,2.424,0,0,1-.092-.527,1.933,1.933,0,0,1-.637.472,1.729,1.729,0,0,1-.725.165A1.294,1.294,0,0,1,50.8-.27a1.328,1.328,0,0,1-.378-.978,1.414,1.414,0,0,1,.415-1.068A2.417,2.417,0,0,1,52.317-2.8a5.89,5.89,0,0,0,1.2-.18A1.557,1.557,0,0,0,53.6-3.4a.424.424,0,0,0-.163-.338.737.737,0,0,0-.483-.136.909.909,0,0,0-.534.138A.688.688,0,0,0,52.154-3.344Zm1.2,1.169a2.589,2.589,0,0,1-.3.057,2.882,2.882,0,0,0-1.239.334.509.509,0,0,0-.207.426.494.494,0,0,0,.158.371.578.578,0,0,0,.417.152,1.1,1.1,0,0,0,.538-.138.947.947,0,0,0,.378-.356,2.432,2.432,0,0,0,.222-.679ZM55.371,0,56.72-6.442h1.257L56.632,0Zm7.053-1.942H59.26q0,.075,0,.114a1.059,1.059,0,0,0,.266.751.852.852,0,0,0,.648.286,1.08,1.08,0,0,0,.98-.65l1.129.189A2.376,2.376,0,0,1,61.4-.231,2.307,2.307,0,0,1,60.161.11a2.057,2.057,0,0,1-1.529-.6,2.143,2.143,0,0,1-.589-1.575,2.867,2.867,0,0,1,.532-1.705,2.394,2.394,0,0,1,2.07-1.011,1.794,1.794,0,0,1,1.362.53,2.062,2.062,0,0,1,.505,1.483A3.517,3.517,0,0,1,62.424-1.942Zm-1.063-.769q0-.083,0-.127a1.132,1.132,0,0,0-.233-.778.8.8,0,0,0-.624-.259.991.991,0,0,0-.7.294,1.571,1.571,0,0,0-.42.87Zm1.362,1.406L63.945-1.5a1.182,1.182,0,0,0,.4.547,1.18,1.18,0,0,0,.659.16,1.127,1.127,0,0,0,.69-.193.388.388,0,0,0,.18-.321.33.33,0,0,0-.092-.229,1.6,1.6,0,0,0-.523-.237,5.664,5.664,0,0,1-1.415-.6,1.1,1.1,0,0,1-.426-.9,1.282,1.282,0,0,1,.413-.954,2.364,2.364,0,0,1,1.709-.558,2.337,2.337,0,0,1,1.362.33,1.436,1.436,0,0,1,.584.892l-1.165.2a.719.719,0,0,0-.3-.382,1.276,1.276,0,0,0-.677-.171.955.955,0,0,0-.569.132.378.378,0,0,0-.174.3.338.338,0,0,0,.176.29,4.131,4.131,0,0,0,.708.246,3.748,3.748,0,0,1,1.235.527,1.106,1.106,0,0,1,.439.879,1.485,1.485,0,0,1-.558,1.151A2.315,2.315,0,0,1,65.035.11a2.783,2.783,0,0,1-1.562-.371A1.84,1.84,0,0,1,62.723-1.305Z" transform="translate(-2834.545 -10165)" fill="#12263f"/>
    <path id="Trazado_143856" data-name="Trazado 143856" d="M4.074,0H2.817L2.584-5.383,1.56,0H.365L1.709-6.442H3.6l.2,4.513,2.2-4.513H7.906L6.557,0H5.348l1.27-5.344ZM8.042-1.938a2.88,2.88,0,0,1,.732-2.068A2.528,2.528,0,0,1,10.7-4.777a2.2,2.2,0,0,1,1.613.569,2.048,2.048,0,0,1,.58,1.531,2.873,2.873,0,0,1-.725,1.96A2.455,2.455,0,0,1,10.222.11,2.508,2.508,0,0,1,9.053-.154,1.72,1.72,0,0,1,8.292-.9,2.222,2.222,0,0,1,8.042-1.938Zm3.595-.9a.99.99,0,0,0-.261-.719.9.9,0,0,0-.675-.27,1.13,1.13,0,0,0-.725.253,1.624,1.624,0,0,0-.492.734,2.6,2.6,0,0,0-.176.885,1.125,1.125,0,0,0,.272.8.894.894,0,0,0,.686.294,1.071,1.071,0,0,0,.87-.444A2.376,2.376,0,0,0,11.637-2.839ZM15.688,0H14.6l-.936-4.667h1.239l.33,2.035q.136.826.163,1.1.035-.075.305-.569t.332-.6L17.2-4.667h1.362Zm4.017-6.442h1.261L20.729-5.3H19.468Zm-.369,1.775H20.6L19.622,0H18.36Zm2.461,0h1.187l-.119.567a2.081,2.081,0,0,1,1.459-.677,1.31,1.31,0,0,1,.813.22.984.984,0,0,1,.365.606A1.878,1.878,0,0,1,26.2-4.54a2,2,0,0,1,.94-.237,1.207,1.207,0,0,1,.87.3,1.045,1.045,0,0,1,.312.791,4.826,4.826,0,0,1-.123.835L27.6,0H26.336l.6-2.852q.11-.536.11-.606a.4.4,0,0,0-.116-.305.486.486,0,0,0-.349-.112,1.047,1.047,0,0,0-.839.5,3.361,3.361,0,0,0-.457,1.261L24.838,0H23.577l.589-2.821a4.152,4.152,0,0,0,.1-.633.4.4,0,0,0-.125-.3.481.481,0,0,0-.345-.119.871.871,0,0,0-.426.123,1.255,1.255,0,0,0-.385.338,1.994,1.994,0,0,0-.283.554q-.053.158-.171.716L22.083,0H20.821Zm8.411-1.775h1.261L31.232-5.3H29.971Zm-.369,1.775H31.1L30.125,0H28.863Zm6.069,2.725H32.744q0,.075,0,.114a1.059,1.059,0,0,0,.266.751.852.852,0,0,0,.648.286,1.08,1.08,0,0,0,.98-.65l1.129.189a2.376,2.376,0,0,1-.881,1.022A2.307,2.307,0,0,1,33.645.11a2.057,2.057,0,0,1-1.529-.6,2.143,2.143,0,0,1-.589-1.575,2.867,2.867,0,0,1,.532-1.705,2.394,2.394,0,0,1,2.07-1.011,1.794,1.794,0,0,1,1.362.53A2.062,2.062,0,0,1,36-2.764,3.517,3.517,0,0,1,35.908-1.942Zm-1.063-.769q0-.083,0-.127a1.132,1.132,0,0,0-.233-.778.8.8,0,0,0-.624-.259.991.991,0,0,0-.7.294,1.571,1.571,0,0,0-.42.87Zm2.518-1.956h1.2l-.123.606a3.286,3.286,0,0,1,.837-.552,2.079,2.079,0,0,1,.82-.165,1.231,1.231,0,0,1,.907.33,1.178,1.178,0,0,1,.332.875,5.538,5.538,0,0,1-.145.932L40.636,0H39.375l.554-2.65a5.816,5.816,0,0,0,.123-.708.5.5,0,0,0-.143-.38.548.548,0,0,0-.4-.138,1.116,1.116,0,0,0-.615.233,1.62,1.62,0,0,0-.532.615,5.205,5.205,0,0,0-.316,1.112L37.648,0H36.387Zm4.821.936.193-.936h.615l.154-.747,1.446-.87-.338,1.617h.769l-.193.936h-.773l-.409,1.956a6.1,6.1,0,0,0-.11.606.286.286,0,0,0,.092.226.515.515,0,0,0,.334.081q.083,0,.417-.031l-.2.936a3.354,3.354,0,0,1-.668.066,1.491,1.491,0,0,1-.971-.257.886.886,0,0,1-.3-.714,6.681,6.681,0,0,1,.163-.993l.391-1.876Zm2.865,1.793a2.88,2.88,0,0,1,.732-2.068A2.528,2.528,0,0,1,47.7-4.777a2.2,2.2,0,0,1,1.613.569,2.048,2.048,0,0,1,.58,1.531,2.873,2.873,0,0,1-.725,1.96A2.455,2.455,0,0,1,47.228.11a2.508,2.508,0,0,1-1.169-.264A1.72,1.72,0,0,1,45.3-.9,2.222,2.222,0,0,1,45.048-1.938Zm3.595-.9a.99.99,0,0,0-.261-.719.9.9,0,0,0-.675-.27,1.13,1.13,0,0,0-.725.253,1.624,1.624,0,0,0-.492.734,2.6,2.6,0,0,0-.176.885,1.125,1.125,0,0,0,.272.8.894.894,0,0,0,.686.294,1.071,1.071,0,0,0,.87-.444A2.376,2.376,0,0,0,48.643-2.839Z" transform="translate(-2697.796 -10165)" fill="#12263f"/>
    <path id="Trazado_143858" data-name="Trazado 143858" d="M.571-2.087l1.261-.066a1.408,1.408,0,0,0,.207.813A1.358,1.358,0,0,0,3.111-1a1.507,1.507,0,0,0,.94-.233.7.7,0,0,0,.29-.562A.607.607,0,0,0,4.1-2.276a4.613,4.613,0,0,0-.916-.47,8.725,8.725,0,0,1-1.094-.543,1.59,1.59,0,0,1-.543-.565,1.615,1.615,0,0,1-.2-.813,1.747,1.747,0,0,1,.589-1.349,2.449,2.449,0,0,1,1.705-.536A2.622,2.622,0,0,1,5.4-6.021a1.959,1.959,0,0,1,.683,1.415l-1.27.057a1.034,1.034,0,0,0-.334-.708A1.261,1.261,0,0,0,3.639-5.5a1.244,1.244,0,0,0-.784.193.605.605,0,0,0-.235.488.57.57,0,0,0,.215.457,4.417,4.417,0,0,0,.954.505A5.32,5.32,0,0,1,5.2-3.081a1.505,1.505,0,0,1,.453,1.129A1.888,1.888,0,0,1,4.981-.494,2.717,2.717,0,0,1,3.1.11,3.428,3.428,0,0,1,1.663-.169,1.714,1.714,0,0,1,.8-.945,2.357,2.357,0,0,1,.571-2.087ZM8.143-3.344,6.913-3.45a1.851,1.851,0,0,1,.736-.976A2.462,2.462,0,0,1,9.04-4.777a2.039,2.039,0,0,1,1.332.363,1.116,1.116,0,0,1,.431.885,2.889,2.889,0,0,1-.037.448q-.037.237-.261,1.248a6.407,6.407,0,0,0-.185,1.169A2.409,2.409,0,0,0,10.424,0H9.2a2.424,2.424,0,0,1-.092-.527,1.933,1.933,0,0,1-.637.472A1.729,1.729,0,0,1,7.743.11a1.294,1.294,0,0,1-.958-.38,1.328,1.328,0,0,1-.378-.978,1.414,1.414,0,0,1,.415-1.068A2.417,2.417,0,0,1,8.306-2.8a5.89,5.89,0,0,0,1.2-.18A1.557,1.557,0,0,0,9.589-3.4a.424.424,0,0,0-.163-.338.737.737,0,0,0-.483-.136.909.909,0,0,0-.534.138A.688.688,0,0,0,8.143-3.344Zm1.2,1.169a2.589,2.589,0,0,1-.3.057A2.882,2.882,0,0,0,7.8-1.784a.509.509,0,0,0-.207.426.494.494,0,0,0,.158.371.578.578,0,0,0,.417.152,1.1,1.1,0,0,0,.538-.138.947.947,0,0,0,.378-.356,2.432,2.432,0,0,0,.222-.679ZM11.36,0l1.349-6.442h1.257L12.621,0Zm6.82,0h-1.2l.105-.505a2.319,2.319,0,0,1-.675.472,1.878,1.878,0,0,1-.749.143,1.516,1.516,0,0,1-1.176-.494,2.1,2.1,0,0,1-.45-1.461,3.454,3.454,0,0,1,.633-2.026,1.952,1.952,0,0,1,1.674-.905,1.557,1.557,0,0,1,1.411.747l.505-2.413h1.261ZM15.267-1.9a1.129,1.129,0,0,0,.253.782.8.8,0,0,0,.622.281,1.01,1.01,0,0,0,.639-.235,1.591,1.591,0,0,0,.475-.719,2.681,2.681,0,0,0,.178-.927,1.2,1.2,0,0,0-.272-.817.816.816,0,0,0-.628-.312,1.044,1.044,0,0,0-.91.615A2.614,2.614,0,0,0,15.267-1.9Zm4.285-.04a2.88,2.88,0,0,1,.732-2.068,2.528,2.528,0,0,1,1.923-.771,2.2,2.2,0,0,1,1.613.569,2.048,2.048,0,0,1,.58,1.531,2.873,2.873,0,0,1-.725,1.96A2.455,2.455,0,0,1,21.731.11a2.508,2.508,0,0,1-1.169-.264A1.72,1.72,0,0,1,19.8-.9,2.222,2.222,0,0,1,19.551-1.938Zm3.595-.9a.99.99,0,0,0-.261-.719.9.9,0,0,0-.675-.27,1.13,1.13,0,0,0-.725.253,1.624,1.624,0,0,0-.492.734,2.6,2.6,0,0,0-.176.885,1.125,1.125,0,0,0,.272.8.894.894,0,0,0,.686.294,1.071,1.071,0,0,0,.87-.444A2.376,2.376,0,0,0,23.146-2.839ZM24.7-1.305,25.923-1.5a1.182,1.182,0,0,0,.4.547,1.18,1.18,0,0,0,.659.16,1.127,1.127,0,0,0,.69-.193.388.388,0,0,0,.18-.321.33.33,0,0,0-.092-.229,1.6,1.6,0,0,0-.523-.237,5.664,5.664,0,0,1-1.415-.6,1.1,1.1,0,0,1-.426-.9,1.282,1.282,0,0,1,.413-.954,2.364,2.364,0,0,1,1.709-.558,2.337,2.337,0,0,1,1.362.33,1.436,1.436,0,0,1,.584.892l-1.165.2a.719.719,0,0,0-.3-.382,1.276,1.276,0,0,0-.677-.171.955.955,0,0,0-.569.132.378.378,0,0,0-.174.3.338.338,0,0,0,.176.29,4.131,4.131,0,0,0,.708.246,3.748,3.748,0,0,1,1.235.527,1.106,1.106,0,0,1,.439.879,1.485,1.485,0,0,1-.558,1.151A2.315,2.315,0,0,1,27.013.11a2.783,2.783,0,0,1-1.562-.371A1.84,1.84,0,0,1,24.7-1.305ZM32.361,0,33.71-6.442h4.509l-.229,1.077H34.809l-.325,1.547H37.6L37.38-2.742H34.26L33.688,0Zm6.851-6.442h1.261L40.236-5.3H38.975Zm-.369,1.775H40.1L39.129,0H37.868Zm2.518,0h1.2l-.123.606a3.286,3.286,0,0,1,.837-.552,2.079,2.079,0,0,1,.82-.165,1.231,1.231,0,0,1,.907.33,1.178,1.178,0,0,1,.332.875,5.538,5.538,0,0,1-.145.932L44.635,0H43.374l.554-2.65a5.816,5.816,0,0,0,.123-.708.5.5,0,0,0-.143-.38.548.548,0,0,0-.4-.138,1.116,1.116,0,0,0-.615.233,1.62,1.62,0,0,0-.532.615,5.205,5.205,0,0,0-.316,1.112L41.647,0H40.386Zm6.284,1.323-1.23-.105a1.851,1.851,0,0,1,.736-.976,2.462,2.462,0,0,1,1.391-.352,2.039,2.039,0,0,1,1.332.363,1.116,1.116,0,0,1,.431.885,2.889,2.889,0,0,1-.037.448q-.037.237-.261,1.248a6.407,6.407,0,0,0-.185,1.169A2.409,2.409,0,0,0,49.926,0H48.7a2.424,2.424,0,0,1-.092-.527,1.933,1.933,0,0,1-.637.472,1.729,1.729,0,0,1-.725.165,1.294,1.294,0,0,1-.958-.38,1.328,1.328,0,0,1-.378-.978,1.414,1.414,0,0,1,.415-1.068A2.417,2.417,0,0,1,47.808-2.8a5.89,5.89,0,0,0,1.2-.18,1.557,1.557,0,0,0,.079-.422.424.424,0,0,0-.163-.338.737.737,0,0,0-.483-.136.909.909,0,0,0-.534.138A.688.688,0,0,0,47.646-3.344Zm1.2,1.169a2.589,2.589,0,0,1-.3.057,2.882,2.882,0,0,0-1.239.334.509.509,0,0,0-.207.426.494.494,0,0,0,.158.371.578.578,0,0,0,.417.152,1.1,1.1,0,0,0,.538-.138.947.947,0,0,0,.378-.356,2.432,2.432,0,0,0,.222-.679ZM50.862,0l1.349-6.442h1.257L52.124,0Zm7.053-1.942H54.751q0,.075,0,.114a1.059,1.059,0,0,0,.266.751.852.852,0,0,0,.648.286,1.08,1.08,0,0,0,.98-.65l1.129.189a2.376,2.376,0,0,1-.881,1.022A2.307,2.307,0,0,1,55.652.11a2.057,2.057,0,0,1-1.529-.6,2.143,2.143,0,0,1-.589-1.575,2.867,2.867,0,0,1,.532-1.705,2.394,2.394,0,0,1,2.07-1.011,1.794,1.794,0,0,1,1.362.53A2.062,2.062,0,0,1,58-2.764,3.517,3.517,0,0,1,57.916-1.942Zm-1.063-.769q0-.083,0-.127a1.132,1.132,0,0,0-.233-.778A.8.8,0,0,0,56-3.876a.991.991,0,0,0-.7.294,1.571,1.571,0,0,0-.42.87Zm1.362,1.406L59.436-1.5a1.182,1.182,0,0,0,.4.547,1.18,1.18,0,0,0,.659.16,1.127,1.127,0,0,0,.69-.193.388.388,0,0,0,.18-.321.33.33,0,0,0-.092-.229,1.6,1.6,0,0,0-.523-.237,5.664,5.664,0,0,1-1.415-.6,1.1,1.1,0,0,1-.426-.9,1.282,1.282,0,0,1,.413-.954,2.364,2.364,0,0,1,1.709-.558,2.337,2.337,0,0,1,1.362.33,1.436,1.436,0,0,1,.584.892l-1.165.2a.719.719,0,0,0-.3-.382,1.276,1.276,0,0,0-.677-.171.955.955,0,0,0-.569.132.378.378,0,0,0-.174.3.338.338,0,0,0,.176.29,4.131,4.131,0,0,0,.708.246,3.748,3.748,0,0,1,1.235.527,1.106,1.106,0,0,1,.439.879A1.485,1.485,0,0,1,62.1-.378,2.315,2.315,0,0,1,60.526.11a2.783,2.783,0,0,1-1.562-.371A1.84,1.84,0,0,1,58.214-1.305Z" transform="translate(-2589.969 -10164)" fill="#12263f"/>
    <line id="Línea_488" data-name="Línea 488" y2="48.536" transform="translate(-3002.401 -10180.135)" fill="none" stroke="#707070" stroke-width="1"/>
    <line id="Línea_490" data-name="Línea 490" y2="48.536" transform="translate(-2873.334 -10180.135)" fill="none" stroke="#707070" stroke-width="1"/>
    <line id="Línea_504" data-name="Línea 504" y2="25.401" transform="translate(-2809.993 -10157)" fill="none" stroke="#707070" stroke-width="1"/>
    <line id="Línea_506" data-name="Línea 506" y2="25.401" transform="translate(-2677.993 -10157)" fill="none" stroke="#707070" stroke-width="1"/>
    <line id="Línea_507" data-name="Línea 507" y2="25.401" transform="translate(-2560.046 -10157)" fill="none" stroke="#707070" stroke-width="1"/>
    <line id="Línea_493" data-name="Línea 493" y2="48.536" transform="translate(-2744.171 -10180.135)" fill="none" stroke="#707070" stroke-width="1"/>
    <line id="Línea_494" data-name="Línea 494" y2="48.635" transform="translate(-2613.519 -10180.135)" fill="none" stroke="#707070" stroke-width="1"/>
    <line id="Línea_505" data-name="Línea 505" x2="373" transform="translate(-2873.5 -10156.5)" fill="none" stroke="#707070" stroke-width="1"/>
    <line id="Línea_510" data-name="Línea 510" x2="560.467" transform="translate(-3060.967 -10180.688)" fill="none" stroke="#707070" stroke-width="1"/>
  </g>
</svg>
