<svg xmlns="http://www.w3.org/2000/svg" width="610" height="261.45" viewBox="0 0 610 261.45">
  <g id="img30" transform="translate(-810 -2967)">
    <rect id="Rectángulo_33823" data-name="Rectángulo 33823" width="610" height="162" transform="translate(810 2967)" fill="#6595bf" opacity="0.291"/>
    <g id="Grupo_70472" data-name="Grupo 70472" transform="translate(1151.531 2973.231)">
      <g id="Grupo_58631" data-name="Grupo 58631" transform="translate(0 0)">
        <path id="Trazado_111056" data-name="Trazado 111056" d="M13624.6,3202.23h183.275v174.556a14.4,14.4,0,0,1-14.4,14.406H13624.6V3202.23Z" transform="translate(-13624.601 -3202.23)" fill="#aed3f2"/>
        <g id="Grupo_58630" data-name="Grupo 58630" transform="translate(20.144 55.544)">
          <path id="Trazado_111057" data-name="Trazado 111057" d="M13424.265,3052.8c0,.382-33.127.693-73.982.693s-73.982-.311-73.982-.693,33.119-.692,73.982-.692S13424.265,3052.421,13424.265,3052.8Z" transform="translate(-13276.282 -3052.11)" fill="#5e6178"/>
          <path id="Trazado_111058" data-name="Trazado 111058" d="M13351.394,3067.213c0,.382-16.367.693-36.547.693s-36.557-.311-36.557-.693,16.359-.693,36.557-.693S13351.394,3066.831,13351.394,3067.213Z" transform="translate(-13276.507 -3053.721)" fill="#5e6178"/>
          <path id="Trazado_111059" data-name="Trazado 111059" d="M13391.063,3065.913c0,.382-4.336.693-9.682.693s-9.682-.311-9.682-.693,4.334-.693,9.682-.693S13391.063,3065.5,13391.063,3065.913Z" transform="translate(-13286.954 -3053.576)" fill="#5e6178"/>
          <path id="Trazado_111060" data-name="Trazado 111060" d="M13442.473,3064.993c0,.382-8.58.693-19.166.693s-19.166-.311-19.166-.693,8.578-.693,19.166-.693S13442.473,3064.611,13442.473,3064.993Z" transform="translate(-13290.584 -3053.473)" fill="#5e6178"/>
          <path id="Trazado_111061" data-name="Trazado 111061" d="M13345.039,3081.012c0,.382-15.4.693-34.379.693s-34.379-.311-34.379-.693,15.391-.7,34.379-.7S13345.039,3080.621,13345.039,3081.012Z" transform="translate(-13276.281 -3055.264)" fill="#5e6178"/>
          <path id="Trazado_111062" data-name="Trazado 111062" d="M13437.844,3080.613c0,.381-16.812.692-37.541.692s-37.541-.311-37.541-.692,16.813-.693,37.541-.693S13437.844,3080.231,13437.844,3080.613Z" transform="translate(-13285.954 -3055.221)" fill="#5e6178"/>
          <path id="Trazado_111063" data-name="Trazado 111063" d="M13443.09,3094.493c0,.382-7.486.693-16.717.693s-16.713-.311-16.713-.693,7.477-.693,16.713-.693S13443.09,3094.111,13443.09,3094.493Z" transform="translate(-13291.2 -3056.773)" fill="#5e6178"/>
        </g>
        <path id="Trazado_111064" data-name="Trazado 111064" d="M13359.3,3037.353c0,.382-18.137.693-40.508.693s-40.5-.311-40.5-.693,18.127-.693,40.5-.693S13359.3,3036.962,13359.3,3037.353Z" transform="translate(-13256.36 -2994.837)" fill="#d9a171"/>
      </g>
    </g>
    <g id="Grupo_78692" data-name="Grupo 78692" transform="translate(620 -198.5)">
      <g id="Grupo_58646" data-name="Grupo 58646" transform="translate(580.85 3249.148)">
        <g id="Grupo_58638" data-name="Grupo 58638" transform="translate(21.995 22.854)">
          <rect id="Rectángulo_9044" data-name="Rectángulo 9044" width="120.701" height="150.963" transform="translate(0.78 121.674) rotate(-90.37)" fill="#aed3f2"/>
          <rect id="Rectángulo_9045" data-name="Rectángulo 9045" width="105.504" height="140.36" transform="translate(6.152 114.132) rotate(-90.37)" fill="#d9a171"/>
          <path id="Trazado_111094" data-name="Trazado 111094" d="M13931.706,3623.761l-49.422-65.271-30.043,41.235-20.682-21.793-40.061,46.744Z" transform="translate(-13784.255 -3510.805)" fill="#d9a171" opacity="0.2"/>
          <g id="Grupo_58637" data-name="Grupo 58637" transform="translate(54.704 28.829)" opacity="0.2">
            <path id="Trazado_111095" data-name="Trazado 111095" d="M13452.938,3348.3a11.063,11.063,0,1,0,10.885-11.125,11.077,11.077,0,0,0-10.885,11.125Z" transform="translate(-13452.938 -3337.17)" fill="#d9a171"/>
          </g>
        </g>
        <g id="Grupo_58640" data-name="Grupo 58640" transform="translate(25.011 10.298)">
          <rect id="Rectángulo_9046" data-name="Rectángulo 9046" width="120.701" height="150.963" transform="translate(0.78 121.674) rotate(-90.37)" fill="#aed3f2"/>
          <rect id="Rectángulo_9047" data-name="Rectángulo 9047" width="105.504" height="140.36" transform="translate(6.109 114.151) rotate(-90.37)" fill="#d9a171"/>
          <path id="Trazado_111096" data-name="Trazado 111096" d="M13921.726,3617.958l-49.424-65.249-30.047,41.213-20.68-21.794-40.279,46.744Z" transform="translate(-13774.243 -3505.053)" fill="#d9a171" opacity="0.2"/>
          <g id="Grupo_58639" data-name="Grupo 58639" transform="translate(54.736 28.78)" opacity="0.2">
            <path id="Trazado_111097" data-name="Trazado 111097" d="M13442.738,3342.507a11.06,11.06,0,1,0,10.887-11.125A11.061,11.061,0,0,0,13442.738,3342.507Z" transform="translate(-13442.738 -3331.38)" fill="#d9a171"/>
          </g>
        </g>
        <g id="Grupo_58642" data-name="Grupo 58642" transform="translate(36.153 0)">
          <rect id="Rectángulo_9048" data-name="Rectángulo 9048" width="120.701" height="150.963" transform="translate(0.78 121.674) rotate(-90.37)" fill="#aed3f2"/>
          <rect id="Rectángulo_9049" data-name="Rectángulo 9049" width="105.504" height="140.36" transform="translate(6.131 113.93) rotate(-90.37)" fill="#d9a171"/>
          <path id="Trazado_111098" data-name="Trazado 111098" d="M13912.623,3613.191l-49.42-65.271-30.26,41.235-20.682-21.815-40.061,46.744Z" transform="translate(-13765.009 -3500.392)" fill="#d9a171" opacity="0.2"/>
          <g id="Grupo_58641" data-name="Grupo 58641" transform="translate(54.868 28.65)" opacity="0.2">
            <path id="Trazado_111099" data-name="Trazado 111099" d="M13433.638,3337.717a11.062,11.062,0,1,0,10.887-11.125,11.061,11.061,0,0,0-10.887,11.125Z" transform="translate(-13433.638 -3326.59)" fill="#d9a171"/>
          </g>
        </g>
        <g id="Grupo_58644" data-name="Grupo 58644" transform="translate(41.68 12.821)">
          <rect id="Rectángulo_9050" data-name="Rectángulo 9050" width="120.701" height="150.963" transform="translate(0.78 121.674) rotate(-90.37)" fill="#aed3f2"/>
          <rect id="Rectángulo_9051" data-name="Rectángulo 9051" width="105.504" height="140.36" transform="translate(6.109 114.126) rotate(-90.37)" fill="#5e6178"/>
          <path id="Trazado_111100" data-name="Trazado 111100" d="M13902.309,3619.129l-49.424-65.25-30.043,41.214-20.68-21.793-40.064,46.744Z" transform="translate(-13754.855 -3506.198)" fill="#d9a171" opacity="0.2"/>
          <g id="Grupo_58643" data-name="Grupo 58643" transform="translate(54.703 28.805)" opacity="0.2">
            <path id="Trazado_111101" data-name="Trazado 111101" d="M13423.542,3343.677a11.06,11.06,0,1,0,10.891-11.125,11.066,11.066,0,0,0-10.891,11.125Z" transform="translate(-13423.54 -3332.55)" fill="#d9a171"/>
          </g>
        </g>
        <g id="Grupo_58645" data-name="Grupo 58645" transform="translate(0 58.786)">
          <rect id="Rectángulo_9052" data-name="Rectángulo 9052" width="87.151" height="116.542" fill="#344154"/>
          <path id="Trazado_111102" data-name="Trazado 111102" d="M13511.7,3339.85v116.543h-130V3339.85Zm-78.822,27.585h27.6c3.182-.222,5.678-3.749,5.678-8.023s-2.5-7.8-5.678-8.023h-27.6c-3.186.222-5.684,3.748-5.684,8.023S13429.694,3367.214,13432.88,3367.435Z" transform="translate(-13302.105 -3339.829)" fill="#d9a171"/>
        </g>
      </g>
    </g>
    <g id="Grupo_58664" data-name="Grupo 58664" transform="translate(815.093 3030.672)">
      <g id="Grupo_58663" data-name="Grupo 58663" transform="translate(0)">
        <g id="Grupo_58660" data-name="Grupo 58660" transform="translate(116.84 44.232)">
          <rect id="Rectángulo_9054" data-name="Rectángulo 9054" width="53.876" height="147.408" transform="translate(0)" fill="#6595bf"/>
          <rect id="Rectángulo_9055" data-name="Rectángulo 9055" width="33.897" height="64.015" transform="translate(10.08 9.69)" fill="#aed3f2"/>
          <path id="Trazado_111143" data-name="Trazado 111143" d="M13045.44,3375.939a13.3,13.3,0,1,0,3.895-9.422A13.317,13.317,0,0,0,13045.44,3375.939Z" transform="translate(-13031.761 -3259.698)" fill="#aed3f2"/>
          <rect id="Rectángulo_9056" data-name="Rectángulo 9056" width="21.193" height="5.445" transform="translate(16.335 21.493)" fill="#6595bf"/>
          <rect id="Rectángulo_9057" data-name="Rectángulo 9057" width="21.193" height="5.445" transform="translate(16.335 32.997)" fill="#6595bf"/>
        </g>
        <g id="Grupo_58661" data-name="Grupo 58661" transform="translate(58.496 19.813)">
          <rect id="Rectángulo_9058" data-name="Rectángulo 9058" width="53.876" height="171.856" fill="#6595bf"/>
          <rect id="Rectángulo_9059" data-name="Rectángulo 9059" width="33.897" height="64.015" transform="translate(9.929 9.69)" fill="#aed3f2"/>
          <path id="Trazado_111144" data-name="Trazado 111144" d="M13084.438,3375.959a13.321,13.321,0,1,0,13.322-13.319A13.319,13.319,0,0,0,13084.438,3375.959Z" transform="translate(-13070.912 -3235.27)" fill="#aed3f2"/>
          <rect id="Rectángulo_9060" data-name="Rectángulo 9060" width="21.193" height="5.445" transform="translate(16.333 21.493)" fill="#6595bf"/>
          <rect id="Rectángulo_9061" data-name="Rectángulo 9061" width="21.193" height="5.445" transform="translate(16.333 32.997)" fill="#6595bf"/>
        </g>
        <g id="Grupo_58662" data-name="Grupo 58662" transform="translate(0)">
          <rect id="Rectángulo_9062" data-name="Rectángulo 9062" width="53.876" height="191.67" fill="#6595bf"/>
          <rect id="Rectángulo_9063" data-name="Rectángulo 9063" width="33.897" height="64.015" transform="translate(10.078 9.689)" fill="#aed3f2"/>
          <path id="Trazado_111145" data-name="Trazado 111145" d="M13123.343,3375.959a13.318,13.318,0,1,0,13.319-13.319A13.319,13.319,0,0,0,13123.343,3375.959Z" transform="translate(-13109.662 -3215.457)" fill="#aed3f2"/>
          <rect id="Rectángulo_9064" data-name="Rectángulo 9064" width="21.193" height="5.445" transform="translate(16.333 21.493)" fill="#6595bf"/>
          <rect id="Rectángulo_9065" data-name="Rectángulo 9065" width="21.193" height="5.445" transform="translate(16.333 32.997)" fill="#6595bf"/>
        </g>
      </g>
    </g>
    <g id="Grupo_58634" data-name="Grupo 58634" transform="translate(960.737 3024.563)">
      <g id="Grupo_58632" data-name="Grupo 58632" transform="translate(0 0)">
        <rect id="Rectángulo_9042" data-name="Rectángulo 9042" width="304.212" height="201.168" rx="14.57" transform="translate(12.277)" fill="#344154"/>
        <path id="Trazado_111065" data-name="Trazado 111065" d="M13375,3583.9h329.588v4.968a12.631,12.631,0,0,1-12.633,12.632h-304.324a12.632,12.632,0,0,1-12.631-12.631Z" transform="translate(-13375.001 -3397.614)" fill="#344154"/>
        <rect id="Rectángulo_9043" data-name="Rectángulo 9043" width="287.024" height="169.886" transform="translate(20.864 7.991)" fill="#d2e0ec"/>
        <path id="Trazado_111066" data-name="Trazado 111066" d="M13194,3371.176h5.031l13.908-.057,46.5-.1h.348l-.178.291c-.582,1.008-1.213,2.08-1.844,3.165l-1.951,3.342-.057.1h-.115l-57.545-.106h-.051v-.042l-3.018-4.9-.75-1.242-.248-.412.291.433c.184.3.453.71.8,1.249l3.072,4.776-.07-.036,57.547-.113-.17.1,1.951-3.343,1.846-3.158.17.291-46.3-.1-13.975-.057h-4.8Z" transform="translate(-13059.163 -3184.889)" fill="#5e6178"/>
      </g>
      <g id="Grupo_58633" data-name="Grupo 58633" transform="translate(12.277 186.102)">
        <line id="Línea_352" data-name="Línea 352" x2="304.233" transform="translate(0 0.185)" fill="#344154"/>
        <path id="Trazado_111067" data-name="Trazado 111067" d="M13325.547,3371.165c0,.106-68.131.191-152.1.191s-152.111-.085-152.111-.191,68.129-.185,152.111-.185S13325.547,3371.065,13325.547,3371.165Z" transform="translate(-13021.312 -3370.98)" fill="#5e6178"/>
      </g>
    </g>
    <g id="Grupo_58636" data-name="Grupo 58636" transform="translate(1001.145 2999.684)">
      <path id="Trazado_111068" data-name="Trazado 111068" d="M13394.589,3072.19h0a8.515,8.515,0,0,1,8.518,8.516v17.437H13377.7v-16.088a9.854,9.854,0,0,1,9.844-9.851Z" transform="translate(-13237.514 -3071.956)" fill="#344154"/>
      <path id="Trazado_111069" data-name="Trazado 111069" d="M13357.687,3072.094c0,.106-23.98.163-53.543.142s-53.555-.135-53.555-.234,23.975-.163,53.555-.135S13357.687,3071.995,13357.687,3072.094Z" transform="translate(-13200.607 -3071.86)" fill="#344154"/>
      <path id="Trazado_111070" data-name="Trazado 111070" d="M13337.193,3072.131l-10.6-.071-15.393.092h-113.078a17.387,17.387,0,0,0-17.387,17.386V3276.4h146.447V3081.683C13327.611,3072.152,13337.193,3072.131,13337.193,3072.131Z" transform="translate(-13180.328 -3071.918)" fill="#fafafa"/>
      <path id="Trazado_111071" data-name="Trazado 111071" d="M13337.023,3072.077l-88.295.191-44.156.036h-5.514c-.928,0-1.828.035-2.738.085a17.748,17.748,0,0,0-2.676.483,17.076,17.076,0,0,0-11.707,10.5c-.143.433-.342.844-.441,1.291l-.342,1.313a19.651,19.651,0,0,0-.312,2.7c-.078,3.655,0,7.353-.035,11.028l.121,176.6-.354-.348,146.445.092-.264.256.07-105.03.086-52.515.059-26.257v-9.843a11.206,11.206,0,0,1,.068-1.639,9.719,9.719,0,0,1,.256-1.625,8.668,8.668,0,0,1,3.551-5.343,10.29,10.29,0,0,1,2.943-1.419A12.409,12.409,0,0,1,13337.023,3072.077Zm0,0a12.751,12.751,0,0,0-3.219.575,10.337,10.337,0,0,0-2.934,1.419,8.662,8.662,0,0,0-3.547,5.337,9.146,9.146,0,0,0-.25,1.611,10.679,10.679,0,0,0-.061,1.639l0,3.279v6.564l.051,26.258.086,52.515.07,105.03v.263h-.258l-146.443.092h-.357v-.355l.121-176.6c0-3.683,0-7.352.051-11.049a19.371,19.371,0,0,1,.324-2.768l.35-1.355a13.91,13.91,0,0,1,.455-1.32,17.5,17.5,0,0,1,12.021-10.758,19,19,0,0,1,2.738-.489c.93-.05,1.867-.107,2.783-.085h49.668Z" transform="translate(-13180.16 -3071.864)" fill="#344154"/>
      <path id="Trazado_111072" data-name="Trazado 111072" d="M13333.037,3122.054c0,.3-14.094.553-31.482.553s-31.484-.249-31.484-.553,14.094-.554,31.484-.554S13333.037,3121.749,13333.037,3122.054Z" transform="translate(-13206.265 -3086.272)" fill="#d9a171"/>
      <path id="Trazado_111073" data-name="Trazado 111073" d="M13296.138,3136.233c0,.3-5.449.553-12.172.553s-12.178-.249-12.178-.553,5.451-.554,12.178-.554S13296.138,3135.907,13296.138,3136.233Z" transform="translate(-13206.762 -3090.389)" fill="#5e6178"/>
      <path id="Trazado_111074" data-name="Trazado 111074" d="M13243.985,3179.473c0,.305-10.354.554-23.113.554s-23.121-.249-23.121-.554,10.346-.553,23.121-.553S13243.985,3179.169,13243.985,3179.473Z" transform="translate(-13185.268 -3102.944)" fill="#5e6178"/>
      <path id="Trazado_111075" data-name="Trazado 111075" d="M13317.784,3179.473c0,.305-10.354.554-23.119.554s-23.113-.249-23.113-.554,10.346-.553,23.113-.553S13317.784,3179.169,13317.784,3179.473Z" transform="translate(-13206.696 -3102.944)" fill="#d9a171"/>
      <path id="Trazado_111076" data-name="Trazado 111076" d="M13243.985,3191.023c0,.305-10.354.553-23.113.553s-23.121-.248-23.121-.553,10.346-.554,23.121-.554S13243.985,3190.718,13243.985,3191.023Z" transform="translate(-13185.268 -3106.297)" fill="#5e6178"/>
      <path id="Trazado_111077" data-name="Trazado 111077" d="M13243.985,3202.573c0,.306-10.354.554-23.113.554s-23.121-.248-23.121-.554,10.346-.554,23.121-.554S13243.985,3202.269,13243.985,3202.573Z" transform="translate(-13185.268 -3109.65)" fill="#d9a171"/>
      <path id="Trazado_111078" data-name="Trazado 111078" d="M13296.138,3159.774c0,.3-5.449.553-12.172.553s-12.178-.249-12.178-.553,5.451-.554,12.178-.554S13296.138,3159.454,13296.138,3159.774Z" transform="translate(-13206.762 -3097.224)" fill="#5e6178"/>
      <path id="Trazado_111079" data-name="Trazado 111079" d="M13358.96,3179.473c0,.305-3.633.554-8.117.554s-8.111-.249-8.111-.554,3.633-.553,8.111-.553S13358.96,3179.169,13358.96,3179.473Z" transform="translate(-13227.361 -3102.944)" fill="#5e6178"/>
      <path id="Trazado_111080" data-name="Trazado 111080" d="M13354.708,3136.233c0,.3-9.354.553-20.887.553s-20.891-.249-20.891-.553,9.354-.554,20.891-.554S13354.708,3135.907,13354.708,3136.233Z" transform="translate(-13218.709 -3090.389)" fill="#5e6178"/>
      <path id="Trazado_111081" data-name="Trazado 111081" d="M13340.858,3147.494c0,.305-15.455.553-34.51.553s-34.518-.248-34.518-.553,15.449-.554,34.518-.554S13340.858,3147.188,13340.858,3147.494Z" transform="translate(-13206.776 -3093.658)" fill="#5e6178"/>
      <path id="Trazado_111082" data-name="Trazado 111082" d="M13338.292,3191.023c0,.305-14.953.553-33.4.553s-33.352-.248-33.352-.553,14.943-.554,33.352-.554S13338.292,3190.718,13338.292,3191.023Z" transform="translate(-13206.692 -3106.297)" fill="#5e6178"/>
      <path id="Trazado_111083" data-name="Trazado 111083" d="M13339.962,3224.453c0,.305-14.031.554-31.34.554s-31.332-.249-31.332-.554,14.023-.554,31.332-.554S13339.962,3224.149,13339.962,3224.453Z" transform="translate(-13208.36 -3116.003)" fill="#d9a171"/>
      <path id="Trazado_111084" data-name="Trazado 111084" d="M13339.962,3235.693c0,.305-14.031.554-31.34.554s-31.332-.249-31.332-.554,14.023-.554,31.332-.554S13339.962,3235.388,13339.962,3235.693Z" transform="translate(-13208.36 -3119.266)" fill="#5e6178"/>
      <path id="Trazado_111085" data-name="Trazado 111085" d="M13339.962,3246.933c0,.305-14.031.554-31.34.554s-31.332-.249-31.332-.554,14.023-.553,31.332-.553S13339.962,3246.629,13339.962,3246.933Z" transform="translate(-13208.36 -3122.53)" fill="#5e6178"/>
      <path id="Trazado_111086" data-name="Trazado 111086" d="M13339.962,3258.174c0,.305-14.031.553-31.34.553s-31.332-.248-31.332-.553,14.023-.554,31.332-.554S13339.962,3257.89,13339.962,3258.174Z" transform="translate(-13208.36 -3125.793)" fill="#5e6178"/>
      <path id="Trazado_111087" data-name="Trazado 111087" d="M13313.425,3269.413c0,.156-2.023.291-5.287.391s-7.77.163-12.773.163-9.494-.064-12.775-.163-5.277-.234-5.277-.391,2.014-.291,5.277-.391,7.809-.163,12.775-.163,9.486.064,12.773.163S13313.425,3269.264,13313.425,3269.413Z" transform="translate(-13208.367 -3129.057)" fill="#5e6178"/>
      <path id="Trazado_111088" data-name="Trazado 111088" d="M13327.534,3203.173c0,.305-12.064.553-26.967.553s-26.967-.248-26.967-.553,12.064-.554,26.967-.554S13327.534,3202.89,13327.534,3203.173Z" transform="translate(-13207.289 -3109.824)" fill="#5e6178"/>
      <g id="Grupo_58635" data-name="Grupo 58635" transform="translate(66.268 185.073)">
        <path id="Trazado_111089" data-name="Trazado 111089" d="M13276.064,3333.913a1.263,1.263,0,1,1-1.262-1.264A1.262,1.262,0,0,1,13276.064,3333.913Z" transform="translate(-13273.539 -3332.65)" fill="#344154"/>
        <path id="Trazado_111090" data-name="Trazado 111090" d="M13286.668,3333.913a1.265,1.265,0,1,1-1.264-1.264A1.264,1.264,0,0,1,13286.668,3333.913Z" transform="translate(-13276.616 -3332.65)" fill="#344154"/>
        <path id="Trazado_111091" data-name="Trazado 111091" d="M13297.266,3333.913a1.264,1.264,0,1,1-1.264-1.264A1.264,1.264,0,0,1,13297.266,3333.913Z" transform="translate(-13279.694 -3332.65)" fill="#344154"/>
      </g>
      <path id="Trazado_111092" data-name="Trazado 111092" d="M13318.284,3292.834c0,.305-10.346.554-23.111.554s-23.121-.249-23.121-.554,10.346-.554,23.121-.554S13318.284,3292.529,13318.284,3292.834Z" transform="translate(-13206.841 -3135.856)" fill="#d9a171"/>
      <path id="Trazado_111093" data-name="Trazado 111093" d="M13338.775,3304.384c0,.305-14.951.554-33.389.554s-33.4-.249-33.4-.554,14.955-.554,33.4-.554S13338.775,3304.078,13338.775,3304.384Z" transform="translate(-13206.821 -3139.209)" fill="#5e6178"/>
    </g>
  </g>
</svg>
