<svg xmlns="http://www.w3.org/2000/svg" width="369" height="365" viewBox="0 0 369 365">
  <g id="img5" transform="translate(-1019 -7035)">
    <rect id="Rectángulo_33790" data-name="Rectángulo 33790" width="369" height="365" transform="translate(1019 7035)" fill="none"/>
    <rect id="Rectángulo_33901" data-name="Rectángulo 33901" width="369" height="267" transform="translate(1019 7035)" fill="#5e6178" opacity="0.311"/>
    <g id="Grupo_78663" data-name="Grupo 78663" transform="translate(2 894.525)">
      <rect id="Rectángulo_31134" data-name="Rectángulo 31134" width="364" height="313" transform="translate(1020 6166.475)" fill="none"/>
      <g id="Grupo_63262" data-name="Grupo 63262" transform="translate(1030.92 6181.616)">
        <g id="freepik--background-complete--inject-3" transform="translate(0 13.085)">
          <path id="Trazado_105054" data-name="Trazado 105054" d="M396.07,3362.9v26.788H391.6v2.909h4.471v17.936h83.622V3394.21h-6.215v-3.548h6.2v-5.322h2.75v-2.425h-3.27V3362.9Z" transform="translate(-391.481 -3227.614)" fill="#f5f5f5"/>
          <path id="Trazado_105055" data-name="Trazado 105055" d="M503.019,3362.975v47.255h22.205v-16.315h-6.2v-3.259l6.2.112v-5.333l2.8.006-.053-2.756-3.27-.076V3362.9Z" transform="translate(-442.919 -3227.615)" fill="#ebebeb"/>
          <path id="Trazado_105056" data-name="Trazado 105056" d="M458.984,3412.264c0,.166-15.133.3-33.789.3s-33.8-.13-33.8-.3,15.127-.3,33.8-.3S458.984,3412.1,458.984,3412.264Z" transform="translate(-391.399 -3247.667)" fill="#e0e0e0"/>
          <path id="Trazado_105057" data-name="Trazado 105057" d="M458.984,3407.664c0,.166-15.133.3-33.789.3s-33.8-.13-33.8-.3,15.127-.3,33.8-.3S458.984,3407.5,458.984,3407.664Z" transform="translate(-391.399 -3245.787)" fill="#e0e0e0"/>
          <path id="Trazado_105058" data-name="Trazado 105058" d="M466.354,3395.274c0,.166-15.133.3-33.79.3s-33.8-.136-33.8-.3,15.127-.3,33.8-.3S466.354,3395.114,466.354,3395.274Z" transform="translate(-394.411 -3240.724)" fill="#e0e0e0"/>
          <path id="Trazado_105059" data-name="Trazado 105059" d="M467.034,3429.03c0,.16-15.133.3-33.8.3s-33.79-.135-33.79-.3,15.127-.3,33.79-.3S467.034,3428.864,467.034,3429.03Z" transform="translate(-394.689 -3254.516)" fill="#e0e0e0"/>
          <path id="Trazado_105060" data-name="Trazado 105060" d="M685.21,3045.127a24.8,24.8,0,0,1,6.05-2.631l1.248-5.991,10.118-.177,1.455,5.914a24.64,24.64,0,0,1,6.138,2.413l5.1-3.323,7.279,7.031-3.14,5.227a24.682,24.682,0,0,1,2.631,6.055l5.99,1.242L728.26,3071l-5.943,1.46a24.726,24.726,0,0,1-2.412,6.138l3.347,5.115-7.044,7.28-5.227-3.17a24.861,24.861,0,0,1-6.055,2.625l-1.242,5.991-10.118.177-1.461-5.943a24.706,24.706,0,0,1-6.138-2.413l-5.115,3.353-7.279-7.031,3.17-5.227a24.76,24.76,0,0,1-2.626-6.049l-5.99-1.248-.177-10.118,5.943-1.455a24.664,24.664,0,0,1,2.4-6.138l-3.353-5.115,7.031-7.28,5.227,3.17ZM690.6,3058.6a10.965,10.965,0,1,0,.023-.023Z" transform="translate(-520.774 -2993.528)" fill="#ebebeb"/>
          <path id="Trazado_105061" data-name="Trazado 105061" d="M785.172,3027.561a14.613,14.613,0,0,1,3.548-1.538l.727-3.495,5.914-.1.822,3.471a14.753,14.753,0,0,1,3.584,1.407l2.957-1.951,4.293,4.092-1.845,3.051a14.558,14.558,0,0,1,1.532,3.548l3.494.728.1,5.913-3.465.851a14.321,14.321,0,0,1-1.407,3.549l1.957,2.957-4.1,4.246-3.051-1.851a14.368,14.368,0,0,1-3.548,1.537l-.727,3.489-5.913.106-.846-3.465a14.609,14.609,0,0,1-3.584-1.407l-2.957,1.951-4.252-4.1,1.851-3.052a14.336,14.336,0,0,1-1.532-3.548l-3.495-.727-.106-5.914,3.447-.769a14.388,14.388,0,0,1,1.414-3.548l-1.957-2.957,4.1-4.246,3.052,1.851Zm3.146,7.859a6.333,6.333,0,1,0,8.959-.154,6.334,6.334,0,0,0-8.959.154Z" transform="translate(-555.497 -3022.428)" fill="#ebebeb"/>
          <path id="Trazado_105062" data-name="Trazado 105062" d="M932.253,3179.624a19.394,19.394,0,0,1,4.7-2.046l.964-4.648,7.859-.142,1.135,4.618a19.179,19.179,0,0,1,4.766,1.875l3.968-2.6,5.659,5.458-2.466,4.056a19.426,19.426,0,0,1,2.046,4.731l4.648.97.148,7.806-4.612,1.129a18.96,18.96,0,0,1-1.892,4.784l2.6,3.974-5.458,5.653-4.062-2.46a19.04,19.04,0,0,1-4.7,2.04l-.97,4.654-7.859.136L937.6,3215a19.4,19.4,0,0,1-4.766-1.874l-3.974,2.6-5.653-5.458,2.46-4.062a19.083,19.083,0,0,1-2.04-4.7l-4.666-.958-.136-7.859,4.613-1.135a19.668,19.668,0,0,1,1.875-4.766l-2.6-3.968,5.458-5.66,4.063,2.466Zm4.187,10.467a8.433,8.433,0,1,0,11.927-.207,8.432,8.432,0,0,0-11.927.207Z" transform="translate(-643.164 -3058.031)" fill="#ebebeb"/>
        </g>
        <g id="freepik--Table--inject-3" transform="translate(0 283.295)">
          <path id="Trazado_105063" data-name="Trazado 105063" d="M674.947,3444.1c0,.071-73.647.131-164.444.131s-164.444-.061-164.444-.131,73.647-.131,164.444-.131S674.947,3444.023,674.947,3444.1Z" transform="translate(-346.059 -3443.968)" fill="#5e6178"/>
        </g>
        <g id="freepik--Artboard--inject-3" transform="translate(9.229 0)">
          <rect id="Rectángulo_8020" data-name="Rectángulo 8020" width="180.293" height="141.079" fill="#fff"/>
          <rect id="Rectángulo_8021" data-name="Rectángulo 8021" width="180.969" height="11.733" transform="translate(0.035)" fill="#5e6178"/>
          <rect id="Rectángulo_8022" data-name="Rectángulo 8022" width="10.068" height="129.346" transform="translate(0.035 11.733)" fill="#344154"/>
          <rect id="Rectángulo_8023" data-name="Rectángulo 8023" width="180.969" height="7.773" transform="translate(0.035 11.733)" fill="#344154"/>
          <path id="Trazado_105064" data-name="Trazado 105064" d="M409.383,3025.135a.242.242,0,0,1-.177-.071.252.252,0,0,1,0-.356h0l5.745-5.842a.248.248,0,0,1,.35,0l0,0a.253.253,0,0,1,0,.357h0l-5.74,5.836A.257.257,0,0,1,409.383,3025.135Z" transform="translate(-405.655 -3016.252)" fill="#fff"/>
          <path id="Trazado_105065" data-name="Trazado 105065" d="M415.132,3025.147a.237.237,0,0,1-.177-.076l-5.841-5.751a.253.253,0,1,1,.353-.363l5.841,5.746a.252.252,0,0,1,0,.356h0A.237.237,0,0,1,415.132,3025.147Z" transform="translate(-405.609 -3016.3)" fill="#fff"/>
          <path id="Trazado_105066" data-name="Trazado 105066" d="M584.828,3052.3c0,.071-39.734.131-88.739.131s-88.749-.061-88.749-.131,39.729-.132,88.749-.132S584.828,3052.234,584.828,3052.3Z" transform="translate(-404.767 -3032.793)" fill="#5e6178"/>
          <path id="Trazado_105067" data-name="Trazado 105067" d="M422.141,3167.307c-.071,0-.131-28.536-.131-63.73s.061-63.729.131-63.729.131,28.525.131,63.729S422.212,3167.307,422.141,3167.307Z" transform="translate(-412.037 -3026.688)" fill="#5e6178"/>
          <path id="Trazado_105068" data-name="Trazado 105068" d="M442.624,3046.063a36.877,36.877,0,0,1,0-6.214,36.869,36.869,0,0,1,0,6.214Z" transform="translate(-422.18 -3026.688)" fill="#5e6178"/>
          <path id="Trazado_105069" data-name="Trazado 105069" d="M463.106,3046.063a36.869,36.869,0,0,1,0-6.214,36.869,36.869,0,0,1,0,6.214Z" transform="translate(-432.331 -3026.688)" fill="#5e6178"/>
          <path id="Trazado_105070" data-name="Trazado 105070" d="M483.594,3046.063a36.869,36.869,0,0,1,0-6.214,36.869,36.869,0,0,1,0,6.214Z" transform="translate(-442.483 -3026.688)" fill="#5e6178"/>
          <path id="Trazado_105071" data-name="Trazado 105071" d="M504.076,3046.063a36.877,36.877,0,0,1,0-6.214,36.877,36.877,0,0,1,0,6.214Z" transform="translate(-452.634 -3026.688)" fill="#5e6178"/>
          <path id="Trazado_105072" data-name="Trazado 105072" d="M524.564,3046.063a36.869,36.869,0,0,1,0-6.214,36.886,36.886,0,0,1,0,6.214Z" transform="translate(-462.787 -3026.688)" fill="#5e6178"/>
          <path id="Trazado_105073" data-name="Trazado 105073" d="M545.046,3046.063a36.869,36.869,0,0,1,0-6.214,36.852,36.852,0,0,1,0,6.214Z" transform="translate(-472.938 -3026.688)" fill="#5e6178"/>
          <path id="Trazado_105074" data-name="Trazado 105074" d="M565.534,3046.063a36.852,36.852,0,0,1,0-6.214,36.869,36.869,0,0,1,0,6.214Z" transform="translate(-483.09 -3026.688)" fill="#5e6178"/>
          <path id="Trazado_105075" data-name="Trazado 105075" d="M586.016,3046.063a36.886,36.886,0,0,1,0-6.214,36.869,36.869,0,0,1,0,6.214Z" transform="translate(-493.241 -3026.688)" fill="#5e6178"/>
          <path id="Trazado_105076" data-name="Trazado 105076" d="M606.5,3046.063a36.852,36.852,0,0,1,0-6.214,36.886,36.886,0,0,1,0,6.214Z" transform="translate(-503.394 -3026.688)" fill="#5e6178"/>
          <path id="Trazado_105077" data-name="Trazado 105077" d="M626.986,3046.063a36.852,36.852,0,0,1,0-6.214,36.886,36.886,0,0,1,0,6.214Z" transform="translate(-513.545 -3026.688)" fill="#5e6178"/>
          <path id="Trazado_105078" data-name="Trazado 105078" d="M647.474,3046.063a36.886,36.886,0,0,1,0-6.214,36.852,36.852,0,0,1,0,6.214Z" transform="translate(-523.697 -3026.688)" fill="#5e6178"/>
          <path id="Trazado_105079" data-name="Trazado 105079" d="M667.956,3046.063a36.869,36.869,0,0,1,0-6.214,36.886,36.886,0,0,1,0,6.214Z" transform="translate(-533.848 -3026.688)" fill="#5e6178"/>
          <path id="Trazado_105080" data-name="Trazado 105080" d="M688.44,3046.063a35.5,35.5,0,0,1,0-6.214,36.886,36.886,0,0,1,0,6.214Z" transform="translate(-543.996 -3026.688)" fill="#5e6178"/>
          <path id="Trazado_105081" data-name="Trazado 105081" d="M708.926,3046.063a36.9,36.9,0,0,1,0-6.214,36.852,36.852,0,0,1,0,6.214Z" transform="translate(-554.152 -3026.688)" fill="#5e6178"/>
          <path id="Trazado_105082" data-name="Trazado 105082" d="M729.406,3046.063a36.869,36.869,0,0,1,0-6.214,35.5,35.5,0,0,1,0,6.214Z" transform="translate(-564.301 -3026.688)" fill="#5e6178"/>
          <path id="Trazado_105083" data-name="Trazado 105083" d="M749.9,3046.063a36.869,36.869,0,0,1,0-6.214,36.869,36.869,0,0,1,0,6.214Z" transform="translate(-574.455 -3026.688)" fill="#5e6178"/>
          <path id="Trazado_105084" data-name="Trazado 105084" d="M414.871,3069.714a54.142,54.142,0,0,1-7.531,0,54.142,54.142,0,0,1,7.531,0Z" transform="translate(-404.767 -3041.416)" fill="#5e6178"/>
          <path id="Trazado_105085" data-name="Trazado 105085" d="M414.871,3088.594a54.042,54.042,0,0,1-7.531,0,54.243,54.243,0,0,1,7.531,0Z" transform="translate(-404.767 -3050.772)" fill="#5e6178"/>
          <path id="Trazado_105086" data-name="Trazado 105086" d="M414.871,3107.474a54.142,54.142,0,0,1-7.531,0,54.142,54.142,0,0,1,7.531,0Z" transform="translate(-404.767 -3060.128)" fill="#5e6178"/>
          <path id="Trazado_105087" data-name="Trazado 105087" d="M414.871,3126.352a54.142,54.142,0,0,1-7.531,0,54.243,54.243,0,0,1,7.531,0Z" transform="translate(-404.767 -3069.483)" fill="#5e6178"/>
          <path id="Trazado_105088" data-name="Trazado 105088" d="M414.871,3145.224a54.142,54.142,0,0,1-7.531,0,54.142,54.142,0,0,1,7.531,0Z" transform="translate(-404.767 -3078.836)" fill="#5e6178"/>
          <path id="Trazado_105089" data-name="Trazado 105089" d="M414.871,3164.154a54.042,54.042,0,0,1-7.531,0,54.042,54.042,0,0,1,7.531,0Z" transform="translate(-404.767 -3088.218)" fill="#5e6178"/>
          <path id="Trazado_105090" data-name="Trazado 105090" d="M414.871,3182.982a54.142,54.142,0,0,1-7.531,0,54.142,54.142,0,0,1,7.531,0Z" transform="translate(-404.767 -3097.547)" fill="#5e6178"/>
          <path id="Trazado_105091" data-name="Trazado 105091" d="M414.871,3201.862a54.142,54.142,0,0,1-7.531,0,54.142,54.142,0,0,1,7.531,0Z" transform="translate(-404.767 -3106.904)" fill="#5e6178"/>
          <path id="Trazado_105092" data-name="Trazado 105092" d="M414.871,3220.734a54.243,54.243,0,0,1-7.531,0,54.042,54.042,0,0,1,7.531,0Z" transform="translate(-404.767 -3116.257)" fill="#5e6178"/>
          <path id="Trazado_105093" data-name="Trazado 105093" d="M414.871,3239.614a54.142,54.142,0,0,1-7.531,0,54.142,54.142,0,0,1,7.531,0Z" transform="translate(-404.767 -3125.613)" fill="#5e6178"/>
          <path id="Trazado_105094" data-name="Trazado 105094" d="M414.871,3258.492a54.042,54.042,0,0,1-7.531,0,54.142,54.142,0,0,1,7.531,0Z" transform="translate(-404.767 -3134.968)" fill="#5e6178"/>
          <path id="Trazado_105095" data-name="Trazado 105095" d="M414.871,3277.382a52.11,52.11,0,0,1-7.531,0,66.964,66.964,0,0,1,7.531,0Z" transform="translate(-404.767 -3144.339)" fill="#5e6178"/>
          <path id="Trazado_105096" data-name="Trazado 105096" d="M594.4,3273.3c0,.071-34.387.131-76.794.131s-76.8-.06-76.8-.131,34.377-.131,76.8-.131S594.4,3273.234,594.4,3273.3Z" transform="translate(-421.354 -3142.314)" fill="#5e6178"/>
          <g id="Grupo_56867" data-name="Grupo 56867" transform="translate(9.953 20.159)">
            <g id="Grupo_56712" data-name="Grupo 56712">
              <g id="Grupo_56708" data-name="Grupo 56708" transform="translate(0.159 0.159)">
                <g id="Grupo_56707" data-name="Grupo 56707">
                  <rect id="Rectángulo_8024" data-name="Rectángulo 8024" width="163.521" height="107.256" fill="#fafafa"/>
                </g>
              </g>
              <g id="Grupo_56711" data-name="Grupo 56711">
                <g id="Grupo_56710" data-name="Grupo 56710">
                  <g id="Grupo_56709" data-name="Grupo 56709">
                    <path id="Trazado_105097" data-name="Trazado 105097" d="M585.652,3161.139c0-1.033-.049-41.84-.127-107.256l.127.127-163.508.032h-.013l.159-.159c0,38.144-.009,74.442-.013,107.256l-.146-.146,163.521.147-163.521.146h-.146v-.147c0-32.813-.009-69.112-.013-107.256v-.159h.172l163.508.032h.127v.127C585.7,3119.3,585.653,3160.107,585.652,3161.139Z" transform="translate(-421.971 -3053.723)" fill="#344154"/>
                  </g>
                </g>
              </g>
            </g>
            <g id="Grupo_56737" data-name="Grupo 56737" transform="translate(12.306 41.281)">
              <g id="Grupo_56724" data-name="Grupo 56724" transform="translate(37.734 18.108)">
                <g id="Grupo_56714" data-name="Grupo 56714">
                  <g id="Grupo_56713" data-name="Grupo 56713">
                    <path id="Trazado_105098" data-name="Trazado 105098" d="M521.265,3171.458l16.084.221a16.013,16.013,0,0,1-16.084,15.557h-.094Z" transform="translate(-521.171 -3171.458)" fill="#5e6178"/>
                  </g>
                </g>
                <g id="Grupo_56717" data-name="Grupo 56717" transform="translate(5.668 9.526)">
                  <g id="Grupo_56716" data-name="Grupo 56716">
                    <g id="Grupo_56715" data-name="Grupo 56715">
                      <path id="Trazado_105099" data-name="Trazado 105099" d="M553.428,3202.594a1.64,1.64,0,0,1-.344.028l-.983.026-3.594.041h-.045l-.029-.036-5.306-6.685-4.277-5.454.083.04-4.734-.044-1.324-.029a2.662,2.662,0,0,1-.468-.032,2.5,2.5,0,0,1,.468-.033l1.324-.029,4.734-.044h.051l.032.041,4.3,5.432,5.262,6.719-.075-.036,3.594.042.983.026A1.606,1.606,0,0,1,553.428,3202.594Z" transform="translate(-532.407 -3190.342)" fill="#344154"/>
                    </g>
                  </g>
                </g>
                <g id="Grupo_56720" data-name="Grupo 56720" transform="translate(22.051 23.508)">
                  <g id="Grupo_56719" data-name="Grupo 56719">
                    <g id="Grupo_56718" data-name="Grupo 56718">
                      <path id="Trazado_105100" data-name="Trazado 105100" d="M575.292,3218.185c0,.068-2.33.123-5.2.123s-5.2-.055-5.2-.123,2.33-.123,5.2-.123S575.292,3218.117,575.292,3218.185Z" transform="translate(-564.885 -3218.062)" fill="#344154"/>
                    </g>
                  </g>
                </g>
                <g id="Grupo_56723" data-name="Grupo 56723" transform="translate(22.051 25.435)">
                  <g id="Grupo_56722" data-name="Grupo 56722">
                    <g id="Grupo_56721" data-name="Grupo 56721">
                      <path id="Trazado_105101" data-name="Trazado 105101" d="M575.292,3222.006c0,.068-2.33.123-5.2.123s-5.2-.055-5.2-.123,2.33-.123,5.2-.123S575.292,3221.938,575.292,3222.006Z" transform="translate(-564.885 -3221.883)" fill="#344154"/>
                    </g>
                  </g>
                </g>
              </g>
              <g id="Grupo_56736" data-name="Grupo 56736">
                <g id="Grupo_56726" data-name="Grupo 56726" transform="translate(19.199 0.041)">
                  <g id="Grupo_56725" data-name="Grupo 56725">
                    <path id="Trazado_105102" data-name="Trazado 105102" d="M500.512,3151.418l-.226,15.777a15.784,15.784,0,1,1,16.311-15.777Z" transform="translate(-484.427 -3135.64)" fill="#d9a171"/>
                  </g>
                </g>
                <g id="Grupo_56729" data-name="Grupo 56729" transform="translate(14.481 0.817)">
                  <g id="Grupo_56728" data-name="Grupo 56728">
                    <g id="Grupo_56727" data-name="Grupo 56727">
                      <path id="Trazado_105103" data-name="Trazado 105103" d="M489.6,3147.021a1.063,1.063,0,0,1-.279.065l-.8.128-2.889.406-.047.007-.036-.035-3.854-3.75c-1.851-1.816-3.517-3.469-4.715-4.675l-1.409-1.437a4.3,4.3,0,0,1-.493-.551,4.245,4.245,0,0,1,.56.482l1.464,1.381c1.229,1.174,2.914,2.808,4.765,4.624l3.823,3.781-.083-.029,2.9-.319.807-.073A1.045,1.045,0,0,1,489.6,3147.021Z" transform="translate(-475.074 -3137.179)" fill="#344154"/>
                    </g>
                  </g>
                </g>
                <g id="Grupo_56732" data-name="Grupo 56732">
                  <g id="Grupo_56731" data-name="Grupo 56731">
                    <g id="Grupo_56730" data-name="Grupo 56730">
                      <path id="Trazado_105104" data-name="Trazado 105104" d="M456.774,3135.682c0,.068-2.33.123-5.2.123s-5.2-.055-5.2-.123,2.329-.123,5.2-.123S456.774,3135.615,456.774,3135.682Z" transform="translate(-446.366 -3135.56)" fill="#344154"/>
                    </g>
                  </g>
                </g>
                <g id="Grupo_56735" data-name="Grupo 56735" transform="translate(0 1.927)">
                  <g id="Grupo_56734" data-name="Grupo 56734">
                    <g id="Grupo_56733" data-name="Grupo 56733">
                      <path id="Trazado_105105" data-name="Trazado 105105" d="M456.774,3139.5c0,.068-2.33.124-5.2.124s-5.2-.056-5.2-.124,2.329-.123,5.2-.123S456.774,3139.434,456.774,3139.5Z" transform="translate(-446.366 -3139.379)" fill="#344154"/>
                    </g>
                  </g>
                </g>
              </g>
            </g>
            <g id="Grupo_56765" data-name="Grupo 56765" transform="translate(91.733 16.124)">
              <g id="Grupo_56749" data-name="Grupo 56749">
                <g id="Grupo_56746" data-name="Grupo 56746">
                  <g id="Grupo_56739" data-name="Grupo 56739">
                    <g id="Grupo_56738" data-name="Grupo 56738">
                      <path id="Trazado_105106" data-name="Trazado 105106" d="M615.953,3095.493l-.064-9.8a12.514,12.514,0,0,0-8.088,3.154A11.6,11.6,0,0,0,603.9,3099a13.829,13.829,0,0,0,.229,1.424c0,.012,0,.023.007.034h0l11.814-2.658Z" transform="translate(-603.827 -3085.688)" fill="#d9a171"/>
                    </g>
                  </g>
                  <g id="Grupo_56741" data-name="Grupo 56741" opacity="0.3">
                    <g id="Grupo_56740" data-name="Grupo 56740">
                      <path id="Trazado_105107" data-name="Trazado 105107" d="M615.953,3095.493l-.064-9.8a12.514,12.514,0,0,0-8.088,3.154A11.6,11.6,0,0,0,603.9,3099a13.829,13.829,0,0,0,.229,1.424c0,.012,0,.023.007.034h0l11.814-2.658Z" transform="translate(-603.827 -3085.688)" fill="#fff"/>
                    </g>
                  </g>
                  <g id="Grupo_56743" data-name="Grupo 56743" transform="translate(13.38 0.038)">
                    <g id="Grupo_56742" data-name="Grupo 56742">
                      <path id="Trazado_105108" data-name="Trazado 105108" d="M641.274,3092.511a11.631,11.631,0,0,0-9.535-6.675c-.124-.012-.249-.023-.374-.033-.08-.005-.158-.013-.238-.018q-.351-.019-.712-.021h-.064v0h0l.064,9.8.015,2.3,11.817,2.578.015,0h0a11.679,11.679,0,0,0,.262-2.542A12.719,12.719,0,0,0,641.274,3092.511Z" transform="translate(-630.351 -3085.763)" fill="#d9a171"/>
                    </g>
                  </g>
                  <g id="Grupo_56745" data-name="Grupo 56745" transform="translate(13.38 0.038)" opacity="0.3">
                    <g id="Grupo_56744" data-name="Grupo 56744">
                      <path id="Trazado_105109" data-name="Trazado 105109" d="M641.274,3092.511a11.631,11.631,0,0,0-9.535-6.675c-.124-.012-.249-.023-.374-.033-.08-.005-.158-.013-.238-.018q-.351-.019-.712-.021h-.064v0h0l.064,9.8.015,2.3,11.817,2.578.015,0h0a11.679,11.679,0,0,0,.262-2.542A12.719,12.719,0,0,0,641.274,3092.511Z" transform="translate(-630.351 -3085.763)" fill="#d9a171"/>
                    </g>
                  </g>
                </g>
                <g id="Grupo_56748" data-name="Grupo 56748" transform="translate(0.946 13.333)">
                  <g id="Grupo_56747" data-name="Grupo 56747">
                    <path id="Trazado_105110" data-name="Trazado 105110" d="M617.516,3112.119l-11.814,2.658a12.109,12.109,0,0,0,23.646-.08l-11.817-2.578" transform="translate(-605.702 -3112.119)" fill="#d9a171"/>
                  </g>
                </g>
              </g>
              <g id="Grupo_56752" data-name="Grupo 56752" transform="translate(31.462 11.408)">
                <g id="Grupo_56751" data-name="Grupo 56751">
                  <g id="Grupo_56750" data-name="Grupo 56750">
                    <path id="Trazado_105111" data-name="Trazado 105111" d="M693.483,3108.464c0,.088-6.108.159-13.641.159s-13.643-.071-13.643-.159,6.107-.16,13.643-.16S693.483,3108.375,693.483,3108.464Z" transform="translate(-666.199 -3108.304)" fill="#344154"/>
                  </g>
                </g>
              </g>
              <g id="Grupo_56755" data-name="Grupo 56755" transform="translate(31.462 8.298)">
                <g id="Grupo_56754" data-name="Grupo 56754">
                  <g id="Grupo_56753" data-name="Grupo 56753">
                    <path id="Trazado_105112" data-name="Trazado 105112" d="M693.483,3102.3c0,.088-6.108.16-13.641.16s-13.643-.072-13.643-.16,6.107-.159,13.643-.159S693.483,3102.21,693.483,3102.3Z" transform="translate(-666.199 -3102.139)" fill="#344154"/>
                  </g>
                </g>
              </g>
              <g id="Grupo_56758" data-name="Grupo 56758" transform="translate(31.462 5.189)">
                <g id="Grupo_56757" data-name="Grupo 56757">
                  <g id="Grupo_56756" data-name="Grupo 56756">
                    <path id="Trazado_105113" data-name="Trazado 105113" d="M693.483,3096.133c0,.088-6.108.159-13.641.159s-13.643-.071-13.643-.159,6.107-.159,13.643-.159S693.483,3096.045,693.483,3096.133Z" transform="translate(-666.199 -3095.974)" fill="#344154"/>
                  </g>
                </g>
              </g>
              <g id="Grupo_56761" data-name="Grupo 56761" transform="translate(31.462 14.302)">
                <g id="Grupo_56760" data-name="Grupo 56760">
                  <g id="Grupo_56759" data-name="Grupo 56759">
                    <path id="Trazado_105114" data-name="Trazado 105114" d="M693.483,3114.2c0,.088-6.108.159-13.641.159s-13.643-.071-13.643-.159,6.107-.159,13.643-.159S693.483,3114.111,693.483,3114.2Z" transform="translate(-666.199 -3114.04)" fill="#344154"/>
                  </g>
                </g>
              </g>
              <g id="Grupo_56764" data-name="Grupo 56764" transform="translate(31.559 17.451)">
                <g id="Grupo_56763" data-name="Grupo 56763">
                  <g id="Grupo_56762" data-name="Grupo 56762">
                    <path id="Trazado_105115" data-name="Trazado 105115" d="M685.129,3120.442c0,.088-4.2.159-9.369.159s-9.37-.071-9.37-.159,4.194-.159,9.37-.159S685.129,3120.354,685.129,3120.442Z" transform="translate(-666.39 -3120.283)" fill="#344154"/>
                  </g>
                </g>
              </g>
            </g>
            <g id="Grupo_56858" data-name="Grupo 56858" transform="translate(93.253 56.245)">
              <g id="Grupo_56768" data-name="Grupo 56768" transform="translate(1.331)">
                <g id="Grupo_56767" data-name="Grupo 56767">
                  <g id="Grupo_56766" data-name="Grupo 56766">
                    <rect id="Rectángulo_8025" data-name="Rectángulo 8025" width="2.81" height="31.385" fill="#d9a171"/>
                  </g>
                </g>
              </g>
              <g id="Grupo_56771" data-name="Grupo 56771" transform="translate(6.756 10.659)">
                <g id="Grupo_56770" data-name="Grupo 56770">
                  <g id="Grupo_56769" data-name="Grupo 56769">
                    <rect id="Rectángulo_8026" data-name="Rectángulo 8026" width="2.81" height="20.725" fill="#d9a171"/>
                  </g>
                </g>
              </g>
              <g id="Grupo_56774" data-name="Grupo 56774" transform="translate(12.182 3.901)">
                <g id="Grupo_56773" data-name="Grupo 56773">
                  <g id="Grupo_56772" data-name="Grupo 56772">
                    <rect id="Rectángulo_8027" data-name="Rectángulo 8027" width="2.81" height="27.643" fill="#d9a171"/>
                  </g>
                </g>
              </g>
              <g id="Grupo_56777" data-name="Grupo 56777" transform="translate(17.607 1.212)">
                <g id="Grupo_56776" data-name="Grupo 56776">
                  <g id="Grupo_56775" data-name="Grupo 56775">
                    <rect id="Rectángulo_8028" data-name="Rectángulo 8028" width="2.81" height="30.173" fill="#d9a171"/>
                  </g>
                </g>
              </g>
              <g id="Grupo_56780" data-name="Grupo 56780" transform="translate(23.032 11.297)">
                <g id="Grupo_56779" data-name="Grupo 56779">
                  <g id="Grupo_56778" data-name="Grupo 56778">
                    <rect id="Rectángulo_8029" data-name="Rectángulo 8029" width="2.81" height="20.087" fill="#d9a171"/>
                  </g>
                </g>
              </g>
              <g id="Grupo_56783" data-name="Grupo 56783" transform="translate(28.458 15.237)">
                <g id="Grupo_56782" data-name="Grupo 56782">
                  <g id="Grupo_56781" data-name="Grupo 56781">
                    <rect id="Rectángulo_8030" data-name="Rectángulo 8030" width="2.81" height="16.148" fill="#d9a171"/>
                  </g>
                </g>
              </g>
              <g id="Grupo_56786" data-name="Grupo 56786" transform="translate(33.883 3.221)">
                <g id="Grupo_56785" data-name="Grupo 56785">
                  <g id="Grupo_56784" data-name="Grupo 56784">
                    <rect id="Rectángulo_8031" data-name="Rectángulo 8031" width="2.81" height="28.164" fill="#d9a171"/>
                  </g>
                </g>
              </g>
              <g id="Grupo_56789" data-name="Grupo 56789" transform="translate(39.309 8.299)">
                <g id="Grupo_56788" data-name="Grupo 56788">
                  <g id="Grupo_56787" data-name="Grupo 56787">
                    <rect id="Rectángulo_8032" data-name="Rectángulo 8032" width="2.81" height="23.086" fill="#d9a171"/>
                  </g>
                </g>
              </g>
              <g id="Grupo_56792" data-name="Grupo 56792" transform="translate(44.734 4.241)">
                <g id="Grupo_56791" data-name="Grupo 56791">
                  <g id="Grupo_56790" data-name="Grupo 56790">
                    <rect id="Rectángulo_8033" data-name="Rectángulo 8033" width="2.81" height="27.143" fill="#d9a171"/>
                  </g>
                </g>
              </g>
              <g id="Grupo_56795" data-name="Grupo 56795" transform="translate(50.159 12.892)">
                <g id="Grupo_56794" data-name="Grupo 56794">
                  <g id="Grupo_56793" data-name="Grupo 56793">
                    <rect id="Rectángulo_8034" data-name="Rectángulo 8034" width="2.81" height="18.492" fill="#d9a171"/>
                  </g>
                </g>
              </g>
              <g id="Grupo_56798" data-name="Grupo 56798" transform="translate(55.585 9.374)">
                <g id="Grupo_56797" data-name="Grupo 56797">
                  <g id="Grupo_56796" data-name="Grupo 56796">
                    <rect id="Rectángulo_8035" data-name="Rectángulo 8035" width="2.81" height="22.011" fill="#d9a171"/>
                  </g>
                </g>
              </g>
              <g id="Grupo_56802" data-name="Grupo 56802" transform="translate(0 33.455)">
                <g id="Grupo_56801" data-name="Grupo 56801">
                  <g id="Grupo_56800" data-name="Grupo 56800">
                    <g id="Grupo_56799" data-name="Grupo 56799">
                      <path id="Trazado_105116" data-name="Trazado 105116" d="M666.381,3231.664c0,.064-13.33.115-29.77.115s-29.772-.051-29.772-.115,13.328-.115,29.772-.115S666.381,3231.6,666.381,3231.664Z" transform="translate(-606.839 -3231.549)" fill="#344154"/>
                    </g>
                  </g>
                </g>
              </g>
              <g id="Grupo_56806" data-name="Grupo 56806" transform="translate(1.168 35.926)">
                <g id="Grupo_56805" data-name="Grupo 56805">
                  <g id="Grupo_56804" data-name="Grupo 56804">
                    <g id="Grupo_56803" data-name="Grupo 56803">
                      <path id="Trazado_105117" data-name="Trazado 105117" d="M613.326,3236.562a18.851,18.851,0,1,1-2.085-.116A9.548,9.548,0,0,1,613.326,3236.562Z" transform="translate(-609.155 -3236.446)" fill="#344154"/>
                    </g>
                  </g>
                </g>
              </g>
              <g id="Grupo_56810" data-name="Grupo 56810" transform="translate(7.272 36.051)">
                <g id="Grupo_56809" data-name="Grupo 56809">
                  <g id="Grupo_56808" data-name="Grupo 56808">
                    <g id="Grupo_56807" data-name="Grupo 56807">
                      <path id="Trazado_105118" data-name="Trazado 105118" d="M626.241,3236.811a26.955,26.955,0,1,1-2.492-.115A13.533,13.533,0,0,1,626.241,3236.811Z" transform="translate(-621.256 -3236.695)" fill="#344154"/>
                    </g>
                  </g>
                </g>
              </g>
              <g id="Grupo_56814" data-name="Grupo 56814" transform="translate(13.173 36.051)">
                <g id="Grupo_56813" data-name="Grupo 56813">
                  <g id="Grupo_56812" data-name="Grupo 56812">
                    <g id="Grupo_56811" data-name="Grupo 56811">
                      <path id="Trazado_105119" data-name="Trazado 105119" d="M637.938,3236.811a26.955,26.955,0,1,1-2.492-.115A13.529,13.529,0,0,1,637.938,3236.811Z" transform="translate(-632.953 -3236.695)" fill="#344154"/>
                    </g>
                  </g>
                </g>
              </g>
              <g id="Grupo_56818" data-name="Grupo 56818" transform="translate(19.073 36.051)">
                <g id="Grupo_56817" data-name="Grupo 56817">
                  <g id="Grupo_56816" data-name="Grupo 56816">
                    <g id="Grupo_56815" data-name="Grupo 56815">
                      <path id="Trazado_105120" data-name="Trazado 105120" d="M649.635,3236.811a26.954,26.954,0,1,1-2.492-.115A13.529,13.529,0,0,1,649.635,3236.811Z" transform="translate(-644.65 -3236.695)" fill="#344154"/>
                    </g>
                  </g>
                </g>
              </g>
              <g id="Grupo_56822" data-name="Grupo 56822" transform="translate(24.973 36.051)">
                <g id="Grupo_56821" data-name="Grupo 56821">
                  <g id="Grupo_56820" data-name="Grupo 56820">
                    <g id="Grupo_56819" data-name="Grupo 56819">
                      <path id="Trazado_105121" data-name="Trazado 105121" d="M661.332,3236.811a26.955,26.955,0,1,1-2.492-.115A13.525,13.525,0,0,1,661.332,3236.811Z" transform="translate(-656.347 -3236.695)" fill="#344154"/>
                    </g>
                  </g>
                </g>
              </g>
              <g id="Grupo_56826" data-name="Grupo 56826" transform="translate(30.874 36.051)">
                <g id="Grupo_56825" data-name="Grupo 56825">
                  <g id="Grupo_56824" data-name="Grupo 56824">
                    <g id="Grupo_56823" data-name="Grupo 56823">
                      <path id="Trazado_105122" data-name="Trazado 105122" d="M673.029,3236.811a26.955,26.955,0,1,1-2.492-.115A13.525,13.525,0,0,1,673.029,3236.811Z" transform="translate(-668.044 -3236.695)" fill="#344154"/>
                    </g>
                  </g>
                </g>
              </g>
              <g id="Grupo_56830" data-name="Grupo 56830" transform="translate(36.774 36.051)">
                <g id="Grupo_56829" data-name="Grupo 56829">
                  <g id="Grupo_56828" data-name="Grupo 56828">
                    <g id="Grupo_56827" data-name="Grupo 56827">
                      <path id="Trazado_105123" data-name="Trazado 105123" d="M684.727,3236.811a26.955,26.955,0,1,1-2.492-.115A13.534,13.534,0,0,1,684.727,3236.811Z" transform="translate(-679.742 -3236.695)" fill="#344154"/>
                    </g>
                  </g>
                </g>
              </g>
              <g id="Grupo_56834" data-name="Grupo 56834" transform="translate(42.675 36.051)">
                <g id="Grupo_56833" data-name="Grupo 56833">
                  <g id="Grupo_56832" data-name="Grupo 56832">
                    <g id="Grupo_56831" data-name="Grupo 56831">
                      <path id="Trazado_105124" data-name="Trazado 105124" d="M696.424,3236.811a26.954,26.954,0,1,1-2.492-.115A13.529,13.529,0,0,1,696.424,3236.811Z" transform="translate(-691.439 -3236.695)" fill="#344154"/>
                    </g>
                  </g>
                </g>
              </g>
              <g id="Grupo_56838" data-name="Grupo 56838" transform="translate(48.575 36.051)">
                <g id="Grupo_56837" data-name="Grupo 56837">
                  <g id="Grupo_56836" data-name="Grupo 56836">
                    <g id="Grupo_56835" data-name="Grupo 56835">
                      <path id="Trazado_105125" data-name="Trazado 105125" d="M708.121,3236.811a26.955,26.955,0,1,1-2.492-.115A13.529,13.529,0,0,1,708.121,3236.811Z" transform="translate(-703.136 -3236.695)" fill="#344154"/>
                    </g>
                  </g>
                </g>
              </g>
              <g id="Grupo_56842" data-name="Grupo 56842" transform="translate(54.475 36.051)">
                <g id="Grupo_56841" data-name="Grupo 56841">
                  <g id="Grupo_56840" data-name="Grupo 56840">
                    <g id="Grupo_56839" data-name="Grupo 56839">
                      <path id="Trazado_105126" data-name="Trazado 105126" d="M719.818,3236.811a26.954,26.954,0,1,1-2.492-.115A13.525,13.525,0,0,1,719.818,3236.811Z" transform="translate(-714.833 -3236.695)" fill="#344154"/>
                    </g>
                  </g>
                </g>
              </g>
              <g id="Grupo_56845" data-name="Grupo 56845" transform="translate(6.756 10.659)" opacity="0.3">
                <g id="Grupo_56844" data-name="Grupo 56844">
                  <g id="Grupo_56843" data-name="Grupo 56843">
                    <rect id="Rectángulo_8036" data-name="Rectángulo 8036" width="2.81" height="20.725" fill="#fff"/>
                  </g>
                </g>
              </g>
              <g id="Grupo_56848" data-name="Grupo 56848" transform="translate(17.607 1.212)" opacity="0.3">
                <g id="Grupo_56847" data-name="Grupo 56847">
                  <g id="Grupo_56846" data-name="Grupo 56846">
                    <rect id="Rectángulo_8037" data-name="Rectángulo 8037" width="2.81" height="30.173" fill="#fff"/>
                  </g>
                </g>
              </g>
              <g id="Grupo_56851" data-name="Grupo 56851" transform="translate(28.458 15.237)" opacity="0.3">
                <g id="Grupo_56850" data-name="Grupo 56850">
                  <g id="Grupo_56849" data-name="Grupo 56849">
                    <rect id="Rectángulo_8038" data-name="Rectángulo 8038" width="2.81" height="16.148" fill="#fff"/>
                  </g>
                </g>
              </g>
              <g id="Grupo_56854" data-name="Grupo 56854" transform="translate(39.309 8.299)" opacity="0.3">
                <g id="Grupo_56853" data-name="Grupo 56853">
                  <g id="Grupo_56852" data-name="Grupo 56852">
                    <rect id="Rectángulo_8039" data-name="Rectángulo 8039" width="2.81" height="23.086" fill="#fff"/>
                  </g>
                </g>
              </g>
              <g id="Grupo_56857" data-name="Grupo 56857" transform="translate(50.159 12.892)" opacity="0.3">
                <g id="Grupo_56856" data-name="Grupo 56856">
                  <g id="Grupo_56855" data-name="Grupo 56855">
                    <rect id="Rectángulo_8040" data-name="Rectángulo 8040" width="2.81" height="18.492" fill="#fff"/>
                  </g>
                </g>
              </g>
            </g>
            <g id="Grupo_56860" data-name="Grupo 56860" transform="translate(14.617 17.614)">
              <g id="Grupo_56859" data-name="Grupo 56859">
                <path id="Trazado_105127" data-name="Trazado 105127" d="M456.358,3091.346a2.7,2.7,0,1,1-2.7-2.705A2.7,2.7,0,0,1,456.358,3091.346Z" transform="translate(-450.948 -3088.641)" fill="#d9a171"/>
              </g>
            </g>
            <g id="Grupo_56863" data-name="Grupo 56863" transform="translate(25.792 18.026)">
              <g id="Grupo_56862" data-name="Grupo 56862">
                <g id="Grupo_56861" data-name="Grupo 56861">
                  <path id="Trazado_105128" data-name="Trazado 105128" d="M513.843,3089.617c0,.088-9.121.16-20.369.16s-20.371-.072-20.371-.16,9.119-.159,20.371-.159S513.843,3089.53,513.843,3089.617Z" transform="translate(-473.103 -3089.458)" fill="#d9a171"/>
                </g>
              </g>
            </g>
            <g id="Grupo_56866" data-name="Grupo 56866" transform="translate(26.09 21.297)">
              <g id="Grupo_56865" data-name="Grupo 56865">
                <g id="Grupo_56864" data-name="Grupo 56864">
                  <path id="Trazado_105129" data-name="Trazado 105129" d="M489.751,3096.1a2.45,2.45,0,0,1-.631.063c-.407.019-.994.036-1.721.05-1.453.029-3.46.047-5.677.047s-4.225-.018-5.678-.047c-.727-.014-1.315-.031-1.721-.05a.319.319,0,1,1,0-.125c.406-.02.994-.036,1.721-.05,1.453-.029,3.46-.047,5.678-.047s4.224.018,5.677.047c.726.014,1.314.031,1.721.05A2.467,2.467,0,0,1,489.751,3096.1Z" transform="translate(-473.693 -3095.943)" fill="#d9a171"/>
                </g>
              </g>
            </g>
          </g>
          <path id="Trazado_105130" data-name="Trazado 105130" d="M631.1,3225.849l5.246,11.9,1.831-5.236,4.489-1.645Z" transform="translate(-515.656 -3118.864)" fill="#5e6178"/>
          <rect id="Rectángulo_8041" data-name="Rectángulo 8041" width="6.593" height="6.593" transform="translate(125.462 116.054)" fill="#fff"/>
          <path id="Trazado_105131" data-name="Trazado 105131" d="M657.464,3250.242s0-.187-.025-.5,0-.8-.03-1.352c0-1.186-.035-2.81-.055-4.742l.111.111h-6.588c-.03,0,.247-.247.131-.131h0v6.583l-.111-.116,4.742.056,1.352.03a3.523,3.523,0,0,1,.5.03,3.825,3.825,0,0,1-.449,0l-1.327.031-4.812.055h-.116V3243.6h0l.131-.131h6.7v.116c0,1.962-.045,3.612-.061,4.812,0,.545,0,1.009-.03,1.327A2.338,2.338,0,0,1,657.464,3250.242Z" transform="translate(-525.414 -3127.596)" fill="#5e6178"/>
          <path id="Trazado_105132" data-name="Trazado 105132" d="M657.361,3250.405a27.481,27.481,0,0,1,0-5.367A27.586,27.586,0,0,1,657.361,3250.405Z" transform="translate(-528.606 -3128.374)" fill="#5e6178"/>
          <path id="Trazado_105133" data-name="Trazado 105133" d="M657.537,3250.229a27.454,27.454,0,0,1-5.367,0A27.607,27.607,0,0,1,657.537,3250.229Z" transform="translate(-526.098 -3130.882)" fill="#5e6178"/>
          <rect id="Rectángulo_8042" data-name="Rectángulo 8042" width="7.244" height="121.572" transform="translate(173.761 19.506)" fill="#344154"/>
          <path id="Trazado_105134" data-name="Trazado 105134" d="M750.332,3080.768h0a3.622,3.622,0,0,1,3.622,3.622v17.66a3.622,3.622,0,0,1-3.622,3.622h0a3.622,3.622,0,0,1-3.622-3.622v-17.66A3.622,3.622,0,0,1,750.332,3080.768Z" transform="translate(-572.949 -3046.966)" fill="#5e6178"/>
          <path id="Trazado_105135" data-name="Trazado 105135" d="M480.092,3107.666v-1.856c0-1.211,0-2.966-.03-5.2,0-4.464-.035-10.825-.055-18.447l.111.111H454.623c-.035,0,.247-.247.126-.126h0v25.489l-.116-.116,18.452.06,5.191.031h.045l-5.165.03-18.523.055h-.111v-25.539h0c-.116.111.161-.167.136-.136h25.61v.136c-.025,7.652-.045,14.038-.061,18.518,0,2.219,0,3.965-.03,5.17v1.695A.466.466,0,0,1,480.092,3107.666Z" transform="translate(-428.135 -3047.589)" fill="#5e6178"/>
          <path id="Trazado_105136" data-name="Trazado 105136" d="M460.381,3087.994h1.392l3.98-.03,14.3-.056h.111v19.784c.025-.03-.252.247-.136.131H460.29v-.116c0-5.907.045-10.83.06-14.3,0-1.705,0-3.026.03-3.985v-1.392a.864.864,0,0,1,0,.1v1.336c0,.943,0,2.3.03,4.036,0,3.45.035,8.348.056,14.225l-.111-.116h19.668l-.126.131v-19.672l.116.116-14.225-.06-4.035-.031h-1.342A.38.38,0,0,1,460.381,3087.994Z" transform="translate(-431.008 -3050.505)" fill="#5e6178"/>
          <path id="Trazado_105137" data-name="Trazado 105137" d="M454.63,3082.3a16.961,16.961,0,0,1,2.976,2.916,7.864,7.864,0,0,1-1.584-1.362A8.564,8.564,0,0,1,454.63,3082.3Z" transform="translate(-428.203 -3047.725)" fill="#5e6178"/>
          <path id="Trazado_105138" data-name="Trazado 105138" d="M502.4,3082.478a7.751,7.751,0,0,1-1.256,1.559,8.068,8.068,0,0,1-1.453,1.387,7.573,7.573,0,0,1,1.256-1.564A7.7,7.7,0,0,1,502.4,3082.478Z" transform="translate(-450.533 -3047.814)" fill="#5e6178"/>
          <path id="Trazado_105139" data-name="Trazado 105139" d="M502.382,3130.153a12.791,12.791,0,0,1-1.236-1.433,12.3,12.3,0,0,1-1.236-1.423,7.256,7.256,0,0,1,2.452,2.875Z" transform="translate(-450.642 -3070.025)" fill="#5e6178"/>
          <path id="Trazado_105140" data-name="Trazado 105140" d="M457.3,3127.018a8.015,8.015,0,0,1-1.322,1.543,7.881,7.881,0,0,1-1.513,1.362,15.679,15.679,0,0,1,2.835-2.906Z" transform="translate(-428.124 -3069.886)" fill="#5e6178"/>
          <path id="Trazado_105141" data-name="Trazado 105141" d="M468.871,3095.779a1.019,1.019,0,0,1,.2,0h.6l2.3-.03,8.293-.061h.111v11.5l-.136.131H468.76v-.116c.025-3.415.045-6.265.055-8.293,0-.968.025-1.745.03-2.3v-.792a1.358,1.358,0,0,1,0,.222v.62c0,.56,0,1.342.025,2.326,0,2.017.035,4.833.061,8.217l-.116-.111H480.2c.121-.116-.156.161-.126.131V3095.84l.116.111-8.217-.055-2.331-.03h-.62Z" transform="translate(-435.205 -3054.36)" fill="#5e6178"/>
          <path id="Trazado_105142" data-name="Trazado 105142" d="M583.809,3293.519c0,.071-40.395.131-90.212.131s-90.217-.061-90.217-.131,40.385-.131,90.217-.131S583.809,3293.444,583.809,3293.519Z" transform="translate(-402.805 -3152.335)" fill="#5e6178"/>
        </g>
        <g id="freepik--Character--inject-3" transform="translate(39.904 58.341)">
          <path id="Trazado_105143" data-name="Trazado 105143" d="M691.584,3397.206h-8.017s-18.1-6.535-21.818-5.929c-3.347.566-15.619,8.716-18.024,10.33a1.511,1.511,0,0,0-.58.745h0a2.635,2.635,0,0,0,1.463,3.339l.257.106-.112.363a4.365,4.365,0,0,0-.184,1.469,1.772,1.772,0,0,0,3.294.764l-.461.816a2.014,2.014,0,0,0-.257,1.1l.039.75a2.022,2.022,0,0,0,1.383,1.8h0a1.974,1.974,0,0,0,2.108-.553c1.555-1.712,5.105-4.21,7.378-4.611,2.022-.336,5.2-1.317,7.246-1.317a2.529,2.529,0,0,1,2.339,1.607h0c-1.35.1-8.314,3.294-11.64,5.02a3.578,3.578,0,0,0-1.937,2.681c-.119,1.041.408,2.135,2.47,1.647,4.42-1.028,9.934-2.951,9.934-2.951s4.1-1.172,6.759.7c3.742,2.634,5.454,3.61,8.669,2.543a27.537,27.537,0,0,0,5.58-2.589l6.324-.659S699.766,3399.512,691.584,3397.206Z" transform="translate(-589.775 -3203.635)" fill="#ffbe9d"/>
          <path id="Trazado_105144" data-name="Trazado 105144" d="M698.955,3415.305a2.382,2.382,0,0,1-.428.31,2.887,2.887,0,0,1-.553.329,5.061,5.061,0,0,1-.8.362,8.726,8.726,0,0,1-5.514.184,8.554,8.554,0,0,1-3.386-1.838l-.4-.363-.356-.4a7.462,7.462,0,0,1-.659-.889c-.4-.659-.7-1.317-1.14-1.943a2.781,2.781,0,0,0-1.8-1.252,9.1,9.1,0,0,0-2.424,0,14.353,14.353,0,0,1-5.224-.514,14.925,14.925,0,0,1-6.324-3.67,1.147,1.147,0,0,1-.3-1.212,1.161,1.161,0,0,1,.962-.77h0l11.759-.494,3.373-.113h.9a1.174,1.174,0,0,1,.31,0l-.31.04-.889.066-3.366.2-11.752.613h0a.831.831,0,0,0-.461,1.436,15.261,15.261,0,0,0,1.792,1.475,14.79,14.79,0,0,0,4.394,2.1,14.153,14.153,0,0,0,5.105.507,8.941,8.941,0,0,1,2.517,0,2.973,2.973,0,0,1,1.159.494,3.7,3.7,0,0,1,.843.889c.455.659.751,1.364,1.133,1.977a7.5,7.5,0,0,0,.659.856l.343.4.375.343a8.332,8.332,0,0,0,3.294,1.824,8.752,8.752,0,0,0,5.4-.079A13.278,13.278,0,0,0,698.955,3415.305Z" transform="translate(-598.852 -3207.656)" fill="#eb996e"/>
          <path id="Trazado_105145" data-name="Trazado 105145" d="M829.811,3111.023a7.162,7.162,0,0,0-7.708-3.043,9.81,9.81,0,0,0-12.016,1.186,8.723,8.723,0,0,0-12.517,8.156,7.28,7.28,0,0,0-5.389,12.747A7,7,0,0,0,796.2,3143.4l32.938-24.111A7.167,7.167,0,0,0,829.811,3111.023Z" transform="translate(-639.208 -3106.457)" fill="#344154"/>
          <path id="Trazado_105146" data-name="Trazado 105146" d="M799.107,3148.748a29.71,29.71,0,0,1,27.345-29.585l1.535-.118c16.608-.356,26.186,13.551,26.081,30.164l1.976,55.25-1.719,7.1-22.358,18.445-11.232-9.947L817.52,3203.8s-16.094-1.206-17.556-17.082C799.265,3179.051,799.074,3163.148,799.107,3148.748Z" transform="translate(-643.049 -3110.75)" fill="#ffbe9d"/>
          <path id="Trazado_105147" data-name="Trazado 105147" d="M826.869,3243.672a38.658,38.658,0,0,0,20.336-7.754s-3.953,11.824-19.954,11.66Z" transform="translate(-652.524 -3150.634)" fill="#eb996e"/>
          <path id="Trazado_105148" data-name="Trazado 105148" d="M807.889,3184.76a2.273,2.273,0,0,0,2.365,2.115,2.174,2.174,0,0,0,2.182-2.166c0-.023,0-.045,0-.068a2.279,2.279,0,0,0-2.372-2.114,2.175,2.175,0,0,0-2.175,2.173C807.888,3184.721,807.889,3184.74,807.889,3184.76Z" transform="translate(-646.047 -3132.415)" fill="#5e6178"/>
          <path id="Trazado_105149" data-name="Trazado 105149" d="M805.037,3175.353c.3.27,1.924-1.14,4.361-1.317s4.335.9,4.572.573c.119-.145-.211-.659-1.034-1.16a6.246,6.246,0,0,0-3.689-.823,6.019,6.019,0,0,0-3.445,1.423C805.1,3174.675,804.892,3175.228,805.037,3175.353Z" transform="translate(-645.059 -3129.028)" fill="#5e6178"/>
          <path id="Trazado_105150" data-name="Trazado 105150" d="M839.779,3183.81a2.273,2.273,0,0,0,2.372,2.115,2.173,2.173,0,0,0,2.181-2.167c0-.02,0-.04,0-.06a2.286,2.286,0,0,0-2.372-2.121,2.181,2.181,0,0,0-2.181,2.179C839.778,3183.774,839.779,3183.792,839.779,3183.81Z" transform="translate(-656.929 -3132.09)" fill="#5e6178"/>
          <path id="Trazado_105151" data-name="Trazado 105151" d="M840.467,3172c.3.276,1.924-1.133,4.367-1.317s4.328.889,4.572.573c.119-.146-.211-.659-1.041-1.166a6.228,6.228,0,0,0-3.683-.817,5.93,5.93,0,0,0-3.445,1.423C840.533,3171.324,840.322,3171.917,840.467,3172Z" transform="translate(-657.149 -3127.885)" fill="#5e6178"/>
          <path id="Trazado_105152" data-name="Trazado 105152" d="M827.17,3191.292c0-.139-1.535-.284-4.018-.4-.659,0-1.232-.092-1.37-.507a3.2,3.2,0,0,1,.27-1.884c.461-1.555.949-3.182,1.463-4.9,2.022-6.963,3.432-12.668,3.149-12.747s-2.147,5.5-4.163,12.464l-1.39,4.954a3.612,3.612,0,0,0-.125,2.471,1.548,1.548,0,0,0,1.094.83,4.148,4.148,0,0,0,1.074.065C825.635,3191.569,827.177,3191.431,827.17,3191.292Z" transform="translate(-650.454 -3128.433)" fill="#5e6178"/>
          <path id="Trazado_105153" data-name="Trazado 105153" d="M837.826,3203.567c-.4,0-.191,2.635-2.313,4.723s-4.966,1.976-4.954,2.365c0,.171.659.467,1.864.4a6.586,6.586,0,0,0,4.15-1.824,5.783,5.783,0,0,0,1.766-3.953C838.352,3204.174,838,3203.541,837.826,3203.567Z" transform="translate(-653.783 -3139.595)" fill="#5e6178"/>
          <path id="Trazado_105154" data-name="Trazado 105154" d="M839.581,3161.422c.343.607,2.4-.131,4.954-.29s4.73.2,4.947-.455c.086-.31-.382-.85-1.318-1.317a7.632,7.632,0,0,0-3.873-.659,7.334,7.334,0,0,0-3.669,1.258C839.786,3160.52,839.43,3161.125,839.581,3161.422Z" transform="translate(-656.85 -3124.274)" fill="#5e6178"/>
          <path id="Trazado_105155" data-name="Trazado 105155" d="M805.033,3165.23c.428.56,2.114,0,4.143-.04s3.748.389,4.144-.2c.178-.276-.092-.837-.843-1.363a6.007,6.007,0,0,0-6.68.185C805.105,3164.414,804.868,3164.959,805.033,3165.23Z" transform="translate(-645.055 -3125.651)" fill="#5e6178"/>
          <path id="Trazado_105156" data-name="Trazado 105156" d="M800.477,3140.362s3.4-10.283,8.01-12.991c5.586-3.294,8.6,2.905,14.005.916s10.745-5.132,16.746-1.318c6.588,4.19,3.953,7.708,4.875,14.73,3.827,28.465,9.7,36.133,10.105,22.55.046-1.489,4.045-2.991,4.157-9.269.139-8.149-.329-17.984-2.6-23.576-1.9-4.711-4.927-7.833-10.165-11.12-8.267-5.191-18.992-4.46-26.211-3.149S798.837,3127.958,800.477,3140.362Z" transform="translate(-643.471 -3109.775)" fill="#344154"/>
          <path id="Trazado_105157" data-name="Trazado 105157" d="M880.537,3186.284a4.321,4.321,0,0,1,4.113-4.52c.072,0,.144-.005.216-.005,2.984.046,6.416,1.462,6.706,7.6.52,10.9-10.54,9.17-10.54,8.86S880.714,3190.843,880.537,3186.284Z" transform="translate(-670.836 -3132.153)" fill="#ffbe9d"/>
          <path id="Trazado_105158" data-name="Trazado 105158" d="M884.564,3195.817c.046-.033.2.125.527.257a1.853,1.853,0,0,0,1.416-.04c1.133-.474,2.016-2.352,1.976-4.315a6.237,6.237,0,0,0-.659-2.688,2.188,2.188,0,0,0-1.5-1.39.962.962,0,0,0-1.093.574c-.132.309-.053.526-.112.546s-.244-.172-.178-.658a1.266,1.266,0,0,1,.395-.705,1.452,1.452,0,0,1,1.041-.323,2.635,2.635,0,0,1,2.062,1.595,6.451,6.451,0,0,1,.8,3c0,2.194-.995,4.3-2.543,4.835a2.051,2.051,0,0,1-1.752-.2C884.6,3196.081,884.524,3195.844,884.564,3195.817Z" transform="translate(-672.208 -3133.965)" fill="#eb996e"/>
          <path id="Trazado_105159" data-name="Trazado 105159" d="M854.558,3141.074a10.27,10.27,0,0,1-4.433,2.49c-1.686.3-3.709-.52-4.13-2.181-.191-.744-.073-1.64-.619-2.18-.659-.658-1.726-.349-2.635-.178a6.963,6.963,0,0,1-7.6-4.4c-.7,1.271-2.589,1.37-3.873.659a16.317,16.317,0,0,1-3.208-2.932c-1.041-1.015-2.457-1.884-3.88-1.569a10.884,10.884,0,0,1-2.319.712c-1.436,0-2.266-1.627-2.6-3.03s-.659-3.037-1.9-3.709-2.6-.1-3.893.2-3.024.125-3.458-1.133a2.572,2.572,0,0,1,.329-2.009,7.057,7.057,0,0,1,8.09-3.327,9.566,9.566,0,0,1,17.378-3.248,9.711,9.711,0,0,1,15.751,2.293,7.035,7.035,0,0,1,8.722,9.578c2.042.955,3.874,2.767,4.091,5.007s-1.792,4.664-4.012,4.242a3.9,3.9,0,0,1-6.41,4.414" transform="translate(-646.748 -3107.971)" fill="#344154"/>
          <path id="Trazado_105160" data-name="Trazado 105160" d="M879.506,3149.468a2.6,2.6,0,0,1-.507,2.141,3.534,3.534,0,0,1-2.075,1.476,3.763,3.763,0,0,1-3.168-.659l.454-.105a11.086,11.086,0,0,1-1.976,2.878,6.216,6.216,0,0,1-1.878,1.39,4.2,4.2,0,0,1-2.174.375,4.262,4.262,0,0,1-3.294-1.549,6.168,6.168,0,0,1-1.06-2.187,2.207,2.207,0,0,1-.158-.87,3.087,3.087,0,0,1,.389.784,7.223,7.223,0,0,0,1.166,1.977c1.153,1.476,4.572,1.976,6.541-.369a10.944,10.944,0,0,0,1.864-2.7l.165-.336.29.23a3.35,3.35,0,0,0,2.688.626,3.209,3.209,0,0,0,1.884-1.2A5.263,5.263,0,0,0,879.506,3149.468Z" transform="translate(-665.082 -3121.134)" fill="#344154"/>
          <path id="Trazado_105161" data-name="Trazado 105161" d="M838.921,3112.69c0,.04-.277.1-.744.343a3.759,3.759,0,0,0-1.575,1.568l-.112.217-.165-.185a13.519,13.519,0,0,0-5.593-3.834,10.6,10.6,0,0,0-4.354-.6,8.892,8.892,0,0,0-4.493,1.68,9.055,9.055,0,0,0-2.536,2.82,7.377,7.377,0,0,0-.928,3.366v.35l-.336-.066a6.133,6.133,0,0,0-4.473.909,5.97,5.97,0,0,0-2.26,2.846,8.138,8.138,0,0,0-.422,3.293,2.223,2.223,0,0,1-.2-.882,6.109,6.109,0,0,1,.3-2.51,6.215,6.215,0,0,1,2.312-3.13,6.588,6.588,0,0,1,4.855-1.073l-.343.283a7.853,7.853,0,0,1,.975-3.67,9.5,9.5,0,0,1,2.7-3.023,9.391,9.391,0,0,1,4.816-1.779,11.034,11.034,0,0,1,4.611.659,13.249,13.249,0,0,1,5.665,4.137h-.277a3.728,3.728,0,0,1,1.8-1.575A1.755,1.755,0,0,1,838.921,3112.69Z" transform="translate(-647.007 -3107.525)" fill="#344154"/>
          <path id="Trazado_105162" data-name="Trazado 105162" d="M865.517,3314.427c-.6,0-1.851-51.021-1.851-51.021l-34.842-12.437-26.732,24.078-13.643-21.476-12.009,5.52c-1.515.7-8.162,3.36-9.486,4.368-3.808,2.905-11.759,9.882-14.005,18.34-3.426,12.945-8.8,55.995-8.8,55.995l-32.727,11.548.711,21.08,32.029,5.013c7.727-.277,17.082-3.544,20.092-8.907v11.252h98.4S866.109,3314.427,865.517,3314.427Z" transform="translate(-613.128 -3155.77)" fill="#d9a171"/>
          <path id="Trazado_105163" data-name="Trazado 105163" d="M792.7,3317.838a1.249,1.249,0,0,1,0,.21v3.01c-.04,2.069-.125,5.06-.29,8.762s-.4,8.1-.573,12.991-.244,10.264-.277,15.909c-.053,11.3,0,21.528,0,28.932v11.766a.749.749,0,0,1,0,.217.93.93,0,0,1,0-.211v-.626c0-.566-.033-1.364-.053-2.378,0-2.095-.059-5.086-.105-8.768-.066-7.4-.132-17.635-.079-28.932.033-5.646.105-11.028.3-15.922s.455-9.3.659-12.991.323-6.687.4-8.755c.039-1.015.066-1.818.092-2.385a3.316,3.316,0,0,1,.033-.619A.9.9,0,0,1,792.7,3317.838Z" transform="translate(-640.386 -3178.589)" fill="#5e6178"/>
          <g id="Grupo_56868" data-name="Grupo 56868" transform="translate(147.315 144.091)" opacity="0.3">
            <path id="Trazado_105164" data-name="Trazado 105164" d="M790.832,3325.188c-5.58,21.041-7.062,43.84-1.456,64.875C789.482,3366.644,789.35,3344.713,790.832,3325.188Z" transform="translate(-785.838 -3325.188)"/>
          </g>
          <g id="Grupo_56869" data-name="Grupo 56869" transform="translate(234.253 144.605)" opacity="0.3">
            <path id="Trazado_105165" data-name="Trazado 105165" d="M917.809,3327.642q3.064,19.7,6.094,39.387a2.638,2.638,0,0,0,.428,1.278c.659.83,1.937.612,2.951.323,2.464-.718,6.344-.981,7.675-3.182l.322-5.606c-.355-1.7-1.976-3.333-2.773-4.888q-7.174-14.493-14.335-28.985" transform="translate(-917.809 -3325.968)"/>
          </g>
          <path id="Trazado_105166" data-name="Trazado 105166" d="M933.881,3269.7s11.377,6.4,15.593,15.415c5.145,11,27.912,50.606,28.755,60.488s.5,21.179-16.357,24.545a189.483,189.483,0,0,1-34.46,3.142l-6.871-20.474,19.322-9.98-4.816-4.229a11.291,11.291,0,0,1-2.569-3.294l-14.539-28" transform="translate(-683.601 -3162.162)" fill="#d9a171"/>
          <path id="Trazado_105167" data-name="Trazado 105167" d="M917.939,3307.344s.132.217.362.658l1.028,1.937,3.906,7.45,6.14,11.759,1.858,3.557.968,1.858a17.032,17.032,0,0,0,1.06,1.871,11.375,11.375,0,0,0,1.416,1.68c.534.514,1.127,1,1.7,1.515l3.57,3.128.145.126-.171.086-19.315,10,.072-.178,6.891,20.468-.151-.112c5.586,0,11.423-.257,17.411-.784,3-.257,6.028-.593,9.084-1.028s6.146-.915,9.223-1.64l1.515-.369c.5-.138.988-.329,1.476-.494s.988-.316,1.463-.521l1.4-.659c.237-.111.468-.21.7-.329l.659-.4c.435-.27.876-.527,1.318-.81a17.381,17.381,0,0,0,2.279-1.977,14.056,14.056,0,0,0,3.129-5.079,21.874,21.874,0,0,0,1.2-5.79,45.656,45.656,0,0,0,0-5.85,25.225,25.225,0,0,0-.3-2.859,25.856,25.856,0,0,0-.731-2.747c-.573-1.812-1.258-3.557-1.976-5.27s-1.462-3.392-2.207-5.046c-3.037-6.588-6.179-12.747-9.15-18.491s-5.8-11.047-8.366-15.9l-3.636-6.95c-.567-1.1-1.113-2.174-1.627-3.221-.25-.527-.5-1.041-.751-1.555s-.507-.988-.758-1.469a29.676,29.676,0,0,0-3.531-4.921,44.942,44.942,0,0,0-3.623-3.59,54.61,54.61,0,0,0-5.6-4.308c-.659-.455-1.192-.784-1.542-1l-.527-.336s.191.1.547.3.883.533,1.561.975a51.871,51.871,0,0,1,5.646,4.268,43.814,43.814,0,0,1,3.663,3.584,29.732,29.732,0,0,1,3.57,4.934c.257.481.527.975.777,1.482s.494,1.021.751,1.542c.52,1.047,1.067,2.115,1.634,3.214q1.739,3.3,3.656,6.93c2.582,4.855,5.422,10.158,8.412,15.9s6.133,11.857,9.177,18.485c.758,1.653,1.509,3.333,2.22,5.052s1.4,3.478,1.976,5.27a24.55,24.55,0,0,1,.744,2.793,25.2,25.2,0,0,1,.3,2.9,46.108,46.108,0,0,1,0,5.929,22.2,22.2,0,0,1-1.212,5.883,14.281,14.281,0,0,1-3.208,5.191,16.851,16.851,0,0,1-2.325,2.055c-.428.283-.876.546-1.318.823l-.659.408-.711.336-1.416.659c-.481.211-.988.349-1.482.527s-.988.356-1.489.5l-1.535.369c-3.083.731-6.173,1.212-9.223,1.647s-6.1.771-9.1,1.034c-6,.52-11.858.784-17.451.771h-.119l-.033-.112c-2.418-7.2-4.723-14.1-6.864-20.481l-.04-.119.112-.059,19.335-9.967v.211l-3.564-3.135c-.573-.514-1.159-.995-1.706-1.529a11.707,11.707,0,0,1-1.436-1.719,18.28,18.28,0,0,1-1.074-1.9c-.323-.659-.659-1.252-.962-1.864q-.949-1.838-1.845-3.558c-2.365-4.611-4.414-8.564-6.087-11.792l-3.841-7.477c-.435-.856-.771-1.509-.995-1.976A3.964,3.964,0,0,0,917.939,3307.344Z" transform="translate(-683.601 -3162.178)" fill="#5e6178"/>
          <path id="Trazado_105168" data-name="Trazado 105168" d="M927.2,3268.646a11.066,11.066,0,0,1-1.053.659,28.093,28.093,0,0,0-2.767,1.976,25.919,25.919,0,0,0-9.586,19.532,28.516,28.516,0,0,0,.119,3.406c.073.8.132,1.245.105,1.251a1.324,1.324,0,0,1-.086-.316c-.033-.211-.105-.52-.151-.922a22.143,22.143,0,0,1-.224-3.426,25.179,25.179,0,0,1,9.671-19.7,23.739,23.739,0,0,1,2.846-1.917c.349-.211.659-.343.823-.435A.6.6,0,0,1,927.2,3268.646Z" transform="translate(-682.105 -3161.802)" fill="#5e6178"/>
          <path id="Trazado_105169" data-name="Trazado 105169" d="M971.746,3368.148a3.735,3.735,0,0,1-.843.244l-2.312.58a65.342,65.342,0,0,0-7.477,2.411,55.616,55.616,0,0,0-7.075,3.4c-.876.5-1.574.915-2.055,1.218a4.387,4.387,0,0,1-.763.428,4.6,4.6,0,0,1,.691-.54c.462-.336,1.14-.784,1.976-1.318a46.834,46.834,0,0,1,7.108-3.5,53.133,53.133,0,0,1,7.543-2.332c.982-.224,1.786-.382,2.345-.474A4.858,4.858,0,0,1,971.746,3368.148Z" transform="translate(-694.957 -3195.756)" fill="#5e6178"/>
          <g id="Grupo_56870" data-name="Grupo 56870" transform="translate(189.049 96.37)" opacity="0.3">
            <path id="Trazado_105170" data-name="Trazado 105170" d="M874.861,3252.774a6.23,6.23,0,0,0-2.773,1.377,134.374,134.374,0,0,0-21.792,20.085l-1.107,2.049c2.457-1.621,5.27-3.294,8.142-2.721,2.464.52,4.249,2.583,5.85,4.526a205.373,205.373,0,0,0,16.113-23.459C877.99,3253.624,876.495,3252.563,874.861,3252.774Z" transform="translate(-849.189 -3252.747)"/>
          </g>
          <path id="Trazado_105171" data-name="Trazado 105171" d="M849.029,3271.938l9.829-12.431,14.783-17.648,7.852,7.371-13.768,21.318-9.776-5.883Z" transform="translate(-660.086 -3152.662)" fill="#fff"/>
          <g id="Grupo_56871" data-name="Grupo 56871" transform="translate(171.091 101.002)" opacity="0.3">
            <path id="Trazado_105172" data-name="Trazado 105172" d="M822.047,3261.978c1.318,7,4.552,12.833,5.863,19.829,1.561-2.042,1.186-2.912,2.747-4.954a5.631,5.631,0,0,1,2.286-2.036c1.68-.659,3.531.323,5.059,1.259a57.134,57.134,0,0,0-7.859-7.2l-.119.567q-3.953-4.908-8.1-9.664" transform="translate(-821.929 -3259.778)"/>
          </g>
          <path id="Trazado_105173" data-name="Trazado 105173" d="M839.091,3275.219l-13.807-23.531h0l-4.934,4.546,4.671,21.054,6.627-8.531Z" transform="translate(-650.299 -3156.015)" fill="#fff"/>
          <path id="Trazado_105174" data-name="Trazado 105174" d="M838.438,3270.824l-.25-.389-.7-1.159-2.635-4.473-9.749-16.5h.185l-4.967,4.361.04-.132c1.423,6.377,3.017,13.524,4.743,21.245l-.283-.066,6.588-8.564.105-.138.132.112,7.451,6.462-.145-.039.8-.151-.086.039c2.391-2.127,5.04-4.229,7.615-6.469l.659-.579.092-.079.105.06c3.432,1.831,6.515,4.1,9.776,5.883l-.224.059,13.775-21.311v.2q-4.092-3.864-7.84-7.378h.2l-17.358,21.081-4.855,5.857-1.252,1.627c-.3.342-.455.514-.455.514s.139-.185.422-.541l1.245-1.561,4.789-5.929,17.273-21.179.1-.112.112.1,7.852,7.364.1.087-.072.1-13.748,21.331-.086.132-.138-.079c-3.294-1.792-6.37-4.065-9.777-5.876h.2l-.659.579c-2.589,2.253-5.27,4.348-7.615,6.469h-.086l-.8.152h-.079l-.066-.053-7.444-6.463h.244l-6.634,8.518-.2.271-.072-.336-4.71-21.278v-.08l.06-.053,4.987-4.341.111-.1.073.133,9.657,16.554,2.6,4.506.659,1.18C838.373,3270.679,838.438,3270.824,838.438,3270.824Z" transform="translate(-650.2 -3152.562)" fill="#5e6178"/>
          <path id="Trazado_105175" data-name="Trazado 105175" d="M791.689,3278.3c.092,0,0,4.282-.138,9.565a94.106,94.106,0,0,1-.52,9.539c-.119,0-.033-4.282.138-9.565S791.584,3278.3,791.689,3278.3Z" transform="translate(-640.276 -3165.096)" fill="#5e6178"/>
          <path id="Trazado_105176" data-name="Trazado 105176" d="M878.252,3398.973a6.947,6.947,0,0,0-2.4.877c-1.765,1.192-2.161,3.577-2.4,5.7-.073.658-.092,1.456.455,1.844a1.879,1.879,0,0,0,1.621,0,50.273,50.273,0,0,0,10.362-4.611c1.746-1.021,3.544-2.306,4.137-4.235l.112-.83A49.537,49.537,0,0,0,878.252,3398.973Z" transform="translate(-668.406 -3205.844)" fill="#ffbe9d"/>
          <path id="Trazado_105177" data-name="Trazado 105177" d="M900.909,3377.12l3.913,3.28,1.087-1.265-3.926-3.307Z" transform="translate(-677.789 -3198.377)" fill="#344154"/>
          <path id="Trazado_105178" data-name="Trazado 105178" d="M897.733,3388.093c-.066.066-.54-.27-1.067-.758s-.889-.935-.83-1,.54.27,1.067.751S897.792,3388.02,897.733,3388.093Z" transform="translate(-676.056 -3201.959)" fill="#344154"/>
          <path id="Trazado_105179" data-name="Trazado 105179" d="M903.207,3397.7l-6.054,2.115s-5.553-1.4-7.905-1.937a6.063,6.063,0,0,0-4.684.823c-2.846,1.845-7.74,5.02-9.492,6.186s-6.225,4.868-6.225,4.868-3.248,3.722-2.188,5.856,4,1.831,4,1.831a4.432,4.432,0,0,0,3.518,3.294s-.738,1.159,2.036,1.9,9.223,0,9.223,0,11.858.487,12.984-.086,6.12-5.652,6.12-5.652l4.229-2.53Z" transform="translate(-666.029 -3205.84)" fill="#ffbe9d"/>
          <path id="Trazado_105180" data-name="Trazado 105180" d="M880.472,3403.938a14.316,14.316,0,0,1-1.805,1.317c-1.139.784-2.734,1.831-4.433,3.063a43.787,43.787,0,0,0-4.157,3.406c-1,.935-1.582,1.568-1.621,1.528s.105-.184.35-.487.619-.725,1.1-1.219a33.4,33.4,0,0,1,4.13-3.5c1.706-1.238,3.294-2.26,4.5-2.991A14.447,14.447,0,0,1,880.472,3403.938Z" transform="translate(-666.713 -3207.97)" fill="#eb996e"/>
          <path id="Trazado_105181" data-name="Trazado 105181" d="M887.5,3412.3a2.99,2.99,0,0,1-.6.369l-1.661.949c-1.422.771-3.379,1.844-5.435,3.195a40.273,40.273,0,0,0-4.987,3.841c-1.192,1.087-1.878,1.818-1.916,1.785a2.584,2.584,0,0,1,.428-.56c.29-.349.744-.83,1.317-1.4a33.32,33.32,0,0,1,4.961-3.953,53.6,53.6,0,0,1,5.514-3.122c.725-.356,1.317-.659,1.739-.817A2.4,2.4,0,0,1,887.5,3412.3Z" transform="translate(-668.232 -3210.823)" fill="#eb996e"/>
          <path id="Trazado_105182" data-name="Trazado 105182" d="M895.429,3418.918a3.017,3.017,0,0,1-.547.533c-.369.316-.928.764-1.633,1.271-1.417,1.041-3.485,2.292-5.778,3.65a30.99,30.99,0,0,1-6.271,2.727c-.837.271-1.515.468-1.976.6a3.64,3.64,0,0,1-.744.165,3.257,3.257,0,0,1,.7-.3c.534-.185,1.179-.422,1.976-.7a35.713,35.713,0,0,0,6.173-2.793c2.3-1.357,4.374-2.569,5.817-3.551.718-.481,1.317-.9,1.686-1.179A3.559,3.559,0,0,1,895.429,3418.918Z" transform="translate(-670.135 -3213.081)" fill="#eb996e"/>
          <path id="Trazado_105183" data-name="Trazado 105183" d="M903.819,3426.946a5.11,5.11,0,0,1-1.015,1.041,21.719,21.719,0,0,1-2.8,2.1,22.41,22.41,0,0,1-3.09,1.64,5.016,5.016,0,0,1-1.377.475c-.039-.1,1.976-.949,4.282-2.4S903.747,3426.867,903.819,3426.946Z" transform="translate(-675.957 -3215.819)" fill="#eb996e"/>
          <path id="Trazado_105184" data-name="Trazado 105184" d="M912.621,3440.959H823.279a5.752,5.752,0,0,1,5.751-5.752h77.839a5.751,5.751,0,0,1,5.751,5.752Z" transform="translate(-651.299 -3218.639)" fill="#5e6178"/>
          <path id="Trazado_105185" data-name="Trazado 105185" d="M715.55,3399.593l-41.317-.2-14.005-66.324a5.931,5.931,0,0,0-5.777-4.7H568.106a5.93,5.93,0,0,0-5.764,7.161l14.223,65.217a4.756,4.756,0,0,0,4.651,3.742H721.532C721.532,3401.148,718.9,3399.593,715.55,3399.593Z" transform="translate(-562.213 -3182.182)" fill="#e0e0e0"/>
          <path id="Trazado_105186" data-name="Trazado 105186" d="M719.29,3404.5c-.092,0-3.986-17-8.7-38.024s-8.459-38.083-8.366-38.109,3.985,17,8.7,38.03S719.382,3404.481,719.29,3404.5Z" transform="translate(-609.991 -3182.182)" fill="#5e6178"/>
          <path id="Trazado_105187" data-name="Trazado 105187" d="M645.358,3383.287c2.049,2.754,1.726,6.462-.718,8.274s-6.08,1.054-8.129-1.7-1.726-6.462.718-8.274S643.309,3380.534,645.358,3383.287Z" transform="translate(-587.106 -3200.006)" fill="#fff"/>
          <rect id="Rectángulo_8043" data-name="Rectángulo 8043" width="5.982" height="2.74" rx="1.37" transform="translate(128.179 218.301)" fill="#5e6178"/>
          <path id="Trazado_105188" data-name="Trazado 105188" d="M821.954,3439.508a2.2,2.2,0,0,1,.179.191,1.759,1.759,0,0,1,.3.7,2.827,2.827,0,0,1-1.087,2.635,3.9,3.9,0,0,1-1.976.744,10.763,10.763,0,0,1-2.51-.066,14.318,14.318,0,0,0-2.847-.165,4.434,4.434,0,0,0-1.482.343,2.192,2.192,0,0,0-1.173.981,1.4,1.4,0,0,0,.323,1.476,3.492,3.492,0,0,0,1.423.988,14.162,14.162,0,0,1,1.746.751,2.365,2.365,0,0,1,1.206,1.607,3.24,3.24,0,0,1-2.18,3.353,12.676,12.676,0,0,1-4.361.547,72.351,72.351,0,0,1-9.361-.606c-3.228-.382-6.588-.856-9.987-1.166a52.488,52.488,0,0,0-10.013,0c-3.228.3-6.344.745-9.341.8a15.83,15.83,0,0,1-4.374-.388,6.144,6.144,0,0,1-3.491-2.214,4.383,4.383,0,0,1-.81-3.742,2.676,2.676,0,0,1,2.8-1.976,1.521,1.521,0,0,1,1.278,1.093,1.922,1.922,0,0,1-.316,1.582,1.971,1.971,0,0,1-1.278.83,2.5,2.5,0,0,1-1.416-.191,3.364,3.364,0,0,1-1.733-1.811,6.273,6.273,0,0,1-.435-2.069c-.053-1.271.066-2.253.066-2.912v-.758a1.267,1.267,0,0,1,0-.256,1.893,1.893,0,0,1,.033.256c0,.172.033.422.039.758,0,.658-.066,1.647,0,2.9a6.086,6.086,0,0,0,.455,2.016,3.179,3.179,0,0,0,1.654,1.7,2.312,2.312,0,0,0,1.317.171,1.728,1.728,0,0,0,1.133-.758,1.709,1.709,0,0,0,.283-1.39,1.318,1.318,0,0,0-1.094-.916,2.425,2.425,0,0,0-2.516,1.805,4.143,4.143,0,0,0,.79,3.5,5.821,5.821,0,0,0,3.34,2.082,15.324,15.324,0,0,0,4.289.368c2.978-.059,6.08-.514,9.321-.817a52.59,52.59,0,0,1,10.072,0c3.439.31,6.772.791,9.993,1.173a73.292,73.292,0,0,0,9.321.626,12.3,12.3,0,0,0,4.249-.514,3.291,3.291,0,0,0,1.555-1.206,2.552,2.552,0,0,0,.455-1.811,2.058,2.058,0,0,0-1.061-1.424,12.92,12.92,0,0,0-1.713-.744,3.8,3.8,0,0,1-1.514-1.067,2.1,2.1,0,0,1-.429-.823,1.411,1.411,0,0,1,.086-.915,2.364,2.364,0,0,1,1.317-1.094,4.974,4.974,0,0,1,1.561-.356,14.839,14.839,0,0,1,2.879.2,10.649,10.649,0,0,0,2.477.092,3.734,3.734,0,0,0,1.911-.658,2.767,2.767,0,0,0,1.106-2.49A1.889,1.889,0,0,0,821.954,3439.508Z" transform="translate(-630.053 -3220.107)" fill="#5e6178"/>
          <path id="Trazado_105189" data-name="Trazado 105189" d="M911.918,3439.463c0,.092-19.6.171-43.781.171s-43.788-.079-43.788-.171,19.572-.165,43.788-.165S911.918,3439.364,911.918,3439.463Z" transform="translate(-651.664 -3220.035)" fill="#344154"/>
        </g>
        <g id="freepik--speech-bubble--inject-3" transform="translate(279.71 79.987)">
          <path id="Trazado_105190" data-name="Trazado 105190" d="M904.072,3091.807l8.792-1.347a26.931,26.931,0,1,0-6.976-6.664h0Z" transform="translate(-900.655 -3040.979)" fill="#6595bf"/>
          <path id="Trazado_105191" data-name="Trazado 105191" d="M903.983,3091.752l.106-.5.332-1.513c.3-1.362.742-3.375,1.312-5.987a.056.056,0,0,1,.064-.046h0l-.08.075a27.26,27.26,0,0,1-2.951-5.14,27.482,27.482,0,0,1-2.195-11.284,30.4,30.4,0,0,1,.5-4.469,26.9,26.9,0,0,1,34.13-20.828,27.91,27.91,0,0,1,5.967,2.522l1.377.9.7.454c.227.156.434.338.651.5l1.307,1.059c.429.353.807.762,1.216,1.145a25.129,25.129,0,0,1,2.214,2.427l.267.307.237.333.464.671c.308.449.646.878.918,1.342s.53.938.8,1.407c.131.232.267.464.393.7l.323.736.65,1.458c.2.5.343,1.009.5,1.513a26.977,26.977,0,0,1-17.243,34.032q-1.043.342-2.112.6l-1.119.252-.555.121-.56.066c-.742.085-1.468.187-2.184.257a37.015,37.015,0,0,1-4.177-.041,26.828,26.828,0,0,1-12.5-4.358h.04l-6.558.964-1.675.247-.56.076.58-.1,1.685-.268,6.522-1.009h.035a27.078,27.078,0,0,0,5.311,2.7,26.678,26.678,0,0,0,7.148,1.594,35.333,35.333,0,0,0,4.146.03c.711-.076,1.438-.172,2.174-.262l.555-.065.545-.126,1.115-.252a26.734,26.734,0,0,0,19.771-32.227q-.257-1.075-.6-2.125c-.171-.5-.318-1.009-.5-1.513l-.646-1.448-.323-.726c-.121-.232-.257-.459-.388-.7q-.394-.685-.787-1.392c-.272-.459-.605-.883-.908-1.327l-.464-.661-.232-.333-.267-.308a25.245,25.245,0,0,0-2.235-2.406c-.4-.378-.782-.781-1.206-1.135l-1.286-1.009c-.217-.166-.424-.348-.646-.5l-.691-.449-1.367-.888a27.824,27.824,0,0,0-5.9-2.522,26.489,26.489,0,0,0-22.967,3.758,26.859,26.859,0,0,0-7.375,7.793,26.571,26.571,0,0,0-3.531,9.08,29.91,29.91,0,0,0-.5,4.439,26.58,26.58,0,0,0,.222,4.156,26.921,26.921,0,0,0,4.9,12.162.06.06,0,0,1,0,.08.055.055,0,0,1-.066,0h0l.086-.03c-.6,2.593-1.054,4.585-1.367,5.942-.156.671-.277,1.186-.358,1.539A2.126,2.126,0,0,1,903.983,3091.752Z" transform="translate(-900.566 -3040.924)" fill="#5e6178"/>
          <g id="Grupo_56872" data-name="Grupo 56872" transform="translate(12.404 7.188)">
            <path id="Trazado_105192" data-name="Trazado 105192" d="M925.157,3062.211a6.73,6.73,0,0,1,2.034-5.085,7.376,7.376,0,0,1,5.331-1.952,7.492,7.492,0,0,1,5.378,1.929,6.856,6.856,0,0,1,2.034,5.225v1.684a6.644,6.644,0,0,1-2.034,5.073,8.4,8.4,0,0,1-10.7-.012,6.8,6.8,0,0,1-2.046-5.2Zm4.49,1.8a3.151,3.151,0,0,0,.807,2.256,2.777,2.777,0,0,0,2.116.853,2.65,2.65,0,0,0,2.081-.865,3.35,3.35,0,0,0,.772-2.315v-1.73a3.282,3.282,0,0,0-.772-2.268,3.007,3.007,0,0,0-4.208-.011,3.347,3.347,0,0,0-.795,2.373Zm4.255,23.147-3.3-1.776,16.625-26.608,3.3,1.777Zm7.529-5.8a6.644,6.644,0,0,1,2.058-5.085,7.479,7.479,0,0,1,5.331-1.929,7.559,7.559,0,0,1,5.366,1.906,6.823,6.823,0,0,1,2.046,5.249v1.684a6.7,6.7,0,0,1-2.011,5.062,7.411,7.411,0,0,1-5.354,1.929,7.5,7.5,0,0,1-5.4-1.941,6.781,6.781,0,0,1-2.034-5.144Zm4.489,1.824a3.124,3.124,0,0,0,.842,2.2,2.745,2.745,0,0,0,2.1.911q2.852,0,2.852-3.156v-1.777a3.18,3.18,0,0,0-.795-2.256,3.021,3.021,0,0,0-4.208,0,3.278,3.278,0,0,0-.795,2.326Z" transform="translate(-925.157 -3055.173)" fill="#f2e9e4"/>
          </g>
        </g>
      </g>
    </g>
  </g>
</svg>
