<svg xmlns="http://www.w3.org/2000/svg" width="502.2" height="1140" viewBox="0 0 502.2 1140">
  <g id="img7" transform="translate(-180 -6328)">
    <path id="Trazado_141471" data-name="Trazado 141471" d="M405.422,1048.588h0c16.488-44.175,50.438-72.129,87.6-72.129h63.169c15.954,0,31.664-5.179,45.76-15.084L744.767,861.027V204.847h-502.2v934.389h.8l90.737-20.328C365,1111.985,391.519,1085.835,405.422,1048.588Z" transform="translate(-62.567 6123.153)" fill="#f6f6f6"/>
    <g id="Grupo_70351" data-name="Grupo 70351" transform="translate(180 6328)">
      <g id="Grupo_70347" data-name="Grupo 70347">
        <g id="Grupo_70200" data-name="Grupo 70200">
          <g id="Grupo_67715" data-name="Grupo 67715">
            <rect id="Rectángulo_31331" data-name="Rectángulo 31331" width="502.2" height="1140" fill="none"/>
          </g>
        </g>
        <g id="Grupo_70335" data-name="Grupo 70335" transform="translate(10.333 73.133)">
          <rect id="Rectángulo_8738" data-name="Rectángulo 8738" width="12.485" height="62.098" transform="translate(150.726 21.6) rotate(-0.573)" fill="#e0e0e0"/>
          <rect id="Rectángulo_8739" data-name="Rectángulo 8739" width="32.317" height="34.285" transform="matrix(1, -0.01, 0.01, 1, 42.567, 24.106)" fill="#ebebeb"/>
          <rect id="Rectángulo_8740" data-name="Rectángulo 8740" width="32.317" height="34.285" transform="matrix(1, -0.005, 0.005, 1, 74.258, 26.468)" fill="#f5f5f5"/>
          <path id="Trazado_109321" data-name="Trazado 109321" d="M850.4,112.6c21.472.175,43.01,0,64.5-.3a.372.372,0,0,0,.284-.415.35.35,0,0,0-.284-.273q-32.23-.2-64.5.394a.3.3,0,0,0-.3.3A.306.306,0,0,0,850.4,112.6Z" transform="translate(-808.271 -76.453)" fill="#e0e0e0"/>
          <rect id="Rectángulo_8741" data-name="Rectángulo 8741" width="58.72" height="27.944" transform="translate(22.616 56.327) rotate(-0.573)" fill="#ebebeb"/>
          <rect id="Rectángulo_8742" data-name="Rectángulo 8742" width="58.72" height="27.933" transform="matrix(1, -0.005, 0.005, 1, 80.376, 60.174)" fill="#f5f5f5"/>
          <path id="Trazado_109322" data-name="Trazado 109322" d="M831.935,142.037c39.008.437,78.148,0,117.156-.579a.372.372,0,0,0,.284-.415.35.35,0,0,0-.284-.273c-39.008-.208-78.159-.186-117.156.678a.3.3,0,0,0-.3.3.306.306,0,0,0,.3.3Z" transform="translate(-809.993 -73.739)" fill="#e0e0e0"/>
          <rect id="Rectángulo_8743" data-name="Rectángulo 8743" width="227.49" height="10.014" transform="translate(0 88.469)" fill="#e0e0e0"/>
          <rect id="Rectángulo_8744" data-name="Rectángulo 8744" width="9.238" height="34.154" transform="translate(37.248 93.279)" fill="#e0e0e0"/>
          <rect id="Rectángulo_8745" data-name="Rectángulo 8745" width="9.238" height="34.154" transform="translate(175.111 93.279)" fill="#e0e0e0"/>
          <rect id="Rectángulo_8746" data-name="Rectángulo 8746" width="12.485" height="85.407" transform="matrix(1, -0.01, 0.01, 1, 162.76, 0.124)" fill="#ebebeb"/>
          <rect id="Rectángulo_8747" data-name="Rectángulo 8747" width="19.395" height="69.216" transform="matrix(1, -0.005, 0.005, 1, 174.974, 19.144)" fill="#f5f5f5"/>
          <path id="Trazado_109323" data-name="Trazado 109323" d="M991.145,109.129c0,.186-4.373.328-9.7.328s-9.7-.142-9.7-.328,4.373-.339,9.7-.339S991.145,108.943,991.145,109.129Z" transform="translate(-796.923 -76.713)" fill="#e0e0e0"/>
          <path id="Trazado_109324" data-name="Trazado 109324" d="M991.145,106.469c0,.186-4.373.339-9.7.339s-9.7-.153-9.7-.339,4.373-.339,9.7-.339S991.145,106.283,991.145,106.469Z" transform="translate(-796.923 -76.961)" fill="#e0e0e0"/>
          <path id="Trazado_109325" data-name="Trazado 109325" d="M991.145,150.708c0,.186-4.373.339-9.7.339s-9.7-.153-9.7-.339,4.373-.328,9.7-.328S991.145,150.522,991.145,150.708Z" transform="translate(-796.923 -72.833)" fill="#e0e0e0"/>
          <path id="Trazado_109326" data-name="Trazado 109326" d="M991.145,148.028c0,.186-4.373.339-9.7.339s-9.7-.153-9.7-.339A143.529,143.529,0,0,1,991.145,148.028Z" transform="translate(-796.923 -73.083)" fill="#e0e0e0"/>
          <path id="Trazado_109327" data-name="Trazado 109327" d="M980.939,144.841c-.186,0-.339-6.986-.339-15.59s.153-15.6.339-15.6.328,6.986.328,15.6S981.125,144.841,980.939,144.841Z" transform="translate(-796.098 -76.259)" fill="#e0e0e0"/>
          <rect id="Rectángulo_8748" data-name="Rectángulo 8748" width="21.111" height="52.248" transform="translate(194.429 36.079)" fill="#ebebeb"/>
          <path id="Trazado_109328" data-name="Trazado 109328" d="M969.792,96.006a3.586,3.586,0,1,1-3.586-3.586h0a3.575,3.575,0,0,1,3.586,3.586Z" transform="translate(-797.775 -78.239)" fill="#e0e0e0"/>
          <rect id="Rectángulo_8749" data-name="Rectángulo 8749" width="2.219" height="50.805" transform="translate(167.316 27.628)" fill="#e0e0e0"/>
        </g>
        <g id="Grupo_58056" data-name="Grupo 58056" transform="translate(171.803 28.876)" opacity="0.517">
          <g id="Grupo_58054" data-name="Grupo 58054" transform="translate(166.411 79.787)">
            <path id="Trazado_108153" data-name="Trazado 108153" d="M118.737,192.38l70.945.979c-.546,37.808-32.4,68.6-70.945,68.6h-.417Z" transform="translate(-118.32 -192.38)" fill="#5e6178"/>
            <path id="Trazado_108154" data-name="Trazado 108154" d="M226.6,272.61a6.9,6.9,0,0,1-1.508.128l-4.349.112-15.839.177h-.241l-.128-.16-23.365-29.511-18.856-24.071.353.176-20.862-.193-5.825-.128a11.719,11.719,0,0,1-2.07-.144,11.713,11.713,0,0,1,2.07-.144l5.825-.128,20.862-.193h.273l.144.177,18.984,23.959,23.2,29.639-.321-.16,15.839.176,4.349.128A7.852,7.852,0,0,1,226.6,272.61Z" transform="translate(-108.892 -176.566)" fill="#344154"/>
            <path id="Trazado_108155" data-name="Trazado 108155" d="M224.831,257.536c0,.289-10.27.546-22.948.546s-22.964-.257-22.964-.546,10.286-.546,22.964-.546S224.831,257.231,224.831,257.536Z" transform="translate(-81.673 -153.308)" fill="#344154"/>
            <path id="Trazado_108156" data-name="Trazado 108156" d="M224.831,262.82c0,.3-10.27.546-22.948.546s-22.964-.241-22.964-.546,10.286-.53,22.964-.53S224.831,262.531,224.831,262.82Z" transform="translate(-81.673 -150.103)" fill="#344154"/>
          </g>
          <g id="Grupo_58055" data-name="Grupo 58055">
            <path id="Trazado_108157" data-name="Trazado 108157" d="M138.307,212.317,137.36,281.9c-38.514-.53-69.95-31.774-69.95-69.581,0-38.177,32.095-69.6,70.945-69.6s70.945,31.421,70.945,69.6Z" transform="translate(17.304 -142.624)" fill="#d9a171"/>
            <path id="Trazado_108158" data-name="Trazado 108158" d="M118.465,188.268a4.477,4.477,0,0,1-1.236.289l-3.514.562L100.877,190.9h-.209l-.144-.144-16.93-16.513c-8.152-8.024-15.5-15.293-20.781-20.621l-6.226-6.339a19.483,19.483,0,0,1-2.166-2.423,19.8,19.8,0,0,1,2.535,2.118l6.419,6.1c5.424,5.183,12.838,12.389,21.022,20.4l16.85,16.673-.353-.128,12.838-1.412,3.546-.321A4.813,4.813,0,0,1,118.465,188.268Z" transform="translate(9.448 -141.33)" fill="#344154"/>
            <path id="Trazado_108159" data-name="Trazado 108159" d="M60.515,143.206c0,.3-10.27.546-22.948.546s-22.948-.241-22.948-.546,10.27-.546,22.948-.546S60.515,142.82,60.515,143.206Z" transform="translate(-14.62 -142.66)" fill="#344154"/>
            <path id="Trazado_108160" data-name="Trazado 108160" d="M60.515,148.456c0,.289-10.27.546-22.948.546s-22.948-.257-22.948-.546,10.27-.546,22.948-.546S60.515,148.151,60.515,148.456Z" transform="translate(-14.62 -139.485)" fill="#344154"/>
          </g>
        </g>
        <g id="Grupo_70342" data-name="Grupo 70342" transform="translate(35.698 548.91)">
          <rect id="Rectángulo_8579" data-name="Rectángulo 8579" width="10.82" height="120.896" transform="translate(5.116 0)" fill="#d9a171"/>
          <rect id="Rectángulo_8580" data-name="Rectángulo 8580" width="10.82" height="79.831" transform="translate(26.026 41.065)" fill="#d9a171"/>
          <rect id="Rectángulo_8581" data-name="Rectángulo 8581" width="10.82" height="106.474" transform="translate(46.923 15.024)" fill="#d9a171"/>
          <rect id="Rectángulo_8582" data-name="Rectángulo 8582" width="10.82" height="116.214" transform="translate(67.82 4.667)" fill="#d9a171"/>
          <rect id="Rectángulo_8583" data-name="Rectángulo 8583" width="10.82" height="77.378" transform="translate(88.717 43.517)" fill="#d9a171"/>
          <rect id="Rectángulo_8584" data-name="Rectángulo 8584" width="10.82" height="62.2" transform="translate(109.613 58.696)" fill="#d9a171"/>
          <rect id="Rectángulo_8585" data-name="Rectángulo 8585" width="10.82" height="108.478" transform="translate(130.51 12.403)" fill="#d9a171"/>
          <rect id="Rectángulo_8586" data-name="Rectángulo 8586" width="10.82" height="88.927" transform="translate(151.407 31.969)" fill="#d9a171"/>
          <rect id="Rectángulo_8587" data-name="Rectángulo 8587" width="10.82" height="104.554" transform="translate(172.303 16.342)" fill="#d9a171"/>
          <rect id="Rectángulo_8588" data-name="Rectángulo 8588" width="10.82" height="71.225" transform="translate(193.2 49.656)" fill="#d9a171"/>
          <rect id="Rectángulo_8589" data-name="Rectángulo 8589" width="10.82" height="84.778" transform="translate(214.097 36.103)" fill="#d9a171"/>
          <path id="Trazado_108171" data-name="Trazado 108171" d="M466.435,276.124c0,.252-51.352.449-114.673.449s-114.673-.2-114.673-.449,51.338-.434,114.673-.434S466.435,275.886,466.435,276.124Z" transform="translate(-237.09 -146.82)" fill="#344154"/>
          <path id="Trazado_108172" data-name="Trazado 108172" d="M256.361,282.915c0,.252-3.588.448-8.031.448s-8.031-.2-8.031-.448,3.588-.435,8.031-.435S256.361,282.676,256.361,282.915Z" transform="translate(-235.801 -144.093)" fill="#344154"/>
          <path id="Trazado_108173" data-name="Trazado 108173" d="M276.271,283.268c0,.238-4.289.449-9.6.449s-9.6-.21-9.6-.449,4.3-.449,9.6-.449S276.271,283.072,276.271,283.268Z" transform="translate(-229.068 -143.957)" fill="#344154"/>
          <path id="Trazado_108174" data-name="Trazado 108174" d="M292.5,283.268c0,.238-4.3.449-9.6.449s-9.6-.21-9.6-.449,4.3-.449,9.6-.449S292.5,283.072,292.5,283.268Z" transform="translate(-222.551 -143.957)" fill="#344154"/>
          <path id="Trazado_108175" data-name="Trazado 108175" d="M308.711,283.268c0,.238-4.3.449-9.6.449s-9.6-.21-9.6-.449,4.289-.449,9.6-.449S308.711,283.072,308.711,283.268Z" transform="translate(-216.042 -143.957)" fill="#344154"/>
          <path id="Trazado_108176" data-name="Trazado 108176" d="M324.921,283.268c0,.238-4.289.449-9.6.449s-9.6-.21-9.6-.449,4.3-.449,9.6-.449S324.921,283.072,324.921,283.268Z" transform="translate(-209.533 -143.957)" fill="#344154"/>
          <path id="Trazado_108177" data-name="Trazado 108177" d="M341.141,283.268c0,.238-4.3.449-9.6.449s-9.6-.21-9.6-.449,4.3-.449,9.6-.449S341.141,283.072,341.141,283.268Z" transform="translate(-203.021 -143.957)" fill="#344154"/>
          <path id="Trazado_108178" data-name="Trazado 108178" d="M357.361,283.268c0,.238-4.3.449-9.6.449s-9.6-.21-9.6-.449,4.289-.449,9.6-.449S357.361,283.072,357.361,283.268Z" transform="translate(-196.508 -143.957)" fill="#344154"/>
          <path id="Trazado_108179" data-name="Trazado 108179" d="M373.571,283.268c0,.238-4.3.449-9.6.449s-9.6-.21-9.6-.449,4.3-.449,9.6-.449S373.571,283.072,373.571,283.268Z" transform="translate(-189.999 -143.957)" fill="#344154"/>
          <path id="Trazado_108180" data-name="Trazado 108180" d="M389.791,283.268c0,.238-4.3.449-9.6.449s-9.6-.21-9.6-.449,4.289-.449,9.6-.449S389.791,283.072,389.791,283.268Z" transform="translate(-183.486 -143.957)" fill="#344154"/>
          <path id="Trazado_108181" data-name="Trazado 108181" d="M406,283.268c0,.238-4.289.449-9.6.449s-9.6-.21-9.6-.449,4.3-.449,9.6-.449S406,283.072,406,283.268Z" transform="translate(-176.978 -143.957)" fill="#344154"/>
          <g id="Grupo_58062" data-name="Grupo 58062" transform="translate(26.026 41.065)" opacity="0.3">
            <rect id="Rectángulo_8590" data-name="Rectángulo 8590" width="10.82" height="79.831" fill="#fff"/>
          </g>
          <g id="Grupo_58063" data-name="Grupo 58063" transform="translate(67.82 4.667)" opacity="0.3">
            <rect id="Rectángulo_8591" data-name="Rectángulo 8591" width="10.82" height="116.214" fill="#fff"/>
          </g>
          <g id="Grupo_58064" data-name="Grupo 58064" transform="translate(109.613 58.696)" opacity="0.3">
            <rect id="Rectángulo_8592" data-name="Rectángulo 8592" width="10.82" height="62.2" fill="#fff"/>
          </g>
          <g id="Grupo_58065" data-name="Grupo 58065" transform="translate(151.407 31.969)" opacity="0.3">
            <rect id="Rectángulo_8593" data-name="Rectángulo 8593" width="10.82" height="88.927" fill="#fff"/>
          </g>
          <g id="Grupo_58066" data-name="Grupo 58066" transform="translate(193.2 49.656)" opacity="0.3">
            <rect id="Rectángulo_8594" data-name="Rectángulo 8594" width="10.82" height="71.225" fill="#fff"/>
          </g>
        </g>
        <g id="Grupo_70346" data-name="Grupo 70346" transform="translate(290.968 1032.898)">
          <g id="Grupo_70336" data-name="Grupo 70336" transform="translate(0 0)">
            <path id="Trazado_109272" data-name="Trazado 109272" d="M908.634,340.544s-17,12.946-.714,30.061a1.486,1.486,0,0,0,1.071.449l148.576-.841s12.669-14.224,2.154-30.614Z" transform="translate(-874.415 -339.163)" fill="#ebebeb"/>
            <path id="Trazado_109273" data-name="Trazado 109273" d="M1019.254,352.219c0,.161-18.5.3-41.3.3s-41.3-.138-41.3-.3,18.428-.3,41.3-.3S1019.254,352.012,1019.254,352.219Z" transform="translate(-868.984 -337.293)" fill="#e0e0e0"/>
            <path id="Trazado_109274" data-name="Trazado 109274" d="M993.427,356.859c0,.161-8.684.3-19.419.3s-19.418-.138-19.418-.3,8.7-.3,19.418-.3S993.427,356.7,993.427,356.859Z" transform="translate(-866.262 -336.589)" fill="#e0e0e0"/>
            <path id="Trazado_109275" data-name="Trazado 109275" d="M1021.589,369.776c-.092,0,.334-1.7.795-4.457a61.8,61.8,0,0,0-.207-21.653c-.507-2.741-.968-4.411-.875-4.446a4.487,4.487,0,0,1,.438,1.152c.242.737.542,1.843.852,3.213a52.737,52.737,0,0,1,.207,21.814c-.288,1.371-.564,2.476-.795,3.225A5.305,5.305,0,0,1,1021.589,369.776Z" transform="translate(-856.14 -339.22)" fill="#e0e0e0"/>
            <path id="Trazado_109276" data-name="Trazado 109276" d="M1031.181,339.42a5.426,5.426,0,0,1,.656,1.083,10.985,10.985,0,0,1,.668,1.325c.23.53.518,1.152.749,1.82a30.5,30.5,0,0,1,1.417,4.93,34.37,34.37,0,0,1,.645,6.242,35.816,35.816,0,0,1-.541,6.266,32.1,32.1,0,0,1-1.336,4.953c-.219.691-.507,1.29-.725,1.82a12.055,12.055,0,0,1-.645,1.348,4.716,4.716,0,0,1-.645,1.083c-.1,0,.726-1.647,1.613-4.388a37.9,37.9,0,0,0,1.152-4.906,35.7,35.7,0,0,0-.1-12.312,35.1,35.1,0,0,0-1.267-4.895C1031.93,341.055,1031.077,339.466,1031.181,339.42Z" transform="translate(-854.64 -339.19)" fill="#e0e0e0"/>
            <path id="Trazado_109277" data-name="Trazado 109277" d="M928.464,369.749a4.5,4.5,0,0,1-.691-.99,9.437,9.437,0,0,1-.691-1.244,16.292,16.292,0,0,1-.795-1.7,25.98,25.98,0,0,1-1.451-4.688,29.781,29.781,0,0,1-.576-5.978,30.535,30.535,0,0,1,.737-5.966,25.574,25.574,0,0,1,1.578-4.607,12.852,12.852,0,0,1,.841-1.693,8.11,8.11,0,0,1,.726-1.221,4.61,4.61,0,0,1,.714-.967c.1,0-.852,1.5-1.889,4.043a27.708,27.708,0,0,0-1.428,4.607,28.691,28.691,0,0,0,1.152,16.32C927.7,368.228,928.568,369.691,928.464,369.749Z" transform="translate(-870.865 -338.997)" fill="#e0e0e0"/>
            <path id="Trazado_109278" data-name="Trazado 109278" d="M914.657,373.416a6.231,6.231,0,0,1-.76-1.152,13.813,13.813,0,0,1-.783-1.394c-.265-.564-.611-1.152-.9-1.912a32.9,32.9,0,0,1-1.992-18.681,31.217,31.217,0,0,1,1.463-5.31c.253-.749.564-1.382.818-1.958a12.67,12.67,0,0,1,.714-1.428,4.938,4.938,0,0,1,.714-1.152c.1,0-.852,1.739-1.843,4.676a34.545,34.545,0,0,0-1.324,5.264,37.47,37.47,0,0,0-.484,6.622,38.668,38.668,0,0,0,.783,6.6,35.985,35.985,0,0,0,1.543,5.206C913.77,371.712,914.795,373.336,914.657,373.416Z" transform="translate(-873.079 -339.036)" fill="#e0e0e0"/>
            <path id="Trazado_109279" data-name="Trazado 109279" d="M1039.386,405.43v28.425h-55V405.43Z" transform="translate(-861.74 -329.172)" fill="#ebebeb"/>
            <path id="Trazado_109280" data-name="Trazado 109280" d="M877.911,420.305v.749A16.3,16.3,0,0,0,894.266,436.3h163.78v-2.05h-38.814a14.213,14.213,0,0,1-14.213-14.213h0a14.2,14.2,0,0,1,14.213-14.213H1058.1V402.81l-163.826.553a16.378,16.378,0,0,0-16.378,16.4C877.9,419.937,877.9,420.121,877.911,420.305Z" transform="translate(-877.9 -329.57)" fill="#e0e0e0"/>
            <path id="Trazado_109281" data-name="Trazado 109281" d="M1038.794,418.139c0,.161-11.31.3-25.258.3s-25.247-.138-25.247-.3,11.3-.3,25.247-.3S1038.794,418.024,1038.794,418.139Z" transform="translate(-861.148 -327.289)" fill="#e0e0e0"/>
            <path id="Trazado_109282" data-name="Trazado 109282" d="M1037.74,423.7c0,.161-10.7.3-23.9.3S990,423.861,990,423.7s10.7-.3,23.9-.3S1037.74,423.538,1037.74,423.7Z" transform="translate(-860.888 -326.445)" fill="#e0e0e0"/>
            <path id="Trazado_109283" data-name="Trazado 109283" d="M1037.8,428.791c0,.161-9.617.3-21.48.3s-21.492-.138-21.492-.3,9.617-.311,21.492-.311S1037.8,428.618,1037.8,428.791Z" transform="translate(-860.155 -325.674)" fill="#e0e0e0"/>
            <path id="Trazado_109284" data-name="Trazado 109284" d="M1038.659,413.139c0,.173-11.08.3-24.739.3s-24.74-.127-24.74-.3,11.08-.3,24.74-.3S1038.659,413.024,1038.659,413.139Z" transform="translate(-861.013 -328.048)" fill="#e0e0e0"/>
            <path id="Trazado_109285" data-name="Trazado 109285" d="M1037.253,408.149c0,.161-9.859.3-22.022.3s-22.021-.138-22.021-.3,9.859-.3,22.021-.3S1037.253,408.023,1037.253,408.149Z" transform="translate(-860.402 -328.805)" fill="#e0e0e0"/>
            <path id="Trazado_109286" data-name="Trazado 109286" d="M896.183,403.71a35.905,35.905,0,0,0-3.455,4.135,20.985,20.985,0,0,0,.288,24.348,38.423,38.423,0,0,0,3.57,4.054,5.683,5.683,0,0,1-1.152-.864,19.457,19.457,0,0,1-2.741-2.937,20.732,20.732,0,0,1-.288-24.843,18.261,18.261,0,0,1,2.661-2.995,4.675,4.675,0,0,1,1.117-.9Z" transform="translate(-876.305 -329.434)" fill="#f5f5f5"/>
            <path id="Trazado_109287" data-name="Trazado 109287" d="M891.372,403.18a35.894,35.894,0,0,0-3.455,4.135,21.089,21.089,0,0,0,.288,24.36,38.541,38.541,0,0,0,3.582,4.054,6.6,6.6,0,0,1-1.152-.875,19.451,19.451,0,0,1-2.741-2.937,20.732,20.732,0,0,1-.288-24.843,18.821,18.821,0,0,1,2.661-2.995,5.182,5.182,0,0,1,1.106-.9Z" transform="translate(-877.033 -329.514)" fill="#f5f5f5"/>
            <path id="Trazado_109288" data-name="Trazado 109288" d="M988.021,403.71a35.9,35.9,0,0,0-3.455,4.135,21.065,21.065,0,0,0,.288,24.348,38.536,38.536,0,0,0,3.582,4.054,5.381,5.381,0,0,1-1.152-.864,18.8,18.8,0,0,1-2.729-2.937,20.731,20.731,0,0,1-.3-24.843,17.376,17.376,0,0,1,2.672-2.994A4.786,4.786,0,0,1,988.021,403.71Z" transform="translate(-862.365 -329.434)" fill="#f5f5f5"/>
            <path id="Trazado_109289" data-name="Trazado 109289" d="M983.191,403.18a35.922,35.922,0,0,0-3.455,4.135,21.088,21.088,0,0,0,.288,24.36,38.528,38.528,0,0,0,3.582,4.054,6.6,6.6,0,0,1-1.152-.875,18.328,18.328,0,0,1-2.73-2.937,20.732,20.732,0,0,1-.3-24.843,18.338,18.338,0,0,1,2.672-2.995,4.79,4.79,0,0,1,1.094-.9Z" transform="translate(-863.098 -329.514)" fill="#f5f5f5"/>
            <path id="Trazado_109290" data-name="Trazado 109290" d="M912.479,423.648l-.15-11.518a8.419,8.419,0,0,0-.4-2.983,2.833,2.833,0,0,0-2.2-1.854c-1.451-.633-3.709.564-4.711,2.234a10.85,10.85,0,0,0-1.152,5.667,80.508,80.508,0,0,0,.449,9.122,10.37,10.37,0,0,0,1.071,4.181,3.927,3.927,0,0,0,3.524,2.119,4,4,0,0,0,3.075-2.7,11.676,11.676,0,0,0,.495-4.273Z" transform="translate(-873.964 -328.916)" fill="#f5f5f5"/>
            <path id="Trazado_109291" data-name="Trazado 109291" d="M973.551,418.619c0,.173-11.84.3-26.49.3s-26.49-.127-26.49-.3,11.84-.3,26.49-.3S973.551,418.458,973.551,418.619Z" transform="translate(-871.425 -327.216)" fill="#f5f5f5"/>
            <path id="Trazado_109292" data-name="Trazado 109292" d="M901.861,406.27l-.311-26.94h14.673l.507,26.94Z" transform="translate(-874.311 -333.133)" fill="#f5f5f5"/>
            <path id="Trazado_109293" data-name="Trazado 109293" d="M915.325,383.53a79.166,79.166,0,0,1-13.625,0A76.9,76.9,0,0,1,915.325,383.53Z" transform="translate(-874.288 -332.542)" fill="#e0e0e0"/>
            <path id="Trazado_109294" data-name="Trazado 109294" d="M915.325,387.14a79.166,79.166,0,0,1-13.625,0A76.907,76.907,0,0,1,915.325,387.14Z" transform="translate(-874.288 -331.994)" fill="#e0e0e0"/>
            <path id="Trazado_109295" data-name="Trazado 109295" d="M915.325,390.75a79.166,79.166,0,0,1-13.625,0A76.909,76.909,0,0,1,915.325,390.75Z" transform="translate(-874.288 -331.446)" fill="#e0e0e0"/>
            <path id="Trazado_109296" data-name="Trazado 109296" d="M915.325,394.36a79.163,79.163,0,0,1-13.625,0,76.9,76.9,0,0,1,13.625,0Z" transform="translate(-874.288 -330.898)" fill="#e0e0e0"/>
            <path id="Trazado_109297" data-name="Trazado 109297" d="M915.325,397.97a79.157,79.157,0,0,1-13.625,0A76.909,76.909,0,0,1,915.325,397.97Z" transform="translate(-874.288 -330.35)" fill="#e0e0e0"/>
            <path id="Trazado_109298" data-name="Trazado 109298" d="M900.911,378.71h162.5c2,8.926,1.728,18.739,0,29.116H901.568v-1.981h9.894a4.607,4.607,0,0,0,4.607-4.55V385.114a4.607,4.607,0,0,0-4.607-4.676H900.9Z" transform="translate(-874.41 -333.228)" fill="#ebebeb"/>
            <path id="Trazado_109299" data-name="Trazado 109299" d="M934.75,392.121h2.706a.669.669,0,0,1,.3.069.53.53,0,0,1,.288.507v.15a2.767,2.767,0,0,1-.184.7,7.946,7.946,0,0,1-1.693,3.064,3.305,3.305,0,0,1-2.3,1.152h-.322a2.649,2.649,0,0,1-1.843-1.336,6,6,0,0,1-.818-3.259,8.175,8.175,0,0,1,.323-2.3,7.725,7.725,0,0,1,1.612-3.144,3.248,3.248,0,0,1,2.442-1.3,2.3,2.3,0,0,1,1.025.23,3.329,3.329,0,0,1,1.589,1.981,1.15,1.15,0,0,1,0,.276.542.542,0,0,1-.081.288.576.576,0,0,1-.5.288h-.184a.541.541,0,0,1-.369-.369h0a3.07,3.07,0,0,0-.323-.645,1.531,1.531,0,0,0-1.3-.772,1.405,1.405,0,0,0-.9.322,4.7,4.7,0,0,0-1.474,2.131,7.491,7.491,0,0,0-.645,3.052,5.434,5.434,0,0,0,.461,2.407,1.578,1.578,0,0,0,1.417,1.06,1.935,1.935,0,0,0,1.313-.783,7.431,7.431,0,0,0,1.394-2.522h-1.946c-.426-.069-.645-.288-.645-.657a.287.287,0,0,1,0-.2A.587.587,0,0,1,934.75,392.121Z" transform="translate(-869.861 -332.057)" fill="#fafafa"/>
            <path id="Trazado_109300" data-name="Trazado 109300" d="M943.019,386.819l.069.2c.115.4.76,3.755,1.923,10.078v.138a.6.6,0,0,1-.564.6h-.092a.541.541,0,0,1-.472-.38l-.645-3.34H939.9l-1.612,3.363v.1a.645.645,0,0,1-.507.288.576.576,0,0,1-.311-.092.6.6,0,0,1-.276-.5.436.436,0,0,1,0-.173c.092-.23.265-.6.5-1.152q3.455-7.659,4.192-9.03a.6.6,0,0,1,.726-.461.587.587,0,0,1,.426.346Zm-.726,2.3-1.808,3.789h2.545Z" transform="translate(-868.904 -332.054)" fill="#fafafa"/>
            <path id="Trazado_109301" data-name="Trazado 109301" d="M950.838,397.822h-4.849a.577.577,0,0,1-.311-.092.875.875,0,0,1-.288-.622h0c0-.2.461-3.547,1.359-10.032a.625.625,0,0,1,0-.207.53.53,0,0,1,.53-.369.61.61,0,0,1,.276.069.541.541,0,0,1,.3.518c0,.449-.15,1.359-.334,2.753-.553,4.273-.852,6.542-.875,6.772h4.169a.715.715,0,0,1,.311,0,.553.553,0,0,1,.369.553v.184a.691.691,0,0,1-.656.472Z" transform="translate(-867.658 -332.045)" fill="#fafafa"/>
            <path id="Trazado_109302" data-name="Trazado 109302" d="M956.661,386.815l.069.2c.115.4.749,3.755,1.912,10.078a.279.279,0,0,1,0,.138.6.6,0,0,1-.564.6h-.092a.541.541,0,0,1-.449-.4l-.645-3.34h-3.34l-1.5,3.352a.475.475,0,0,1,0,.1.68.68,0,0,1-.5.288.749.749,0,0,1-.323-.092.587.587,0,0,1-.265-.5.433.433,0,0,1,0-.173l.5-1.152c2.3-5.1,3.743-8.062,4.192-9.03a.564.564,0,0,1,1.06-.069Zm-.737,2.3-1.8,3.789h2.534Z" transform="translate(-866.813 -332.049)" fill="#fafafa"/>
            <path id="Trazado_109303" data-name="Trazado 109303" d="M963.329,392.59l.887,2.453q.76,2.073.76,2.211a.6.6,0,0,1-.587.564h0a.541.541,0,0,1-.484-.392l-.092-.253q-.415-.91-1.313-3.455l-2.764,3.789a.726.726,0,0,1-.518.311.69.69,0,0,1-.311-.081.541.541,0,0,1-.276-.5v-.115a1.151,1.151,0,0,1,.288-.472c.921-1.221,1.958-2.649,3.087-4.3-.127-.322-.23-.633-.345-.921-1.037-2.8-1.555-4.238-1.555-4.331a.672.672,0,0,1,.069-.3.484.484,0,0,1,.472-.288.587.587,0,0,1,.553.323l1.636,4.411,3.259-4.457a.645.645,0,0,1,.518-.276.53.53,0,0,1,.553.518v.035a.563.563,0,0,1,0,.276Z" transform="translate(-865.649 -332.042)" fill="#fafafa"/>
            <path id="Trazado_109304" data-name="Trazado 109304" d="M974.348,386.55a.529.529,0,0,1,.265.069.553.553,0,0,1,.311.5c-.795,6.335-1.244,9.755-1.325,10.274a6.31,6.31,0,0,1-1.048,2.672,3.8,3.8,0,0,1-4.814,1.152,3.455,3.455,0,0,1-1.728-1.474.655.655,0,0,1-.069-.288.5.5,0,0,1,.081-.288.553.553,0,0,1,.944-.058,3.156,3.156,0,0,0,2.511,1.428,2.522,2.522,0,0,0,1.946-.979,5.563,5.563,0,0,0,1.083-3.087,3.3,3.3,0,0,1-.726.772,3.017,3.017,0,0,1-1.762.576h-.323a2.7,2.7,0,0,1-1.866-1.336,6.058,6.058,0,0,1-.806-3.271,14.657,14.657,0,0,1,.081-1.831c.092-.991.311-2.4.656-4.227a.38.38,0,0,1,0-.161.53.53,0,0,1,.656-.392.357.357,0,0,1,.15.069.518.518,0,0,1,.288.461c0,.3-.092,1.048-.265,2.234a28.779,28.779,0,0,0-.392,3.455,6.8,6.8,0,0,0,.438,2.661,1.555,1.555,0,0,0,1.451,1.152h.2a2.7,2.7,0,0,0,1.463-1.152,7.885,7.885,0,0,0,1.221-2.707l.737-5.586a.747.747,0,0,1,.069-.242A.53.53,0,0,1,974.348,386.55Z" transform="translate(-864.54 -332.038)" fill="#fafafa"/>
            <path id="Trazado_109305" data-name="Trazado 109305" d="M1036.729,408.266c-.161,0-.3-6.692-.3-14.973s.138-14.973.3-14.973.3,6.692.3,14.973S1036.891,408.266,1036.729,408.266Z" transform="translate(-853.842 -333.286)" fill="#f5f5f5"/>
            <path id="Trazado_109306" data-name="Trazado 109306" d="M921.259,408.266c-.173,0-.3-6.692-.3-14.973s.127-14.973.3-14.973.3,6.692.3,14.973S921.421,408.266,921.259,408.266Z" transform="translate(-871.365 -333.286)" fill="#e0e0e0"/>
            <path id="Trazado_109307" data-name="Trazado 109307" d="M1039.2,408.266c-.161,0-.3-6.692-.3-14.973s.138-14.973.3-14.973.311,6.692.311,14.973S1039.372,408.266,1039.2,408.266Z" transform="translate(-853.468 -333.286)" fill="#f5f5f5"/>
            <path id="Trazado_109308" data-name="Trazado 109308" d="M918.949,408.266c-.161,0-.3-6.692-.3-14.973s.138-14.973.3-14.973.3,6.692.3,14.973S919.111,408.266,918.949,408.266Z" transform="translate(-871.716 -333.286)" fill="#e0e0e0"/>
            <path id="Trazado_109309" data-name="Trazado 109309" d="M1004.812,382.65h0L1022,396.471l.15.127h-.2l-2.3.6-14.5,3.812h0l-13.153-5.574-3.72-1.589-.979-.426-.253-.115h0l.253.1.99.4,3.743,1.543,13.176,5.505h0l14.5-3.778,2.3-.6v.173l-17.15-13.913h0" transform="translate(-861.338 -332.629)" fill="#e0e0e0"/>
            <path id="Trazado_109310" data-name="Trazado 109310" d="M1016.187,392.77l.933.875,1.255-.265-.553,1.163.656,1.106-1.278-.161-.852.956-.242-1.255-1.186-.518,1.129-.622Z" transform="translate(-857.107 -331.094)" fill="#e0e0e0"/>
            <path id="Trazado_109311" data-name="Trazado 109311" d="M1001.807,397.51l.645.53.795-.219-.311.772.461.691-.829-.058-.507.657-.207-.806-.783-.288.7-.449Z" transform="translate(-859.208 -330.374)" fill="#e0e0e0"/>
            <path id="Trazado_109312" data-name="Trazado 109312" d="M985.91,391.129l1.014.058.634-.806.253.991.968.357-.864.541-.046,1.025-.783-.645-.979.276.369-.956Z" transform="translate(-861.509 -331.457)" fill="#e0e0e0"/>
            <path id="Trazado_109313" data-name="Trazado 109313" d="M1022.7,382.937l1.025.069.634-.806.253.991.956.357-.864.541-.034,1.025-.784-.657-.99.288.38-.956Z" transform="translate(-855.926 -332.698)" fill="#e0e0e0"/>
            <path id="Trazado_109314" data-name="Trazado 109314" d="M1001.75,382.322l.656.046.391-.518.173.633.61.23-.553.346-.023.645-.507-.415-.622.184.242-.61Z" transform="translate(-859.105 -332.751)" fill="#e0e0e0"/>
            <path id="Trazado_109315" data-name="Trazado 109315" d="M1027.179,383.6c0,.069-5.563-.115-12.416-.4s-12.4-.587-12.393-.657,5.552.115,12.4.415S1027.179,383.544,1027.179,383.6Z" transform="translate(-859.011 -332.648)" fill="#e0e0e0"/>
            <path id="Trazado_109316" data-name="Trazado 109316" d="M1051.329,380.3H886.49c-2.154-4.895-2.684-9.548,0-13.717h164.839a15.986,15.986,0,0,1,0,13.717Z" transform="translate(-876.873 -335.068)" fill="#e0e0e0"/>
            <rect id="Rectángulo_8737" data-name="Rectángulo 8737" width="89.296" height="4.999" transform="translate(43.755 35.428)" fill="#ebebeb"/>
            <path id="Trazado_109317" data-name="Trazado 109317" d="M892.115,380.332a5.239,5.239,0,0,1-1.3-1.67,12.106,12.106,0,0,1-.864-9.917,4.605,4.605,0,0,1,.991-1.866,20.748,20.748,0,0,1-.588,1.992,13.6,13.6,0,0,0-.438,4.872,14.11,14.11,0,0,0,1.278,4.722A15.567,15.567,0,0,1,892.115,380.332Z" transform="translate(-876.175 -335.022)" fill="#e0e0e0"/>
            <path id="Trazado_109318" data-name="Trazado 109318" d="M895.216,380.332a5.237,5.237,0,0,1-1.3-1.67,12.059,12.059,0,0,1-.875-9.917,4.951,4.951,0,0,1,.99-1.866,15.719,15.719,0,0,1-.587,1.992,14.147,14.147,0,0,0-.438,4.872,13.531,13.531,0,0,0,1.29,4.722,15.565,15.565,0,0,1,.921,1.866Z" transform="translate(-875.706 -335.022)" fill="#e0e0e0"/>
            <path id="Trazado_109319" data-name="Trazado 109319" d="M1023.58,380.049a20.73,20.73,0,0,0,.069-13.43,11.875,11.875,0,0,1,1.681,6.726,12.159,12.159,0,0,1-1.75,6.7Z" transform="translate(-855.793 -335.062)" fill="#f5f5f5"/>
            <path id="Trazado_109320" data-name="Trazado 109320" d="M1020.916,379.982c-.173,0,.518-2.937.5-6.576s-.691-6.519-.507-6.565a20.223,20.223,0,0,1,0,13.142Z" transform="translate(-856.203 -335.029)" fill="#f5f5f5"/>
          </g>
        </g>
        <g id="Grupo_70341" data-name="Grupo 70341" transform="translate(35.698 292.228)">
          <g id="Grupo_58060" data-name="Grupo 58060" transform="translate(0 0)">
            <g id="Grupo_58059" data-name="Grupo 58059">
              <path id="Trazado_108161" data-name="Trazado 108161" d="M272.643,105.593l-.215-32.123a41.063,41.063,0,0,0-26.5,10.334,38,38,0,0,0-12.766,33.268,44,44,0,0,0,.751,4.661v.119h0l38.7-8.713Z" transform="translate(-232.884 -73.47)" fill="#d9a171"/>
              <g id="Grupo_58057" data-name="Grupo 58057" opacity="0.3">
                <path id="Trazado_108162" data-name="Trazado 108162" d="M272.643,105.593l-.215-32.123a41.063,41.063,0,0,0-26.5,10.334,38,38,0,0,0-12.766,33.268,44,44,0,0,0,.751,4.661v.119h0l38.7-8.713Z" transform="translate(-232.884 -73.47)" fill="#fff"/>
              </g>
              <path id="Trazado_108163" data-name="Trazado 108163" d="M305.457,95.681a38.143,38.143,0,0,0-31.229-21.873c-.405,0-.811-.083-1.192-.107h-.787c-.763,0-1.538,0-2.324-.072h-.215l.215,32.183v7.545l38.727,8.391h0a38.917,38.917,0,0,0,.858-8.344,41.72,41.72,0,0,0-4.053-17.725Z" transform="translate(-225.815 -73.439)" fill="#d9a171"/>
              <g id="Grupo_58058" data-name="Grupo 58058" transform="translate(43.895 0.191)" opacity="0.3">
                <path id="Trazado_108164" data-name="Trazado 108164" d="M305.457,95.681a38.143,38.143,0,0,0-31.229-21.873c-.405,0-.811-.083-1.192-.107h-.787c-.763,0-1.538,0-2.324-.072h-.215l.215,32.183v7.545l38.727,8.391h0a38.917,38.917,0,0,0,.858-8.344,41.72,41.72,0,0,0-4.053-17.725Z" transform="translate(-269.71 -73.63)" fill="#d9a171"/>
              </g>
            </g>
            <path id="Trazado_108165" data-name="Trazado 108165" d="M274.233,110.12l-38.7,8.7a39.669,39.669,0,0,0,77.478-.262l-38.775-8.439" transform="translate(-232.376 -66.435)" fill="#d9a171"/>
          </g>
          <path id="Trazado_108166" data-name="Trazado 108166" d="M408.754,105.354c0,.286-20,.513-44.687.513s-44.687-.226-44.687-.513,20-.524,44.687-.524S408.754,105.033,408.754,105.354Z" transform="translate(-216.28 -67.45)" fill="#344154"/>
          <path id="Trazado_108167" data-name="Trazado 108167" d="M408.754,96.8c0,.286-20,.524-44.687.524s-44.687-.238-44.687-.524,20-.524,44.687-.524S408.754,96.518,408.754,96.8Z" transform="translate(-216.28 -69.091)" fill="#344154"/>
          <path id="Trazado_108168" data-name="Trazado 108168" d="M408.754,88.254c0,.286-20,.524-44.687.524s-44.687-.238-44.687-.524,20-.524,44.687-.524S408.754,87.968,408.754,88.254Z" transform="translate(-216.28 -70.733)" fill="#344154"/>
          <path id="Trazado_108169" data-name="Trazado 108169" d="M408.754,113.3c0,.286-20,.524-44.687.524s-44.687-.238-44.687-.524,20-.524,44.687-.524S408.754,113.042,408.754,113.3Z" transform="translate(-216.28 -65.924)" fill="#344154"/>
          <path id="Trazado_108170" data-name="Trazado 108170" d="M381.036,121.954c0,.286-13.743.524-30.693.524s-30.693-.238-30.693-.524,13.731-.524,30.693-.524S381.036,121.668,381.036,121.954Z" transform="translate(-216.228 -64.263)" fill="#344154"/>
        </g>
        <g id="Grupo_70345" data-name="Grupo 70345" transform="translate(30.718 399.368)">
          <g id="Grupo_70343" data-name="Grupo 70343" transform="translate(59.236)">
            <path id="Trazado_141419" data-name="Trazado 141419" d="M270.72,267.78l17.188,38.989,6-17.152,14.709-5.388Z" transform="translate(-152.006 -112.816)" fill="#5e6178"/>
            <rect id="Rectángulo_31982" data-name="Rectángulo 31982" width="21.598" height="21.598" transform="translate(151.529 184.682)" fill="#fff"/>
            <path id="Trazado_141420" data-name="Trazado 141420" d="M319.884,314.4s0-.608-.083-1.657,0-2.61-.1-4.422c0-3.886-.119-9.2-.191-15.5l.37.358H298.3c-.1,0,.811-.81.429-.429h0v21.563l-.358-.381,15.5.191,4.434.1a10.9,10.9,0,0,1,1.645.1,10.021,10.021,0,0,1-1.466,0l-4.351.107-15.758.179H298V292.669h0l.429-.429h21.98v.381c0,6.425-.143,11.836-.191,15.77,0,1.776,0,3.3-.107,4.339A7.515,7.515,0,0,1,319.884,314.4Z" transform="translate(-146.769 -108.119)" fill="#5e6178"/>
            <path id="Trazado_141421" data-name="Trazado 141421" d="M307.379,311.971a90.258,90.258,0,0,1,0-17.581A90.253,90.253,0,0,1,307.379,311.971Z" transform="translate(-145.052 -107.707)" fill="#5e6178"/>
            <path id="Trazado_141422" data-name="Trazado 141422" d="M317.511,301.829a90.249,90.249,0,0,1-17.582,0,90.259,90.259,0,0,1,17.582,0Z" transform="translate(-146.399 -106.36)" fill="#5e6178"/>
            <path id="Trazado_141423" data-name="Trazado 141423" d="M189.114,1019.241l5.141-21.761,42.417,1.041-3.535,30.964-2.686.219c-12.018.81-61.106,3.29-69.256.951C152.339,1028.02,189.114,1019.241,189.114,1019.241Z" transform="translate(-159.69 -291.083)" fill="#d9a171"/>
            <g id="Grupo_70337" data-name="Grupo 70337" transform="translate(57.598 725.576)" opacity="0.4">
              <path id="Trazado_109948" data-name="Trazado 109948" d="M204.53,1025.073a15.155,15.155,0,0,1,5.45-9.358,14.679,14.679,0,0,1,10.129-3.29l.154,12.172Z" transform="translate(-204.53 -1012.401)"/>
            </g>
            <g id="Grupo_70338" data-name="Grupo 70338" transform="translate(0 733.107)" opacity="0.4">
              <path id="Trazado_109949" data-name="Trazado 109949" d="M171.147,1018.26s-12.918,3.959-11.286,5.938,51.415,1.478,73.266-.72v-.964l-57.97,1.221S173.679,1018.311,171.147,1018.26Z" transform="translate(-159.719 -1018.26)"/>
            </g>
            <path id="Trazado_141424" data-name="Trazado 141424" d="M380.71,684.39,360.9,1103.2l-54.358,1.285,4.28-363.13-81.338,363.824-46.286-2.1,72.572-417.835Z" transform="translate(-153.018 -380.429)" fill="#344154"/>
            <path id="Trazado_141425" data-name="Trazado 141425" d="M296.062,688.8a45.587,45.587,0,0,1-.488,6.877c-.463,4.242-1.157,10.077-1.98,16.53a68.2,68.2,0,0,1-1.5,9.1,12.854,12.854,0,0,1-3.959,6.5,9.818,9.818,0,0,1-4.614,2.275,3.86,3.86,0,0,1-1.877,0,11.709,11.709,0,0,0,9.473-9.1,81.1,81.1,0,0,0,1.388-9c.848-6.427,1.658-12.262,2.314-16.453a40,40,0,0,1,1.247-6.735Z" transform="translate(-124.926 -379.171)" fill="#455a64"/>
            <path id="Trazado_141426" data-name="Trazado 141426" d="M282.631,691.035c.154.09-.36.784,0,1.877a2.159,2.159,0,0,0,1.131,1.285,1.85,1.85,0,0,0,1.979-.463,1.8,1.8,0,0,0,.553-1.979,2.328,2.328,0,0,0-1.285-1.208,3.756,3.756,0,0,0-1.889-.09c-.09-.1.578-.977,2.108-.694a2.994,2.994,0,0,1,1.979,1.607,2.956,2.956,0,0,1-1.774,3.779,3.045,3.045,0,0,1-2.185-.077,2.828,2.828,0,0,1-1.465-2.134C281.642,691.549,282.593,690.894,282.631,691.035Z" transform="translate(-124.889 -378.913)" fill="#455a64"/>
            <path id="Trazado_141427" data-name="Trazado 141427" d="M255.831,698.928a12.159,12.159,0,0,1,.823-11.568c.309.116-.54,2.571-.733,5.745S256.178,698.748,255.831,698.928Z" transform="translate(-132.6 -379.582)" fill="#455a64"/>
            <path id="Trazado_141428" data-name="Trazado 141428" d="M261.888,698.42a14.139,14.139,0,0,1,.4-12.07,53.981,53.981,0,0,1-.4,5.938A54.2,54.2,0,0,1,261.888,698.42Z" transform="translate(-130.893 -379.871)" fill="#455a64"/>
            <path id="Trazado_141429" data-name="Trazado 141429" d="M313.679,697.92q.212-6.257.141-12.52a16.929,16.929,0,0,1-.18,12.52Z" transform="translate(-115.794 -380.142)" fill="#455a64"/>
            <path id="Trazado_141430" data-name="Trazado 141430" d="M320.265,697.393c-.321-.116.591-2.866.681-6.427s-.591-6.311-.27-6.427a9.884,9.884,0,0,1,1.4,6.427A10.064,10.064,0,0,1,320.265,697.393Z" transform="translate(-113.923 -380.387)" fill="#455a64"/>
            <path id="Trazado_141431" data-name="Trazado 141431" d="M326.854,489.285c2.224-2.635,3.959-7.327,2.571-10.489,2.648-1.363,2.892-3.728,2.892-6.684a18.368,18.368,0,0,0-2.571-8.458,24.575,24.575,0,0,0-9.563-10.463,12.725,12.725,0,0,0-13.586.591,16.478,16.478,0,0,0-23.227-1.992l-.386.334a17.247,17.247,0,0,1-3.573,3.265c-2.365,1.285-5.244.81-7.918,1.067a13.843,13.843,0,0,0-11.568,19.281,15.064,15.064,0,0,0-6.427,11.568,43.983,43.983,0,0,0,1.542,13.509c1.221,5.488,2.571,11.234,6.427,15.3a15.862,15.862,0,0,0,10.167,4.807,16.2,16.2,0,0,0,14.242-6.71" transform="translate(-132.967 -447.914)" fill="#344154"/>
            <path id="Trazado_141432" data-name="Trazado 141432" d="M266.512,578.108l43.96-1.979c.257-4.666-2.134-33.638-2.134-33.638s16.62-2.571,16.838-19.191-2.7-54.77-2.7-54.77h0a57.841,57.841,0,0,0-58.022,7.275L262,477.785Z" transform="translate(-130.53 -443.366)" fill="#b78876"/>
            <path id="Trazado_141433" data-name="Trazado 141433" d="M302.911,526.257A38.561,38.561,0,0,1,281.15,520.1s5.141,11.877,21.761,10.476Z" transform="translate(-125.066 -427.314)" fill="#aa6550"/>
            <path id="Trazado_141434" data-name="Trazado 141434" d="M266.033,488.186c-.27-.116-11.414-3.38-11.041,7.918s11.7,8.663,11.7,8.329S266.033,488.186,266.033,488.186Z" transform="translate(-132.533 -436.569)" fill="#b78876"/>
            <path id="Trazado_141435" data-name="Trazado 141435" d="M262.443,499.489a3.073,3.073,0,0,1-.54.321,2.058,2.058,0,0,1-1.465,0,4.871,4.871,0,0,1-2.4-4.332,6.2,6.2,0,0,1,.476-2.853,2.326,2.326,0,0,1,1.414-1.568,1.041,1.041,0,0,1,1.2.514c.154.321.1.54.154.565s.244-.206.141-.681a1.363,1.363,0,0,0-.476-.694,1.479,1.479,0,0,0-1.105-.257,2.828,2.828,0,0,0-1.98,1.838,6.505,6.505,0,0,0-.591,3.188,5.141,5.141,0,0,0,3.046,4.807,2.147,2.147,0,0,0,1.8-.347C262.418,499.695,262.482,499.515,262.443,499.489Z" transform="translate(-131.887 -435.765)" fill="#aa6550"/>
            <path id="Trazado_141436" data-name="Trazado 141436" d="M307.26,488.254a2.378,2.378,0,0,1-2.275,2.4,2.288,2.288,0,0,1-2.455-2.1h0a2.365,2.365,0,0,1,2.275-2.391,2.262,2.262,0,0,1,2.442,2.044A.057.057,0,0,1,307.26,488.254Z" transform="translate(-118.964 -436.997)" fill="#344154"/>
            <path id="Trazado_141437" data-name="Trazado 141437" d="M308.7,486.274c-.283.309-2.082-1.028-4.64-1.015s-4.422,1.285-4.7.964.154-.681.977-1.285a6.594,6.594,0,0,1,3.779-1.157,6.131,6.131,0,0,1,3.689,1.182C308.575,485.58,308.858,486.132,308.7,486.274Z" transform="translate(-119.895 -437.678)" fill="#344154"/>
            <path id="Trazado_141438" data-name="Trazado 141438" d="M287.8,488.726a2.352,2.352,0,0,1-2.275,2.391,2.275,2.275,0,0,1-2.455-2.082h0a2.378,2.378,0,0,1,2.3-2.4A2.275,2.275,0,0,1,287.8,488.7Z" transform="translate(-124.518 -436.865)" fill="#344154"/>
            <path id="Trazado_141439" data-name="Trazado 141439" d="M289.186,486.644c-.3.309-2.1-1.041-4.653-1.015s-4.434,1.285-4.7.964.154-.681.99-1.285a6.505,6.505,0,0,1,3.753-1.157,6.2,6.2,0,0,1,3.7,1.182C289.07,485.95,289.327,486.528,289.186,486.644Z" transform="translate(-125.466 -437.571)" fill="#344154"/>
            <path id="Trazado_141440" data-name="Trazado 141440" d="M294.558,505.551a18.31,18.31,0,0,1,4.152-.758c.655,0,1.285-.193,1.388-.63a3.535,3.535,0,0,0-.437-1.979l-1.979-4.961a88.906,88.906,0,0,1-4.332-12.982,83.531,83.531,0,0,1,5.36,12.6l1.864,5.013a3.715,3.715,0,0,1,.334,2.571,1.607,1.607,0,0,1-1.067.951,4.041,4.041,0,0,1-1.105.167A16.239,16.239,0,0,1,294.558,505.551Z" transform="translate(-121.585 -437.546)" fill="#344154"/>
            <path id="Trazado_141441" data-name="Trazado 141441" d="M288.541,502.26c.424,0,.437,2.751,2.815,4.73s5.321,1.671,5.347,1.979-.681.553-1.979.578a6.941,6.941,0,0,1-4.46-1.542,6.093,6.093,0,0,1-2.172-3.959C288.052,502.838,288.361,502.26,288.541,502.26Z" transform="translate(-123.085 -432.404)" fill="#344154"/>
            <path id="Trazado_141442" data-name="Trazado 141442" d="M290.189,478.724c-.257.681-2.789.373-5.8.733s-5.424,1.182-5.823.553c-.18-.3.244-.951,1.221-1.632a10.167,10.167,0,0,1,8.856-.964C289.752,477.863,290.3,478.4,290.189,478.724Z" transform="translate(-125.814 -439.666)" fill="#344154"/>
            <path id="Trazado_141443" data-name="Trazado 141443" d="M307.81,480.577c-.45.591-2.211,0-4.332,0s-3.959.4-4.306-.219c-.18-.3.09-.874.887-1.427a6.26,6.26,0,0,1,6.967.219C307.771,479.651,307.964,480.243,307.81,480.577Z" transform="translate(-119.938 -439.334)" fill="#344154"/>
            <path id="Trazado_141444" data-name="Trazado 141444" d="M261.374,478.411c.219,4.833-.848,10.283,0,14.987.141.733,1.979,2.648,2.185,3.355.964,4.2,2.712,5.938,5.219,1.671a37.418,37.418,0,0,0,1.979-8.2l3.085-15.347a26.654,26.654,0,0,0,12.635,3.008,12.931,12.931,0,0,0,10.784-6.427,13.419,13.419,0,0,0,18.419,4.563,13.732,13.732,0,0,0,2.378-1.825,5.6,5.6,0,0,0,7.4,1.555,6.645,6.645,0,0,0,2.712-7.314c-1.157-4.062-5.5-6.26-9.537-7.442-15.836-4.653-33.278-1.016-47.494,7.314a24.526,24.526,0,0,0-5.733,4.344c-1.62,1.761-3.856,3.946-3.959,6.247" transform="translate(-130.803 -444.764)" fill="#344154"/>
            <path id="Trazado_141445" data-name="Trazado 141445" d="M294.608,499.371A16.516,16.516,0,0,0,296,497.25a10.283,10.283,0,0,0,1.183-6.53,9.884,9.884,0,1,0-11.2,11.2,10.386,10.386,0,0,0,6.53-1.17c1.4-.784,1.98-1.465,2.1-1.375s-.116.193-.411.514a9,9,0,0,1-1.491,1.208,10.282,10.282,0,0,1-6.825,1.555A10.759,10.759,0,1,1,297.9,490.643a10.282,10.282,0,0,1-1.542,6.8,8.061,8.061,0,0,1-1.208,1.491Q294.672,499.4,294.608,499.371Z" transform="translate(-126.404 -438.41)" fill="#455a64"/>
            <path id="Trazado_141446" data-name="Trazado 141446" d="M315.034,499.371a16.519,16.519,0,0,0,1.388-2.121,10.386,10.386,0,0,0,1.17-6.53,9.9,9.9,0,1,0-11.208,11.2,10.386,10.386,0,0,0,6.53-1.17c1.414-.784,1.98-1.465,2.121-1.375s-.116.193-.411.514a8.484,8.484,0,0,1-1.5,1.208,10.283,10.283,0,0,1-6.812,1.555A10.759,10.759,0,1,1,318.3,490.644a10.283,10.283,0,0,1-1.542,6.8,8.065,8.065,0,0,1-1.208,1.5,2.019,2.019,0,0,1-.514.424Z" transform="translate(-120.581 -438.41)" fill="#455a64"/>
            <path id="Trazado_141447" data-name="Trazado 141447" d="M298.784,489.114c0,.3-1.285.514-2.931.514s-2.944-.219-2.944-.514,1.285-.514,2.944-.514S298.784,488.87,298.784,489.114Z" transform="translate(-121.711 -436.303)" fill="#455a64"/>
            <path id="Trazado_141448" data-name="Trazado 141448" d="M263,488.629a39.609,39.609,0,0,1,9-.836,42.019,42.019,0,0,1,9.075.219,38.1,38.1,0,0,1-9,.81,40.523,40.523,0,0,1-9.075-.193Z" transform="translate(-130.245 -436.574)" fill="#455a64"/>
            <path id="Trazado_141449" data-name="Trazado 141449" d="M283.361,487.071l-14.139-5.141-13.458,4.679-18.676,19.473L224.98,517.65l19.782,8.792,10.463-4.177,16.71-11.363,9.435-17.8s-2.686-1.285-5.72,2.995l-2.828,3.779-2.686-10.283v-3.072l8.342,2.571a4.422,4.422,0,0,0,4.756-1.388Z" transform="translate(-141.094 -438.207)" fill="#b78876"/>
            <path id="Trazado_141450" data-name="Trazado 141450" d="M249.89,497.65a5.012,5.012,0,0,1,1.285,2.249,15.784,15.784,0,0,1-.771,12.134c-.733,1.414-1.4,2.147-1.5,2.069a34.1,34.1,0,0,0,1.979-8.123A33.581,33.581,0,0,0,249.89,497.65Z" transform="translate(-134.269 -433.72)" fill="#aa6550"/>
            <path id="Trazado_141451" data-name="Trazado 141451" d="M250.228,499.221a27.369,27.369,0,0,1,5.142-1.285h.129a1.864,1.864,0,0,1,.848,1.979,5.544,5.544,0,0,1-.9,1.979,2.1,2.1,0,0,0-.347,1.8,4.2,4.2,0,0,0,1.4,1.671h-.617a11.362,11.362,0,0,0,3.6-3.483c1.388-2.2-.193-4.512-1.041-6.632a8.991,8.991,0,0,0-.694-1.363,1.286,1.286,0,0,0-1.105-.244l-2.815.437a31.723,31.723,0,0,1-5.617.643,28.9,28.9,0,0,1,5.5-1.285l2.815-.553a2.083,2.083,0,0,1,1.877.437,6.428,6.428,0,0,1,.887,1.594c.476,1.067,1.054,2.108,1.491,3.368a5.051,5.051,0,0,1-.386,4.152,12.043,12.043,0,0,1-3.959,3.856l-.308.219-.3-.257a5.142,5.142,0,0,1-1.645-2.121,2.969,2.969,0,0,1,.488-2.571,5.421,5.421,0,0,0,.861-1.722,1.17,1.17,0,0,0-.386-1.285h.219a29.025,29.025,0,0,1-5.141.668Z" transform="translate(-134.466 -435.097)" fill="#aa6550"/>
            <path id="Trazado_141452" data-name="Trazado 141452" d="M261.133,501.851a1.619,1.619,0,0,0,.913.63,1.735,1.735,0,0,0,2.185-1.131v-.09a5.887,5.887,0,0,0-.836-4.4c-.707-1.658-1.44-3.638-2.288-5.437s-3.046-1.5-4.833-1.285-3.445.411-4.807.63a25.967,25.967,0,0,1-4.447.656,15.854,15.854,0,0,1,4.306-1.362c1.375-.321,3.008-.63,4.859-.874a12.861,12.861,0,0,1,2.982-.154,3.483,3.483,0,0,1,2.828,1.979c.977,1.98,1.581,3.959,2.3,5.579a15.07,15.07,0,0,1,.823,2.571,3.921,3.921,0,0,1-.219,2.455,2.391,2.391,0,0,1-1.478,1.465,1.966,1.966,0,0,1-1.568-.116C261.031,502.4,261.031,501.851,261.133,501.851Z" transform="translate(-134.805 -436.185)" fill="#aa6550"/>
            <path id="Trazado_141453" data-name="Trazado 141453" d="M266.207,498.8a16,16,0,0,1-1.362-3.856c-.373-1.286-.784-2.7-1.208-4.165-.231-.771-.45-1.671-.694-2.442a2.674,2.674,0,0,0-1.555-1.632,8.213,8.213,0,0,0-4.872.463L252.3,488.3a15.877,15.877,0,0,1-3.959.771,16.042,16.042,0,0,1,3.766-1.478l4.139-1.285a8.548,8.548,0,0,1,5.54-.514,3.689,3.689,0,0,1,2.108,2.249c.283.925.437,1.722.656,2.571l1.015,4.242A15.419,15.419,0,0,1,266.207,498.8Z" transform="translate(-134.429 -437.172)" fill="#aa6550"/>
            <path id="Trazado_141454" data-name="Trazado 141454" d="M234.4,506.13a1.979,1.979,0,0,1,.3-.373c.27-.27.566-.63.951-1.041l3.7-3.959,13.484-14.268h0l13.458-4.73h.1l14.229,5.141h.193v.926h0a4.5,4.5,0,0,1-2.249,1.5,6.066,6.066,0,0,1-2.8,0h0l-5.887-1.812-2.494-.771.4-.283v2.956c.913,3.522,1.825,6.967,2.7,10.283h-.54c1.285-1.62,2.352-3.2,3.6-4.743a5.142,5.142,0,0,1,5.334-2.1h.27l-.154.3-9.473,17.8h0l-12.275,8.226-3.535,2.365c-.771.514-1.2.745-1.2.745s.386-.321,1.118-.848l3.3-2.3,12.147-8.381h0l9.37-17.815.141.4a3.3,3.3,0,0,0-2.494.232,7.493,7.493,0,0,0-2.134,1.722c-1.17,1.465-2.339,3.136-3.548,4.73l-.373.5-.154-.591-2.712-10.283h0v-3.458l.4.116,2.494.771,5.836,1.787h0a5.891,5.891,0,0,0,2.571,0,4,4,0,0,0,1.979-1.285v-.386l.206.283-14.216-5.141h.206l-13.484,4.589h0l-13.651,14.139-3.779,3.959-1,1A1.4,1.4,0,0,1,234.4,506.13Z" transform="translate(-138.408 -438.254)" fill="#aa6550"/>
            <path id="Trazado_141455" data-name="Trazado 141455" d="M239.1,615.4l-.925-68.33,17.777-5.964c5.6-1.067,11.041-3.111,17.635-3.381h0a34.7,34.7,0,0,0,42.353.527l.6-.45c1.7.193,3.959.411,6.787.759h.553a41.5,41.5,0,0,1,19.448,7.712h0l88.485,52.829,51.955-39.577,26.311,20.643s-68.125,68.125-74.667,69.68c-4.576,1.131-49.975-23.741-77.508-39.011,1.131,16.478,7.288,108.087,6.992,120.7h-126.4l-.1-57.777V658.066Z" transform="translate(-137.33 -422.282)" fill="#d9a171"/>
            <path id="Trazado_141456" data-name="Trazado 141456" d="M330.032,564.24a13.4,13.4,0,0,0-.1,3.046c0,2.2.167,4.962.244,8.227.257,6.966.707,16.556,1.285,27.173s1.144,20.193,1.645,27.134c.257,3.265.475,5.938.63,8.213a16.1,16.1,0,0,0,.411,3.034,13.312,13.312,0,0,0,.1-3.034c0-2.211-.154-4.961-.257-8.252-.257-6.954-.694-16.556-1.285-27.16s-1.144-20.219-1.632-27.173c-.257-3.265-.476-5.926-.656-8.2A15.69,15.69,0,0,0,330.032,564.24Z" transform="translate(-111.158 -414.716)" fill="#344154"/>
            <path id="Trazado_141457" data-name="Trazado 141457" d="M244.323,500.89s-50.579,47.276-66.544,66.646c-7.224,8.728-8.869,21.761-3.046,31.453h0a23.985,23.985,0,0,0,22.275,11.671l60.9-4.075,4.614-50.669-36.826,11.5,42.931-44.859Z" transform="translate(-156.441 -432.795)" fill="#d9a171"/>
            <path id="Trazado_141458" data-name="Trazado 141458" d="M238.444,625.1c-.3,0-.373-10.887-.193-24.281s.553-24.242.848-24.242.36,10.861.18,24.255S238.8,625.1,238.444,625.1Z" transform="translate(-137.335 -411.195)" fill="#344154"/>
            <path id="Trazado_141459" data-name="Trazado 141459" d="M237.658,539.08a11.459,11.459,0,0,1-1.53,1.979l-4.473,5.013c-3.856,4.216-9.216,10.065-15.424,16.71l.116-.219a80.4,80.4,0,0,1-8.83,20.116,30.85,30.85,0,0,1-9,8.522,21.753,21.753,0,0,1-7.712,3.111,13.378,13.378,0,0,1-2.262.244h-.784s1.08-.167,2.969-.617a23.587,23.587,0,0,0,7.429-3.329,31.53,31.53,0,0,0,8.573-8.445,66.961,66.961,0,0,0,6.543-13.393c.81-2.185,1.53-4.358,2.147-6.427v-.116h0c6.183-6.607,11.684-12.365,15.643-16.466l4.666-4.781A14.535,14.535,0,0,1,237.658,539.08Z" transform="translate(-151.716 -421.898)" fill="#344154"/>
            <path id="Trazado_141460" data-name="Trazado 141460" d="M208.153,563.39a23.831,23.831,0,0,1-2.275,18.638c-.3-.116,1.427-3.959,1.979-9.216S207.844,563.429,208.153,563.39Z" transform="translate(-146.557 -414.959)" fill="#344154"/>
            <path id="Trazado_141461" data-name="Trazado 141461" d="M254.9,728.458a2.18,2.18,0,0,1-.27-.4l-.771-1.286L251,722.018a82.955,82.955,0,0,1-4.216-7.712,18.793,18.793,0,0,1-1.774-11.491c.81-4.357,3.393-8.47,5.3-13.085a20.939,20.939,0,0,0,1.645-7.455,33.98,33.98,0,0,0-.848-8.136c-1.144-5.514-3.3-11.2-3.856-17.468a62.172,62.172,0,0,1,1.671-19.113c1.44-6.427,3.226-12.6,4.486-18.638a87.728,87.728,0,0,0,1.388-9c0-1.465.206-2.931.257-4.383s0-2.879,0-4.293a160.125,160.125,0,0,0-4.962-29.679,199.782,199.782,0,0,1-3.933-19.91c-.334-2.391-.514-4.255-.591-5.514v-1.453a1.55,1.55,0,0,1,0-.489,1.72,1.72,0,0,0,.1.489c.09.321.116.861.193,1.427.116,1.285.373,3.11.771,5.488.746,4.743,2.249,11.568,4.332,19.884a155.336,155.336,0,0,1,5.142,29.808v4.345c0,1.465-.141,2.943-.218,4.447a89.788,89.788,0,0,1-1.388,9c-1.285,6.093-3.046,12.25-4.473,18.638a61.7,61.7,0,0,0-1.7,18.856c.514,6.118,2.571,11.761,3.779,17.378a33.864,33.864,0,0,1,.81,8.368,22.006,22.006,0,0,1-1.735,7.712c-1.98,4.7-4.576,8.728-5.373,12.854a18.149,18.149,0,0,0,1.594,11.119,82.089,82.089,0,0,0,3.946,7.712l2.674,4.846.681,1.285C254.86,728.3,254.924,728.458,254.9,728.458Z" transform="translate(-135.447 -420.436)" fill="#fafafa"/>
            <path id="Trazado_141462" data-name="Trazado 141462" d="M275.672,543.69a1.855,1.855,0,0,1,.129.476l.321,1.4c.257,1.285.591,3.046.99,5.424a141.741,141.741,0,0,1,1.722,20.193,149.872,149.872,0,0,1-2.571,29.936c-1.98,11.144-5.257,23.136-6.324,36.157s.9,25.335,2.455,36.517a235.9,235.9,0,0,1,2.982,29.924,70.762,70.762,0,0,1-2.365,20.1l-.437,1.632-.488,1.414-.836,2.2-.514,1.285c-.116.3-.193.45-.193.45a1.557,1.557,0,0,1,0-.488l.437-1.375.707-2.211.463-1.4c.154-.514.231-1.067.373-1.645a73.756,73.756,0,0,0,1.98-20A247.357,247.357,0,0,0,271.276,674c-1.581-11.183-3.509-23.612-2.571-36.749s4.383-25.142,6.427-36.222a152.471,152.471,0,0,0,2.789-29.782,160.028,160.028,0,0,0-1.388-20.142c-.308-2.378-.591-4.216-.81-5.437a10.411,10.411,0,0,0-.193-1.427A1.067,1.067,0,0,1,275.672,543.69Z" transform="translate(-128.688 -420.581)" fill="#fafafa"/>
            <path id="Trazado_141463" data-name="Trazado 141463" d="M313.3,729.75l-.27-.411-.733-1.285a11.96,11.96,0,0,1-1.015-2.172c-.154-.437-.373-.913-.527-1.44s-.283-1.092-.437-1.684a31.528,31.528,0,0,1-.63-8.92,106.687,106.687,0,0,1,1.555-11.761A98.427,98.427,0,0,0,313,687.937a42.416,42.416,0,0,0-2.789-15.823,130.771,130.771,0,0,1-5.5-17.352,57.225,57.225,0,0,1,.386-19.576c1.028-6.62,2.365-12.995,2.751-19.281a74.287,74.287,0,0,0-1.414-18c-2.211-11.311-5.283-21.35-6.324-30.116a56.044,56.044,0,0,1,.63-20.694,28.473,28.473,0,0,1,2.571-7.159,1.658,1.658,0,0,1-.154.488l-.514,1.375a38.855,38.855,0,0,0-1.543,5.373,57.018,57.018,0,0,0-.3,20.566c1.105,8.676,4.255,18.651,6.53,30.039a73.667,73.667,0,0,1,1.478,18.162c-.36,6.35-1.722,12.854-2.751,19.357a56.684,56.684,0,0,0-.4,19.2,130.667,130.667,0,0,0,5.411,17.237,60.68,60.68,0,0,1,2.211,8.226,36.633,36.633,0,0,1,.54,8.034,98.523,98.523,0,0,1-1.979,14.255,107.519,107.519,0,0,0-1.71,11.632,31.71,31.71,0,0,0,.463,8.818A30.462,30.462,0,0,0,313.3,729.75Z" transform="translate(-119.848 -421.651)" fill="#fafafa"/>
            <path id="Trazado_141464" data-name="Trazado 141464" d="M324.175,549.3a3.238,3.238,0,0,1,.154.463l.386,1.285c.347,1.17.733,2.9,1.17,5.141a85.473,85.473,0,0,1,.771,19.512c-.476,8.227-2.082,18-3.573,28.715a258.255,258.255,0,0,0-2.185,35.232,477.753,477.753,0,0,0,5.694,63.947c1.208,8.072,2.2,14.64,2.892,19.281.334,2.2.566,3.959.771,5.244a7.18,7.18,0,0,0,.18,1.363,2.95,2.95,0,0,1,0,.475,1.824,1.824,0,0,1-.141-.45,11.054,11.054,0,0,0-.257-1.363c-.244-1.285-.553-3.008-.977-5.142-.784-4.537-1.979-11.106-3.2-19.281a443.981,443.981,0,0,1-5.938-64.063,250.516,250.516,0,0,1,2.3-35.374c1.542-10.784,3.188-20.437,3.753-28.638a88.072,88.072,0,0,0-.437-19.383c-.347-2.262-.668-3.959-.964-5.141l-.283-1.35a1.441,1.441,0,0,1-.116-.475Z" transform="translate(-114.002 -418.981)" fill="#fafafa"/>
            <path id="Trazado_141465" data-name="Trazado 141465" d="M347.2,615.84a6.9,6.9,0,0,1-.3-1.979c-.129-1.285-.257-3.213-.386-5.566-.257-4.692-.476-11.183-.488-18.355s.116-13.676.334-18.368c.116-2.352.219-4.255.334-5.553a9.274,9.274,0,0,1,.257-1.979,7.279,7.279,0,0,1,.141,1.979v23.9c0,7.031.141,13.393.193,18.342v5.566A8.849,8.849,0,0,1,347.2,615.84Z" transform="translate(-106.551 -414.773)" fill="#fafafa"/>
            <path id="Trazado_141466" data-name="Trazado 141466" d="M363.114,569.67a15.77,15.77,0,0,1-.913,1.8,11.49,11.49,0,0,0-1.144,5.219c0,2.275.475,5.052.784,8.1s1.054,6.427,1.5,9.9a46.59,46.59,0,0,1,.206,10.1,25.708,25.708,0,0,1-1.979,8.072,21.019,21.019,0,0,1-2.918,4.756,6.033,6.033,0,0,1-1.414,1.478,44.8,44.8,0,0,0,3.651-6.5,37.893,37.893,0,0,0,1.388-17.815c-.437-3.5-1.092-6.838-1.427-9.884a70.816,70.816,0,0,1-.566-8.239,10.953,10.953,0,0,1,1.517-5.4A5.361,5.361,0,0,1,363.114,569.67Z" transform="translate(-103.352 -413.168)" fill="#fafafa"/>
            <path id="Trazado_141467" data-name="Trazado 141467" d="M196,593.189a15.152,15.152,0,0,1,2.648,0,28.374,28.374,0,0,0,7.07-.656,17.109,17.109,0,0,0,8.548-5.694c2.635-3,5.257-6.568,8.175-10.167,5.771-7.288,11.041-13.856,14.9-18.522l4.589-5.54a12.522,12.522,0,0,1,1.8-1.979,13.208,13.208,0,0,1-1.478,2.172l-4.345,5.758c-3.715,4.807-8.882,11.44-14.653,18.7-2.931,3.612-5.54,7.134-8.278,10.167A17.481,17.481,0,0,1,205.9,593.2a24.613,24.613,0,0,1-7.327.321,12.171,12.171,0,0,1-2.571-.334Z" transform="translate(-149.364 -418.6)" fill="#fafafa"/>
            <path id="Trazado_141468" data-name="Trazado 141468" d="M252.07,510.1a8.264,8.264,0,0,1-.476,1.17,24.938,24.938,0,0,1-1.7,3.162,39.628,39.628,0,0,1-8.792,9.9c-4.255,3.612-9.884,7.262-15.733,11.568s-12.16,9.6-15.964,17.121A107.821,107.821,0,0,1,203.6,564a31.245,31.245,0,0,1-8.393,8.047c-3.046,2.121-6.054,3.959-8.689,5.758a32.135,32.135,0,0,0-6.645,5.938,15.553,15.553,0,0,0-3.676,11.993,12.854,12.854,0,0,0,1.645,4.447l-.218-.231a3.734,3.734,0,0,1-.566-.771,10.567,10.567,0,0,1-1.285-3.368,15.823,15.823,0,0,1,3.5-12.519A32.252,32.252,0,0,1,186,577.068c2.648-1.967,5.656-3.728,8.625-5.836a30.615,30.615,0,0,0,8.111-7.9,99.76,99.76,0,0,0,5.72-10.887c3.959-7.712,10.412-13.162,16.337-17.417s11.568-7.905,15.836-11.35a41.645,41.645,0,0,0,8.908-9.486,24.229,24.229,0,0,0,1.838-3.046A4.949,4.949,0,0,1,252.07,510.1Z" transform="translate(-155.19 -430.167)" fill="#fafafa"/>
            <g id="Grupo_70339" data-name="Grupo 70339" transform="translate(37.072 138.361)" opacity="0.3">
              <path id="Trazado_110030" data-name="Trazado 110030" d="M188.56,589.469a31.183,31.183,0,0,0,31.646-30.707v-.321c0-1.041-.18-2.288-1.118-2.764a2.1,2.1,0,0,0-2.468.848,6.337,6.337,0,0,0-.887,2.674,43.548,43.548,0,0,1-24.615,31.042" transform="translate(-188.56 -555.556)"/>
            </g>
            <path id="Trazado_141469" data-name="Trazado 141469" d="M414.391,494.271a32.56,32.56,0,0,1,6.641-14.435,42.118,42.118,0,0,1,15.643-10.707,73.183,73.183,0,0,1,21.463-4.974c3.934-.373,8.007-.578,12.23-.656A41.076,41.076,0,0,1,483.35,465a36.31,36.31,0,0,1,6.456,2.571,28.394,28.394,0,0,1,5.855,4.345,36.846,36.846,0,0,1,5.056,5.758,21.424,21.424,0,0,1,2.013,3.471,10.231,10.231,0,0,1,1.157,4.075v.334h-.324c-7.995.771-16.569,2.725-25.547,3.959l.324-.437c1.053,9.653,2.117,19.782,2.7,30.129.116,2.571.208,5.244.173,7.918s-.173,5.308-.173,7.918c0,5.386,0,10.836-.382,16.376a164.192,164.192,0,0,1-5.172,33.561,133.308,133.308,0,0,1-13.5,32.507c-5.912,10.4-14.069,19.152-19.588,30.232a96.843,96.843,0,0,0-11.061,36.119,181.928,181.928,0,0,0-.208,19.782q.1,9.9.208,20.065c.093,13.458,0,27.083-.4,40.862-.5,15.823-1.25,31.646-3.066,46.968a93.438,93.438,0,0,1-4.917,22.443,89.548,89.548,0,0,1-10.413,19.538c-8.354,11.877-18.732,21.311-28.243,31.029l-3.367,3.856c-1.088,1.286-2.187,2.571-3.24,3.959l-1.446,2.1a12.422,12.422,0,0,0-1.319,2.159l-1.157,2.275q-.442,1.186-.775,2.417a183.145,183.145,0,0,0-2.765,20.566c-2.372,27.378-3.471,53.536-4.547,78s-1.77,47.237-2.418,68.125-1.157,39.563-1.516,56.17q-.243,12.4-.463,23.034a69.52,69.52,0,0,1-.5,10.18,29.066,29.066,0,0,1-2.812,8.689,30.245,30.245,0,0,1-25.235,16.543H331.12a10.587,10.587,0,0,0,1.608-.1,30.322,30.322,0,0,0,24.911-16.62,28.4,28.4,0,0,0,2.742-8.561,68.693,68.693,0,0,0,.451-10.115c.127-7.083.243-14.782.393-23.047.336-16.542.775-35.373,1.365-56.2s1.319-43.522,2.314-68.124,2.117-50.618,4.466-78.061a183.816,183.816,0,0,1,2.65-20.785c.278-.861.486-1.761.821-2.571l1.215-2.365a13.258,13.258,0,0,1,1.354-2.237l1.481-2.134c1.064-1.362,2.175-2.673,3.274-3.959l3.564-3.753c9.546-9.782,19.878-19.113,28.139-30.926A88.736,88.736,0,0,0,422.2,833.75a92.847,92.847,0,0,0,4.813-22.2c1.782-15.334,2.557-31.029,3.055-46.89.4-13.753.5-27.365.4-40.823q-.1-10.09-.208-20.039a182.2,182.2,0,0,1,.22-19.846,97.5,97.5,0,0,1,11.2-36.5c5.577-11.2,13.78-20.013,19.588-30.27a131.516,131.516,0,0,0,13.422-32.2,164.861,164.861,0,0,0,5.137-33.42c.278-5.527.347-10.99.382-16.363,0-2.674.116-5.4.185-7.918s0-5.257-.162-7.918c-.555-10.386-1.608-20.437-2.638-30.091v-.4h.324c8.909-1.285,17.506-3.162,25.593-3.959l-.324.386a14.618,14.618,0,0,0-2.95-7.108,36.655,36.655,0,0,0-4.952-5.656,28.823,28.823,0,0,0-5.716-4.28,37.492,37.492,0,0,0-6.341-2.571,40.935,40.935,0,0,0-12.8-1.53c-4.2,0-8.261.244-12.184.617a72.19,72.19,0,0,0-21.37,4.91,41.9,41.9,0,0,0-15.527,10.5,32.412,32.412,0,0,0-6.641,14.242c-.417,2.3-.926,4.422-1.157,6.427a36.429,36.429,0,0,0-.231,5.386q.226,4.82.324,7.327S413.986,496.585,414.391,494.271Z" transform="translate(-91.642 -443.477)" fill="#344154"/>
          </g>
          <g id="Grupo_70344" data-name="Grupo 70344" transform="translate(0 20.807)">
            <path id="Trazado_109950" data-name="Trazado 109950" d="M226.882,1021.58a2.475,2.475,0,0,1-.677.1l-1.949.154-7.178.437c-6.057.334-14.379.656-23.716.8s-17.658,0-23.739,0l-7.178-.244H159.82a2.974,2.974,0,0,1,.677,0H193.34c9.337,0,17.647-.412,23.692-.656l7.189-.257h1.961Z" transform="translate(-21.987 -305.012)" fill="#344154"/>
            <path id="Trazado_109951" data-name="Trazado 109951" d="M172.225,1024.614a11.621,11.621,0,0,0-3.875-6.774A7.165,7.165,0,0,1,172.225,1024.614Z" transform="translate(-19.21 -306.079)" fill="#344154"/>
            <path id="Trazado_109952" data-name="Trazado 109952" d="M181.909,1018.74a5.254,5.254,0,0,1-1.272-1.658c-.6-1-.98-1.864-.864-1.979s.677.681,1.272,1.671S182.037,1018.624,181.909,1018.74Z" transform="translate(-18.788 -306.864)" fill="#344154"/>
            <path id="Trazado_109953" data-name="Trazado 109953" d="M184.679,1016.94a4.156,4.156,0,0,1-1.4-1.015c-.677-.656-1.167-1.285-1.1-1.4s.724.334,1.4,1a4.383,4.383,0,0,1,1.1,1.414Z" transform="translate(-18.724 -307.032)" fill="#344154"/>
            <path id="Trazado_109954" data-name="Trazado 109954" d="M186.592,1013.243a4.1,4.1,0,0,1-2.066.347,4.5,4.5,0,0,1-2.066-.218,4.276,4.276,0,0,1,2.066-.321A4.338,4.338,0,0,1,186.592,1013.243Z" transform="translate(-18.782 -307.46)" fill="#344154"/>
            <path id="Trazado_109955" data-name="Trazado 109955" d="M187.258,1010.93a5.358,5.358,0,0,1-4.668.45,14.465,14.465,0,0,1,2.334-.193,12.858,12.858,0,0,1,2.334-.257Z" transform="translate(-18.799 -308.052)" fill="#344154"/>
            <path id="Trazado_109956" data-name="Trazado 109956" d="M181.483,1015.846a6.519,6.519,0,0,1-2.544,0,15.2,15.2,0,0,1-2.719-.6,8.866,8.866,0,0,1-1.541-.694,1.562,1.562,0,0,1-.665-.81,1.181,1.181,0,0,1,.373-1.131,4.4,4.4,0,0,1,5.836,1.427,5.06,5.06,0,0,1,.782,1.812c.117.476.117.733,0,.758a7.994,7.994,0,0,0-1.167-2.378,4.462,4.462,0,0,0-2.194-1.517,3.618,3.618,0,0,0-3.023.27c-.4.321-.233.848.222,1.131a6.138,6.138,0,0,0,1.436.656,15.363,15.363,0,0,0,2.626.707,13.6,13.6,0,0,1,2.579.372Z" transform="translate(-19.174 -307.737)" fill="#344154"/>
            <path id="Trazado_109957" data-name="Trazado 109957" d="M179.89,1016.294a3.132,3.132,0,0,1-.3-1.98,4.859,4.859,0,0,1,.665-1.979,2.535,2.535,0,0,1,2.1-1.465,1.1,1.1,0,0,1,.794,1.285,3.06,3.06,0,0,1-.409,1.286,8.584,8.584,0,0,1-1.167,1.722c-.794.874-1.4,1.209-1.435,1.144s.5-.514,1.167-1.4a9.19,9.19,0,0,0,1.05-1.709c.338-.591.572-1.633,0-1.761s-1.3.643-1.669,1.208a4.849,4.849,0,0,0-.7,1.825,11.018,11.018,0,0,0-.093,1.825Z" transform="translate(-18.852 -308.069)" fill="#344154"/>
            <path id="Trazado_109958" data-name="Trazado 109958" d="M218.475,1012.392c0,.1-1.167-.1-2.929.154a12.664,12.664,0,0,0-10.236,9.229c-.6,1.877-.63,3.149-.724,3.123a2.2,2.2,0,0,1,0-.874,13.4,13.4,0,0,1,.42-2.352,12.383,12.383,0,0,1,10.5-9.5,10.21,10.21,0,0,1,2.171,0,1.835,1.835,0,0,1,.794.219Z" transform="translate(-18.561 -307.714)" fill="#344154"/>
            <path id="Trazado_109959" data-name="Trazado 109959" d="M212.808,998.28q.443,4.482.444,9a87.777,87.777,0,0,1,0,9,84.19,84.19,0,0,1-.444-8.92A81.968,81.968,0,0,1,212.808,998.28Z" transform="translate(-17.676 -311.662)" fill="#344154"/>
            <path id="Trazado_109960" data-name="Trazado 109960" d="M201.834,1019.006a29.386,29.386,0,0,1-11.554.283,56.094,56.094,0,0,1,5.836,0C199.348,1019.289,201.834,1018.865,201.834,1019.006Z" transform="translate(-18.861 -305.756)" fill="#344154"/>
            <path id="Trazado_109961" data-name="Trazado 109961" d="M207.019,1018.924c.105.1-.2.591-.455,1.285s-.385,1.285-.537,1.285-.2-.669.093-1.414S206.949,1018.808,207.019,1018.924Z" transform="translate(-17.914 -305.775)" fill="#344154"/>
            <path id="Trazado_109962" data-name="Trazado 109962" d="M209.53,1015.764c.105.1-.14.565-.56,1.028s-.805.758-.887.655.152-.553.549-1.028S209.448,1015.674,209.53,1015.764Z" transform="translate(-17.861 -306.678)" fill="#344154"/>
            <path id="Trazado_109963" data-name="Trazado 109963" d="M213.217,1014.353c0,.141-.549.154-1.167.373s-.98.6-1.1.5.222-.72.934-.99S213.252,1014.211,213.217,1014.353Z" transform="translate(-17.809 -307.143)" fill="#344154"/>
            <path id="Trazado_109964" data-name="Trazado 109964" d="M215.6,1013.612a.721.721,0,0,1-.5.514c-.327.129-.63.141-.677,0s.175-.372.5-.514S215.553,1013.484,215.6,1013.612Z" transform="translate(-17.645 -307.315)" fill="#344154"/>
            <path id="Trazado_109965" data-name="Trazado 109965" d="M323.314,1019.766l.128-23.24L283.912,996l-.5,34.011,2.463.193c10.889.823,55.473,3.291,62.791.951C356.8,1028.546,323.314,1019.766,323.314,1019.766Z" transform="translate(-20.375 -312.312)" fill="#d9a171"/>
            <path id="Trazado_109966" data-name="Trazado 109966" d="M297.665,1025.153a15.535,15.535,0,0,0-4.949-9.357,12.541,12.541,0,0,0-9.2-3.291l-.14,12.172Z" transform="translate(-16.339 -307.61)"/>
            <path id="Trazado_109967" data-name="Trazado 109967" d="M339.67,1018.33s11.729,3.959,10.236,5.938-46.626,1.491-66.525-.707v-.99l52.649,1.285S337.371,1018.42,339.67,1018.33Z" transform="translate(-20.387 -305.94)"/>
            <path id="Trazado_109968" data-name="Trazado 109968" d="M282.93,1021.68h.689l1.937.154,7.189.45c6.046.321,14.367.63,23.716.8s17.658,0,23.727-.1l7.189-.219h2.638a3.018,3.018,0,0,0-.677,0H316.461c-9.337,0-17.647-.411-23.7-.63l-7.178-.283h-1.961Z" transform="translate(-20.429 -304.985)" fill="#344154"/>
            <path id="Trazado_109969" data-name="Trazado 109969" d="M328.543,1024.678a20.146,20.146,0,0,1,1.389-3.753,15.94,15.94,0,0,1,2.5-2.995,5.366,5.366,0,0,0-2.894,2.712A6.418,6.418,0,0,0,328.543,1024.678Z" transform="translate(-14.227 -306.054)" fill="#344154"/>
            <path id="Trazado_109970" data-name="Trazado 109970" d="M318.61,1018.734a5.285,5.285,0,0,0,1.284-1.633,4.82,4.82,0,0,0,.864-1.979c-.105-.116-.689.656-1.284,1.645A5.182,5.182,0,0,0,318.61,1018.734Z" transform="translate(-14.404 -306.859)" fill="#344154"/>
            <path id="Trazado_109971" data-name="Trazado 109971" d="M315.892,1017.041c.093.1.712-.334,1.424-1s1.167-1.285,1.074-1.414-.724.347-1.4,1.016S315.8,1016.913,315.892,1017.041Z" transform="translate(-14.517 -307.003)" fill="#344154"/>
            <path id="Trazado_109972" data-name="Trazado 109972" d="M314.2,1013.378a4.539,4.539,0,0,0,2.066.308,4.06,4.06,0,0,0,2.066-.218,4.483,4.483,0,0,0-2.054-.309A4.263,4.263,0,0,0,314.2,1013.378Z" transform="translate(-14.69 -307.428)" fill="#344154"/>
            <path id="Trazado_109973" data-name="Trazado 109973" d="M313.64,1011a5.359,5.359,0,0,0,4.669.462q-2.336-.206-4.668-.462Z" transform="translate(-14.747 -308.031)" fill="#344154"/>
            <path id="Trazado_109974" data-name="Trazado 109974" d="M319.8,1015.849a6.523,6.523,0,0,0,2.544,0,12.478,12.478,0,0,0,2.719-.617,8.715,8.715,0,0,0,1.541-.668,1.593,1.593,0,0,0,.653-.874,1.164,1.164,0,0,0-.385-1.118,4.394,4.394,0,0,0-5.766,1.414,5.04,5.04,0,0,0-.864,1.864,2.075,2.075,0,0,0,0,.758,7.812,7.812,0,0,1,1.167-2.378,4.57,4.57,0,0,1,2.194-1.529,3.6,3.6,0,0,1,3.011.283c.4.334.233.848-.21,1.144a6.822,6.822,0,0,1-1.436.63,13.561,13.561,0,0,1-2.626.733A12.674,12.674,0,0,1,319.8,1015.849Z" transform="translate(-14.772 -307.74)" fill="#344154"/>
            <path id="Trazado_109975" data-name="Trazado 109975" d="M320.838,1016.361a3.118,3.118,0,0,0,.3-1.979,4.8,4.8,0,0,0-.665-1.967,2.525,2.525,0,0,0-2.1-1.465,1.131,1.131,0,0,0-.794,1.286,3.385,3.385,0,0,0,.42,1.285,8.8,8.8,0,0,0,1.167,1.71,3.711,3.711,0,0,0,1.435,1.144,13.553,13.553,0,0,1-1.167-1.4,9.874,9.874,0,0,1-1.05-1.684c-.338-.591-.572-1.671,0-1.787s1.284.63,1.657,1.208a4.762,4.762,0,0,1,.7,1.825,12.3,12.3,0,0,1,.093,1.825Z" transform="translate(-14.546 -308.046)" fill="#344154"/>
            <path id="Trazado_109976" data-name="Trazado 109976" d="M283.73,1012.474a13.939,13.939,0,0,1,2.93.154,12.737,12.737,0,0,1,10.247,9.242c.584,1.864.619,3.123.712,3.111a2.2,2.2,0,0,0,0-.874,12.2,12.2,0,0,0-.408-2.352,13.657,13.657,0,0,0-3.921-6.555,11.776,11.776,0,0,0-6.606-2.943,8.858,8.858,0,0,0-2.182,0A2.892,2.892,0,0,0,283.73,1012.474Z" transform="translate(-16.304 -307.693)" fill="#344154"/>
            <path id="Trazado_109977" data-name="Trazado 109977" d="M287.5,998.35a176.333,176.333,0,0,0-.455,17.918,81.876,81.876,0,0,0,.455-9A88.489,88.489,0,0,0,287.5,998.35Z" transform="translate(-15.299 -311.641)" fill="#344154"/>
            <path id="Trazado_109978" data-name="Trazado 109978" d="M300,1019.1a29.388,29.388,0,0,0,11.554.27c0-.129-2.614,0-5.836-.09S300,1018.982,300,1019.1Z" transform="translate(-15.666 -305.732)" fill="#344154"/>
            <path id="Trazado_109979" data-name="Trazado 109979" d="M293.353,1019c-.1.09.2.591.455,1.286s.4,1.285.537,1.285.21-.694-.093-1.453S293.423,1018.9,293.353,1019Z" transform="translate(-15.131 -305.752)" fill="#344154"/>
            <path id="Trazado_109980" data-name="Trazado 109980" d="M290.893,1015.866c-.1.09.14.553.56,1s.805.758.9.655-.163-.553-.56-1.015S291.022,1015.738,290.893,1015.866Z" transform="translate(-15.234 -306.652)" fill="#344154"/>
            <path id="Trazado_109981" data-name="Trazado 109981" d="M287.32,1014.432c0,.154.56.154,1.167.4s.992.566,1.1.476-.222-.72-.934-.99S287.285,1014.291,287.32,1014.432Z" transform="translate(-15.399 -307.12)" fill="#344154"/>
            <path id="Trazado_109982" data-name="Trazado 109982" d="M284.84,1013.692c0,.141.175.373.5.514s.63.154.689,0-.187-.36-.5-.514S284.84,1013.577,284.84,1013.692Z" transform="translate(-15.406 -307.292)" fill="#344154"/>
            <path id="Trazado_110016" data-name="Trazado 110016" d="M418.441,563.53c-.268.308,4.925,5.72,11.554,12.082s12.161,11.324,12.372,11.042-5-5.617-11.671-12.005c-3.3-3.188-6.337-5.938-8.567-8.034a25.355,25.355,0,0,0-3.688-3.085Z" transform="translate(-19.362 -435.727)" fill="#344154"/>
            <path id="Trazado_110017" data-name="Trazado 110017" d="M413.741,567c-.21.27,5.054,5.694,11.671,12.185,3.326,3.239,6.384,6.118,8.625,8.149a19.484,19.484,0,0,0,3.817,3.111,20.56,20.56,0,0,0-3.256-3.779c-2.124-2.224-5.089-5.206-8.427-8.445s-6.291-6.08-8.625-8.085A18.934,18.934,0,0,0,413.741,567Z" transform="translate(-20.146 -434.736)" fill="#344154"/>
            <path id="Trazado_110032" data-name="Trazado 110032" d="M42.757,944.837s-29.54,6.992-14.215,46.582,6.162,50.361-4.412,53.15l81.021-.578,7.189-99.5Z" transform="translate(-23.642 -327.011)" fill="#e0e0e0"/>
            <path id="Trazado_110033" data-name="Trazado 110033" d="M99.018,1044.506a22.136,22.136,0,0,1-15.616-6.427c-6.664-6.427-14.892-18.522-16.526-39.461-3.431-44.294-26.785-53.754-26.785-53.754l69.548-.334s22.584,0,24.416,39.319c1.914,41.209,53.8,64.873,85.83,60.258Z" transform="translate(-20.975 -327)" fill="#f5f5f5"/>
            <path id="Trazado_110034" data-name="Trazado 110034" d="M194.382,891.51s-36.426-4.82-40.476,84.063-65.067,84.05-65.067,84.05H210.5s25.315-6.2,19.421-68.909c-2.463-26.324,40.405-99.154,40.405-99.154Z" transform="translate(-17.395 -342.143)" fill="#ebebeb"/>
            <path id="Trazado_110035" data-name="Trazado 110035" d="M162.206,901.549c-3.875,5.142-2.334,13.342,1.1,18.882S172,929.712,177.39,932.8s11.029,5.694,15.861,9.756c7.47,6.285,12.453,15.63,15.464,25.438a170.515,170.515,0,0,1,5.5,30.438s-3.98-73.742-15.756-94.205S169.641,891.781,162.206,901.549Z" transform="translate(-21.424 -342.144)" fill="#e0e0e0"/>
            <path id="Trazado_110036" data-name="Trazado 110036" d="M252.751,1059.614s-35.924,1.979-40.919-43.947S202.647,894.238,179.27,891.5h73.668c10.356-.024,19.667,6.944,23.459,17.558,3.2,9.062,6.454,22.468,8.462,41.968,4.26,41.222,25.455,109.1,78.558,108.511Z" transform="translate(-29.813 -342.133)" fill="#f5f5f5"/>
            <path id="Trazado_110037" data-name="Trazado 110037" d="M269.868,992.974c0,.27-10.772.514-23.984.514s-23.984-.244-23.984-.514,10.784-.514,23.984-.514S269.868,992.679,269.868,992.974Z" transform="translate(-19.995 -313.322)" fill="#344154"/>
            <path id="Trazado_110038" data-name="Trazado 110038" d="M274.483,997.2q-.385-3.874-.385-7.777l.385.437h-7l.467-.514h0v7.609l-.42-.437a58.992,58.992,0,0,1,7.061.437,43.3,43.3,0,0,1-7.061.463h-.4v-8.072h0l.467-.514h7.481v.424A58.306,58.306,0,0,1,274.483,997.2Z" transform="translate(-16.392 -314.358)" fill="#344154"/>
            <path id="Trazado_110039" data-name="Trazado 110039" d="M279.257,1006.224c0,.3-10.784.514-23.972.514s-23.984-.219-23.984-.514,10.784-.514,23.984-.514S279.257,1005.954,279.257,1006.224Z" transform="translate(-19.818 -309.541)" fill="#344154"/>
            <path id="Trazado_110040" data-name="Trazado 110040" d="M283.951,1010.465a72.111,72.111,0,0,1-.42-7.776l.42.437H276.89l.467-.514h0v7.712l-.4-.45a54.125,54.125,0,0,1,7.061.45,46.433,46.433,0,0,1-7.061.437h-.42v-8.136h0l.467-.514h7.423v.514A60.059,60.059,0,0,1,283.951,1010.465Z" transform="translate(-16.105 -310.568)" fill="#344154"/>
            <path id="Trazado_110041" data-name="Trazado 110041" d="M261.865,959.554c0,.283-10.772.514-23.961.514s-23.984-.231-23.984-.514,10.784-.514,23.984-.514S261.865,959.271,261.865,959.554Z" transform="translate(-20.143 -322.859)" fill="#344154"/>
            <path id="Trazado_110042" data-name="Trazado 110042" d="M266.586,963.77a74.982,74.982,0,0,1-.409-7.712l.409.463h-7l.467-.514h0v7.609l-.4-.424a58.754,58.754,0,0,1,7.061.424,43.174,43.174,0,0,1-7.061.463h-.408v-8.072h0c-.408.45.572-.63.49-.514h7.411v.437A59.533,59.533,0,0,1,266.586,963.77Z" transform="translate(-16.636 -323.874)" fill="#344154"/>
            <path id="Trazado_110043" data-name="Trazado 110043" d="M259.648,942.114c0,.27-10.784.514-23.984.514s-23.984-.244-23.984-.514,10.772-.514,23.984-.514S259.648,941.857,259.648,942.114Z" transform="translate(-20.187 -327.837)" fill="#344154"/>
            <path id="Trazado_110044" data-name="Trazado 110044" d="M264.356,946.375q-.391-3.886-.4-7.8l.4.463h-7.061l.467-.514h0v7.635l-.408-.45a54.138,54.138,0,0,1,7,.45,48.118,48.118,0,0,1-7,.437h-.338v-8.1h0c-.42.476.572-.6.467-.514h7.47v.437A58.491,58.491,0,0,1,264.356,946.375Z" transform="translate(-16.705 -328.871)" fill="#344154"/>
            <path id="Trazado_110045" data-name="Trazado 110045" d="M256.658,926.164c0,.283-10.784.514-23.984.514s-23.984-.231-23.984-.514,10.784-.514,23.984-.514S256.658,925.869,256.658,926.164Z" transform="translate(-20.244 -332.388)" fill="#344154"/>
            <path id="Trazado_110046" data-name="Trazado 110046" d="M261.273,930.37q-.385-3.842-.408-7.712l.408.463h-7l.467-.514h0v7.609l-.4-.437a58.808,58.808,0,0,1,7,.437,43.212,43.212,0,0,1-7,.463h-.385v-8.072h0c-.42.45.549-.643.467-.514h7.47v.591A61.451,61.451,0,0,1,261.273,930.37Z" transform="translate(-16.798 -333.406)" fill="#344154"/>
            <path id="Trazado_110047" data-name="Trazado 110047" d="M252.428,911.527c0,.283-10.784.514-23.984.514s-23.984-.232-23.984-.514S215.232,911,228.433,911,252.428,911.231,252.428,911.527Z" transform="translate(-20.323 -336.569)" fill="#344154"/>
            <path id="Trazado_110048" data-name="Trazado 110048" d="M257.051,915.733q-.387-3.841-.4-7.712l.4.437h-7l.467-.514h0v7.713l-.409-.45a61.844,61.844,0,0,1,7,.45,46.44,46.44,0,0,1-7,.462h-.4v-8.175h0l.467-.514h7.47v.45a57.793,57.793,0,0,1-.6,7.854Z" transform="translate(-16.916 -337.588)" fill="#344154"/>
            <path id="Trazado_110049" data-name="Trazado 110049" d="M245.3,899.244c0,.283-10.784.514-23.984.514s-23.984-.231-23.984-.514,10.784-.514,23.984-.514S245.3,898.961,245.3,899.244Z" transform="translate(-20.455 -340.07)" fill="#344154"/>
            <path id="Trazado_110050" data-name="Trazado 110050" d="M249.961,903.468q-.391-3.874-.4-7.776l.4.45h-7l.467-.514h0v7.622l-.409-.437a61.9,61.9,0,0,1,7.061.437,43.357,43.357,0,0,1-7.061.45h-.4v-8.085h0l.467-.514h7.481v.437a58.129,58.129,0,0,1-.607,7.931Z" transform="translate(-17.13 -341.106)" fill="#344154"/>
            <path id="Trazado_110051" data-name="Trazado 110051" d="M252.76,932.075a19.76,19.76,0,0,1,3.233-5.142c.42-.514.794-1.028,1.167-1.555l.315-.4.315.334c1.657,1.658,2.731,2.956,2.6,3.124s-1.447-.823-3.175-2.391h.63l-1.167,1.607a18.564,18.564,0,0,1-3.921,4.422Z" transform="translate(-16.807 -332.579)" fill="#d9a171"/>
            <path id="Trazado_110052" data-name="Trazado 110052" d="M255.93,947.313a19.761,19.761,0,0,1,3.233-5.142l1.167-1.555.315-.386.315.321c1.657,1.658,2.731,2.943,2.614,3.123s-1.459-.823-3.186-2.365h.63l-1.167,1.594a18.552,18.552,0,0,1-3.921,4.409Z" transform="translate(-16.712 -328.227)" fill="#d9a171"/>
            <path id="Trazado_110053" data-name="Trazado 110053" d="M265,999.5a19.434,19.434,0,0,1,3.233-5.141c.42-.515.794-1.029,1.167-1.568l.3-.4.315.334c1.657,1.671,2.731,2.957,2.614,3.137s-1.459-.836-3.186-2.4h.63l-1.167,1.607A18.392,18.392,0,0,1,265,999.5Z" transform="translate(-16.438 -313.342)" fill="#d9a171"/>
            <path id="Trazado_110054" data-name="Trazado 110054" d="M258.21,964.865a18.777,18.777,0,0,1,3.233-5.141l1.167-1.555.3-.4.327.334c1.634,1.658,2.731,2.943,2.6,3.123s-1.447-.836-3.175-2.391h.63l-1.167,1.607a19.122,19.122,0,0,1-3.921,4.422Z" transform="translate(-16.643 -323.222)" fill="#d9a171"/>
            <path id="Trazado_110055" data-name="Trazado 110055" d="M265.868,976.274c0,.27-10.784.514-23.984.514s-23.984-.245-23.984-.514,10.772-.514,23.984-.514S265.868,975.978,265.868,976.274Z" transform="translate(-20.07 -318.088)" fill="#344154"/>
            <path id="Trazado_110056" data-name="Trazado 110056" d="M270.523,980.483q-.4-3.841-.42-7.712l.42.45h-7.061l.467-.514h0v7.622l-.4-.437a56.459,56.459,0,0,1,7.061.437,44.8,44.8,0,0,1-7.061.45h-.4v-8.072h0c-.432.45.56-.63.467-.514h7.469v.437a59.865,59.865,0,0,1-.549,7.854Z" transform="translate(-16.522 -319.109)" fill="#344154"/>
            <path id="Trazado_110057" data-name="Trazado 110057" d="M261.3,982.275a19.8,19.8,0,0,1,3.245-5.141c.409-.514.805-1.028,1.167-1.568l.3-.386.327.334c1.646,1.658,2.743,2.944,2.6,3.111s-1.459-.823-3.186-2.378h.63l-1.167,1.594A19.046,19.046,0,0,1,261.3,982.275Z" transform="translate(-16.55 -318.253)" fill="#d9a171"/>
            <path id="Trazado_110058" data-name="Trazado 110058" d="M88.18,1002.284c0-.3,9.734-.514,21.755-.514s21.778.219,21.778.514-9.745.514-21.778.514S88.18,1002.567,88.18,1002.284Z" transform="translate(-15.537 -310.666)" fill="#344154"/>
            <path id="Trazado_110059" data-name="Trazado 110059" d="M78.739,1000a62.019,62.019,0,0,1,.4,7.057l-.4-.424h6.419c.093-.129-.9.964-.49.514h0v-7.108l.42.45a46.762,46.762,0,0,1-6.419-.45,37.04,37.04,0,0,1,6.419-.437h.4v7.507h0l-.467.514H78.19v-.437A47.664,47.664,0,0,1,78.739,1000Z" transform="translate(-14.608 -311.287)" fill="#344154"/>
            <path id="Trazado_110060" data-name="Trazado 110060" d="M87.08,998.052a16.665,16.665,0,0,1-2.906,4.7l-1.1,1.427-.3.4-.327-.347c-1.482-1.5-2.474-2.686-2.334-2.866s1.33.733,2.918,2.146H82.4l1.039-1.465C85.247,999.685,86.869,997.885,87.08,998.052Z" transform="translate(-14.29 -311.73)" fill="#d9a171"/>
            <path id="Trazado_110061" data-name="Trazado 110061" d="M80.76,991.344c0-.3,9.757-.514,21.767-.514s21.767.218,21.767.514-9.745.514-21.767.514S80.76,991.614,80.76,991.344Z" transform="translate(-14.178 -313.788)" fill="#344154"/>
            <path id="Trazado_110062" data-name="Trazado 110062" d="M71.313,989.1a65.046,65.046,0,0,1,.385,7.07l-.385-.437H77.72l-.467.514h0V989.1l.408.463a46.525,46.525,0,0,1-6.407-.463,36.966,36.966,0,0,1,6.407-.437h.362v7.506h0l-.467.514H70.881v-.437a45.616,45.616,0,0,1,.432-7.147Z" transform="translate(-15.83 -314.408)" fill="#344154"/>
            <path id="Trazado_110063" data-name="Trazado 110063" d="M79.659,987.153a16.309,16.309,0,0,1-2.906,4.7l-1.1,1.427-.3.4-.327-.334c-1.482-1.5-2.463-2.7-2.334-2.879s1.354.733,2.918,2.146h-.63l.98-1.5C77.722,988.734,79.554,986.96,79.659,987.153Z" transform="translate(-15.529 -314.841)" fill="#d9a171"/>
            <path id="Trazado_110064" data-name="Trazado 110064" d="M78.23,978.984c0-.3,9.745-.514,21.755-.514s21.778.218,21.778.514-9.734.514-21.778.514S78.23,979.254,78.23,978.984Z" transform="translate(-14.602 -317.315)" fill="#344154"/>
            <path id="Trazado_110065" data-name="Trazado 110065" d="M68.8,976.676a65.034,65.034,0,0,1,.4,7.07l-.4-.437h6.4l-.467.514h0v-7.044l.4.45a46.386,46.386,0,0,1-6.4-.45,36.713,36.713,0,0,1,6.4-.437h.408v7.507h0c.42-.463-.572.63-.479.514H68.24v-.437a47.147,47.147,0,0,1,.56-7.249Z" transform="translate(-16.27 -317.923)" fill="#344154"/>
            <path id="Trazado_110066" data-name="Trazado 110066" d="M77.128,974.743a15.86,15.86,0,0,1-2.894,4.7l-1.1,1.427-.3.4-.327-.334c-1.494-1.5-2.486-2.687-2.334-2.866s1.331.733,2.906,2.134h-.63l1.05-1.466C75.308,976.362,76.976,974.563,77.128,974.743Z" transform="translate(-15.951 -318.381)" fill="#d9a171"/>
            <path id="Trazado_110067" data-name="Trazado 110067" d="M75.49,966.35c0-.3,9.745-.54,21.767-.54s21.755.244,21.755.54-9.745.514-21.755.514S75.49,966.62,75.49,966.35Z" transform="translate(-15.059 -320.928)" fill="#344154"/>
            <path id="Trazado_110068" data-name="Trazado 110068" d="M66.08,964.078a59.29,59.29,0,0,1,.409,7.057l-.409-.45H72.5l-.467.514h0v-7.005l.408.45a51.178,51.178,0,0,1-6.419-.45,38.369,38.369,0,0,1,6.419-.463h.4V971.2h0l-.467.514H65.52v-.437a49.443,49.443,0,0,1,.56-7.2Z" transform="translate(-16.726 -321.521)" fill="#344154"/>
            <path id="Trazado_110069" data-name="Trazado 110069" d="M74.394,962.1a16.551,16.551,0,0,1-2.906,4.717l-1.062,1.427-.3.373L69.8,968.3c-1.494-1.517-2.463-2.686-2.334-2.866s1.342.733,2.906,2.121h-.63L70.8,966.1C72.562,963.734,74.2,961.973,74.394,962.1Z" transform="translate(-16.403 -321.987)" fill="#d9a171"/>
            <path id="Trazado_110070" data-name="Trazado 110070" d="M68.44,953.854c0-.27,9.745-.514,21.755-.514s21.767.244,21.767.514-9.745.527-21.767.527S68.44,954.188,68.44,953.854Z" transform="translate(-16.236 -324.486)" fill="#344154"/>
            <path id="Trazado_110071" data-name="Trazado 110071" d="M58.981,951.581a61.635,61.635,0,0,1,.408,7.044l-.408-.437h6.407l-.467.514h0v-7.031l.4.437a46.657,46.657,0,0,1-6.419-.437,37.01,37.01,0,0,1,6.419-.45h.432v7.429h0c.408-.45-.572.63-.467.527H58.561v-.45A49.483,49.483,0,0,1,58.981,951.581Z" transform="translate(-17.89 -325.092)" fill="#344154"/>
            <path id="Trazado_110072" data-name="Trazado 110072" d="M67.329,949.623a15.814,15.814,0,0,1-2.906,4.7l-1.1,1.427-.28.4-.35-.334c-1.471-1.5-2.463-2.7-2.334-2.854s1.331.72,2.906,2.121h-.642l1.062-1.465C65.45,951.268,67.143,949.443,67.329,949.623Z" transform="translate(-17.589 -325.55)" fill="#d9a171"/>
            <path id="Trazado_110073" data-name="Trazado 110073" d="M178.23,891.49h5.836l16.059-.115h54.866a17.343,17.343,0,0,1,11.321,2.378,26.192,26.192,0,0,1,8.987,8.882,58.394,58.394,0,0,1,7,20.875c1.284,7.057,2.194,13.844,2.965,20.476,1.6,13.085,2.568,24.949,4.47,34.7a109.52,109.52,0,0,0,6.886,22.018c1.074,2.571,2.066,4.4,2.731,5.681q.455.874.77,1.427a2.507,2.507,0,0,1,.233.514,2.2,2.2,0,0,1-.315-.45l-.852-1.388q-1.585-2.716-2.906-5.6a106.739,106.739,0,0,1-7.294-22.237c-2.019-9.9-3.034-21.633-4.668-34.705-.817-6.53-1.8-13.381-3.023-20.4a57.725,57.725,0,0,0-6.921-20.566,25.281,25.281,0,0,0-8.578-8.561,16.559,16.559,0,0,0-10.784-2.275h0l-54.878-.3-16.059-.18-4.307-.09H178.6Z" transform="translate(-24.956 -342.214)" fill="#344154"/>
            <path id="Trazado_110074" data-name="Trazado 110074" d="M24.2,1059.821a11.037,11.037,0,0,0,1.529-.463,13.666,13.666,0,0,0,4.143-2.25A15.789,15.789,0,0,0,34.6,1050.8a26.911,26.911,0,0,0,1.8-11,62.854,62.854,0,0,0-1.844-14.024,142.03,142.03,0,0,0-5.392-15.835c-1.039-2.828-2.042-5.771-2.941-8.908a61.578,61.578,0,0,1-2.136-9.885,35.08,35.08,0,0,1,3.583-21.312,20.425,20.425,0,0,1,7.925-8.033,15.67,15.67,0,0,1,2.626-1.093c.444-.116.9-.3,1.366-.4l1.424-.193A8.544,8.544,0,0,1,46.62,961.4a29.978,29.978,0,0,1,8.613,8.7A81.494,81.494,0,0,1,61.7,981.4a97.956,97.956,0,0,1,4.96,12.674,56.149,56.149,0,0,1,1.8,6.838c.4,2.378.572,4.73.9,7.108q.858,7.219,2.416,14.306,1.679,7.249,4.027,14.281a34.516,34.516,0,0,0,2.8,6.851,26.2,26.2,0,0,0,4.517,5.733,36.843,36.843,0,0,0,5.7,4.512,38.38,38.38,0,0,0,6.337,3.483,19.221,19.221,0,0,0,7,1.517c2.334,0,4.832-.3,7.189-.514a49.326,49.326,0,0,0,14.367-3.278,54.476,54.476,0,0,0,13.153-7.918,47.206,47.206,0,0,0,10.632-11.864,102.978,102.978,0,0,0,13.107-31.106,131.708,131.708,0,0,0,2.754-15.257c.584-5.141.864-10.283,1.249-15.36a284.99,284.99,0,0,1,3.5-30.052c.9-4.884,2.031-9.666,3.3-14.345a115.328,115.328,0,0,1,4.365-13.7,54,54,0,0,1,6.9-12.121,32.984,32.984,0,0,1,9.85-8.882h0a19.8,19.8,0,0,1,10.5-3.3,14.653,14.653,0,0,1,10.049,4.139,28.493,28.493,0,0,1,6.162,9.422,103.005,103.005,0,0,1,3.676,10.54,241.97,241.97,0,0,1,8.52,41.273c1.681,13.239,2.544,25.707,3.3,37.379s1.8,22.314,4.54,31.659a58.453,58.453,0,0,0,11.391,22.468,34.812,34.812,0,0,0,14.624,10.283,27.341,27.341,0,0,0,10.784,1.581,24.627,24.627,0,0,0,2.8-.372l.957-.142-.934.219a19.306,19.306,0,0,1-2.824.45,26.232,26.232,0,0,1-10.889-1.44,35.028,35.028,0,0,1-14.834-10.283,58.682,58.682,0,0,1-11.671-22.61c-2.731-9.319-3.875-20.1-4.668-31.659s-1.669-24.126-3.373-37.276a243.49,243.49,0,0,0-8.648-41.132,98.454,98.454,0,0,0-3.5-10.36,27.079,27.079,0,0,0-5.941-9.1,13.918,13.918,0,0,0-9.524-3.959,19.041,19.041,0,0,0-10.1,3.188h0a31.452,31.452,0,0,0-9.5,8.612,52.447,52.447,0,0,0-6.758,11.864,110.9,110.9,0,0,0-4.4,13.522c-1.272,4.679-2.393,9.422-3.291,14.268a288.846,288.846,0,0,0-3.5,29.923c-.374,5.141-.654,10.283-1.237,15.424a137.064,137.064,0,0,1-2.766,15.424,104.459,104.459,0,0,1-13.223,31.427,47.691,47.691,0,0,1-10.772,12.147,55.193,55.193,0,0,1-13.375,8.033,51.094,51.094,0,0,1-14.636,3.342c-2.486.193-4.867.476-7.364.488a19.937,19.937,0,0,1-7.189-1.581,44.015,44.015,0,0,1-12.336-8.214,26.111,26.111,0,0,1-4.668-5.925,35.049,35.049,0,0,1-2.871-7.044Q72.683,1029.908,71,1022.6q-1.557-7.128-2.416-14.409a72.508,72.508,0,0,0-7.446-26.337,78.5,78.5,0,0,0-6.361-11.183,29.259,29.259,0,0,0-8.356-8.5c-3.256-2.2-7.189-1.208-10.387.373a19.511,19.511,0,0,0-7.575,7.713,34.352,34.352,0,0,0-3.595,20.836,60.937,60.937,0,0,0,1.961,9.627c.875,3.085,1.8,5.939,2.883,8.869A138.376,138.376,0,0,1,35.1,1025.54a63.338,63.338,0,0,1,1.8,14.139,27.171,27.171,0,0,1-2.007,11.131,16.086,16.086,0,0,1-4.867,6.363,13.7,13.7,0,0,1-4.225,2.172A8.644,8.644,0,0,1,24.2,1059.821Z" transform="translate(-23.712 -342.276)" fill="#344154"/>
            <path id="Trazado_110075" data-name="Trazado 110075" d="M147.775,1016.3s-.128,0-.327-.244-.525-.437-.9-.784a46.694,46.694,0,0,1-3.2-3.406,56.346,56.346,0,0,1-4.47-5.938,40.926,40.926,0,0,1-4.423-9A88.654,88.654,0,0,1,132,984.791c-.63-4.409-1.167-9.139-1.9-14.049a53.8,53.8,0,0,0-4.307-14.756,27.359,27.359,0,0,0-4.318-6.581,9.592,9.592,0,0,0-2.894-2.481,14.4,14.4,0,0,0-3.583-1.182,73.293,73.293,0,0,0-15.173-.848c-4.949,0-9.7.347-14.25.385l-24.159.244H40.681a6.864,6.864,0,0,1-1.541-.1,10.228,10.228,0,0,1,1.541-.116l4.423-.154,16.27-.4,24.148-.463c4.54,0,9.337-.373,14.262-.45a74.281,74.281,0,0,1,15.383.848,14.781,14.781,0,0,1,3.84,1.285,7.2,7.2,0,0,1,1.8,1.209c.49.475.969.951,1.424,1.478a28.371,28.371,0,0,1,4.458,6.825,54.648,54.648,0,0,1,4.342,15.064c.759,4.962,1.167,9.691,1.8,14.139a85.35,85.35,0,0,0,2.334,12.019,40.121,40.121,0,0,0,4.213,9,63.074,63.074,0,0,0,4.318,6.054c1.272,1.556,2.334,2.725,3.046,3.5a7.974,7.974,0,0,1,1.039,1.041Z" transform="translate(-21.133 -327.221)" fill="#344154"/>
            <path id="Trazado_110076" data-name="Trazado 110076" d="M455.71,537.483a13.414,13.414,0,0,1,6.443-11.465,3.752,3.752,0,0,1,2-.617,1.784,1.784,0,0,1,1.657,1.17,2.4,2.4,0,0,1-.583,2.237,16.219,16.219,0,0,1-1.8,1.517,7.521,7.521,0,0,0-2.206,6.825" transform="translate(-13.131 -446.608)" fill="#b78876"/>
            <path id="Trazado_110077" data-name="Trazado 110077" d="M457.034,469.4c-17.12,1.4-29.99,17.785-28.793,36.646,1.646,26.71,1.167,62.983-10.5,85.079-20.051,38.227-50.128,44.988-47.852,121.455s5.392,84.513-8.485,104.269-43.942,9.537-57.06,54.551-3.851,270.057-24.685,293.836c0,0-16.958,17.8-34.686,16.131h99.636a30.836,30.836,0,0,0,22.945-9.872,29.75,29.75,0,0,0,7.9-20.643c0-15.424,4.668-234.375,12.348-253.077s47.852-37.751,53.9-80.863,3.98-112.881,3.933-125.427c0-11.877,2.1-35.181,22.829-62.34,31.512-41.055,27.182-85.94,27.882-101.223s-5.38-61.338-5.38-61.338Z" transform="translate(-48.349 -463.391)" fill="#ebebeb"/>
            <path id="Trazado_110078" data-name="Trazado 110078" d="M404.43,498.783a10,10,0,0,1,7.675-7.614,9.247,9.247,0,0,1,9.505,4.452c2.965,4.743,2.334,11.877,6.267,15.63,2.533,2.391,6.2,2.571,9.535,2.494a139.638,139.638,0,0,0,31.244-4.268l-2.334-36.17s-49.859-4.833-55.928,4.19S404.43,498.783,404.43,498.783Z" transform="translate(-21.701 -461.842)" fill="#e0e0e0"/>
            <path id="Trazado_110079" data-name="Trazado 110079" d="M402.432,519.589c0-8.162,1.669-15.334,3.408-23.252,2.1-9.576,8.17-16.556,15.511-17.8,9.337-1.465,18.452,13.291,18.452,13.291s36.111-5.784,53.279-7.185c-1.26-4.923-10.27-17.622-16.76-19.165a74.421,74.421,0,0,0-19.759-1.17c-11.858.347-24.124.81-34.838,6.427s-21.732,13.8-19.129,44.2" transform="translate(-22.071 -464.1)" fill="#f5f5f5"/>
            <path id="Trazado_110080" data-name="Trazado 110080" d="M469.117,465.926a7.045,7.045,0,0,1-1.8.231l-4.9.424c-4.132.334-9.85.81-16.164,1.542s-11.975,1.619-16.048,2.417l-4.82.964a9.433,9.433,0,0,1-1.786.3,9.577,9.577,0,0,1,1.786-.527c1.167-.321,2.766-.72,4.8-1.17a141.042,141.042,0,0,1,16.048-2.571c6.291-.617,12.021-1.131,16.165-1.362l4.914-.218A10.591,10.591,0,0,1,469.117,465.926Z" transform="translate(-18.497 -463.587)" fill="#344154"/>
            <path id="Trazado_110081" data-name="Trazado 110081" d="M376.556,803.885c0,.3-15.289,3.021-34.138,6.105s-34.313,5.373-34.348,5.141,15.266-3.008,34.138-6.118S376.521,803.6,376.556,803.885Z" transform="translate(-20.243 -367.143)" fill="#344154"/>
            <path id="Trazado_110082" data-name="Trazado 110082" d="M378.837,797.548c0,.283-14.005.617-31.419.733S316,798.229,316,797.972s14.005-.617,31.419-.733S378.837,797.252,378.837,797.548Z" transform="translate(-19.604 -369.045)" fill="#344154"/>
            <path id="Trazado_110083" data-name="Trazado 110083" d="M248.91,1170.853l1.8-.257a33.253,33.253,0,0,0,5-1.131,54.157,54.157,0,0,0,17.507-9.576,64.279,64.279,0,0,0,5.275-4.615,18.118,18.118,0,0,0,3.992-6.709,98.149,98.149,0,0,0,4.318-17.8q3.311-22.351,4.529-44.988c2.1-33.51,2.953-73.523,4.213-117.92.665-22.224,1.331-45.5,3.023-69.667.432-5.938.945-12.083,1.669-18.2a130.793,130.793,0,0,1,3.163-18.317c.9-2.995,1.938-5.938,2.965-8.895l1.926-4.255.969-2.134c.362-.669.77-1.285,1.167-1.979a47.188,47.188,0,0,1,11.729-14.139,65.441,65.441,0,0,1,15.383-9,99.694,99.694,0,0,0,15.523-7.712l1.8-1.285c.549-.463,1.074-.977,1.611-1.452l1.622-1.44,1.4-1.71c.444-.553.934-1.105,1.377-1.671l1.237-1.864a38.838,38.838,0,0,0,2.334-3.779,47.255,47.255,0,0,0,3.746-8.059,50.894,50.894,0,0,0,2.019-8.7,124.249,124.249,0,0,0,.91-17.8c0-5.938-.2-11.877-.373-17.61q-.63-17.43-1.167-34.1c-.152-5.553-.455-11.016-.4-16.453v-8.072c0-2.674.245-5.322.362-7.918.117-5.283.969-10.424,1.529-15.515a128.005,128.005,0,0,1,3.233-14.679A97.077,97.077,0,0,1,385.66,625.74a239.608,239.608,0,0,1,15.056-20.566A186.893,186.893,0,0,0,414,586.254l2.684-4.717c.9-1.555,1.587-3.188,2.334-4.756a85.656,85.656,0,0,0,3.5-9.576,155.505,155.505,0,0,0,5.392-33.638c.572-9.37.56-16.71.525-21.607,0-2.455,0-4.332-.093-5.63a10.573,10.573,0,0,1,0-1.979s.2,2.571.3,7.532.163,12.275-.362,21.646a153.91,153.91,0,0,1-5.369,33.651,89.7,89.7,0,0,1-3.5,9.679c-.77,1.555-1.459,3.239-2.334,4.782s-1.8,3.149-2.673,4.769a190.015,190.015,0,0,1-13.235,19.036,242.929,242.929,0,0,0-15.114,20.566,97.679,97.679,0,0,0-11.228,25.515,131.019,131.019,0,0,0-3.14,14.576c-.56,5.052-1.366,10.155-1.494,15.425-.105,2.571-.315,5.244-.362,7.918s0,5.347,0,8.046c0,5.386.28,10.887.42,16.427q.6,16.71,1.237,34.114c.175,5.8.374,11.671.374,17.622a122.073,122.073,0,0,1-.91,18,51.337,51.337,0,0,1-2.054,8.908,46.066,46.066,0,0,1-3.84,8.252c-.759,1.286-1.529,2.571-2.392,3.856l-1.249,1.864c-.467.617-.98,1.17-1.447,1.761l-1.447,1.761-1.657,1.5c-.56.476-1.1,1.016-1.692,1.465l-1.8,1.285a99.208,99.208,0,0,1-15.639,7.8,64.421,64.421,0,0,0-15.172,8.869,46,46,0,0,0-11.5,13.844c-.373.655-.794,1.285-1.167,1.979l-.945,2.1-1.8,4.2c-1,2.918-2.054,5.836-2.929,8.753a130.112,130.112,0,0,0-3.14,18.15c-.724,6.093-1.249,12.147-1.692,18.188-1.692,24.075-2.334,47.379-3.058,69.577-1.307,44.41-2.229,84.436-4.423,117.971q-1.247,22.717-4.668,45.194a96.93,96.93,0,0,1-4.435,18,18.081,18.081,0,0,1-4.108,6.864,65.231,65.231,0,0,1-5.392,4.6,53.218,53.218,0,0,1-17.612,9.447,28.064,28.064,0,0,1-5.03,1.029Z" transform="translate(-31.971 -452.615)" fill="#344154"/>
            <path id="Trazado_110085" data-name="Trazado 110085" d="M492.622,481.949a3.292,3.292,0,0,1-1,.231l-2.941.476-10.784,1.568-35.655,4.782-2.859.386h-.292l-.14-.257a50.436,50.436,0,0,0-6-8.316,15.452,15.452,0,0,0-7.528-4.743,13.991,13.991,0,0,0-7.82.514,14.4,14.4,0,0,0-5.836,3.959,28.806,28.806,0,0,0-5.38,9.371c-.42,1.285-.723,2.2-.9,2.866a8.764,8.764,0,0,1-.315.99,3.911,3.911,0,0,1,.128-1.041q.31-1.5.759-2.956a27.986,27.986,0,0,1,5.17-9.73,15.256,15.256,0,0,1,6.034-4.267,14.231,14.231,0,0,1,16.223,4.306,49.774,49.774,0,0,1,6.151,8.445l-.455-.206,2.859-.385,35.7-4.486,10.772-1.285,2.953-.3A4.249,4.249,0,0,1,492.622,481.949Z" transform="translate(-21.578 -461.051)" fill="#344154"/>
            <path id="Trazado_110086" data-name="Trazado 110086" d="M462.826,538.667a2.567,2.567,0,0,1-1.471,2.262l-10.784,4.486c-1.646.694-3.851,1.208-4.878-.373a3.3,3.3,0,0,1,.432-3.663,8.048,8.048,0,0,1,3.046-1.979c4.155-1.979,8.7-3.856,12.908-5.758a.555.555,0,0,1,.467,0,.644.644,0,0,1,.326.369.693.693,0,0,1,0,.309Z" transform="translate(-14.867 -444.27)" fill="#b78876"/>
            <path id="Trazado_110087" data-name="Trazado 110087" d="M463.27,540.988a5.168,5.168,0,0,1-2.824,5.8l-10,4.229c-1.657.694-3.863,1.208-4.89-.347a3.281,3.281,0,0,1,.432-3.663,7.685,7.685,0,0,1,3.058-1.98c3.968-1.825,8.3-3.663,12.325-5.488a1.2,1.2,0,0,1,1-.007,1.379,1.379,0,0,1,.712.778,1.011,1.011,0,0,1,.07.27Z" transform="translate(-14.89 -442.607)" fill="#b78876"/>
            <path id="Trazado_110088" data-name="Trazado 110088" d="M461.672,545.271a7.5,7.5,0,0,1-4.1,8.535l-8.333,3.5c-1.657.694-3.863,1.208-4.89-.373a3.324,3.324,0,0,1,.432-3.663,8.1,8.1,0,0,1,3.07-1.979c4.435-1.98,9.337-4.113,13.76-6.157Z" transform="translate(-15.09 -440.978)" fill="#b78876"/>
            <path id="Trazado_110089" data-name="Trazado 110089" d="M429.909,618.253c0,.283-13.13,5.643-29.516,11.993s-29.75,11.3-29.843,11.015,13.13-5.63,29.516-11.992S429.816,617.932,429.909,618.253Z" transform="translate(-27.363 -420.114)" fill="#344154"/>
            <path id="Trazado_110090" data-name="Trazado 110090" d="M420.256,624.41a33.817,33.817,0,0,1-4.785,3.753c-3.011,2.2-7.178,5.141-12.01,8.239s-9.127,5.8-12.325,7.712a30.815,30.815,0,0,1-5.287,2.815,40.916,40.916,0,0,1,4.96-3.445l12.185-8.034,12.138-7.905A37.346,37.346,0,0,1,420.256,624.41Z" transform="translate(-22.246 -418.353)" fill="#344154"/>
          </g>
        </g>
      </g>
    </g>
  </g>
</svg>
