<svg xmlns="http://www.w3.org/2000/svg" width="216.123" height="185.013" viewBox="0 0 216.123 185.013">
  <g id="img15" transform="translate(-887.938 -7887.57)">
    <path id="Trazado_132887" data-name="Trazado 132887" d="M829,485.783c23.391,31.894,25.012,123.963-7.843,148.06s-87.753-28.906-111.138-60.8-15.713-77.273,17.141-101.37S805.611,453.893,829,485.783Z" transform="translate(214.086 7432.646)" fill="#aed3f2"/>
    <path id="Trazado_132888" data-name="Trazado 132888" d="M868.86,525.891c0,44.538-80.164,93.183-124.387,93.183s-91.736-48.645-91.736-93.183,18.658-74.7,83.962-40.927C776.04,505.306,868.86,481.354,868.86,525.891Z" transform="translate(235.201 7432.646)" fill="#d9a171"/>
    <g id="Grupo_78890" data-name="Grupo 78890" transform="translate(-121.512 7438.572)">
      <g id="Grupo_70164" data-name="Grupo 70164" transform="translate(1020.077 449)">
        <rect id="Rectángulo_31121" data-name="Rectángulo 31121" width="184" height="180" transform="translate(0.141 -0.002)" fill="none"/>
      </g>
      <path id="Trazado_139713" data-name="Trazado 139713" d="M1018.748,872.836v-1.358a.567.567,0,0,0-1.135,0v1.358h-1.358a.56.56,0,0,0,0,1.116h1.358v1.358a.56.56,0,1,0,1.12,0v-1.358h1.354a.556.556,0,0,0,.378-.163.548.548,0,0,0-.4-.938Z" transform="translate(151.079 -404.49)" fill="#5e6178"/>
      <path id="Trazado_139714" data-name="Trazado 139714" d="M662.72,827.009v-1.362a.567.567,0,1,0-1.135,0v1.362h-1.358a.567.567,0,1,0,0,1.135h1.358V829.5a.56.56,0,0,0,.56.56.572.572,0,0,0,.378-.163.557.557,0,0,0,.163-.378v-1.354h1.358a.572.572,0,0,0,.378-.163.56.56,0,0,0-.378-.953Z" transform="translate(388.158 -321.074)" fill="#5e6178"/>
      <g id="Grupo_63434" data-name="Grupo 63434" transform="translate(1187.822 490.75)">
        <path id="Trazado_139715" data-name="Trazado 139715" d="M1071.26,935.805h0a.575.575,0,0,1,.571-.575h4.021a.571.571,0,0,1,.571.575h0a.571.571,0,0,1-.571.571h-4.021A.575.575,0,0,1,1071.26,935.805Z" transform="translate(-1071.26 -935.23)" fill="#5e6178"/>
        <path id="Trazado_139716" data-name="Trazado 139716" d="M1071.26,941.755h0a.575.575,0,0,1,.571-.575h4.021a.571.571,0,0,1,.571.575h0a.571.571,0,0,1-.571.571h-4.021A.575.575,0,0,1,1071.26,941.755Z" transform="translate(-1071.26 -938.929)" fill="#5e6178"/>
      </g>
      <g id="Grupo_63435" data-name="Grupo 63435" transform="translate(1041.455 491.859)">
        <path id="Trazado_139717" data-name="Trazado 139717" d="M642.84,793.545h0a.575.575,0,0,1,.575-.575h4.025a.575.575,0,0,1,.575.575h0a.575.575,0,0,1-.575.571h-4.025A.575.575,0,0,1,642.84,793.545Z" transform="translate(-642.84 -792.97)" fill="#5e6178"/>
        <path id="Trazado_139718" data-name="Trazado 139718" d="M642.84,799.5h0a.575.575,0,0,1,.575-.571h4.025a.575.575,0,0,1,.575.571h0a.575.575,0,0,1-.575.59h-4.025a.575.575,0,0,1-.575-.59Z" transform="translate(-642.84 -796.675)" fill="#5e6178"/>
      </g>
      <path id="Trazado_139719" data-name="Trazado 139719" d="M615.78,876.926a1.923,1.923,0,0,1,.2-.855,1.38,1.38,0,0,1,.6-.624,2,2,0,0,1,.957-.216,1.732,1.732,0,0,1,1.279.462,1.891,1.891,0,0,1,0,2.474,1.732,1.732,0,0,1-1.279.462,2,2,0,0,1-.957-.216,1.38,1.38,0,0,1-.6-.628,1.943,1.943,0,0,1-.2-.859Zm1.237,0a1.4,1.4,0,0,0,.178.794.422.422,0,0,0,.666,0,1.865,1.865,0,0,0,0-1.589.428.428,0,0,0-.666,0,1.384,1.384,0,0,0-.178.806Zm4.252-1.706h.931l-3.734,6.9h-.923Zm-.829,5.213a1.968,1.968,0,0,1,.193-.859,1.369,1.369,0,0,1,.6-.624,1.952,1.952,0,0,1,.953-.219,1.745,1.745,0,0,1,1.282.465,1.892,1.892,0,0,1,0,2.474,1.744,1.744,0,0,1-1.282.465,1.953,1.953,0,0,1-.953-.223,1.335,1.335,0,0,1-.6-.624A1.953,1.953,0,0,1,620.44,880.433Zm1.237,0a1.4,1.4,0,0,0,.178.794.428.428,0,0,0,.666,0,1.872,1.872,0,0,0,0-1.592.423.423,0,0,0-.666,0A1.4,1.4,0,0,0,621.677,880.433Z" transform="translate(415.439 -352.248)" fill="#5e6178"/>
      <path id="Trazado_139720" data-name="Trazado 139720" d="M1055.88,1031.068a1.361,1.361,0,0,1,.14-.609,1,1,0,0,1,.427-.447,1.44,1.44,0,0,1,.681-.155,1.239,1.239,0,0,1,.912.329,1.339,1.339,0,0,1,0,1.766,1.24,1.24,0,0,1-.912.329,1.437,1.437,0,0,1-.681-.155.974.974,0,0,1-.427-.446A1.371,1.371,0,0,1,1055.88,1031.068Zm.881,0a1.007,1.007,0,0,0,.129.567.272.272,0,0,0,.238.114.264.264,0,0,0,.235-.114,1.349,1.349,0,0,0,0-1.135.265.265,0,0,0-.235-.114.272.272,0,0,0-.238.114,1,1,0,0,0-.128.575Zm3.026-1.218h.677l-2.648,4.917h-.658Zm-.59,3.7a1.4,1.4,0,0,1,.14-.609.977.977,0,0,1,.427-.447,1.389,1.389,0,0,1,.681-.155,1.252,1.252,0,0,1,.915.329,1.339,1.339,0,0,1,0,1.767,1.251,1.251,0,0,1-.915.329,1.435,1.435,0,0,1-.681-.155.977.977,0,0,1-.428-.447,1.428,1.428,0,0,1-.136-.605Zm.885,0a1,1,0,0,0,.125.568.272.272,0,0,0,.238.114.281.281,0,0,0,.239-.114,1.352,1.352,0,0,0,0-1.135.281.281,0,0,0-.239-.114.271.271,0,0,0-.238.114,1,1,0,0,0-.121.583Z" transform="translate(126.124 -503.308)" fill="#5e6178"/>
      <path id="Trazado_139766" data-name="Trazado 139766" d="M1042.443,899.5a1.4,1.4,0,1,1,1.4-1.4A1.4,1.4,0,0,1,1042.443,899.5Zm0-2.311a.908.908,0,1,0,.908.908A.908.908,0,0,0,1042.443,897.185Z" transform="translate(135.351 -420.518)" fill="#5e6178"/>
      <path id="Trazado_139767" data-name="Trazado 139767" d="M994.9,1014.277a1.4,1.4,0,1,1,1.4-1.4A1.4,1.4,0,0,1,994.9,1014.277Zm0-2.311a.908.908,0,1,0,.908.908A.908.908,0,0,0,994.9,1011.966Z" transform="translate(164.908 -491.88)" fill="#5e6178"/>
      <path id="Trazado_139768" data-name="Trazado 139768" d="M1050.693,974.317a1.4,1.4,0,1,1,1.4-1.4A1.4,1.4,0,0,1,1050.693,974.317Zm0-2.307a.9.9,0,1,0,.643.265A.908.908,0,0,0,1050.693,972.009Z" transform="translate(130.221 -467.036)" fill="#5e6178"/>
      <path id="Trazado_139769" data-name="Trazado 139769" d="M618.133,837.287a1.4,1.4,0,1,1,1.4-1.4A1.4,1.4,0,0,1,618.133,837.287Zm0-2.311a.908.908,0,1,0,.908.908A.908.908,0,0,0,618.133,834.976Z" transform="translate(414.848 -326.919)" fill="#5e6178"/>
      <path id="Trazado_139770" data-name="Trazado 139770" d="M684.133,764.5a1.4,1.4,0,1,1,1.4-1.4A1.4,1.4,0,0,1,684.133,764.5Zm0-2.311a.9.9,0,1,0,.643.265.908.908,0,0,0-.643-.265Z" transform="translate(373.814 -281.663)" fill="#5e6178"/>
      <g id="Grupo_70291" data-name="Grupo 70291" transform="translate(1026.373 544.943)">
        <rect id="Rectángulo_14921" data-name="Rectángulo 14921" width="52.712" height="76.055" rx="13.93" fill="#a37955"/>
        <rect id="Rectángulo_14922" data-name="Rectángulo 14922" width="40.286" height="14.685" rx="4.98" transform="translate(6.215 6.4)" fill="#6595bf"/>
        <path id="Trazado_139672" data-name="Trazado 139672" d="M649.6,989.24v45.934a5.3,5.3,0,0,1-.412,2.05h0a5.2,5.2,0,0,1-.344.681h0a5.3,5.3,0,0,1-.605.806h0c-.053.06-.114.125-.174.181a5.22,5.22,0,0,1-3.722,1.543H601.87a1.718,1.718,0,0,1-.2,0,.791.791,0,0,1-.1,0,1.993,1.993,0,0,1-.212-.026l-.227-.038h-.083l-.2-.045h0c-.083-.023-.163-.042-.242-.072-.167-.049-.325-.11-.484-.174a4.315,4.315,0,0,1-.465-.223l-.219-.125-.219-.144-.193-.136-.208-.163-.189-.166-.242-.231a1.664,1.664,0,0,1-.132-.147,5.272,5.272,0,0,1-.791-1.135c-.026-.053-.053-.106-.076-.159s-.057-.125-.079-.185a1.887,1.887,0,0,1-.076-.186,5.231,5.231,0,0,1-.333-1.842v-46Z" transform="translate(-596.889 -964.387)" fill="#d9a171"/>
        <path id="Trazado_139673" data-name="Trazado 139673" d="M730.562,929.335v65.513a5.3,5.3,0,0,1-.412,2.05,5.3,5.3,0,0,0,.412-2.05V948.915h-3.109v-22.7a5.209,5.209,0,0,0-.333-1.838A5.269,5.269,0,0,1,730.562,929.335Z" transform="translate(-677.85 -924.062)" fill="#69492c"/>
        <path id="Trazado_139674" data-name="Trazado 139674" d="M650.148,989.24v45.934a5.3,5.3,0,0,1-.412,2.05h0a4.8,4.8,0,0,1-.344.681h0a5.049,5.049,0,0,1-.605.806h0c-.053.06-.114.125-.174.181a5.22,5.22,0,0,1-3.722,1.543H602.418a1.716,1.716,0,0,1-.2,0,.793.793,0,0,1-.1,0,1.993,1.993,0,0,1-.212-.026l-.227-.038h-.083l-.2-.045h0c-.083-.023-.163-.042-.242-.072a3.668,3.668,0,0,1-.484-.174,4.326,4.326,0,0,1-.465-.223l-.219-.125-.219-.144-.193-.136-.208-.163-.189-.166-.242-.231a1.664,1.664,0,0,1-.132-.147,5.267,5.267,0,0,1-.791-1.135c-.026-.053-.053-.106-.076-.159s-.057-.125-.079-.185a1.887,1.887,0,0,1-.076-.186,5.234,5.234,0,0,0,1.842.333h42.158a5.273,5.273,0,0,0,5.258-5.338V989.24Z" transform="translate(-597.436 -964.387)" fill="#69492c"/>
        <g id="Grupo_63411" data-name="Grupo 63411" transform="translate(5.837 28.616)">
          <path id="Trazado_139675" data-name="Trazado 139675" d="M618.553,1004.626H615.02a2.72,2.72,0,0,1-2.72-2.716h0a2.72,2.72,0,0,1,2.72-2.72h3.533a2.72,2.72,0,0,1,2.716,2.72h0A2.72,2.72,0,0,1,618.553,1004.626Z" transform="translate(-612.3 -999.19)" fill="#6595bf"/>
          <path id="Trazado_139676" data-name="Trazado 139676" d="M647.569,1004.626h-3.533a2.716,2.716,0,0,1-2.716-2.716h0a2.716,2.716,0,0,1,2.716-2.72h3.533a2.72,2.72,0,0,1,2.72,2.72h0A2.72,2.72,0,0,1,647.569,1004.626Z" transform="translate(-630.343 -999.19)" fill="#6595bf"/>
          <path id="Trazado_139677" data-name="Trazado 139677" d="M676.583,1004.626H673.05a2.72,2.72,0,0,1-2.72-2.716h0a2.72,2.72,0,0,1,2.72-2.72h3.533a2.716,2.716,0,0,1,2.716,2.72h0A2.716,2.716,0,0,1,676.583,1004.626Z" transform="translate(-648.379 -999.19)" fill="#6595bf"/>
          <rect id="Rectángulo_14923" data-name="Rectángulo 14923" width="7.338" height="13.86" rx="3.669" transform="translate(33.428)" fill="#6595bf"/>
          <rect id="Rectángulo_14924" data-name="Rectángulo 14924" width="7.338" height="7.611" rx="3.669" transform="translate(33.428 15.18)" fill="#6595bf"/>
          <rect id="Rectángulo_14925" data-name="Rectángulo 14925" width="7.338" height="7.611" rx="3.669" transform="translate(33.428 23.623)" fill="#6595bf"/>
          <rect id="Rectángulo_14926" data-name="Rectángulo 14926" width="7.338" height="7.611" rx="3.669" transform="translate(33.428 32.63)" fill="#6595bf"/>
        </g>
        <rect id="Rectángulo_14927" data-name="Rectángulo 14927" width="8.969" height="8.969" rx="4.484" transform="translate(6.211 37.059)" fill="#6595bf"/>
        <rect id="Rectángulo_14928" data-name="Rectángulo 14928" width="8.969" height="8.969" rx="4.484" transform="translate(16.905 37.059)" fill="#6595bf"/>
        <rect id="Rectángulo_14929" data-name="Rectángulo 14929" width="8.969" height="8.969" rx="4.484" transform="translate(27.602 37.059)" fill="#6595bf"/>
        <rect id="Rectángulo_14930" data-name="Rectángulo 14930" width="8.969" height="8.969" rx="4.484" transform="translate(6.211 49.164)" fill="#6595bf"/>
        <rect id="Rectángulo_14931" data-name="Rectángulo 14931" width="8.969" height="8.969" rx="4.484" transform="translate(16.905 49.164)" fill="#6595bf"/>
        <rect id="Rectángulo_14932" data-name="Rectángulo 14932" width="8.969" height="8.969" rx="4.484" transform="translate(27.602 49.164)" fill="#6595bf"/>
        <rect id="Rectángulo_14933" data-name="Rectángulo 14933" width="8.969" height="8.969" rx="4.484" transform="translate(6.211 61.265)" fill="#6595bf"/>
        <rect id="Rectángulo_14934" data-name="Rectángulo 14934" width="8.969" height="8.969" rx="4.484" transform="translate(16.905 61.265)" fill="#6595bf"/>
        <rect id="Rectángulo_14935" data-name="Rectángulo 14935" width="8.969" height="8.969" rx="4.484" transform="translate(27.602 61.265)" fill="#6595bf"/>
        <path id="Trazado_139678" data-name="Trazado 139678" d="M697.446,930.77h-9.411a1.135,1.135,0,0,1-1.135-1.135h0a1.135,1.135,0,0,1,1.135-1.135h9.411a1.135,1.135,0,0,1,1.135,1.135h0A1.135,1.135,0,0,1,697.446,930.77Z" transform="translate(-652.844 -926.624)" fill="#6595bf"/>
        <rect id="Rectángulo_14936" data-name="Rectángulo 14936" width="49.493" height="1.888" transform="translate(0.125 24.852)" fill="#e1b48d"/>
        <g id="Grupo_63412" data-name="Grupo 63412" transform="translate(11.969 10.27)">
          <path id="Trazado_139679" data-name="Trazado 139679" d="M632.584,950.7v7.236h-2v-4.74a6.413,6.413,0,0,1-.942.6,7.443,7.443,0,0,1-1.135.435v-1.619a4.89,4.89,0,0,0,1.57-.783,3.213,3.213,0,0,0,.874-1.135Z" transform="translate(-628.51 -950.69)" fill="#839eb6"/>
          <path id="Trazado_139680" data-name="Trazado 139680" d="M650.511,957.94H644.58a3.719,3.719,0,0,1,.62-1.649,8.343,8.343,0,0,1,1.937-1.831,5.608,5.608,0,0,0,1.112-.98,1.089,1.089,0,0,0,.242-.635.756.756,0,0,0-.238-.556.847.847,0,0,0-.605-.231.832.832,0,0,0-.617.238,1.454,1.454,0,0,0-.325.84l-1.978-.159a3.126,3.126,0,0,1,.428-1.305,1.985,1.985,0,0,1,.874-.719,3.981,3.981,0,0,1,1.566-.25,4.4,4.4,0,0,1,1.623.238,1.964,1.964,0,0,1,.912.73,1.917,1.917,0,0,1,.333,1.1,2.27,2.27,0,0,1-.378,1.245,5.328,5.328,0,0,1-1.388,1.3c-.4.272-.662.465-.8.575s-.291.253-.473.431h3.087Z" transform="translate(-638.501 -950.696)" fill="#839eb6"/>
          <path id="Trazado_139681" data-name="Trazado 139681" d="M664.333,952.9l-1.869-.333a2.339,2.339,0,0,1,.9-1.358,3.178,3.178,0,0,1,1.891-.477,3.127,3.127,0,0,1,2.016.522,1.63,1.63,0,0,1,.62,1.305,1.43,1.43,0,0,1-.253.832,2.165,2.165,0,0,1-.757.658,2.232,2.232,0,0,1,.628.238,1.512,1.512,0,0,1,.552.575,1.718,1.718,0,0,1,.2.851,2.4,2.4,0,0,1-.356,1.169,2.171,2.171,0,0,1-.938.878,3.578,3.578,0,0,1-1.6.31,4.188,4.188,0,0,1-1.513-.231,2.3,2.3,0,0,1-.923-.666,3.065,3.065,0,0,1-.556-1.1l1.975-.261a1.538,1.538,0,0,0,.378.825.867.867,0,0,0,.624.231.852.852,0,0,0,.662-.291,1.279,1.279,0,0,0,0-1.543.9.9,0,0,0-.692-.272,2.612,2.612,0,0,0-.643.117l.1-1.411a2.041,2.041,0,0,0,.257.023.915.915,0,0,0,.651-.246.8.8,0,0,0,.257-.586.7.7,0,0,0-.193-.522.722.722,0,0,0-.533-.193.779.779,0,0,0-.567.212A1.266,1.266,0,0,0,664.333,952.9Z" transform="translate(-649.562 -950.71)" fill="#839eb6"/>
          <path id="Trazado_139682" data-name="Trazado 139682" d="M683.075,956.619H679.47v-1.638l3.605-4.271H684.8v4.373h.893v1.536H684.8v1.328h-1.721Zm0-1.536v-2.239l-1.891,2.239Z" transform="translate(-660.193 -950.702)" fill="#839eb6"/>
          <path id="Trazado_139683" data-name="Trazado 139683" d="M698.19,951h4.694v1.577H699.7l-.17,1.071a3.328,3.328,0,0,1,.654-.235,2.655,2.655,0,0,1,.639-.076,2.383,2.383,0,0,1,1.732.643,2.171,2.171,0,0,1,.662,1.627,2.761,2.761,0,0,1-.34,1.324,2.32,2.32,0,0,1-.972.972,3.4,3.4,0,0,1-1.608.337,4.671,4.671,0,0,1-1.207-.136,2.388,2.388,0,0,1-1.426-.995,3.248,3.248,0,0,1-.378-.836l2-.219a1.213,1.213,0,0,0,.34.73.9.9,0,0,0,.635.25.854.854,0,0,0,.681-.31,1.4,1.4,0,0,0,.269-.934,1.346,1.346,0,0,0-.272-.934.927.927,0,0,0-.722-.3,1.161,1.161,0,0,0-.552.14,1.576,1.576,0,0,0-.435.378l-1.687-.242Z" transform="translate(-671.272 -950.883)" fill="#839eb6"/>
        </g>
      </g>
      <g id="Grupo_70292" data-name="Grupo 70292" transform="translate(1073.717 460.86)">
        <g id="Grupo_63416" data-name="Grupo 63416">
          <path id="Trazado_139688" data-name="Trazado 139688" d="M828.933,738.868h-9.457a9.608,9.608,0,0,0-19.216,0H790.8a2.788,2.788,0,0,0-2.8,2.777v7.9a1.263,1.263,0,0,0,1.263,1.264h41.194a1.264,1.264,0,0,0,1.263-1.264v-7.9A2.788,2.788,0,0,0,828.933,738.868Zm-19.065-1.854a2.27,2.27,0,1,1,2.27-2.27A2.269,2.269,0,0,1,809.868,737.015Z" transform="translate(-762.096 -729.26)" fill="#344154"/>
          <rect id="Rectángulo_14941" data-name="Rectángulo 14941" width="95.548" height="136.556" rx="8.45" transform="translate(0 12.888)" fill="#86603f"/>
          <rect id="Rectángulo_14942" data-name="Rectángulo 14942" width="85.913" height="126.021" rx="6.09" transform="translate(4.233 19.144)" fill="#6595bf"/>
          <path id="Trazado_139689" data-name="Trazado 139689" d="M830.8,762v6.919a2.338,2.338,0,0,1-2.334,2.338H792.623a2.338,2.338,0,0,1-2.334-2.338V762h-1.2v7.142a3.31,3.31,0,0,0,3.31,3.31h36.291a3.31,3.31,0,0,0,3.31-3.31V762Z" transform="translate(-762.774 -749.615)" fill="#344154"/>
          <rect id="Rectángulo_14943" data-name="Rectángulo 14943" width="60.175" height="4.509" rx="2.254" transform="translate(17.684 11.412)" fill="#344154"/>
        </g>
        <g id="Grupo_63418" data-name="Grupo 63418" transform="translate(11.284 44.398)">
          <g id="Grupo_63417" data-name="Grupo 63417" transform="translate(3.896 16.523)">
            <rect id="Rectángulo_14944" data-name="Rectángulo 14944" width="3.715" height="4.097" transform="translate(0 11.689)" fill="#e8c7aa"/>
            <rect id="Rectángulo_14945" data-name="Rectángulo 14945" width="3.715" height="12.332" transform="translate(6.627 3.454)" fill="#e8c7aa"/>
            <rect id="Rectángulo_14946" data-name="Rectángulo 14946" width="3.715" height="7.705" transform="translate(13.255 8.076)" fill="#e8c7aa"/>
            <rect id="Rectángulo_14947" data-name="Rectángulo 14947" width="3.715" height="15.785" transform="translate(19.882)" fill="#e8c7aa"/>
          </g>
          <path id="Trazado_139690" data-name="Trazado 139690" d="M1121.265,1093.04v-33.75h-.915v34.661h32.444v-.911Z" transform="translate(-1120.35 -1059.29)" fill="#aed3f2"/>
          <path id="Trazado_139691" data-name="Trazado 139691" d="M781.482,871.243l-1.982-.306-1.982-.307c-.117,0-.174.114-.106.238l.817,1.49L774.2,874.53l-1.248-1.177-.378-.352-.462.227-5.754,2.871-1.43-.791-.3-.163-.265.1-6.48,2.481a.163.163,0,0,0-.1.189.166.166,0,0,0,.2.132l1.324-.272,5.148-1.059,1.54.844.34.182.344-.17,5.64-2.811,1.26,1.188.378.378.469-.25,4.505-2.425.28.507.545.991c.061.106.178.14.238.076a.057.057,0,0,0,.023-.034l.809-1.831.757-1.733.042-.1a.219.219,0,0,0-.14-.291Z" transform="translate(-754.59 -861.552)" fill="#aed3f2"/>
        </g>
        <g id="Grupo_63420" data-name="Grupo 63420" transform="translate(53.189 49.156)">
          <rect id="Rectángulo_14948" data-name="Rectángulo 14948" width="4.592" height="4.592" rx="2.296" fill="#aed3f2"/>
          <g id="Grupo_63419" data-name="Grupo 63419" transform="translate(6.502 0.809)">
            <path id="Trazado_139692" data-name="Trazado 139692" d="M899.7,861.94H877.615a.3.3,0,0,1-.3-.3h0a.3.3,0,0,1,.3-.3H899.7a.3.3,0,0,1,.3.3h0a.3.3,0,0,1-.3.3Z" transform="translate(-877.32 -861.35)" fill="#aed3f2"/>
            <path id="Trazado_139693" data-name="Trazado 139693" d="M883.433,868.25h-5.818a.3.3,0,0,1-.3-.3h0a.3.3,0,0,1,.3-.3h5.818a.3.3,0,0,1,.3.3h0A.3.3,0,0,1,883.433,868.25Z" transform="translate(-877.32 -865.273)" fill="#aed3f2"/>
            <path id="Trazado_139694" data-name="Trazado 139694" d="M910.133,868.25H899.405a.3.3,0,0,1-.3-.3h0a.3.3,0,0,1,.3-.3h10.728a.295.295,0,0,1,.3.3h0a.3.3,0,0,1-.3.3Z" transform="translate(-890.867 -865.273)" fill="#aed3f2"/>
          </g>
        </g>
        <g id="Grupo_63422" data-name="Grupo 63422" transform="translate(53.189 59.43)">
          <rect id="Rectángulo_14949" data-name="Rectángulo 14949" width="4.592" height="4.592" rx="2.296" fill="#aed3f2"/>
          <g id="Grupo_63421" data-name="Grupo 63421" transform="translate(6.502 0.809)">
            <path id="Trazado_139695" data-name="Trazado 139695" d="M899.7,889.1H877.615a.3.3,0,0,1-.3-.3h0a.3.3,0,0,1,.3-.3H899.7a.3.3,0,0,1,.3.3h0a.3.3,0,0,1-.3.3Z" transform="translate(-877.32 -888.51)" fill="#aed3f2"/>
            <path id="Trazado_139696" data-name="Trazado 139696" d="M883.433,895.41h-5.818a.3.3,0,0,1-.3-.3h0a.3.3,0,0,1,.3-.3h5.818a.3.3,0,0,1,.3.3h0A.3.3,0,0,1,883.433,895.41Z" transform="translate(-877.32 -892.433)" fill="#aed3f2"/>
            <path id="Trazado_139697" data-name="Trazado 139697" d="M910.133,895.41H899.405a.3.3,0,0,1-.3-.3h0a.3.3,0,0,1,.3-.3h10.728a.295.295,0,0,1,.3.3h0a.3.3,0,0,1-.3.3Z" transform="translate(-890.867 -892.433)" fill="#aed3f2"/>
          </g>
        </g>
        <g id="Grupo_63424" data-name="Grupo 63424" transform="translate(53.189 69.704)">
          <rect id="Rectángulo_14950" data-name="Rectángulo 14950" width="4.592" height="4.592" rx="2.296" fill="#aed3f2"/>
          <g id="Grupo_63423" data-name="Grupo 63423" transform="translate(6.502 0.81)">
            <path id="Trazado_139698" data-name="Trazado 139698" d="M899.7,916.264H877.615a.3.3,0,0,1-.3-.3h0a.3.3,0,0,1,.3-.3H899.7a.3.3,0,0,1,.295.3h0a.3.3,0,0,1-.3.3Z" transform="translate(-877.32 -915.67)" fill="#aed3f2"/>
            <path id="Trazado_139699" data-name="Trazado 139699" d="M883.433,922.57h-5.818a.3.3,0,0,1-.3-.3h0a.3.3,0,0,1,.3-.3h5.818a.3.3,0,0,1,.3.3h0A.3.3,0,0,1,883.433,922.57Z" transform="translate(-877.32 -919.593)" fill="#aed3f2"/>
            <path id="Trazado_139700" data-name="Trazado 139700" d="M910.133,922.57H899.405a.3.3,0,0,1-.3-.3h0a.3.3,0,0,1,.3-.3h10.728a.295.295,0,0,1,.3.3h0a.3.3,0,0,1-.3.3Z" transform="translate(-890.867 -919.593)" fill="#aed3f2"/>
          </g>
        </g>
        <g id="Grupo_63425" data-name="Grupo 63425" transform="translate(13.266 85.274)">
          <rect id="Rectángulo_14951" data-name="Rectángulo 14951" width="17.926" height="2.916" rx="1.458" fill="#aed3f2"/>
          <rect id="Rectángulo_14952" data-name="Rectángulo 14952" width="12.562" height="2.916" rx="1.458" transform="translate(37.248)" fill="#aed3f2"/>
          <rect id="Rectángulo_14953" data-name="Rectángulo 14953" width="12.562" height="2.916" rx="1.458" transform="translate(54.305)" fill="#aed3f2"/>
          <rect id="Rectángulo_14954" data-name="Rectángulo 14954" width="9.234" height="2.916" rx="1.458" transform="translate(21.951)" fill="#aed3f2"/>
        </g>
        <g id="Grupo_63426" data-name="Grupo 63426" transform="translate(13.266 91.107)">
          <rect id="Rectángulo_14955" data-name="Rectángulo 14955" width="17.926" height="2.916" rx="1.458" fill="#bedcf5"/>
          <rect id="Rectángulo_14956" data-name="Rectángulo 14956" width="12.562" height="2.916" rx="1.458" transform="translate(37.248)" fill="#bedcf5"/>
          <rect id="Rectángulo_14957" data-name="Rectángulo 14957" width="12.562" height="2.916" rx="1.458" transform="translate(54.305)" fill="#e8c7aa"/>
          <rect id="Rectángulo_14958" data-name="Rectángulo 14958" width="9.234" height="2.916" rx="1.458" transform="translate(21.951)" fill="#aed3f2"/>
        </g>
        <g id="Grupo_63427" data-name="Grupo 63427" transform="translate(13.266 96.94)">
          <rect id="Rectángulo_14959" data-name="Rectángulo 14959" width="17.926" height="2.916" rx="1.458" fill="#bedcf5"/>
          <rect id="Rectángulo_14960" data-name="Rectángulo 14960" width="12.562" height="2.916" rx="1.458" transform="translate(37.248)" fill="#aed3f2"/>
          <rect id="Rectángulo_14961" data-name="Rectángulo 14961" width="12.562" height="2.916" rx="1.458" transform="translate(54.305)" fill="#e8c7aa"/>
          <rect id="Rectángulo_14962" data-name="Rectángulo 14962" width="9.234" height="2.916" rx="1.458" transform="translate(21.951)" fill="#e8c7aa"/>
        </g>
        <g id="Grupo_63428" data-name="Grupo 63428" transform="translate(13.266 102.773)">
          <rect id="Rectángulo_14963" data-name="Rectángulo 14963" width="17.926" height="2.916" rx="1.458" fill="#aed3f2"/>
          <rect id="Rectángulo_14964" data-name="Rectángulo 14964" width="12.562" height="2.916" rx="1.458" transform="translate(37.248)" fill="#aed3f2"/>
          <rect id="Rectángulo_14965" data-name="Rectángulo 14965" width="12.562" height="2.916" rx="1.458" transform="translate(54.305)" fill="#aed3f2"/>
          <rect id="Rectángulo_14966" data-name="Rectángulo 14966" width="9.234" height="2.916" rx="1.458" transform="translate(21.951)" fill="#bedcf5"/>
        </g>
        <g id="Grupo_63429" data-name="Grupo 63429" transform="translate(13.266 108.602)">
          <rect id="Rectángulo_14967" data-name="Rectángulo 14967" width="17.926" height="2.916" rx="1.458" fill="#e8c7aa"/>
          <rect id="Rectángulo_14968" data-name="Rectángulo 14968" width="12.562" height="2.916" rx="1.458" transform="translate(37.248)" fill="#bedcf5"/>
          <rect id="Rectángulo_14969" data-name="Rectángulo 14969" width="12.562" height="2.916" rx="1.458" transform="translate(54.305)" fill="#aed3f2"/>
          <rect id="Rectángulo_14970" data-name="Rectángulo 14970" width="9.234" height="2.916" rx="1.458" transform="translate(21.951)" fill="#e8c7aa"/>
        </g>
        <g id="Grupo_63432" data-name="Grupo 63432" transform="translate(13.266 118.176)">
          <rect id="Rectángulo_14971" data-name="Rectángulo 14971" width="8.995" height="8.144" rx="3.36" fill="#aed3f2"/>
          <rect id="Rectángulo_14972" data-name="Rectángulo 14972" width="8.995" height="8.144" rx="3.36" transform="translate(0 11.666)" fill="#aed3f2"/>
          <g id="Grupo_63430" data-name="Grupo 63430" transform="translate(12.561 2.561)">
            <path id="Trazado_139701" data-name="Trazado 139701" d="M819.9,1049.348H788.177a.427.427,0,0,1-.378-.454h0a.427.427,0,0,1,.378-.454H819.9a.427.427,0,0,1,.378.454h0A.427.427,0,0,1,819.9,1049.348Z" transform="translate(-787.797 -1048.44)" fill="#aed3f2"/>
            <path id="Trazado_139702" data-name="Trazado 139702" d="M806.742,1058.368H788.206a.427.427,0,0,1-.378-.454h0a.424.424,0,0,1,.378-.454h18.535a.423.423,0,0,1,.378.454h0A.427.427,0,0,1,806.742,1058.368Z" transform="translate(-787.816 -1054.048)" fill="#aed3f2"/>
            <path id="Trazado_139703" data-name="Trazado 139703" d="M868.7,1058.368H845.666a.428.428,0,0,1-.378-.454h0a.423.423,0,0,1,.378-.454H868.7a.423.423,0,0,1,.378.454h0A.428.428,0,0,1,868.7,1058.368Z" transform="translate(-823.54 -1054.048)" fill="#aed3f2"/>
            <path id="Trazado_139704" data-name="Trazado 139704" d="M920.063,1058.368H914.2a.427.427,0,0,1-.378-.454h0a.423.423,0,0,1,.378-.454h5.867a.423.423,0,0,1,.378.454h0A.427.427,0,0,1,920.063,1058.368Z" transform="translate(-866.147 -1054.048)" fill="#aed3f2"/>
            <path id="Trazado_139705" data-name="Trazado 139705" d="M898.888,1049.348H880.137a.428.428,0,0,1-.378-.454h0a.427.427,0,0,1,.378-.454h18.751a.427.427,0,0,1,.378.454h0A.427.427,0,0,1,898.888,1049.348Z" transform="translate(-844.971 -1048.44)" fill="#aed3f2"/>
          </g>
          <g id="Grupo_63431" data-name="Grupo 63431" transform="translate(12.561 13.591)">
            <path id="Trazado_139706" data-name="Trazado 139706" d="M819.9,1078.508H788.176a.424.424,0,0,1-.378-.454h0a.427.427,0,0,1,.378-.454H819.9a.428.428,0,0,1,.378.454h0A.424.424,0,0,1,819.9,1078.508Z" transform="translate(-787.797 -1077.6)" fill="#aed3f2"/>
            <path id="Trazado_139707" data-name="Trazado 139707" d="M806.742,1087.508H788.207a.428.428,0,0,1-.378-.454h0a.427.427,0,0,1,.378-.454h18.535a.427.427,0,0,1,.378.454h0A.427.427,0,0,1,806.742,1087.508Z" transform="translate(-787.816 -1083.196)" fill="#aed3f2"/>
            <path id="Trazado_139708" data-name="Trazado 139708" d="M868.7,1087.508H845.667a.427.427,0,0,1-.378-.454h0a.427.427,0,0,1,.378-.454H868.7a.427.427,0,0,1,.378.454h0A.427.427,0,0,1,868.7,1087.508Z" transform="translate(-823.54 -1083.196)" fill="#aed3f2"/>
            <path id="Trazado_139709" data-name="Trazado 139709" d="M920.064,1087.508H914.2a.427.427,0,0,1-.378-.454h0a.427.427,0,0,1,.378-.454h5.867a.427.427,0,0,1,.378.454h0A.427.427,0,0,1,920.064,1087.508Z" transform="translate(-866.147 -1083.196)" fill="#aed3f2"/>
            <path id="Trazado_139710" data-name="Trazado 139710" d="M898.887,1078.508H880.136a.424.424,0,0,1-.378-.454h0a.427.427,0,0,1,.378-.454h18.751a.427.427,0,0,1,.378.454h0A.424.424,0,0,1,898.887,1078.508Z" transform="translate(-844.971 -1077.6)" fill="#aed3f2"/>
          </g>
        </g>
        <path id="Trazado_139711" data-name="Trazado 139711" d="M763.9,1047.7l-1.8,2.5-1.248-1.18-.757.957,2.118,1.411q1.358-1.452,2.716-2.9Z" transform="translate(-744.744 -927.243)" fill="#6595bf"/>
        <path id="Trazado_139712" data-name="Trazado 139712" d="M764.409,1078.39l-1.8,2.5-1.248-1.177-.757.957,2.118,1.407,2.716-2.9C765.09,1078.92,764.75,1078.655,764.409,1078.39Z" transform="translate(-745.061 -946.324)" fill="#6595bf"/>
      </g>
      <g id="Grupo_70293" data-name="Grupo 70293" transform="translate(1167.892 507.259)">
        <rect id="Rectángulo_14937" data-name="Rectángulo 14937" width="8.878" height="103.223" transform="translate(33.381 109.129) rotate(166.12)" fill="#ffda99"/>
        <path id="Trazado_139684" data-name="Trazado 139684" d="M1342.06,1047.6l.866-5.171.375-2.224.605-3.62,2.224,2.92,1.241,1.627,3.3,4.338Z" transform="translate(-1342.032 -1036.58)" fill="#ffcbc7"/>
        <path id="Trazado_139685" data-name="Trazado 139685" d="M.59,0h7.7a.586.586,0,0,1,.586.586V8.129H0V.586A.586.586,0,0,1,.586,0Z" transform="translate(33.971 111.537) rotate(166.12)" fill="#aed3f2"/>
        <g id="Grupo_63414" data-name="Grupo 63414" transform="translate(1.421 9.193)">
          <rect id="Rectángulo_14938" data-name="Rectángulo 14938" width="0.711" height="91.909" transform="translate(5.172 0.171) rotate(-13.88)" fill="#f7c777"/>
          <rect id="Rectángulo_14939" data-name="Rectángulo 14939" width="0.711" height="91.909" transform="matrix(0.97, -0.24, 0.24, 0.97, 2.315, 0.508)" fill="#f7c777"/>
          <rect id="Rectángulo_14940" data-name="Rectángulo 14940" width="0.711" height="91.909" transform="translate(0 1.446) rotate(-13.88)" fill="#f7c777"/>
        </g>
        <path id="Trazado_139686" data-name="Trazado 139686" d="M1027.982,1086.155a.885.885,0,0,0,.9.67l.178.722a.881.881,0,0,0,.416,1.679h0l.174-.042h0l8.273-2.043h0l.17-.045h0a.885.885,0,0,0-.416-1.683l-.177-.719a.885.885,0,0,0-.416-1.683l-.177-.719a.885.885,0,0,0-.413-1.683h0l-8.617,2.126h0a.882.882,0,0,0,.416,1.68l.178.722a.889.889,0,0,0-.484,1.018Z" transform="translate(-1006.037 -983.511)" fill="#344154"/>
        <path id="Trazado_139687" data-name="Trazado 139687" d="M973.35,829.768l.378-2.228.605-3.62,2.224,2.92,1.241,1.626a8.925,8.925,0,0,1-4.445,1.3Z" transform="translate(-972.456 -823.92)" fill="#344154"/>
      </g>
    </g>
  </g>
</svg>
