<svg xmlns="http://www.w3.org/2000/svg" xmlns:xlink="http://www.w3.org/1999/xlink" width="410" height="180" viewBox="0 0 410 180">
  <defs>
    <clipPath id="clip-path">
      <rect id="Rectángulo_33909" data-name="Rectángulo 33909" width="410" height="180" transform="translate(285 1471)" fill="#c8c9d1"/>
    </clipPath>
    <clipPath id="clip-path-2">
      <path id="Trazado_141553" data-name="Trazado 141553" d="M251.143,395.146a14.821,14.821,0,1,1-3.758-20.625A14.828,14.828,0,0,1,251.143,395.146Z" transform="translate(-224.121 -371.887)" fill="#a77d59" stroke="#263238" stroke-linecap="round" stroke-linejoin="round" stroke-width="1"/>
    </clipPath>
    <clipPath id="clip-path-3">
      <path id="Trazado_141585" data-name="Trazado 141585" d="M401.852,91.606,390.482,202.562l-6.993,68.258-97.727-10.011-19.016-1.947-12.176-1.247,10.792-105.34L272.934,78.4Z" transform="translate(-254.57 -78.4)" fill="#fff" stroke="#263238" stroke-linecap="round" stroke-linejoin="round" stroke-width="1"/>
    </clipPath>
    <clipPath id="clip-path-4">
      <circle id="Elipse_4817" data-name="Elipse 4817" cx="23.574" cy="23.574" r="23.574" transform="matrix(0.768, -0.64, 0.64, 0.768, 0, 30.177)" fill="#a77d59" stroke="#263238" stroke-miterlimit="10" stroke-width="1"/>
    </clipPath>
    <clipPath id="clip-path-5">
      <path id="Trazado_141610" data-name="Trazado 141610" d="M381.981,201l-2.667,6.056-71.783,95.709-8-5.1,10.854-13.618,64.474-80.875,5.687-3.612A2.019,2.019,0,0,1,381.981,201Z" transform="translate(-299.536 -199.562)" fill="#a77d59" stroke="#263238" stroke-linecap="round" stroke-linejoin="round" stroke-width="1"/>
    </clipPath>
    <clipPath id="clip-path-6">
      <path id="Trazado_141614" data-name="Trazado 141614" d="M327.564,292.352s-8.01,15.9-15.72,27.152l-5.508,1.424S293.7,333.482,286,339.748a17.287,17.287,0,0,1-3.768-3.163s10.946-21.017,23.054-34.321a15.45,15.45,0,0,1,3.973,2.109,19.508,19.508,0,0,1,4.147,3.979l13.5-16.981Z" transform="translate(-282.228 -291.371)" fill="#a77d59" stroke="#263238" stroke-linecap="round" stroke-linejoin="round" stroke-width="1"/>
    </clipPath>
    <clipPath id="clip-path-7">
      <path id="Trazado_141648" data-name="Trazado 141648" d="M252.43,233.349,144.145,278.921l-11.162,4.7-21.036-49.982L63.1,117.572,182.547,67.3Z" transform="translate(-63.1 -67.3)" fill="#fff" stroke="#263238" stroke-linecap="round" stroke-linejoin="round" stroke-width="1"/>
    </clipPath>
  </defs>
  <g id="img2" transform="translate(-285 -1471)">
    <rect id="Rectángulo_33859" data-name="Rectángulo 33859" width="410" height="180" transform="translate(285 1471)" fill="#c8c9d1"/>
    <g id="Enmascarar_grupo_50" data-name="Enmascarar grupo 50" clip-path="url(#clip-path)">
      <g id="Grupo_70585" data-name="Grupo 70585" transform="translate(88.393 926.311)">
        <g id="Grupo_70071" data-name="Grupo 70071" transform="translate(180 489)">
          <rect id="Rectángulo_31121" data-name="Rectángulo 31121" width="443.213" height="335.262" transform="translate(0 0)" fill="none"/>
        </g>
        <g id="Grupo_70584" data-name="Grupo 70584" transform="translate(221.184 493.388)">
          <g id="Background_Simple" data-name="Background Simple" transform="translate(0 0)">
            <g id="Grupo_70475" data-name="Grupo 70475">
              <path id="Trazado_141544" data-name="Trazado 141544" d="M188.576,51.094C288.391,42.2,288.56,98.52,333.534,150.985s54.6,76.252,37.645,136.731-74.087,107.89-144.765,81.027-111.166-1.065-155.747-24.92S9.533,273.88,42.164,219.563,65.5,62.055,188.576,51.094Z" transform="translate(-25.059 -50.162)" fill="#d9a171"/>
            </g>
          </g>
          <g id="Doodles" transform="translate(2.228 3.779)">
            <g id="Grupo_70481" data-name="Grupo 70481" transform="translate(0 0)">
              <g id="Grupo_70476" data-name="Grupo 70476" transform="translate(163.523)">
                <rect id="Rectángulo_31985" data-name="Rectángulo 31985" width="24.973" height="24.973" rx="5.09" transform="translate(0 5.146) rotate(-11.893)" fill="none" stroke="#263238" stroke-linecap="round" stroke-linejoin="round" stroke-width="1"/>
                <line id="Línea_425" data-name="Línea 425" x2="2.099" y2="9.965" transform="translate(13.742 9.809)" fill="none" stroke="#263238" stroke-linecap="round" stroke-linejoin="round" stroke-width="1"/>
                <line id="Línea_426" data-name="Línea 426" x1="9.965" y2="2.099" transform="translate(9.809 13.742)" fill="none" stroke="#263238" stroke-linecap="round" stroke-linejoin="round" stroke-width="1"/>
              </g>
              <g id="Grupo_70477" data-name="Grupo 70477" transform="translate(329.035 175.539)">
                <rect id="Rectángulo_31986" data-name="Rectángulo 31986" width="24.973" height="24.973" rx="5.09" transform="translate(0 5.146) rotate(-11.893)" fill="none" stroke="#263238" stroke-linecap="round" stroke-linejoin="round" stroke-width="1"/>
                <line id="Línea_427" data-name="Línea 427" x1="5.562" y2="8.53" transform="translate(12.011 10.527)" fill="none" stroke="#263238" stroke-linecap="round" stroke-linejoin="round" stroke-width="1"/>
                <line id="Línea_428" data-name="Línea 428" x1="8.53" y1="5.562" transform="translate(10.527 12.011)" fill="none" stroke="#263238" stroke-linecap="round" stroke-linejoin="round" stroke-width="1"/>
              </g>
              <g id="Grupo_70478" data-name="Grupo 70478" transform="translate(106.022 281.175)">
                <rect id="Rectángulo_31987" data-name="Rectángulo 31987" width="24.973" height="24.973" rx="5.09" transform="translate(1.439 0) rotate(3.304)" fill="none" stroke="#263238" stroke-linecap="round" stroke-linejoin="round" stroke-width="1"/>
                <line id="Línea_429" data-name="Línea 429" x1="10.166" y1="0.587" transform="translate(8.102 12.892)" fill="none" stroke="#263238" stroke-linecap="round" stroke-linejoin="round" stroke-width="1"/>
              </g>
              <g id="Grupo_70480" data-name="Grupo 70480" transform="translate(0 159.923)">
                <rect id="Rectángulo_31988" data-name="Rectángulo 31988" width="24.973" height="24.973" rx="5.09" transform="translate(7.853 0) rotate(18.329)" fill="none" stroke="#263238" stroke-linecap="round" stroke-linejoin="round" stroke-width="1"/>
                <line id="Línea_430" data-name="Línea 430" x1="12.74" y2="6.4" transform="translate(9.41 12.58)" fill="none" stroke="#263238" stroke-linecap="round" stroke-linejoin="round" stroke-width="1"/>
                <g id="Grupo_70479" data-name="Grupo 70479" transform="translate(11.473 8.968)">
                  <path id="Trazado_141546" data-name="Trazado 141546" d="M45.45,265.709a1.777,1.777,0,1,1-2.386-.79A1.778,1.778,0,0,1,45.45,265.709Z" transform="translate(-42.084 -264.729)" fill="none" stroke="#263238" stroke-linecap="round" stroke-linejoin="round" stroke-width="1"/>
                  <path id="Trazado_141547" data-name="Trazado 141547" d="M51.734,278.22a1.777,1.777,0,1,1-2.386-.791A1.777,1.777,0,0,1,51.734,278.22Z" transform="translate(-43.311 -267.172)" fill="none" stroke="#263238" stroke-linecap="round" stroke-linejoin="round" stroke-width="1"/>
                </g>
              </g>
            </g>
          </g>
          <g id="Coins" transform="translate(139.023 245.234)">
            <g id="Grupo_70484" data-name="Grupo 70484" transform="translate(21.169 13.669)">
              <path id="Trazado_141548" data-name="Trazado 141548" d="M251.143,395.146a14.821,14.821,0,1,1-3.758-20.625A14.828,14.828,0,0,1,251.143,395.146Z" transform="translate(-224.121 -371.887)" fill="#a77d59"/>
              <g id="Grupo_70483" data-name="Grupo 70483" clip-path="url(#clip-path-2)">
                <path id="Trazado_141549" data-name="Trazado 141549" d="M249.781,394.378a12.474,12.474,0,1,1-3.166-17.355A12.475,12.475,0,0,1,249.781,394.378Z" transform="translate(-224.692 -372.457)" fill="rgba(0,0,0,0.7)" opacity="0.3"/>
                <path id="Trazado_141550" data-name="Trazado 141550" d="M249.781,394.378a12.474,12.474,0,1,1-3.166-17.355A12.475,12.475,0,0,1,249.781,394.378Z" transform="translate(-224.692 -372.457)" fill="none" stroke="#263238" stroke-linecap="round" stroke-linejoin="round" stroke-width="1"/>
                <g id="Grupo_70482" data-name="Grupo 70482" transform="translate(9.286 7.735)">
                  <path id="Trazado_141551" data-name="Trazado 141551" d="M244.4,382.364l.6-.866,1.5,1.035-.6.866c1.115,1.164,1.09,2.623,0,4.2l-.253.367-1.731-1.2.333-.482c.576-.833.462-1.379-.121-1.782s-1.135-.317-1.71.515-.645,1.645-.093,3.478c.67,2.235.553,3.506-.368,4.838-1.093,1.581-2.478,2.124-3.96,1.492l-.587.85-1.5-1.036.587-.849c-1.131-1.175-1.094-2.651,0-4.231l.552-.8,1.731,1.2-.633.915c-.575.833-.417,1.385.166,1.787s1.156.356,1.731-.476.657-1.661.093-3.478c-.681-2.217-.552-3.505.369-4.837C241.585,382.31,242.924,381.76,244.4,382.364Z" transform="translate(-235.661 -381.498)" fill="#a77d59" stroke="#263238" stroke-linecap="round" stroke-linejoin="round" stroke-width="1"/>
                </g>
                <path id="Trazado_141552" data-name="Trazado 141552" d="M234.815,374.851a19.971,19.971,0,0,1-9.769,17.181,14.816,14.816,0,0,1,9.649-19.362A19.474,19.474,0,0,1,234.815,374.851Z" transform="translate(-224.121 -372.04)" fill="rgba(0,0,0,0.7)" opacity="0.2"/>
              </g>
              <path id="Trazado_141554" data-name="Trazado 141554" d="M251.143,395.146a14.821,14.821,0,1,1-3.758-20.625A14.828,14.828,0,0,1,251.143,395.146Z" transform="translate(-224.121 -371.887)" fill="none" stroke="#263238" stroke-linecap="round" stroke-linejoin="round" stroke-width="1"/>
            </g>
            <g id="Grupo_70486" data-name="Grupo 70486" transform="translate(0 1.192)">
              <circle id="Elipse_4811" data-name="Elipse 4811" cx="14.827" cy="14.827" r="14.827" fill="#a77d59" stroke="#263238" stroke-linecap="round" stroke-linejoin="round" stroke-width="1"/>
              <circle id="Elipse_4812" data-name="Elipse 4812" cx="12.474" cy="12.474" r="12.474" transform="translate(2.353 2.353)" fill="rgba(0,0,0,0.7)" opacity="0.3"/>
              <circle id="Elipse_4813" data-name="Elipse 4813" cx="12.474" cy="12.474" r="12.474" transform="translate(2.353 2.353)" fill="none" stroke="#263238" stroke-linecap="round" stroke-linejoin="round" stroke-width="1"/>
              <g id="Grupo_70485" data-name="Grupo 70485" transform="translate(11.509 6.835)">
                <path id="Trazado_141555" data-name="Trazado 141555" d="M214.524,365.929v-1.053h1.821v1.053c1.579.323,2.388,1.537,2.388,3.459v.446h-2.1v-.587c0-1.012-.4-1.4-1.113-1.4s-1.114.384-1.114,1.4.406,1.72,1.9,2.913c1.821,1.457,2.449,2.57,2.449,4.189,0,1.923-.83,3.156-2.409,3.48v1.032h-1.821v-1.032c-1.6-.324-2.407-1.557-2.407-3.48v-.971h2.1v1.112c0,1.012.445,1.376,1.153,1.376s1.153-.364,1.153-1.376-.4-1.74-1.9-2.913c-1.82-1.436-2.448-2.57-2.448-4.189C212.177,367.487,212.967,366.272,214.524,365.929Z" transform="translate(-212.117 -364.876)" fill="#a77d59" stroke="#263238" stroke-linecap="round" stroke-linejoin="round" stroke-width="1"/>
              </g>
            </g>
            <g id="Grupo_70488" data-name="Grupo 70488" transform="translate(65.091 0)">
              <circle id="Elipse_4814" data-name="Elipse 4814" cx="14.827" cy="14.827" r="14.827" transform="translate(0 24.968) rotate(-57.348)" fill="#a77d59" stroke="#263238" stroke-linecap="round" stroke-linejoin="round" stroke-width="1"/>
              <path id="Trazado_141556" data-name="Trazado 141556" d="M310.268,368.84a12.474,12.474,0,1,1-17.629-.651A12.474,12.474,0,0,1,310.268,368.84Z" transform="translate(-280.644 -356.845)" fill="rgba(0,0,0,0.7)" opacity="0.3"/>
              <path id="Trazado_141557" data-name="Trazado 141557" d="M310.268,368.84a12.474,12.474,0,1,1-17.629-.651A12.474,12.474,0,0,1,310.268,368.84Z" transform="translate(-280.644 -356.845)" fill="none" stroke="#263238" stroke-linecap="round" stroke-linejoin="round" stroke-width="1"/>
              <g id="Grupo_70487" data-name="Grupo 70487" transform="translate(14.377 14.008)">
                <path id="Trazado_141558" data-name="Trazado 141558" d="M297.283,374.319l-.717-.771,1.334-1.239.717.771c1.376-.837,2.8-.5,4.1.91l.3.327-1.542,1.432-.4-.43c-.689-.742-1.247-.748-1.766-.266s-.554,1.039.134,1.78,1.467.984,3.376.841c2.327-.172,3.543.216,4.645,1.4,1.309,1.408,1.54,2.877.6,4.188l.7.756-1.334,1.239-.7-.756c-1.391.851-2.824.5-4.132-.911l-.661-.712,1.542-1.432.757.815c.689.742,1.262.706,1.781.224s.6-1.051-.092-1.793-1.48-1-3.376-.84c-2.312.187-3.542-.216-4.644-1.4C296.623,377.058,296.375,375.631,297.283,374.319Z" transform="translate(-296.566 -372.309)" fill="#a77d59" stroke="#263238" stroke-linecap="round" stroke-linejoin="round" stroke-width="1"/>
              </g>
            </g>
          </g>
          <g id="Right_hand" data-name="Right hand" transform="translate(184.696 22.724)">
            <g id="Grupo_70554" data-name="Grupo 70554" transform="translate(0 0)">
              <path id="Trazado_141559" data-name="Trazado 141559" d="M295.333,300.254s-.061,30.77,0,32.567,2.39,12.6,2.39,12.6L290.252,359.2l6.432,5.185,12.514-12.3s10.656,6.583,12.6,16,13.541,16.271,25.573,42.344,25.754-58.34,25.754-58.34l-37.12-46.735Z" transform="translate(-261.537 -121.721)" fill="rgba(0,0,0,0.7)" opacity="0.2"/>
              <g id="Grupo_70542" data-name="Grupo 70542">
                <path id="Trazado_141560" data-name="Trazado 141560" d="M401.852,91.606,390.482,202.562l-6.993,68.258-97.727-10.011-19.016-1.947-12.176-1.247,10.792-105.34L272.934,78.4Z" transform="translate(-254.57 -78.4)" fill="#fff"/>
                <g id="Grupo_70541" data-name="Grupo 70541" clip-path="url(#clip-path-3)">
                  <path id="Trazado_141561" data-name="Trazado 141561" d="M377.051,98.572l-55.65-5.7a1.9,1.9,0,0,0-.388,3.783l55.65,5.7a1.9,1.9,0,1,0,.388-3.782Z" transform="translate(-267.211 -81.223)" fill="#263238"/>
                  <path id="Trazado_141562" data-name="Trazado 141562" d="M365.779,107.153,337.954,104.3a.951.951,0,0,0-.194,1.892l27.825,2.851a.951.951,0,1,0,.194-1.891Z" transform="translate(-270.648 -83.457)" fill="#263238"/>
                  <g id="Grupo_70489" data-name="Grupo 70489" transform="translate(18.278 96.327)">
                    <path id="Trazado_141563" data-name="Trazado 141563" d="M388.658,207.361l-90.322-9.255a.95.95,0,1,0-.193,1.891l90.321,9.255a.951.951,0,0,0,.194-1.891Z" transform="translate(-281.19 -198.101)" fill="#263238"/>
                    <path id="Trazado_141564" data-name="Trazado 141564" d="M384.223,215.446,279.2,204.685a.95.95,0,1,0-.193,1.891L384.03,217.338a.951.951,0,0,0,.193-1.892Z" transform="translate(-277.453 -199.385)" fill="#263238"/>
                    <path id="Trazado_141565" data-name="Trazado 141565" d="M353.947,220.885l-75.616-7.749a.95.95,0,0,0-.193,1.891l75.616,7.749a.95.95,0,1,0,.193-1.891Z" transform="translate(-277.284 -201.036)" fill="#263238"/>
                  </g>
                  <rect id="Rectángulo_31989" data-name="Rectángulo 31989" width="30.148" height="106.431" transform="translate(15.071 145.757) rotate(-84.149)" fill="#bfbfbf" stroke="#263238" stroke-miterlimit="10" stroke-width="1"/>
                  <g id="Grupo_70515" data-name="Grupo 70515" transform="translate(18.408 29.773)">
                    <g id="Grupo_70493" data-name="Grupo 70493" transform="translate(0 0)">
                      <g id="Grupo_70491" data-name="Grupo 70491">
                        <circle id="Elipse_4815" data-name="Elipse 4815" cx="23.574" cy="23.574" r="23.574" transform="matrix(0.768, -0.64, 0.64, 0.768, 0, 30.177)" fill="#a77d59"/>
                        <g id="Grupo_70490" data-name="Grupo 70490" clip-path="url(#clip-path-4)">
                          <circle id="Elipse_4816" data-name="Elipse 4816" cx="23.574" cy="23.574" r="23.574" transform="matrix(0.768, -0.64, 0.64, 0.768, 0, 30.177)" fill="#fff" opacity="0.5"/>
                        </g>
                        <circle id="Elipse_4818" data-name="Elipse 4818" cx="23.574" cy="23.574" r="23.574" transform="matrix(0.768, -0.64, 0.64, 0.768, 0, 30.177)" fill="none" stroke="#263238" stroke-miterlimit="10" stroke-width="1"/>
                      </g>
                      <g id="Grupo_70492" data-name="Grupo 70492" transform="translate(10.687 10.687)">
                        <path id="Trazado_141566" data-name="Trazado 141566" d="M319.543,153.2l19.6,9.863a22.524,22.524,0,0,0-2.593-23.711Z" transform="translate(-296.352 -130.761)" fill="#fff"/>
                        <path id="Trazado_141567" data-name="Trazado 141567" d="M319.7,150.414l16.414-13.363a22.479,22.479,0,0,0-9.168-6.53l-2.961,8.129Z" transform="translate(-296.383 -129.037)" fill="#a77d59"/>
                        <path id="Trazado_141568" data-name="Trazado 141568" d="M321.528,128.876,319.537,148.3l6.685-18.354A22.52,22.52,0,0,0,321.528,128.876Z" transform="translate(-296.351 -128.716)" fill="#757575"/>
                        <path id="Trazado_141569" data-name="Trazado 141569" d="M312.894,150.938l2.273-22.177a22.507,22.507,0,0,0-22.574,31.4Z" transform="translate(-290.725 -128.677)" fill="#999"/>
                        <path id="Trazado_141570" data-name="Trazado 141570" d="M311.471,179.145A22.518,22.518,0,0,0,333.709,167.2l-19.951-10.037L293.42,166.4A22.5,22.5,0,0,0,311.471,179.145Z" transform="translate(-291.251 -134.239)" fill="#bfbfbf"/>
                      </g>
                    </g>
                    <g id="Grupo_70514" data-name="Grupo 70514" transform="translate(64.068 17.567)">
                      <g id="Grupo_70497" data-name="Grupo 70497" transform="translate(3.389)">
                        <rect id="Rectángulo_31990" data-name="Rectángulo 31990" width="3.71" height="3.71" rx="0.626" transform="translate(0.378 0) rotate(5.851)" fill="#a77d59" stroke="#263238" stroke-miterlimit="10" stroke-width="1"/>
                        <g id="Grupo_70496" data-name="Grupo 70496" transform="translate(5.708 1.115)">
                          <g id="Grupo_70494" data-name="Grupo 70494" transform="translate(0.189)">
                            <path id="Trazado_141571" data-name="Trazado 141571" d="M403.628,143.013l-34.648-3.55a.426.426,0,0,1,.087-.848l34.648,3.55a.426.426,0,1,1-.087.848Z" transform="translate(-368.597 -138.612)" fill="#263238"/>
                          </g>
                          <g id="Grupo_70495" data-name="Grupo 70495" transform="translate(0 1.846)">
                            <path id="Trazado_141572" data-name="Trazado 141572" d="M400,144.959l-31.255-3.2a.426.426,0,1,1,.087-.848l31.255,3.2a.426.426,0,0,1-.087.848Z" transform="translate(-368.362 -140.906)" fill="#263238"/>
                          </g>
                        </g>
                      </g>
                      <g id="Grupo_70501" data-name="Grupo 70501" transform="translate(2.541 8.267)">
                        <rect id="Rectángulo_31991" data-name="Rectángulo 31991" width="3.71" height="3.71" rx="0.626" transform="matrix(0.995, 0.102, -0.102, 0.995, 0.378, 0)" fill="#757575" stroke="#263238" stroke-linecap="round" stroke-linejoin="round" stroke-width="1"/>
                        <g id="Grupo_70500" data-name="Grupo 70500" transform="translate(5.708 1.115)">
                          <g id="Grupo_70498" data-name="Grupo 70498" transform="translate(0.189)">
                            <path id="Trazado_141573" data-name="Trazado 141573" d="M402.576,153.286l-34.648-3.551a.426.426,0,1,1,.087-.848l34.648,3.551a.426.426,0,1,1-.087.848Z" transform="translate(-367.544 -148.885)" fill="#263238"/>
                          </g>
                          <g id="Grupo_70499" data-name="Grupo 70499" transform="translate(0 1.845)">
                            <path id="Trazado_141574" data-name="Trazado 141574" d="M398.947,155.231l-31.255-3.2a.426.426,0,1,1,.088-.848l31.254,3.2a.426.426,0,0,1-.087.848Z" transform="translate(-367.309 -151.178)" fill="#263238"/>
                          </g>
                        </g>
                      </g>
                      <g id="Grupo_70505" data-name="Grupo 70505" transform="translate(1.694 16.534)">
                        <rect id="Rectángulo_31992" data-name="Rectángulo 31992" width="3.71" height="3.71" rx="0.626" transform="matrix(0.995, 0.102, -0.102, 0.995, 0.378, 0)" fill="#999" stroke="#263238" stroke-linecap="round" stroke-linejoin="round" stroke-width="1"/>
                        <g id="Grupo_70504" data-name="Grupo 70504" transform="translate(5.708 1.116)">
                          <g id="Grupo_70502" data-name="Grupo 70502" transform="translate(0.189)">
                            <path id="Trazado_141575" data-name="Trazado 141575" d="M401.523,163.559l-34.648-3.55a.426.426,0,0,1,.087-.848l34.648,3.55a.426.426,0,0,1-.087.848Z" transform="translate(-366.492 -159.158)" fill="#263238"/>
                          </g>
                          <g id="Grupo_70503" data-name="Grupo 70503" transform="translate(0 1.845)">
                            <path id="Trazado_141576" data-name="Trazado 141576" d="M397.9,165.5l-31.255-3.2a.426.426,0,0,1,.087-.848l31.255,3.2a.426.426,0,1,1-.087.848Z" transform="translate(-366.257 -161.451)" fill="#263238"/>
                          </g>
                        </g>
                      </g>
                      <g id="Grupo_70509" data-name="Grupo 70509" transform="translate(0.847 24.801)">
                        <rect id="Rectángulo_31993" data-name="Rectángulo 31993" width="3.71" height="3.71" rx="0.626" transform="matrix(0.995, 0.102, -0.102, 0.995, 0.378, 0)" fill="#bfbfbf" stroke="#263238" stroke-miterlimit="10" stroke-width="1"/>
                        <g id="Grupo_70508" data-name="Grupo 70508" transform="translate(5.708 1.116)">
                          <g id="Grupo_70506" data-name="Grupo 70506" transform="translate(0.189)">
                            <path id="Trazado_141577" data-name="Trazado 141577" d="M400.47,173.832l-34.648-3.55a.426.426,0,1,1,.087-.848l34.648,3.55a.426.426,0,0,1-.087.848Z" transform="translate(-365.439 -169.431)" fill="#263238"/>
                          </g>
                          <g id="Grupo_70507" data-name="Grupo 70507" transform="translate(0 1.845)">
                            <path id="Trazado_141578" data-name="Trazado 141578" d="M396.842,175.777l-31.255-3.2a.426.426,0,0,1,.087-.848l31.255,3.2a.426.426,0,0,1-.087.848Z" transform="translate(-365.204 -171.724)" fill="#263238"/>
                          </g>
                        </g>
                      </g>
                      <g id="Grupo_70513" data-name="Grupo 70513" transform="translate(0 33.067)">
                        <rect id="Rectángulo_31994" data-name="Rectángulo 31994" width="3.71" height="3.71" rx="0.626" transform="translate(0.378 0) rotate(5.85)" fill="#fff" stroke="#263238" stroke-linecap="round" stroke-linejoin="round" stroke-width="1"/>
                        <g id="Grupo_70512" data-name="Grupo 70512" transform="translate(5.708 1.115)">
                          <g id="Grupo_70510" data-name="Grupo 70510" transform="translate(0.189)">
                            <path id="Trazado_141579" data-name="Trazado 141579" d="M399.417,184.1l-34.648-3.55a.426.426,0,0,1,.087-.848l34.648,3.551a.426.426,0,0,1-.087.848Z" transform="translate(-364.386 -179.703)" fill="#263238"/>
                          </g>
                          <g id="Grupo_70511" data-name="Grupo 70511" transform="translate(0 1.846)">
                            <path id="Trazado_141580" data-name="Trazado 141580" d="M395.789,186.05l-31.255-3.2a.426.426,0,1,1,.087-.848l31.255,3.2a.426.426,0,0,1-.087.848Z" transform="translate(-364.151 -181.997)" fill="#263238"/>
                          </g>
                        </g>
                      </g>
                    </g>
                  </g>
                  <g id="Grupo_70539" data-name="Grupo 70539" transform="translate(19.076 124.035)">
                    <g id="Grupo_70516" data-name="Grupo 70516" transform="translate(88.918 11.131)">
                      <rect id="Rectángulo_31995" data-name="Rectángulo 31995" width="1.989" height="11.37" transform="translate(1.978 11.513) rotate(-174.148)" fill="#757575" stroke="#263238" stroke-linecap="round" stroke-linejoin="round" stroke-width="1"/>
                      <rect id="Rectángulo_31996" data-name="Rectángulo 31996" width="1.989" height="5.352" transform="translate(2.153 9.809) rotate(-174.15)" fill="#a77d59" stroke="#263238" stroke-miterlimit="10" stroke-width="1"/>
                    </g>
                    <g id="Grupo_70517" data-name="Grupo 70517" transform="translate(93.664 8.733)">
                      <rect id="Rectángulo_31997" data-name="Rectángulo 31997" width="1.989" height="11.37" transform="translate(1.978 11.513) rotate(-174.15)" fill="#757575" stroke="#263238" stroke-linecap="round" stroke-linejoin="round" stroke-width="1"/>
                      <rect id="Rectángulo_31998" data-name="Rectángulo 31998" width="5.352" height="1.989" transform="translate(0.305 8.329) rotate(-84.148)" fill="#a77d59" stroke="#263238" stroke-miterlimit="10" stroke-width="1"/>
                    </g>
                    <g id="Grupo_70518" data-name="Grupo 70518" transform="translate(97.895 11.359)">
                      <rect id="Rectángulo_31999" data-name="Rectángulo 31999" width="1.989" height="11.37" transform="translate(1.978 11.513) rotate(-174.15)" fill="#757575" stroke="#263238" stroke-linecap="round" stroke-linejoin="round" stroke-width="1"/>
                      <rect id="Rectángulo_32000" data-name="Rectángulo 32000" width="1.989" height="5.352" transform="translate(2.415 7.253) rotate(-174.148)" fill="#a77d59" stroke="#263238" stroke-miterlimit="10" stroke-width="1"/>
                    </g>
                    <g id="Grupo_70519" data-name="Grupo 70519" transform="translate(84.693 8.44)">
                      <rect id="Rectángulo_32001" data-name="Rectángulo 32001" width="1.989" height="11.37" transform="translate(1.978 11.513) rotate(-174.148)" fill="#757575" stroke="#263238" stroke-linecap="round" stroke-linejoin="round" stroke-width="1"/>
                      <rect id="Rectángulo_32002" data-name="Rectángulo 32002" width="1.989" height="5.352" transform="translate(2.153 9.809) rotate(-174.15)" fill="#a77d59" stroke="#263238" stroke-miterlimit="10" stroke-width="1"/>
                    </g>
                    <g id="Grupo_70520" data-name="Grupo 70520" transform="translate(79.897 11.33)">
                      <rect id="Rectángulo_32003" data-name="Rectángulo 32003" width="1.989" height="11.37" transform="translate(1.978 11.513) rotate(-174.15)" fill="#757575" stroke="#263238" stroke-linecap="round" stroke-linejoin="round" stroke-width="1"/>
                      <rect id="Rectángulo_32004" data-name="Rectángulo 32004" width="1.989" height="5.352" transform="translate(2.109 10.235) rotate(-174.148)" fill="#a77d59" stroke="#263238" stroke-miterlimit="10" stroke-width="1"/>
                    </g>
                    <g id="Grupo_70521" data-name="Grupo 70521" transform="translate(75.743 7.954)">
                      <rect id="Rectángulo_32005" data-name="Rectángulo 32005" width="1.989" height="11.37" transform="translate(1.979 11.513) rotate(-174.15)" fill="#757575" stroke="#263238" stroke-linecap="round" stroke-linejoin="round" stroke-width="1"/>
                      <rect id="Rectángulo_32006" data-name="Rectángulo 32006" width="1.989" height="5.352" transform="translate(2.022 11.087) rotate(-174.148)" fill="#a77d59" stroke="#263238" stroke-miterlimit="10" stroke-width="1"/>
                    </g>
                    <g id="Grupo_70522" data-name="Grupo 70522" transform="translate(70.683 13.411)">
                      <rect id="Rectángulo_32007" data-name="Rectángulo 32007" width="1.989" height="11.37" transform="translate(1.978 11.513) rotate(-174.148)" fill="#757575" stroke="#263238" stroke-linecap="round" stroke-linejoin="round" stroke-width="1"/>
                      <rect id="Rectángulo_32008" data-name="Rectángulo 32008" width="1.989" height="5.352" transform="translate(2.022 11.087) rotate(-174.148)" fill="#a77d59" stroke="#263238" stroke-miterlimit="10" stroke-width="1"/>
                    </g>
                    <g id="Grupo_70523" data-name="Grupo 70523" transform="translate(66.96 5.832)">
                      <rect id="Rectángulo_32009" data-name="Rectángulo 32009" width="1.989" height="11.37" transform="translate(1.978 11.513) rotate(-174.15)" fill="#757575" stroke="#263238" stroke-linecap="round" stroke-linejoin="round" stroke-width="1"/>
                      <rect id="Rectángulo_32010" data-name="Rectángulo 32010" width="1.989" height="5.352" transform="translate(2.153 9.809) rotate(-174.15)" fill="#a77d59" stroke="#263238" stroke-miterlimit="10" stroke-width="1"/>
                    </g>
                    <g id="Grupo_70524" data-name="Grupo 70524" transform="translate(62.574 4.715)">
                      <rect id="Rectángulo_32011" data-name="Rectángulo 32011" width="1.989" height="11.37" transform="translate(1.978 11.513) rotate(-174.148)" fill="#757575" stroke="#263238" stroke-linecap="round" stroke-linejoin="round" stroke-width="1"/>
                      <rect id="Rectángulo_32012" data-name="Rectángulo 32012" width="1.989" height="5.352" transform="translate(2.415 7.253) rotate(-174.15)" fill="#a77d59" stroke="#263238" stroke-miterlimit="10" stroke-width="1"/>
                    </g>
                    <g id="Grupo_70525" data-name="Grupo 70525" transform="translate(57.393 11.358)">
                      <rect id="Rectángulo_32013" data-name="Rectángulo 32013" width="1.989" height="11.37" transform="translate(1.978 11.513) rotate(-174.15)" fill="#757575" stroke="#263238" stroke-linecap="round" stroke-linejoin="round" stroke-width="1"/>
                      <rect id="Rectángulo_32014" data-name="Rectángulo 32014" width="1.989" height="5.352" transform="translate(2.459 6.827) rotate(-174.15)" fill="#a77d59" stroke="#263238" stroke-miterlimit="10" stroke-width="1"/>
                    </g>
                    <g id="Grupo_70526" data-name="Grupo 70526" transform="translate(53.449 5.93)">
                      <rect id="Rectángulo_32015" data-name="Rectángulo 32015" width="1.989" height="11.37" transform="translate(1.978 11.513) rotate(-174.15)" fill="#757575" stroke="#263238" stroke-linecap="round" stroke-linejoin="round" stroke-width="1"/>
                      <rect id="Rectángulo_32016" data-name="Rectángulo 32016" width="1.989" height="5.352" transform="translate(2.197 9.383) rotate(-174.15)" fill="#a77d59" stroke="#263238" stroke-miterlimit="10" stroke-width="1"/>
                    </g>
                    <g id="Grupo_70527" data-name="Grupo 70527" transform="translate(48.693 8.425)">
                      <rect id="Rectángulo_32017" data-name="Rectángulo 32017" width="1.989" height="11.37" transform="translate(1.978 11.513) rotate(-174.148)" fill="#757575" stroke="#263238" stroke-linecap="round" stroke-linejoin="round" stroke-width="1"/>
                      <rect id="Rectángulo_32018" data-name="Rectángulo 32018" width="1.989" height="5.352" transform="matrix(-0.995, -0.102, 0.102, -0.995, 2.153, 9.809)" fill="#a77d59" stroke="#263238" stroke-miterlimit="10" stroke-width="1"/>
                    </g>
                    <g id="Grupo_70528" data-name="Grupo 70528" transform="translate(43.719 13.047)">
                      <rect id="Rectángulo_32019" data-name="Rectángulo 32019" width="1.989" height="11.37" transform="translate(1.978 11.513) rotate(-174.148)" fill="#757575" stroke="#263238" stroke-linecap="round" stroke-linejoin="round" stroke-width="1"/>
                      <rect id="Rectángulo_32020" data-name="Rectángulo 32020" width="1.989" height="5.352" transform="translate(1.979 11.513) rotate(-174.15)" fill="#a77d59" stroke="#263238" stroke-miterlimit="10" stroke-width="1"/>
                    </g>
                    <g id="Grupo_70529" data-name="Grupo 70529" transform="translate(40 5.427)">
                      <rect id="Rectángulo_32021" data-name="Rectángulo 32021" width="1.989" height="11.37" transform="translate(1.978 11.513) rotate(-174.15)" fill="#757575" stroke="#263238" stroke-linecap="round" stroke-linejoin="round" stroke-width="1"/>
                      <rect id="Rectángulo_32022" data-name="Rectángulo 32022" width="1.989" height="5.352" transform="translate(2.109 10.235) rotate(-174.15)" fill="#a77d59" stroke="#263238" stroke-miterlimit="10" stroke-width="1"/>
                    </g>
                    <g id="Grupo_70530" data-name="Grupo 70530" transform="translate(36.056)">
                      <rect id="Rectángulo_32023" data-name="Rectángulo 32023" width="1.989" height="11.37" transform="matrix(-0.995, -0.102, 0.102, -0.995, 1.979, 11.513)" fill="#757575" stroke="#263238" stroke-linecap="round" stroke-linejoin="round" stroke-width="1"/>
                      <rect id="Rectángulo_32024" data-name="Rectángulo 32024" width="1.989" height="5.352" transform="translate(2.11 10.235) rotate(-174.15)" fill="#a77d59" stroke="#263238" stroke-miterlimit="10" stroke-width="1"/>
                    </g>
                    <g id="Grupo_70531" data-name="Grupo 70531" transform="translate(30.989 5.53)">
                      <rect id="Rectángulo_32025" data-name="Rectángulo 32025" width="1.989" height="11.37" transform="translate(1.978 11.513) rotate(-174.15)" fill="#757575" stroke="#263238" stroke-linecap="round" stroke-linejoin="round" stroke-width="1"/>
                      <rect id="Rectángulo_32026" data-name="Rectángulo 32026" width="1.989" height="5.352" transform="translate(2.415 7.253) rotate(-174.148)" fill="#a77d59" stroke="#263238" stroke-miterlimit="10" stroke-width="1"/>
                    </g>
                    <g id="Grupo_70532" data-name="Grupo 70532" transform="translate(25.88 11.467)">
                      <rect id="Rectángulo_32027" data-name="Rectángulo 32027" width="1.989" height="11.37" transform="translate(1.978 11.513) rotate(-174.15)" fill="#757575" stroke="#263238" stroke-linecap="round" stroke-linejoin="round" stroke-width="1"/>
                      <rect id="Rectángulo_32028" data-name="Rectángulo 32028" width="1.989" height="5.352" transform="translate(2.502 6.401) rotate(-174.15)" fill="#a77d59" stroke="#263238" stroke-miterlimit="10" stroke-width="1"/>
                    </g>
                    <g id="Grupo_70533" data-name="Grupo 70533" transform="translate(22.082 4.617)">
                      <rect id="Rectángulo_32029" data-name="Rectángulo 32029" width="1.989" height="11.37" transform="translate(1.978 11.513) rotate(-174.15)" fill="#757575" stroke="#263238" stroke-linecap="round" stroke-linejoin="round" stroke-width="1"/>
                      <rect id="Rectángulo_32030" data-name="Rectángulo 32030" width="1.989" height="5.352" transform="translate(2.153 9.809) rotate(-174.148)" fill="#a77d59" stroke="#263238" stroke-miterlimit="10" stroke-width="1"/>
                    </g>
                    <g id="Grupo_70534" data-name="Grupo 70534" transform="translate(17.821 2.279)">
                      <rect id="Rectángulo_32031" data-name="Rectángulo 32031" width="1.989" height="11.37" transform="translate(1.978 11.513) rotate(-174.148)" fill="#757575" stroke="#263238" stroke-linecap="round" stroke-linejoin="round" stroke-width="1"/>
                      <rect id="Rectángulo_32032" data-name="Rectángulo 32032" width="1.989" height="5.352" transform="translate(2.459 6.827) rotate(-174.15)" fill="#a77d59" stroke="#263238" stroke-miterlimit="10" stroke-width="1"/>
                    </g>
                    <g id="Grupo_70535" data-name="Grupo 70535" transform="translate(13.006 5.351)">
                      <rect id="Rectángulo_32033" data-name="Rectángulo 32033" width="1.989" height="11.37" transform="translate(1.978 11.513) rotate(-174.148)" fill="#757575" stroke="#263238" stroke-linecap="round" stroke-linejoin="round" stroke-width="1"/>
                      <rect id="Rectángulo_32034" data-name="Rectángulo 32034" width="1.989" height="5.352" transform="translate(1.979 11.513) rotate(-174.15)" fill="#a77d59" stroke="#263238" stroke-miterlimit="10" stroke-width="1"/>
                    </g>
                    <g id="Grupo_70536" data-name="Grupo 70536" transform="translate(8.914 1.366)">
                      <rect id="Rectángulo_32035" data-name="Rectángulo 32035" width="1.989" height="11.37" transform="translate(1.978 11.513) rotate(-174.15)" fill="#757575" stroke="#263238" stroke-linecap="round" stroke-linejoin="round" stroke-width="1"/>
                      <rect id="Rectángulo_32036" data-name="Rectángulo 32036" width="1.989" height="5.352" transform="translate(2.066 10.661) rotate(-174.148)" fill="#a77d59" stroke="#263238" stroke-miterlimit="10" stroke-width="1"/>
                    </g>
                    <g id="Grupo_70537" data-name="Grupo 70537" transform="translate(4.305 2.436)">
                      <rect id="Rectángulo_32037" data-name="Rectángulo 32037" width="1.989" height="11.37" transform="translate(1.978 11.513) rotate(-174.15)" fill="#757575" stroke="#263238" stroke-linecap="round" stroke-linejoin="round" stroke-width="1"/>
                      <rect id="Rectángulo_32038" data-name="Rectángulo 32038" width="1.989" height="5.352" transform="translate(2.022 11.087) rotate(-174.15)" fill="#a77d59" stroke="#263238" stroke-miterlimit="10" stroke-width="1"/>
                    </g>
                    <g id="Grupo_70538" data-name="Grupo 70538" transform="translate(0 0.527)">
                      <rect id="Rectángulo_32039" data-name="Rectángulo 32039" width="1.989" height="11.37" transform="translate(1.979 11.513) rotate(-174.15)" fill="#757575" stroke="#263238" stroke-linecap="round" stroke-linejoin="round" stroke-width="1"/>
                      <rect id="Rectángulo_32040" data-name="Rectángulo 32040" width="1.989" height="5.352" transform="translate(2.546 5.975) rotate(-174.15)" fill="#a77d59" stroke="#263238" stroke-miterlimit="10" stroke-width="1"/>
                    </g>
                  </g>
                  <g id="Grupo_70540" data-name="Grupo 70540" transform="translate(12.665 151.103)">
                    <path id="Trazado_141581" data-name="Trazado 141581" d="M381.683,275.428l-90.322-9.255a.95.95,0,0,0-.193,1.891l90.321,9.256a.951.951,0,0,0,.194-1.892Z" transform="translate(-274.215 -266.168)" fill="#263238"/>
                    <path id="Trazado_141582" data-name="Trazado 141582" d="M377.248,283.514,272.222,272.752a.95.95,0,0,0-.193,1.891l105.026,10.763a.95.95,0,0,0,.193-1.891Z" transform="translate(-270.478 -267.452)" fill="#263238"/>
                    <path id="Trazado_141583" data-name="Trazado 141583" d="M332.267,287.444,271.356,281.2a.951.951,0,0,0-.193,1.892l60.91,6.242a.951.951,0,0,0,.194-1.892Z" transform="translate(-270.309 -269.103)" fill="#263238"/>
                  </g>
                  <path id="Trazado_141584" data-name="Trazado 141584" d="M384.663,205.037c-3.114-.249-4.193,4.716-4.193,4.716s-4.925-6.454-4.144-21.631c0,0-2.406-6.728-8.852-2.664s-13.125,18.388-11.532,33.992l-12.53-41.6c-4.329.917-13.125,6.736-10.808,34.829l-13.672-14.453a5.152,5.152,0,0,0-5.794,2.084c-2.092,3.283-1.094,26.733.636,35.5s-2.68,26.4-2.68,26.4-4.714-19.957-13.246-25.007L265.362,170.2,254.57,275.54l12.176,1.247,19.553-9.518c-.109,4.4-.216,8.448-.537,11.465l97.727,10.011,6.993-68.258C388.108,211.982,385.838,205.125,384.663,205.037Z" transform="translate(-254.57 -96.325)" fill="rgba(0,0,0,0.7)" opacity="0.2"/>
                </g>
                <path id="Trazado_141586" data-name="Trazado 141586" d="M401.852,91.606,390.482,202.562l-6.993,68.258-97.727-10.011-19.016-1.947-12.176-1.247,10.792-105.34L272.934,78.4Z" transform="translate(-254.57 -78.4)" fill="none" stroke="#263238" stroke-linecap="round" stroke-linejoin="round" stroke-width="1"/>
              </g>
              <g id="Grupo_70553" data-name="Grupo 70553" transform="translate(22.257 81.512)">
                <g id="Grupo_70546" data-name="Grupo 70546" transform="translate(8.606)">
                  <g id="Grupo_70543" data-name="Grupo 70543" transform="translate(0.006)">
                    <path id="Trazado_141587" data-name="Trazado 141587" d="M407.733,397.033,350.6,406.754s-9.947-52.831-15.877-61.152-4.844-11.749-7.725-17.358c-1.738-3.388-10.454-9.705-17.294-15.942h-.008c-.6-.539-1.175-1.078-1.73-1.618-.241-.217-.467-.451-.692-.668-.909-.9-1.754-1.778-2.5-2.64q-.41-.459-.773-.917a13.033,13.033,0,0,1-2.768-4.9,1.247,1.247,0,0,1-.048-.249,2.08,2.08,0,0,1-.048-.3c-.153-1.247-.314-2.672-.475-4.217-.032-.306-.064-.628-.1-.95-.016-.129-.032-.249-.048-.386-.137-1.288-.29-2.656-.467-4.064-.177-1.473-.37-3-.6-4.539-.072-.531-.145-1.062-.233-1.6,0-.008,0-.016-.008-.016-.089-.6-.185-1.191-.282-1.795l-.266-1.545c-.016-.089-.04-.169-.048-.241-.113-.6-.225-1.191-.338-1.786a.81.81,0,0,1-.04-.2c-.113-.523-.217-1.038-.338-1.561-.249-1.167-.531-2.31-.837-3.42a42.423,42.423,0,0,0-2.133-6.116c-4.12-9.2,1.239-5.875-1.988-29.542,0,0,2.374-5.488,9.142-1.1a18.137,18.137,0,0,1,1.513,1.1h.008a19.023,19.023,0,0,1,3.6,3.847,22.224,22.224,0,0,1,3.106,6.406,27.854,27.854,0,0,1,.917,11.508s5.086,17.431,7.766,21.4,13.761-18.823,13.045-21.478a35.879,35.879,0,0,1-.571-3.605c-.048-.394-.1-.813-.153-1.255s-.1-.9-.153-1.376c-.032-.225-.056-.467-.089-.7-.008-.1-.016-.193-.032-.282-.1-.909-.209-1.875-.314-2.873-.024-.282-.056-.547-.089-.821-.048-.475-.1-.966-.145-1.449a2.044,2.044,0,0,1-.024-.241c-.032-.274-.064-.555-.089-.845-.064-.563-.121-1.135-.177-1.706-.056-.491-.1-.982-.145-1.473-.1-.925-.185-1.851-.274-2.744-.064-.668-.129-1.328-.185-1.972-.016-.145-.032-.29-.04-.426-.338-3.541-.6-6.454-.7-7.693,0,0-8.055-11.926-8.884-17.543s-.756-11.532,2.615-13.938c7.983-5.681,5.649,3.476,9.222,7.267,3.573,3.806,9.053,10,12.16,11.942,2.865,1.819,5.424,8.884,5.786,9.914-.41-1.545-4.507-16.738-4.6-19.8-.1-3.227-2.567-20.247,1.617-26.355s9.745-1.368,10.26-.161.668,17.7,2.141,22.291,7.637,23.716,7.637,23.716.257-18.605,1.65-26.934,5.005-14.839,8.546-15.209,6.816,3.533,6.816,3.533-1.4,13.278-1,16.344-.579,14.139,1.1,20.094c0,0-.193-15.861,2.269-17.889s4.579-3,5.963-1.634,1.682,10.759,3.09,16.409,1.231,13.326,2.157,22.138,4.571,21.044,3.847,28.037c-.724,6.977-2.953,24.335-4.748,34.515s-6.373,24.126-6.373,24.126a50.014,50.014,0,0,1,1.682,14.083C391.4,352.837,407.733,397.033,407.733,397.033Z" transform="translate(-292.93 -179.69)" fill="#ffcfb4"/>
                  </g>
                  <g id="Grupo_70544" data-name="Grupo 70544" transform="translate(4.124 17.717)">
                    <path id="Trazado_141588" data-name="Trazado 141588" d="M371.76,209.921c1.1,3.4,4.752,14.76,6.574,20.433,0,0-7.988,5.871-7.789,11.326s-1.462,16.467-5.049,16.151-3.262-23.221-4.433-27.07c.728,1.651,1.2,3,1.3,3.263-.266-.987-4.533-16.754-4.623-19.877-.021-.735-.169-2.195-.334-4.086l0-.037s7.938-7.6,13.768-2.946v.007A19.54,19.54,0,0,0,371.76,209.921Z" transform="translate(-309.637 -202.461)" fill="#e2b88e" opacity="0.4"/>
                    <path id="Trazado_141589" data-name="Trazado 141589" d="M400.826,215.717c-3.719,3.526-9.329,9.757-10.038,15.771,0,0,2.073,16.78,1.187,24.1l-7.249-22.7s.261-18.608,1.653-26.934c.036-.228.08-.462.124-.689a33.1,33.1,0,0,1,14.554-3.558,65.1,65.1,0,0,0-.317,8.911A48.6,48.6,0,0,1,400.826,215.717Z" transform="translate(-314.972 -201.706)" fill="#e2b88e" opacity="0.4"/>
                    <path id="Trazado_141590" data-name="Trazado 141590" d="M408.659,215.4l-.007.007-.023.021c-.085.061-.3.233-.624.5a10.636,10.636,0,0,1,.635-1.049Z" transform="translate(-319.518 -204.278)" fill="#e2b88e" opacity="0.4"/>
                    <path id="Trazado_141591" data-name="Trazado 141591" d="M409.988,261.475s-4.779-17.932-4.864-32.369c-.035-5.341.583-10.213,2.31-13.506l.008-.006a10.628,10.628,0,0,1,.635-1.049l.019.519a13.171,13.171,0,0,1,2.848-1.884c-1.342,2.095-2.89,6.191-1.1,12.847C412.649,236.454,410.209,249.189,409.988,261.475Z" transform="translate(-318.955 -203.946)" fill="#e2b88e" opacity="0.4"/>
                    <path id="Trazado_141592" data-name="Trazado 141592" d="M323.147,303.477s1.284,17.088-12.449,23.205h-.008c-.6-.54-1.17-1.079-1.729-1.617-.238-.222-.468-.451-.692-.672-.907-.9-1.757-1.782-2.5-2.642-.277-.313-.532-.617-.773-.913a13.04,13.04,0,0,1-2.765-4.9,1.621,1.621,0,0,1-.051-.248,2.5,2.5,0,0,1-.048-.3c-.153-1.246-.31-2.67-.474-4.221-.033-.3-.065-.625-.1-.946-.014-.127-.029-.253-.043-.388-.143-1.29-.3-2.654-.469-4.065-.176-1.469-.371-3-.6-4.539-.078-.53-.156-1.068-.235-1.6,0-.007,0-.015-.006-.015-.089-.6-.186-1.2-.282-1.795-.087-.516-.181-1.032-.268-1.549-.017-.082-.034-.165-.044-.24-.111-.6-.223-1.191-.342-1.783a1.789,1.789,0,0,1-.039-.2c-.109-.525-.217-1.043-.334-1.56q-.392-1.747-.842-3.421c5.433-5.228,17.973-1.948,11.9-14.058,0,0,3.057-10.364-5.369-21.6h.007c5.765,4.649,8.714,12.812,7.625,21.765,0,0,5.084,17.424,7.766,21.395s13.758-18.823,13.04-21.481c-.138-.527-.34-1.828-.564-3.6-.049-.4-.1-.814-.152-1.254s-.108-.9-.16-1.379c-.031-.225-.053-.463-.083-.694-.009-.1-.018-.193-.035-.283-.1-.917-.2-1.878-.312-2.877-.027-.276-.056-.544-.09-.82-.045-.477-.1-.962-.148-1.446-.01-.075-.013-.156-.023-.238-.028-.276-.062-.559-.089-.85-.062-.567-.116-1.132-.177-1.706-.051-.492-.095-.983-.146-1.476-.092-.923-.183-1.848-.269-2.741-.063-.67-.126-1.333-.19-1.967-.014-.149-.027-.29-.04-.432.224,1.058,4.3,20.48,6.633,25.006C339.562,282.981,329.416,307.5,323.147,303.477Z" transform="translate(-298.047 -211.784)" fill="#e2b88e" opacity="0.4"/>
                    <path id="Trazado_141593" data-name="Trazado 141593" d="M415.235,327.58c-1.8,10.19-6.367,24.127-6.367,24.127a49.934,49.934,0,0,1,1.675,14.084c-.109,1.785,1,6.3,2.66,11.929-.48-1.236-5.61-14.532-5.525-19.17.1-4.866-1.285-6.21-4-12.189s-6.849-5.323-6.849-5.323-1.6,14.92-5.342,5.115-4.467-21.207,4.975-60.8c0,0,1.428,4.968.234,19.719s2.331,19.218,2.331,19.218a137.426,137.426,0,0,0,12.547-29.257s-1.219,17.216-2.307,25.057,3.868-9.085,7.33-19.543c3.253-9.812,3.371-13.544,2.133-20.529.92,4.921,1.609,9.614,1.259,13.043C419.265,300.045,417.03,317.4,415.235,327.58Z" transform="translate(-315.787 -216.998)" fill="#e2b88e" opacity="0.4"/>
                    <path id="Trazado_141594" data-name="Trazado 141594" d="M341.4,380.356c2.785,4.428,9.6,10.277,13.664,26.463s1.509,33.9,1.509,33.9Z" transform="translate(-306.512 -236.59)" fill="#e2b88e" opacity="0.4"/>
                  </g>
                  <path id="Trazado_141595" data-name="Trazado 141595" d="M310.3,263s-14.252,7.218-15.379,19.289c-4.12-9.2,1.239-5.875-1.988-29.542,0,0,2.374-5.488,9.142-1.1a18.134,18.134,0,0,1,1.513,1.1h.008a19.023,19.023,0,0,1,3.6,3.847Z" transform="translate(-292.924 -193.409)" fill="rgba(0,0,0,0.7)" opacity="0.2"/>
                  <g id="Grupo_70545" data-name="Grupo 70545" transform="translate(0 0.003)">
                    <path id="Trazado_141596" data-name="Trazado 141596" d="M350.593,406.757s-9.941-52.832-15.875-61.155-4.845-11.749-7.723-17.357-24.89-19.261-25.866-27.231-2.09-23.238-6.213-32.442,1.24-5.875-1.995-29.544c0,0,2.387-5.482,9.148-1.1s10.325,13.154,9.143,22.867c0,0,5.083,17.421,7.769,21.394s13.751-18.824,13.036-21.484-2.841-25.324-3.173-29.456c0,0-8.056-11.931-8.883-17.547s-.757-11.533,2.613-13.932c7.985-5.685,5.645,3.473,9.221,7.271s9.054,9.993,12.157,11.941,5.829,10.033,5.829,10.033-4.542-16.691-4.637-19.92-2.565-20.247,1.617-26.35,9.751-1.37,10.264-.166.672,17.693,2.148,22.287,7.626,23.72,7.626,23.72.262-18.6,1.652-26.931,5.012-14.843,8.55-15.213,6.814,3.533,6.814,3.533-1.4,13.277-1,16.341-.575,14.136,1.111,20.1c0,0-.2-15.865,2.269-17.893s4.578-3,5.959-1.632,1.684,10.759,3.094,16.412,1.233,13.327,2.157,22.137,4.568,21.045,3.847,28.03-2.958,24.338-4.755,34.525-6.361,24.125-6.361,24.125a49.912,49.912,0,0,1,1.675,14.08c-.408,6.639,15.922,50.833,15.922,50.833" transform="translate(-292.922 -179.693)" fill="none" stroke="#263238" stroke-linecap="round" stroke-linejoin="round" stroke-width="1"/>
                    <path id="Trazado_141597" data-name="Trazado 141597" d="M384.723,240.451c1.664,3.91,5.778,20.42,7.248,22.708a7.79,7.79,0,0,0,3.138,2.975" transform="translate(-310.848 -191.557)" fill="none" stroke="#263238" stroke-linecap="round" stroke-linejoin="round" stroke-width="1"/>
                    <path id="Trazado_141598" data-name="Trazado 141598" d="M406,237.752s-.354,3.383,1.474,14.17,2.718,15.382,3.742,17.788" transform="translate(-314.996 -191.03)" fill="none" stroke="#263238" stroke-linecap="round" stroke-linejoin="round" stroke-width="1"/>
                    <path id="Trazado_141599" data-name="Trazado 141599" d="M363.577,240.983c2.233,6.574,3.495,17.051,4.766,20.2s2.4,3.81,2.4,3.81" transform="translate(-306.719 -191.661)" fill="none" stroke="#263238" stroke-linecap="round" stroke-linejoin="round" stroke-width="1"/>
                    <path id="Trazado_141600" data-name="Trazado 141600" d="M368.07,260.585a9.947,9.947,0,0,1,3.087,3.9" transform="translate(-307.596 -195.489)" fill="none" stroke="#263238" stroke-linecap="round" stroke-linejoin="round" stroke-width="1"/>
                    <path id="Trazado_141601" data-name="Trazado 141601" d="M325.3,307.061s1.223,8.717,6.685,8.026" transform="translate(-299.245 -204.564)" fill="none" stroke="#263238" stroke-linecap="round" stroke-linejoin="round" stroke-width="1"/>
                    <path id="Trazado_141602" data-name="Trazado 141602" d="M341.284,280.364s1.415,10.36-.905,14.758" transform="translate(-302.189 -199.351)" fill="none" stroke="#263238" stroke-linecap="round" stroke-linejoin="round" stroke-width="1"/>
                    <path id="Trazado_141603" data-name="Trazado 141603" d="M394.4,280.477s3.67,2.247,1.216,8.834-6.723,33.178-6.723,33.178" transform="translate(-311.662 -199.373)" fill="none" stroke="#263238" stroke-linecap="round" stroke-linejoin="round" stroke-width="1"/>
                    <path id="Trazado_141604" data-name="Trazado 141604" d="M413.807,289.121c1.539,5.953,1.675,6.108-.824,13.425s-6.528,25.232-6.528,25.232" transform="translate(-315.091 -201.061)" fill="none" stroke="#263238" stroke-linecap="round" stroke-linejoin="round" stroke-width="1"/>
                    <path id="Trazado_141605" data-name="Trazado 141605" d="M413.426,366.964s-2.4-4.845-.417-8.826" transform="translate(-316.218 -214.537)" fill="none" stroke="#263238" stroke-linecap="round" stroke-linejoin="round" stroke-width="1"/>
                    <path id="Trazado_141606" data-name="Trazado 141606" d="M344.86,385.859a66.273,66.273,0,0,1,8.706,18.061" transform="translate(-303.064 -219.95)" fill="none" stroke="#263238" stroke-linecap="round" stroke-linejoin="round" stroke-width="1"/>
                  </g>
                </g>
                <g id="Grupo_70551" data-name="Grupo 70551" transform="translate(0 14.697)">
                  <path id="Trazado_141607" data-name="Trazado 141607" d="M400.341,199.785l1.637-1.621.745-.211-.049.8-1.509,1.921Z" transform="translate(-305.291 -197.953)" fill="#757575" stroke="#263238" stroke-linecap="round" stroke-linejoin="round" stroke-width="1"/>
                  <g id="Grupo_70548" data-name="Grupo 70548" transform="translate(13.928 1.294)">
                    <path id="Trazado_141608" data-name="Trazado 141608" d="M381.981,201l-2.667,6.056-71.783,95.709-8-5.1,10.854-13.618,64.474-80.875,5.687-3.612A2.019,2.019,0,0,1,381.981,201Z" transform="translate(-299.536 -199.562)" fill="#a77d59"/>
                    <g id="Grupo_70547" data-name="Grupo 70547" clip-path="url(#clip-path-5)">
                      <path id="Trazado_141609" data-name="Trazado 141609" d="M381.981,201l-2.667,6.056-71.783,95.709-8-5.1,10.854-13.618c4.985-.517,5.819,2.43,5.819,2.43l61.844-80.718c-.608-2.17-3.188-2.587-3.188-2.587l5.687-3.612A2.019,2.019,0,0,1,381.981,201Z" transform="translate(-299.536 -199.562)" fill="rgba(0,0,0,0.7)" opacity="0.3"/>
                    </g>
                    <path id="Trazado_141611" data-name="Trazado 141611" d="M381.981,201l-2.667,6.056-71.783,95.709-8-5.1,10.854-13.618,64.474-80.875,5.687-3.612A2.019,2.019,0,0,1,381.981,201Z" transform="translate(-299.536 -199.562)" fill="none" stroke="#263238" stroke-linecap="round" stroke-linejoin="round" stroke-width="1"/>
                  </g>
                  <g id="Grupo_70550" data-name="Grupo 70550" transform="translate(0 75.176)">
                    <path id="Trazado_141612" data-name="Trazado 141612" d="M327.564,292.352s-8.01,15.9-15.72,27.152l-5.508,1.424S293.7,333.482,286,339.748a17.287,17.287,0,0,1-3.768-3.163s10.946-21.017,23.054-34.321a15.45,15.45,0,0,1,3.973,2.109,19.508,19.508,0,0,1,4.147,3.979l13.5-16.981Z" transform="translate(-282.228 -291.371)" fill="#a77d59"/>
                    <g id="Grupo_70549" data-name="Grupo 70549" clip-path="url(#clip-path-6)">
                      <path id="Trazado_141613" data-name="Trazado 141613" d="M328.479,292.352s-8.01,15.9-15.72,27.152l-5.508,1.424s-12.633,12.554-20.34,18.82l.209-3.408c8.359-12.772,18.98-26.7,23.05-31.967a19.508,19.508,0,0,1,4.147,3.979l-7.5,10.01,4.3-.773,16.7-26.218Z" transform="translate(-283.142 -291.371)" fill="rgba(0,0,0,0.7)" opacity="0.3"/>
                    </g>
                    <path id="Trazado_141615" data-name="Trazado 141615" d="M327.564,292.352s-8.01,15.9-15.72,27.152l-5.508,1.424S293.7,333.482,286,339.748a17.287,17.287,0,0,1-3.768-3.163s10.946-21.017,23.054-34.321a15.45,15.45,0,0,1,3.973,2.109,19.508,19.508,0,0,1,4.147,3.979l13.5-16.981Z" transform="translate(-282.228 -291.371)" fill="none" stroke="#263238" stroke-linecap="round" stroke-linejoin="round" stroke-width="1"/>
                  </g>
                </g>
                <g id="Grupo_70552" data-name="Grupo 70552" transform="translate(35.204 18.267)">
                  <path id="Trazado_141616" data-name="Trazado 141616" d="M363.4,257.458,340.979,279.2l-3.583,3.476c2.453-6.307,1.267-16.058,1.11-17.245v-.014c-.01-.068-.015-.1-.015-.1a1.032,1.032,0,0,0-.019-.171c-.138-.527-.34-1.828-.564-3.6-.049-.4-.1-.814-.152-1.254s-.108-.9-.16-1.379c-.031-.224-.053-.463-.083-.694-.009-.1-.018-.193-.035-.283-.1-.909-.211-1.879-.312-2.877-.027-.276-.056-.544-.09-.82-.045-.477-.1-.962-.148-1.446-.01-.075-.013-.156-.023-.238-.028-.276-.062-.559-.089-.85-.062-.567-.116-1.132-.177-1.706-.051-.493-.095-.983-.146-1.476-.092-.923-.183-1.848-.269-2.741q-.105-1.007-.19-1.967c-.014-.149-.027-.29-.04-.432-.339-3.538-.6-6.449-.7-7.692,0,0-8.05-11.927-8.883-17.546s-.759-11.532,2.617-13.932c7.983-5.685,5.644,3.472,9.217,7.268s9.057,10,12.16,11.942,5.826,10.035,5.826,10.035c2.233,6.572,3.493,17.046,4.766,20.2S363.4,257.458,363.4,257.458Z" transform="translate(-325.974 -202.39)" fill="#ffcfb4"/>
                  <path id="Trazado_141617" data-name="Trazado 141617" d="M368.07,260.585a9.947,9.947,0,0,1,3.087,3.9" transform="translate(-334.194 -213.753)" fill="none" stroke="#263238" stroke-linecap="round" stroke-linejoin="round" stroke-width="1"/>
                  <path id="Trazado_141618" data-name="Trazado 141618" d="M338.248,211.471c3.559,3.794,9.023,9.958,12.131,11.925-.438-.22-6.154-3.006-9.35.093-3.324,3.232-5.732,12.193-5.732,12.193s-8.05-11.927-8.883-17.546-.759-11.532,2.617-13.932C337.013,198.518,334.675,207.676,338.248,211.471Z" transform="translate(-325.974 -202.39)" fill="#e2b88e" opacity="0.4"/>
                  <path id="Trazado_141619" data-name="Trazado 141619" d="M343.41,289.145l-3.583,3.476c2.453-6.307,1.267-16.058,1.11-17.245v-.014a1.163,1.163,0,0,0-.035-.276c-.138-.527-.34-1.828-.564-3.6-.049-.4-.1-.814-.152-1.254s-.108-.9-.16-1.379c-.031-.225-.053-.463-.083-.694-.009-.1-.018-.193-.035-.283-.1-.917-.2-1.878-.312-2.877-.027-.276-.056-.544-.09-.82-.045-.477-.1-.962-.148-1.446-.01-.075-.013-.156-.023-.238-.028-.276-.062-.559-.089-.85-.062-.567-.116-1.132-.177-1.706-.052-.492-.095-.983-.146-1.476-.092-.923-.183-1.848-.269-2.741-.063-.67-.126-1.333-.19-1.967-.014-.149-.027-.29-.04-.432.224,1.058,4.3,20.48,6.633,25.006C345.939,280.037,345.12,284.452,343.41,289.145Z" transform="translate(-328.406 -212.334)" fill="#a77d59" opacity="0.4"/>
                  <path id="Trazado_141620" data-name="Trazado 141620" d="M363.4,257.461s-1.131-.656-2.4-3.81-2.533-13.631-4.766-20.2c0,0-2.726-8.084-5.829-10.033s-8.582-8.143-12.157-11.941-1.236-12.955-9.221-7.271c-3.37,2.4-3.44,8.315-2.613,13.932s8.883,17.547,8.883,17.547c.332,4.132,2.458,26.8,3.173,29.457" transform="translate(-325.974 -202.39)" fill="none" stroke="#263238" stroke-linecap="round" stroke-linejoin="round" stroke-width="1"/>
                  <path id="Trazado_141621" data-name="Trazado 141621" d="M341.284,280.364s1.415,10.36-.905,14.758" transform="translate(-328.787 -217.616)" fill="none" stroke="#263238" stroke-linecap="round" stroke-linejoin="round" stroke-width="1"/>
                </g>
              </g>
            </g>
          </g>
          <g id="Left_hand" data-name="Left hand" transform="translate(8.668 13.792)">
            <g id="Grupo_70583" data-name="Grupo 70583">
              <path id="Trazado_141622" data-name="Trazado 141622" d="M154.575,292.7s5.094,23.652-5.942,40.86-19.526,21.8-23.346,26.931-18.766,33.841-18.766,33.841l-17.462-51.72,17.462-63.984Z" transform="translate(-46.224 -108.565)" fill="rgba(0,0,0,0.7)" opacity="0.2"/>
              <g id="Grupo_70580" data-name="Grupo 70580" transform="translate(21.945)">
                <path id="Trazado_141623" data-name="Trazado 141623" d="M252.43,233.349,144.145,278.921l-11.162,4.7-21.036-49.982L63.1,117.572,182.547,67.3Z" transform="translate(-63.1 -67.3)" fill="#fff"/>
                <g id="Grupo_70579" data-name="Grupo 70579" clip-path="url(#clip-path-7)">
                  <path id="Trazado_141624" data-name="Trazado 141624" d="M160.386,94.109l-51.561,21.7a1.9,1.9,0,1,0,1.475,3.5l51.561-21.7a1.9,1.9,0,1,0-1.475-3.505Z" transform="translate(-71.801 -72.506)" fill="#263238"/>
                  <path id="Trazado_141625" data-name="Trazado 141625" d="M154.532,109.818l-25.78,10.85a.95.95,0,1,0,.737,1.752l25.78-10.849a.951.951,0,0,0-.737-1.753Z" transform="translate(-75.806 -75.588)" fill="#263238"/>
                  <g id="Grupo_70565" data-name="Grupo 70565" transform="translate(43.021 92.206)">
                    <g id="Grupo_70555" data-name="Grupo 70555" transform="translate(0 8.117)">
                      <path id="Trazado_141626" data-name="Trazado 141626" d="M198.011,191.966s1.088,8.542-2.093,9.881c-2.9,1.222-6.728-3.361-10.066-1.956s-.7,13.514-3.925,14.869-7.1-3.62-9.878-2.45-1.1,7.4-3.962,8.6c-2.363.995-5.746-3.957-8.451-5.043a2.068,2.068,0,0,0-1.609-.08c-2.834,1.193-1.428,14.2-3.872,15.23a4.589,4.589,0,0,1-2.17.355,16.018,16.018,0,0,0-2.758-.26,3.562,3.562,0,0,0-1.032.263c-2.087.879-1.8,7.725-3.711,8.528s-3.792-.192-5.829.665-2,4.416-5.042,5.694l1.284,3.053,74.122-31.194" transform="translate(-119.89 -191.966)" fill="#bfbfbf" stroke="#263238" stroke-miterlimit="10" stroke-width="1"/>
                      <path id="Trazado_141627" data-name="Trazado 141627" d="M116.56,218.921l15.007,35.659,77.607-32.661" transform="translate(-116.56 -197.229)" fill="none" stroke="#263238" stroke-linecap="round" stroke-linejoin="round" stroke-width="1"/>
                      <path id="Trazado_141628" data-name="Trazado 141628" d="M203.975,208.917a12.64,12.64,0,0,0-.915-.983c-.958-.925-2.482-2.1-3.637-1.615-1.131.476-1.231,2.355-1.209,4.363.027,2.443.239,5.074-.989,5.59-1.045.439-1.984-.221-2.945-.943-1.1-.822-2.232-1.721-3.586-1.151-2.289.963-1.591,3.943-2.4,6.494a4.936,4.936,0,0,1-3.011,3.252c-1.976.832-3.982.015-5.869-1.274-3.188-2.175-6.052-5.694-7.907-4.915-2.951,1.243.3,9.23-2.869,10.565-1.774.746-5.442-4.846-9.007-9.652-2.817-3.8-5.572-7.117-7.264-6.406-3.827,1.611,2.479,20.707-.3,21.878-.027.011-.057.023-.085.032a2.936,2.936,0,0,1-2.758-.26c-1-.568-1.819-1.374-2.928-.907-2.049.862-.847,8.348-3.106,9.3s-3.613-.425-6.155.645c-2.151.905-3.425,6.114-3.425,6.114L134.9,252.1,209.019,220.9" transform="translate(-119.89 -194.746)" fill="#757575" stroke="#263238" stroke-linecap="round" stroke-linejoin="round" stroke-width="1"/>
                    </g>
                    <path id="Trazado_141629" data-name="Trazado 141629" d="M195.158,241.193l-25.78,10.849a.951.951,0,0,0,.737,1.753l25.78-10.849a.951.951,0,0,0-.737-1.753Z" transform="translate(-126.76 -193.447)" fill="#263238"/>
                    <g id="Grupo_70564" data-name="Grupo 70564" transform="translate(85.864)">
                      <g id="Grupo_70559" data-name="Grupo 70559" transform="translate(0)">
                        <rect id="Rectángulo_32041" data-name="Rectángulo 32041" width="3.71" height="3.71" rx="0.626" transform="matrix(0.922, -0.388, 0.388, 0.922, 0, 6.263)" fill="#bfbfbf" stroke="#263238" stroke-miterlimit="10" stroke-width="1"/>
                        <g id="Grupo_70558" data-name="Grupo 70558" transform="translate(5.53)">
                          <g id="Grupo_70556" data-name="Grupo 70556">
                            <path id="Trazado_141630" data-name="Trazado 141630" d="M241.025,182.7l-10.3,4.336a.426.426,0,0,1-.331-.786l10.3-4.336a.426.426,0,0,1,.331.786Z" transform="translate(-230.13 -181.88)" fill="#263238"/>
                          </g>
                          <g id="Grupo_70557" data-name="Grupo 70557" transform="translate(0.72 3.033)">
                            <path id="Trazado_141631" data-name="Trazado 141631" d="M238.776,186.468l-7.16,3.013a.426.426,0,1,1-.331-.786l7.16-3.013a.426.426,0,0,1,.331.786Z" transform="translate(-231.025 -185.648)" fill="#263238"/>
                          </g>
                        </g>
                      </g>
                      <g id="Grupo_70563" data-name="Grupo 70563" transform="translate(3.223 7.659)">
                        <rect id="Rectángulo_32042" data-name="Rectángulo 32042" width="3.71" height="3.71" rx="0.626" transform="matrix(0.922, -0.388, 0.388, 0.922, 0, 6.263)" fill="#757575" stroke="#263238" stroke-linecap="round" stroke-linejoin="round" stroke-width="1"/>
                        <g id="Grupo_70562" data-name="Grupo 70562" transform="translate(5.53)">
                          <g id="Grupo_70560" data-name="Grupo 70560">
                            <path id="Trazado_141632" data-name="Trazado 141632" d="M245.03,192.217l-10.3,4.336a.426.426,0,0,1-.331-.786l10.3-4.336a.426.426,0,1,1,.331.786Z" transform="translate(-234.136 -191.398)" fill="#263238"/>
                          </g>
                          <g id="Grupo_70561" data-name="Grupo 70561" transform="translate(0.72 3.033)">
                            <path id="Trazado_141633" data-name="Trazado 141633" d="M242.781,195.986,235.622,199a.426.426,0,1,1-.331-.786l7.159-3.013a.426.426,0,1,1,.331.786Z" transform="translate(-235.03 -195.166)" fill="#263238"/>
                          </g>
                        </g>
                      </g>
                    </g>
                  </g>
                  <g id="Grupo_70566" data-name="Grupo 70566" transform="translate(66.842 132.188)">
                    <path id="Trazado_141634" data-name="Trazado 141634" d="M244.063,231.638l-83.684,35.218a.951.951,0,1,0,.737,1.753L244.8,233.391a.951.951,0,1,0-.738-1.753Z" transform="translate(-148.824 -231.563)" fill="#263238"/>
                    <path id="Trazado_141635" data-name="Trazado 141635" d="M244.053,239.468l-97.31,40.953a.951.951,0,0,0,.738,1.753l97.309-40.953a.951.951,0,1,0-.737-1.753Z" transform="translate(-146.161 -233.092)" fill="#263238"/>
                    <path id="Trazado_141636" data-name="Trazado 141636" d="M247.348,247.3l-97.309,40.952a.951.951,0,0,0,.737,1.753l97.31-40.953a.95.95,0,1,0-.738-1.752Z" transform="translate(-146.805 -234.621)" fill="#263238"/>
                    <path id="Trazado_141637" data-name="Trazado 141637" d="M250.644,255.129l-97.31,40.953a.95.95,0,1,0,.738,1.752l97.309-40.952a.951.951,0,1,0-.737-1.753Z" transform="translate(-147.448 -236.15)" fill="#263238"/>
                    <path id="Trazado_141638" data-name="Trazado 141638" d="M213.065,284.335,156.63,308.086a.951.951,0,0,0,.737,1.753L213.8,286.088a.951.951,0,1,0-.738-1.753Z" transform="translate(-148.092 -241.853)" fill="#263238"/>
                  </g>
                  <g id="Grupo_70578" data-name="Grupo 70578" transform="translate(22.612 40.616)">
                    <g id="Grupo_70568" data-name="Grupo 70568" transform="translate(0 11.212)">
                      <g id="Grupo_70567" data-name="Grupo 70567" transform="translate(13.722)">
                        <path id="Trazado_141639" data-name="Trazado 141639" d="M172.65,131.7s1.088,8.542-2.093,9.881c-2.9,1.222-6.728-3.361-10.066-1.956s-.7,13.514-3.926,14.87-7.1-3.62-9.878-2.451-1.1,7.4-3.962,8.6c-2.364.995-5.746-3.957-8.451-5.043a2.068,2.068,0,0,0-1.609-.08c-2.834,1.193-1.428,14.2-3.872,15.23a4.57,4.57,0,0,1-2.17.355,16.18,16.18,0,0,0-2.758-.26,3.565,3.565,0,0,0-1.032.264c-2.087.879-1.8,7.724-3.711,8.527s-3.792-.192-5.829.666-2,4.416-5.042,5.7l1.284,3.052,74.122-31.194" transform="translate(-108.251 -131.704)" fill="#bfbfbf" stroke="#263238" stroke-miterlimit="10" stroke-width="1"/>
                        <path id="Trazado_141640" data-name="Trazado 141640" d="M177.512,145.85s.679,4.14-.96,4.83c-1.359.572-2.194-.225-3.628-.278a4.766,4.766,0,0,0-2.073.426c-1.31.551-1.628,2.319-1.861,4.222-.286,2.339-.439,4.879-2.15,5.6a5.3,5.3,0,0,1-3.833-.258c-2.128-.742-4.368-1.915-6.528-1.006a5.1,5.1,0,0,0-2.351,2.985c-1.343,3.324-1.766,8.138-3.221,8.75-2.069.872-5.858-2.685-7.695-1.912s-1.084,3.963-2.574,4.591-2.341-1.223-4.965-.119-1.346,4.98-5.044,6.536-5.323-1.307-8.9.2-2.929,4.218-5.45,5.279-3.588-.783-5.4-.023c-1.75.736-2.232,3.616-2.26,3.8l.987,2.347,74.122-31.194" transform="translate(-108.323 -134.466)" fill="#263238" stroke="#263238" stroke-miterlimit="10" stroke-width="1"/>
                      </g>
                      <path id="Trazado_141641" data-name="Trazado 141641" d="M91.2,158.66l15.007,35.659,77.607-32.661" transform="translate(-91.199 -136.968)" fill="none" stroke="#263238" stroke-linecap="round" stroke-linejoin="round" stroke-width="1"/>
                    </g>
                    <path id="Trazado_141642" data-name="Trazado 141642" d="M169.507,180.243l-25.78,10.85a.95.95,0,1,0,.737,1.752L170.245,182a.951.951,0,0,0-.738-1.753Z" transform="translate(-101.342 -129.955)" fill="#263238"/>
                    <g id="Grupo_70577" data-name="Grupo 70577" transform="translate(84.561)">
                      <g id="Grupo_70572" data-name="Grupo 70572">
                        <rect id="Rectángulo_32043" data-name="Rectángulo 32043" width="3.71" height="3.71" rx="0.626" transform="matrix(0.922, -0.388, 0.388, 0.922, 0, 6.263)" fill="#bfbfbf" stroke="#263238" stroke-miterlimit="10" stroke-width="1"/>
                        <g id="Grupo_70571" data-name="Grupo 70571" transform="translate(5.53)">
                          <g id="Grupo_70569" data-name="Grupo 70569">
                            <path id="Trazado_141643" data-name="Trazado 141643" d="M214.045,118.591l-10.3,4.336a.426.426,0,1,1-.331-.786l10.3-4.336a.426.426,0,1,1,.331.786Z" transform="translate(-203.151 -117.771)" fill="#263238"/>
                          </g>
                          <g id="Grupo_70570" data-name="Grupo 70570" transform="translate(0.719 3.033)">
                            <path id="Trazado_141644" data-name="Trazado 141644" d="M211.8,122.359l-7.16,3.013a.426.426,0,1,1-.331-.785l7.16-3.013a.426.426,0,1,1,.331.785Z" transform="translate(-204.045 -121.54)" fill="#263238"/>
                          </g>
                        </g>
                      </g>
                      <g id="Grupo_70576" data-name="Grupo 70576" transform="translate(3.223 7.659)">
                        <rect id="Rectángulo_32044" data-name="Rectángulo 32044" width="3.71" height="3.71" rx="0.626" transform="matrix(0.922, -0.388, 0.388, 0.922, 0, 6.263)" fill="#a77d59" stroke="#263238" stroke-miterlimit="10" stroke-width="1"/>
                        <g id="Grupo_70575" data-name="Grupo 70575" transform="translate(5.53)">
                          <g id="Grupo_70573" data-name="Grupo 70573">
                            <path id="Trazado_141645" data-name="Trazado 141645" d="M218.051,128.109l-10.3,4.336a.426.426,0,1,1-.331-.786l10.3-4.336a.426.426,0,1,1,.331.786Z" transform="translate(-207.156 -127.289)" fill="#263238"/>
                          </g>
                          <g id="Grupo_70574" data-name="Grupo 70574" transform="translate(0.719 3.033)">
                            <path id="Trazado_141646" data-name="Trazado 141646" d="M215.8,131.877l-7.159,3.013a.426.426,0,1,1-.331-.785l7.159-3.013a.426.426,0,1,1,.331.785Z" transform="translate(-208.05 -131.058)" fill="#263238"/>
                          </g>
                        </g>
                      </g>
                    </g>
                  </g>
                  <path id="Trazado_141647" data-name="Trazado 141647" d="M156,310.2l-11.162,4.7L123.8,264.917a12.384,12.384,0,0,0,3.517-6.9c1.255-6.7.37-28.222,17.133-30.443s2.623,35.473,3.4,42.659C148.554,276.779,158.106,295.794,156,310.2Z" transform="translate(-74.953 -98.578)" fill="rgba(0,0,0,0.7)" opacity="0.2"/>
                </g>
                <path id="Trazado_141649" data-name="Trazado 141649" d="M252.43,233.349,144.145,278.921l-11.162,4.7-21.036-49.982L63.1,117.572,182.547,67.3Z" transform="translate(-63.1 -67.3)" fill="none" stroke="#263238" stroke-linecap="round" stroke-linejoin="round" stroke-width="1"/>
              </g>
              <g id="Grupo_70582" data-name="Grupo 70582" transform="translate(0 115.26)">
                <path id="Trazado_141650" data-name="Trazado 141650" d="M132.077,269.65c1.878-6.425,9.218-27.05,8.255-36.169a8.914,8.914,0,0,0-.513-2.22c-2.576-6.809-13.105-6.15-17.146-.508-4.44,6.205-8.067,17.371-8.376,24.167a21.013,21.013,0,0,1-3.184,9.542c-.006.015-.006.023-.014.03a23.57,23.57,0,0,1-2.13,3.026l-24.019-56.99a32.527,32.527,0,0,0-6.285,7.015,11.475,11.475,0,0,0-1.846,4.885c-.493,5.613-6.85,28.676-9.493,38.409-.051.209-.109.4-.16.6-2.541,9.352,4.169,44.085,2.25,54.173s-3.112,9.864-3.391,17.029c-.2,5.232-7.688,21.136-16.072,37.462-4.807,9.357-9.913,18.844-14.121,26.532l61.417-2.55c1.065-7.462,2.155-15.339,3.152-22.962a85.768,85.768,0,0,1,1.835-9.427v-.007c1.356-5.471,3.006-10.422,4.011-13.319a125.49,125.49,0,0,0,3.205-12.953c7.142-7.56,16.509-19.445,19.223-27.5.007-.014.014-.037.02-.052a10,10,0,0,0,.612-5.226,24.211,24.211,0,0,1-.486-4.4c.007-.007.007-.007,0-.014C128.508,289.512,130.5,275,132.077,269.65Z" transform="translate(-35.83 -210.527)" fill="#ffcfb4"/>
                <path id="Trazado_141651" data-name="Trazado 141651" d="M121.492,264.492c-1.9,3.823-4.2,7.536-5.664,11.82s-3.037,4.89-7.336,8.242-7.436-2.17-7.436-2.17,5.687-5.91,3.8-9.2-8.969-11.478-8.549-15.993-4.292-14.638-4.292-14.638,10.724-6.3,8.643-13.652c-1.136-4.029-6.751-8.315-11.6-11.361a32.527,32.527,0,0,1,6.285-7.015l24.019,56.99A23.57,23.57,0,0,0,121.492,264.492Z" transform="translate(-46.224 -210.527)" fill="#e2b88e" opacity="0.4"/>
                <path id="Trazado_141652" data-name="Trazado 141652" d="M75.573,311.657c.146.483,3.636,12.018.691,16.823-3.014,4.911-5.972,11.174-4.532,17.7,1.149,5.211-8.507,24.047-18.354,36.129,8.384-16.326,15.868-32.23,16.072-37.462.279-7.165,1.465-6.947,3.391-17.029s-4.791-44.821-2.25-54.173c.051-.195.109-.389.16-.6,1.875,10.6,6.243,31.7,7.442,38.49C79.721,320.176,75.734,312,75.573,311.657Z" transform="translate(-39.257 -222.734)" fill="#e2b88e" opacity="0.4"/>
                <path id="Trazado_141653" data-name="Trazado 141653" d="M108.44,392.667c7.135-30.73,31.158-54.3,34.411-61.119-2.714,8.051-12.081,19.935-19.223,27.5A125.49,125.49,0,0,1,120.423,372c-1,2.9-2.655,7.848-4.011,13.319v.007C109.438,393.542,108.44,392.667,108.44,392.667Z" transform="translate(-50.008 -234.158)" fill="#e2b88e" opacity="0.4"/>
                <path id="Trazado_141654" data-name="Trazado 141654" d="M152.725,274.586c-1.575,5.354-3.569,19.862-3.259,28.578-1.263-5.473-3.7-12.422-4.1-22.1-.682-16.417,8.617-10.529,5.374-18.613s-12.488,2.28-7.932-14.843c3.328-12.5,12.794-12.382,17.657-11.408a8.913,8.913,0,0,1,.513,2.22C161.943,247.535,154.6,268.161,152.725,274.586Z" transform="translate(-56.478 -215.463)" fill="#e2b88e" opacity="0.4"/>
                <g id="Grupo_70581" data-name="Grupo 70581" transform="translate(9.34)">
                  <path id="Trazado_141655" data-name="Trazado 141655" d="M47.436,379.681c7.7-14.072,15.191-28.548,20.588-44.163.647-2.246-.214-5.17.432-7.416,7.295-20.275-.979-41.384.377-62.154,1.14-8.184,3.756-16.429,6.373-24.676,1.232-5.969,1.694-12.646,3.664-18.646,2.032-4.523,4.033-9.784,8.345-12.1,8.207,18.811,16.39,37.7,24.019,56.99,3.446-1.993,4-6.454,4.585-10.177,1.847-8.953,3.725-17.169,7.111-24.707,3.447-6.061,12.217-8.644,17.6-3.69a8.39,8.39,0,0,1,2.461,5.816c-1.048,10.4-4.31,20.892-7.6,30.644-1.293,4.493-2.617,8.246-3.171,12.708.062,1.477.093,2.215.154,3.692-1.909,7.477-.156,14.062-.587,21.477-1.663,13.384-12.372,22.706-20.1,32.643-1.909,7.477-3.818,14.954-6.464,22.461-3.233,11.23-4.249,22.368-5.352,33.194" transform="translate(-47.436 -210.527)" fill="none" stroke="#263238" stroke-linecap="round" stroke-linejoin="round" stroke-width="1"/>
                  <path id="Trazado_141656" data-name="Trazado 141656" d="M123.74,281.346a50.25,50.25,0,0,0-3.537,8.794c-1.007,3.944-6.1,3.375-8.732,5.825" transform="translate(-59.94 -224.356)" fill="none" stroke="#263238" stroke-linecap="round" stroke-linejoin="round" stroke-width="1"/>
                  <path id="Trazado_141657" data-name="Trazado 141657" d="M102.843,272.719s6.93,2.443,10.962,5.592a21.583,21.583,0,0,0,7.018,3.918" transform="translate(-58.255 -222.671)" fill="none" stroke="#263238" stroke-linecap="round" stroke-linejoin="round" stroke-width="1"/>
                  <path id="Trazado_141658" data-name="Trazado 141658" d="M97.35,249.83s5.591,1.568,9.738-.4a37.2,37.2,0,0,1,1.051-5.945" transform="translate(-57.183 -216.962)" fill="none" stroke="#263238" stroke-linecap="round" stroke-linejoin="round" stroke-width="1"/>
                  <path id="Trazado_141659" data-name="Trazado 141659" d="M111.106,251.877s.058.779,2.909.812" transform="translate(-59.869 -218.601)" fill="none" stroke="#263238" stroke-linecap="round" stroke-linejoin="round" stroke-width="1"/>
                  <path id="Trazado_141660" data-name="Trazado 141660" d="M125.179,365.72a38.116,38.116,0,0,0-8.788,13.864" transform="translate(-60.901 -240.831)" fill="none" stroke="#263238" stroke-linecap="round" stroke-linejoin="round" stroke-width="1"/>
                  <path id="Trazado_141661" data-name="Trazado 141661" d="M74.353,275.924c-.25,4.819,5.41,21.95,7.129,30.462s2.359,14.534,2.359,14.534" transform="translate(-52.69 -223.297)" fill="none" stroke="#263238" stroke-linecap="round" stroke-linejoin="round" stroke-width="1"/>
                </g>
              </g>
            </g>
          </g>
        </g>
      </g>
    </g>
  </g>
</svg>
