<svg xmlns="http://www.w3.org/2000/svg" width="568.426" height="256.627" viewBox="0 0 568.426 256.627">
  <g id="img6" transform="translate(-460.884 -3383.404)">
    <g id="Grupo_78736" data-name="Grupo 78736" transform="translate(460.884 3383.404)">
      <rect id="Rectángulo_33949" data-name="Rectángulo 33949" width="125.342" height="44.258" rx="5.255" fill="#5e6178"/>
      <path id="Trazado_143679" data-name="Trazado 143679" d="M492.9,883.176l8.118,8.118a4.584,4.584,0,0,0,6.482,0l7.576-7.575" transform="translate(-441.32 -842.309)" fill="#5e6178"/>
    </g>
    <g id="Grupo_78742" data-name="Grupo 78742" transform="translate(875.367 3383.404)">
      <rect id="Rectángulo_33949-2" data-name="Rectángulo 33949" width="152.144" height="44.258" rx="5.255" fill="#d9a171"/>
      <path id="Trazado_143679-2" data-name="Trazado 143679" d="M492.9,883.176l8.118,8.118a4.584,4.584,0,0,0,6.482,0l7.576-7.575" transform="translate(-427.919 -842.309)" fill="#d9a171"/>
    </g>
    <g id="Grupo_78737" data-name="Grupo 78737" transform="translate(460.884 3483.257)">
      <rect id="Rectángulo_33949-3" data-name="Rectángulo 33949" width="125.342" height="44.258" rx="5.255" fill="#6595bf"/>
      <path id="Trazado_143679-3" data-name="Trazado 143679" d="M492.9,883.176l8.118,8.118a4.584,4.584,0,0,0,6.482,0l7.576-7.575" transform="translate(-441.32 -842.309)" fill="#6595bf"/>
    </g>
    <g id="Grupo_78743" data-name="Grupo 78743" transform="translate(874.425 3483.257)">
      <rect id="Rectángulo_33949-4" data-name="Rectángulo 33949" width="154.885" height="70.249" rx="5.255" fill="#5e6178"/>
    </g>
    <g id="Grupo_78738" data-name="Grupo 78738" transform="translate(460.884 3592.53)">
      <rect id="Rectángulo_33949-5" data-name="Rectángulo 33949" width="125.342" height="44.258" rx="5.255" fill="#d9a171"/>
      <path id="Trazado_143679-4" data-name="Trazado 143679" d="M0,9.461,8.118,1.342a4.584,4.584,0,0,1,6.482,0l7.576,7.575" transform="translate(131.458 11.901) rotate(90)" fill="#d9a171"/>
    </g>
    <g id="Grupo_78741" data-name="Grupo 78741" transform="translate(646.459 3383.404)">
      <rect id="Rectángulo_33949-6" data-name="Rectángulo 33949" width="155.872" height="44.258" rx="5.255" fill="#6595bf"/>
      <path id="Trazado_143679-5" data-name="Trazado 143679" d="M0,9.461,8.118,1.342a4.584,4.584,0,0,1,6.482,0l7.576,7.575" transform="translate(161.988 11.901) rotate(90)" fill="#6595bf"/>
    </g>
    <g id="Grupo_78739" data-name="Grupo 78739" transform="translate(650.227 3589.704)">
      <rect id="Rectángulo_33949-7" data-name="Rectángulo 33949" width="125.342" height="44.257" rx="5.255" transform="translate(0 6.07)" fill="#6595bf"/>
      <path id="Trazado_143679-6" data-name="Trazado 143679" d="M492.9,892.637l8.118-8.118a4.584,4.584,0,0,1,6.482,0l7.576,7.575" transform="translate(-441.32 -883.176)" fill="#6595bf"/>
    </g>
    <g id="Grupo_78740" data-name="Grupo 78740" transform="translate(650.227 3483.257)">
      <rect id="Rectángulo_33949-8" data-name="Rectángulo 33949" width="125.342" height="44.257" rx="5.255" transform="translate(0 6.07)" fill="#d9a171"/>
      <path id="Trazado_143679-7" data-name="Trazado 143679" d="M492.9,892.637l8.118-8.118a4.584,4.584,0,0,1,6.482,0l7.576,7.575" transform="translate(-441.32 -883.176)" fill="#d9a171"/>
    </g>
    <path id="Trazado_143680" data-name="Trazado 143680" d="M38.492,5.46Q34.605,2.953,30.721.443a3.427,3.427,0,0,0-.669-.371,1.3,1.3,0,0,0-1.583.635A1.263,1.263,0,0,0,28.91,2.4c1.276.849,2.569,1.675,3.852,2.512.063.041.123.086.17.123H1.579A1.53,1.53,0,0,0,0,6.508,1.529,1.529,0,0,0,1.579,7.985H33.746C32.139,9.01,30.663,9.947,29.2,10.892a2.656,2.656,0,0,0-.668.555,1.266,1.266,0,0,0,.026,1.533,1.317,1.317,0,0,0,1.521.426,4.135,4.135,0,0,0,.621-.351q3.9-2.49,7.8-4.988C39.729,7.282,39.724,6.257,38.492,5.46Z" transform="translate(529.958 3438.149) rotate(90)" fill="#6595bf"/>
    <path id="Trazado_143686" data-name="Trazado 143686" d="M38.492,5.46Q34.605,2.953,30.721.443a3.427,3.427,0,0,0-.669-.371,1.3,1.3,0,0,0-1.583.635A1.263,1.263,0,0,0,28.91,2.4c1.276.849,2.569,1.675,3.852,2.512.063.041.123.086.17.123H1.579A1.53,1.53,0,0,0,0,6.508,1.529,1.529,0,0,0,1.579,7.985H33.746C32.139,9.01,30.663,9.947,29.2,10.892a2.656,2.656,0,0,0-.668.555,1.266,1.266,0,0,0,.026,1.533,1.317,1.317,0,0,0,1.521.426,4.135,4.135,0,0,0,.621-.351q3.9-2.49,7.8-4.988C39.729,7.282,39.724,6.257,38.492,5.46Z" transform="translate(958.57 3438.149) rotate(90)" fill="#6595bf"/>
    <path id="Trazado_143685" data-name="Trazado 143685" d="M38.492,8.035q-3.886,2.507-7.771,5.017a3.423,3.423,0,0,1-.669.371,1.3,1.3,0,0,1-1.583-.635A1.263,1.263,0,0,1,28.91,11.1c1.276-.849,2.569-1.675,3.852-2.512.063-.041.123-.086.17-.123H1.579A1.53,1.53,0,0,1,0,6.988,1.529,1.529,0,0,1,1.579,5.511H33.746C32.139,4.485,30.663,3.549,29.2,2.6a2.661,2.661,0,0,1-.668-.555A1.266,1.266,0,0,1,28.558.515,1.317,1.317,0,0,1,30.08.089a4.135,4.135,0,0,1,.62.35q3.9,2.49,7.8,4.988C39.729,6.213,39.724,7.239,38.492,8.035Z" transform="translate(816.247 3398.794)" fill="#6595bf"/>
    <path id="Trazado_143681" data-name="Trazado 143681" d="M38.492,5.46Q34.605,2.953,30.721.443a3.427,3.427,0,0,0-.669-.371,1.3,1.3,0,0,0-1.583.635A1.263,1.263,0,0,0,28.91,2.4c1.276.849,2.569,1.675,3.852,2.512.063.041.123.086.17.123H1.579A1.53,1.53,0,0,0,0,6.508,1.529,1.529,0,0,0,1.579,7.985H33.746C32.139,9.01,30.663,9.947,29.2,10.892a2.656,2.656,0,0,0-.668.555,1.266,1.266,0,0,0,.026,1.533,1.317,1.317,0,0,0,1.521.426,4.135,4.135,0,0,0,.621-.351q3.9-2.49,7.8-4.988C39.729,7.282,39.724,6.257,38.492,5.46Z" transform="translate(529.958 3543.653) rotate(90)" fill="#6595bf"/>
    <path id="Trazado_143683" data-name="Trazado 143683" d="M38.492,8.035q-3.886,2.507-7.771,5.017a3.423,3.423,0,0,1-.669.371,1.3,1.3,0,0,1-1.583-.635A1.263,1.263,0,0,1,28.91,11.1c1.276-.849,2.569-1.675,3.852-2.512.063-.041.123-.086.17-.123H1.579A1.53,1.53,0,0,1,0,6.988,1.529,1.529,0,0,1,1.579,5.511H33.746C32.139,4.485,30.663,3.549,29.2,2.6a2.661,2.661,0,0,1-.668-.555A1.266,1.266,0,0,1,28.558.515,1.317,1.317,0,0,1,30.08.089a4.135,4.135,0,0,1,.62.35q3.9,2.49,7.8,4.988C39.729,6.213,39.724,7.239,38.492,8.035Z" transform="translate(705.806 3583.073) rotate(-90)" fill="#6595bf"/>
    <path id="Trazado_143684" data-name="Trazado 143684" d="M38.492,8.035q-3.886,2.507-7.771,5.017a3.423,3.423,0,0,1-.669.371,1.3,1.3,0,0,1-1.583-.635A1.263,1.263,0,0,1,28.91,11.1c1.276-.849,2.569-1.675,3.852-2.512.063-.041.123-.086.17-.123H1.579A1.53,1.53,0,0,1,0,6.988,1.529,1.529,0,0,1,1.579,5.511H33.746C32.139,4.485,30.663,3.549,29.2,2.6a2.661,2.661,0,0,1-.668-.555A1.266,1.266,0,0,1,28.558.515,1.317,1.317,0,0,1,30.08.089a4.135,4.135,0,0,1,.62.35q3.9,2.49,7.8,4.988C39.729,6.213,39.724,7.239,38.492,8.035Z" transform="translate(705.806 3476.626) rotate(-90)" fill="#6595bf"/>
    <path id="Trazado_143682" data-name="Trazado 143682" d="M1249.919,2566.557q-3.886-2.507-7.771-5.017a3.427,3.427,0,0,0-.669-.371,1.3,1.3,0,0,0-1.583.635,1.263,1.263,0,0,0,.442,1.688c1.276.849,2.569,1.675,3.852,2.512.063.041.123.086.17.123h-31.353a1.48,1.48,0,1,0,0,2.954h32.167c-1.607,1.025-3.083,1.962-4.546,2.907a2.656,2.656,0,0,0-.668.555,1.266,1.266,0,0,0,.026,1.533,1.317,1.317,0,0,0,1.521.426,4.135,4.135,0,0,0,.621-.351q3.9-2.49,7.8-4.988C1251.156,2568.379,1251.151,2567.354,1249.919,2566.557Z" transform="translate(-612.784 1047.447)" fill="#6595bf"/>
    <path id="Trazado_143868" data-name="Trazado 143868" d="M22.021,13.211A4.025,4.025,0,0,1,20.666,16.1a4.76,4.76,0,0,1-3.223,1.055A4.28,4.28,0,0,1,14,15.684a6.038,6.038,0,0,1-1.254-4.043v-.7a6.819,6.819,0,0,1,.578-2.891,4.332,4.332,0,0,1,1.652-1.918,4.629,4.629,0,0,1,2.5-.668,4.637,4.637,0,0,1,3.172,1.055,4.326,4.326,0,0,1,1.391,2.961H19.693a2.376,2.376,0,0,0-.613-1.6,2.271,2.271,0,0,0-1.605-.5,1.991,1.991,0,0,0-1.754.84,4.707,4.707,0,0,0-.6,2.605V11.7a5.038,5.038,0,0,0,.559,2.7,1.954,1.954,0,0,0,1.762.852,2.314,2.314,0,0,0,1.621-.5,2.241,2.241,0,0,0,.613-1.535ZM23.06,12.7a5.013,5.013,0,0,1,.484-2.242A3.546,3.546,0,0,1,24.939,8.93a4.069,4.069,0,0,1,2.113-.539,3.849,3.849,0,0,1,2.793,1.047,4.2,4.2,0,0,1,1.207,2.844l.016.578a4.418,4.418,0,0,1-1.086,3.121,3.775,3.775,0,0,1-2.914,1.176,3.793,3.793,0,0,1-2.918-1.172A4.5,4.5,0,0,1,23.06,12.8Zm2.258.16a3.16,3.16,0,0,0,.453,1.843,1.628,1.628,0,0,0,2.578.008,3.457,3.457,0,0,0,.461-2.015,3.128,3.128,0,0,0-.461-1.831,1.5,1.5,0,0,0-1.3-.649,1.474,1.474,0,0,0-1.281.646A3.516,3.516,0,0,0,25.318,12.856Zm9.258-4.309.07.945a2.971,2.971,0,0,1,2.43-1.1A2.255,2.255,0,0,1,39.318,9.68a2.9,2.9,0,0,1,2.539-1.289,2.521,2.521,0,0,1,2.047.8,3.681,3.681,0,0,1,.672,2.41V17H42.31V11.609a1.61,1.61,0,0,0-.281-1.051,1.246,1.246,0,0,0-.992-.332,1.409,1.409,0,0,0-1.406.969l.008,5.8H37.381V11.617a1.59,1.59,0,0,0-.289-1.062,1.259,1.259,0,0,0-.984-.328,1.463,1.463,0,0,0-1.391.8V17H32.459V8.547Zm19.344,4.3a5.07,5.07,0,0,1-.887,3.129,2.843,2.843,0,0,1-2.395,1.176,2.633,2.633,0,0,1-2.07-.891V20.25H46.31V8.547H48.4l.078.828a2.654,2.654,0,0,1,2.141-.984,2.862,2.862,0,0,1,2.43,1.156,5.207,5.207,0,0,1,.867,3.188Zm-2.258-.164a3.327,3.327,0,0,0-.418-1.82,1.361,1.361,0,0,0-1.215-.641,1.479,1.479,0,0,0-1.461.813V14.5a1.5,1.5,0,0,0,1.477.836Q51.662,15.336,51.662,12.688ZM60.216,17a2.507,2.507,0,0,1-.227-.758,2.732,2.732,0,0,1-2.133.914,3,3,0,0,1-2.059-.719,2.312,2.312,0,0,1-.816-1.812,2.389,2.389,0,0,1,1-2.062,4.915,4.915,0,0,1,2.879-.727H59.9v-.484a1.393,1.393,0,0,0-.3-.937,1.183,1.183,0,0,0-.949-.352,1.345,1.345,0,0,0-.895.273.929.929,0,0,0-.324.75H55.17a2.268,2.268,0,0,1,.453-1.359,3,3,0,0,1,1.281-.98,4.669,4.669,0,0,1,1.859-.355,3.689,3.689,0,0,1,2.48.785,2.747,2.747,0,0,1,.918,2.207v3.664a4.041,4.041,0,0,0,.336,1.82V17Zm-1.867-1.57a1.945,1.945,0,0,0,.922-.223,1.462,1.462,0,0,0,.625-.6V13.156h-.844q-1.7,0-1.8,1.172l-.008.133a.9.9,0,0,0,.3.7A1.153,1.153,0,0,0,58.349,15.43Zm7.625-6.883.07.977a2.951,2.951,0,0,1,2.43-1.133,2.453,2.453,0,0,1,2,.789,3.682,3.682,0,0,1,.672,2.359V17H68.888V11.594a1.465,1.465,0,0,0-.312-1.043,1.4,1.4,0,0,0-1.039-.324,1.553,1.553,0,0,0-1.43.813V17H63.849V8.547ZM70.459,5.1a2.187,2.187,0,0,1-.516,1.48,1.6,1.6,0,0,1-1.258.6,1.908,1.908,0,0,1-.527-.066,3.539,3.539,0,0,1-.637-.285,3.435,3.435,0,0,0-.586-.27,1.432,1.432,0,0,0-.391-.051.627.627,0,0,0-.465.2.759.759,0,0,0-.191.555L64.576,7.18A2.22,2.22,0,0,1,65.088,5.7a1.578,1.578,0,0,1,1.254-.609,1.614,1.614,0,0,1,.441.059,4.861,4.861,0,0,1,.676.285,4.392,4.392,0,0,0,.648.273,1.48,1.48,0,0,0,.375.047.659.659,0,0,0,.473-.191.728.728,0,0,0,.2-.551ZM75.295,17H73.037V8.547h2.258ZM74.631,5.117h2.461L74.927,7.539H73.091ZM82.138,17a2.507,2.507,0,0,1-.227-.758,2.732,2.732,0,0,1-2.133.914,3,3,0,0,1-2.059-.719,2.312,2.312,0,0,1-.816-1.812,2.389,2.389,0,0,1,1-2.062,4.915,4.915,0,0,1,2.879-.727h1.039v-.484a1.393,1.393,0,0,0-.3-.937,1.183,1.183,0,0,0-.949-.352,1.345,1.345,0,0,0-.895.273.929.929,0,0,0-.324.75H77.091a2.268,2.268,0,0,1,.453-1.359,3,3,0,0,1,1.281-.98,4.669,4.669,0,0,1,1.859-.355,3.689,3.689,0,0,1,2.48.785,2.747,2.747,0,0,1,.918,2.207v3.664a4.041,4.041,0,0,0,.336,1.82V17Zm-1.867-1.57a1.945,1.945,0,0,0,.922-.223,1.462,1.462,0,0,0,.625-.6V13.156h-.844q-1.7,0-1.8,1.172l-.008.133a.9.9,0,0,0,.3.7A1.153,1.153,0,0,0,80.271,15.43Z" transform="translate(475.014 3396.593)" fill="#fff"/>
    <path id="Trazado_143869" data-name="Trazado 143869" d="M15.385,13.211A4.025,4.025,0,0,1,14.029,16.1a4.76,4.76,0,0,1-3.223,1.055,4.28,4.28,0,0,1-3.441-1.473,6.038,6.038,0,0,1-1.254-4.043v-.7a6.819,6.819,0,0,1,.578-2.891A4.332,4.332,0,0,1,8.342,6.137a4.629,4.629,0,0,1,2.5-.668A4.637,4.637,0,0,1,14.01,6.523,4.326,4.326,0,0,1,15.4,9.484H13.056a2.376,2.376,0,0,0-.613-1.6,2.271,2.271,0,0,0-1.605-.5,1.991,1.991,0,0,0-1.754.84,4.707,4.707,0,0,0-.6,2.605V11.7a5.038,5.038,0,0,0,.559,2.7,1.954,1.954,0,0,0,1.762.852,2.314,2.314,0,0,0,1.621-.5,2.241,2.241,0,0,0,.613-1.535Zm6.453,2.93a2.831,2.831,0,0,1-2.312,1.016,2.67,2.67,0,0,1-2.074-.781,3.335,3.335,0,0,1-.73-2.289V8.547h2.258v5.467q0,1.322,1.2,1.322a1.63,1.63,0,0,0,1.578-.8V8.547h2.266V17H21.9Zm7.781,1.016a4.15,4.15,0,0,1-3.027-1.141,4.054,4.054,0,0,1-1.168-3.039v-.219a5.106,5.106,0,0,1,.492-2.277A3.612,3.612,0,0,1,27.31,8.934a3.914,3.914,0,0,1,2.059-.543A3.508,3.508,0,0,1,32.1,9.484a4.444,4.444,0,0,1,1,3.1v.922H27.713a2.1,2.1,0,0,0,.66,1.328,2,2,0,0,0,1.395.5,2.437,2.437,0,0,0,2.039-.945l1.109,1.242a3.389,3.389,0,0,1-1.375,1.121A4.511,4.511,0,0,1,29.619,17.156Zm-.258-6.945a1.411,1.411,0,0,0-1.09.455,2.357,2.357,0,0,0-.535,1.3h3.141v-.181a1.681,1.681,0,0,0-.406-1.165A1.456,1.456,0,0,0,29.361,10.211Zm7.094-1.664.07.977a2.951,2.951,0,0,1,2.43-1.133,2.453,2.453,0,0,1,2,.789,3.682,3.682,0,0,1,.672,2.359V17H39.369V11.594a1.465,1.465,0,0,0-.312-1.043,1.4,1.4,0,0,0-1.039-.324,1.553,1.553,0,0,0-1.43.813V17H34.33V8.547Zm9.586-2.078V8.547h1.445V10.2H46.041v4.219a1.007,1.007,0,0,0,.18.672.9.9,0,0,0,.688.2,3.6,3.6,0,0,0,.664-.055v1.711a4.648,4.648,0,0,1-1.367.2,2.156,2.156,0,0,1-2.422-2.4V10.2H42.549V8.547h1.234V6.469ZM53.642,17a2.507,2.507,0,0,1-.227-.758,2.732,2.732,0,0,1-2.133.914,3,3,0,0,1-2.059-.719,2.312,2.312,0,0,1-.816-1.812,2.389,2.389,0,0,1,1-2.062,4.915,4.915,0,0,1,2.879-.727h1.039v-.484a1.393,1.393,0,0,0-.3-.937,1.183,1.183,0,0,0-.949-.352,1.345,1.345,0,0,0-.895.273.929.929,0,0,0-.324.75H48.6a2.268,2.268,0,0,1,.453-1.359,3,3,0,0,1,1.281-.98,4.669,4.669,0,0,1,1.859-.355,3.689,3.689,0,0,1,2.48.785,2.747,2.747,0,0,1,.918,2.207v3.664a4.041,4.041,0,0,0,.336,1.82V17Zm-1.867-1.57a1.945,1.945,0,0,0,.922-.223,1.462,1.462,0,0,0,.625-.6V13.156h-.844q-1.7,0-1.8,1.172l-.008.133a.9.9,0,0,0,.3.7A1.153,1.153,0,0,0,51.775,15.43Zm13.047-.094a1.481,1.481,0,0,0,1.016-.344,1.2,1.2,0,0,0,.406-.914h2.117a2.9,2.9,0,0,1-.469,1.574,3.093,3.093,0,0,1-1.262,1.109,3.949,3.949,0,0,1-1.77.395A3.67,3.67,0,0,1,62,16a4.56,4.56,0,0,1-1.047-3.184v-.148a4.508,4.508,0,0,1,1.039-3.117,3.627,3.627,0,0,1,2.852-1.164,3.555,3.555,0,0,1,2.543.9,3.2,3.2,0,0,1,.973,2.4H66.244a1.551,1.551,0,0,0-.406-1.072,1.51,1.51,0,0,0-2.223.163,3.333,3.333,0,0,0-.4,1.866v.235a3.375,3.375,0,0,0,.4,1.878A1.377,1.377,0,0,0,64.822,15.336ZM69.3,12.7a5.013,5.013,0,0,1,.484-2.242A3.546,3.546,0,0,1,71.178,8.93a4.069,4.069,0,0,1,2.113-.539,3.849,3.849,0,0,1,2.793,1.047,4.2,4.2,0,0,1,1.207,2.844l.016.578a4.418,4.418,0,0,1-1.086,3.121,4.209,4.209,0,0,1-5.832,0A4.5,4.5,0,0,1,69.3,12.8Zm2.258.16A3.16,3.16,0,0,0,72.01,14.7a1.628,1.628,0,0,0,2.578.008,3.457,3.457,0,0,0,.461-2.015,3.128,3.128,0,0,0-.461-1.831,1.5,1.5,0,0,0-1.3-.649,1.474,1.474,0,0,0-1.281.646A3.516,3.516,0,0,0,71.556,12.856Zm9.219-4.309.07.977a2.951,2.951,0,0,1,2.43-1.133,2.453,2.453,0,0,1,2,.789,3.682,3.682,0,0,1,.672,2.359V17H83.689V11.594a1.465,1.465,0,0,0-.312-1.043,1.4,1.4,0,0,0-1.039-.324,1.553,1.553,0,0,0-1.43.813V17H78.65V8.547Zm9.586-2.078V8.547h1.445V10.2H90.361v4.219a1.007,1.007,0,0,0,.18.672.9.9,0,0,0,.688.2,3.6,3.6,0,0,0,.664-.055v1.711a4.648,4.648,0,0,1-1.367.2,2.156,2.156,0,0,1-2.422-2.4V10.2H86.869V8.547H88.1V6.469ZM97.963,17a2.507,2.507,0,0,1-.227-.758,2.732,2.732,0,0,1-2.133.914,3,3,0,0,1-2.059-.719,2.312,2.312,0,0,1-.816-1.812,2.389,2.389,0,0,1,1-2.062,4.915,4.915,0,0,1,2.879-.727h1.039v-.484a1.393,1.393,0,0,0-.3-.937,1.183,1.183,0,0,0-.949-.352,1.345,1.345,0,0,0-.895.273.929.929,0,0,0-.324.75H92.916a2.268,2.268,0,0,1,.453-1.359,3,3,0,0,1,1.281-.98,4.669,4.669,0,0,1,1.859-.355,3.689,3.689,0,0,1,2.48.785,2.747,2.747,0,0,1,.918,2.207v3.664a4.041,4.041,0,0,0,.336,1.82V17ZM96.1,15.43a1.945,1.945,0,0,0,.922-.223,1.462,1.462,0,0,0,.625-.6V13.156H96.8q-1.7,0-1.8,1.172l-.008.133a.9.9,0,0,0,.3.7A1.153,1.153,0,0,0,96.1,15.43Zm13.164-2.578a5.119,5.119,0,0,1-.867,3.168,2.872,2.872,0,0,1-2.422,1.137,2.639,2.639,0,0,1-2.2-1.055l-.1.9h-2.031V5H103.9V9.3a2.571,2.571,0,0,1,2.055-.914,2.9,2.9,0,0,1,2.426,1.137,5.126,5.126,0,0,1,.879,3.2ZM107,12.688a3.363,3.363,0,0,0-.406-1.871,1.374,1.374,0,0,0-1.211-.59,1.489,1.489,0,0,0-1.484.883v3.336a1.509,1.509,0,0,0,1.5.891,1.394,1.394,0,0,0,1.438-1.078A5.562,5.562,0,0,0,107,12.688ZM113.033,17h-2.266V5h2.266Zm5.75.156a4.15,4.15,0,0,1-3.027-1.141,4.054,4.054,0,0,1-1.168-3.039v-.219a5.106,5.106,0,0,1,.492-2.277,3.612,3.612,0,0,1,1.395-1.547,3.914,3.914,0,0,1,2.059-.543,3.508,3.508,0,0,1,2.73,1.094,4.444,4.444,0,0,1,1,3.1v.922h-5.383a2.1,2.1,0,0,0,.66,1.328,2,2,0,0,0,1.395.5,2.437,2.437,0,0,0,2.039-.945l1.109,1.242a3.389,3.389,0,0,1-1.375,1.121A4.511,4.511,0,0,1,118.783,17.156Zm-.258-6.945a1.411,1.411,0,0,0-1.09.455,2.357,2.357,0,0,0-.535,1.3h3.141v-.181a1.681,1.681,0,0,0-.406-1.165A1.456,1.456,0,0,0,118.525,10.211Z" transform="translate(663.415 3395.65)" fill="#12263f"/>
    <path id="Trazado_143870" data-name="Trazado 143870" d="M23.861,17V5.625h3.5a5.315,5.315,0,0,1,2.684.676,4.712,4.712,0,0,1,1.848,1.922,5.928,5.928,0,0,1,.664,2.832v.523A5.945,5.945,0,0,1,31.9,14.4a4.672,4.672,0,0,1-1.84,1.914,5.355,5.355,0,0,1-2.68.688ZM26.2,7.523v7.594h1.133a2.545,2.545,0,0,0,2.1-.9,4.06,4.06,0,0,0,.742-2.57v-.6a4.124,4.124,0,0,0-.719-2.629,2.537,2.537,0,0,0-2.1-.895ZM33.76,12.7a5.013,5.013,0,0,1,.484-2.242A3.546,3.546,0,0,1,35.638,8.93a4.069,4.069,0,0,1,2.113-.539,3.849,3.849,0,0,1,2.793,1.047,4.2,4.2,0,0,1,1.207,2.844l.016.578a4.418,4.418,0,0,1-1.086,3.121,4.209,4.209,0,0,1-5.832,0A4.5,4.5,0,0,1,33.76,12.8Zm2.258.16a3.16,3.16,0,0,0,.453,1.843,1.628,1.628,0,0,0,2.578.008,3.457,3.457,0,0,0,.461-2.015,3.128,3.128,0,0,0-.461-1.831,1.5,1.5,0,0,0-1.3-.649,1.474,1.474,0,0,0-1.281.646A3.516,3.516,0,0,0,36.017,12.856Zm10.656,2.48a1.481,1.481,0,0,0,1.016-.344,1.2,1.2,0,0,0,.406-.914h2.117a2.9,2.9,0,0,1-.469,1.574,3.093,3.093,0,0,1-1.262,1.109,3.949,3.949,0,0,1-1.77.395A3.67,3.67,0,0,1,43.853,16a4.56,4.56,0,0,1-1.047-3.184v-.148a4.508,4.508,0,0,1,1.039-3.117A3.627,3.627,0,0,1,46.7,8.391a3.555,3.555,0,0,1,2.543.9,3.2,3.2,0,0,1,.973,2.4H48.1a1.551,1.551,0,0,0-.406-1.072,1.51,1.51,0,0,0-2.223.163,3.333,3.333,0,0,0-.4,1.866v.235a3.375,3.375,0,0,0,.4,1.878A1.377,1.377,0,0,0,46.674,15.336Zm9.891.8a2.831,2.831,0,0,1-2.312,1.016,2.67,2.67,0,0,1-2.074-.781,3.335,3.335,0,0,1-.73-2.289V8.547H53.7v5.467q0,1.322,1.2,1.322a1.63,1.63,0,0,0,1.578-.8V8.547h2.266V17H56.627Zm6.008-7.594.07.945a2.971,2.971,0,0,1,2.43-1.1A2.255,2.255,0,0,1,67.314,9.68a2.9,2.9,0,0,1,2.539-1.289,2.521,2.521,0,0,1,2.047.8,3.681,3.681,0,0,1,.672,2.41V17H70.306V11.609a1.61,1.61,0,0,0-.281-1.051,1.246,1.246,0,0,0-.992-.332,1.409,1.409,0,0,0-1.406.969l.008,5.8H65.377V11.617a1.59,1.59,0,0,0-.289-1.062,1.259,1.259,0,0,0-.984-.328,1.463,1.463,0,0,0-1.391.8V17H60.455V8.547ZM78.2,17.156a4.15,4.15,0,0,1-3.027-1.141A4.054,4.054,0,0,1,74,12.977v-.219a5.106,5.106,0,0,1,.492-2.277,3.612,3.612,0,0,1,1.395-1.547,3.914,3.914,0,0,1,2.059-.543,3.508,3.508,0,0,1,2.73,1.094,4.444,4.444,0,0,1,1,3.1v.922H76.291a2.1,2.1,0,0,0,.66,1.328,2,2,0,0,0,1.395.5,2.437,2.437,0,0,0,2.039-.945l1.109,1.242a3.389,3.389,0,0,1-1.375,1.121A4.511,4.511,0,0,1,78.2,17.156Zm-.258-6.945a1.411,1.411,0,0,0-1.09.455,2.357,2.357,0,0,0-.535,1.3h3.141v-.181a1.681,1.681,0,0,0-.406-1.165A1.456,1.456,0,0,0,77.939,10.211Zm7.094-1.664.07.977a2.951,2.951,0,0,1,2.43-1.133,2.453,2.453,0,0,1,2,.789,3.682,3.682,0,0,1,.672,2.359V17H87.947V11.594a1.465,1.465,0,0,0-.312-1.043,1.4,1.4,0,0,0-1.039-.324,1.553,1.553,0,0,0-1.43.813V17H82.908V8.547Zm9.586-2.078V8.547h1.445V10.2H94.619v4.219a1.007,1.007,0,0,0,.18.672.9.9,0,0,0,.688.2,3.6,3.6,0,0,0,.664-.055v1.711a4.648,4.648,0,0,1-1.367.2,2.156,2.156,0,0,1-2.422-2.4V10.2H91.127V8.547h1.234V6.469ZM96.736,12.7a5.013,5.013,0,0,1,.484-2.242A3.546,3.546,0,0,1,98.615,8.93a4.069,4.069,0,0,1,2.113-.539,3.849,3.849,0,0,1,2.793,1.047,4.2,4.2,0,0,1,1.207,2.844l.016.578a4.418,4.418,0,0,1-1.086,3.121,4.209,4.209,0,0,1-5.832,0,4.5,4.5,0,0,1-1.09-3.187Zm2.258.16a3.16,3.16,0,0,0,.453,1.843,1.628,1.628,0,0,0,2.578.008,3.457,3.457,0,0,0,.461-2.015,3.128,3.128,0,0,0-.461-1.831,1.5,1.5,0,0,0-1.3-.649,1.474,1.474,0,0,0-1.281.646A3.516,3.516,0,0,0,98.994,12.856Z" transform="translate(887.613 3395.65)" fill="#12263f"/>
    <path id="Trazado_143873" data-name="Trazado 143873" d="M41.564,14.656H37.455L36.673,17H34.181L38.416,5.625h2.172L44.845,17H42.353Zm-3.477-1.9h2.844L39.5,8.5Zm9.75-4.211.07.977a2.951,2.951,0,0,1,2.43-1.133,2.453,2.453,0,0,1,2,.789,3.682,3.682,0,0,1,.672,2.359V17H50.752V11.594a1.465,1.465,0,0,0-.312-1.043,1.4,1.4,0,0,0-1.039-.324,1.553,1.553,0,0,0-1.43.813V17H45.713V8.547ZM52.322,5.1a2.187,2.187,0,0,1-.516,1.48,1.6,1.6,0,0,1-1.258.6,1.908,1.908,0,0,1-.527-.066,3.539,3.539,0,0,1-.637-.285,3.435,3.435,0,0,0-.586-.27,1.432,1.432,0,0,0-.391-.051.627.627,0,0,0-.465.2.759.759,0,0,0-.191.555L46.439,7.18A2.22,2.22,0,0,1,46.951,5.7,1.578,1.578,0,0,1,48.2,5.094a1.614,1.614,0,0,1,.441.059,4.861,4.861,0,0,1,.676.285,4.392,4.392,0,0,0,.648.273,1.48,1.48,0,0,0,.375.047.659.659,0,0,0,.473-.191.728.728,0,0,0,.2-.551ZM54.369,12.7a5.013,5.013,0,0,1,.484-2.242A3.546,3.546,0,0,1,56.248,8.93a4.069,4.069,0,0,1,2.113-.539,3.849,3.849,0,0,1,2.793,1.047,4.2,4.2,0,0,1,1.207,2.844l.016.578a4.418,4.418,0,0,1-1.086,3.121,4.209,4.209,0,0,1-5.832,0,4.5,4.5,0,0,1-1.09-3.187Zm2.258.16A3.16,3.16,0,0,0,57.08,14.7a1.628,1.628,0,0,0,2.578.008,3.457,3.457,0,0,0,.461-2.015,3.128,3.128,0,0,0-.461-1.831,1.5,1.5,0,0,0-1.3-.649,1.474,1.474,0,0,0-1.281.646A3.516,3.516,0,0,0,56.627,12.856Z" transform="translate(475.014 3494.561)" fill="#12263f"/>
    <path id="Trazado_143871" data-name="Trazado 143871" d="M45.25,7.523H41.765V17H39.421V7.523H35.984v-1.9H45.25Zm5.078,9.633A4.15,4.15,0,0,1,47.3,16.016a4.054,4.054,0,0,1-1.168-3.039v-.219a5.106,5.106,0,0,1,.492-2.277,3.612,3.612,0,0,1,1.395-1.547,3.914,3.914,0,0,1,2.059-.543,3.508,3.508,0,0,1,2.73,1.094,4.444,4.444,0,0,1,1,3.1v.922H48.421a2.1,2.1,0,0,0,.66,1.328,2,2,0,0,0,1.395.5,2.437,2.437,0,0,0,2.039-.945l1.109,1.242a3.389,3.389,0,0,1-1.375,1.121A4.511,4.511,0,0,1,50.328,17.156Zm-.258-6.945a1.411,1.411,0,0,0-1.09.455,2.357,2.357,0,0,0-.535,1.3h3.141v-.181a1.681,1.681,0,0,0-.406-1.165A1.456,1.456,0,0,0,50.07,10.211Zm9.766.453a6.134,6.134,0,0,0-.812-.062,1.654,1.654,0,0,0-1.68.867V17H55.085V8.547h2.133l.063,1.008a2.092,2.092,0,0,1,1.883-1.164,2.366,2.366,0,0,1,.7.1Zm4.453,4.672a1.481,1.481,0,0,0,1.016-.344,1.2,1.2,0,0,0,.406-.914h2.117a2.9,2.9,0,0,1-.469,1.574A3.093,3.093,0,0,1,66.1,16.762a3.949,3.949,0,0,1-1.77.395A3.67,3.67,0,0,1,61.468,16a4.56,4.56,0,0,1-1.047-3.184v-.148A4.508,4.508,0,0,1,61.46,9.555a3.627,3.627,0,0,1,2.852-1.164,3.555,3.555,0,0,1,2.543.9,3.2,3.2,0,0,1,.973,2.4H65.71a1.551,1.551,0,0,0-.406-1.072,1.51,1.51,0,0,0-2.223.163,3.333,3.333,0,0,0-.4,1.866v.235a3.375,3.375,0,0,0,.4,1.878A1.377,1.377,0,0,0,64.289,15.336Zm8.719,1.82a4.15,4.15,0,0,1-3.027-1.141,4.054,4.054,0,0,1-1.168-3.039v-.219A5.106,5.106,0,0,1,69.3,10.48,3.612,3.612,0,0,1,70.7,8.934a3.914,3.914,0,0,1,2.059-.543,3.508,3.508,0,0,1,2.73,1.094,4.444,4.444,0,0,1,1,3.1v.922H71.1a2.1,2.1,0,0,0,.66,1.328,2,2,0,0,0,1.395.5,2.437,2.437,0,0,0,2.039-.945L76.3,15.633a3.389,3.389,0,0,1-1.375,1.121A4.511,4.511,0,0,1,73.007,17.156Zm-.258-6.945a1.411,1.411,0,0,0-1.09.455,2.357,2.357,0,0,0-.535,1.3h3.141v-.181a1.681,1.681,0,0,0-.406-1.165A1.456,1.456,0,0,0,72.749,10.211Zm9.766.453A6.134,6.134,0,0,0,81.7,10.6a1.654,1.654,0,0,0-1.68.867V17H77.765V8.547H79.9l.063,1.008a2.092,2.092,0,0,1,1.883-1.164,2.366,2.366,0,0,1,.7.1Zm.453,2.031a5.013,5.013,0,0,1,.484-2.242A3.546,3.546,0,0,1,84.847,8.93a4.069,4.069,0,0,1,2.113-.539,3.849,3.849,0,0,1,2.793,1.047,4.2,4.2,0,0,1,1.207,2.844l.016.578A4.418,4.418,0,0,1,89.89,15.98a4.209,4.209,0,0,1-5.832,0,4.5,4.5,0,0,1-1.09-3.187Zm2.258.16a3.16,3.16,0,0,0,.453,1.843,1.628,1.628,0,0,0,2.578.008,3.457,3.457,0,0,0,.461-2.015,3.128,3.128,0,0,0-.461-1.831,1.5,1.5,0,0,0-1.3-.649,1.474,1.474,0,0,0-1.281.646A3.516,3.516,0,0,0,85.226,12.856ZM27.355,36.375a11.99,11.99,0,0,1,.477-3.406,8.989,8.989,0,0,1,1.406-2.863,5.251,5.251,0,0,1,2.016-1.73l.438,1.219A5.438,5.438,0,0,0,29.91,32.2a12.082,12.082,0,0,0-.641,4.125v.242a12.313,12.313,0,0,0,.633,4.141,5.544,5.544,0,0,0,1.789,2.648l-.437,1.2a5.253,5.253,0,0,1-1.98-1.684,8.838,8.838,0,0,1-1.4-2.785,11.918,11.918,0,0,1-.516-3.3ZM42.269,41H39.925l-4.562-7.484V41H33.019V29.625h2.344l4.57,7.5v-7.5h2.336Zm4.539,0H44.464V29.625h2.344Zm10.734-9.477H54.058V41H51.714V31.523H48.277v-1.9h9.266ZM61.894,36.7a5.013,5.013,0,0,1,.484-2.242,3.546,3.546,0,0,1,1.395-1.523,4.069,4.069,0,0,1,2.113-.539,3.849,3.849,0,0,1,2.793,1.047,4.2,4.2,0,0,1,1.207,2.844l.016.578a4.418,4.418,0,0,1-1.086,3.121,4.209,4.209,0,0,1-5.832,0,4.5,4.5,0,0,1-1.09-3.187Zm2.258.16A3.16,3.16,0,0,0,64.6,38.7a1.628,1.628,0,0,0,2.578.008,3.457,3.457,0,0,0,.461-2.015,3.128,3.128,0,0,0-.461-1.831,1.5,1.5,0,0,0-1.3-.649,1.474,1.474,0,0,0-1.281.646A3.516,3.516,0,0,0,64.152,36.856Zm20.2.355A4.025,4.025,0,0,1,83,40.1a4.76,4.76,0,0,1-3.223,1.055,4.28,4.28,0,0,1-3.441-1.473,6.038,6.038,0,0,1-1.254-4.043v-.7a6.819,6.819,0,0,1,.578-2.891,4.332,4.332,0,0,1,1.652-1.918,5.164,5.164,0,0,1,5.668.387,4.326,4.326,0,0,1,1.391,2.961H82.027a2.376,2.376,0,0,0-.613-1.6,2.271,2.271,0,0,0-1.605-.5,1.991,1.991,0,0,0-1.754.84,4.707,4.707,0,0,0-.6,2.605V35.7a5.038,5.038,0,0,0,.559,2.7,1.954,1.954,0,0,0,1.762.852,2.314,2.314,0,0,0,1.621-.5,2.241,2.241,0,0,0,.613-1.535Zm10.469,0A4.025,4.025,0,0,1,93.468,40.1a4.76,4.76,0,0,1-3.223,1.055A4.28,4.28,0,0,1,86.8,39.684a6.038,6.038,0,0,1-1.254-4.043v-.7a6.819,6.819,0,0,1,.578-2.891,4.332,4.332,0,0,1,1.652-1.918,5.164,5.164,0,0,1,5.668.387,4.326,4.326,0,0,1,1.391,2.961H92.5a2.376,2.376,0,0,0-.613-1.6,2.271,2.271,0,0,0-1.605-.5,1.991,1.991,0,0,0-1.754.84,4.707,4.707,0,0,0-.6,2.605V35.7a5.038,5.038,0,0,0,.559,2.7,1.954,1.954,0,0,0,1.762.852,2.314,2.314,0,0,0,1.621-.5,2.241,2.241,0,0,0,.613-1.535Zm5.078-.656a11.377,11.377,0,0,1-.508,3.4,9.225,9.225,0,0,1-1.461,2.883,5.263,5.263,0,0,1-2.039,1.719l-.437-1.2a5.494,5.494,0,0,0,1.75-2.578,11.939,11.939,0,0,0,.664-4.008v-.414a12.209,12.209,0,0,0-.637-4.117,5.727,5.727,0,0,0-1.777-2.672l.438-1.2a5.265,5.265,0,0,1,2,1.672,9.106,9.106,0,0,1,1.461,2.82A11.3,11.3,0,0,1,99.9,36.2Z" transform="translate(887.613 3498.329)" fill="#fff"/>
    <path id="Trazado_143872" data-name="Trazado 143872" d="M10.127,13.211A4.025,4.025,0,0,1,8.772,16.1a4.76,4.76,0,0,1-3.223,1.055,4.28,4.28,0,0,1-3.441-1.473A6.038,6.038,0,0,1,.854,11.641v-.7a6.819,6.819,0,0,1,.578-2.891A4.332,4.332,0,0,1,3.084,6.137a4.629,4.629,0,0,1,2.5-.668A4.637,4.637,0,0,1,8.752,6.523a4.326,4.326,0,0,1,1.391,2.961H7.8a2.376,2.376,0,0,0-.613-1.6,2.271,2.271,0,0,0-1.605-.5,1.991,1.991,0,0,0-1.754.84,4.707,4.707,0,0,0-.6,2.605V11.7a5.038,5.038,0,0,0,.559,2.7,1.954,1.954,0,0,0,1.762.852,2.314,2.314,0,0,0,1.621-.5,2.241,2.241,0,0,0,.613-1.535Zm1.039-.516a5.013,5.013,0,0,1,.484-2.242A3.546,3.546,0,0,1,13.045,8.93a4.069,4.069,0,0,1,2.113-.539,3.849,3.849,0,0,1,2.793,1.047,4.2,4.2,0,0,1,1.207,2.844l.016.578a4.418,4.418,0,0,1-1.086,3.121,3.775,3.775,0,0,1-2.914,1.176,3.793,3.793,0,0,1-2.918-1.172,4.5,4.5,0,0,1-1.09-3.187Zm2.258.16a3.16,3.16,0,0,0,.453,1.843,1.628,1.628,0,0,0,2.578.008,3.457,3.457,0,0,0,.461-2.015,3.128,3.128,0,0,0-.461-1.831,1.5,1.5,0,0,0-1.3-.649,1.474,1.474,0,0,0-1.281.646A3.516,3.516,0,0,0,13.424,12.856Zm9.258-4.309.07.945a2.971,2.971,0,0,1,2.43-1.1A2.255,2.255,0,0,1,27.424,9.68a2.9,2.9,0,0,1,2.539-1.289,2.521,2.521,0,0,1,2.047.8,3.681,3.681,0,0,1,.672,2.41V17H30.416V11.609a1.61,1.61,0,0,0-.281-1.051,1.246,1.246,0,0,0-.992-.332,1.409,1.409,0,0,0-1.406.969l.008,5.8H25.487V11.617a1.59,1.59,0,0,0-.289-1.062,1.259,1.259,0,0,0-.984-.328,1.463,1.463,0,0,0-1.391.8V17H20.565V8.547Zm19.344,4.3a5.07,5.07,0,0,1-.887,3.129,2.843,2.843,0,0,1-2.395,1.176,2.633,2.633,0,0,1-2.07-.891V20.25H34.416V8.547H36.51l.078.828a2.654,2.654,0,0,1,2.141-.984,2.862,2.862,0,0,1,2.43,1.156,5.207,5.207,0,0,1,.867,3.188Zm-2.258-.164a3.327,3.327,0,0,0-.418-1.82,1.361,1.361,0,0,0-1.215-.641,1.479,1.479,0,0,0-1.461.813V14.5a1.5,1.5,0,0,0,1.477.836Q39.768,15.336,39.768,12.688Zm8.406-2.023a6.134,6.134,0,0,0-.812-.062,1.654,1.654,0,0,0-1.68.867V17H43.424V8.547h2.133l.063,1.008A2.092,2.092,0,0,1,47.5,8.391a2.366,2.366,0,0,1,.7.1Zm.453,2.031a5.013,5.013,0,0,1,.484-2.242A3.546,3.546,0,0,1,50.506,8.93a4.069,4.069,0,0,1,2.113-.539,3.849,3.849,0,0,1,2.793,1.047,4.2,4.2,0,0,1,1.207,2.844l.016.578a4.418,4.418,0,0,1-1.086,3.121,4.209,4.209,0,0,1-5.832,0,4.5,4.5,0,0,1-1.09-3.187Zm2.258.16a3.16,3.16,0,0,0,.453,1.843,1.628,1.628,0,0,0,2.578.008,3.457,3.457,0,0,0,.461-2.015,3.128,3.128,0,0,0-.461-1.831,1.5,1.5,0,0,0-1.3-.649,1.474,1.474,0,0,0-1.281.646A3.516,3.516,0,0,0,50.885,12.856Zm14.758,0a5.119,5.119,0,0,1-.867,3.168,2.872,2.872,0,0,1-2.422,1.137,2.639,2.639,0,0,1-2.2-1.055l-.1.9H58.026V5h2.258V9.3a2.571,2.571,0,0,1,2.055-.914,2.9,2.9,0,0,1,2.426,1.137,5.126,5.126,0,0,1,.879,3.2Zm-2.258-.164a3.363,3.363,0,0,0-.406-1.871,1.374,1.374,0,0,0-1.211-.59,1.489,1.489,0,0,0-1.484.883v3.336a1.509,1.509,0,0,0,1.5.891,1.394,1.394,0,0,0,1.438-1.078A5.562,5.562,0,0,0,63.385,12.688ZM71.932,17a2.507,2.507,0,0,1-.227-.758,2.732,2.732,0,0,1-2.133.914,3,3,0,0,1-2.059-.719,2.312,2.312,0,0,1-.816-1.812,2.389,2.389,0,0,1,1-2.062,4.915,4.915,0,0,1,2.879-.727h1.039v-.484a1.393,1.393,0,0,0-.3-.937,1.183,1.183,0,0,0-.949-.352,1.345,1.345,0,0,0-.895.273.929.929,0,0,0-.324.75H66.885a2.268,2.268,0,0,1,.453-1.359,3,3,0,0,1,1.281-.98,4.669,4.669,0,0,1,1.859-.355,3.689,3.689,0,0,1,2.48.785,2.747,2.747,0,0,1,.918,2.207v3.664a4.041,4.041,0,0,0,.336,1.82V17Zm-1.867-1.57a1.945,1.945,0,0,0,.922-.223,1.462,1.462,0,0,0,.625-.6V13.156h-.844q-1.7,0-1.8,1.172l-.008.133a.9.9,0,0,0,.3.7A1.153,1.153,0,0,0,70.065,15.43ZM77.69,8.547l.07.977a2.951,2.951,0,0,1,2.43-1.133,2.453,2.453,0,0,1,2,.789,3.682,3.682,0,0,1,.672,2.359V17H80.6V11.594a1.465,1.465,0,0,0-.312-1.043,1.4,1.4,0,0,0-1.039-.324,1.553,1.553,0,0,0-1.43.813V17H75.565V8.547Zm9.586-2.078V8.547h1.445V10.2H87.276v4.219a1.007,1.007,0,0,0,.18.672.9.9,0,0,0,.688.2,3.6,3.6,0,0,0,.664-.055v1.711a4.648,4.648,0,0,1-1.367.2,2.156,2.156,0,0,1-2.422-2.4V10.2H83.784V8.547h1.234V6.469Zm6.594,10.688a4.15,4.15,0,0,1-3.027-1.141,4.054,4.054,0,0,1-1.168-3.039v-.219a5.106,5.106,0,0,1,.492-2.277,3.612,3.612,0,0,1,1.395-1.547,3.914,3.914,0,0,1,2.059-.543,3.508,3.508,0,0,1,2.73,1.094,4.444,4.444,0,0,1,1,3.1v.922H91.963a2.1,2.1,0,0,0,.66,1.328,2,2,0,0,0,1.395.5,2.437,2.437,0,0,0,2.039-.945l1.109,1.242a3.389,3.389,0,0,1-1.375,1.121A4.511,4.511,0,0,1,93.869,17.156Zm-.258-6.945a1.411,1.411,0,0,0-1.09.455,2.357,2.357,0,0,0-.535,1.3h3.141v-.181a1.681,1.681,0,0,0-.406-1.165A1.456,1.456,0,0,0,93.612,10.211Z" transform="translate(663.415 3503.981)" fill="#12263f"/>
    <path id="Trazado_143874" data-name="Trazado 143874" d="M37.849,17V5.625h3.5a5.315,5.315,0,0,1,2.684.676,4.712,4.712,0,0,1,1.848,1.922,5.928,5.928,0,0,1,.664,2.832v.523a5.945,5.945,0,0,1-.652,2.82,4.672,4.672,0,0,1-1.84,1.914,5.355,5.355,0,0,1-2.68.688Zm2.344-9.477v7.594h1.133a2.545,2.545,0,0,0,2.1-.9,4.06,4.06,0,0,0,.742-2.57v-.6a4.124,4.124,0,0,0-.719-2.629,2.537,2.537,0,0,0-2.1-.895ZM50.537,17H48.279V8.547h2.258ZM49.873,5.117h2.461L50.17,7.539H48.334ZM57.381,17a2.507,2.507,0,0,1-.227-.758,2.732,2.732,0,0,1-2.133.914,3,3,0,0,1-2.059-.719,2.312,2.312,0,0,1-.816-1.812,2.389,2.389,0,0,1,1-2.062,4.915,4.915,0,0,1,2.879-.727H57.06v-.484a1.393,1.393,0,0,0-.3-.937,1.183,1.183,0,0,0-.949-.352,1.345,1.345,0,0,0-.895.273.929.929,0,0,0-.324.75H52.334a2.268,2.268,0,0,1,.453-1.359,3,3,0,0,1,1.281-.98,4.669,4.669,0,0,1,1.859-.355,3.689,3.689,0,0,1,2.48.785,2.747,2.747,0,0,1,.918,2.207v3.664a4.041,4.041,0,0,0,.336,1.82V17Zm-1.867-1.57a1.945,1.945,0,0,0,.922-.223,1.462,1.462,0,0,0,.625-.6V13.156h-.844q-1.7,0-1.8,1.172l-.008.133a.9.9,0,0,0,.3.7A1.153,1.153,0,0,0,55.513,15.43Z" transform="translate(475.014 3605.718)" fill="#12263f"/>
    <path id="Trazado_143875" data-name="Trazado 143875" d="M37.146,5.625l2.922,8.25,2.906-8.25h3.078V17H43.7V13.891l.234-5.367L40.865,17H39.256L36.193,8.531l.234,5.359V17H34.084V5.625Zm14.7,11.531a4.15,4.15,0,0,1-3.027-1.141,4.054,4.054,0,0,1-1.168-3.039v-.219a5.106,5.106,0,0,1,.492-2.277,3.612,3.612,0,0,1,1.395-1.547,3.914,3.914,0,0,1,2.059-.543,3.508,3.508,0,0,1,2.73,1.094,4.444,4.444,0,0,1,1,3.1v.922H49.935a2.1,2.1,0,0,0,.66,1.328,2,2,0,0,0,1.395.5,2.437,2.437,0,0,0,2.039-.945l1.109,1.242a3.389,3.389,0,0,1-1.375,1.121A4.511,4.511,0,0,1,51.841,17.156Zm-.258-6.945a1.411,1.411,0,0,0-1.09.455,2.357,2.357,0,0,0-.535,1.3H53.1v-.181a1.681,1.681,0,0,0-.406-1.165A1.456,1.456,0,0,0,51.584,10.211Zm9.594,4.453a.727.727,0,0,0-.41-.652,4.659,4.659,0,0,0-1.316-.426q-3.016-.633-3.016-2.562a2.323,2.323,0,0,1,.934-1.879,3.766,3.766,0,0,1,2.441-.754,4.053,4.053,0,0,1,2.574.758,2.388,2.388,0,0,1,.965,1.969H61.091a1.092,1.092,0,0,0-.312-.8A1.322,1.322,0,0,0,59.8,10a1.351,1.351,0,0,0-.883.258.814.814,0,0,0-.312.656.7.7,0,0,0,.355.605,3.657,3.657,0,0,0,1.2.4,9.8,9.8,0,0,1,1.422.379,2.336,2.336,0,0,1,1.789,2.273,2.2,2.2,0,0,1-.992,1.871,4.28,4.28,0,0,1-2.562.715,4.47,4.47,0,0,1-1.887-.379,3.166,3.166,0,0,1-1.293-1.039,2.414,2.414,0,0,1-.469-1.426H58.31a1.179,1.179,0,0,0,.445.922,1.766,1.766,0,0,0,1.109.32,1.635,1.635,0,0,0,.98-.246A.766.766,0,0,0,61.177,14.664Z" transform="translate(664.357 3609.486)" fill="#12263f"/>
  </g>
</svg>
