<svg xmlns="http://www.w3.org/2000/svg" width="1328" height="1134" viewBox="0 0 1328 1134">
  <g id="fondo1" transform="translate(-136 -13438)">
    <g id="Rectángulo_33856" data-name="Rectángulo 33856" transform="translate(136 13441)" fill="#5e6178" stroke="#707070" stroke-width="1" opacity="0.119">
      <path d="M0,0H1328a0,0,0,0,1,0,0V1115a16,16,0,0,1-16,16H16a16,16,0,0,1-16-16V0A0,0,0,0,1,0,0Z" stroke="none"/>
      <path d="M1,.5H1327a.5.5,0,0,1,.5.5V1115a15.5,15.5,0,0,1-15.5,15.5H16A15.5,15.5,0,0,1,.5,1115V1A.5.5,0,0,1,1,.5Z" fill="none"/>
    </g>
    <path id="Trazado_143438" data-name="Trazado 143438" d="M-6514,1805.421l41.319,44.03,43.681-44.03" transform="translate(7272 11632.578)" fill="#fff"/>
  </g>
</svg>
