<svg id="img1" xmlns="http://www.w3.org/2000/svg" width="505" height="492" viewBox="0 0 505 492">
  <rect id="Rectángulo_33848" data-name="Rectángulo 33848" width="505" height="492" fill="none"/>
  <g id="Grupo_78686" data-name="Grupo 78686" transform="translate(0 9)">
    <g id="Grupo_70210" data-name="Grupo 70210" transform="translate(0)">
      <g id="Grupo_67715" data-name="Grupo 67715">
        <rect id="Rectángulo_31331" data-name="Rectángulo 31331" width="505" height="346.982" fill="none"/>
      </g>
    </g>
    <g id="Grupo_70423" data-name="Grupo 70423" transform="translate(33.211 62.715)">
      <rect id="Rectángulo_14100" data-name="Rectángulo 14100" width="412.615" height="321.063" transform="translate(0.001 26.19)" fill="#6595bf"/>
      <path id="Trazado_134193" data-name="Trazado 134193" d="M6888.882,3228.875c.2,0,.348-34.9.348-77.94s-.146-77.954-.348-77.954-.351,34.9-.351,77.954S6888.6,3228.875,6888.882,3228.875Z" transform="translate(-6589.698 -2908.59)" fill="#344154"/>
      <path id="Trazado_134194" data-name="Trazado 134194" d="M7022.294,3228.875c.2,0,.348-34.9.348-77.94s-.149-77.954-.348-77.954-.352,34.9-.352,77.954S7022.107,3228.875,7022.294,3228.875Z" transform="translate(-6902.202 -2908.59)" fill="#344154"/>
      <path id="Trazado_134195" data-name="Trazado 134195" d="M6934.43,3239.944c.187,0,.348-44.607.348-99.634s-.161-99.659-.348-99.659-.349,44.607-.349,99.659S6934.228,3239.944,6934.43,3239.944Z" transform="translate(-6696.392 -2919.66)" fill="#344154"/>
      <path id="Trazado_134196" data-name="Trazado 134196" d="M6842.089,3239.944c.2,0,.35-44.607.35-99.634s-.15-99.659-.35-99.659-.349,44.607-.349,99.659S6841.846,3239.944,6842.089,3239.944Z" transform="translate(-6480.096 -2919.66)" fill="#344154"/>
      <path id="Trazado_134197" data-name="Trazado 134197" d="M7074.643,3239.944c.186,0,.347-44.607.347-99.634s-.161-99.659-.347-99.659-.352,44.607-.352,99.659S7074.438,3239.944,7074.643,3239.944Z" transform="translate(-7024.823 -2919.66)" fill="#344154"/>
      <path id="Trazado_134198" data-name="Trazado 134198" d="M6974.369,3247.806c.2,0,.35-51.508.35-115.043s-.147-115.072-.35-115.072-.349,51.508-.349,115.072S6974.18,3247.806,6974.369,3247.806Z" transform="translate(-6789.949 -2927.521)" fill="#344154"/>
      <path id="Trazado_134199" data-name="Trazado 134199" d="M6887.719,3073.374a1.464,1.464,0,1,0,1.463-1.464h0A1.463,1.463,0,0,0,6887.719,3073.374Z" transform="translate(-6590.026 -2908.956)" fill="#344154"/>
      <circle id="Elipse_4660" data-name="Elipse 4660" cx="1.463" cy="1.463" r="1.463" transform="translate(236.574 119.527)" fill="#344154"/>
      <path id="Trazado_134200" data-name="Trazado 134200" d="M6935.651,3047.086a5.128,5.128,0,1,0-5.128-5.127A5.127,5.127,0,0,0,6935.651,3047.086Zm0-9.92a4.792,4.792,0,1,1-4.792,4.792A4.793,4.793,0,0,1,6935.651,3037.166Z" transform="translate(-6697.613 -2920.967)" fill="#344154"/>
      <circle id="Elipse_4661" data-name="Elipse 4661" cx="1.463" cy="1.463" r="1.463" transform="translate(182.958 88.706)" fill="#344154"/>
      <circle id="Elipse_4662" data-name="Elipse 4662" cx="1.463" cy="1.463" r="1.463" transform="translate(118.63 164.39)" fill="#344154"/>
      <path id="Trazado_134201" data-name="Trazado 134201" d="M6840.943,3042.114a1.463,1.463,0,1,0,1.464-1.464h0a1.45,1.45,0,0,0-1.45,1.45Z" transform="translate(-6480.453 -2919.66)" fill="#344154"/>
      <path id="Trazado_134202" data-name="Trazado 134202" d="M6821.723,3102.715a6.229,6.229,0,0,0,1.154.376,23.918,23.918,0,0,1,3.315,1.141,31.846,31.846,0,0,1,10.66,8.054c4.026,4.322,8.054,10.335,12.994,17.1a85.743,85.743,0,0,0,8.834,10.256,50.792,50.792,0,0,0,5.73,4.739,41.1,41.1,0,0,0,6.914,3.772,38.945,38.945,0,0,0,16.539,2.779,44.1,44.1,0,0,0,8.9-1.114,23.108,23.108,0,0,0,8.619-3.787,27.84,27.84,0,0,0,6.715-7.021c1.852-2.685,3.515-5.531,5.127-8.417,3.221-5.813,6.549-11.666,10.35-17.546s7.181-12.216,11.032-18.391a87.848,87.848,0,0,1,13.52-17.451,39.7,39.7,0,0,1,9.075-6.5,30.116,30.116,0,0,1,10.738-3.155,37.75,37.75,0,0,1,22.35,4.78,56.4,56.4,0,0,1,17.024,15.88,175.122,175.122,0,0,1,12.175,19.559,199.215,199.215,0,0,0,11.785,19.184,93.435,93.435,0,0,0,14.271,16.257c1.342,1.167,2.685,2.268,4.134,3.3a47.264,47.264,0,0,0,4.391,2.858,38.148,38.148,0,0,0,9.5,3.92,34.846,34.846,0,0,0,4.969.926,17.28,17.28,0,0,0,2.494.135h2.484a38.333,38.333,0,0,0,9.519-1.772,64.445,64.445,0,0,0,16.109-8.4c4.78-3.289,9.141-6.712,13.423-9.772a70.394,70.394,0,0,1,12.74-7.719,42.636,42.636,0,0,1,12.686-3.612,31.338,31.338,0,0,1,11.4.74,17.675,17.675,0,0,1,2.469.792,15.51,15.51,0,0,1,2.31.912,30.87,30.87,0,0,1,4.027,2.228,44.009,44.009,0,0,1,6.055,4.847l2.105,2.309a16.643,16.643,0,0,1,1.693,1.973l2.133,2.805a6.763,6.763,0,0,0,.791.927,4.447,4.447,0,0,0-.616-1.047l-1.974-2.94a18.851,18.851,0,0,0-1.624-2.054l-2.068-2.4a41.5,41.5,0,0,0-6.053-5.1,29.948,29.948,0,0,0-4.027-2.362,13.3,13.3,0,0,0-2.352-.98,18.163,18.163,0,0,0-2.535-.873,31.978,31.978,0,0,0-11.787-.939,43.236,43.236,0,0,0-13.1,3.558,71.921,71.921,0,0,0-13.075,7.732c-4.322,3.061-8.714,6.43-13.424,9.638a62.975,62.975,0,0,1-15.706,8.054,35.91,35.91,0,0,1-9.074,1.624h-2.295a15.384,15.384,0,0,1-2.351-.148,31.234,31.234,0,0,1-4.7-.9,42.849,42.849,0,0,1-17.291-9.665,92.217,92.217,0,0,1-13.907-15.961,201.921,201.921,0,0,1-11.637-19,173.645,173.645,0,0,0-12.283-19.8,58.574,58.574,0,0,0-17.668-16.458,40.111,40.111,0,0,0-23.571-5.036,32.038,32.038,0,0,0-11.5,3.4,40.641,40.641,0,0,0-9.545,6.847A90.462,90.462,0,0,0,6937,3093.667c-3.867,6.242-7.3,12.538-10.969,18.432s-7.154,11.881-10.322,17.665-6.352,11.452-11.264,14.928a21.508,21.508,0,0,1-8.056,3.572,43.576,43.576,0,0,1-8.55,1.127,37.72,37.72,0,0,1-15.92-2.537,38.8,38.8,0,0,1-6.714-3.571,49.11,49.11,0,0,1-5.611-4.538,82.315,82.315,0,0,1-8.818-10c-5.074-6.712-9.2-12.646-13.345-16.942a30.865,30.865,0,0,0-11.09-7.919,17.678,17.678,0,0,0-3.421-.953A6.417,6.417,0,0,0,6821.723,3102.715Z" transform="translate(-6785.758 -2911.193)" fill="#d9a171"/>
      <rect id="Rectángulo_14101" data-name="Rectángulo 14101" width="71.94" height="4" transform="translate(291.463 62.22)" fill="#344154"/>
      <rect id="Rectángulo_14102" data-name="Rectángulo 14102" width="35.547" height="4" transform="translate(327.856 71.59)" fill="#344154"/>
      <path id="Trazado_134203" data-name="Trazado 134203" d="M7210.981,2950.521h-401a6.055,6.055,0,0,0-6.056,6.053h0v20.136h413.11v-20.136A6.053,6.053,0,0,0,7210.981,2950.521Z" transform="translate(-6803.922 -2950.521)" fill="#344154"/>
      <path id="Trazado_134204" data-name="Trazado 134204" d="M6815.67,2961.369a2.82,2.82,0,1,0,2.818-2.819A2.82,2.82,0,0,0,6815.67,2961.369Z" transform="translate(-6423.971 -2947.771)" fill="#6595bf"/>
      <path id="Trazado_134205" data-name="Trazado 134205" d="M6824.8,2961.369a2.819,2.819,0,1,0,2.819-2.819A2.819,2.819,0,0,0,6824.8,2961.369Z" transform="translate(-6445.357 -2947.771)" fill="#6595bf"/>
      <path id="Trazado_134206" data-name="Trazado 134206" d="M6834,2961.369a2.819,2.819,0,1,0,2.818-2.819A2.819,2.819,0,0,0,6834,2961.369Z" transform="translate(-6466.908 -2947.771)" fill="#6595bf"/>
      <rect id="Rectángulo_14148" data-name="Rectángulo 14148" width="153.034" height="42.903" rx="3.23" transform="translate(107.473 40.03)" fill="#d9a171"/>
      <path id="Trazado_134229" data-name="Trazado 134229" d="M6931.29,3005.519a9.33,9.33,0,1,0,1.436-13.115h0a9.4,9.4,0,0,0-1.436,13.116Z" transform="translate(-6703.037 -2936.883)" fill="#6595bf"/>
      <path id="Trazado_134230" data-name="Trazado 134230" d="M6938.6,3009.079a9.4,9.4,0,0,0,1.01-18.657,6.765,6.765,0,0,0-1.036,0,9.4,9.4,0,0,0-9.3,9.492,9.536,9.536,0,0,0,2.013,5.718h0a9.3,9.3,0,0,0,6.279,3.451C6937.92,3009.094,6938.267,3009.094,6938.6,3009.079Zm0-18.645a6.846,6.846,0,0,1,1.035,0,9.29,9.29,0,1,1-8.271,15.049h0a9.288,9.288,0,0,1,7.234-15.1Z" transform="translate(-6703.067 -2936.872)" fill="#344154"/>
      <path id="Trazado_134231" data-name="Trazado 134231" d="M6931.69,2994.94a38.935,38.935,0,0,0,5.021,5.369l1.222,1.181.255.242.228-.242a2.836,2.836,0,1,0-.482-.483h.482l-1.222-1.208A39.631,39.631,0,0,0,6931.69,2994.94Z" transform="translate(-6701.4 -2935.311)" fill="#d9a171"/>
      <path id="Trazado_134232" data-name="Trazado 134232" d="M6955.741,2994.089c0,.188,19.452.35,43.44.35s43.455-.162,43.455-.35-19.452-.349-43.455-.349S6955.741,2993.862,6955.741,2994.089Z" transform="translate(-6833.328 -2935.721)" fill="#6595bf"/>
      <path id="Trazado_134233" data-name="Trazado 134233" d="M6956.5,3000.4c0,.188,11.236.349,25.115.349s25.117-.161,25.117-.349-11.25-.35-25.117-.35S6956.5,3000.185,6956.5,3000.4Z" transform="translate(-6798.444 -2933.56)" fill="#6595bf"/>
    </g>
    <g id="Grupo_70420" data-name="Grupo 70420" transform="translate(373.1 259.72)">
      <rect id="Rectángulo_14103" data-name="Rectángulo 14103" width="106.935" height="29.985" rx="3.23" transform="translate(0 0)" fill="#aed3f2"/>
      <path id="Trazado_134207" data-name="Trazado 134207" d="M6710.27,3132.452a6.516,6.516,0,1,1-1.008-9.159h0a6.508,6.508,0,0,1,1.018,9.142Z" transform="translate(-6687.732 -3112.464)" fill="#6595bf"/>
      <path id="Trazado_134208" data-name="Trazado 134208" d="M6709.37,3126.94a31.477,31.477,0,0,1-3.532,3.745c-.288.288-.577.567-.848.847l-.152.153-.152-.153a1.977,1.977,0,1,1,.3-.305h-.3l.847-.847A30.209,30.209,0,0,1,6709.37,3126.94Z" transform="translate(-6688.249 -3113.239)" fill="#344154"/>
      <path id="Trazado_134209" data-name="Trazado 134209" d="M6788.706,3125.831c0,.119-13.556.22-30.357.22s-30.358-.1-30.358-.22,13.557-.22,30.358-.22S6788.706,3125.7,6788.706,3125.831Z" transform="translate(-6692.21 -3113.036)" fill="#344154"/>
      <path id="Trazado_134210" data-name="Trazado 134210" d="M6763.927,3132.83c0,.119-7.863.221-17.556.221s-17.581-.1-17.581-.221,7.854-.22,17.547-.22S6763.927,3132.7,6763.927,3132.83Z" transform="translate(-6692.332 -3114.105)" fill="#344154"/>
    </g>
    <g id="Grupo_70421" data-name="Grupo 70421" transform="translate(354.514 113.65)">
      <rect id="Rectángulo_14104" data-name="Rectángulo 14104" width="144.107" height="59.841" rx="2.62" transform="translate(0 0)" fill="#f6f6f6"/>
      <path id="Trazado_134211" data-name="Trazado 134211" d="M6750.694,3042.758a6.717,6.717,0,1,1-6.717-6.717A6.716,6.716,0,0,1,6750.694,3042.758Z" transform="translate(-6720.757 -3023.846)" fill="#d9a171"/>
      <rect id="Rectángulo_14105" data-name="Rectángulo 14105" width="46.812" height="2.594" transform="translate(36.656 14.268)" fill="#d9a171"/>
      <rect id="Rectángulo_14106" data-name="Rectángulo 14106" width="91.053" height="2.594" transform="translate(36.656 20.175)" fill="#6595bf"/>
      <path id="Trazado_134212" data-name="Trazado 134212" d="M6750.694,3060.588a6.717,6.717,0,1,1-6.717-6.718A6.716,6.716,0,0,1,6750.694,3060.588Z" transform="translate(-6720.757 -3021.026)" fill="#d9a171"/>
      <rect id="Rectángulo_14107" data-name="Rectángulo 14107" width="23.904" height="2.594" transform="translate(36.656 34.929)" fill="#d9a171"/>
      <rect id="Rectángulo_14108" data-name="Rectángulo 14108" width="91.053" height="2.594" transform="translate(36.656 40.824)" fill="#6595bf"/>
    </g>
    <g id="Grupo_70418" data-name="Grupo 70418" transform="translate(8.334 289.705)">
      <rect id="Rectángulo_14113" data-name="Rectángulo 14113" width="191.018" height="183.92" rx="8.41" transform="translate(0 0)" fill="#aed3f2"/>
      <rect id="Rectángulo_14114" data-name="Rectángulo 14114" width="6.265" height="1.803" transform="translate(13.351 125.995)" fill="#344154"/>
      <rect id="Rectángulo_14115" data-name="Rectángulo 14115" width="8.022" height="1.803" transform="translate(27.537 135.661)" fill="#344154"/>
      <rect id="Rectángulo_14116" data-name="Rectángulo 14116" width="8.022" height="1.803" transform="translate(55.449 135.661)" fill="#344154"/>
      <rect id="Rectángulo_14117" data-name="Rectángulo 14117" width="8.022" height="1.803" transform="translate(83.35 135.661)" fill="#344154"/>
      <rect id="Rectángulo_14118" data-name="Rectángulo 14118" width="8.022" height="1.803" transform="translate(111.262 135.661)" fill="#344154"/>
      <rect id="Rectángulo_14119" data-name="Rectángulo 14119" width="8.022" height="1.803" transform="translate(139.175 135.661)" fill="#344154"/>
      <rect id="Rectángulo_14120" data-name="Rectángulo 14120" width="8.022" height="1.803" transform="translate(167.088 135.661)" fill="#344154"/>
      <rect id="Rectángulo_14121" data-name="Rectángulo 14121" width="6.265" height="1.803" transform="translate(13.351 101.871)" fill="#344154"/>
      <rect id="Rectángulo_14122" data-name="Rectángulo 14122" width="6.265" height="1.803" transform="translate(13.351 56.453)" fill="#344154"/>
      <rect id="Rectángulo_14123" data-name="Rectángulo 14123" width="6.265" height="1.803" transform="translate(13.351 33.641)" fill="#344154"/>
      <rect id="Rectángulo_14124" data-name="Rectángulo 14124" width="6.265" height="1.803" transform="translate(13.671 79.162)" fill="#344154"/>
      <path id="Trazado_134218" data-name="Trazado 134218" d="M7104.158,3238.405h-10.235l-27.9.092-92.045.092h-22.106v-.184c0-30.811.082-57.868.1-77.278,0-9.689.068-17.448.092-22.823v-7.738a4.085,4.085,0,0,1,0-.536,4.085,4.085,0,0,1,0,.536v7.738c0,5.375.057,13.134.091,22.823,0,19.4.057,46.5.1,77.278l-.3-.3h21.807l92.047.08,27.9.092h9.563Z" transform="translate(-6929.275 -3110.608)" fill="#344154"/>
      <path id="Trazado_134219" data-name="Trazado 134219" d="M7105.128,3183.207c0,.171-33.094.3-73.833.3s-73.856-.126-73.856-.3,33.094-.3,73.856-.3S7105.128,3183.014,7105.128,3183.207Z" transform="translate(-6928.49 -3103.143)" fill="#344154"/>
      <path id="Trazado_134220" data-name="Trazado 134220" d="M7105.128,3163.347c0,.16-33.094.3-73.833.3s-73.856-.137-73.856-.3,33.094-.3,73.856-.3S7105.128,3163.142,7105.128,3163.347Z" transform="translate(-6928.49 -3105.947)" fill="#344154"/>
      <path id="Trazado_134221" data-name="Trazado 134221" d="M7105.128,3143.347c0,.16-33.094.3-73.833.3s-73.856-.137-73.856-.3,33.094-.3,73.856-.3S7105.128,3143.142,7105.128,3143.347Z" transform="translate(-6928.49 -3108.77)" fill="#344154"/>
      <path id="Trazado_134222" data-name="Trazado 134222" d="M7105.128,3203.108c0,.159-33.094.3-73.833.3s-73.856-.138-73.856-.3,33.094-.3,73.856-.3S7105.128,3202.948,7105.128,3203.108Z" transform="translate(-6928.49 -3100.335)" fill="#344154"/>
      <path id="Trazado_134223" data-name="Trazado 134223" d="M6958.792,3233.318v-20.14l12.552-19.492,8.524,6.539,17.483-27.17,10.27,7.269,14.356-25.1,11.662,9.494,17.483-33.242,18.84,37.156,15.245-18.589,17.939-5.135v88.371Z" transform="translate(-6928.301 -3110.404)" fill="#d9a171"/>
      <path id="Trazado_134224" data-name="Trazado 134224" d="M7104.939,3137.02h-4.884l-13.762.069h.125l-14.743,19.331-.08.091h-.114l-36.929.058.253-.137-15.532,25.881-15.245,25.333-.216.366-.264-.342-19.992-27.514h.4l-18.259,28.438c-2.179,3.424-3.9,6.026-5.09,7.851-.569.89-1.024,1.564-1.347,2.054a8.343,8.343,0,0,1-.479.685s.138-.251.423-.718l1.289-2.1,4.975-7.931,18.076-28.529.183-.3.217.285c5.98,8.182,12.747,17.448,20.074,27.456h-.48L7018.761,3182l15.553-25.835.079-.138h37.089l-.184.092,14.834-19.194v-.068h.093l13.762.08h4.566Z" transform="translate(-6928.299 -3109.644)" fill="#344154"/>
      <path id="Trazado_134225" data-name="Trazado 134225" d="M6986.352,3180.48a1.416,1.416,0,0,1-2.83.091,1.406,1.406,0,0,1,1.369-1.461h0a1.381,1.381,0,0,1,1.414,1.347Z" transform="translate(-6924.81 -3103.68)" fill="#344154"/>
      <path id="Trazado_134226" data-name="Trazado 134226" d="M7023.641,3159.25a1.421,1.421,0,1,1-1.46-1.369h0a1.392,1.392,0,0,1,1.415,1.369Z" transform="translate(-6919.543 -3106.677)" fill="#344154"/>
      <path id="Trazado_134227" data-name="Trazado 134227" d="M7052.663,3154.04a1.425,1.425,0,1,1-1.482-1.369h.068A1.39,1.39,0,0,1,7052.663,3154.04Z" transform="translate(-6915.451 -3107.413)" fill="#344154"/>
      <ellipse id="Elipse_4664" data-name="Elipse 4664" cx="9.163" cy="8.821" rx="9.163" ry="8.821" transform="translate(27.537 150.975)" fill="#6595bf"/>
      <rect id="Rectángulo_14125" data-name="Rectángulo 14125" width="107.634" height="3.298" transform="translate(59.454 153.885)" fill="#6595bf"/>
      <rect id="Rectángulo_14126" data-name="Rectángulo 14126" width="44.688" height="3.298" transform="translate(59.454 162.135)" fill="#6595bf"/>
    </g>
    <g id="Grupo_70417" data-name="Grupo 70417" transform="translate(0 25.979)">
      <ellipse id="Elipse_4663" data-name="Elipse 4663" cx="1.148" cy="1.148" rx="1.148" ry="1.148" transform="translate(29.395 54.482)" fill="#344154"/>
      <rect id="Rectángulo_14127" data-name="Rectángulo 14127" width="117.053" height="97.084" rx="4.94" transform="translate(0 0)" fill="#aed3f2"/>
      <rect id="Rectángulo_14128" data-name="Rectángulo 14128" width="6.309" height="47.636" transform="translate(20.432 38.874)" fill="#d9a171"/>
      <rect id="Rectángulo_14129" data-name="Rectángulo 14129" width="6.309" height="51.501" transform="translate(49.111 35.008)" fill="#d9a171"/>
      <rect id="Rectángulo_14130" data-name="Rectángulo 14130" width="6.309" height="58.042" transform="translate(78.811 28.468)" fill="#d9a171"/>
      <rect id="Rectángulo_14131" data-name="Rectángulo 14131" width="6.309" height="23.191" transform="translate(64.867 63.308)" fill="#d9a171"/>
      <g id="Grupo_62582" data-name="Grupo 62582" transform="translate(64.867 63.308)" opacity="0.2">
        <rect id="Rectángulo_14132" data-name="Rectángulo 14132" width="6.309" height="23.191"/>
      </g>
      <rect id="Rectángulo_14133" data-name="Rectángulo 14133" width="6.309" height="52.744" transform="translate(27.783 33.766)" fill="#d9a171"/>
      <g id="Grupo_62583" data-name="Grupo 62583" transform="translate(27.783 33.766)" opacity="0.1">
        <rect id="Rectángulo_14134" data-name="Rectángulo 14134" width="6.309" height="52.744"/>
      </g>
      <rect id="Rectángulo_14135" data-name="Rectángulo 14135" width="6.309" height="63.792" transform="translate(56.978 22.718)" fill="#d9a171"/>
      <g id="Grupo_62584" data-name="Grupo 62584" transform="translate(56.978 22.718)" opacity="0.1">
        <rect id="Rectángulo_14136" data-name="Rectángulo 14136" width="6.309" height="63.792"/>
      </g>
      <rect id="Rectángulo_14137" data-name="Rectángulo 14137" width="6.309" height="63.792" transform="translate(95.094 22.718)" fill="#d9a171"/>
      <g id="Grupo_62585" data-name="Grupo 62585" transform="translate(95.094 22.718)" opacity="0.2">
        <rect id="Rectángulo_14138" data-name="Rectángulo 14138" width="6.309" height="63.792"/>
      </g>
      <rect id="Rectángulo_14139" data-name="Rectángulo 14139" width="6.309" height="76.389" transform="translate(86.857 10.121)" fill="#d9a171"/>
      <g id="Grupo_62586" data-name="Grupo 62586" transform="translate(86.857 10.121)" opacity="0.1">
        <rect id="Rectángulo_14140" data-name="Rectángulo 14140" width="6.309" height="76.389"/>
      </g>
      <rect id="Rectángulo_14141" data-name="Rectángulo 14141" width="6.309" height="33.471" transform="translate(35.503 53.039)" fill="#d9a171"/>
      <g id="Grupo_62587" data-name="Grupo 62587" transform="translate(35.503 53.039)" opacity="0.2">
        <rect id="Rectángulo_14142" data-name="Rectángulo 14142" width="6.309" height="33.471"/>
      </g>
      <path id="Trazado_134228" data-name="Trazado 134228" d="M7155.512,3072.724c0,.158-22.519.274-50.282.274s-50.29-.115-50.29-.274,22.508-.274,50.29-.274S7155.512,3072.577,7155.512,3072.724Z" transform="translate(-7045.083 -2983.329)" fill="#344154"/>
      <rect id="Rectángulo_14143" data-name="Rectángulo 14143" width="3.855" height="1.274" transform="translate(6.93 78.032)" fill="#344154"/>
      <rect id="Rectángulo_14144" data-name="Rectángulo 14144" width="3.855" height="1.274" transform="translate(6.93 61.086)" fill="#344154"/>
      <rect id="Rectángulo_14145" data-name="Rectángulo 14145" width="3.855" height="1.274" transform="translate(6.93 29.174)" fill="#344154"/>
      <rect id="Rectángulo_14146" data-name="Rectángulo 14146" width="3.855" height="1.274" transform="translate(6.93 13.144)" fill="#344154"/>
      <rect id="Rectángulo_14147" data-name="Rectángulo 14147" width="3.855" height="1.274" transform="translate(7.13 45.13)" fill="#344154"/>
    </g>
    <g id="Grupo_70422" data-name="Grupo 70422" transform="translate(331.431 379.918)">
      <rect id="Rectángulo_14109" data-name="Rectángulo 14109" width="141.387" height="60.099" rx="3.96" transform="translate(0 0)" fill="#f6f6f6"/>
      <path id="Trazado_134213" data-name="Trazado 134213" d="M6757.168,3192.719l.079-12.189a15.556,15.556,0,0,1,10.067,3.928,14.4,14.4,0,0,1,4.844,12.62c-.062.582-.159,1.172-.282,1.761h0l-14.689-3.3Z" transform="translate(-6641.647 -3163.683)" fill="#d9a171"/>
      <g id="Grupo_62580" data-name="Grupo 62580" transform="translate(98.848 16.944)" opacity="0.2">
        <path id="Trazado_134215" data-name="Trazado 134215" d="M6777.612,3188.98a14.461,14.461,0,0,1,11.855-8.3l.466-.043h1.26l-.081,12.188v2.863l-14.708,3.153h0a14.046,14.046,0,0,1-.325-3.161A15.838,15.838,0,0,1,6777.612,3188.98Z" transform="translate(-6776.08 -3180.641)"/>
      </g>
      <g id="Grupo_62581" data-name="Grupo 62581" transform="translate(100.021 33.387)" opacity="0.1">
        <path id="Trazado_134217" data-name="Trazado 134217" d="M6773.246,3199.311l14.682,3.311a15.06,15.06,0,0,1-29.4-.1l14.69-3.206" transform="translate(-6758.53 -3199.311)"/>
      </g>
      <rect id="Rectángulo_14110" data-name="Rectángulo 14110" width="74.621" height="3.382" transform="translate(14.364 20.494)" fill="#6595bf"/>
      <rect id="Rectángulo_14111" data-name="Rectángulo 14111" width="74.621" height="3.382" transform="translate(14.364 29.406)" fill="#6595bf"/>
      <rect id="Rectángulo_14112" data-name="Rectángulo 14112" width="40.336" height="3.382" transform="translate(48.65 39.261)" fill="#6595bf"/>
    </g>
  </g>
</svg>
