<svg xmlns="http://www.w3.org/2000/svg" width="216.123" height="182.898" viewBox="0 0 216.123 182.898">
  <g id="img16" transform="translate(-887.938 -7889.685)">
    <path id="Trazado_132887" data-name="Trazado 132887" d="M829,485.783c23.391,31.894,25.012,123.963-7.843,148.06s-87.753-28.906-111.138-60.8-15.713-77.273,17.141-101.37S805.611,453.893,829,485.783Z" transform="translate(214.086 7432.646)" fill="#aed3f2"/>
    <path id="Trazado_132888" data-name="Trazado 132888" d="M868.86,525.891c0,44.538-80.164,93.183-124.387,93.183s-91.736-48.645-91.736-93.183,18.658-74.7,83.962-40.927C776.04,505.306,868.86,481.354,868.86,525.891Z" transform="translate(235.201 7432.646)" fill="#d9a171"/>
    <g id="Grupo_78891" data-name="Grupo 78891" transform="translate(720.102 5601.965)">
      <g id="Grupo_70180" data-name="Grupo 70180" transform="translate(180.5 2295)">
        <rect id="Rectángulo_31121" data-name="Rectángulo 31121" width="190.795" height="161.222" transform="translate(0 0)" fill="none"/>
      </g>
      <g id="Grupo_70295" data-name="Grupo 70295" transform="matrix(0.974, 0.225, -0.225, 0.974, 286.328, 2363.938)">
        <g id="Grupo_67664" data-name="Grupo 67664" transform="translate(0.094 0.094)">
          <rect id="Rectángulo_31688" data-name="Rectángulo 31688" width="80.43" height="53.636" fill="#fafafa"/>
        </g>
        <g id="Grupo_67665" data-name="Grupo 67665" transform="translate(15.02 19.284)">
          <rect id="Rectángulo_31689" data-name="Rectángulo 31689" width="13.232" height="5.308" transform="translate(0 0)" fill="#d9a171"/>
        </g>
        <g id="Grupo_67666" data-name="Grupo 67666" transform="translate(54.717 19.284)">
          <rect id="Rectángulo_31690" data-name="Rectángulo 31690" width="13.232" height="5.308" transform="translate(0 0)" fill="#d9a171"/>
        </g>
        <g id="Grupo_67667" data-name="Grupo 67667" transform="translate(54.717 29.827)">
          <rect id="Rectángulo_31691" data-name="Rectángulo 31691" width="13.232" height="5.308" transform="translate(0 0)" fill="#d9a171"/>
        </g>
        <g id="Grupo_67668" data-name="Grupo 67668" transform="translate(54.717 35.098)">
          <rect id="Rectángulo_31692" data-name="Rectángulo 31692" width="13.232" height="5.308" fill="#d9a171"/>
        </g>
        <g id="Grupo_67669" data-name="Grupo 67669" transform="translate(28.253 29.922)">
          <rect id="Rectángulo_31693" data-name="Rectángulo 31693" width="13.232" height="5.308" transform="translate(0 0)" fill="#455a64"/>
        </g>
        <g id="Grupo_67670" data-name="Grupo 67670" transform="translate(41.463 35.295)">
          <rect id="Rectángulo_31694" data-name="Rectángulo 31694" width="13.232" height="5.308" transform="translate(0 0)" fill="#455a64"/>
        </g>
        <g id="Grupo_67671" data-name="Grupo 67671" transform="translate(28.253 45.825)">
          <rect id="Rectángulo_31695" data-name="Rectángulo 31695" width="13.232" height="5.523" transform="translate(0 0)" fill="#ebebeb"/>
        </g>
        <g id="Grupo_67672" data-name="Grupo 67672" transform="translate(54.717 45.898)">
          <rect id="Rectángulo_31696" data-name="Rectángulo 31696" width="13.232" height="5.308" fill="#d9a171"/>
        </g>
        <g id="Grupo_67673" data-name="Grupo 67673" transform="translate(6.636 14.096)">
          <rect id="Rectángulo_31697" data-name="Rectángulo 31697" width="71.446" height="5.188" transform="translate(0 0)" fill="#e0e0e0"/>
        </g>
        <g id="Grupo_67674" data-name="Grupo 67674" transform="translate(2.314 13.916)">
          <path id="Trazado_133953" data-name="Trazado 133953" d="M12.887,37.723H0V0H12.887ZM.361,37.363H12.526v-37H.361Z" fill="#e0e0e0"/>
          <rect id="Rectángulo_31698" data-name="Rectángulo 31698" width="12.526" height="37.363" transform="translate(0.18 0.18)" fill="#e0e0e0"/>
        </g>
        <g id="Grupo_67675" data-name="Grupo 67675" transform="translate(0.094 0.094)">
          <rect id="Rectángulo_31699" data-name="Rectángulo 31699" width="80.43" height="6.085" fill="#d9a171"/>
        </g>
        <g id="Grupo_67676" data-name="Grupo 67676" transform="translate(2.637 8.396)">
          <rect id="Rectángulo_31700" data-name="Rectángulo 31700" width="12.384" height="3.482" fill="#ebebeb"/>
        </g>
        <g id="Grupo_67677" data-name="Grupo 67677" transform="translate(16.47 8.396)">
          <rect id="Rectángulo_31701" data-name="Rectángulo 31701" width="11.942" height="3.482" fill="#ebebeb"/>
        </g>
        <g id="Grupo_67678" data-name="Grupo 67678" transform="translate(29.568 8.396)">
          <rect id="Rectángulo_31702" data-name="Rectángulo 31702" width="11.942" height="3.482" transform="translate(0 0)" fill="#ebebeb"/>
        </g>
        <g id="Grupo_67679" data-name="Grupo 67679" transform="translate(42.666 8.396)">
          <rect id="Rectángulo_31703" data-name="Rectángulo 31703" width="11.942" height="3.482" fill="#ebebeb"/>
        </g>
        <g id="Grupo_67680" data-name="Grupo 67680" transform="translate(55.763 8.396)">
          <rect id="Rectángulo_31704" data-name="Rectángulo 31704" width="11.942" height="3.482" fill="#ebebeb"/>
        </g>
        <g id="Grupo_67681" data-name="Grupo 67681" transform="translate(68.861 8.396)">
          <rect id="Rectángulo_31705" data-name="Rectángulo 31705" width="9.816" height="3.482" fill="#ebebeb"/>
        </g>
        <g id="Grupo_67683" data-name="Grupo 67683" transform="translate(2.425 14.003)">
          <g id="Grupo_67682" data-name="Grupo 67682" transform="translate(0 0)">
            <path id="Trazado_133954" data-name="Trazado 133954" d="M.07,37.345s.127,0,.37-.005l1.08-.005L5.7,37.323,21.353,37.3l54.3-.043-.089.089c0-11.521,0-24.122-.005-37.246V.094l.094.094L.07.163l.07-.07C.123,11.575.111,20.88.1,27.317.095,30.539.089,33.042.085,34.743c0,.849-.006,1.5-.008,1.937s-.007.665-.007.665,0-.218-.007-.651,0-1.081-.008-1.924c0-1.7-.01-4.2-.017-7.41C.028,20.912.016,11.593,0,.094V.025H.07L75.656,0h.094V.1c0,13.124,0,25.725-.005,37.246v.089h-.089l-54.362-.043L5.658,37.367,1.5,37.356.429,37.35C.189,37.349.07,37.345.07,37.345Z" fill="#263238"/>
          </g>
        </g>
        <g id="Grupo_67685" data-name="Grupo 67685" transform="translate(2.637 19.19)">
          <g id="Grupo_67684" data-name="Grupo 67684" transform="translate(0 0)">
            <path id="Trazado_133955" data-name="Trazado 133955" d="M75.586.094c0,.052-16.922.094-37.791.094S0,.146,0,.094,16.918,0,37.8,0,75.586.042,75.586.094Z" fill="#263238"/>
          </g>
        </g>
        <g id="Grupo_67687" data-name="Grupo 67687" transform="translate(2.637 24.498)">
          <g id="Grupo_67686" data-name="Grupo 67686" transform="translate(0 0)">
            <path id="Trazado_133956" data-name="Trazado 133956" d="M75.586.094c0,.052-16.922.094-37.791.094S0,.146,0,.094,16.918,0,37.8,0,75.586.042,75.586.094Z" fill="#263238"/>
          </g>
        </g>
        <g id="Grupo_67689" data-name="Grupo 67689" transform="translate(2.637 29.806)">
          <g id="Grupo_67688" data-name="Grupo 67688" transform="translate(0 0)">
            <path id="Trazado_133957" data-name="Trazado 133957" d="M75.586.094c0,.052-16.922.094-37.791.094S0,.146,0,.094,16.918,0,37.8,0,75.586.042,75.586.094Z" fill="#263238"/>
          </g>
        </g>
        <g id="Grupo_67691" data-name="Grupo 67691" transform="translate(2.637 35.114)">
          <g id="Grupo_67690" data-name="Grupo 67690" transform="translate(0 0)">
            <path id="Trazado_133958" data-name="Trazado 133958" d="M75.586.094c0,.052-16.922.094-37.791.094S0,.146,0,.094,16.918,0,37.8,0,75.586.042,75.586.094Z" fill="#263238"/>
          </g>
        </g>
        <g id="Grupo_67693" data-name="Grupo 67693" transform="translate(2.637 40.423)">
          <g id="Grupo_67692" data-name="Grupo 67692" transform="translate(0 0)">
            <path id="Trazado_133959" data-name="Trazado 133959" d="M75.586.094c0,.052-16.922.094-37.791.094S0,.146,0,.094,16.918,0,37.8,0,75.586.042,75.586.094Z" fill="#263238"/>
          </g>
        </g>
        <g id="Grupo_67695" data-name="Grupo 67695" transform="translate(2.637 45.731)">
          <g id="Grupo_67694" data-name="Grupo 67694" transform="translate(0 0)">
            <path id="Trazado_133960" data-name="Trazado 133960" d="M75.586.094c0,.052-16.922.094-37.791.094S0,.146,0,.094,16.918,0,37.8,0,75.586.042,75.586.094Z" fill="#263238"/>
          </g>
        </g>
        <g id="Grupo_67697" data-name="Grupo 67697" transform="translate(13.455 14.22)">
          <g id="Grupo_67696" data-name="Grupo 67696">
            <path id="Trazado_133961" data-name="Trazado 133961" d="M0,0" fill="none" stroke="#fff" stroke-miterlimit="10" stroke-width="1"/>
          </g>
        </g>
        <g id="Grupo_67699" data-name="Grupo 67699" transform="translate(14.926 14.305)">
          <g id="Grupo_67698" data-name="Grupo 67698" transform="translate(0 0)">
            <path id="Trazado_133962" data-name="Trazado 133962" d="M.094,37.154C.042,37.154,0,28.836,0,18.578S.042,0,.094,0,.188,8.316.188,18.578.146,37.154.094,37.154Z" fill="#263238"/>
          </g>
        </g>
        <g id="Grupo_67701" data-name="Grupo 67701" transform="translate(28.159 14.305)">
          <g id="Grupo_67700" data-name="Grupo 67700" transform="translate(0 0)">
            <path id="Trazado_133963" data-name="Trazado 133963" d="M.094,37.042C.042,37.042,0,28.749,0,18.522S.042,0,.094,0,.188,8.291.188,18.522.146,37.042.094,37.042Z" fill="#263238"/>
          </g>
        </g>
        <g id="Grupo_67703" data-name="Grupo 67703" transform="translate(41.391 14.305)">
          <g id="Grupo_67702" data-name="Grupo 67702" transform="translate(0 0)">
            <path id="Trazado_133964" data-name="Trazado 133964" d="M.094,37.154C.042,37.154,0,28.836,0,18.578S.042,0,.094,0,.188,8.316.188,18.578.146,37.154.094,37.154Z" fill="#263238"/>
          </g>
        </g>
        <g id="Grupo_67705" data-name="Grupo 67705" transform="translate(54.624 14.305)">
          <g id="Grupo_67704" data-name="Grupo 67704">
            <path id="Trazado_133965" data-name="Trazado 133965" d="M.094,37.154C.042,37.154,0,28.836,0,18.578S.042,0,.094,0,.188,8.316.188,18.578.146,37.154.094,37.154Z" fill="#263238"/>
          </g>
        </g>
        <g id="Grupo_67707" data-name="Grupo 67707" transform="translate(67.856 14.305)">
          <g id="Grupo_67706" data-name="Grupo 67706">
            <path id="Trazado_133966" data-name="Trazado 133966" d="M.094,37.154C.042,37.154,0,28.836,0,18.578S.042,0,.094,0,.188,8.316.188,18.578.146,37.154.094,37.154Z" fill="#263238"/>
          </g>
        </g>
        <g id="Grupo_67708" data-name="Grupo 67708" transform="translate(3.262 2.347)">
          <path id="Trazado_133967" data-name="Trazado 133967" d="M1.534.79a.779.779,0,0,1-.767.79A.779.779,0,0,1,0,.79.779.779,0,0,1,.767,0,.779.779,0,0,1,1.534.79Z" fill="#fff"/>
        </g>
        <g id="Grupo_67709" data-name="Grupo 67709" transform="translate(5.868 2.347)">
          <path id="Trazado_133968" data-name="Trazado 133968" d="M1.534.79a.779.779,0,0,1-.767.79A.779.779,0,0,1,0,.79.779.779,0,0,1,.767,0,.779.779,0,0,1,1.534.79Z" transform="translate(0 0)" fill="#fff"/>
        </g>
        <g id="Grupo_67710" data-name="Grupo 67710" transform="translate(8.475 2.347)">
          <path id="Trazado_133969" data-name="Trazado 133969" d="M1.534.79a.779.779,0,0,1-.767.79A.779.779,0,0,1,0,.79.779.779,0,0,1,.767,0,.779.779,0,0,1,1.534.79Z" transform="translate(0 0)" fill="#fff"/>
        </g>
        <g id="Grupo_67712" data-name="Grupo 67712" transform="translate(0 0)">
          <g id="Grupo_67711" data-name="Grupo 67711">
            <path id="Trazado_133970" data-name="Trazado 133970" d="M80.524,53.73c0-.612-.029-20.96-.075-53.636l.075.075L.1.188H.094L.188.094C.185,19.2.183,37.362.18,53.73l-.086-.086,57.956.043,16.552.023,4.4.01,1.134.005c.255,0,.388.005.388.005s-.126,0-.378.005l-1.125.005-4.383.01-16.532.023L.094,53.816H.008V53.73C.005,37.362,0,19.2,0,.094V0H.1L80.524.019H80.6V.094C80.554,32.769,80.525,53.118,80.524,53.73Z" fill="#263238"/>
          </g>
        </g>
      </g>
      <g id="Grupo_70296" data-name="Grupo 70296" transform="translate(319.542 2312.649)">
        <g id="Grupo_62584" data-name="Grupo 62584">
          <g id="Grupo_62578" data-name="Grupo 62578">
            <g id="Grupo_62577" data-name="Grupo 62577">
              <path id="Trazado_132423" data-name="Trazado 132423" d="M434.295,313.533a19.83,19.83,0,1,1-11.882-25.366A19.808,19.808,0,0,1,434.295,313.533Z" transform="translate(-395.827 -286.967)" fill="#f5f5f5"/>
            </g>
          </g>
          <g id="Grupo_62580" data-name="Grupo 62580" transform="translate(4.718 4.71)">
            <g id="Grupo_62579" data-name="Grupo 62579">
              <path id="Trazado_132424" data-name="Trazado 132424" d="M433.875,315.93a15.112,15.112,0,1,1-9.054-19.331A15.095,15.095,0,0,1,433.875,315.93Z" transform="translate(-404.561 -295.684)" fill="#ebebeb"/>
            </g>
          </g>
          <g id="Grupo_62583" data-name="Grupo 62583" transform="translate(5.458 4.149)">
            <g id="Grupo_62582" data-name="Grupo 62582">
              <g id="Grupo_62581" data-name="Grupo 62581">
                <path id="Trazado_132425" data-name="Trazado 132425" d="M434.663,315.006a8.976,8.976,0,0,1,.245-1.845,16.043,16.043,0,0,0-.057-4.948,15.476,15.476,0,0,0-.943-3.264,15.117,15.117,0,0,0-1.943-3.36,14.829,14.829,0,0,0-3.059-2.985,14.664,14.664,0,0,0-1.929-1.185,16.057,16.057,0,0,0-2.152-.9,16.288,16.288,0,0,0-2.266-.551,14.753,14.753,0,0,0-2.257-.188,14.83,14.83,0,0,0-4.234.592,15.127,15.127,0,0,0-3.556,1.556A15.488,15.488,0,0,0,409.818,300a16.041,16.041,0,0,0-2.976,3.952,8.88,8.88,0,0,1-.895,1.631,4.429,4.429,0,0,1,.487-1.822,13.966,13.966,0,0,1,2.8-4.335,15.142,15.142,0,0,1,6.523-4.072,14.572,14.572,0,0,1,2.2-.515,14.772,14.772,0,0,1,2.349-.19,15.376,15.376,0,0,1,2.437.185A15.479,15.479,0,0,1,427.5,296.4a15.405,15.405,0,0,1,2.072,1.3,15.377,15.377,0,0,1,3.243,3.26,15.137,15.137,0,0,1,2.842,7.145,14,14,0,0,1-.312,5.152A4.435,4.435,0,0,1,434.663,315.006Z" transform="translate(-405.93 -294.646)" fill="#e0e0e0"/>
              </g>
            </g>
          </g>
        </g>
        <g id="Grupo_62588" data-name="Grupo 62588" transform="translate(11.204 9.695)">
          <g id="Grupo_62587" data-name="Grupo 62587">
            <g id="Grupo_62586" data-name="Grupo 62586">
              <g id="Grupo_62585" data-name="Grupo 62585">
                <path id="Trazado_132426" data-name="Trazado 132426" d="M423.72,324.067l-.863,2.487-2.22-.771.84-2.42a11.137,11.137,0,0,1-4.911-3.695l2.16-2.285a9.5,9.5,0,0,0,3.761,3.071l1.287-3.708c-2.257-1.454-4.725-3.231-3.622-6.406.817-2.354,3.227-3.781,6.874-2.963l.855-2.465,2.22.77-.84,2.421a10.625,10.625,0,0,1,4.037,2.918l-2.058,2.346a9.631,9.631,0,0,0-3-2.334l-1.31,3.775c2.264,1.432,4.687,3.195,3.6,6.324C429.733,323.442,427.352,324.854,423.72,324.067Zm1.186-10.585L426,310.33c-1.269-.142-1.958.34-2.213,1.073C423.517,312.179,424.037,312.833,424.906,313.482Zm1.962,6.677c.27-.778-.228-1.422-1.067-2.088l-1.063,3.064C425.932,321.277,426.621,320.87,426.868,320.159Z" transform="translate(-416.565 -304.912)" fill="#e0e0e0"/>
              </g>
            </g>
          </g>
        </g>
      </g>
      <g id="Grupo_70298" data-name="Grupo 70298" transform="translate(328.376 2344.819) rotate(2)">
        <g id="Grupo_62584-2" data-name="Grupo 62584" transform="translate(0 0)">
          <g id="Grupo_62578-2" data-name="Grupo 62578">
            <g id="Grupo_62577-2" data-name="Grupo 62577">
              <path id="Trazado_132423-2" data-name="Trazado 132423" d="M28.279,19.53A14.578,14.578,0,1,1,19.545.882,14.562,14.562,0,0,1,28.279,19.53Z" fill="#f5f5f5"/>
            </g>
          </g>
          <g id="Grupo_62580-2" data-name="Grupo 62580" transform="translate(3.469 3.462)">
            <g id="Grupo_62579-2" data-name="Grupo 62579" transform="translate(0 0)">
              <path id="Trazado_132424-2" data-name="Trazado 132424" d="M21.55,14.883A11.109,11.109,0,1,1,14.894.672,11.1,11.1,0,0,1,21.55,14.883Z" fill="#ebebeb"/>
            </g>
          </g>
          <g id="Grupo_62583-2" data-name="Grupo 62583" transform="translate(4.013 3.05)">
            <g id="Grupo_62582-2" data-name="Grupo 62582" transform="translate(0 0)">
              <g id="Grupo_62581-2" data-name="Grupo 62581">
                <path id="Trazado_132425-2" data-name="Trazado 132425" d="M21.123,14.968a6.6,6.6,0,0,1,.18-1.356,11.794,11.794,0,0,0-.042-3.638,11.377,11.377,0,0,0-.693-2.4A11.114,11.114,0,0,0,19.14,5.1a10.9,10.9,0,0,0-2.249-2.195,10.783,10.783,0,0,0-1.418-.871,11.806,11.806,0,0,0-1.582-.662,11.975,11.975,0,0,0-1.666-.4A10.841,10.841,0,0,0,10.566.833a10.9,10.9,0,0,0-3.113.435A11.12,11.12,0,0,0,4.839,2.412a11.385,11.385,0,0,0-1.98,1.522A11.792,11.792,0,0,0,.671,6.84a6.527,6.527,0,0,1-.658,1.2A3.255,3.255,0,0,1,.371,6.7,10.266,10.266,0,0,1,2.429,3.512,11.131,11.131,0,0,1,7.224.518,10.715,10.715,0,0,1,8.838.14,10.863,10.863,0,0,1,10.565,0a11.3,11.3,0,0,1,1.792.136,12.279,12.279,0,0,1,1.8.432,12.269,12.269,0,0,1,1.7.718,11.329,11.329,0,0,1,1.524.952,11.306,11.306,0,0,1,2.384,2.4,11.128,11.128,0,0,1,2.089,5.253,10.292,10.292,0,0,1-.229,3.787A3.26,3.26,0,0,1,21.123,14.968Z" fill="#e0e0e0"/>
              </g>
            </g>
          </g>
        </g>
        <g id="Grupo_62588-2" data-name="Grupo 62588" transform="translate(8.236 7.127)">
          <g id="Grupo_62587-2" data-name="Grupo 62587">
            <g id="Grupo_62586-2" data-name="Grupo 62586">
              <g id="Grupo_62585-2" data-name="Grupo 62585">
                <path id="Trazado_132426-2" data-name="Trazado 132426" d="M5.26,14.082,4.625,15.91l-1.632-.567.617-1.779A8.188,8.188,0,0,1,0,10.848l1.588-1.68a6.987,6.987,0,0,0,2.765,2.258L5.3,8.7C3.64,7.631,1.826,6.324,2.636,3.99c.6-1.73,2.373-2.779,5.054-2.178L8.318,0,9.951.566l-.618,1.78A7.811,7.811,0,0,1,12.3,4.491L10.788,6.216A7.08,7.08,0,0,0,8.585,4.5L7.622,7.275c1.664,1.053,3.446,2.348,2.647,4.649C9.681,13.622,7.93,14.661,5.26,14.082ZM6.132,6.3l.8-2.317c-.933-.1-1.44.25-1.627.789C5.111,5.342,5.493,5.823,6.132,6.3Zm1.442,4.909c.2-.572-.168-1.046-.784-1.535l-.782,2.253C6.886,12.031,7.392,11.731,7.574,11.209Z" fill="#e0e0e0"/>
              </g>
            </g>
          </g>
        </g>
      </g>
      <g id="Background_Complete" data-name="Background Complete" transform="translate(192.329 2300.831)">
        <g id="Grupo_66533" data-name="Grupo 66533" transform="translate(0)">
          <g id="Grupo_66531" data-name="Grupo 66531">
            <g id="Grupo_66418" data-name="Grupo 66418" transform="translate(3.51 18.803)">
              <path id="Trazado_133617" data-name="Trazado 133617" d="M661.289,526.7l.077,13.531L682.784,661.48,791.941,642.2l-1.362-7.708Z" transform="translate(-661.289 -526.701)" fill="#5e6178"/>
            </g>
            <g id="Grupo_66419" data-name="Grupo 66419" transform="translate(3.3)">
              <path id="Rectángulo_31654" data-name="Rectángulo 31654" d="M661.29,533.836l87.5-15.455a22.252,22.252,0,0,1,25.785,18.043h0l14.908,84.385A22.255,22.255,0,0,1,771.434,646.6l-87.494,15.455h0L661.29,533.836Z" transform="translate(-661.078 -515.034)" fill="#6595bf"/>
              <path id="Trazado_133618" data-name="Trazado 133618" d="M789.1,645.023,683.885,663.61,661.174,535.045l105.218-18.587a4.62,4.62,0,0,1,5.338,3.744l21.1,119.475A4.62,4.62,0,0,1,789.1,645.023ZM684.181,663.19,789.04,644.666a4.255,4.255,0,0,0,3.447-4.926l-21.1-119.477a4.255,4.255,0,0,0-4.926-3.445L661.6,535.341Z" transform="translate(-661.174 -516.39)" fill="#6595bf"/>
            </g>
            <g id="Grupo_66420" data-name="Grupo 66420" transform="translate(28.421 5.229)">
              <path id="Trazado_133619" data-name="Trazado 133619" d="M748.277,519.258l7.847,9.036,19.542,110.631-94.6,15.742-6.117-4.433Z" transform="translate(-674.949 -519.258)" fill="#e0e0e0"/>
            </g>
            <g id="Grupo_66424" data-name="Grupo 66424" transform="translate(8.007 4.646)">
              <g id="Grupo_66421" data-name="Grupo 66421" transform="translate(0.11 0.097)">
                <rect id="Rectángulo_31655" data-name="Rectángulo 31655" width="94.995" height="116.714" transform="translate(0 16.525) rotate(-10.018)" fill="#fff"/>
              </g>
              <g id="Grupo_66423" data-name="Grupo 66423">
                <g id="Grupo_66422" data-name="Grupo 66422">
                  <path id="Trazado_133620" data-name="Trazado 133620" d="M777.716,633.969c-.128-.719-8.263-46.57-20.386-114.92l.1.071L663.89,535.644l-.009,0,.071-.1,20.3,114.936-.091-.064,93.561-16.447-93.543,16.6-.077.015-.013-.079c-5.814-32.873-12.809-72.413-20.321-114.933l-.016-.093.1-.018,93.54-16.513.084-.015.015.082C769.522,587.386,777.586,633.245,777.716,633.969Z" transform="translate(-663.755 -518.938)" fill="#263238"/>
                </g>
              </g>
            </g>
            <g id="Grupo_66425" data-name="Grupo 66425" transform="translate(22.136 55.962)">
              <path id="Trazado_133621" data-name="Trazado 133621" d="M675.8,549.055a2.165,2.165,0,1,1-2.533-1.96A2.27,2.27,0,0,1,675.8,549.055Z" transform="translate(-671.503 -547.077)" fill="#263238"/>
            </g>
            <g id="Grupo_66426" data-name="Grupo 66426" transform="translate(13.208 72.99)" opacity="0.3">
              <path id="Trazado_133622" data-name="Trazado 133622" d="M667.224,560.613l4.043-.715-.624-3.483-4.036.713Z" transform="translate(-666.607 -556.415)"/>
            </g>
            <g id="Grupo_66430" data-name="Grupo 66430" transform="translate(0 48.535)">
              <g id="Grupo_66427" data-name="Grupo 66427" transform="translate(0.077 0.001)">
                <path id="Trazado_133623" data-name="Trazado 133623" d="M670.131,543.232a12.617,12.617,0,1,0,4.464,24.825l2.031-.359-.549-2.94-1.99.436a9.72,9.72,0,1,1,8.4-11.339,1.326,1.326,0,1,0,2.644-.2,1.228,1.228,0,0,0-.044-.255A12.8,12.8,0,0,0,670.131,543.232Z" transform="translate(-659.406 -543.005)" fill="#e0e0e0"/>
              </g>
              <g id="Grupo_66429" data-name="Grupo 66429">
                <g id="Grupo_66428" data-name="Grupo 66428">
                  <path id="Trazado_133624" data-name="Trazado 133624" d="M670.17,543.233l.3-.053.9-.119c.394-.035.886-.042,1.472-.056a14.3,14.3,0,0,1,1.992.2,13.292,13.292,0,0,1,5.053,2.048l.655.49c.109.084.226.164.334.254l.316.288c.21.2.438.379.64.594l.6.667a12.91,12.91,0,0,1,2.01,3.273,12.74,12.74,0,0,1,.617,1.979,3.022,3.022,0,0,1,.146,1.074,1.486,1.486,0,0,1-.531.983,1.291,1.291,0,0,1-1.111.252,1.454,1.454,0,0,1-.919-.709,1.777,1.777,0,0,1-.2-.562l-.131-.562a8.414,8.414,0,0,0-.346-1.111,9.459,9.459,0,0,0-2.845-3.873,10.22,10.22,0,0,0-2.161-1.326,11.332,11.332,0,0,0-1.206-.463c-.208-.066-.421-.111-.633-.168a4.865,4.865,0,0,0-.644-.138l-.655-.1c-.222-.026-.443-.031-.668-.047a11.838,11.838,0,0,0-1.344.005,11.411,11.411,0,0,0-3.966,1.072c-.21.1-.409.224-.615.334l-.308.172-.29.2a10.065,10.065,0,0,0-2.13,1.88,9.581,9.581,0,0,0-1.544,2.427,8.892,8.892,0,0,0-.744,2.834,8.263,8.263,0,0,0,.2,2.967,8.529,8.529,0,0,0,1.174,2.772,10.045,10.045,0,0,0,5.688,4.147,10.31,10.31,0,0,0,3.452.39,6.119,6.119,0,0,0,.855-.078,6.321,6.321,0,0,0,.843-.135l1.661-.363.095-.016.016.095q.279,1.493.549,2.938l.015.089-.1.018c-.755.133-1.5.274-2.245.385l-1.121.142-1.12.029a13.677,13.677,0,0,1-4.28-.755c-.33-.126-.671-.235-.994-.379l-.945-.459-.875-.551a3.583,3.583,0,0,1-.423-.3l-.408-.3a12.69,12.69,0,0,1-2.726-2.852c-.2-.257-.341-.547-.511-.813l-.243-.408-.2-.425c-.126-.284-.272-.558-.379-.846l-.3-.863a12.262,12.262,0,0,1-.534-3.447,11.591,11.591,0,0,1,.08-1.649,6.836,6.836,0,0,1,.128-.791c.055-.259.093-.523.161-.77a12.444,12.444,0,0,1,.471-1.442l.277-.678c.1-.221.221-.427.325-.638a12.907,12.907,0,0,1,3.151-3.9c.148-.124.275-.242.416-.355l.429-.3a8.489,8.489,0,0,1,.822-.534l.784-.44c.255-.126.514-.23.74-.334a9.631,9.631,0,0,1,1.273-.474c.188-.058.349-.122.518-.162l.436-.095.593-.131.2-.035a1.508,1.508,0,0,0-.2.053l-.589.142-.434.1c-.161.04-.328.108-.514.168a10.067,10.067,0,0,0-1.262.485c-.232.108-.48.217-.729.337l-.781.447a7.9,7.9,0,0,0-.813.544l-.423.3c-.14.108-.272.232-.412.348a12.811,12.811,0,0,0-3.109,3.882c-.1.2-.222.41-.319.633l-.27.675a12.2,12.2,0,0,0-.459,1.432c-.075.246-.1.5-.155.768a6.679,6.679,0,0,0-.124.782,11.679,11.679,0,0,0-.082,1.634,12.106,12.106,0,0,0,.545,3.394l.3.852c.1.284.252.554.378.835l.2.418.235.4c.168.263.306.551.5.8a12.518,12.518,0,0,0,2.7,2.814l.4.3a3.58,3.58,0,0,0,.419.284l.877.529.934.45c.314.151.651.257.977.385a13.5,13.5,0,0,0,4.225.735l1.107-.031,1.107-.141c.74-.109,1.486-.262,2.243-.386l-.075.106q-.268-1.444-.551-2.938l.109.073-1.665.365a7.164,7.164,0,0,1-.855.141,6.349,6.349,0,0,1-.87.078,10.434,10.434,0,0,1-3.512-.4,10.223,10.223,0,0,1-5.8-4.224,8.755,8.755,0,0,1-1.2-2.83,8.38,8.38,0,0,1-.2-3.027,8.956,8.956,0,0,1,.76-2.892,9.7,9.7,0,0,1,1.57-2.487,10.175,10.175,0,0,1,2.168-1.911l.3-.2.312-.171c.21-.113.414-.237.627-.339a11.555,11.555,0,0,1,4.034-1.083,11.391,11.391,0,0,1,1.369,0c.224.016.452.024.675.049l.666.106a5.041,5.041,0,0,1,.655.142c.213.058.432.109.644.171a11.082,11.082,0,0,1,1.227.482,10.414,10.414,0,0,1,2.2,1.351,9.613,9.613,0,0,1,2.885,3.944,8.2,8.2,0,0,1,.35,1.132c.046.19.088.379.133.569a1.567,1.567,0,0,0,.182.523,1.319,1.319,0,0,0,.823.64,1.147,1.147,0,0,0,.985-.221,1.355,1.355,0,0,0,.481-.886,2.927,2.927,0,0,0-.142-1.027,12.693,12.693,0,0,0-.6-1.959,12.834,12.834,0,0,0-1.975-3.247l-.6-.664c-.2-.211-.423-.4-.631-.593l-.321-.286c-.106-.091-.215-.171-.33-.254l-.642-.49a13.283,13.283,0,0,0-5.013-2.059,14.723,14.723,0,0,0-1.98-.222c-.576.007-1.067.005-1.453.035l-.908.106C670.276,543.227,670.17,543.233,670.17,543.233Z" transform="translate(-659.364 -543.005)" fill="#263238"/>
                </g>
              </g>
            </g>
            <g id="Grupo_66431" data-name="Grupo 66431" transform="translate(28.101 89.732)">
              <path id="Trazado_133625" data-name="Trazado 133625" d="M679.074,567.573a2.166,2.166,0,1,1-2.535-1.96A2.274,2.274,0,0,1,679.074,567.573Z" transform="translate(-674.774 -565.595)" fill="#263238"/>
            </g>
            <g id="Grupo_66432" data-name="Grupo 66432" transform="translate(27.921 34.935)">
              <rect id="Rectángulo_31656" data-name="Rectángulo 31656" width="73.177" height="3.063" transform="translate(0 12.73) rotate(-10.018)" fill="#6595bf"/>
            </g>
            <g id="Grupo_66433" data-name="Grupo 66433" transform="translate(27.268 36.548)">
              <rect id="Rectángulo_31657" data-name="Rectángulo 31657" width="42.651" height="3.063" transform="translate(0 7.419) rotate(-10.018)" fill="#6595bf"/>
            </g>
            <g id="Grupo_66434" data-name="Grupo 66434" transform="translate(39.377 105.094)">
              <rect id="Rectángulo_31658" data-name="Rectángulo 31658" width="42.651" height="3.063" transform="translate(0 7.419) rotate(-10.018)" fill="#6595bf"/>
            </g>
            <g id="Grupo_66518" data-name="Grupo 66518" transform="translate(26.432 24.674)">
              <g id="Grupo_66517" data-name="Grupo 66517" transform="translate(0 0)">
                <g id="Grupo_66516" data-name="Grupo 66516" transform="translate(0)">
                  <g id="Grupo_66436" data-name="Grupo 66436" transform="translate(0)">
                    <g id="Grupo_66435" data-name="Grupo 66435" transform="translate(0)">
                      <rect id="Rectángulo_31659" data-name="Rectángulo 31659" width="73.268" height="4.467" transform="translate(0 12.745) rotate(-10.018)" fill="#e0e0e0"/>
                    </g>
                  </g>
                  <g id="Grupo_66438" data-name="Grupo 66438" transform="translate(6.348 40.464)">
                    <g id="Grupo_66437" data-name="Grupo 66437" transform="translate(0 0)">
                      <rect id="Rectángulo_31660" data-name="Rectángulo 31660" width="73.268" height="4.467" transform="translate(0 12.745) rotate(-10.018)" fill="#e0e0e0"/>
                    </g>
                  </g>
                  <g id="Grupo_66440" data-name="Grupo 66440" transform="translate(3.296 26.32)">
                    <g id="Grupo_66439" data-name="Grupo 66439" transform="translate(0 0)">
                      <rect id="Rectángulo_31661" data-name="Rectángulo 31661" width="29.222" height="4.467" transform="translate(0 5.083) rotate(-10.018)" fill="#e0e0e0"/>
                    </g>
                  </g>
                  <g id="Grupo_66442" data-name="Grupo 66442" transform="translate(38.695 18.795)">
                    <g id="Grupo_66441" data-name="Grupo 66441" transform="translate(0 0)">
                      <rect id="Rectángulo_31662" data-name="Rectángulo 31662" width="36.533" height="4.467" transform="translate(0 6.355) rotate(-10.018)" fill="#e0e0e0"/>
                    </g>
                  </g>
                  <g id="Grupo_66445" data-name="Grupo 66445" transform="translate(1.794 13.668)">
                    <g id="Grupo_66444" data-name="Grupo 66444">
                      <g id="Grupo_66443" data-name="Grupo 66443">
                        <path id="Trazado_133626" data-name="Trazado 133626" d="M716.2,537.417c.009.049-9.244,1.721-20.664,3.738s-20.687,3.618-20.7,3.567,9.242-1.729,20.666-3.746S716.193,537.364,716.2,537.417Z" transform="translate(-674.842 -537.415)" fill="#263238"/>
                      </g>
                    </g>
                  </g>
                  <g id="Grupo_66448" data-name="Grupo 66448" transform="translate(2.328 11.821)">
                    <g id="Grupo_66447" data-name="Grupo 66447">
                      <g id="Grupo_66446" data-name="Grupo 66446">
                        <path id="Trazado_133627" data-name="Trazado 133627" d="M746.627,536.4c.009.049-15.986,2.912-35.73,6.4s-35.752,6.279-35.761,6.229,15.988-2.921,35.73-6.408S746.618,536.351,746.627,536.4Z" transform="translate(-675.135 -536.403)" fill="#263238"/>
                      </g>
                    </g>
                  </g>
                  <g id="Grupo_66451" data-name="Grupo 66451" transform="translate(2.908 15.098)">
                    <g id="Grupo_66450" data-name="Grupo 66450">
                      <g id="Grupo_66449" data-name="Grupo 66449">
                        <path id="Trazado_133628" data-name="Trazado 133628" d="M746.945,538.2c.009.053-15.986,2.912-35.73,6.4s-35.752,6.281-35.762,6.228,15.986-2.92,35.729-6.406S746.936,538.149,746.945,538.2Z" transform="translate(-675.453 -538.2)" fill="#263238"/>
                      </g>
                    </g>
                  </g>
                  <g id="Grupo_66454" data-name="Grupo 66454" transform="translate(4.321 33.445)">
                    <g id="Grupo_66453" data-name="Grupo 66453" transform="translate(0)">
                      <g id="Grupo_66452" data-name="Grupo 66452">
                        <path id="Trazado_133629" data-name="Trazado 133629" d="M704.981,548.262c.009.053-6.423,1.231-14.354,2.631s-14.39,2.5-14.4,2.448,6.419-1.229,14.354-2.632S704.97,548.211,704.981,548.262Z" transform="translate(-676.228 -548.26)" fill="#263238"/>
                      </g>
                    </g>
                  </g>
                  <g id="Grupo_66457" data-name="Grupo 66457" transform="translate(5.396 36.826)">
                    <g id="Grupo_66456" data-name="Grupo 66456">
                      <g id="Grupo_66455" data-name="Grupo 66455">
                        <path id="Trazado_133630" data-name="Trazado 133630" d="M705.093,550.116c.009.053-6.314,1.211-14.12,2.591s-14.146,2.455-14.155,2.4,6.312-1.211,14.122-2.591S705.083,550.063,705.093,550.116Z" transform="translate(-676.817 -550.114)" fill="#263238"/>
                      </g>
                    </g>
                  </g>
                  <g id="Grupo_66460" data-name="Grupo 66460" transform="translate(5.642 40.282)">
                    <g id="Grupo_66459" data-name="Grupo 66459">
                      <g id="Grupo_66458" data-name="Grupo 66458">
                        <path id="Trazado_133631" data-name="Trazado 133631" d="M705.47,552.011c.009.049-6.37,1.213-14.245,2.6s-14.265,2.484-14.273,2.433,6.364-1.22,14.242-2.611S705.461,551.958,705.47,552.011Z" transform="translate(-676.952 -552.009)" fill="#263238"/>
                      </g>
                    </g>
                  </g>
                  <g id="Grupo_66463" data-name="Grupo 66463" transform="translate(6.231 43.615)">
                    <g id="Grupo_66462" data-name="Grupo 66462">
                      <g id="Grupo_66461" data-name="Grupo 66461">
                        <path id="Trazado_133632" data-name="Trazado 133632" d="M705.793,553.839c.007.049-6.37,1.215-14.245,2.6s-14.264,2.484-14.273,2.433,6.364-1.22,14.242-2.611S705.784,553.786,705.793,553.839Z" transform="translate(-677.275 -553.837)" fill="#263238"/>
                      </g>
                    </g>
                  </g>
                  <g id="Grupo_66470" data-name="Grupo 66470" transform="translate(41.126 26.768)">
                    <g id="Grupo_66466" data-name="Grupo 66466" transform="translate(4.603)">
                      <g id="Grupo_66465" data-name="Grupo 66465">
                        <g id="Grupo_66464" data-name="Grupo 66464">
                          <path id="Trazado_133633" data-name="Trazado 133633" d="M728.714,544.6c.009.049-6.652,1.264-14.873,2.715s-14.9,2.595-14.906,2.544,6.649-1.271,14.875-2.723S728.7,544.548,728.714,544.6Z" transform="translate(-698.934 -544.599)" fill="#263238"/>
                        </g>
                      </g>
                    </g>
                    <g id="Grupo_66469" data-name="Grupo 66469" transform="translate(0 4.493)">
                      <g id="Grupo_66468" data-name="Grupo 66468" transform="translate(0)">
                        <g id="Grupo_66467" data-name="Grupo 66467">
                          <path id="Trazado_133634" data-name="Trazado 133634" d="M698.912,549.312a5.821,5.821,0,0,1-.142-.611c-.08-.372-.193-.908-.312-1.53l.089.071-2.048.363.075-.1h0l.051.292.051.288.1.556.18,1.018-.1-.064c.6-.106,1.105-.17,1.47-.217a4.972,4.972,0,0,1,.595-.064,3.109,3.109,0,0,1-.531.135c-.361.078-.875.188-1.5.312l-.077.013-.015-.086-.179-1.018-.1-.556-.1-.576h0l.059-.113,2.05-.347.077-.014.015.082c.117.664.189,1.218.241,1.594A3.563,3.563,0,0,1,698.912,549.312Z" transform="translate(-696.41 -547.063)" fill="#263238"/>
                        </g>
                      </g>
                    </g>
                  </g>
                  <g id="Grupo_66477" data-name="Grupo 66477" transform="translate(41.857 30.906)">
                    <g id="Grupo_66473" data-name="Grupo 66473" transform="translate(4.603)">
                      <g id="Grupo_66472" data-name="Grupo 66472">
                        <g id="Grupo_66471" data-name="Grupo 66471">
                          <path id="Trazado_133635" data-name="Trazado 133635" d="M729.115,546.87c.009.051-6.653,1.264-14.873,2.717s-14.9,2.593-14.906,2.544,6.649-1.271,14.873-2.725S729.106,546.817,729.115,546.87Z" transform="translate(-699.335 -546.868)" fill="#263238"/>
                        </g>
                      </g>
                    </g>
                    <g id="Grupo_66476" data-name="Grupo 66476" transform="translate(0 4.495)">
                      <g id="Grupo_66475" data-name="Grupo 66475" transform="translate(0)">
                        <g id="Grupo_66474" data-name="Grupo 66474">
                          <path id="Trazado_133636" data-name="Trazado 133636" d="M699.313,551.581a5.971,5.971,0,0,1-.142-.613c-.08-.37-.2-.906-.312-1.528l.089.071-2.048.361.075-.1h0l.051.294.051.286.1.558.181,1.016-.106-.064c.6-.106,1.107-.168,1.47-.217a4.662,4.662,0,0,1,.6-.066,3.123,3.123,0,0,1-.533.135c-.359.078-.873.19-1.5.314l-.077.015-.014-.087-.181-1.016-.1-.558-.1-.577h0l.057-.111,2.051-.348.077-.013.015.08c.117.665.19,1.216.241,1.6A3.523,3.523,0,0,1,699.313,551.581Z" transform="translate(-696.811 -549.333)" fill="#263238"/>
                        </g>
                      </g>
                    </g>
                  </g>
                  <g id="Grupo_66484" data-name="Grupo 66484" transform="translate(42.588 35.044)">
                    <g id="Grupo_66480" data-name="Grupo 66480" transform="translate(4.603)">
                      <g id="Grupo_66479" data-name="Grupo 66479">
                        <g id="Grupo_66478" data-name="Grupo 66478">
                          <path id="Trazado_133637" data-name="Trazado 133637" d="M729.516,549.139c.009.053-6.652,1.266-14.873,2.717s-14.9,2.6-14.906,2.544,6.649-1.271,14.873-2.725S729.507,549.088,729.516,549.139Z" transform="translate(-699.736 -549.137)" fill="#263238"/>
                        </g>
                      </g>
                    </g>
                    <g id="Grupo_66483" data-name="Grupo 66483" transform="translate(0 4.495)">
                      <g id="Grupo_66482" data-name="Grupo 66482" transform="translate(0)">
                        <g id="Grupo_66481" data-name="Grupo 66481">
                          <path id="Trazado_133638" data-name="Trazado 133638" d="M699.714,553.851a5.384,5.384,0,0,1-.142-.613c-.082-.37-.2-.906-.312-1.528l.089.071-2.048.363.075-.1h0l.051.292.051.288.1.556.179,1.018-.1-.064c.6-.106,1.105-.17,1.468-.217a4.651,4.651,0,0,1,.6-.064,3.162,3.162,0,0,1-.531.135c-.361.078-.875.188-1.5.312l-.077.013-.015-.086-.181-1.018-.1-.556-.1-.576h0l.056-.113,2.052-.347.077-.015.015.082c.117.664.188,1.216.241,1.594A3.584,3.584,0,0,1,699.714,553.851Z" transform="translate(-697.212 -551.602)" fill="#263238"/>
                        </g>
                      </g>
                    </g>
                  </g>
                  <g id="Grupo_66506" data-name="Grupo 66506" transform="translate(8.268 48.822)">
                    <g id="Grupo_66487" data-name="Grupo 66487">
                      <g id="Grupo_66486" data-name="Grupo 66486">
                        <g id="Grupo_66485" data-name="Grupo 66485">
                          <path id="Trazado_133639" data-name="Trazado 133639" d="M753.141,577.144l-.062-.359-.182-1.03c-.161-.908-.4-2.249-.72-3.99-.615-3.483-1.53-8.569-2.681-15l.064.047-71.043,12.581h0l.071-.1,3.6,20.381-.1-.077,50.75-8.923,14.914-2.608,4.008-.7,1.041-.184.359-.064-.345.06-1.03.182-3.986.717-14.881,2.655-50.79,9.014-.1.018-.013-.062-3.6-20.385-.016-.093.093-.016L749.53,556.7l.055-.009.009.058c1.127,6.45,2.017,11.551,2.626,15.043.308,1.736.533,3.075.691,3.981l.18,1.019C753.121,577.028,753.141,577.144,753.141,577.144Z" transform="translate(-678.392 -556.692)" fill="#263238"/>
                        </g>
                      </g>
                    </g>
                    <g id="Grupo_66490" data-name="Grupo 66490" transform="translate(1.209 5.197)">
                      <g id="Grupo_66489" data-name="Grupo 66489">
                        <g id="Grupo_66488" data-name="Grupo 66488">
                          <path id="Trazado_133640" data-name="Trazado 133640" d="M749.9,559.542c.009.051-15.846,2.894-35.4,6.35s-35.435,6.215-35.444,6.166,15.842-2.9,35.409-6.352S749.894,559.489,749.9,559.542Z" transform="translate(-679.055 -559.542)" fill="#263238"/>
                        </g>
                      </g>
                    </g>
                    <g id="Grupo_66493" data-name="Grupo 66493" transform="translate(2.104 10.257)">
                      <g id="Grupo_66492" data-name="Grupo 66492">
                        <g id="Grupo_66491" data-name="Grupo 66491">
                          <path id="Trazado_133641" data-name="Trazado 133641" d="M750.392,562.317c.009.051-15.846,2.894-35.4,6.35s-35.435,6.215-35.442,6.164,15.84-2.894,35.408-6.35S750.383,562.264,750.392,562.317Z" transform="translate(-679.546 -562.317)" fill="#263238"/>
                        </g>
                      </g>
                    </g>
                    <g id="Grupo_66496" data-name="Grupo 66496" transform="translate(3.007 15.372)">
                      <g id="Grupo_66495" data-name="Grupo 66495">
                        <g id="Grupo_66494" data-name="Grupo 66494">
                          <path id="Trazado_133642" data-name="Trazado 133642" d="M750.889,565.122c.007.049-15.846,2.894-35.406,6.35s-35.433,6.215-35.442,6.166,15.842-2.9,35.408-6.352S750.878,565.069,750.889,565.122Z" transform="translate(-680.041 -565.121)" fill="#263238"/>
                        </g>
                      </g>
                    </g>
                    <g id="Grupo_66499" data-name="Grupo 66499" transform="translate(8.354 11.124)">
                      <g id="Grupo_66498" data-name="Grupo 66498" transform="translate(0)">
                        <g id="Grupo_66497" data-name="Grupo 66497">
                          <path id="Trazado_133643" data-name="Trazado 133643" d="M686.613,583.385c-.049.009-.9-4.59-1.908-10.28s-1.78-10.3-1.731-10.313.906,4.594,1.909,10.28S686.662,583.375,686.613,583.385Z" transform="translate(-682.973 -562.792)" fill="#263238"/>
                        </g>
                      </g>
                    </g>
                    <g id="Grupo_66502" data-name="Grupo 66502" transform="translate(32.433 7.191)">
                      <g id="Grupo_66501" data-name="Grupo 66501" transform="translate(0)">
                        <g id="Grupo_66500" data-name="Grupo 66500">
                          <path id="Trazado_133644" data-name="Trazado 133644" d="M699.653,580.3c-.047.009-.864-4.38-1.824-9.815s-1.7-9.84-1.65-9.85.87,4.386,1.829,9.817S699.7,580.29,699.653,580.3Z" transform="translate(-696.177 -560.635)" fill="#263238"/>
                        </g>
                      </g>
                    </g>
                    <g id="Grupo_66505" data-name="Grupo 66505" transform="translate(57.801 3.029)">
                      <g id="Grupo_66504" data-name="Grupo 66504" transform="translate(0)">
                        <g id="Grupo_66503" data-name="Grupo 66503">
                          <path id="Trazado_133645" data-name="Trazado 133645" d="M713.674,578.634c-.049.009-.892-4.525-1.88-10.123s-1.753-10.15-1.7-10.158.894,4.523,1.884,10.125S713.723,578.625,713.674,578.634Z" transform="translate(-710.088 -558.353)" fill="#263238"/>
                        </g>
                      </g>
                    </g>
                  </g>
                  <g id="Grupo_66509" data-name="Grupo 66509" transform="translate(13.117 74.086)">
                    <g id="Grupo_66508" data-name="Grupo 66508">
                      <g id="Grupo_66507" data-name="Grupo 66507">
                        <path id="Trazado_133646" data-name="Trazado 133646" d="M750.344,570.546c.009.051-15.5,2.827-34.629,6.208s-34.655,6.084-34.664,6.034,15.492-2.834,34.633-6.215S750.334,570.5,750.344,570.546Z" transform="translate(-681.051 -570.546)" fill="#263238"/>
                      </g>
                    </g>
                  </g>
                  <g id="Grupo_66512" data-name="Grupo 66512" transform="translate(13.637 77.032)">
                    <g id="Grupo_66511" data-name="Grupo 66511">
                      <g id="Grupo_66510" data-name="Grupo 66510">
                        <path id="Trazado_133647" data-name="Trazado 133647" d="M750.63,572.162c.009.049-15.5,2.827-34.631,6.206s-34.654,6.085-34.664,6.034,15.493-2.832,34.633-6.213S750.621,572.109,750.63,572.162Z" transform="translate(-681.336 -572.162)" fill="#263238"/>
                      </g>
                    </g>
                  </g>
                  <g id="Grupo_66515" data-name="Grupo 66515" transform="translate(14.158 87.763)">
                    <g id="Grupo_66514" data-name="Grupo 66514">
                      <g id="Grupo_66513" data-name="Grupo 66513">
                        <path id="Trazado_133648" data-name="Trazado 133648" d="M706.837,578.048c.009.049-5.63,1.083-12.592,2.313s-12.614,2.192-12.623,2.141,5.628-1.089,12.59-2.32S706.828,578,706.837,578.048Z" transform="translate(-681.622 -578.046)" fill="#263238"/>
                      </g>
                    </g>
                  </g>
                </g>
              </g>
            </g>
            <g id="Grupo_66519" data-name="Grupo 66519" transform="translate(18.989 105.71)" opacity="0.3">
              <path id="Trazado_133649" data-name="Trazado 133649" d="M670.392,578.553l4.043-.713-.624-3.483-4.034.713Z" transform="translate(-669.777 -574.357)"/>
            </g>
            <g id="Grupo_66523" data-name="Grupo 66523" transform="translate(5.919 82.048)">
              <g id="Grupo_66520" data-name="Grupo 66520" transform="translate(0.077 0)">
                <path id="Trazado_133650" data-name="Trazado 133650" d="M673.379,561.61a12.616,12.616,0,1,0,4.462,24.823l2.032-.359-.549-2.94-1.988.436a9.72,9.72,0,1,1,8.4-11.339,1.326,1.326,0,0,0,2.644-.2,1.353,1.353,0,0,0-.046-.257A12.8,12.8,0,0,0,673.379,561.61Z" transform="translate(-662.653 -561.382)" fill="#e0e0e0"/>
              </g>
              <g id="Grupo_66522" data-name="Grupo 66522" transform="translate(0)">
                <g id="Grupo_66521" data-name="Grupo 66521">
                  <path id="Trazado_133651" data-name="Trazado 133651" d="M673.419,561.608l.3-.053.906-.117c.394-.035.885-.042,1.472-.057a14.587,14.587,0,0,1,1.99.2,13.252,13.252,0,0,1,5.053,2.048l.656.489c.109.084.224.164.334.255l.315.286c.208.2.438.379.638.594l.6.668a12.943,12.943,0,0,1,2.008,3.275,12.746,12.746,0,0,1,.616,1.979,3.069,3.069,0,0,1,.148,1.076,1.5,1.5,0,0,1-.533.983,1.3,1.3,0,0,1-1.111.252,1.467,1.467,0,0,1-.919-.711,1.766,1.766,0,0,1-.2-.562l-.133-.56a8.2,8.2,0,0,0-.346-1.112,9.458,9.458,0,0,0-2.843-3.873,10.382,10.382,0,0,0-2.161-1.326,11.548,11.548,0,0,0-1.207-.473c-.208-.064-.423-.109-.635-.168a4.743,4.743,0,0,0-.644-.137l-.655-.1c-.221-.024-.443-.031-.666-.047a10.606,10.606,0,0,0-5.31,1.078c-.211.1-.41.223-.616.334l-.306.171-.292.2a9.949,9.949,0,0,0-2.128,1.88,9.464,9.464,0,0,0-1.543,2.435,8.768,8.768,0,0,0-.744,2.834,9.833,9.833,0,0,0-.035,1.486,10.064,10.064,0,0,0,.237,1.479,8.527,8.527,0,0,0,1.174,2.772,10.037,10.037,0,0,0,5.688,4.147,10.314,10.314,0,0,0,3.452.392,6.41,6.41,0,0,0,.855-.077,6.918,6.918,0,0,0,.843-.139l1.661-.363.095-.017.016.095q.279,1.494.549,2.938l.016.093-.1.016c-.753.133-1.5.274-2.245.387l-1.121.139-1.12.029a13.691,13.691,0,0,1-4.28-.753c-.33-.128-.671-.235-.994-.381l-.945-.46-.875-.551a3.364,3.364,0,0,1-.421-.3l-.408-.3a12.661,12.661,0,0,1-2.728-2.852c-.2-.257-.341-.547-.51-.813l-.241-.408-.2-.425c-.126-.285-.272-.558-.379-.846l-.3-.863a12.2,12.2,0,0,1-.536-3.447,11.588,11.588,0,0,1,.08-1.649,6.83,6.83,0,0,1,.128-.791c.055-.259.093-.522.161-.77a12.44,12.44,0,0,1,.47-1.442l.277-.679c.1-.22.221-.427.324-.638a12.886,12.886,0,0,1,3.153-3.9c.146-.122.274-.242.414-.356l.429-.3a7.8,7.8,0,0,1,.824-.532l.782-.445c.255-.126.514-.23.74-.334a9.676,9.676,0,0,1,1.273-.472c.188-.058.348-.122.518-.161l.438-.1.591-.129.2-.037a1.819,1.819,0,0,0-.2.053l-.587.144-.436.1c-.161.042-.328.108-.514.168a10.061,10.061,0,0,0-1.262.485c-.232.108-.478.217-.73.337l-.781.449a7.62,7.62,0,0,0-.813.542l-.423.3c-.141.108-.272.233-.41.348a12.79,12.79,0,0,0-3.111,3.883c-.1.2-.222.41-.319.633l-.27.675a12.683,12.683,0,0,0-.461,1.43c-.073.246-.095.5-.153.768a6.669,6.669,0,0,0-.124.782,11.686,11.686,0,0,0-.082,1.634,12.055,12.055,0,0,0,.547,3.4l.294.852c.1.284.252.554.378.835l.2.419.235.4c.17.264.306.551.5.8a12.484,12.484,0,0,0,2.7,2.816l.4.3a3.292,3.292,0,0,0,.421.284l.877.529.934.452c.314.15.649.255.976.383a13.5,13.5,0,0,0,4.225.735l1.107-.031,1.107-.14c.742-.109,1.488-.263,2.243-.387l-.073.106q-.271-1.444-.551-2.938l.109.073-1.667.365a7.037,7.037,0,0,1-.855.14,6.259,6.259,0,0,1-.87.079,10.438,10.438,0,0,1-3.512-.4,10.217,10.217,0,0,1-5.8-4.225,8.668,8.668,0,0,1-1.2-2.838,10.093,10.093,0,0,1-.241-1.51,10.313,10.313,0,0,1,.035-1.519,9.049,9.049,0,0,1,.761-2.892,9.714,9.714,0,0,1,1.574-2.478,10.214,10.214,0,0,1,2.168-1.911l.3-.2.314-.171c.21-.113.412-.239.625-.341a11.635,11.635,0,0,1,4.034-1.083,11.432,11.432,0,0,1,1.37,0c.224.016.452.024.675.049l.666.106a5.069,5.069,0,0,1,.655.142c.213.058.432.109.644.171a11.062,11.062,0,0,1,1.227.48,10.359,10.359,0,0,1,2.194,1.351,9.6,9.6,0,0,1,2.887,3.946,8.109,8.109,0,0,1,.35,1.131q.066.287.131.569a1.613,1.613,0,0,0,.184.523,1.319,1.319,0,0,0,.823.64,1.136,1.136,0,0,0,.983-.221,1.346,1.346,0,0,0,.483-.886,2.962,2.962,0,0,0-.142-1.025,12.6,12.6,0,0,0-.6-1.959,12.819,12.819,0,0,0-1.977-3.25l-.594-.664c-.2-.212-.425-.4-.631-.591l-.321-.285c-.106-.091-.215-.171-.33-.253l-.642-.491a13.28,13.28,0,0,0-5.013-2.059,14.742,14.742,0,0,0-1.98-.223c-.576.008-1.067.009-1.453.035l-.906.106C673.522,561.6,673.419,561.608,673.419,561.608Z" transform="translate(-662.611 -561.382)" fill="#263238"/>
                </g>
              </g>
            </g>
            <g id="Grupo_66526" data-name="Grupo 66526" transform="translate(31.594 9.947)">
              <g id="Grupo_66525" data-name="Grupo 66525" transform="translate(0)">
                <path id="Trazado_133653" data-name="Trazado 133653" d="M676.689,650.4l.478-.084,1.4-.248,5.405-.937,20.005-3.43,66.986-11.418-.077.109-1.618-9.16c-5.033-28.551-9.589-54.392-12.886-73.1L752.5,529.98c-.462-2.615-.808-4.645-1.045-6.027-.122-.686-.215-1.211-.268-1.568s-.086-.54-.086-.54.031.179.1.538.155.879.284,1.565c.244,1.379.613,3.41,1.083,6.02.923,5.232,2.276,12.8,3.941,22.144,3.3,18.708,7.885,44.544,12.939,73.091l1.619,9.16.015.086-.093.017-67,11.356L683.987,649.2l-5.412.9-1.406.23C676.853,650.382,676.689,650.4,676.689,650.4Z" transform="translate(-676.689 -521.845)" fill="#263238"/>
              </g>
            </g>
            <g id="Grupo_66528" data-name="Grupo 66528" transform="translate(29.777 7.62)">
              <g id="Grupo_66527" data-name="Grupo 66527" transform="translate(0)">
                <path id="Trazado_133654" data-name="Trazado 133654" d="M675.693,650.211l.476-.086,1.4-.246,5.389-.952,19.947-3.478,66.86-11.584-.078.108c-.544-3.078-1.122-6.354-1.7-9.665-5.018-28.648-9.561-54.576-12.851-73.349-1.636-9.384-2.958-16.978-3.873-22.23l-1.043-6.045c-.115-.7-.206-1.216-.27-1.576s-.084-.54-.084-.54l.095.538.277,1.572c.246,1.384.6,3.412,1.08,6.038l3.924,22.223c3.3,18.769,7.865,44.7,12.906,73.337.584,3.312,1.164,6.585,1.7,9.667l.016.093-.093.016L702.9,645.579,682.938,649l-5.394.917-1.4.232Z" transform="translate(-675.693 -520.569)" fill="#263238"/>
              </g>
            </g>
            <g id="Grupo_66530" data-name="Grupo 66530" transform="translate(33.242 12.706)">
              <g id="Grupo_66529" data-name="Grupo 66529" transform="translate(0)">
                <path id="Trazado_133655" data-name="Trazado 133655" d="M677.593,650.37l.476-.084,1.4-.248,5.4-.936,19.976-3.425,66.825-11.392-.078.109c-.465-2.7-.961-5.573-1.464-8.478-4.878-28.321-9.3-53.956-12.494-72.513-1.588-9.277-2.876-16.785-3.764-21.978-.44-2.593-.782-4.607-1.014-5.978-.12-.68-.2-1.2-.259-1.554s-.082-.536-.082-.536l.093.527.274,1.552,1.056,5.973c.9,5.188,2.208,12.694,3.824,21.966,3.211,18.557,7.648,44.187,12.548,72.506.5,2.9,1,5.779,1.465,8.476l.016.093-.093.016L704.865,645.8l-19.983,3.368-5.407.9-1.4.23C677.755,650.349,677.593,650.37,677.593,650.37Z" transform="translate(-677.593 -523.358)" fill="#263238"/>
              </g>
            </g>
          </g>
          <g id="Grupo_66532" data-name="Grupo 66532" transform="translate(105.726 16.204)">
            <path id="Trazado_133656" data-name="Trazado 133656" d="M717.34,526.824l8.764-1.548,3.751,2.956-1.979,4.659-9.18,1.621Z" transform="translate(-717.34 -525.276)" fill="#455a64"/>
          </g>
        </g>
      </g>
      <g id="Grupo_70299" data-name="Grupo 70299" transform="translate(190.654 2374.302)">
        <g id="freepik--Documents--inject-68" transform="translate(0 0)">
          <path id="Trazado_106074" data-name="Trazado 106074" d="M5405.634,2969.167h0a2.821,2.821,0,0,1,2.75-2.188H5428.9a2.821,2.821,0,0,1,2.822,2.822h0v45.613a2.821,2.821,0,0,1-2.822,2.822h-65.154a2.821,2.821,0,0,1-2.822-2.822V2977.1a2.821,2.821,0,0,1,2.822-2.822h35.462A6.587,6.587,0,0,0,5405.634,2969.167Z" transform="translate(-5352.573 -2939.299)" fill="#d9a171"/>
          <path id="Trazado_106075" data-name="Trazado 106075" d="M5405.634,2969.167h0a2.821,2.821,0,0,1,2.75-2.188H5428.9a2.821,2.821,0,0,1,2.822,2.822h0v45.613a2.821,2.821,0,0,1-2.822,2.822h-65.154a2.821,2.821,0,0,1-2.822-2.822V2977.1a2.821,2.821,0,0,1,2.822-2.822h35.462A6.587,6.587,0,0,0,5405.634,2969.167Z" transform="translate(-5352.573 -2939.299)" fill="#344154" opacity="0.6" style="isolation: isolate"/>
          <path id="Trazado_106076" data-name="Trazado 106076" d="M5445.881,2920.128l-1.829,5.923a2.978,2.978,0,0,1-3.722,1.965l-5.921-1.829Z" transform="translate(-5385.575 -2904.466)" fill="#d9a171" opacity="0.22" style="isolation: isolate"/>
          <path id="Trazado_106077" data-name="Trazado 106077" d="M5365.579,2920.128l21.163,6.539a2.972,2.972,0,0,1,1.968,3.715v0l-12.082,39.113a2.976,2.976,0,0,1-3.722,1.965h0l-27.085-8.367a2.973,2.973,0,0,1-1.966-3.717v0l10.26-33.19Z" transform="translate(-5305.273 -2904.466)" fill="#d9a171"/>
          <path id="Trazado_106078" data-name="Trazado 106078" d="M5365.579,2920.128l21.163,6.539a2.972,2.972,0,0,1,1.968,3.715v0l-12.082,39.113a2.976,2.976,0,0,1-3.722,1.965h0l-27.085-8.367a2.973,2.973,0,0,1-1.966-3.717v0l10.26-33.19Z" transform="translate(-5305.273 -2904.466)" fill="#fff" stroke="#5e6178" stroke-miterlimit="10" stroke-width="0" opacity="0.8" style="isolation: isolate"/>
          <g id="Grupo_57126" data-name="Grupo 57126" transform="translate(48.003 54.382)" opacity="0.28">
            <path id="Trazado_106079" data-name="Trazado 106079" d="M5404.515,3073.615l17.607,5.438a1.3,1.3,0,0,0,1.626-.857h0a1.3,1.3,0,0,0-.859-1.624l-17.607-5.44a1.3,1.3,0,0,0-1.626.859h0A1.3,1.3,0,0,0,5404.515,3073.615Z" transform="translate(-5403.599 -3071.074)" fill="#d9a171"/>
          </g>
          <g id="Grupo_57127" data-name="Grupo 57127" transform="translate(66.951 22.466)" opacity="0.28">
            <path id="Trazado_106080" data-name="Trazado 106080" d="M5362.984,2949.192l9.312,2.876a1.306,1.306,0,0,0,1.626-.857h0a1.306,1.306,0,0,0-.859-1.626l-9.312-2.876a1.3,1.3,0,0,0-1.626.857h0A1.306,1.306,0,0,0,5362.984,2949.192Z" transform="translate(-5362.068 -2946.651)" fill="#d9a171"/>
          </g>
          <g id="Grupo_57128" data-name="Grupo 57128" transform="translate(59.349 25.516)" opacity="0.28">
            <path id="Trazado_106081" data-name="Trazado 106081" d="M5368.936,2961.084l15.391,4.753a1.3,1.3,0,0,0,1.619-.859h0a1.3,1.3,0,0,0-.857-1.624L5369.7,2958.6a1.3,1.3,0,0,0-1.626.856h0A1.308,1.308,0,0,0,5368.936,2961.084Z" transform="translate(-5368.016 -2958.543)" fill="#d9a171"/>
          </g>
          <g id="Grupo_57129" data-name="Grupo 57129" transform="translate(50.761 28.259)" opacity="0.28">
            <path id="Trazado_106082" data-name="Trazado 106082" d="M5374.851,2971.776l22.46,6.926a1.3,1.3,0,0,0,1.624-.857h0a1.306,1.306,0,0,0-.857-1.626l-22.46-6.926a1.3,1.3,0,0,0-1.624.857h0A1.3,1.3,0,0,0,5374.851,2971.776Z" transform="translate(-5373.936 -2969.236)" fill="#d9a171"/>
          </g>
          <g id="Grupo_57130" data-name="Grupo 57130" transform="translate(49.239 33.185)" opacity="0.28">
            <path id="Trazado_106083" data-name="Trazado 106083" d="M5417.444,2990.978l13.056,4.035a1.3,1.3,0,0,0,1.624-.859h0a1.3,1.3,0,0,0-.856-1.624l-13.057-4.035a1.309,1.309,0,0,0-1.626.859h0A1.3,1.3,0,0,0,5417.444,2990.978Z" transform="translate(-5416.528 -2988.439)" fill="#d9a171"/>
          </g>
          <g id="Grupo_57131" data-name="Grupo 57131" transform="translate(68.283 39.068)" opacity="0.28">
            <path id="Trazado_106084" data-name="Trazado 106084" d="M5380.781,3013.915l3.414,1.055a1.3,1.3,0,0,0,1.626-.857h0a1.3,1.3,0,0,0-.859-1.626l-3.415-1.054a1.306,1.306,0,0,0-1.626.857h0A1.309,1.309,0,0,0,5380.781,3013.915Z" transform="translate(-5379.865 -3011.375)" fill="#d9a171"/>
          </g>
          <g id="Grupo_57132" data-name="Grupo 57132" transform="translate(47.717 38.112)" opacity="0.28">
            <path id="Trazado_106085" data-name="Trazado 106085" d="M5386.719,3010.186l22.459,6.939a1.3,1.3,0,0,0,1.624-.86h0a1.3,1.3,0,0,0-.856-1.624l-22.46-6.938a1.3,1.3,0,0,0-1.624.856h0A1.3,1.3,0,0,0,5386.719,3010.186Z" transform="translate(-5385.805 -3007.646)" fill="#d9a171"/>
          </g>
          <g id="Grupo_57133" data-name="Grupo 57133" transform="translate(54.861 45.715)" opacity="0.28">
            <path id="Trazado_106086" data-name="Trazado 106086" d="M5392.653,3039.826l13.792,4.261a1.3,1.3,0,0,0,1.624-.856h0a1.306,1.306,0,0,0-.857-1.626l-13.792-4.26a1.305,1.305,0,0,0-1.626.859h0A1.3,1.3,0,0,0,5392.653,3039.826Z" transform="translate(-5391.736 -3037.286)" fill="#d9a171"/>
          </g>
          <g id="Grupo_57134" data-name="Grupo 57134" transform="translate(46.196 43.039)" opacity="0.28">
            <path id="Trazado_106087" data-name="Trazado 106087" d="M5465.853,3029.394l3.681,1.136a1.306,1.306,0,0,0,1.626-.86h0a1.3,1.3,0,0,0-.859-1.624l-3.68-1.137a1.3,1.3,0,0,0-1.625.857h0A1.3,1.3,0,0,0,5465.853,3029.394Z" transform="translate(-5464.938 -3026.853)" fill="#d9a171"/>
          </g>
          <g id="Grupo_57135" data-name="Grupo 57135" transform="translate(44.667 47.957)" opacity="0.28">
            <path id="Trazado_106088" data-name="Trazado 106088" d="M5398.6,3048.58l22.455,6.926a1.3,1.3,0,0,0,1.626-.86h0a1.3,1.3,0,0,0-.86-1.624l-22.458-6.939a1.308,1.308,0,0,0-1.626.859h0a1.3,1.3,0,0,0,.854,1.634Z" transform="translate(-5397.674 -3046.028)" fill="#d9a171"/>
          </g>
          <path id="Trazado_106089" data-name="Trazado 106089" d="M5377.41,2860.023l-6.716,14.965a1.619,1.619,0,0,0,.811,2.134l28.489,12.787a1.616,1.616,0,0,0,2.134-.811l6.718-14.965a1.616,1.616,0,0,0-.811-2.137l-28.488-12.787A1.62,1.62,0,0,0,5377.41,2860.023Z" transform="translate(-5332.303 -2859.07)" fill="#d9a171"/>
          <path id="Trazado_106090" data-name="Trazado 106090" d="M5377.41,2860.023l-6.716,14.965a1.619,1.619,0,0,0,.811,2.134l28.489,12.787a1.616,1.616,0,0,0,2.134-.811l6.718-14.965a1.616,1.616,0,0,0-.811-2.137l-28.488-12.787A1.62,1.62,0,0,0,5377.41,2860.023Z" transform="translate(-5332.303 -2859.07)" fill="#344154" opacity="0.3" style="isolation: isolate"/>
          <rect id="Rectángulo_8125" data-name="Rectángulo 8125" width="0.998" height="0.257" transform="matrix(-0.912, -0.409, 0.409, -0.912, 50.402, 0.857)" fill="#d9a171"/>
          <rect id="Rectángulo_8126" data-name="Rectángulo 8126" width="3.111" height="0.257" transform="matrix(-0.912, -0.409, 0.409, -0.912, 54.516, 2.701)" fill="#d9a171"/>
          <rect id="Rectángulo_8127" data-name="Rectángulo 8127" width="0.257" height="1.898" transform="translate(76.024 18.409) rotate(-155.82)" fill="#d9a171"/>
          <path id="Trazado_106091" data-name="Trazado 106091" d="M5371.05,2859.156l7.346,14.391a6.582,6.582,0,0,0,7.517,3.373l15.635-4.076a1.641,1.641,0,0,0-.826-.847l-28.488-12.787A1.614,1.614,0,0,0,5371.05,2859.156Z" transform="translate(-5324.989 -2859.069)" fill="#d9a171" opacity="0.6" style="isolation: isolate"/>
          <path id="Trazado_106092" data-name="Trazado 106092" d="M5444.082,2931.208l22.106,1.365a2.975,2.975,0,0,1,2.793,3.146v.006l-2.522,40.857a2.975,2.975,0,0,1-3.149,2.791h-.008l-28.294-1.746a2.97,2.97,0,0,1-2.785-3.144v-.009l2.128-34.673Z" transform="translate(-5408.12 -2912.704)" fill="#d9a171"/>
          <path id="Trazado_106093" data-name="Trazado 106093" d="M5444.082,2931.208l22.106,1.365a2.975,2.975,0,0,1,2.793,3.146v.006l-2.522,40.857a2.975,2.975,0,0,1-3.149,2.791h-.008l-28.294-1.746a2.97,2.97,0,0,1-2.785-3.144v-.009l2.128-34.673Z" transform="translate(-5408.12 -2912.704)" fill="#fff" stroke="#5e6178" stroke-miterlimit="10" stroke-width="0" opacity="0.8" style="isolation: isolate"/>
          <g id="Grupo_57136" data-name="Grupo 57136" transform="translate(33.405 58.687)" opacity="0.22">
            <path id="Trazado_106094" data-name="Trazado 106094" d="M5458.662,3090.455l18.395,1.136a1.3,1.3,0,0,0,1.375-1.219h0a1.306,1.306,0,0,0-1.216-1.377l-18.394-1.134a1.3,1.3,0,0,0-1.377,1.216h0A1.3,1.3,0,0,0,5458.662,3090.455Z" transform="translate(-5457.441 -3087.859)" fill="#d9a171"/>
          </g>
          <g id="Grupo_57137" data-name="Grupo 57137" transform="translate(44.293 23.202)" opacity="0.22">
            <path id="Trazado_106095" data-name="Trazado 106095" d="M5449.989,2952.12l9.73.6a1.306,1.306,0,0,0,1.377-1.216h0a1.306,1.306,0,0,0-1.218-1.378l-9.729-.6a1.3,1.3,0,0,0-1.375,1.216h0A1.3,1.3,0,0,0,5449.989,2952.12Z" transform="translate(-5448.771 -2949.519)" fill="#d9a171"/>
          </g>
          <g id="Grupo_57138" data-name="Grupo 57138" transform="translate(37.63 27.962)" opacity="0.22">
            <path id="Trazado_106096" data-name="Trazado 106096" d="M5451.229,2970.674l16.075.99a1.3,1.3,0,0,0,1.378-1.216h0a1.3,1.3,0,0,0-1.219-1.378l-16.073-.99a1.3,1.3,0,0,0-1.378,1.216h0A1.3,1.3,0,0,0,5451.229,2970.674Z" transform="translate(-5450.009 -2968.078)" fill="#d9a171"/>
          </g>
          <g id="Grupo_57139" data-name="Grupo 57139" transform="translate(29.932 32.652)" opacity="0.22">
            <path id="Trazado_106097" data-name="Trazado 106097" d="M5452.443,2988.958l23.46,1.447a1.307,1.307,0,0,0,1.384-1.219h0a1.3,1.3,0,0,0-1.216-1.375l-23.464-1.449a1.3,1.3,0,0,0-1.375,1.219h0A1.3,1.3,0,0,0,5452.443,2988.958Z" transform="translate(-5451.23 -2986.36)" fill="#d9a171"/>
          </g>
          <g id="Grupo_57140" data-name="Grupo 57140" transform="translate(29.608 37.799)" opacity="0.22">
            <path id="Trazado_106098" data-name="Trazado 106098" d="M5492,3009.024l13.639.842a1.3,1.3,0,0,0,1.378-1.216h0a1.3,1.3,0,0,0-1.216-1.377l-13.639-.842a1.3,1.3,0,0,0-1.377,1.216h0A1.3,1.3,0,0,0,5492,3009.024Z" transform="translate(-5490.78 -3006.428)" fill="#d9a171"/>
          </g>
          <g id="Grupo_57141" data-name="Grupo 57141" transform="translate(49.501 39.026)" opacity="0.22">
            <path id="Trazado_106099" data-name="Trazado 106099" d="M5453.71,3013.805l3.568.22a1.3,1.3,0,0,0,1.375-1.216h0a1.3,1.3,0,0,0-1.216-1.377l-3.568-.22a1.305,1.305,0,0,0-1.377,1.219h0A1.3,1.3,0,0,0,5453.71,3013.805Z" transform="translate(-5452.49 -3011.21)" fill="#d9a171"/>
          </g>
          <g id="Grupo_57142" data-name="Grupo 57142" transform="translate(29.291 42.945)" opacity="0.22">
            <path id="Trazado_106100" data-name="Trazado 106100" d="M5454.939,3029.085l23.463,1.447a1.3,1.3,0,0,0,1.377-1.216h0a1.306,1.306,0,0,0-1.218-1.377l-23.461-1.447a1.3,1.3,0,0,0-1.377,1.218h0A1.3,1.3,0,0,0,5454.939,3029.085Z" transform="translate(-5453.721 -3026.49)" fill="#d9a171"/>
          </g>
          <g id="Grupo_57143" data-name="Grupo 57143" transform="translate(38.027 48.65)" opacity="0.22">
            <path id="Trazado_106101" data-name="Trazado 106101" d="M5456.179,3051.325l14.408.89a1.305,1.305,0,0,0,1.377-1.219h0a1.3,1.3,0,0,0-1.218-1.375l-14.408-.89a1.3,1.3,0,0,0-1.375,1.218h0A1.3,1.3,0,0,0,5456.179,3051.325Z" transform="translate(-5454.96 -3048.729)" fill="#d9a171"/>
          </g>
          <g id="Grupo_57144" data-name="Grupo 57144" transform="translate(28.973 48.093)" opacity="0.22">
            <path id="Trazado_106102" data-name="Trazado 106102" d="M5532.651,3049.155l3.848.236a1.3,1.3,0,0,0,1.375-1.216h0a1.3,1.3,0,0,0-1.216-1.378l-3.848-.236a1.3,1.3,0,0,0-1.377,1.216h0A1.306,1.306,0,0,0,5532.651,3049.155Z" transform="translate(-5531.431 -3046.559)" fill="#d9a171"/>
          </g>
          <g id="Grupo_57145" data-name="Grupo 57145" transform="translate(28.657 53.239)" opacity="0.22">
            <path id="Trazado_106103" data-name="Trazado 106103" d="M5457.418,3069.215l23.46,1.447a1.3,1.3,0,0,0,1.377-1.215h0a1.3,1.3,0,0,0-1.216-1.378l-23.462-1.446a1.3,1.3,0,0,0-1.375,1.216h0A1.3,1.3,0,0,0,5457.418,3069.215Z" transform="translate(-5456.2 -3066.619)" fill="#d9a171"/>
          </g>
          <path id="Trazado_106104" data-name="Trazado 106104" d="M5539.039,2931.208l-.382,6.187a2.976,2.976,0,0,1-3.152,2.788h0l-6.194-.382Z" transform="translate(-5503.077 -2912.704)" fill="#d9a171" opacity="0.22" style="isolation: isolate"/>
          <path id="Trazado_106105" data-name="Trazado 106105" d="M5410.231,2985.03h0a2.219,2.219,0,0,1,2.248-2.19l.062,0h20.546a3.587,3.587,0,0,1,3.37,2.822l8.109,41.542a2.258,2.258,0,0,1-2.271,2.822h-65.154a3.6,3.6,0,0,1-3.371-2.822l-6.686-34.244a2.255,2.255,0,0,1,2.269-2.821h35.453A5.182,5.182,0,0,0,5410.231,2985.03Z" transform="translate(-5367.031 -2951.092)" fill="#d9a171" opacity="0.5" style="isolation: isolate"/>
        </g>
      </g>
      <g id="Grupo_70297" data-name="Grupo 70297" transform="matrix(0.839, -0.545, 0.545, 0.839, 299.39, 2341.667)">
        <g id="Grupo_62584-3" data-name="Grupo 62584" transform="translate(0 0)">
          <g id="Grupo_62578-3" data-name="Grupo 62578">
            <g id="Grupo_62577-3" data-name="Grupo 62577">
              <path id="Trazado_132423-3" data-name="Trazado 132423" d="M28.279,19.53A14.578,14.578,0,1,1,19.545.882,14.562,14.562,0,0,1,28.279,19.53Z" fill="#f5f5f5"/>
            </g>
          </g>
          <g id="Grupo_62580-3" data-name="Grupo 62580" transform="translate(3.469 3.462)">
            <g id="Grupo_62579-3" data-name="Grupo 62579" transform="translate(0 0)">
              <path id="Trazado_132424-3" data-name="Trazado 132424" d="M21.55,14.883A11.109,11.109,0,1,1,14.894.672,11.1,11.1,0,0,1,21.55,14.883Z" fill="#ebebeb"/>
            </g>
          </g>
          <g id="Grupo_62583-3" data-name="Grupo 62583" transform="translate(4.013 3.05)">
            <g id="Grupo_62582-3" data-name="Grupo 62582" transform="translate(0 0)">
              <g id="Grupo_62581-3" data-name="Grupo 62581">
                <path id="Trazado_132425-3" data-name="Trazado 132425" d="M21.123,14.968a6.6,6.6,0,0,1,.18-1.356,11.794,11.794,0,0,0-.042-3.638,11.377,11.377,0,0,0-.693-2.4A11.114,11.114,0,0,0,19.14,5.1a10.9,10.9,0,0,0-2.249-2.195,10.783,10.783,0,0,0-1.418-.871,11.806,11.806,0,0,0-1.582-.662,11.975,11.975,0,0,0-1.666-.4A10.841,10.841,0,0,0,10.566.833a10.9,10.9,0,0,0-3.113.435A11.12,11.12,0,0,0,4.839,2.412a11.385,11.385,0,0,0-1.98,1.522A11.792,11.792,0,0,0,.671,6.84a6.527,6.527,0,0,1-.658,1.2A3.255,3.255,0,0,1,.371,6.7,10.266,10.266,0,0,1,2.429,3.512,11.131,11.131,0,0,1,7.224.518,10.715,10.715,0,0,1,8.838.14,10.863,10.863,0,0,1,10.565,0a11.3,11.3,0,0,1,1.792.136,12.279,12.279,0,0,1,1.8.432,12.269,12.269,0,0,1,1.7.718,11.329,11.329,0,0,1,1.524.952,11.306,11.306,0,0,1,2.384,2.4,11.128,11.128,0,0,1,2.089,5.253,10.292,10.292,0,0,1-.229,3.787A3.26,3.26,0,0,1,21.123,14.968Z" fill="#e0e0e0"/>
              </g>
            </g>
          </g>
        </g>
        <g id="Grupo_62588-3" data-name="Grupo 62588" transform="translate(8.236 7.127)">
          <g id="Grupo_62587-3" data-name="Grupo 62587">
            <g id="Grupo_62586-3" data-name="Grupo 62586">
              <g id="Grupo_62585-3" data-name="Grupo 62585">
                <path id="Trazado_132426-3" data-name="Trazado 132426" d="M5.26,14.082,4.625,15.91l-1.632-.567.617-1.779A8.188,8.188,0,0,1,0,10.848l1.588-1.68a6.987,6.987,0,0,0,2.765,2.258L5.3,8.7C3.64,7.631,1.826,6.324,2.636,3.99c.6-1.73,2.373-2.779,5.054-2.178L8.318,0,9.951.566l-.618,1.78A7.811,7.811,0,0,1,12.3,4.491L10.788,6.216A7.08,7.08,0,0,0,8.585,4.5L7.622,7.275c1.664,1.053,3.446,2.348,2.647,4.649C9.681,13.622,7.93,14.661,5.26,14.082ZM6.132,6.3l.8-2.317c-.933-.1-1.44.25-1.627.789C5.111,5.342,5.493,5.823,6.132,6.3Zm1.442,4.909c.2-.572-.168-1.046-.784-1.535l-.782,2.253C6.886,12.031,7.392,11.731,7.574,11.209Z" fill="#e0e0e0"/>
              </g>
            </g>
          </g>
        </g>
      </g>
    </g>
  </g>
</svg>
