<svg xmlns="http://www.w3.org/2000/svg" width="781" height="61.901" viewBox="0 0 781 61.901">
  <g id="img24" transform="translate(3102 10737)">
    <g id="Rectángulo_33977" data-name="Rectángulo 33977" transform="translate(-3102 -10737)" fill="#d9e1f2" stroke="#707070" stroke-width="1">
      <rect width="781" height="61" stroke="none"/>
      <rect x="0.5" y="0.5" width="780" height="60" fill="none"/>
    </g>
    <path id="Trazado_143793" data-name="Trazado 143793" d="M6.464,0H5.049L4.487-1.463H1.912L1.38,0H0L2.509-6.442H3.885Zm-2.4-2.549L3.182-4.939l-.87,2.391ZM7.159,0V-6.442H9.9a4.686,4.686,0,0,1,1.5.174,1.48,1.48,0,0,1,.749.617,1.856,1.856,0,0,1,.281,1.015A1.72,1.72,0,0,1,12-3.439a2.047,2.047,0,0,1-1.274.6,3.035,3.035,0,0,1,.7.541,7.342,7.342,0,0,1,.74,1.046L12.951,0H11.4l-.94-1.4a9.093,9.093,0,0,0-.686-.947,1,1,0,0,0-.391-.268,2.144,2.144,0,0,0-.655-.073H8.459V0Zm1.3-3.718h.962A4.97,4.97,0,0,0,10.591-3.8a.7.7,0,0,0,.365-.272.839.839,0,0,0,.132-.483.772.772,0,0,0-.174-.525.8.8,0,0,0-.49-.253q-.158-.022-.949-.022H8.459ZM15.1,0V-5.353H13.192v-1.09h5.12v1.09H16.4V0Zm4.008,0V-6.442h1.3V0Zm-.149-6.812.606-1.314h1.384L19.745-6.812Zm6.812,4.443,1.261.4A2.829,2.829,0,0,1,26.071-.4,2.751,2.751,0,0,1,24.359.11,2.771,2.771,0,0,1,22.25-.767a3.355,3.355,0,0,1-.826-2.4,3.522,3.522,0,0,1,.831-2.5,2.848,2.848,0,0,1,2.184-.89,2.68,2.68,0,0,1,1.92.7,2.541,2.541,0,0,1,.659,1.187l-1.288.308a1.366,1.366,0,0,0-.477-.791,1.366,1.366,0,0,0-.881-.29,1.466,1.466,0,0,0-1.162.514,2.52,2.52,0,0,0-.446,1.666,2.7,2.7,0,0,0,.439,1.74A1.427,1.427,0,0,0,24.346-1a1.3,1.3,0,0,0,.892-.33A1.914,1.914,0,0,0,25.774-2.369Zm2.369-4.074h1.3v3.489a7.238,7.238,0,0,0,.048,1.077,1.043,1.043,0,0,0,.4.635,1.386,1.386,0,0,0,.859.24,1.311,1.311,0,0,0,.835-.226.894.894,0,0,0,.338-.556,7.248,7.248,0,0,0,.057-1.094V-6.442h1.3v3.384a8.7,8.7,0,0,1-.105,1.639,1.814,1.814,0,0,1-.389.809,1.965,1.965,0,0,1-.758.525,3.3,3.3,0,0,1-1.239.2,3.568,3.568,0,0,1-1.4-.213,2,2,0,0,1-.754-.554,1.775,1.775,0,0,1-.365-.714,7.824,7.824,0,0,1-.127-1.635ZM34.686,0V-6.39h1.3v5.3h3.234V0Zm5.2-3.182a4.1,4.1,0,0,1,.294-1.652,3.032,3.032,0,0,1,.6-.883,2.508,2.508,0,0,1,.833-.58A3.537,3.537,0,0,1,43-6.552a3.025,3.025,0,0,1,2.279.883,3.385,3.385,0,0,1,.855,2.457,3.374,3.374,0,0,1-.848,2.441A3,3,0,0,1,43.018.11a3.032,3.032,0,0,1-2.285-.877A3.327,3.327,0,0,1,39.885-3.182Zm1.34-.044a2.414,2.414,0,0,0,.505,1.659A1.647,1.647,0,0,0,43.014-1a1.632,1.632,0,0,0,1.277-.56,2.462,2.462,0,0,0,.5-1.681A2.422,2.422,0,0,0,44.3-4.9a1.643,1.643,0,0,0-1.29-.545,1.654,1.654,0,0,0-1.3.552A2.434,2.434,0,0,0,41.225-3.226Z" transform="translate(-3035 -10703)" fill="#12263f"/>
    <path id="Trazado_143792" data-name="Trazado 143792" d="M.664,0V-6.442H5.08v1.09H1.964v1.525H4.654v1.09H1.964V0ZM6.152,0V-6.442h4.777v1.09H7.453v1.428h3.234v1.085H7.453v1.753h3.6V0ZM16.277-2.369l1.261.4A2.829,2.829,0,0,1,16.574-.4,2.751,2.751,0,0,1,14.862.11a2.771,2.771,0,0,1-2.109-.877,3.355,3.355,0,0,1-.826-2.4,3.522,3.522,0,0,1,.831-2.5,2.848,2.848,0,0,1,2.184-.89,2.68,2.68,0,0,1,1.92.7,2.541,2.541,0,0,1,.659,1.187l-1.288.308a1.366,1.366,0,0,0-.477-.791,1.366,1.366,0,0,0-.881-.29,1.466,1.466,0,0,0-1.162.514,2.52,2.52,0,0,0-.446,1.666,2.7,2.7,0,0,0,.439,1.74A1.427,1.427,0,0,0,14.849-1a1.3,1.3,0,0,0,.892-.33A1.914,1.914,0,0,0,16.277-2.369ZM18.659,0V-6.442h1.3v2.536h2.549V-6.442h1.3V0h-1.3V-2.817H19.96V0Zm12.3,0H29.549l-.562-1.463H26.411L25.879,0H24.5l2.509-6.442h1.375Zm-2.4-2.549-.888-2.391-.87,2.391Z" transform="translate(-3092 -10703)" fill="#12263f"/>
    <path id="Trazado_143794" data-name="Trazado 143794" d="M4.777-2.369l1.261.4A2.829,2.829,0,0,1,5.073-.4,2.751,2.751,0,0,1,3.362.11,2.771,2.771,0,0,1,1.252-.767a3.355,3.355,0,0,1-.826-2.4,3.522,3.522,0,0,1,.831-2.5,2.848,2.848,0,0,1,2.184-.89,2.68,2.68,0,0,1,1.92.7,2.541,2.541,0,0,1,.659,1.187l-1.288.308a1.366,1.366,0,0,0-.477-.791,1.366,1.366,0,0,0-.881-.29,1.466,1.466,0,0,0-1.162.514,2.52,2.52,0,0,0-.446,1.666,2.7,2.7,0,0,0,.439,1.74A1.427,1.427,0,0,0,3.349-1a1.3,1.3,0,0,0,.892-.33A1.914,1.914,0,0,0,4.777-2.369Zm2.114-.813a4.1,4.1,0,0,1,.294-1.652,3.032,3.032,0,0,1,.6-.883,2.508,2.508,0,0,1,.833-.58,3.537,3.537,0,0,1,1.389-.255,3.025,3.025,0,0,1,2.279.883,3.385,3.385,0,0,1,.855,2.457,3.374,3.374,0,0,1-.848,2.441A3,3,0,0,1,10.024.11,3.032,3.032,0,0,1,7.739-.767,3.327,3.327,0,0,1,6.891-3.182Zm1.34-.044a2.414,2.414,0,0,0,.505,1.659A1.647,1.647,0,0,0,10.02-1a1.632,1.632,0,0,0,1.277-.56,2.462,2.462,0,0,0,.5-1.681A2.422,2.422,0,0,0,11.309-4.9a1.643,1.643,0,0,0-1.29-.545,1.654,1.654,0,0,0-1.3.552A2.434,2.434,0,0,0,8.231-3.226Zm.984-3.586.606-1.314h1.384L10-6.812Zm4.935.369h2.377a4.643,4.643,0,0,1,1.226.123,2.154,2.154,0,0,1,.971.593,2.815,2.815,0,0,1,.615,1.044,4.754,4.754,0,0,1,.211,1.523,4.234,4.234,0,0,1-.2,1.371,2.84,2.84,0,0,1-.69,1.138,2.287,2.287,0,0,1-.914.514A3.935,3.935,0,0,1,16.6,0H14.15Zm1.3,1.09v4.267h.971a3.544,3.544,0,0,0,.787-.062,1.2,1.2,0,0,0,.525-.268,1.364,1.364,0,0,0,.341-.622,4.2,4.2,0,0,0,.132-1.18,3.849,3.849,0,0,0-.132-1.147,1.474,1.474,0,0,0-.369-.624,1.238,1.238,0,0,0-.6-.3,5.9,5.9,0,0,0-1.068-.062ZM20.615,0V-6.442h1.3V0Zm5.537-2.369V-3.454h2.8V-.888a3.529,3.529,0,0,1-1.184.7A4.311,4.311,0,0,1,26.2.11a3.526,3.526,0,0,1-1.762-.424,2.7,2.7,0,0,1-1.129-1.213,3.92,3.92,0,0,1-.378-1.716,3.708,3.708,0,0,1,.422-1.789,2.841,2.841,0,0,1,1.235-1.2,3.332,3.332,0,0,1,1.542-.321,3.077,3.077,0,0,1,1.874.5,2.272,2.272,0,0,1,.868,1.391l-1.292.242a1.364,1.364,0,0,0-.512-.749,1.547,1.547,0,0,0-.938-.275,1.763,1.763,0,0,0-1.356.541,2.277,2.277,0,0,0-.5,1.6,2.522,2.522,0,0,0,.51,1.72A1.7,1.7,0,0,0,26.117-1a2.24,2.24,0,0,0,.82-.16,2.809,2.809,0,0,0,.705-.389v-.817Zm3.74-.813a4.1,4.1,0,0,1,.294-1.652,3.032,3.032,0,0,1,.6-.883,2.508,2.508,0,0,1,.833-.58,3.537,3.537,0,0,1,1.389-.255,3.025,3.025,0,0,1,2.279.883,3.385,3.385,0,0,1,.855,2.457,3.374,3.374,0,0,1-.848,2.441A3,3,0,0,1,33.025.11,3.032,3.032,0,0,1,30.74-.767,3.327,3.327,0,0,1,29.892-3.182Zm1.34-.044a2.414,2.414,0,0,0,.505,1.659A1.647,1.647,0,0,0,33.021-1a1.632,1.632,0,0,0,1.277-.56,2.462,2.462,0,0,0,.5-1.681A2.422,2.422,0,0,0,34.31-4.9a1.643,1.643,0,0,0-1.29-.545,1.654,1.654,0,0,0-1.3.552A2.434,2.434,0,0,0,31.232-3.226Z" transform="translate(-2961 -10703)" fill="#12263f"/>
    <path id="Trazado_143795" data-name="Trazado 143795" d="M4.777-2.369l1.261.4A2.829,2.829,0,0,1,5.073-.4,2.751,2.751,0,0,1,3.362.11,2.771,2.771,0,0,1,1.252-.767a3.355,3.355,0,0,1-.826-2.4,3.522,3.522,0,0,1,.831-2.5,2.848,2.848,0,0,1,2.184-.89,2.68,2.68,0,0,1,1.92.7,2.541,2.541,0,0,1,.659,1.187l-1.288.308a1.366,1.366,0,0,0-.477-.791,1.366,1.366,0,0,0-.881-.29,1.466,1.466,0,0,0-1.162.514,2.52,2.52,0,0,0-.446,1.666,2.7,2.7,0,0,0,.439,1.74A1.427,1.427,0,0,0,3.349-1a1.3,1.3,0,0,0,.892-.33A1.914,1.914,0,0,0,4.777-2.369Zm2.114-.813a4.1,4.1,0,0,1,.294-1.652,3.032,3.032,0,0,1,.6-.883,2.508,2.508,0,0,1,.833-.58,3.537,3.537,0,0,1,1.389-.255,3.025,3.025,0,0,1,2.279.883,3.385,3.385,0,0,1,.855,2.457,3.374,3.374,0,0,1-.848,2.441A3,3,0,0,1,10.024.11,3.032,3.032,0,0,1,7.739-.767,3.327,3.327,0,0,1,6.891-3.182Zm1.34-.044a2.414,2.414,0,0,0,.505,1.659A1.647,1.647,0,0,0,10.02-1a1.632,1.632,0,0,0,1.277-.56,2.462,2.462,0,0,0,.5-1.681A2.422,2.422,0,0,0,11.309-4.9a1.643,1.643,0,0,0-1.29-.545,1.654,1.654,0,0,0-1.3.552A2.434,2.434,0,0,0,8.231-3.226ZM14.168,0V-6.442h1.266l2.637,4.3v-4.3h1.208V0H17.974l-2.6-4.2V0ZM24.776-2.369l1.261.4A2.829,2.829,0,0,1,25.073-.4,2.751,2.751,0,0,1,23.361.11a2.771,2.771,0,0,1-2.109-.877,3.355,3.355,0,0,1-.826-2.4,3.522,3.522,0,0,1,.831-2.5,2.848,2.848,0,0,1,2.184-.89,2.68,2.68,0,0,1,1.92.7,2.541,2.541,0,0,1,.659,1.187l-1.288.308a1.366,1.366,0,0,0-.477-.791,1.366,1.366,0,0,0-.881-.29,1.466,1.466,0,0,0-1.162.514,2.52,2.52,0,0,0-.446,1.666,2.7,2.7,0,0,0,.439,1.74A1.427,1.427,0,0,0,23.348-1a1.3,1.3,0,0,0,.892-.33A1.914,1.914,0,0,0,24.776-2.369ZM27.154,0V-6.442h4.777v1.09H28.455v1.428h3.234v1.085H28.455v1.753h3.6V0Zm6,0V-6.442h2.087a7.569,7.569,0,0,1,1.547.1,1.689,1.689,0,0,1,.927.631,2,2,0,0,1,.374,1.255,2.1,2.1,0,0,1-.215,1,1.766,1.766,0,0,1-.547.635,1.885,1.885,0,0,1-.675.305,7.425,7.425,0,0,1-1.349.092h-.848V0Zm1.3-5.353v1.828h.712a3.364,3.364,0,0,0,1.028-.1.854.854,0,0,0,.406-.316.866.866,0,0,0,.147-.5.832.832,0,0,0-.207-.58.9.9,0,0,0-.523-.286,6.252,6.252,0,0,0-.936-.044ZM40.61,0V-5.353H38.7v-1.09h5.12v1.09H41.911V0Zm3.621-3.182a4.1,4.1,0,0,1,.294-1.652,3.032,3.032,0,0,1,.6-.883,2.508,2.508,0,0,1,.833-.58,3.537,3.537,0,0,1,1.389-.255,3.025,3.025,0,0,1,2.279.883,3.385,3.385,0,0,1,.855,2.457,3.374,3.374,0,0,1-.848,2.441A3,3,0,0,1,47.364.11a3.032,3.032,0,0,1-2.285-.877A3.327,3.327,0,0,1,44.231-3.182Zm1.34-.044a2.414,2.414,0,0,0,.505,1.659A1.647,1.647,0,0,0,47.36-1a1.632,1.632,0,0,0,1.277-.56,2.462,2.462,0,0,0,.5-1.681A2.422,2.422,0,0,0,48.65-4.9a1.643,1.643,0,0,0-1.29-.545,1.654,1.654,0,0,0-1.3.552A2.434,2.434,0,0,0,45.571-3.226Z" transform="translate(-2904 -10703)" fill="#12263f"/>
    <path id="Trazado_143796" data-name="Trazado 143796" d="M2.1,0V-5.353H.193v-1.09h5.12v1.09H3.406V0ZM6.152,0V-6.442h4.777v1.09H7.453v1.428h3.234v1.085H7.453v1.753h3.6V0ZM12.16,0V-6.442H14.9a4.686,4.686,0,0,1,1.5.174,1.48,1.48,0,0,1,.749.617,1.856,1.856,0,0,1,.281,1.015A1.72,1.72,0,0,1,17-3.439a2.047,2.047,0,0,1-1.274.6,3.035,3.035,0,0,1,.7.541,7.342,7.342,0,0,1,.74,1.046L17.952,0H16.4l-.94-1.4a9.093,9.093,0,0,0-.686-.947,1,1,0,0,0-.391-.268,2.144,2.144,0,0,0-.655-.073H13.46V0Zm1.3-3.718h.962A4.97,4.97,0,0,0,15.592-3.8a.7.7,0,0,0,.365-.272.839.839,0,0,0,.132-.483.772.772,0,0,0-.174-.525.8.8,0,0,0-.49-.253q-.158-.022-.949-.022H13.46Zm9.316,1.349,1.261.4A2.829,2.829,0,0,1,23.073-.4,2.751,2.751,0,0,1,21.362.11a2.771,2.771,0,0,1-2.109-.877,3.355,3.355,0,0,1-.826-2.4,3.522,3.522,0,0,1,.831-2.5,2.848,2.848,0,0,1,2.184-.89,2.68,2.68,0,0,1,1.92.7,2.541,2.541,0,0,1,.659,1.187l-1.288.308a1.366,1.366,0,0,0-.477-.791,1.366,1.366,0,0,0-.881-.29,1.466,1.466,0,0,0-1.162.514,2.52,2.52,0,0,0-.446,1.666,2.7,2.7,0,0,0,.439,1.74A1.427,1.427,0,0,0,21.349-1a1.3,1.3,0,0,0,.892-.33A1.914,1.914,0,0,0,22.777-2.369ZM25.154,0V-6.442h4.777v1.09H26.455v1.428h3.234v1.085H26.455v1.753h3.6V0Zm6.007,0V-6.442H33.9a4.686,4.686,0,0,1,1.5.174,1.48,1.48,0,0,1,.749.617,1.856,1.856,0,0,1,.281,1.015A1.72,1.72,0,0,1,36-3.439a2.047,2.047,0,0,1-1.274.6,3.035,3.035,0,0,1,.7.541,7.342,7.342,0,0,1,.74,1.046L36.954,0H35.4l-.94-1.4a9.093,9.093,0,0,0-.686-.947,1,1,0,0,0-.391-.268,2.144,2.144,0,0,0-.655-.073h-.264V0Zm1.3-3.718h.962A4.97,4.97,0,0,0,34.594-3.8a.7.7,0,0,0,.365-.272.839.839,0,0,0,.132-.483.772.772,0,0,0-.174-.525.8.8,0,0,0-.49-.253q-.158-.022-.949-.022H32.462Zm4.931.536a4.1,4.1,0,0,1,.294-1.652,3.032,3.032,0,0,1,.6-.883,2.508,2.508,0,0,1,.833-.58,3.537,3.537,0,0,1,1.389-.255,3.025,3.025,0,0,1,2.279.883,3.385,3.385,0,0,1,.855,2.457,3.374,3.374,0,0,1-.848,2.441A3,3,0,0,1,40.526.11a3.032,3.032,0,0,1-2.285-.877A3.327,3.327,0,0,1,37.393-3.182Zm1.34-.044a2.414,2.414,0,0,0,.505,1.659A1.647,1.647,0,0,0,40.522-1a1.632,1.632,0,0,0,1.277-.56,2.462,2.462,0,0,0,.5-1.681A2.422,2.422,0,0,0,41.812-4.9a1.643,1.643,0,0,0-1.29-.545,1.654,1.654,0,0,0-1.3.552A2.434,2.434,0,0,0,38.733-3.226Z" transform="translate(-2825.714 -10703)" fill="#12263f"/>
    <path id="Trazado_143798" data-name="Trazado 143798" d="M.655,0V-6.442H5.432v1.09H1.956v1.428H5.19v1.085H1.956v1.753h3.6V0ZM6.671,0V-6.442H7.937l2.637,4.3v-4.3h1.208V0H10.477l-2.6-4.2V0Zm7.937,0V-5.353H12.7v-1.09h5.12v1.09H15.908V0Zm4.052,0V-6.442H21.4a4.686,4.686,0,0,1,1.5.174,1.48,1.48,0,0,1,.749.617,1.856,1.856,0,0,1,.281,1.015,1.72,1.72,0,0,1-.426,1.2,2.047,2.047,0,0,1-1.274.6,3.035,3.035,0,0,1,.7.541,7.342,7.342,0,0,1,.74,1.046L24.451,0H22.9l-.94-1.4a9.093,9.093,0,0,0-.686-.947,1,1,0,0,0-.391-.268,2.144,2.144,0,0,0-.655-.073H19.96V0Zm1.3-3.718h.962A4.97,4.97,0,0,0,22.091-3.8a.7.7,0,0,0,.365-.272.839.839,0,0,0,.132-.483.772.772,0,0,0-.174-.525.8.8,0,0,0-.49-.253q-.158-.022-.949-.022H19.96ZM30.964,0H29.549l-.562-1.463H26.411L25.879,0H24.5l2.509-6.442h1.375Zm-2.4-2.549-.888-2.391-.87,2.391Zm3.081-3.894h2.377a4.643,4.643,0,0,1,1.226.123,2.154,2.154,0,0,1,.971.593,2.815,2.815,0,0,1,.615,1.044A4.754,4.754,0,0,1,37.05-3.16a4.234,4.234,0,0,1-.2,1.371,2.84,2.84,0,0,1-.69,1.138,2.287,2.287,0,0,1-.914.514A3.935,3.935,0,0,1,34.1,0H31.649Zm1.3,1.09v4.267h.971a3.544,3.544,0,0,0,.787-.062,1.2,1.2,0,0,0,.525-.268,1.364,1.364,0,0,0,.341-.622,4.2,4.2,0,0,0,.132-1.18,3.849,3.849,0,0,0-.132-1.147,1.474,1.474,0,0,0-.369-.624,1.238,1.238,0,0,0-.6-.3,5.9,5.9,0,0,0-1.068-.062ZM43.963,0H42.548l-.562-1.463H39.41L38.878,0H37.5l2.509-6.442h1.375Zm-2.4-2.549L40.68-4.939l-.87,2.391Z" transform="translate(-2696.078 -10703)" fill="#12263f"/>
    <path id="Trazado_143799" data-name="Trazado 143799" d="M.325-2.1l1.266-.123a1.544,1.544,0,0,0,.464.936A1.4,1.4,0,0,0,3-.984a1.449,1.449,0,0,0,.947-.266.791.791,0,0,0,.319-.622.586.586,0,0,0-.134-.389,1.071,1.071,0,0,0-.468-.279q-.229-.079-1.042-.281a3.533,3.533,0,0,1-1.468-.637,1.676,1.676,0,0,1-.593-1.3,1.656,1.656,0,0,1,.279-.921,1.747,1.747,0,0,1,.8-.653,3.223,3.223,0,0,1,1.268-.224,2.719,2.719,0,0,1,1.826.532A1.877,1.877,0,0,1,5.379-4.6l-1.3.057a1.1,1.1,0,0,0-.358-.714A1.311,1.311,0,0,0,2.9-5.476a1.486,1.486,0,0,0-.888.233.469.469,0,0,0-.207.4A.5.5,0,0,0,2-4.452a3.42,3.42,0,0,0,1.2.431,6.308,6.308,0,0,1,1.4.464,1.81,1.81,0,0,1,.712.655,1.915,1.915,0,0,1,.257,1.026A1.9,1.9,0,0,1,5.256-.839a1.844,1.844,0,0,1-.87.719,3.649,3.649,0,0,1-1.4.235A2.791,2.791,0,0,1,1.107-.45,2.456,2.456,0,0,1,.325-2.1ZM12.467,0H11.052L10.49-1.463H7.915L7.383,0H6L8.512-6.442H9.888Zm-2.4-2.549L9.185-4.939l-.87,2.391ZM13.192,0V-6.39h1.3v5.3h3.234V0Zm5.423,0V-6.442h1.3V0Zm2.536-6.442h2.377a4.643,4.643,0,0,1,1.226.123,2.154,2.154,0,0,1,.971.593,2.815,2.815,0,0,1,.615,1.044,4.754,4.754,0,0,1,.211,1.523,4.234,4.234,0,0,1-.2,1.371,2.84,2.84,0,0,1-.69,1.138,2.287,2.287,0,0,1-.914.514A3.935,3.935,0,0,1,23.6,0H21.151Zm1.3,1.09v4.267h.971a3.544,3.544,0,0,0,.787-.062,1.2,1.2,0,0,0,.525-.268,1.364,1.364,0,0,0,.341-.622,4.2,4.2,0,0,0,.132-1.18,3.849,3.849,0,0,0-.132-1.147,1.474,1.474,0,0,0-.369-.624,1.238,1.238,0,0,0-.6-.3,5.9,5.9,0,0,0-1.068-.062ZM33.464,0H32.049l-.562-1.463H28.912L28.38,0H27l2.509-6.442h1.375Zm-2.4-2.549-.888-2.391-.87,2.391Zm2.755.453,1.266-.123a1.544,1.544,0,0,0,.464.936,1.4,1.4,0,0,0,.943.3,1.449,1.449,0,0,0,.947-.266.791.791,0,0,0,.319-.622.586.586,0,0,0-.134-.389,1.071,1.071,0,0,0-.468-.279q-.229-.079-1.042-.281a3.533,3.533,0,0,1-1.468-.637,1.676,1.676,0,0,1-.593-1.3,1.656,1.656,0,0,1,.279-.921,1.747,1.747,0,0,1,.8-.653,3.223,3.223,0,0,1,1.268-.224,2.719,2.719,0,0,1,1.826.532A1.877,1.877,0,0,1,38.878-4.6l-1.3.057a1.1,1.1,0,0,0-.358-.714,1.311,1.311,0,0,0-.824-.218,1.486,1.486,0,0,0-.888.233.469.469,0,0,0-.207.4.5.5,0,0,0,.193.391,3.42,3.42,0,0,0,1.2.431,6.308,6.308,0,0,1,1.4.464,1.81,1.81,0,0,1,.712.655,1.915,1.915,0,0,1,.257,1.026,1.9,1.9,0,0,1-.308,1.037,1.844,1.844,0,0,1-.87.719,3.649,3.649,0,0,1-1.4.235A2.791,2.791,0,0,1,34.607-.45,2.456,2.456,0,0,1,33.825-2.1Z" transform="translate(-2632.703 -10703)" fill="#12263f"/>
    <path id="Trazado_143800" data-name="Trazado 143800" d="M4.777-2.369l1.261.4A2.829,2.829,0,0,1,5.073-.4,2.751,2.751,0,0,1,3.362.11,2.771,2.771,0,0,1,1.252-.767a3.355,3.355,0,0,1-.826-2.4,3.522,3.522,0,0,1,.831-2.5,2.848,2.848,0,0,1,2.184-.89,2.68,2.68,0,0,1,1.92.7,2.541,2.541,0,0,1,.659,1.187l-1.288.308a1.366,1.366,0,0,0-.477-.791,1.366,1.366,0,0,0-.881-.29,1.466,1.466,0,0,0-1.162.514,2.52,2.52,0,0,0-.446,1.666,2.7,2.7,0,0,0,.439,1.74A1.427,1.427,0,0,0,3.349-1a1.3,1.3,0,0,0,.892-.33A1.914,1.914,0,0,0,4.777-2.369Zm2.114-.813a4.1,4.1,0,0,1,.294-1.652,3.032,3.032,0,0,1,.6-.883,2.508,2.508,0,0,1,.833-.58,3.537,3.537,0,0,1,1.389-.255,3.025,3.025,0,0,1,2.279.883,3.385,3.385,0,0,1,.855,2.457,3.374,3.374,0,0,1-.848,2.441A3,3,0,0,1,10.024.11,3.032,3.032,0,0,1,7.739-.767,3.327,3.327,0,0,1,6.891-3.182Zm1.34-.044a2.414,2.414,0,0,0,.505,1.659A1.647,1.647,0,0,0,10.02-1a1.632,1.632,0,0,0,1.277-.56,2.462,2.462,0,0,0,.5-1.681A2.422,2.422,0,0,0,11.309-4.9a1.643,1.643,0,0,0-1.29-.545,1.654,1.654,0,0,0-1.3.552A2.434,2.434,0,0,0,8.231-3.226ZM13.825-2.1l1.266-.123a1.544,1.544,0,0,0,.464.936,1.4,1.4,0,0,0,.943.3,1.449,1.449,0,0,0,.947-.266.791.791,0,0,0,.319-.622.586.586,0,0,0-.134-.389,1.071,1.071,0,0,0-.468-.279q-.229-.079-1.042-.281a3.533,3.533,0,0,1-1.468-.637,1.676,1.676,0,0,1-.593-1.3,1.656,1.656,0,0,1,.279-.921,1.747,1.747,0,0,1,.8-.653,3.223,3.223,0,0,1,1.268-.224,2.719,2.719,0,0,1,1.826.532A1.877,1.877,0,0,1,18.879-4.6l-1.3.057a1.1,1.1,0,0,0-.358-.714,1.311,1.311,0,0,0-.824-.218,1.486,1.486,0,0,0-.888.233.469.469,0,0,0-.207.4.5.5,0,0,0,.193.391,3.42,3.42,0,0,0,1.2.431,6.308,6.308,0,0,1,1.4.464,1.81,1.81,0,0,1,.712.655,1.915,1.915,0,0,1,.257,1.026,1.9,1.9,0,0,1-.308,1.037,1.844,1.844,0,0,1-.87.719,3.649,3.649,0,0,1-1.4.235A2.791,2.791,0,0,1,14.607-.45,2.456,2.456,0,0,1,13.825-2.1ZM21.608,0V-5.353H19.7v-1.09h5.12v1.09H22.909V0Zm3.621-3.182a4.1,4.1,0,0,1,.294-1.652,3.032,3.032,0,0,1,.6-.883,2.508,2.508,0,0,1,.833-.58,3.537,3.537,0,0,1,1.389-.255,3.025,3.025,0,0,1,2.279.883,3.385,3.385,0,0,1,.855,2.457A3.374,3.374,0,0,1,30.63-.771,3,3,0,0,1,28.362.11a3.032,3.032,0,0,1-2.285-.877A3.327,3.327,0,0,1,25.229-3.182Zm1.34-.044a2.414,2.414,0,0,0,.505,1.659A1.647,1.647,0,0,0,28.358-1a1.632,1.632,0,0,0,1.277-.56,2.462,2.462,0,0,0,.5-1.681A2.422,2.422,0,0,0,29.648-4.9a1.643,1.643,0,0,0-1.29-.545,1.654,1.654,0,0,0-1.3.552A2.434,2.434,0,0,0,26.569-3.226Zm8.416-3.217h1.3v3.489a7.238,7.238,0,0,0,.048,1.077,1.043,1.043,0,0,0,.4.635,1.386,1.386,0,0,0,.859.24,1.311,1.311,0,0,0,.835-.226.894.894,0,0,0,.338-.556,7.248,7.248,0,0,0,.057-1.094V-6.442h1.3v3.384a8.7,8.7,0,0,1-.105,1.639,1.814,1.814,0,0,1-.389.809,1.965,1.965,0,0,1-.758.525,3.3,3.3,0,0,1-1.239.2,3.568,3.568,0,0,1-1.4-.213,2,2,0,0,1-.754-.554,1.775,1.775,0,0,1-.365-.714,7.824,7.824,0,0,1-.127-1.635ZM41.506,0V-6.442h1.266l2.637,4.3v-4.3h1.208V0H45.312l-2.6-4.2V0Zm6.447,0V-6.442h1.3V0Zm3.99,0V-5.353H50.032v-1.09h5.12v1.09H53.244V0Z" transform="translate(-2570 -10703)" fill="#12263f"/>
    <path id="Trazado_143801" data-name="Trazado 143801" d="M-14.368,0l-2.3-6.442h1.411l1.63,4.768,1.578-4.768h1.38L-12.979,0Zm9.5,0H-6.282l-.562-1.463H-9.42L-9.951,0h-1.38l2.509-6.442h1.375Zm-2.4-2.549L-8.15-4.939l-.87,2.391ZM-4.142,0V-6.39h1.3v5.3H.393V0Zm5.2-3.182a4.1,4.1,0,0,1,.294-1.652,3.032,3.032,0,0,1,.6-.883,2.508,2.508,0,0,1,.833-.58,3.537,3.537,0,0,1,1.389-.255,3.025,3.025,0,0,1,2.279.883,3.385,3.385,0,0,1,.855,2.457A3.374,3.374,0,0,1,6.458-.771,3,3,0,0,1,4.19.11,3.032,3.032,0,0,1,1.905-.767,3.327,3.327,0,0,1,1.057-3.182ZM2.4-3.226A2.414,2.414,0,0,0,2.9-1.567,1.647,1.647,0,0,0,4.186-1a1.632,1.632,0,0,0,1.277-.56,2.462,2.462,0,0,0,.5-1.681A2.422,2.422,0,0,0,5.476-4.9a1.643,1.643,0,0,0-1.29-.545,1.654,1.654,0,0,0-1.3.552A2.434,2.434,0,0,0,2.4-3.226ZM8.325,0V-6.442h2.738a4.686,4.686,0,0,1,1.5.174,1.48,1.48,0,0,1,.749.617,1.856,1.856,0,0,1,.281,1.015,1.72,1.72,0,0,1-.426,1.2,2.047,2.047,0,0,1-1.274.6,3.035,3.035,0,0,1,.7.541,7.342,7.342,0,0,1,.74,1.046L14.117,0H12.562l-.94-1.4a9.093,9.093,0,0,0-.686-.947,1,1,0,0,0-.391-.268,2.144,2.144,0,0,0-.655-.073H9.626V0Zm1.3-3.718h.962A4.97,4.97,0,0,0,11.758-3.8a.7.7,0,0,0,.365-.272.839.839,0,0,0,.132-.483.772.772,0,0,0-.174-.525.8.8,0,0,0-.49-.253q-.158-.022-.949-.022H9.626ZM-12.476,11V5.647h-1.912V4.558h5.12v1.09h-1.907V11Zm3.621-3.182a4.1,4.1,0,0,1,.294-1.652,3.032,3.032,0,0,1,.6-.883,2.508,2.508,0,0,1,.833-.58,3.537,3.537,0,0,1,1.389-.255,3.025,3.025,0,0,1,2.279.883,3.385,3.385,0,0,1,.855,2.457,3.374,3.374,0,0,1-.848,2.441,3,3,0,0,1-2.268.881,3.032,3.032,0,0,1-2.285-.877A3.327,3.327,0,0,1-8.855,7.818Zm1.34-.044a2.414,2.414,0,0,0,.505,1.659A1.647,1.647,0,0,0-5.726,10a1.632,1.632,0,0,0,1.277-.56,2.462,2.462,0,0,0,.5-1.681A2.422,2.422,0,0,0-4.436,6.1a1.643,1.643,0,0,0-1.29-.545,1.654,1.654,0,0,0-1.3.552A2.434,2.434,0,0,0-7.515,7.774ZM-.141,11V5.647H-2.052V4.558h5.12v1.09H1.16V11Zm9.189,0H7.633L7.071,9.537H4.5L3.964,11H2.584L5.093,4.558H6.469Zm-2.4-2.549L5.766,6.061,4.9,8.451ZM9.773,11V4.61h1.3v5.3h3.234V11Zm-25,8.631,1.261.4a2.829,2.829,0,0,1-.965,1.567,2.751,2.751,0,0,1-1.712.512,2.771,2.771,0,0,1-2.109-.877,3.355,3.355,0,0,1-.826-2.4,3.522,3.522,0,0,1,.831-2.5,2.848,2.848,0,0,1,2.184-.89,2.68,2.68,0,0,1,1.92.7,2.541,2.541,0,0,1,.659,1.187l-1.288.308a1.366,1.366,0,0,0-.477-.791,1.366,1.366,0,0,0-.881-.29,1.466,1.466,0,0,0-1.162.514,2.52,2.52,0,0,0-.446,1.666,2.7,2.7,0,0,0,.439,1.74A1.427,1.427,0,0,0-16.651,21a1.3,1.3,0,0,0,.892-.33A1.914,1.914,0,0,0-15.223,19.631Zm2.114-.813a4.1,4.1,0,0,1,.294-1.652,3.032,3.032,0,0,1,.6-.883,2.508,2.508,0,0,1,.833-.58,3.537,3.537,0,0,1,1.389-.255,3.025,3.025,0,0,1,2.279.883,3.385,3.385,0,0,1,.855,2.457,3.374,3.374,0,0,1-.848,2.441,3,3,0,0,1-2.268.881,3.032,3.032,0,0,1-2.285-.877A3.327,3.327,0,0,1-13.109,18.818Zm1.34-.044a2.414,2.414,0,0,0,.505,1.659A1.647,1.647,0,0,0-9.98,21a1.632,1.632,0,0,0,1.277-.56,2.462,2.462,0,0,0,.5-1.681A2.422,2.422,0,0,0-8.69,17.1a1.643,1.643,0,0,0-1.29-.545,1.654,1.654,0,0,0-1.3.552A2.434,2.434,0,0,0-11.769,18.774ZM-5.862,22V15.558h1.947l1.169,4.395,1.156-4.395H.36V22H-.848V16.929L-2.127,22H-3.379l-1.274-5.071V22Zm7.515,0V15.558H3.74a7.569,7.569,0,0,1,1.547.1,1.689,1.689,0,0,1,.927.631,2,2,0,0,1,.374,1.255,2.1,2.1,0,0,1-.215,1,1.766,1.766,0,0,1-.547.635,1.885,1.885,0,0,1-.675.305A7.425,7.425,0,0,1,3.8,19.57H2.953V22Zm1.3-5.353v1.828h.712a3.364,3.364,0,0,0,1.028-.1.854.854,0,0,0,.406-.316.866.866,0,0,0,.147-.5.832.832,0,0,0-.207-.58.9.9,0,0,0-.523-.286,6.252,6.252,0,0,0-.936-.044ZM7.66,22V15.558H10.4a4.686,4.686,0,0,1,1.5.174,1.48,1.48,0,0,1,.749.617,1.856,1.856,0,0,1,.281,1.015,1.72,1.72,0,0,1-.426,1.2,2.047,2.047,0,0,1-1.274.6,3.035,3.035,0,0,1,.7.541,7.342,7.342,0,0,1,.74,1.046L13.452,22H11.9l-.94-1.4a9.093,9.093,0,0,0-.686-.947,1,1,0,0,0-.391-.268,2.144,2.144,0,0,0-.655-.073H8.96V22Zm1.3-3.718h.962a4.97,4.97,0,0,0,1.169-.079.7.7,0,0,0,.365-.272.839.839,0,0,0,.132-.483.772.772,0,0,0-.174-.525.8.8,0,0,0-.49-.253q-.158-.022-.949-.022H8.96Zm11,3.718H18.549l-.562-1.463H15.412L14.88,22H13.5l2.509-6.442h1.375Zm-2.4-2.549-.888-2.391-.87,2.391Z" transform="translate(-2472 -10715)" fill="#12263f"/>
    <path id="Trazado_143803" data-name="Trazado 143803" d="M-12.476,0V-5.353h-1.912v-1.09h5.12v1.09h-1.907V0Zm3.621-3.182a4.1,4.1,0,0,1,.294-1.652,3.032,3.032,0,0,1,.6-.883,2.508,2.508,0,0,1,.833-.58,3.537,3.537,0,0,1,1.389-.255,3.025,3.025,0,0,1,2.279.883,3.385,3.385,0,0,1,.855,2.457A3.374,3.374,0,0,1-3.454-.771,3,3,0,0,1-5.722.11,3.032,3.032,0,0,1-8.007-.767,3.327,3.327,0,0,1-8.855-3.182Zm1.34-.044a2.414,2.414,0,0,0,.505,1.659A1.647,1.647,0,0,0-5.726-1a1.632,1.632,0,0,0,1.277-.56,2.462,2.462,0,0,0,.5-1.681A2.422,2.422,0,0,0-4.436-4.9a1.643,1.643,0,0,0-1.29-.545,1.654,1.654,0,0,0-1.3.552A2.434,2.434,0,0,0-7.515-3.226ZM-.141,0V-5.353H-2.052v-1.09h5.12v1.09H1.16V0ZM9.048,0H7.633L7.071-1.463H4.5L3.964,0H2.584L5.093-6.442H6.469Zm-2.4-2.549L5.766-4.939,4.9-2.549ZM9.773,0V-6.39h1.3v5.3h3.234V0ZM-13.933,4.558h2.377a4.643,4.643,0,0,1,1.226.123,2.154,2.154,0,0,1,.971.593,2.815,2.815,0,0,1,.615,1.044A4.754,4.754,0,0,1-8.532,7.84a4.234,4.234,0,0,1-.2,1.371,2.84,2.84,0,0,1-.69,1.138,2.287,2.287,0,0,1-.914.514A3.935,3.935,0,0,1-11.485,11h-2.448Zm1.3,1.09V9.915h.971a3.544,3.544,0,0,0,.787-.062,1.2,1.2,0,0,0,.525-.268,1.364,1.364,0,0,0,.341-.622,4.2,4.2,0,0,0,.132-1.18,3.849,3.849,0,0,0-.132-1.147,1.474,1.474,0,0,0-.369-.624,1.238,1.238,0,0,0-.6-.3,5.9,5.9,0,0,0-1.068-.062ZM-7.429,11V4.558h4.777v1.09H-6.128V7.076h3.234V8.161H-6.128V9.915h3.6V11ZM1.11,11V4.61h1.3v5.3H5.645V11Zm11.272,0H10.967L10.4,9.537H7.829L7.3,11H5.917L8.427,4.558H9.8Zm-2.4-2.549L9.1,6.061l-.87,2.391ZM-12.619,22l-2.3-6.442h1.411l1.63,4.768,1.578-4.768h1.38L-11.23,22Zm4.359,0V15.558h4.777v1.09H-6.959v1.428h3.234v1.085H-6.959v1.753h3.6V22Zm6.016,0V15.558H-.978l2.637,4.3v-4.3H2.867V22H1.562l-2.6-4.2V22Zm7.937,0V16.647H3.781v-1.09H8.9v1.09H6.994V22Zm9.189,0H13.467L12.9,20.537H10.329L9.8,22H8.418l2.509-6.442H12.3Zm-2.4-2.549L11.6,17.061l-.87,2.391Z" transform="translate(-2348 -10715)" fill="#12263f"/>
    <path id="Trazado_143802" data-name="Trazado 143802" d="M-16.6,0V-6.442h2.087a7.569,7.569,0,0,1,1.547.1,1.689,1.689,0,0,1,.927.631,2,2,0,0,1,.374,1.255,2.1,2.1,0,0,1-.215,1,1.766,1.766,0,0,1-.547.635,1.885,1.885,0,0,1-.675.305,7.425,7.425,0,0,1-1.349.092H-15.3V0Zm1.3-5.353v1.828h.712a3.364,3.364,0,0,0,1.028-.1.854.854,0,0,0,.406-.316.866.866,0,0,0,.147-.5.832.832,0,0,0-.207-.58.9.9,0,0,0-.523-.286,6.252,6.252,0,0,0-.936-.044ZM-10.591,0V-6.442h2.738a4.686,4.686,0,0,1,1.5.174,1.48,1.48,0,0,1,.749.617,1.856,1.856,0,0,1,.281,1.015,1.72,1.72,0,0,1-.426,1.2,2.047,2.047,0,0,1-1.274.6,3.035,3.035,0,0,1,.7.541,7.342,7.342,0,0,1,.74,1.046L-4.8,0H-6.354l-.94-1.4a9.094,9.094,0,0,0-.686-.947,1,1,0,0,0-.391-.268,2.144,2.144,0,0,0-.655-.073H-9.29V0Zm1.3-3.718h.962A4.97,4.97,0,0,0-7.159-3.8a.7.7,0,0,0,.365-.272.839.839,0,0,0,.132-.483.772.772,0,0,0-.174-.525.8.8,0,0,0-.49-.253q-.158-.022-.949-.022H-9.29ZM-4.1,0V-6.442H.681v1.09H-2.795v1.428H.439v1.085H-2.795v1.753H.8V0ZM6.029-2.369l1.261.4A2.829,2.829,0,0,1,6.326-.4,2.751,2.751,0,0,1,4.614.11,2.771,2.771,0,0,1,2.5-.767a3.355,3.355,0,0,1-.826-2.4,3.522,3.522,0,0,1,.831-2.5,2.848,2.848,0,0,1,2.184-.89,2.68,2.68,0,0,1,1.92.7,2.541,2.541,0,0,1,.659,1.187l-1.288.308a1.366,1.366,0,0,0-.477-.791,1.366,1.366,0,0,0-.881-.29,1.466,1.466,0,0,0-1.162.514,2.52,2.52,0,0,0-.446,1.666,2.7,2.7,0,0,0,.439,1.74A1.427,1.427,0,0,0,4.6-1a1.3,1.3,0,0,0,.892-.33A1.914,1.914,0,0,0,6.029-2.369ZM8.367,0V-6.442h1.3V0Zm2.276-3.182a4.1,4.1,0,0,1,.294-1.652,3.032,3.032,0,0,1,.6-.883,2.508,2.508,0,0,1,.833-.58,3.537,3.537,0,0,1,1.389-.255,3.025,3.025,0,0,1,2.279.883,3.385,3.385,0,0,1,.855,2.457,3.374,3.374,0,0,1-.848,2.441A3,3,0,0,1,13.777.11a3.032,3.032,0,0,1-2.285-.877A3.327,3.327,0,0,1,10.644-3.182Zm1.34-.044a2.414,2.414,0,0,0,.505,1.659A1.647,1.647,0,0,0,13.772-1a1.632,1.632,0,0,0,1.277-.56,2.462,2.462,0,0,0,.5-1.681A2.422,2.422,0,0,0,15.062-4.9a1.643,1.643,0,0,0-1.29-.545,1.654,1.654,0,0,0-1.3.552A2.434,2.434,0,0,0,11.984-3.226ZM-20.769,3.558h1.3V7.047a7.238,7.238,0,0,0,.048,1.077,1.043,1.043,0,0,0,.4.635,1.386,1.386,0,0,0,.859.24,1.311,1.311,0,0,0,.835-.226.894.894,0,0,0,.338-.556,7.248,7.248,0,0,0,.057-1.094V3.558h1.3V6.941a8.7,8.7,0,0,1-.105,1.639,1.814,1.814,0,0,1-.389.809,1.965,1.965,0,0,1-.758.525,3.3,3.3,0,0,1-1.239.2,3.568,3.568,0,0,1-1.4-.213,2,2,0,0,1-.754-.554,1.775,1.775,0,0,1-.365-.714,7.824,7.824,0,0,1-.127-1.635ZM-14.247,10V3.558h1.266l2.637,4.3v-4.3h1.208V10h-1.305l-2.6-4.2V10ZM-7.8,10V3.558h1.3V10Zm3.99,0V4.647H-5.722V3.558H-.6v1.09H-2.509V10Zm9.189,0H3.964L3.4,8.537H.826L.294,10h-1.38L1.424,3.558H2.8Zm-2.4-2.549L2.1,5.061l-.87,2.391ZM6.073,10V3.558H8.811a4.686,4.686,0,0,1,1.5.174,1.48,1.48,0,0,1,.749.617,1.856,1.856,0,0,1,.281,1.015,1.72,1.72,0,0,1-.426,1.2,2.047,2.047,0,0,1-1.274.6,3.035,3.035,0,0,1,.7.541,7.342,7.342,0,0,1,.74,1.046L11.865,10H10.31l-.94-1.4a9.093,9.093,0,0,0-.686-.947,1,1,0,0,0-.391-.268,2.144,2.144,0,0,0-.655-.073H7.374V10Zm1.3-3.718h.962A4.97,4.97,0,0,0,9.505,6.2a.7.7,0,0,0,.365-.272A.839.839,0,0,0,10,5.447a.772.772,0,0,0-.174-.525.8.8,0,0,0-.49-.253q-.158-.022-.949-.022H7.374ZM12.529,10V3.558h1.3V10Zm2.276-3.182A4.1,4.1,0,0,1,15.1,5.166a3.032,3.032,0,0,1,.6-.883,2.508,2.508,0,0,1,.833-.58,3.537,3.537,0,0,1,1.389-.255,3.025,3.025,0,0,1,2.279.883,3.385,3.385,0,0,1,.855,2.457,3.374,3.374,0,0,1-.848,2.441,3,3,0,0,1-2.268.881,3.032,3.032,0,0,1-2.285-.877A3.327,3.327,0,0,1,14.805,6.818Zm1.34-.044a2.414,2.414,0,0,0,.505,1.659,1.737,1.737,0,0,0,2.56,0,2.462,2.462,0,0,0,.5-1.681A2.422,2.422,0,0,0,19.224,5.1a1.8,1.8,0,0,0-2.586.007A2.434,2.434,0,0,0,16.146,6.774Z" transform="translate(-2410 -10710)" fill="#12263f"/>
    <path id="Trazado_143797" data-name="Trazado 143797" d="M.664,0V-6.442H5.08v1.09H1.964v1.525H4.654v1.09H1.964V0Zm6.4-3.243-1.121-.2a1.745,1.745,0,0,1,.65-1,2.38,2.38,0,0,1,1.371-.325,2.955,2.955,0,0,1,1.23.2,1.227,1.227,0,0,1,.569.5,2.546,2.546,0,0,1,.165,1.105L9.918-1.534a5,5,0,0,0,.059.907A2.649,2.649,0,0,0,10.2,0H8.978Q8.93-.123,8.859-.365q-.031-.11-.044-.145a2.226,2.226,0,0,1-.677.461A1.938,1.938,0,0,1,7.37.105,1.59,1.59,0,0,1,6.234-.286a1.3,1.3,0,0,1-.415-.989,1.327,1.327,0,0,1,.189-.705,1.235,1.235,0,0,1,.53-.475,4.139,4.139,0,0,1,.982-.288,6.728,6.728,0,0,0,1.2-.3v-.123a.639.639,0,0,0-.176-.508,1.053,1.053,0,0,0-.664-.152.884.884,0,0,0-.514.13A.9.9,0,0,0,7.066-3.243Zm1.652,1a7.719,7.719,0,0,1-.751.189,2.264,2.264,0,0,0-.672.215.515.515,0,0,0-.242.435.606.606,0,0,0,.193.448.675.675,0,0,0,.492.189,1.069,1.069,0,0,0,.637-.22.773.773,0,0,0,.294-.409A2.438,2.438,0,0,0,8.719-2Zm6.5-1.046L14-3.067a.883.883,0,0,0-.279-.549.843.843,0,0,0-.565-.185.923.923,0,0,0-.736.319,1.633,1.633,0,0,0-.275,1.066,1.888,1.888,0,0,0,.279,1.173.916.916,0,0,0,.749.343.832.832,0,0,0,.576-.2,1.2,1.2,0,0,0,.316-.688l1.213.207a2.152,2.152,0,0,1-.725,1.261,2.244,2.244,0,0,1-1.437.426,2.136,2.136,0,0,1-1.633-.646,2.5,2.5,0,0,1-.609-1.789,2.51,2.51,0,0,1,.611-1.8,2.17,2.17,0,0,1,1.652-.644,2.254,2.254,0,0,1,1.356.367A2.033,2.033,0,0,1,15.218-3.287Zm3.076-1.38v.984h-.844V-1.8a4.678,4.678,0,0,0,.024.666.271.271,0,0,0,.11.156.348.348,0,0,0,.209.062,1.6,1.6,0,0,0,.5-.119l.105.958a2.455,2.455,0,0,1-.976.185,1.547,1.547,0,0,1-.6-.112.879.879,0,0,1-.393-.29,1.145,1.145,0,0,1-.174-.481,5.986,5.986,0,0,1-.04-.87V-3.683h-.567v-.984h.567v-.927l1.239-.721v1.648ZM22.223,0V-.7a1.8,1.8,0,0,1-.67.589,1.879,1.879,0,0,1-.877.215A1.714,1.714,0,0,1,19.833-.1a1.219,1.219,0,0,1-.541-.58,2.589,2.589,0,0,1-.167-1.033V-4.667H20.36v2.145a5.947,5.947,0,0,0,.068,1.206.658.658,0,0,0,.248.352.763.763,0,0,0,.457.13.972.972,0,0,0,.567-.174.883.883,0,0,0,.343-.431A5,5,0,0,0,22.135-2.7V-4.667H23.37V0Zm3.608,0H24.6V-4.667h1.147V-4a2,2,0,0,1,.53-.62.974.974,0,0,1,.534-.149,1.567,1.567,0,0,1,.813.233l-.382,1.077a1.084,1.084,0,0,0-.58-.2.685.685,0,0,0-.439.143.976.976,0,0,0-.283.516,7.335,7.335,0,0,0-.1,1.564Zm3.243-3.243-1.121-.2a1.745,1.745,0,0,1,.65-1,2.38,2.38,0,0,1,1.371-.325,2.955,2.955,0,0,1,1.23.2,1.227,1.227,0,0,1,.569.5,2.546,2.546,0,0,1,.165,1.105l-.013,1.441a5,5,0,0,0,.059.907A2.649,2.649,0,0,0,32.208,0H30.986q-.048-.123-.119-.365-.031-.11-.044-.145a2.226,2.226,0,0,1-.677.461,1.938,1.938,0,0,1-.769.154,1.59,1.59,0,0,1-1.136-.391,1.3,1.3,0,0,1-.415-.989,1.327,1.327,0,0,1,.189-.705,1.235,1.235,0,0,1,.53-.475,4.139,4.139,0,0,1,.982-.288,6.728,6.728,0,0,0,1.2-.3v-.123a.639.639,0,0,0-.176-.508,1.053,1.053,0,0,0-.664-.152.884.884,0,0,0-.514.13A.9.9,0,0,0,29.074-3.243Zm1.652,1a7.719,7.719,0,0,1-.751.189,2.264,2.264,0,0,0-.672.215.515.515,0,0,0-.242.435.606.606,0,0,0,.193.448.675.675,0,0,0,.492.189,1.069,1.069,0,0,0,.637-.22.773.773,0,0,0,.294-.409,2.438,2.438,0,0,0,.048-.6Zm4.961.637h-.6v-.967h.791l.264-1.3H35.09v-.971h1.252l.347-1.714h.984l-.347,1.714H38.3l.338-1.714h1.02L39.3-4.838h.606v.971h-.8l-.264,1.3h1.068V-1.6H38.646L38.3.11h-.98L37.657-1.6h-.976L36.334.11h-.993Zm1.446-2.263-.259,1.3h.976l.255-1.3Z" transform="translate(-2761.694 -10703)" fill="#12263f"/>
    <line id="Línea_488" data-name="Línea 488" y2="61.428" transform="translate(-3042.934 -10736.527)" fill="none" stroke="#707070" stroke-width="1"/>
    <line id="Línea_489" data-name="Línea 489" y2="61.428" transform="translate(-2968.275 -10736.527)" fill="none" stroke="#707070" stroke-width="1"/>
    <line id="Línea_490" data-name="Línea 490" y2="61.428" transform="translate(-2911.572 -10736.527)" fill="none" stroke="#707070" stroke-width="1"/>
    <line id="Línea_491" data-name="Línea 491" y2="61.428" transform="translate(-2837.857 -10736.527)" fill="none" stroke="#707070" stroke-width="1"/>
    <line id="Línea_492" data-name="Línea 492" y2="61.428" transform="translate(-2771.704 -10736.527)" fill="none" stroke="#707070" stroke-width="1"/>
    <line id="Línea_493" data-name="Línea 493" y2="61.428" transform="translate(-2711.22 -10736.527)" fill="none" stroke="#707070" stroke-width="1"/>
    <line id="Línea_494" data-name="Línea 494" y2="61.428" transform="translate(-2644.121 -10736.527)" fill="none" stroke="#707070" stroke-width="1"/>
    <line id="Línea_495" data-name="Línea 495" y2="61.428" transform="translate(-2582.693 -10736.527)" fill="none" stroke="#707070" stroke-width="1"/>
    <line id="Línea_496" data-name="Línea 496" y2="61.428" transform="translate(-2503.309 -10736.527)" fill="none" stroke="#707070" stroke-width="1"/>
    <line id="Línea_497" data-name="Línea 497" y2="61.428" transform="translate(-2439.99 -10736.527)" fill="none" stroke="#707070" stroke-width="1"/>
    <line id="Línea_498" data-name="Línea 498" y2="61.428" transform="translate(-2374.781 -10736.527)" fill="none" stroke="#707070" stroke-width="1"/>
  </g>
</svg>
