<svg xmlns="http://www.w3.org/2000/svg" width="793.934" height="40.579" viewBox="0 0 793.934 40.579">
  <g id="img22" transform="translate(3076.934 11038.021)">
    <rect id="Rectángulo_33969" data-name="Rectángulo 33969" width="793.114" height="39.579" transform="translate(-3076.934 -11037.021)" fill="#f2f2f2"/>
    <line id="Línea_486" data-name="Línea 486" y2="32.966" transform="translate(-2757.024 -11037.021)" fill="none" stroke="#9d9d9d" stroke-miterlimit="10" stroke-width="2"/>
    <line id="Línea_487" data-name="Línea 487" y2="32.966" transform="translate(-2916.637 -11037.021)" fill="none" stroke="#9d9d9d" stroke-miterlimit="10" stroke-width="2"/>
    <g id="Grupo_78848" data-name="Grupo 78848" transform="translate(-2611.003 -11037.021)">
      <path id="Rectángulo_33971" data-name="Rectángulo 33971" d="M0,0H148.343a0,0,0,0,1,0,0V26.062a6.9,6.9,0,0,1-6.9,6.9H6.9a6.9,6.9,0,0,1-6.9-6.9V0A0,0,0,0,1,0,0Z" transform="translate(127.74 0)" fill="#fff"/>
      <path id="Trazado_143771" data-name="Trazado 143771" d="M640.912,407.158h-51.88v27.36a6.391,6.391,0,0,1-6.391,6.39H447.078a6.39,6.39,0,0,1-6.39-6.39v-27.36H312.909v33.75" transform="translate(-312.909 -407.158)" fill="none" stroke="#9d9d9d" stroke-miterlimit="10" stroke-width="2"/>
    </g>
    <path id="Trazado_143845" data-name="Trazado 143845" d="M1.27,0V-12.169H3.727v5.4l4.964-5.4h3.3L7.413-7.429,12.244,0H9.064L5.719-5.711,3.727-3.677V0ZM15.24-6.126l-2.117-.382A3.3,3.3,0,0,1,14.352-8.4a4.5,4.5,0,0,1,2.59-.614,5.581,5.581,0,0,1,2.324.369,2.318,2.318,0,0,1,1.075.938,4.81,4.81,0,0,1,.311,2.088L20.627-2.9a9.452,9.452,0,0,0,.112,1.714A5,5,0,0,0,21.159,0H18.851q-.091-.232-.224-.689-.058-.208-.083-.274a4.205,4.205,0,0,1-1.278.872A3.661,3.661,0,0,1,15.813.2,3,3,0,0,1,13.667-.54a2.456,2.456,0,0,1-.784-1.868A2.507,2.507,0,0,1,13.24-3.74a2.332,2.332,0,0,1,1-.9A7.817,7.817,0,0,1,16.1-5.18a12.708,12.708,0,0,0,2.266-.573v-.232a1.208,1.208,0,0,0-.332-.959,1.99,1.99,0,0,0-1.253-.286,1.669,1.669,0,0,0-.971.245A1.7,1.7,0,0,0,15.24-6.126Zm3.121,1.893a14.58,14.58,0,0,1-1.419.357,4.276,4.276,0,0,0-1.27.407.973.973,0,0,0-.457.822,1.144,1.144,0,0,0,.365.847,1.275,1.275,0,0,0,.93.357,2.02,2.02,0,0,0,1.2-.415,1.461,1.461,0,0,0,.556-.772,4.606,4.606,0,0,0,.091-1.137ZM15.838-9.895l1.146-2.482H19.6L17.315-9.895ZM25.185,0H22.852V-8.815h2.167v1.253a3.767,3.767,0,0,1,1-1.17,1.84,1.84,0,0,1,1.009-.282,2.96,2.96,0,0,1,1.536.44l-.722,2.034a2.047,2.047,0,0,0-1.1-.382,1.3,1.3,0,0,0-.83.27,1.844,1.844,0,0,0-.535.975,13.856,13.856,0,0,0-.2,2.955ZM37.652,0H35.486V-1.295A3.5,3.5,0,0,1,34.212-.17,3.269,3.269,0,0,1,32.73.2a3.358,3.358,0,0,1-2.6-1.224,4.98,4.98,0,0,1-1.083-3.416A4.922,4.922,0,0,1,30.1-7.848a3.437,3.437,0,0,1,2.665-1.166A3.3,3.3,0,0,1,35.32-7.786v-4.383h2.333ZM31.427-4.6a4.037,4.037,0,0,0,.39,2.042,1.763,1.763,0,0,0,1.577.913,1.717,1.717,0,0,0,1.37-.685,3.161,3.161,0,0,0,.564-2.046,3.459,3.459,0,0,0-.548-2.187,1.734,1.734,0,0,0-1.4-.668,1.752,1.752,0,0,0-1.39.66A2.982,2.982,0,0,0,31.427-4.6Zm13.63,1.793,2.324.39A3.812,3.812,0,0,1,45.966-.469,4.158,4.158,0,0,1,43.546.2a3.944,3.944,0,0,1-3.4-1.5,5.048,5.048,0,0,1-.872-3.038,4.868,4.868,0,0,1,1.146-3.432,3.773,3.773,0,0,1,2.9-1.241,3.913,3.913,0,0,1,3.1,1.3,5.748,5.748,0,0,1,1.087,3.98H41.662a2.36,2.36,0,0,0,.564,1.615,1.765,1.765,0,0,0,1.345.577,1.428,1.428,0,0,0,.921-.3A1.845,1.845,0,0,0,45.057-2.806Zm.133-2.357a2.246,2.246,0,0,0-.523-1.54,1.6,1.6,0,0,0-1.212-.527,1.62,1.62,0,0,0-1.262.556,2.152,2.152,0,0,0-.49,1.511ZM48.286,0l3.179-4.541L48.418-8.815h2.847l1.561,2.424L54.47-8.815h2.739L54.221-4.64,57.483,0H54.619L52.826-2.731,51.017,0Z" transform="translate(-2437.115 -11014.229)" fill="#409165"/>
    <path id="Trazado_143843" data-name="Trazado 143843" d="M-.025,0,4.648-12.169H6.383L11.364,0H9.529L8.11-3.686H3.021L1.685,0ZM3.486-5H7.612l-1.27-3.37Q5.761-9.9,5.479-10.891a15.513,15.513,0,0,1-.656,2.324Zm8.957,5V-8.815h1.345v1.336a3.647,3.647,0,0,1,.95-1.237,1.659,1.659,0,0,1,.959-.3,2.914,2.914,0,0,1,1.536.481l-.515,1.386a2.138,2.138,0,0,0-1.1-.324,1.423,1.423,0,0,0-.88.295,1.6,1.6,0,0,0-.556.818,5.82,5.82,0,0,0-.249,1.743V0Zm8.94-1.336L21.6-.017A5.542,5.542,0,0,1,20.47.116a2.556,2.556,0,0,1-1.262-.257,1.441,1.441,0,0,1-.631-.677,5.35,5.35,0,0,1-.183-1.764V-7.653H17.3V-8.815h1.1V-11l1.486-.9v3.08h1.5v1.162h-1.5V-2.5a2.6,2.6,0,0,0,.079.822.622.622,0,0,0,.257.291.994.994,0,0,0,.51.108A4.86,4.86,0,0,0,21.383-1.336ZM23.367,0V-8.815h1.494V0Zm-.075-9.911,1.1-2.324h1.959L24.529-9.911ZM33.319-3.229l1.469.191A3.81,3.81,0,0,1,33.556-.66,3.591,3.591,0,0,1,31.12.2,3.785,3.785,0,0,1,28.21-.984a4.8,4.8,0,0,1-1.1-3.391,6.136,6.136,0,0,1,.473-2.5,3.3,3.3,0,0,1,1.44-1.606,4.273,4.273,0,0,1,2.1-.535,3.658,3.658,0,0,1,2.349.726,3.331,3.331,0,0,1,1.17,2.063L33.195-6a2.412,2.412,0,0,0-.735-1.336,1.9,1.9,0,0,0-1.274-.448,2.319,2.319,0,0,0-1.834.809,3.842,3.842,0,0,0-.706,2.561,3.972,3.972,0,0,0,.681,2.582,2.215,2.215,0,0,0,1.776.805,2.094,2.094,0,0,0,1.469-.54A2.678,2.678,0,0,0,33.319-3.229ZM41.844,0V-1.295A3.227,3.227,0,0,1,39.047.2,3.565,3.565,0,0,1,37.59-.1a2.4,2.4,0,0,1-1-.751,2.815,2.815,0,0,1-.461-1.108,7.587,7.587,0,0,1-.091-1.395V-8.815h1.494v4.889a8.713,8.713,0,0,0,.091,1.577,1.558,1.558,0,0,0,.6.926,1.852,1.852,0,0,0,1.129.336,2.459,2.459,0,0,0,1.262-.344,1.915,1.915,0,0,0,.834-.938,4.707,4.707,0,0,0,.245-1.722V-8.815h1.494V0Zm3.644,0V-12.169h1.494V0Zm3.254-4.408A4.544,4.544,0,0,1,50.1-8.035a4.1,4.1,0,0,1,2.772-.979,3.955,3.955,0,0,1,2.972,1.191A4.532,4.532,0,0,1,57-4.532a5.832,5.832,0,0,1-.51,2.677A3.614,3.614,0,0,1,55.005-.34,4.326,4.326,0,0,1,52.876.2,3.963,3.963,0,0,1,49.884-.988,4.741,4.741,0,0,1,48.742-4.408Zm1.536,0a3.755,3.755,0,0,0,.739,2.536,2.368,2.368,0,0,0,1.859.843,2.354,2.354,0,0,0,1.851-.847,3.844,3.844,0,0,0,.739-2.582,3.642,3.642,0,0,0-.743-2.478,2.363,2.363,0,0,0-1.847-.843,2.373,2.373,0,0,0-1.859.838A3.738,3.738,0,0,0,50.278-4.408Zm7.877,1.776,1.478-.232A2.065,2.065,0,0,0,60.326-1.5a2.416,2.416,0,0,0,1.59.473,2.335,2.335,0,0,0,1.527-.419,1.254,1.254,0,0,0,.5-.984.907.907,0,0,0-.44-.8,6.48,6.48,0,0,0-1.527-.506A13.937,13.937,0,0,1,59.7-4.453a2.207,2.207,0,0,1-.963-.838A2.221,2.221,0,0,1,58.4-6.475a2.27,2.27,0,0,1,.27-1.092,2.419,2.419,0,0,1,.735-.834,3.08,3.08,0,0,1,.95-.436,4.52,4.52,0,0,1,1.291-.178,5.1,5.1,0,0,1,1.822.3,2.478,2.478,0,0,1,1.158.809,3.163,3.163,0,0,1,.515,1.365l-1.461.2A1.6,1.6,0,0,0,63.107-7.4a2.11,2.11,0,0,0-1.349-.382,2.443,2.443,0,0,0-1.469.34.991.991,0,0,0-.44.8.825.825,0,0,0,.183.523,1.318,1.318,0,0,0,.573.4q.224.083,1.32.382a18.373,18.373,0,0,1,2.212.693,2.244,2.244,0,0,1,.984.784,2.19,2.19,0,0,1,.357,1.278,2.509,2.509,0,0,1-.436,1.407A2.817,2.817,0,0,1,63.783-.162,4.578,4.578,0,0,1,61.924.2,4.142,4.142,0,0,1,59.3-.515,3.32,3.32,0,0,1,58.155-2.631Z" transform="translate(-2724.182 -11013.308)" fill="#727272"/>
    <path id="Trazado_143844" data-name="Trazado 143844" d="M1.312,0V-12.169H5.5a10.168,10.168,0,0,1,2.167.174,4.122,4.122,0,0,1,1.785.872,4.951,4.951,0,0,1,1.44,2.079,8.162,8.162,0,0,1,.477,2.893,8.5,8.5,0,0,1-.324,2.457,5.961,5.961,0,0,1-.83,1.772A4.41,4.41,0,0,1,9.11-.818a4.516,4.516,0,0,1-1.453.61A8.291,8.291,0,0,1,5.7,0Zm1.61-1.436h2.6A6.3,6.3,0,0,0,7.408-1.66,2.7,2.7,0,0,0,8.5-2.291a3.839,3.839,0,0,0,.892-1.54,7.528,7.528,0,0,0,.32-2.345A5.663,5.663,0,0,0,9.085-9.11a3.154,3.154,0,0,0-1.523-1.374,6.3,6.3,0,0,0-2.083-.249H2.922Zm16.228.349a5.564,5.564,0,0,1-1.6,1A4.617,4.617,0,0,1,15.9.2a3.2,3.2,0,0,1-2.233-.71,2.343,2.343,0,0,1-.78-1.814,2.412,2.412,0,0,1,.295-1.183,2.439,2.439,0,0,1,.772-.859,3.63,3.63,0,0,1,1.075-.49,10.676,10.676,0,0,1,1.328-.224,13.657,13.657,0,0,0,2.665-.515q.008-.307.008-.39a1.65,1.65,0,0,0-.423-1.287,2.5,2.5,0,0,0-1.7-.506,2.639,2.639,0,0,0-1.556.369A2.257,2.257,0,0,0,14.609-6.1l-1.461-.2A3.62,3.62,0,0,1,13.8-7.815a2.874,2.874,0,0,1,1.32-.888,5.887,5.887,0,0,1,2-.311,5.3,5.3,0,0,1,1.834.266A2.417,2.417,0,0,1,20-8.081a2.35,2.35,0,0,1,.465,1.017,8.413,8.413,0,0,1,.075,1.378v1.992a21.145,21.145,0,0,0,.1,2.635A3.325,3.325,0,0,0,21.009,0H19.449A3.168,3.168,0,0,1,19.15-1.087Zm-.125-3.337a10.962,10.962,0,0,1-2.44.564,5.645,5.645,0,0,0-1.3.3,1.3,1.3,0,0,0-.589.486,1.276,1.276,0,0,0-.208.71,1.272,1.272,0,0,0,.452,1,1.946,1.946,0,0,0,1.324.4A3.081,3.081,0,0,0,17.8-1.349a2.326,2.326,0,0,0,.988-1.033,3.609,3.609,0,0,0,.241-1.494Zm7.089,3.088.216,1.32A5.542,5.542,0,0,1,25.2.116a2.556,2.556,0,0,1-1.262-.257,1.441,1.441,0,0,1-.631-.677,5.35,5.35,0,0,1-.183-1.764V-7.653h-1.1V-8.815h1.1V-11l1.486-.9v3.08h1.5v1.162h-1.5V-2.5a2.6,2.6,0,0,0,.079.822.622.622,0,0,0,.257.291.994.994,0,0,0,.51.108A4.86,4.86,0,0,0,26.114-1.336Zm.9-3.071A4.544,4.544,0,0,1,28.38-8.035a4.1,4.1,0,0,1,2.772-.979,3.955,3.955,0,0,1,2.972,1.191,4.532,4.532,0,0,1,1.154,3.291,5.832,5.832,0,0,1-.51,2.677A3.614,3.614,0,0,1,33.282-.34,4.326,4.326,0,0,1,31.153.2,3.963,3.963,0,0,1,28.16-.988,4.741,4.741,0,0,1,27.019-4.408Zm1.536,0a3.755,3.755,0,0,0,.739,2.536,2.368,2.368,0,0,0,1.859.843A2.354,2.354,0,0,0,33-1.876a3.844,3.844,0,0,0,.739-2.582A3.642,3.642,0,0,0,33-6.935a2.363,2.363,0,0,0-1.847-.843,2.373,2.373,0,0,0-1.859.838A3.738,3.738,0,0,0,28.555-4.408Zm7.877,1.776,1.478-.232A2.065,2.065,0,0,0,38.6-1.5a2.416,2.416,0,0,0,1.59.473,2.335,2.335,0,0,0,1.527-.419,1.254,1.254,0,0,0,.5-.984.907.907,0,0,0-.44-.8,6.48,6.48,0,0,0-1.527-.506,13.937,13.937,0,0,1-2.279-.718,2.207,2.207,0,0,1-.963-.838,2.221,2.221,0,0,1-.328-1.183,2.27,2.27,0,0,1,.27-1.092,2.419,2.419,0,0,1,.735-.834,3.08,3.08,0,0,1,.95-.436,4.52,4.52,0,0,1,1.291-.178,5.1,5.1,0,0,1,1.822.3,2.478,2.478,0,0,1,1.158.809,3.163,3.163,0,0,1,.515,1.365l-1.461.2A1.6,1.6,0,0,0,41.384-7.4a2.11,2.11,0,0,0-1.349-.382,2.443,2.443,0,0,0-1.469.34.991.991,0,0,0-.44.8.825.825,0,0,0,.183.523,1.318,1.318,0,0,0,.573.4q.224.083,1.32.382a18.373,18.373,0,0,1,2.212.693,2.244,2.244,0,0,1,.984.784,2.19,2.19,0,0,1,.357,1.278,2.509,2.509,0,0,1-.436,1.407A2.817,2.817,0,0,1,42.06-.162,4.578,4.578,0,0,1,40.2.2a4.142,4.142,0,0,1-2.619-.714A3.32,3.32,0,0,1,36.432-2.631Z" transform="translate(-2565.656 -11013.308)" fill="#727272"/>
    <path id="Trazado_143842" data-name="Trazado 143842" d="M1.245,0V-12.169h1.61V-1.436H8.849V0Zm9.338-10.451v-1.718h1.494v1.718ZM10.583,0V-8.815h1.494V0ZM15.73,0H14.344V-12.169h1.494v4.341a2.956,2.956,0,0,1,2.416-1.187,3.7,3.7,0,0,1,1.54.328,3.145,3.145,0,0,1,1.2.921,4.454,4.454,0,0,1,.735,1.432,5.9,5.9,0,0,1,.266,1.793,5.036,5.036,0,0,1-1.121,3.5A3.5,3.5,0,0,1,18.179.2,2.807,2.807,0,0,1,15.73-1.1Zm-.017-4.474a4.575,4.575,0,0,0,.432,2.291,2.151,2.151,0,0,0,1.909,1.154,2.149,2.149,0,0,0,1.693-.851,3.866,3.866,0,0,0,.714-2.536,3.933,3.933,0,0,0-.685-2.548,2.086,2.086,0,0,0-1.656-.822,2.149,2.149,0,0,0-1.693.851A3.735,3.735,0,0,0,15.713-4.474ZM23.79,0V-8.815h1.345v1.336a3.647,3.647,0,0,1,.95-1.237,1.659,1.659,0,0,1,.959-.3,2.914,2.914,0,0,1,1.536.481l-.515,1.386a2.138,2.138,0,0,0-1.1-.324,1.423,1.423,0,0,0-.88.295,1.6,1.6,0,0,0-.556.818,5.82,5.82,0,0,0-.249,1.743V0Zm5.122-4.408a4.544,4.544,0,0,1,1.361-3.627,4.1,4.1,0,0,1,2.772-.979,3.955,3.955,0,0,1,2.972,1.191,4.532,4.532,0,0,1,1.154,3.291,5.832,5.832,0,0,1-.51,2.677A3.614,3.614,0,0,1,35.175-.34,4.326,4.326,0,0,1,33.045.2,3.963,3.963,0,0,1,30.053-.988,4.741,4.741,0,0,1,28.912-4.408Zm1.536,0a3.755,3.755,0,0,0,.739,2.536,2.368,2.368,0,0,0,1.859.843A2.354,2.354,0,0,0,34.9-1.876a3.844,3.844,0,0,0,.739-2.582,3.642,3.642,0,0,0-.743-2.478,2.363,2.363,0,0,0-1.847-.843,2.373,2.373,0,0,0-1.859.838A3.738,3.738,0,0,0,30.447-4.408ZM43.787,0V-12.169H46.21l2.88,8.616q.4,1.2.581,1.8.208-.664.647-1.951l2.914-8.467H55.4V0H53.847V-10.185L50.311,0H48.858l-3.52-10.359V0ZM63.559-1.087a5.564,5.564,0,0,1-1.6,1A4.617,4.617,0,0,1,60.313.2a3.2,3.2,0,0,1-2.233-.71,2.343,2.343,0,0,1-.78-1.814,2.412,2.412,0,0,1,.295-1.183,2.439,2.439,0,0,1,.772-.859,3.63,3.63,0,0,1,1.075-.49A10.676,10.676,0,0,1,60.77-5.08a13.657,13.657,0,0,0,2.665-.515q.008-.307.008-.39a1.65,1.65,0,0,0-.423-1.287,2.5,2.5,0,0,0-1.7-.506,2.639,2.639,0,0,0-1.556.369A2.257,2.257,0,0,0,59.019-6.1l-1.461-.2a3.62,3.62,0,0,1,.656-1.515,2.874,2.874,0,0,1,1.32-.888,5.887,5.887,0,0,1,2-.311,5.3,5.3,0,0,1,1.834.266,2.417,2.417,0,0,1,1.038.668,2.35,2.35,0,0,1,.465,1.017,8.413,8.413,0,0,1,.075,1.378v1.992a21.146,21.146,0,0,0,.1,2.635A3.325,3.325,0,0,0,65.418,0H63.858A3.168,3.168,0,0,1,63.559-1.087Zm-.125-3.337a10.962,10.962,0,0,1-2.44.564,5.645,5.645,0,0,0-1.3.3,1.3,1.3,0,0,0-.589.486,1.276,1.276,0,0,0-.208.71,1.272,1.272,0,0,0,.452,1,1.946,1.946,0,0,0,1.324.4,3.081,3.081,0,0,0,1.536-.378,2.326,2.326,0,0,0,.988-1.033,3.609,3.609,0,0,0,.241-1.494ZM67.195,3.4l-.166-1.4a3.33,3.33,0,0,0,.855.133,1.641,1.641,0,0,0,.8-.166,1.357,1.357,0,0,0,.49-.465A7.329,7.329,0,0,0,69.627.382q.042-.125.133-.365L66.415-8.815h1.61l1.834,5.1q.357.971.639,2.042a20.1,20.1,0,0,1,.614-2.009L73-8.815h1.494L71.138.149a17.6,17.6,0,0,1-.838,2,2.951,2.951,0,0,1-.913,1.083,2.157,2.157,0,0,1-1.229.344A2.992,2.992,0,0,1,67.195,3.4Zm8.01-7.8a4.544,4.544,0,0,1,1.361-3.627,4.1,4.1,0,0,1,2.772-.979,3.955,3.955,0,0,1,2.972,1.191,4.532,4.532,0,0,1,1.154,3.291,5.832,5.832,0,0,1-.51,2.677A3.614,3.614,0,0,1,81.468-.34,4.326,4.326,0,0,1,79.339.2,3.963,3.963,0,0,1,76.346-.988,4.741,4.741,0,0,1,75.205-4.408Zm1.536,0a3.755,3.755,0,0,0,.739,2.536,2.368,2.368,0,0,0,1.859.843,2.354,2.354,0,0,0,1.851-.847,3.844,3.844,0,0,0,.739-2.582,3.642,3.642,0,0,0-.743-2.478,2.363,2.363,0,0,0-1.847-.843,2.373,2.373,0,0,0-1.859.838A3.738,3.738,0,0,0,76.741-4.408ZM85.2,0V-8.815h1.345v1.336a3.647,3.647,0,0,1,.95-1.237,1.659,1.659,0,0,1,.959-.3,2.914,2.914,0,0,1,1.536.481l-.515,1.386a2.138,2.138,0,0,0-1.1-.324,1.423,1.423,0,0,0-.88.295,1.6,1.6,0,0,0-.556.818,5.82,5.82,0,0,0-.249,1.743V0Z" transform="translate(-2883.794 -11013.308)" fill="#727272"/>
    <path id="Trazado_143841" data-name="Trazado 143841" d="M1.245,0V-12.169h1.61V-1.436H8.849V0Zm9.338-10.451v-1.718h1.494v1.718ZM10.583,0V-8.815h1.494V0ZM15.73,0H14.344V-12.169h1.494v4.341a2.956,2.956,0,0,1,2.416-1.187,3.7,3.7,0,0,1,1.54.328,3.145,3.145,0,0,1,1.2.921,4.454,4.454,0,0,1,.735,1.432,5.9,5.9,0,0,1,.266,1.793,5.036,5.036,0,0,1-1.121,3.5A3.5,3.5,0,0,1,18.179.2,2.807,2.807,0,0,1,15.73-1.1Zm-.017-4.474a4.575,4.575,0,0,0,.432,2.291,2.151,2.151,0,0,0,1.909,1.154,2.149,2.149,0,0,0,1.693-.851,3.866,3.866,0,0,0,.714-2.536,3.933,3.933,0,0,0-.685-2.548,2.086,2.086,0,0,0-1.656-.822,2.149,2.149,0,0,0-1.693.851A3.735,3.735,0,0,0,15.713-4.474ZM23.79,0V-8.815h1.345v1.336a3.647,3.647,0,0,1,.95-1.237,1.659,1.659,0,0,1,.959-.3,2.914,2.914,0,0,1,1.536.481l-.515,1.386a2.138,2.138,0,0,0-1.1-.324,1.423,1.423,0,0,0-.88.295,1.6,1.6,0,0,0-.556.818,5.82,5.82,0,0,0-.249,1.743V0Zm5.122-4.408a4.544,4.544,0,0,1,1.361-3.627,4.1,4.1,0,0,1,2.772-.979,3.955,3.955,0,0,1,2.972,1.191,4.532,4.532,0,0,1,1.154,3.291,5.832,5.832,0,0,1-.51,2.677A3.614,3.614,0,0,1,35.175-.34,4.326,4.326,0,0,1,33.045.2,3.963,3.963,0,0,1,30.053-.988,4.741,4.741,0,0,1,28.912-4.408Zm1.536,0a3.755,3.755,0,0,0,.739,2.536,2.368,2.368,0,0,0,1.859.843A2.354,2.354,0,0,0,34.9-1.876a3.844,3.844,0,0,0,.739-2.582,3.642,3.642,0,0,0-.743-2.478,2.363,2.363,0,0,0-1.847-.843,2.373,2.373,0,0,0-1.859.838A3.738,3.738,0,0,0,30.447-4.408ZM49.365,0V-1.112A2.742,2.742,0,0,1,46.9.2a3.457,3.457,0,0,1-1.938-.581A3.821,3.821,0,0,1,43.592-2,5.609,5.609,0,0,1,43.106-4.4a6.268,6.268,0,0,1,.44-2.395,3.47,3.47,0,0,1,1.32-1.648,3.529,3.529,0,0,1,1.967-.573,2.94,2.94,0,0,1,1.419.336,2.968,2.968,0,0,1,1.013.876v-4.366h1.486V0ZM44.642-4.4a3.828,3.828,0,0,0,.714,2.532,2.153,2.153,0,0,0,1.685.838,2.113,2.113,0,0,0,1.664-.8,3.693,3.693,0,0,0,.685-2.445,4.146,4.146,0,0,0-.7-2.656,2.145,2.145,0,0,0-1.718-.847,2.07,2.07,0,0,0-1.664.813A4.015,4.015,0,0,0,44.642-4.4Zm8.467-6.051v-1.718H54.6v1.718ZM53.108,0V-8.815H54.6V0Zm9.521-1.087a5.564,5.564,0,0,1-1.6,1A4.617,4.617,0,0,1,59.384.2a3.2,3.2,0,0,1-2.233-.71,2.343,2.343,0,0,1-.78-1.814,2.412,2.412,0,0,1,.295-1.183,2.439,2.439,0,0,1,.772-.859,3.63,3.63,0,0,1,1.075-.49A10.676,10.676,0,0,1,59.84-5.08,13.657,13.657,0,0,0,62.5-5.595q.008-.307.008-.39a1.65,1.65,0,0,0-.423-1.287,2.5,2.5,0,0,0-1.7-.506,2.639,2.639,0,0,0-1.556.369A2.257,2.257,0,0,0,58.089-6.1l-1.461-.2a3.62,3.62,0,0,1,.656-1.515A2.874,2.874,0,0,1,58.6-8.7a5.887,5.887,0,0,1,2-.311,5.3,5.3,0,0,1,1.834.266,2.417,2.417,0,0,1,1.038.668,2.35,2.35,0,0,1,.465,1.017,8.413,8.413,0,0,1,.075,1.378v1.992a21.146,21.146,0,0,0,.1,2.635A3.325,3.325,0,0,0,64.489,0H62.928A3.168,3.168,0,0,1,62.629-1.087ZM62.5-4.424a10.962,10.962,0,0,1-2.44.564,5.645,5.645,0,0,0-1.3.3,1.3,1.3,0,0,0-.589.486,1.276,1.276,0,0,0-.208.71,1.272,1.272,0,0,0,.452,1,1.946,1.946,0,0,0,1.324.4,3.081,3.081,0,0,0,1.536-.378,2.326,2.326,0,0,0,.988-1.033A3.609,3.609,0,0,0,62.5-3.876ZM66.315,0V-8.815H67.66v1.336a3.647,3.647,0,0,1,.95-1.237,1.659,1.659,0,0,1,.959-.3,2.914,2.914,0,0,1,1.536.481L70.59-7.147a2.138,2.138,0,0,0-1.1-.324,1.423,1.423,0,0,0-.88.295,1.6,1.6,0,0,0-.556.818,5.82,5.82,0,0,0-.249,1.743V0ZM72-10.451v-1.718H73.5v1.718ZM72,0V-8.815H73.5V0Zm3.212-4.408a4.544,4.544,0,0,1,1.361-3.627,4.1,4.1,0,0,1,2.772-.979,3.955,3.955,0,0,1,2.972,1.191,4.532,4.532,0,0,1,1.154,3.291,5.832,5.832,0,0,1-.51,2.677A3.614,3.614,0,0,1,81.476-.34,4.326,4.326,0,0,1,79.347.2,3.963,3.963,0,0,1,76.355-.988,4.741,4.741,0,0,1,75.213-4.408Zm1.536,0a3.755,3.755,0,0,0,.739,2.536,2.368,2.368,0,0,0,1.859.843A2.354,2.354,0,0,0,81.2-1.876a3.844,3.844,0,0,0,.739-2.582,3.642,3.642,0,0,0-.743-2.478,2.363,2.363,0,0,0-1.847-.843,2.373,2.373,0,0,0-1.859.838A3.738,3.738,0,0,0,76.749-4.408Z" transform="translate(-3037.204 -11013.308)" fill="#727272"/>
    <path id="Trazado_143773" data-name="Trazado 143773" d="M0,0H505.19" transform="translate(-2789.01 -10998.327)" fill="none" stroke="#9d9d9d" stroke-width="1"/>
    <path id="Trazado_143775" data-name="Trazado 143775" d="M0,0H632.931" transform="translate(-3070.047 -10998.327)" fill="none" stroke="#9d9d9d" stroke-width="1"/>
    <rect id="Rectángulo_33974" data-name="Rectángulo 33974" width="2.338" height="15.337" transform="translate(-2320.303 -11018.977) rotate(-90)" fill="#606060"/>
    <rect id="Rectángulo_33975" data-name="Rectángulo 33975" width="2.338" height="15.337" transform="translate(-2313.803 -11027.814)" fill="#606060"/>
    <path id="Trazado_143772" data-name="Trazado 143772" d="M-7305.29-1424.722h463.7" transform="translate(4235.243 -9612.299)" fill="none" stroke="#9d9d9d" stroke-width="2"/>
  </g>
</svg>
