<svg xmlns="http://www.w3.org/2000/svg" width="499.001" height="33.42" viewBox="0 0 499.001 33.42">
  <g id="img35" transform="translate(2909.741 11038.021)">
    <rect id="Rectángulo_33969" data-name="Rectángulo 33969" width="497.688" height="32.42" transform="translate(-2908.741 -11037.021)" fill="#f2f2f2"/>
    <path id="Trazado_143845" data-name="Trazado 143845" d="M.453,0V32.274" transform="translate(-2804.741 -11037.021)" fill="none" stroke="#9d9d9d" stroke-width="2"/>
    <line id="Línea_509" data-name="Línea 509" y2="32" transform="translate(-2908.741 -11037.1)" fill="none" stroke="#9d9d9d" stroke-miterlimit="10" stroke-width="2"/>
    <g id="Grupo_78848" data-name="Grupo 78848" transform="translate(-2679.056 -11037.021)">
      <path id="Rectángulo_33971" data-name="Rectángulo 33971" d="M0,0H190.318a0,0,0,0,1,0,0V20.1a6.9,6.9,0,0,1-6.9,6.9H6.9A6.9,6.9,0,0,1,0,20.1V0A0,0,0,0,1,0,0Z" transform="translate(35.828 0)" fill="#fff"/>
      <path id="Trazado_143771" data-name="Trazado 143771" d="M581.225,407.158H539.088v22.411a5.235,5.235,0,0,1-5.235,5.235H355.238A5.234,5.234,0,0,1,350,429.569V407.158H312.909" transform="translate(-312.909 -407.158)" fill="none" stroke="#9d9d9d" stroke-miterlimit="10" stroke-width="2"/>
    </g>
    <path id="Trazado_143846" data-name="Trazado 143846" d="M.879,0V-8.59H2.016v4.26L6.281-8.59H7.822l-3.6,3.48L7.98,0H6.48L3.422-4.348,2.016-2.977V0ZM12.855-.768a3.927,3.927,0,0,1-1.128.7,3.259,3.259,0,0,1-1.163.205,2.262,2.262,0,0,1-1.576-.5,1.654,1.654,0,0,1-.551-1.28,1.7,1.7,0,0,1,.208-.835,1.722,1.722,0,0,1,.545-.606,2.562,2.562,0,0,1,.759-.346,7.536,7.536,0,0,1,.938-.158,9.64,9.64,0,0,0,1.881-.363q.006-.217.006-.275a1.164,1.164,0,0,0-.3-.908,1.765,1.765,0,0,0-1.2-.357,1.863,1.863,0,0,0-1.1.261,1.593,1.593,0,0,0-.524.923L8.619-4.447a2.555,2.555,0,0,1,.463-1.069,2.029,2.029,0,0,1,.932-.627,4.155,4.155,0,0,1,1.412-.22,3.738,3.738,0,0,1,1.295.188,1.706,1.706,0,0,1,.732.472,1.659,1.659,0,0,1,.328.718,5.938,5.938,0,0,1,.053.973v1.406A14.926,14.926,0,0,0,13.9-.747,2.347,2.347,0,0,0,14.168,0h-1.1A2.236,2.236,0,0,1,12.855-.768Zm-.088-2.355a7.738,7.738,0,0,1-1.723.4,3.985,3.985,0,0,0-.92.211.917.917,0,0,0-.416.343.9.9,0,0,0-.146.5.9.9,0,0,0,.319.7,1.374,1.374,0,0,0,.935.281A2.175,2.175,0,0,0,11.9-.952a1.642,1.642,0,0,0,.7-.729,2.548,2.548,0,0,0,.17-1.055ZM10.717-7,11.5-8.637h1.383L11.59-7Zm8.789,7V-.785a1.935,1.935,0,0,1-1.74.926A2.44,2.44,0,0,1,16.4-.27a2.7,2.7,0,0,1-.967-1.146,3.959,3.959,0,0,1-.343-1.69A4.424,4.424,0,0,1,15.4-4.8a2.449,2.449,0,0,1,.932-1.163,2.491,2.491,0,0,1,1.389-.4,2.075,2.075,0,0,1,1,.237,2.1,2.1,0,0,1,.715.618V-8.59h1.049V0ZM16.172-3.105a2.7,2.7,0,0,0,.5,1.787,1.519,1.519,0,0,0,1.189.592,1.492,1.492,0,0,0,1.175-.565,2.607,2.607,0,0,0,.483-1.726,2.926,2.926,0,0,0-.492-1.875,1.514,1.514,0,0,0-1.213-.6,1.461,1.461,0,0,0-1.175.574A2.834,2.834,0,0,0,16.172-3.105ZM26.4-2l1.09.135a2.659,2.659,0,0,1-.955,1.482,2.871,2.871,0,0,1-1.781.527A2.846,2.846,0,0,1,22.591-.7a3.285,3.285,0,0,1-.8-2.358A3.438,3.438,0,0,1,22.6-5.5a2.737,2.737,0,0,1,2.1-.867,2.66,2.66,0,0,1,2.039.85,3.376,3.376,0,0,1,.791,2.391q0,.094-.006.281H22.881a2.391,2.391,0,0,0,.58,1.57,1.727,1.727,0,0,0,1.3.545,1.614,1.614,0,0,0,.99-.3A2.023,2.023,0,0,0,26.4-2ZM22.939-3.709h3.475a2.108,2.108,0,0,0-.4-1.178A1.616,1.616,0,0,0,24.709-5.5a1.675,1.675,0,0,0-1.222.486A1.925,1.925,0,0,0,22.939-3.709ZM28.113,0l2.273-3.234-2.1-2.988H29.6l.955,1.459q.27.416.434.7.258-.387.475-.686l1.049-1.471h1.26l-2.15,2.93L33.938,0H32.643L31.365-1.934l-.34-.521L29.391,0Z" transform="translate(-2870.937 -11016.811)" fill="#727272"/>
    <path id="Trazado_143847" data-name="Trazado 143847" d="M7.055-3.012l1.137.287A3.826,3.826,0,0,1,6.905-.589,3.544,3.544,0,0,1,4.635.146,4.08,4.08,0,0,1,2.376-.419,3.531,3.531,0,0,1,1.052-2.057,5.843,5.843,0,0,1,.6-4.359,5.062,5.062,0,0,1,1.11-6.7,3.513,3.513,0,0,1,2.569-8.218a4.263,4.263,0,0,1,2.083-.519A3.521,3.521,0,0,1,6.82-8.08,3.408,3.408,0,0,1,8.045-6.234l-1.119.264a2.655,2.655,0,0,0-.867-1.365,2.311,2.311,0,0,0-1.43-.428,2.777,2.777,0,0,0-1.655.475,2.506,2.506,0,0,0-.935,1.274,5.131,5.131,0,0,0-.27,1.649,5.242,5.242,0,0,0,.319,1.913A2.379,2.379,0,0,0,3.082-1.23a2.785,2.785,0,0,0,1.459.4,2.445,2.445,0,0,0,1.617-.551A2.819,2.819,0,0,0,7.055-3.012Zm2.01-.1a3.207,3.207,0,0,1,.961-2.561,2.9,2.9,0,0,1,1.957-.691,2.792,2.792,0,0,1,2.1.841A3.2,3.2,0,0,1,14.895-3.2a4.117,4.117,0,0,1-.36,1.89A2.551,2.551,0,0,1,13.485-.24a3.054,3.054,0,0,1-1.5.381A2.8,2.8,0,0,1,9.87-.7,3.347,3.347,0,0,1,9.064-3.111Zm1.084,0a2.65,2.65,0,0,0,.521,1.79,1.672,1.672,0,0,0,1.313.595,1.662,1.662,0,0,0,1.307-.6,2.713,2.713,0,0,0,.521-1.822A2.571,2.571,0,0,0,13.286-4.9a1.668,1.668,0,0,0-1.3-.595A1.675,1.675,0,0,0,10.67-4.9,2.639,2.639,0,0,0,10.148-3.111ZM16.131,0V-6.223h.943v.873a2.218,2.218,0,0,1,.779-.735,2.189,2.189,0,0,1,1.107-.278,2.047,2.047,0,0,1,1.134.287,1.537,1.537,0,0,1,.624.8,2.234,2.234,0,0,1,1.922-1.09,1.894,1.894,0,0,1,1.424.513,2.191,2.191,0,0,1,.5,1.579V0H23.514V-3.92a2.886,2.886,0,0,0-.1-.911.883.883,0,0,0-.372-.448,1.161,1.161,0,0,0-.633-.17,1.473,1.473,0,0,0-1.09.437,1.923,1.923,0,0,0-.434,1.4V0H19.828V-4.043A1.779,1.779,0,0,0,19.57-5.1a.976.976,0,0,0-.844-.352,1.533,1.533,0,0,0-.823.234,1.329,1.329,0,0,0-.548.686,3.859,3.859,0,0,0-.17,1.3V0Zm10,2.385V-6.223h.961v.809a2.369,2.369,0,0,1,.768-.712,2.109,2.109,0,0,1,1.037-.237,2.459,2.459,0,0,1,1.406.41,2.517,2.517,0,0,1,.92,1.157,4.225,4.225,0,0,1,.311,1.638,4.16,4.16,0,0,1-.343,1.72,2.584,2.584,0,0,1-1,1.172,2.558,2.558,0,0,1-1.374.407,1.985,1.985,0,0,1-.946-.223,2.155,2.155,0,0,1-.688-.562V2.385Zm.955-5.461A2.707,2.707,0,0,0,27.568-1.3a1.491,1.491,0,0,0,1.178.574,1.525,1.525,0,0,0,1.2-.595,2.822,2.822,0,0,0,.5-1.843,2.749,2.749,0,0,0-.489-1.781,1.473,1.473,0,0,0-1.169-.592,1.519,1.519,0,0,0-1.192.63A2.818,2.818,0,0,0,27.082-3.076ZM32.789,0V-6.223h.949v.943a2.574,2.574,0,0,1,.671-.873,1.171,1.171,0,0,1,.677-.211,2.057,2.057,0,0,1,1.084.34l-.363.979a1.509,1.509,0,0,0-.773-.229,1,1,0,0,0-.621.208,1.127,1.127,0,0,0-.393.577,4.108,4.108,0,0,0-.176,1.23V0ZM36.4-3.111a3.207,3.207,0,0,1,.961-2.561,2.9,2.9,0,0,1,1.957-.691,2.792,2.792,0,0,1,2.1.841A3.2,3.2,0,0,1,42.234-3.2a4.117,4.117,0,0,1-.36,1.89A2.551,2.551,0,0,1,40.825-.24a3.054,3.054,0,0,1-1.5.381A2.8,2.8,0,0,1,37.21-.7,3.347,3.347,0,0,1,36.4-3.111Zm1.084,0a2.65,2.65,0,0,0,.521,1.79,1.672,1.672,0,0,0,1.313.595,1.662,1.662,0,0,0,1.307-.6,2.713,2.713,0,0,0,.521-1.822A2.571,2.571,0,0,0,40.626-4.9a1.668,1.668,0,0,0-1.3-.595A1.675,1.675,0,0,0,38.01-4.9,2.639,2.639,0,0,0,37.488-3.111ZM44.443,0h-.979V-8.59H44.52v3.064a2.087,2.087,0,0,1,1.705-.838,2.611,2.611,0,0,1,1.087.231,2.22,2.22,0,0,1,.844.65,3.144,3.144,0,0,1,.519,1.011,4.167,4.167,0,0,1,.188,1.266A3.555,3.555,0,0,1,48.07-.732a2.474,2.474,0,0,1-1.9.873,1.981,1.981,0,0,1-1.729-.92Zm-.012-3.158a3.23,3.23,0,0,0,.3,1.617,1.519,1.519,0,0,0,1.348.814,1.517,1.517,0,0,0,1.2-.6,2.729,2.729,0,0,0,.5-1.79,2.776,2.776,0,0,0-.483-1.8,1.472,1.472,0,0,0-1.169-.58,1.517,1.517,0,0,0-1.2.6A2.637,2.637,0,0,0,44.432-3.158ZM54.205-.768a3.927,3.927,0,0,1-1.128.7,3.259,3.259,0,0,1-1.163.205,2.262,2.262,0,0,1-1.576-.5,1.654,1.654,0,0,1-.551-1.28A1.7,1.7,0,0,1,50-2.476a1.722,1.722,0,0,1,.545-.606,2.562,2.562,0,0,1,.759-.346,7.536,7.536,0,0,1,.938-.158,9.64,9.64,0,0,0,1.881-.363q.006-.217.006-.275a1.164,1.164,0,0,0-.3-.908,1.765,1.765,0,0,0-1.2-.357,1.863,1.863,0,0,0-1.1.261A1.593,1.593,0,0,0,51-4.307l-1.031-.141a2.555,2.555,0,0,1,.463-1.069,2.029,2.029,0,0,1,.932-.627,4.155,4.155,0,0,1,1.412-.22,3.738,3.738,0,0,1,1.295.188A1.706,1.706,0,0,1,54.8-5.7a1.659,1.659,0,0,1,.328.718,5.938,5.938,0,0,1,.053.973v1.406a14.926,14.926,0,0,0,.067,1.86A2.347,2.347,0,0,0,55.518,0h-1.1A2.236,2.236,0,0,1,54.205-.768Zm-.088-2.355a7.738,7.738,0,0,1-1.723.4,3.985,3.985,0,0,0-.92.211.917.917,0,0,0-.416.343.9.9,0,0,0-.146.5.9.9,0,0,0,.319.7,1.374,1.374,0,0,0,.935.281A2.175,2.175,0,0,0,53.25-.952a1.642,1.642,0,0,0,.7-.729,2.548,2.548,0,0,0,.17-1.055ZM56.818,0V-6.223h.949v.885a2.237,2.237,0,0,1,1.98-1.025,2.6,2.6,0,0,1,1.034.2,1.627,1.627,0,0,1,.706.53,2.035,2.035,0,0,1,.328.779,6.039,6.039,0,0,1,.059,1.025V0H60.82V-3.785a2.841,2.841,0,0,0-.123-.964,1.014,1.014,0,0,0-.437-.51,1.389,1.389,0,0,0-.735-.19,1.709,1.709,0,0,0-1.163.428A2.11,2.11,0,0,0,57.873-3.4V0Zm8.977-.943.152.932a3.912,3.912,0,0,1-.8.094A1.8,1.8,0,0,1,64.26-.1a1.017,1.017,0,0,1-.445-.478,3.776,3.776,0,0,1-.129-1.245V-5.4h-.773v-.82h.773V-7.764L64.734-8.4v2.174h1.061v.82H64.734v3.639a1.838,1.838,0,0,0,.056.58.439.439,0,0,0,.182.205.7.7,0,0,0,.36.076A3.431,3.431,0,0,0,65.795-.943ZM71.086-2l1.09.135a2.659,2.659,0,0,1-.955,1.482,2.871,2.871,0,0,1-1.781.527A2.846,2.846,0,0,1,67.274-.7a3.285,3.285,0,0,1-.8-2.358A3.438,3.438,0,0,1,67.283-5.5a2.737,2.737,0,0,1,2.1-.867,2.66,2.66,0,0,1,2.039.85,3.376,3.376,0,0,1,.791,2.391q0,.094-.006.281H67.564a2.391,2.391,0,0,0,.58,1.57,1.727,1.727,0,0,0,1.3.545,1.614,1.614,0,0,0,.99-.3A2.023,2.023,0,0,0,71.086-2ZM67.623-3.709H71.1a2.108,2.108,0,0,0-.4-1.178A1.616,1.616,0,0,0,69.393-5.5a1.675,1.675,0,0,0-1.222.486A1.925,1.925,0,0,0,67.623-3.709ZM80.871,0V-.785a1.935,1.935,0,0,1-1.74.926,2.44,2.44,0,0,1-1.368-.41A2.7,2.7,0,0,1,76.8-1.415a3.959,3.959,0,0,1-.343-1.69,4.424,4.424,0,0,1,.311-1.69A2.449,2.449,0,0,1,77.7-5.959a2.491,2.491,0,0,1,1.389-.4,2.075,2.075,0,0,1,1,.237,2.1,2.1,0,0,1,.715.618V-8.59H81.85V0ZM77.537-3.105a2.7,2.7,0,0,0,.5,1.787,1.519,1.519,0,0,0,1.189.592,1.492,1.492,0,0,0,1.175-.565,2.607,2.607,0,0,0,.483-1.726A2.926,2.926,0,0,0,80.4-4.893a1.514,1.514,0,0,0-1.213-.6,1.461,1.461,0,0,0-1.175.574A2.834,2.834,0,0,0,77.537-3.105ZM87.768-2l1.09.135A2.659,2.659,0,0,1,87.9-.387a2.871,2.871,0,0,1-1.781.527A2.846,2.846,0,0,1,83.956-.7a3.285,3.285,0,0,1-.8-2.358A3.438,3.438,0,0,1,83.965-5.5a2.737,2.737,0,0,1,2.1-.867,2.66,2.66,0,0,1,2.039.85,3.376,3.376,0,0,1,.791,2.391q0,.094-.006.281H84.246a2.391,2.391,0,0,0,.58,1.57,1.727,1.727,0,0,0,1.3.545,1.614,1.614,0,0,0,.99-.3A2.023,2.023,0,0,0,87.768-2ZM84.3-3.709h3.475a2.108,2.108,0,0,0-.4-1.178A1.616,1.616,0,0,0,86.074-5.5a1.675,1.675,0,0,0-1.222.486A1.925,1.925,0,0,0,84.3-3.709Zm13.271,1.43,1.037.135a2.69,2.69,0,0,1-.87,1.679,2.535,2.535,0,0,1-1.72.606A2.672,2.672,0,0,1,93.97-.694a3.388,3.388,0,0,1-.776-2.394,4.331,4.331,0,0,1,.334-1.764,2.329,2.329,0,0,1,1.017-1.134,3.016,3.016,0,0,1,1.485-.378,2.582,2.582,0,0,1,1.658.513,2.351,2.351,0,0,1,.826,1.456l-1.025.158a1.7,1.7,0,0,0-.519-.943,1.342,1.342,0,0,0-.9-.316,1.637,1.637,0,0,0-1.295.571,2.712,2.712,0,0,0-.5,1.808,2.8,2.8,0,0,0,.48,1.822,1.564,1.564,0,0,0,1.254.568,1.478,1.478,0,0,0,1.037-.381A1.89,1.89,0,0,0,97.576-2.279Zm1.945-5.1V-8.59h1.055v1.213Zm0,7.377V-6.223h1.055V0Zm6.92-2,1.09.135a2.659,2.659,0,0,1-.955,1.482,2.871,2.871,0,0,1-1.781.527A2.846,2.846,0,0,1,102.63-.7a3.285,3.285,0,0,1-.8-2.358,3.438,3.438,0,0,1,.809-2.437,2.737,2.737,0,0,1,2.1-.867,2.66,2.66,0,0,1,2.039.85,3.376,3.376,0,0,1,.791,2.391q0,.094-.006.281H102.92a2.391,2.391,0,0,0,.58,1.57,1.727,1.727,0,0,0,1.3.545,1.614,1.614,0,0,0,.99-.3A2.023,2.023,0,0,0,106.441-2Zm-3.463-1.705h3.475a2.108,2.108,0,0,0-.4-1.178,1.616,1.616,0,0,0-1.307-.609,1.675,1.675,0,0,0-1.222.486A1.925,1.925,0,0,0,102.979-3.709ZM108.844,0V-6.223h.949v.943a2.574,2.574,0,0,1,.671-.873,1.171,1.171,0,0,1,.677-.211,2.057,2.057,0,0,1,1.084.34l-.363.979a1.509,1.509,0,0,0-.773-.229,1,1,0,0,0-.621.208,1.127,1.127,0,0,0-.393.577,4.108,4.108,0,0,0-.176,1.23V0Zm4,0V-6.223h.949v.943a2.574,2.574,0,0,1,.671-.873,1.171,1.171,0,0,1,.677-.211,2.057,2.057,0,0,1,1.084.34l-.363.979a1.509,1.509,0,0,0-.773-.229,1,1,0,0,0-.621.208,1.127,1.127,0,0,0-.393.577,4.108,4.108,0,0,0-.176,1.23V0Zm8.268-2,1.09.135a2.659,2.659,0,0,1-.955,1.482,2.871,2.871,0,0,1-1.781.527A2.846,2.846,0,0,1,117.3-.7a3.285,3.285,0,0,1-.8-2.358A3.438,3.438,0,0,1,117.3-5.5a2.737,2.737,0,0,1,2.1-.867,2.66,2.66,0,0,1,2.039.85,3.376,3.376,0,0,1,.791,2.391q0,.094-.006.281h-4.641a2.391,2.391,0,0,0,.58,1.57,1.727,1.727,0,0,0,1.3.545,1.614,1.614,0,0,0,.99-.3A2.023,2.023,0,0,0,121.107-2Zm-3.463-1.705h3.475a2.108,2.108,0,0,0-.4-1.178,1.616,1.616,0,0,0-1.307-.609,1.675,1.675,0,0,0-1.222.486A1.925,1.925,0,0,0,117.645-3.709Z" transform="translate(-2783.763 -11018.429)" fill="#727272"/>
    <path id="Trazado_143848" data-name="Trazado 143848" d="M.879-8.59H4.313A9.919,9.919,0,0,1,5.833-8.5a2.234,2.234,0,0,1,.9.354,2.2,2.2,0,0,1,.659.718,1.945,1.945,0,0,1,.264,1A2,2,0,0,1,7.327-5.32a2.015,2.015,0,0,1-.882.756,2.261,2.261,0,0,1,1.207.779A2.069,2.069,0,0,1,8.074-2.49,2.553,2.553,0,0,1,7.8-1.351a2.3,2.3,0,0,1-.744.885,2.458,2.458,0,0,1-1.163.407Q5.461-.012,3.8,0H.879ZM2.613-7.16v1.986H3.75q1.014,0,1.26-.029a1.146,1.146,0,0,0,.7-.308.907.907,0,0,0,.255-.671.942.942,0,0,0-.22-.647,1,1,0,0,0-.653-.3Q4.834-7.16,3.609-7.16Zm0,3.416v2.3H4.219A7.846,7.846,0,0,0,5.408-1.5a1.075,1.075,0,0,0,.63-.343,1.055,1.055,0,0,0,.243-.729,1.121,1.121,0,0,0-.187-.656,1.06,1.06,0,0,0-.542-.393,5.892,5.892,0,0,0-1.538-.123Zm8.145-.58-1.494-.27a2.327,2.327,0,0,1,.867-1.336,3.173,3.173,0,0,1,1.828-.434A3.94,3.94,0,0,1,13.6-6.1a1.636,1.636,0,0,1,.759.662,3.4,3.4,0,0,1,.22,1.474l-.018,1.922a6.672,6.672,0,0,0,.079,1.21,3.532,3.532,0,0,0,.3.835H13.307q-.064-.164-.158-.486-.041-.146-.059-.193a2.968,2.968,0,0,1-.9.615,2.584,2.584,0,0,1-1.025.205A2.12,2.12,0,0,1,9.647-.381,1.733,1.733,0,0,1,9.094-1.7a1.77,1.77,0,0,1,.252-.94,1.646,1.646,0,0,1,.706-.633,5.518,5.518,0,0,1,1.31-.384,8.971,8.971,0,0,0,1.6-.4v-.164a.853.853,0,0,0-.234-.677,1.4,1.4,0,0,0-.885-.2,1.178,1.178,0,0,0-.686.173A1.2,1.2,0,0,0,10.758-4.324Zm2.2,1.336a10.292,10.292,0,0,1-1,.252,3.018,3.018,0,0,0-.9.287.687.687,0,0,0-.322.58.808.808,0,0,0,.258.6.9.9,0,0,0,.656.252,1.426,1.426,0,0,0,.85-.293,1.031,1.031,0,0,0,.393-.545,3.251,3.251,0,0,0,.064-.8ZM16.2,0V-8.59h1.646V0Zm4.564-4.324-1.494-.27a2.327,2.327,0,0,1,.867-1.336,3.173,3.173,0,0,1,1.828-.434,3.94,3.94,0,0,1,1.641.261,1.636,1.636,0,0,1,.759.662,3.4,3.4,0,0,1,.22,1.474l-.018,1.922a6.672,6.672,0,0,0,.079,1.21,3.532,3.532,0,0,0,.3.835H23.314q-.064-.164-.158-.486Q23.115-.633,23.1-.68a2.968,2.968,0,0,1-.9.615A2.584,2.584,0,0,1,21.17.141a2.12,2.12,0,0,1-1.515-.521A1.733,1.733,0,0,1,19.1-1.7a1.77,1.77,0,0,1,.252-.94,1.646,1.646,0,0,1,.706-.633,5.518,5.518,0,0,1,1.31-.384,8.971,8.971,0,0,0,1.6-.4v-.164a.853.853,0,0,0-.234-.677,1.4,1.4,0,0,0-.885-.2,1.178,1.178,0,0,0-.686.173A1.2,1.2,0,0,0,20.766-4.324Zm2.2,1.336a10.292,10.292,0,0,1-1,.252,3.018,3.018,0,0,0-.9.287.687.687,0,0,0-.322.58.808.808,0,0,0,.258.6.9.9,0,0,0,.656.252,1.426,1.426,0,0,0,.85-.293,1.031,1.031,0,0,0,.393-.545,3.251,3.251,0,0,0,.064-.8ZM31.869,0H30.223V-3.176a4.908,4.908,0,0,0-.105-1.3.914.914,0,0,0-.343-.46A.98.98,0,0,0,29.2-5.1a1.32,1.32,0,0,0-.768.234,1.181,1.181,0,0,0-.466.621,5.369,5.369,0,0,0-.126,1.43V0H26.2V-6.223h1.529v.914a2.492,2.492,0,0,1,2.051-1.055,2.47,2.47,0,0,1,1,.2,1.669,1.669,0,0,1,.683.5,1.815,1.815,0,0,1,.322.691,5.143,5.143,0,0,1,.091,1.107Zm7.1-4.383-1.623.293a1.178,1.178,0,0,0-.372-.732,1.124,1.124,0,0,0-.753-.246,1.23,1.23,0,0,0-.981.425,2.177,2.177,0,0,0-.366,1.421,2.518,2.518,0,0,0,.372,1.564,1.222,1.222,0,0,0,1,.457,1.11,1.11,0,0,0,.768-.267,1.6,1.6,0,0,0,.422-.917l1.617.275A2.87,2.87,0,0,1,38.08-.428a2.993,2.993,0,0,1-1.916.568,2.849,2.849,0,0,1-2.177-.861,3.339,3.339,0,0,1-.812-2.385,3.347,3.347,0,0,1,.814-2.4,2.893,2.893,0,0,1,2.2-.858A3.006,3.006,0,0,1,38-5.874,2.711,2.711,0,0,1,38.965-4.383Zm4.852,2.4,1.641.275a2.691,2.691,0,0,1-1,1.374A2.935,2.935,0,0,1,42.75.141a2.784,2.784,0,0,1-2.4-1.061,3.563,3.563,0,0,1-.615-2.145,3.436,3.436,0,0,1,.809-2.423,2.663,2.663,0,0,1,2.045-.876,2.762,2.762,0,0,1,2.191.917,4.057,4.057,0,0,1,.768,2.81H41.42a1.666,1.666,0,0,0,.4,1.14,1.246,1.246,0,0,0,.949.407,1.008,1.008,0,0,0,.65-.211A1.3,1.3,0,0,0,43.816-1.98Zm.094-1.664a1.585,1.585,0,0,0-.369-1.087,1.133,1.133,0,0,0-.855-.372,1.144,1.144,0,0,0-.891.393,1.519,1.519,0,0,0-.346,1.066ZM55.928,0H54.4V-.914a2.471,2.471,0,0,1-.9.794,2.308,2.308,0,0,1-1.046.261,2.37,2.37,0,0,1-1.837-.864,3.516,3.516,0,0,1-.765-2.411A3.474,3.474,0,0,1,50.6-5.54a2.426,2.426,0,0,1,1.881-.823,2.33,2.33,0,0,1,1.8.867V-8.59h1.646ZM51.533-3.246A2.849,2.849,0,0,0,51.809-1.8a1.244,1.244,0,0,0,1.113.645,1.212,1.212,0,0,0,.967-.483,2.231,2.231,0,0,0,.4-1.444A2.442,2.442,0,0,0,53.9-4.632a1.224,1.224,0,0,0-.99-.472,1.237,1.237,0,0,0-.981.466A2.1,2.1,0,0,0,51.533-3.246ZM61.154-1.98l1.641.275a2.691,2.691,0,0,1-1,1.374,2.935,2.935,0,0,1-1.708.472,2.784,2.784,0,0,1-2.4-1.061,3.563,3.563,0,0,1-.615-2.145,3.436,3.436,0,0,1,.809-2.423,2.663,2.663,0,0,1,2.045-.876,2.762,2.762,0,0,1,2.191.917,4.057,4.057,0,0,1,.768,2.81H58.758a1.666,1.666,0,0,0,.4,1.14,1.246,1.246,0,0,0,.949.407,1.008,1.008,0,0,0,.65-.211A1.3,1.3,0,0,0,61.154-1.98Zm.094-1.664a1.585,1.585,0,0,0-.369-1.087,1.133,1.133,0,0,0-.855-.372,1.144,1.144,0,0,0-.891.393,1.519,1.519,0,0,0-.346,1.066Zm6.264-2.578h1.535v.914a2.3,2.3,0,0,1,.809-.762,2.229,2.229,0,0,1,1.131-.293,2.372,2.372,0,0,1,1.84.85,3.439,3.439,0,0,1,.756,2.367A3.543,3.543,0,0,1,72.82-.724a2.373,2.373,0,0,1-1.846.864,2.1,2.1,0,0,1-.935-.205,3.15,3.15,0,0,1-.882-.7V2.367H67.512Zm1.629,3.006a2.4,2.4,0,0,0,.416,1.55,1.273,1.273,0,0,0,1.014.5,1.19,1.19,0,0,0,.955-.46,2.37,2.37,0,0,0,.381-1.509,2.249,2.249,0,0,0-.393-1.453,1.214,1.214,0,0,0-.973-.475,1.263,1.263,0,0,0-1,.466A2.073,2.073,0,0,0,69.141-3.217ZM76.465,0H74.818V-6.223h1.529v.885a2.659,2.659,0,0,1,.706-.826,1.3,1.3,0,0,1,.712-.2,2.09,2.09,0,0,1,1.084.311l-.51,1.436a1.445,1.445,0,0,0-.773-.27.914.914,0,0,0-.586.19,1.3,1.3,0,0,0-.378.688,9.781,9.781,0,0,0-.138,2.086Zm7.189,0V-.932a2.4,2.4,0,0,1-.894.785,2.5,2.5,0,0,1-1.169.287,2.286,2.286,0,0,1-1.125-.275,1.626,1.626,0,0,1-.721-.773,3.451,3.451,0,0,1-.223-1.377V-6.223H81.17v2.859a7.929,7.929,0,0,0,.091,1.608.877.877,0,0,0,.331.469,1.017,1.017,0,0,0,.609.173,1.3,1.3,0,0,0,.756-.231,1.177,1.177,0,0,0,.457-.574A6.665,6.665,0,0,0,83.537-3.6V-6.223h1.646V0Zm6.838-1.98,1.641.275a2.691,2.691,0,0,1-1,1.374,2.935,2.935,0,0,1-1.708.472,2.784,2.784,0,0,1-2.4-1.061,3.563,3.563,0,0,1-.615-2.145,3.436,3.436,0,0,1,.809-2.423,2.663,2.663,0,0,1,2.045-.876,2.762,2.762,0,0,1,2.191.917,4.057,4.057,0,0,1,.768,2.81H88.1a1.666,1.666,0,0,0,.4,1.14,1.246,1.246,0,0,0,.949.407,1.008,1.008,0,0,0,.65-.211A1.3,1.3,0,0,0,90.492-1.98Zm.094-1.664a1.585,1.585,0,0,0-.369-1.087,1.133,1.133,0,0,0-.855-.372,1.144,1.144,0,0,0-.891.393,1.519,1.519,0,0,0-.346,1.066ZM93.492,0V-8.59h1.646V-5.5a2.33,2.33,0,0,1,1.8-.867,2.426,2.426,0,0,1,1.881.823,3.409,3.409,0,0,1,.744,2.364A3.6,3.6,0,0,1,98.81-.721a2.368,2.368,0,0,1-1.843.861,2.278,2.278,0,0,1-1.052-.267,2.515,2.515,0,0,1-.894-.788V0Zm1.635-3.246a2.646,2.646,0,0,0,.3,1.43,1.3,1.3,0,0,0,1.137.656,1.165,1.165,0,0,0,.929-.466,2.292,2.292,0,0,0,.384-1.468,2.43,2.43,0,0,0-.387-1.538A1.224,1.224,0,0,0,96.5-5.1a1.241,1.241,0,0,0-.984.46A2.112,2.112,0,0,0,95.127-3.246Zm7-1.078-1.494-.27A2.327,2.327,0,0,1,101.5-5.93a3.173,3.173,0,0,1,1.828-.434,3.94,3.94,0,0,1,1.641.261,1.636,1.636,0,0,1,.759.662,3.4,3.4,0,0,1,.22,1.474l-.018,1.922A6.672,6.672,0,0,0,106-.835a3.532,3.532,0,0,0,.3.835h-1.629q-.064-.164-.158-.486-.041-.146-.059-.193a2.968,2.968,0,0,1-.9.615,2.584,2.584,0,0,1-1.025.205,2.12,2.12,0,0,1-1.515-.521,1.733,1.733,0,0,1-.554-1.318,1.77,1.77,0,0,1,.252-.94,1.646,1.646,0,0,1,.706-.633,5.518,5.518,0,0,1,1.31-.384,8.971,8.971,0,0,0,1.6-.4v-.164a.853.853,0,0,0-.234-.677,1.4,1.4,0,0,0-.885-.2,1.178,1.178,0,0,0-.686.173A1.2,1.2,0,0,0,102.123-4.324Zm2.2,1.336a10.292,10.292,0,0,1-1,.252,3.018,3.018,0,0,0-.9.287.687.687,0,0,0-.322.58.808.808,0,0,0,.258.6.9.9,0,0,0,.656.252,1.426,1.426,0,0,0,.85-.293,1.031,1.031,0,0,0,.393-.545,3.251,3.251,0,0,0,.064-.8Zm7.8-1.336-1.494-.27A2.327,2.327,0,0,1,111.5-5.93a3.173,3.173,0,0,1,1.828-.434,3.94,3.94,0,0,1,1.641.261,1.636,1.636,0,0,1,.759.662,3.4,3.4,0,0,1,.22,1.474l-.018,1.922a6.672,6.672,0,0,0,.079,1.21,3.532,3.532,0,0,0,.3.835H114.68q-.064-.164-.158-.486-.041-.146-.059-.193a2.968,2.968,0,0,1-.9.615,2.584,2.584,0,0,1-1.025.205,2.12,2.12,0,0,1-1.515-.521,1.733,1.733,0,0,1-.554-1.318,1.77,1.77,0,0,1,.252-.94,1.646,1.646,0,0,1,.706-.633,5.518,5.518,0,0,1,1.31-.384,8.971,8.971,0,0,0,1.6-.4v-.164A.853.853,0,0,0,114.1-4.9a1.4,1.4,0,0,0-.885-.2,1.178,1.178,0,0,0-.686.173A1.2,1.2,0,0,0,112.131-4.324Zm2.2,1.336a10.292,10.292,0,0,1-1,.252,3.018,3.018,0,0,0-.9.287.687.687,0,0,0-.322.58.808.808,0,0,0,.258.6.9.9,0,0,0,.656.252,1.426,1.426,0,0,0,.85-.293,1.031,1.031,0,0,0,.393-.545,3.251,3.251,0,0,0,.064-.8Zm3.205-4.078V-8.59h1.646v1.523Zm1.646.844V-.193a6.25,6.25,0,0,1-.155,1.679,1.361,1.361,0,0,1-.6.765,2.1,2.1,0,0,1-1.128.275,3.482,3.482,0,0,1-.53-.044,5.813,5.813,0,0,1-.612-.132l.287-1.406q.117.023.22.038a1.352,1.352,0,0,0,.19.015.726.726,0,0,0,.413-.108.522.522,0,0,0,.214-.261,4.269,4.269,0,0,0,.053-.914V-6.223ZM125,0V-.932a2.4,2.4,0,0,1-.894.785,2.5,2.5,0,0,1-1.169.287,2.286,2.286,0,0,1-1.125-.275,1.626,1.626,0,0,1-.721-.773,3.451,3.451,0,0,1-.223-1.377V-6.223h1.646v2.859a7.929,7.929,0,0,0,.091,1.608.877.877,0,0,0,.331.469,1.017,1.017,0,0,0,.609.173,1.3,1.3,0,0,0,.756-.231,1.177,1.177,0,0,0,.457-.574,6.665,6.665,0,0,0,.123-1.679V-6.223h1.646V0Zm2.654-1.775,1.652-.252a1.211,1.211,0,0,0,.428.729,1.445,1.445,0,0,0,.9.249,1.629,1.629,0,0,0,.961-.234.523.523,0,0,0,.217-.439.432.432,0,0,0-.117-.311,1.312,1.312,0,0,0-.551-.217,8.882,8.882,0,0,1-2.525-.8,1.6,1.6,0,0,1-.738-1.4,1.726,1.726,0,0,1,.639-1.359,2.982,2.982,0,0,1,1.98-.551,3.455,3.455,0,0,1,1.9.416,2.126,2.126,0,0,1,.855,1.23l-1.553.287a.96.96,0,0,0-.378-.557,1.382,1.382,0,0,0-.794-.193A1.789,1.789,0,0,0,129.6-5a.39.39,0,0,0-.187.334.364.364,0,0,0,.164.3,6.177,6.177,0,0,0,1.538.463,4.579,4.579,0,0,1,1.837.732,1.522,1.522,0,0,1,.516,1.225,1.88,1.88,0,0,1-.715,1.471,3.164,3.164,0,0,1-2.115.615,3.471,3.471,0,0,1-2.013-.516A2.376,2.376,0,0,1,127.658-1.775Zm10.107-4.447V-4.91h-1.125V-2.4a6.237,6.237,0,0,0,.032.888.362.362,0,0,0,.146.208.465.465,0,0,0,.278.082,2.13,2.13,0,0,0,.662-.158L137.9-.105a3.273,3.273,0,0,1-1.3.246,2.063,2.063,0,0,1-.8-.149,1.172,1.172,0,0,1-.524-.387,1.526,1.526,0,0,1-.231-.642,7.981,7.981,0,0,1-.053-1.16V-4.91h-.756V-6.223h.756V-7.459l1.652-.961v2.2Zm2.373,1.9-1.494-.27a2.327,2.327,0,0,1,.867-1.336,3.173,3.173,0,0,1,1.828-.434,3.94,3.94,0,0,1,1.641.261,1.636,1.636,0,0,1,.759.662,3.4,3.4,0,0,1,.22,1.474l-.018,1.922a6.672,6.672,0,0,0,.079,1.21,3.532,3.532,0,0,0,.3.835h-1.629q-.064-.164-.158-.486-.041-.146-.059-.193a2.968,2.968,0,0,1-.9.615,2.584,2.584,0,0,1-1.025.205,2.12,2.12,0,0,1-1.515-.521,1.733,1.733,0,0,1-.554-1.318,1.77,1.77,0,0,1,.252-.94,1.646,1.646,0,0,1,.706-.633,5.518,5.518,0,0,1,1.31-.384,8.971,8.971,0,0,0,1.6-.4v-.164a.853.853,0,0,0-.234-.677,1.4,1.4,0,0,0-.885-.2,1.178,1.178,0,0,0-.686.173A1.2,1.2,0,0,0,140.139-4.324Zm2.2,1.336a10.292,10.292,0,0,1-1,.252,3.018,3.018,0,0,0-.9.287.687.687,0,0,0-.322.58.808.808,0,0,0,.258.6.9.9,0,0,0,.656.252,1.426,1.426,0,0,0,.85-.293,1.031,1.031,0,0,0,.393-.545,3.251,3.251,0,0,0,.064-.8ZM151.289,0H149.76V-.914a2.471,2.471,0,0,1-.9.794,2.308,2.308,0,0,1-1.046.261,2.37,2.37,0,0,1-1.837-.864,3.516,3.516,0,0,1-.765-2.411,3.474,3.474,0,0,1,.744-2.405,2.426,2.426,0,0,1,1.881-.823,2.33,2.33,0,0,1,1.8.867V-8.59h1.646Zm-4.395-3.246A2.849,2.849,0,0,0,147.17-1.8a1.244,1.244,0,0,0,1.113.645,1.212,1.212,0,0,0,.967-.483,2.231,2.231,0,0,0,.4-1.444,2.442,2.442,0,0,0-.387-1.544,1.224,1.224,0,0,0-.99-.472,1.237,1.237,0,0,0-.981.466A2.1,2.1,0,0,0,146.895-3.246Zm5.637.047a3.366,3.366,0,0,1,.4-1.588,2.775,2.775,0,0,1,1.146-1.172,3.4,3.4,0,0,1,1.655-.4,3.107,3.107,0,0,1,2.314.917,3.168,3.168,0,0,1,.9,2.317,3.206,3.206,0,0,1-.911,2.341,3.08,3.08,0,0,1-2.294.929,3.613,3.613,0,0,1-1.632-.387,2.653,2.653,0,0,1-1.181-1.134A3.778,3.778,0,0,1,152.531-3.2Zm1.688.088a2.062,2.062,0,0,0,.439,1.418,1.4,1.4,0,0,0,1.084.492,1.387,1.387,0,0,0,1.081-.492,2.09,2.09,0,0,0,.437-1.43,2.052,2.052,0,0,0-.437-1.406,1.387,1.387,0,0,0-1.081-.492,1.4,1.4,0,0,0-1.084.492A2.062,2.062,0,0,0,154.219-3.111Z" transform="translate(-2625.586 -11018.873)" fill="#409165"/>
    <path id="Trazado_143773" data-name="Trazado 143773" d="M-196.285,0H301.4" transform="translate(-2712.456 -11005.326)" fill="none" stroke="#9d9d9d" stroke-width="1"/>
    <rect id="Rectángulo_33974" data-name="Rectángulo 33974" width="1.915" height="12.563" transform="translate(-2440.936 -11022.241) rotate(-90)" fill="#606060"/>
    <rect id="Rectángulo_33975" data-name="Rectángulo 33975" width="1.915" height="12.563" transform="translate(-2435.613 -11029.479)" fill="#606060"/>
    <path id="Trazado_143772" data-name="Trazado 143772" d="M-7305.291-1424.722h251.432" transform="translate(4396.55 -9612.299)" fill="none" stroke="#9d9d9d" stroke-width="2"/>
  </g>
</svg>
