<svg xmlns="http://www.w3.org/2000/svg" width="402" height="958.465" viewBox="0 0 402 958.465">
  <g id="img34" transform="translate(-178 -4361)">
    <g id="Grupo_78340" data-name="Grupo 78340" transform="translate(180 4361)">
      <rect id="Rectángulo_33826" data-name="Rectángulo 33826" width="400" height="875" fill="#c8c9d1" opacity="0.304"/>
    </g>
    <g id="Grupo_78671" data-name="Grupo 78671" transform="translate(178 4364)">
      <g id="Grupo_63547" data-name="Grupo 63547" transform="translate(326.51 11.629)">
        <path id="Trazado_140333" data-name="Trazado 140333" d="M2437.22,4188l-64.45-.626,1.8,83.979,64.431.234Z" transform="translate(-2372.77 -4187.37)" fill="#839eb6"/>
        <path id="Trazado_140334" data-name="Trazado 140334" d="M2433.329,4191.946l-56.409-1.466,1.634,76.162,56.391.7Z" transform="translate(-2373.044 -4187.576)" fill="#fafafa"/>
        <path id="Trazado_140335" data-name="Trazado 140335" d="M2424.363,4204.186l-37.423-.625,1.139,53.243,37.395-.8Z" transform="translate(-2373.706 -4188.44)" fill="#aed3f2"/>
        <path id="Trazado_140336" data-name="Trazado 140336" d="M2388.079,4256.8l36.806-28.148-37.946-25.095Z" transform="translate(-2373.706 -4188.44)" fill="#aed3f2"/>
      </g>
      <g id="Grupo_63546" data-name="Grupo 63546" transform="translate(11.571 363.222)">
        <path id="Trazado_140329" data-name="Trazado 140329" d="M2098.133,4241.41l-73.453-.709,2.045,95.728,73.453.271Z" transform="translate(-2024.68 -4240.7)" fill="#839eb6"/>
        <path id="Trazado_140330" data-name="Trazado 140330" d="M2093.711,4245.922l-64.3-1.672,1.859,86.818,64.282.794Z" transform="translate(-2024.993 -4240.935)" fill="#fafafa"/>
        <path id="Trazado_140331" data-name="Trazado 140331" d="M2083.491,4259.87l-42.671-.709,1.308,60.687,42.624-.915Z" transform="translate(-2025.746 -4241.92)" fill="#aed3f2"/>
        <path id="Trazado_140332" data-name="Trazado 140332" d="M2042.128,4319.847l41.952-32.09-43.259-28.6Z" transform="translate(-2025.746 -4241.92)" fill="#aed3f2"/>
      </g>
      <g id="Grupo_78675" data-name="Grupo 78675" transform="translate(5378.749 7427.811)">
        <rect id="Rectángulo_15048" data-name="Rectángulo 15048" width="254.912" height="349.293" transform="matrix(0.998, 0.07, -0.07, 0.998, -5287.402, -7339.512)" fill="#5e6178"/>
        <path id="Trazado_140358" data-name="Trazado 140358" d="M223.6,314.406H0V0H223.6V314.406Z" transform="matrix(0.998, 0.07, -0.07, 0.998, -5267.206, -7323.947)" fill="#839eb6"/>
        <path id="Trazado_140359" data-name="Trazado 140359" d="M221.59,312.723H0V0H221.59V312.723Z" transform="matrix(0.998, 0.07, -0.07, 0.998, -5268.436, -7328.197)" fill="#aed3f2"/>
        <g id="Grupo_63552" data-name="Grupo 63552" transform="matrix(0.998, 0.07, -0.07, 0.998, -5272.753, -7327.94)">
          <path id="Trazado_140360" data-name="Trazado 140360" d="M201.913,287.6l-25.522,20.781H0V0H223.609V270.016Z" transform="translate(0.158 0.231)" fill="#fafafa"/>
          <path id="Trazado_140361" data-name="Trazado 140361" d="M202.071,287.833l1.367-1.135,4.089-3.343,16.177-13.17v.073c0-44.358-.084-142.954-.157-270.015l.242.241H.189L.463.211c0,115.93,0,222.841-.063,308.372l-.21-.21,176.392.126h-.063l19.173-15.558,4.8-3.878c1.051-.862,1.608-1.283,1.608-1.283s-.526.453-1.577,1.324l-4.772,3.921-19.142,15.62h0L.221,308.772H0V0H224.124V.252c-.073,127.1-.137,225.658-.158,270.016h0l-16.387,13.15-4.12,3.312C202.544,287.476,202.071,287.833,202.071,287.833Z" fill="#344154"/>
        </g>
        <path id="Trazado_140362" data-name="Trazado 140362" d="M15.515,0H76.639A14.873,14.873,0,0,1,91.512,14.873V31.366H0V15.5A15.514,15.514,0,0,1,15.515,0Z" transform="matrix(0.998, 0.07, -0.07, 0.998, -5205.132, -7344.581)" fill="#d9a171"/>
        <path id="Trazado_140363" data-name="Trazado 140363" d="M3.343,16.924,0,0H52.683L49.761,16.924Z" transform="matrix(0.998, 0.07, -0.07, 0.998, -5184.941, -7360.133)" fill="#d9a171"/>
        <g id="Grupo_63553" data-name="Grupo 63553" transform="matrix(0.998, 0.07, -0.07, 0.998, -5252.493, -7280.126)">
          <path id="Trazado_140364" data-name="Trazado 140364" d="M37.662,37.673H0V0H37.662ZM1.051,36.621h35.56V1.051H1.051Z" transform="translate(0 3.088)" fill="#d9a171"/>
          <path id="Trazado_140365" data-name="Trazado 140365" d="M117.128.273c0,.158-26.278.274-58.569.274S0,.431,0,.273,26.215,0,58.559,0,117.128.116,117.128.273Z" transform="translate(53.661 11.917)" fill="#344154"/>
          <path id="Trazado_140366" data-name="Trazado 140366" d="M117.128.273c0,.147-26.278.273-58.569.273S0,.42,0,.273,26.215,0,58.559,0,117.128.115,117.128.273Z" transform="translate(53.661 19.738)" fill="#344154"/>
          <path id="Trazado_140367" data-name="Trazado 140367" d="M117.128.273c0,.147-26.278.273-58.569.273S0,.42,0,.273,26.215,0,58.559,0,117.128.116,117.128.273Z" transform="translate(53.661 27.569)" fill="#344154"/>
          <path id="Trazado_140368" data-name="Trazado 140368" d="M117.128.273c0,.158-26.278.273-58.569.273S0,.431,0,.273,26.215,0,58.559,0,117.128.126,117.128.273Z" transform="translate(53.661 35.389)" fill="#344154"/>
          <path id="Trazado_143552" data-name="Trazado 143552" d="M0,17.229l5-5.371,8.335,6.664L32.417,0l4.572,5.393L12.971,29.086Z" transform="matrix(0.956, 0.292, -0.292, 0.956, 13.562, 0)" fill="#d9a171"/>
        </g>
        <g id="Grupo_63554" data-name="Grupo 63554" transform="matrix(0.998, 0.07, -0.07, 0.998, -5256.758, -7219.133)">
          <path id="Trazado_140369" data-name="Trazado 140369" d="M37.662,37.673H0V0H37.662ZM1.051,36.622h35.56V1.051H1.051Z" fill="#d9a171"/>
          <path id="Trazado_140370" data-name="Trazado 140370" d="M0,17.218l5-5.371,8.335,6.675L32.417,0l4.572,5.382L12.971,29.075Z" transform="translate(7.484 2.385)" fill="#d9a171"/>
          <path id="Trazado_140371" data-name="Trazado 140371" d="M117.128.273c0,.157-26.278.272-58.569.272S0,.43,0,.273,26.215,0,58.559,0,117.128.126,117.128.273Z" transform="translate(53.661 8.819)" fill="#344154"/>
          <path id="Trazado_140372" data-name="Trazado 140372" d="M117.128.273c0,.158-26.278.273-58.569.273S0,.431,0,.273,26.215,0,58.559,0,117.128.125,117.128.273Z" transform="translate(53.661 16.65)" fill="#344154"/>
          <path id="Trazado_140373" data-name="Trazado 140373" d="M117.128.273c0,.147-26.278.273-58.569.273S0,.42,0,.273,26.215,0,58.559,0,117.128.147,117.128.273Z" transform="translate(53.661 24.481)" fill="#344154"/>
          <path id="Trazado_140374" data-name="Trazado 140374" d="M117.128.273c0,.147-26.278.273-58.569.273S0,.42,0,.273,26.215,0,58.559,0,117.128.116,117.128.273Z" transform="translate(53.661 32.311)" fill="#344154"/>
        </g>
        <g id="Grupo_63555" data-name="Grupo 63555" transform="matrix(0.998, 0.07, -0.07, 0.998, -5260.676, -7163.107)">
          <path id="Trazado_140375" data-name="Trazado 140375" d="M37.662,37.694H0V0H37.662ZM1.051,36.643h35.56V1.051H1.051Z" transform="translate(0 0)" fill="#d9a171"/>
          <path id="Trazado_140376" data-name="Trazado 140376" d="M0,17.228l5-5.37,8.335,6.674L32.417,0l4.572,5.392L12.971,29.085Z" transform="translate(15.299 0.056)" fill="#d9a171"/>
          <path id="Trazado_140377" data-name="Trazado 140377" d="M117.128.273c0,.158-26.278.273-58.569.273S0,.431,0,.273,26.215,0,58.559,0,117.128.126,117.128.273Z" transform="translate(53.661 8.84)" fill="#344154"/>
          <path id="Trazado_140378" data-name="Trazado 140378" d="M117.128.273c0,.147-26.278.273-58.569.273S0,.42,0,.273,26.215,0,58.559,0,117.128.147,117.128.273Z" transform="translate(53.661 16.672)" fill="#344154"/>
          <path id="Trazado_140379" data-name="Trazado 140379" d="M117.128.273c0,.147-26.278.273-58.569.273S0,.42,0,.273,26.215,0,58.559,0,117.128.116,117.128.273Z" transform="translate(53.661 24.502)" fill="#344154"/>
          <path id="Trazado_140380" data-name="Trazado 140380" d="M117.128.273c0,.157-26.278.273-58.569.273S0,.43,0,.273,26.215,0,58.559,0,117.128.136,117.128.273Z" transform="translate(53.661 32.312)" fill="#344154"/>
        </g>
        <g id="Grupo_63556" data-name="Grupo 63556" transform="matrix(0.998, 0.07, -0.07, 0.998, -5264.461, -7108.979)">
          <path id="Trazado_140381" data-name="Trazado 140381" d="M37.662,37.673H0V0H37.662ZM1.051,36.621h35.56V1.051H1.051Z" fill="#d9a171"/>
          <path id="Trazado_140382" data-name="Trazado 140382" d="M0,17.229l5-5.371,8.335,6.664L32.417,0l4.572,5.393L12.971,29.086Z" transform="translate(7.484 2.385)" fill="#d9a171"/>
          <path id="Trazado_140383" data-name="Trazado 140383" d="M117.128.273c0,.147-26.278.272-58.569.272S0,.42,0,.273,26.215,0,58.559,0,117.128.115,117.128.273Z" transform="translate(53.661 8.829)" fill="#344154"/>
          <path id="Trazado_140384" data-name="Trazado 140384" d="M117.128.273c0,.147-26.278.273-58.569.273S0,.42,0,.273,26.215,0,58.559,0,117.128.116,117.128.273Z" transform="translate(53.661 16.66)" fill="#344154"/>
          <path id="Trazado_140385" data-name="Trazado 140385" d="M117.128.272c0,.157-26.278.273-58.569.273S0,.43,0,.272,26.215,0,58.559,0,117.128.094,117.128.272Z" transform="translate(53.661 24.481)" fill="#344154"/>
          <path id="Trazado_140386" data-name="Trazado 140386" d="M117.128.273c0,.147-26.278.273-58.569.273S0,.419,0,.273,26.215,0,58.559,0,117.128.125,117.128.273Z" transform="translate(53.661 32.312)" fill="#344154"/>
        </g>
        <path id="Trazado_140387" data-name="Trazado 140387" d="M24.513,0,0,50.77H17.5Z" transform="matrix(0.998, 0.07, -0.07, 0.998, -5132.059, -7059.913)" fill="#839eb6"/>
        <g id="Grupo_63557" data-name="Grupo 63557" transform="matrix(0.998, 0.07, -0.07, 0.998, -5114.623, -7058.714)">
          <path id="Trazado_140388" data-name="Trazado 140388" d="M0,50.77,7.011,0,47.217,12.4Z" transform="translate(0.024 0.305)" fill="#fafafa"/>
          <path id="Trazado_140389" data-name="Trazado 140389" d="M.024,51.106,13.541,39.985,47.062,12.54l.095.462L31.631,8.22,6.961.589l.326-.21C5.185,15.095,3.387,27.76,2.1,36.737.844,45.461.192,49.971,0,51.106c0-.073,0-.147,0-.221l.094-.7c.084-.652.2-1.577.357-2.764.326-2.46.788-6.013,1.377-10.459C3.051,27.9,4.754,15.167,6.74.3V0l.284.095,24.691,7.6L47.23,12.487l.484.147-.389.315L13.394,40.279,3.482,48.247l-2.649,2.1c-.273.231-.5.4-.673.536S.024,51.106.024,51.106Z" fill="#344154"/>
        </g>
        <g id="Grupo_78677" data-name="Grupo 78677" transform="translate(-5316.337 -7022.403)">
          <g id="Grupo_78676" data-name="Grupo 78676" transform="matrix(0.978, -0.208, 0.208, 0.978, 0, 46.598)">
            <path id="Trazado_140360-2" data-name="Trazado 140360" d="M201.913,287.6l-25.522,20.781H0V0H223.609V270.016Z" transform="translate(0.158 0.231)" fill="#fafafa"/>
            <path id="Trazado_140361-2" data-name="Trazado 140361" d="M202.071,287.833l1.367-1.135,4.089-3.343,16.177-13.17v.073c0-44.358-.084-142.954-.157-270.015l.242.241H.189L.463.211c0,115.93,0,222.841-.063,308.372l-.21-.21,176.392.126h-.063l19.173-15.558,4.8-3.878c1.051-.862,1.608-1.283,1.608-1.283s-.526.453-1.577,1.324l-4.772,3.921-19.142,15.62h0L.221,308.772H0V0H224.124V.252c-.073,127.1-.137,225.658-.158,270.016h0l-16.387,13.15-4.12,3.312C202.544,287.476,202.071,287.833,202.071,287.833Z" fill="#344154"/>
          </g>
          <path id="Trazado_143551" data-name="Trazado 143551" d="M24.513,0,0,50.77H17.5Z" transform="matrix(0.978, -0.208, 0.208, 0.978, 209.122, 265.463)" fill="#839eb6"/>
          <g id="Grupo_78683" data-name="Grupo 78683" transform="matrix(0.978, -0.208, 0.208, 0.978, 226.214, 261.808)">
            <path id="Trazado_140388-2" data-name="Trazado 140388" d="M0,50.77,7.011,0,47.217,12.4Z" transform="translate(0.024 0.305)" fill="#fafafa"/>
            <path id="Trazado_140389-2" data-name="Trazado 140389" d="M.024,51.106,13.541,39.985,47.062,12.54l.095.462L31.631,8.22,6.961.589l.326-.21C5.185,15.095,3.387,27.76,2.1,36.737.844,45.461.192,49.971,0,51.106c0-.073,0-.147,0-.221l.094-.7c.084-.652.2-1.577.357-2.764.326-2.46.788-6.013,1.377-10.459C3.051,27.9,4.754,15.167,6.74.3V0l.284.095,24.691,7.6L47.23,12.487l.484.147-.389.315L13.394,40.279,3.482,48.247l-2.649,2.1c-.273.231-.5.4-.673.536S.024,51.106.024,51.106Z" fill="#344154"/>
          </g>
        </g>
        <g id="Grupo_63558" data-name="Grupo 63558" transform="matrix(0.998, 0.07, -0.07, 0.998, -5138.909, -7356.915)" opacity="0.3">
          <path id="Trazado_140390" data-name="Trazado 140390" d="M2.9,0,0,16.924H3.616L6.538,0h-4.6" fill="#d9a171"/>
        </g>
        <g id="Grupo_78679" data-name="Grupo 78679" transform="matrix(0.978, -0.208, 0.208, 0.978, -5285.045, -6943.834)">
          <path id="Trazado_140369-2" data-name="Trazado 140369" d="M37.662,37.673H0V0H37.662ZM1.051,36.622h35.56V1.051H1.051Z" fill="#d9a171"/>
          <path id="Trazado_140370-2" data-name="Trazado 140370" d="M0,17.218l5-5.371,8.335,6.675L32.417,0l4.572,5.382L12.971,29.075Z" transform="translate(7.484 2.385)" fill="#d9a171"/>
          <path id="Trazado_140371-2" data-name="Trazado 140371" d="M117.128.273c0,.157-26.278.272-58.569.272S0,.43,0,.273,26.215,0,58.559,0,117.128.126,117.128.273Z" transform="translate(53.661 8.819)" fill="#344154"/>
          <path id="Trazado_140372-2" data-name="Trazado 140372" d="M117.128.273c0,.158-26.278.273-58.569.273S0,.431,0,.273,26.215,0,58.559,0,117.128.125,117.128.273Z" transform="translate(53.661 16.65)" fill="#344154"/>
          <path id="Trazado_140373-2" data-name="Trazado 140373" d="M117.128.273c0,.147-26.278.273-58.569.273S0,.42,0,.273,26.215,0,58.559,0,117.128.147,117.128.273Z" transform="translate(53.661 24.481)" fill="#344154"/>
          <path id="Trazado_140374-2" data-name="Trazado 140374" d="M117.128.273c0,.147-26.278.273-58.569.273S0,.42,0,.273,26.215,0,58.559,0,117.128.116,117.128.273Z" transform="translate(53.661 32.311)" fill="#344154"/>
        </g>
        <g id="Grupo_78678" data-name="Grupo 78678" transform="matrix(0.978, -0.208, 0.208, 0.978, -5273.368, -6888.899)">
          <path id="Trazado_140375-2" data-name="Trazado 140375" d="M37.662,37.694H0V0H37.662ZM1.051,36.643h35.56V1.051H1.051Z" transform="translate(0 0)" fill="#d9a171"/>
          <path id="Trazado_140376-2" data-name="Trazado 140376" d="M0,17.228l5-5.37,8.335,6.674L32.417,0l4.572,5.392L12.971,29.085Z" transform="translate(15.299 0.056)" fill="#d9a171"/>
          <path id="Trazado_140377-2" data-name="Trazado 140377" d="M117.128.273c0,.158-26.278.273-58.569.273S0,.431,0,.273,26.215,0,58.559,0,117.128.126,117.128.273Z" transform="translate(53.661 8.84)" fill="#344154"/>
          <path id="Trazado_140378-2" data-name="Trazado 140378" d="M117.128.273c0,.147-26.278.273-58.569.273S0,.42,0,.273,26.215,0,58.559,0,117.128.147,117.128.273Z" transform="translate(53.661 16.672)" fill="#344154"/>
          <path id="Trazado_140379-2" data-name="Trazado 140379" d="M117.128.273c0,.147-26.278.273-58.569.273S0,.42,0,.273,26.215,0,58.559,0,117.128.116,117.128.273Z" transform="translate(53.661 24.502)" fill="#344154"/>
          <path id="Trazado_140380-2" data-name="Trazado 140380" d="M117.128.273c0,.157-26.278.273-58.569.273S0,.43,0,.273,26.215,0,58.559,0,117.128.136,117.128.273Z" transform="translate(53.661 32.312)" fill="#344154"/>
        </g>
        <g id="Grupo_78680" data-name="Grupo 78680" transform="matrix(0.978, -0.208, 0.208, 0.978, -5262.087, -6835.825)">
          <path id="Trazado_140381-2" data-name="Trazado 140381" d="M37.662,37.673H0V0H37.662ZM1.051,36.621h35.56V1.051H1.051Z" fill="#d9a171"/>
          <path id="Trazado_140383-2" data-name="Trazado 140383" d="M117.128.273c0,.147-26.278.272-58.569.272S0,.42,0,.273,26.215,0,58.559,0,117.128.115,117.128.273Z" transform="translate(53.661 8.829)" fill="#344154"/>
          <path id="Trazado_140384-2" data-name="Trazado 140384" d="M117.128.273c0,.147-26.278.273-58.569.273S0,.42,0,.273,26.215,0,58.559,0,117.128.116,117.128.273Z" transform="translate(53.661 16.66)" fill="#344154"/>
          <path id="Trazado_140385-2" data-name="Trazado 140385" d="M117.128.272c0,.157-26.278.273-58.569.273S0,.43,0,.272,26.215,0,58.559,0,117.128.094,117.128.272Z" transform="translate(53.661 24.481)" fill="#344154"/>
          <path id="Trazado_140386-2" data-name="Trazado 140386" d="M117.128.273c0,.147-26.278.273-58.569.273S0,.419,0,.273,26.215,0,58.559,0,117.128.125,117.128.273Z" transform="translate(53.661 32.312)" fill="#344154"/>
        </g>
        <g id="Grupo_78681" data-name="Grupo 78681" transform="translate(-5248.025 -6783.619) rotate(-13)">
          <path id="Trazado_140364-2" data-name="Trazado 140364" d="M37.662,37.673H0V0H37.662ZM1.051,36.621h35.56V1.051H1.051Z" fill="#d9a171"/>
          <path id="Trazado_140365-2" data-name="Trazado 140365" d="M117.128.273c0,.158-26.278.274-58.569.274S0,.431,0,.273,26.215,0,58.559,0,117.128.116,117.128.273Z" transform="translate(53.661 8.829)" fill="#344154"/>
          <path id="Trazado_140366-2" data-name="Trazado 140366" d="M117.128.273c0,.147-26.278.273-58.569.273S0,.42,0,.273,26.215,0,58.559,0,117.128.115,117.128.273Z" transform="translate(53.661 16.65)" fill="#344154"/>
          <path id="Trazado_140367-2" data-name="Trazado 140367" d="M117.128.273c0,.147-26.278.273-58.569.273S0,.42,0,.273,26.215,0,58.559,0,117.128.116,117.128.273Z" transform="translate(53.661 24.481)" fill="#344154"/>
          <path id="Trazado_140368-2" data-name="Trazado 140368" d="M117.128.273c0,.158-26.278.273-58.569.273S0,.431,0,.273,26.215,0,58.559,0,117.128.126,117.128.273Z" transform="translate(53.661 32.302)" fill="#344154"/>
        </g>
        <g id="Grupo_78682" data-name="Grupo 78682" transform="translate(-5236.615 -6735.495) rotate(-13)">
          <path id="Trazado_140364-3" data-name="Trazado 140364" d="M37.662,37.673H0V0H37.662ZM1.051,36.621h35.56V1.051H1.051Z" fill="#d9a171"/>
        </g>
      </g>
      <rect id="Rectángulo_31400" data-name="Rectángulo 31400" width="400" height="955" fill="none"/>
      <g id="Grupo_63545" data-name="Grupo 63545" transform="translate(249.683 783.258)">
        <g id="Grupo_63544" data-name="Grupo 63544">
          <path id="Trazado_140317" data-name="Trazado 140317" d="M1641.11,4355.066v23.368h5.4a32.459,32.459,0,0,1,0-7.457c.513-2.8,6.375-9.862,6.2-15.958Z" transform="translate(-1637.438 -4206.339)" fill="#aed3f2"/>
          <path id="Trazado_140318" data-name="Trazado 140318" d="M1687.43,4355.066v23.368h5.4a32.459,32.459,0,0,1,0-7.457c.513-2.8,6.366-9.862,6.2-15.958Z" transform="translate(-1640.582 -4206.339)" fill="#839eb6"/>
          <path id="Trazado_140319" data-name="Trazado 140319" d="M1731.917,4355.066v23.368h-5.369a33.047,33.047,0,0,0,0-7.457c-.522-2.8-6.375-9.862-6.208-15.958Z" transform="translate(-1642.816 -4206.339)" fill="#aed3f2"/>
          <path id="Trazado_140320" data-name="Trazado 140320" d="M1772.005,4355.066v23.368h-5.4a33.018,33.018,0,0,0,0-7.457c-.512-2.8-6.375-9.862-6.2-15.958Z" transform="translate(-1645.536 -4206.339)" fill="#839eb6"/>
          <rect id="Rectángulo_15044" data-name="Rectángulo 15044" width="129.302" height="116.113" transform="translate(0 33.37)" fill="#aed3f2"/>
          <path id="Trazado_140321" data-name="Trazado 140321" d="M2109.51,4443.97l.969,116.113h33.873V4443.96Z" transform="translate(-2015.05 -4410.6)" fill="#839eb6"/>
          <rect id="Rectángulo_15045" data-name="Rectángulo 15045" width="83.014" height="29.548" transform="translate(5.816 41.908)" fill="#aed3f2"/>
          <rect id="Rectángulo_15046" data-name="Rectángulo 15046" width="83.014" height="29.548" transform="translate(5.816 77.346)" fill="#aed3f2"/>
          <rect id="Rectángulo_15047" data-name="Rectángulo 15047" width="83.014" height="29.548" transform="translate(5.816 112.776)" fill="#aed3f2"/>
          <g id="Grupo_63543" data-name="Grupo 63543" transform="translate(34.059)">
            <path id="Trazado_140322" data-name="Trazado 140322" d="M2048.289,4408.17l-3.579,33.229h45.878l3.8-33.229Z" transform="translate(-2044.71 -4408.17)" fill="#839eb6"/>
            <path id="Trazado_140323" data-name="Trazado 140323" d="M2050.317,4410.73l-3.477,29.082h41.4l3.346-29.082Z" transform="translate(-2044.854 -4408.344)" fill="#fff"/>
            <path id="Trazado_140324" data-name="Trazado 140324" d="M2057.894,4415.98l-2.144,19.295h26.127l1.342-19.295Z" transform="translate(-2045.459 -4408.7)" fill="#aed3f2"/>
          </g>
          <path id="Trazado_140325" data-name="Trazado 140325" d="M2096.092,4423.52l9.48,19.052-11.642-.131,2.162-18.921" transform="translate(-2013.992 -4409.212)" fill="#aed3f2"/>
        </g>
        <path id="Trazado_140326" data-name="Trazado 140326" d="M1690.757,4257.779a3.039,3.039,0,1,1-3.038-3.039,3.039,3.039,0,0,1,3.038,3.039Z" transform="translate(-1640.395 -4199.531)" fill="#839eb6"/>
        <path id="Trazado_140327" data-name="Trazado 140327" d="M1690.757,4296.149a3.039,3.039,0,1,1-3.038-3.038,3.039,3.039,0,0,1,3.038,3.038Z" transform="translate(-1640.395 -4202.136)" fill="#839eb6"/>
        <path id="Trazado_140328" data-name="Trazado 140328" d="M1690.757,4334.549a3.039,3.039,0,1,1-3.038-3.039,3.039,3.039,0,0,1,3.038,3.039Z" transform="translate(-1640.395 -4204.743)" fill="#839eb6"/>
      </g>
      <g id="Grupo_63548" data-name="Grupo 63548" transform="translate(103.481 872.459)">
        <path id="Trazado_140337" data-name="Trazado 140337" d="M1993.48,4313.48c-.271.822,9.339,37.357,9.339,37.357l6.594-1.373-9.068-35.984Z" transform="translate(-1993.474 -4292.841)" fill="#aed3f2"/>
        <path id="Trazado_140338" data-name="Trazado 140338" d="M2418.257,4520.55l-13.187,42.578h7.7l12.636-39.562Z" transform="translate(-2367.156 -4505.132)" fill="#aed3f2"/>
        <path id="Trazado_140339" data-name="Trazado 140339" d="M2431.061,4513.48l-15.111,49.181h7.7l14.56-46.155Z" transform="translate(-2367.875 -4504.665)" fill="#aed3f2"/>
        <path id="Trazado_140340" data-name="Trazado 140340" d="M2369.48,4562.9l7.7,26.646h38.73l7.145-26.646Z" transform="translate(-2364.805 -4507.93)" fill="#839eb6"/>
        <path id="Trazado_140341" data-name="Trazado 140341" d="M2018.506,4346.351a2.586,2.586,0,0,1-.084-.27l-.206-.813c-.177-.756-.42-1.8-.738-3.147l-2.662-11.637c-2.213-9.89-5.277-23.554-8.695-38.8l.234.187h-6.78l.233-.29c3.446,15.26,6.537,28.952,8.751,38.833,1.083,4.913,1.961,8.891,2.568,11.665.29,1.354.514,2.419.682,3.166.065.346.121.617.159.832a.927.927,0,0,1,0,.28,2.632,2.632,0,0,1-.084-.271c-.056-.206-.122-.476-.206-.813-.187-.756-.439-1.8-.766-3.147-.644-2.8-1.569-6.733-2.718-11.637-2.27-9.89-5.4-23.554-8.891-38.8l-.075-.3h7.285v.2c3.353,15.26,6.369,28.952,8.545,38.833,1.055,4.912,1.868,8.891,2.512,11.665.28,1.354.495,2.419.654,3.166l.159.832A.93.93,0,0,1,2018.506,4346.351Z" transform="translate(-1993.854 -4291.381)" fill="#839eb6"/>
      </g>
      <g id="Grupo_63576" data-name="Grupo 63576" transform="translate(7.119 587.313)">
        <g id="Grupo_63560" data-name="Grupo 63560" transform="translate(29.327 9.635)">
          <path id="Trazado_140391" data-name="Trazado 140391" d="M1740.69,4160.372h0a10.779,10.779,0,0,0,11.581-10.335c.227-5.856.431-11.784.431-11.784s8.886-.838,9.58-9.581.347-29.1.347-29.1h0a30.659,30.659,0,0,0-30.97,1.988l.539,30.958v16.646C1732.211,4154.707,1735.121,4159.94,1740.69,4160.372Z" transform="translate(-1713.084 -4080.357)" fill="#ffbf9d"/>
          <path id="Trazado_140392" data-name="Trazado 140392" d="M1754.231,4119.119a4.5,4.5,0,0,0-5.988-1.306,5.1,5.1,0,0,0-1.7,6.383,6.713,6.713,0,0,0,4.311,3.27,3.378,3.378,0,0,1,2.647,3.593,11.3,11.3,0,0,1-3.09,6.132,16.276,16.276,0,0,1-10.179,4.79c-3.748.443-8.036-.347-10.215-3.425-1.593-2.239-1.7-5.161-1.76-7.9q-.2-9.736-.407-19.46a28.372,28.372,0,0,1,.443-6.982,9.408,9.408,0,0,1,3.689-5.771c2.144-1.4,4.79-1.521,7.281-2.312,3.054-.982,5.64-3.006,8.491-4.467s6.335-2.323,9.2-.887c2.06,1.03,3.437,3.078,5.425,4.216,2.85,1.617,6.719,1.2,8.1,5.424a7.078,7.078,0,0,1,0,4.479c-1.928,5.688-8.97,7.976-14.048,5.521-.1.971.85,3.114-.168,6.156-.323.97-.431,2.455-1.952,2.479" transform="translate(-1713.847 -4081.593)" fill="#344154"/>
          <path id="Trazado_140393" data-name="Trazado 140393" d="M1732.057,4102.415a29.923,29.923,0,0,0,2.826-8.837,10.13,10.13,0,0,0-2.766-8.538,8.381,8.381,0,0,0-5.8-2.048,9.783,9.783,0,0,0-8.838,6.994,10.548,10.548,0,0,0,3.593,10.777,11.461,11.461,0,0,0,11.4,1.485" transform="translate(-1715.948 -4082.986)" fill="#344154"/>
          <path id="Trazado_140394" data-name="Trazado 140394" d="M1731.688,4096.53a4.336,4.336,0,0,1-4.168,4.072,16.072,16.072,0,0,0,2.4-1.677,18.842,18.842,0,0,0,1.773-2.394Z" transform="translate(-1713.902 -4080.31)" fill="#d9a171"/>
          <path id="Trazado_140395" data-name="Trazado 140395" d="M1730.284,4099.638a8.379,8.379,0,0,1-2.395,1.75,6.746,6.746,0,0,1-3.138.886,4.357,4.357,0,0,1-3.677-1.641,4.859,4.859,0,0,1-.647-3.976,7.709,7.709,0,0,1,1.473-2.91,8.951,8.951,0,0,1,2.084-2.1c.084,0-.695.9-1.724,2.4a7.936,7.936,0,0,0-1.27,2.779,4.38,4.38,0,0,0,.587,3.484,3.856,3.856,0,0,0,3.162,1.438,6.7,6.7,0,0,0,2.958-.707C1729.3,4100.212,1730.224,4099.542,1730.284,4099.638Z" transform="translate(-1715.337 -4081.273)" fill="#344154"/>
          <path id="Trazado_140396" data-name="Trazado 140396" d="M1716.15,4108.093a4.1,4.1,0,0,1,.419.97,9.716,9.716,0,0,0,1.305,2.5,3.593,3.593,0,0,0,3.437,1.592,4.789,4.789,0,0,0,3.317-3.341,33.682,33.682,0,0,0,.9-5.113,7.883,7.883,0,0,1,1.677-4.025,4.334,4.334,0,0,1,2.563-1.461,1.674,1.674,0,0,1,1.078.1c0,.06-.4,0-1.03.145a4.332,4.332,0,0,0-2.276,1.509,7.746,7.746,0,0,0-1.449,3.833,30.258,30.258,0,0,1-.874,5.22,5.246,5.246,0,0,1-3.8,3.7,3.515,3.515,0,0,1-2.4-.467,4.77,4.77,0,0,1-1.509-1.425,8.726,8.726,0,0,1-1.2-2.695,2.725,2.725,0,0,1-.168-1.041Z" transform="translate(-1716.148 -4079.788)" fill="#344154"/>
        </g>
        <path id="Trazado_140397" data-name="Trazado 140397" d="M1712.869,4168.318s-4.491,32.837,0,37.005,8.79,2.778,8.79,2.778l8.539-7.186,1.676-32.646Z" transform="translate(-1687.864 -4056.5)" fill="#ffbf9d"/>
        <g id="Grupo_63561" data-name="Grupo 63561" transform="translate(95.938)">
          <path id="Trazado_140398" data-name="Trazado 140398" d="M2160.99,4307.229l5.7-6.12,9.5,7.6,21.736-21.113,5.209,6.144-27.365,26.993Z" transform="translate(-2139.17 -4287.601)" fill="#d9a171"/>
          <path id="Trazado_140399" data-name="Trazado 140399" d="M1820.368,4092.732l-8.263,5.294c-.371-3.258-2.862-6.5-2.742-4.863s0,10.156,0,10.156l-14.743,31.007c-2,4.922-6.06,8-9.089,8.729l-13.76,4.1,5.377,18.179,19.161-6.335a16.516,16.516,0,0,0,10.479-10.5l13.173-40.154a61.914,61.914,0,0,0,2.132-7.9C1822.643,4097.079,1820.368,4092.732,1820.368,4092.732Z" transform="translate(-1771.77 -4071.425)" fill="#ffbf9d"/>
        </g>
        <g id="Grupo_63565" data-name="Grupo 63565" transform="translate(59.304 351.226)">
          <g id="Grupo_63563" data-name="Grupo 63563" transform="translate(0.096)">
            <path id="Trazado_140400" data-name="Trazado 140400" d="M1758.7,4377.418l-.215-9.2-17.221.276.156,13.461h1.078c4.79.191,24.2.623,27.365-.4C1773.379,4380.483,1758.7,4377.418,1758.7,4377.418Z" transform="translate(-1741.26 -4368.22)" fill="#d9a171"/>
            <g id="Grupo_63562" data-name="Grupo 63562" transform="translate(0.096 8.688)" opacity="0.5">
              <path id="Trazado_140401" data-name="Trazado 140401" d="M1747.651,4380.284a5.99,5.99,0,0,0-2.263-3.593,5.849,5.849,0,0,0-4.048-1.2l.072,4.79Z" transform="translate(-1741.34 -4375.474)" fill="#fff"/>
            </g>
          </g>
          <g id="Grupo_63564" data-name="Grupo 63564" transform="translate(0.252 10.946)" opacity="0.4">
            <path id="Trazado_140402" data-name="Trazado 140402" d="M1765.845,4377.36s5.15,1.4,4.527,2.252-20.287,1.2-28.981.539v-.383l22.946-.168S1764.874,4377.42,1765.845,4377.36Z" transform="translate(-1741.39 -4377.36)" fill="#fff"/>
          </g>
          <path id="Trazado_140403" data-name="Trazado 140403" d="M1741.18,4379.441a1.614,1.614,0,0,0,.3,0h.85l3.138.083c2.647,0,6.3.084,10.335,0s7.7-.191,10.335-.323l3.138-.18.85-.072a.889.889,0,0,0,.288,0h-1.15l-3.126.107c-2.647.1-6.3.2-10.335.264s-7.688.06-10.335,0h-4.287Z" transform="translate(-1741.18 -4366.1)" fill="#344154"/>
          <path id="Trazado_140404" data-name="Trazado 140404" d="M1760.572,4379.906a6.433,6.433,0,0,1,.563-1.508,6.718,6.718,0,0,1,1.042-1.2,2.287,2.287,0,0,0-1.2,1.1A2.4,2.4,0,0,0,1760.572,4379.906Z" transform="translate(-1737.351 -4366.446)" fill="#344154"/>
          <path id="Trazado_140405" data-name="Trazado 140405" d="M1756.292,4377.61a3.483,3.483,0,0,0,.539-.671c.252-.407.4-.743.347-.779s-.287.275-.527.671S1756.243,4377.586,1756.292,4377.61Z" transform="translate(-1738.196 -4366.651)" fill="#344154"/>
          <path id="Trazado_140406" data-name="Trazado 140406" d="M1755.121,4376.934a2.944,2.944,0,0,0,.6-.407c.3-.263.491-.526.455-.574s-.311.144-.6.419S1755.073,4376.9,1755.121,4376.934Z" transform="translate(-1738.427 -4366.694)" fill="#344154"/>
          <path id="Trazado_140407" data-name="Trazado 140407" d="M1754.36,4375.452a2.323,2.323,0,0,0,.9.1,1.932,1.932,0,0,0,.9-.108,1.855,1.855,0,0,0-.9-.1,1.973,1.973,0,0,0-.9.108Z" transform="translate(-1738.576 -4366.816)" fill="#344154"/>
          <path id="Trazado_140408" data-name="Trazado 140408" d="M1754.09,4374.47a1.647,1.647,0,0,0,1.006.275,1.728,1.728,0,0,0,1.042-.155,7.879,7.879,0,0,0-1.03,0A5.027,5.027,0,0,0,1754.09,4374.47Z" transform="translate(-1738.629 -4366.985)" fill="#344154"/>
          <path id="Trazado_140409" data-name="Trazado 140409" d="M1756.76,4376.367a3.072,3.072,0,0,0,1.1,0,6.619,6.619,0,0,0,1.2-.276,3.607,3.607,0,0,0,.671-.288.613.613,0,0,0,.275-.359.431.431,0,0,0-.179-.431,2.011,2.011,0,0,0-2.5.633,2.109,2.109,0,0,0-.347.744.717.717,0,0,0,0,.3,3.453,3.453,0,0,1,.491-.958,1.916,1.916,0,0,1,.934-.622,1.712,1.712,0,0,1,1.329.059c.168.132.108.335-.083.456a2.926,2.926,0,0,1-.623.276,8.207,8.207,0,0,1-1.138.322A11.036,11.036,0,0,0,1756.76,4376.367Z" transform="translate(-1738.101 -4366.917)" fill="#344154"/>
          <path id="Trazado_140410" data-name="Trazado 140410" d="M1757.242,4376.5a1.088,1.088,0,0,0,.12-.767,1.809,1.809,0,0,0-.323-.8,1.067,1.067,0,0,0-.922-.551.432.432,0,0,0-.336.515,1.2,1.2,0,0,0,.192.491,3.078,3.078,0,0,0,.539.659,1.732,1.732,0,0,0,.635.442s-.216-.2-.527-.55a3.789,3.789,0,0,1-.479-.646c-.156-.24-.264-.659,0-.707s.563.24.73.455a1.849,1.849,0,0,1,.335.718A4.351,4.351,0,0,1,1757.242,4376.5Z" transform="translate(-1738.297 -4367.003)" fill="#344154"/>
          <path id="Trazado_140411" data-name="Trazado 140411" d="M1741.42,4375.458a7.131,7.131,0,0,1,1.27,0,5.456,5.456,0,0,1,2.79,1.1,5.525,5.525,0,0,1,1.772,2.4c.275.73.312,1.2.347,1.2a.9.9,0,0,0,0-.348,4.892,4.892,0,0,0-.2-.922,5.21,5.21,0,0,0-4.695-3.628,4.4,4.4,0,0,0-.946,0,1.081,1.081,0,0,0-.336.2Z" transform="translate(-1741.132 -4366.835)" fill="#344154"/>
          <path id="Trazado_140412" data-name="Trazado 140412" d="M1742.839,4369.411a27.965,27.965,0,0,0-.1,3.592,28.934,28.934,0,0,0,.108,3.534,27.666,27.666,0,0,0,.1-3.534,32.519,32.519,0,0,0-.108-3.593Z" transform="translate(-1740.875 -4367.985)" fill="#344154"/>
          <path id="Trazado_140413" data-name="Trazado 140413" d="M1748.39,4378.068a9.409,9.409,0,0,0,2.527.216,10.49,10.49,0,0,0,2.515-.24c0-.06-1.138,0-2.515,0A21.149,21.149,0,0,0,1748.39,4378.068Z" transform="translate(-1739.755 -4366.284)" fill="#344154"/>
          <path id="Trazado_140414" data-name="Trazado 140414" d="M1745.58,4378.1s.1.24.2.491.192.491.251.479.084-.275,0-.562S1745.616,4378.054,1745.58,4378.1Z" transform="translate(-1740.311 -4366.269)" fill="#344154"/>
          <path id="Trazado_140415" data-name="Trazado 140415" d="M1744.49,4376.791a1.057,1.057,0,0,0,.263.407c.192.18.359.288.4.24s-.072-.216-.251-.4S1744.538,4376.755,1744.49,4376.791Z" transform="translate(-1740.526 -4366.528)" fill="#344154"/>
          <path id="Trazado_140416" data-name="Trazado 140416" d="M1743,4376.227c0,.06.252.06.5.144s.431.216.479.18-.1-.275-.419-.383S1743,4376.179,1743,4376.227Z" transform="translate(-1740.82 -4366.659)" fill="#344154"/>
          <path id="Trazado_140417" data-name="Trazado 140417" d="M1741.88,4376.013a.481.481,0,0,0,.216.191.462.462,0,0,0,.3,0c.024,0-.084-.144-.227-.2S1741.892,4375.893,1741.88,4376.013Z" transform="translate(-1741.042 -4366.695)" fill="#344154"/>
        </g>
        <g id="Grupo_63569" data-name="Grupo 63569" transform="translate(0 339.358)">
          <g id="Grupo_63567" data-name="Grupo 63567">
            <path id="Trazado_140418" data-name="Trazado 140418" d="M1707.708,4376.43l5.844-7.1-13.245-11.018-8.646,10.3.767.731c3.485,3.245,17.964,16.262,21.006,17.557C1716.845,4388.334,1707.708,4376.43,1707.708,4376.43Z" transform="translate(-1691.66 -4358.31)" fill="#d9a171"/>
            <g id="Grupo_63566" data-name="Grupo 63566" transform="translate(0.168 6.372)" opacity="0.5">
              <path id="Trazado_140419" data-name="Trazado 140419" d="M1696.518,4371.45a5.985,5.985,0,0,0,.659-4.227,5.83,5.83,0,0,0-2.3-3.593l-3.078,3.7Z" transform="translate(-1691.8 -4363.63)" fill="#fff"/>
            </g>
          </g>
          <g id="Grupo_63568" data-name="Grupo 63568" transform="translate(0 10.024)" opacity="0.4">
            <path id="Trazado_140420" data-name="Trazado 140420" d="M1712.007,4380.788s2.994,4.419,1.964,4.658-16.143-12.347-22.311-18.49l.263-.276,17.5,14.839S1711.229,4380.236,1712.007,4380.788Z" transform="translate(-1691.66 -4366.68)" fill="#fff"/>
          </g>
          <path id="Trazado_140421" data-name="Trazado 140421" d="M1691.71,4366.53l.2.2.623.587,2.323,2.107c1.964,1.772,4.719,4.18,7.82,6.766s5.988,4.874,8.048,6.49l2.491,1.9.683.516c.156.107.239.167.251.155l-.227-.191-.659-.54-2.4-1.964c-2.072-1.652-4.91-3.952-8.012-6.539s-5.868-4.97-7.856-6.706l-2.4-2.06-.646-.551A1.176,1.176,0,0,0,1691.71,4366.53Z" transform="translate(-1691.65 -4356.686)" fill="#344154"/>
          <path id="Trazado_140422" data-name="Trazado 140422" d="M1706.34,4379.424a7.394,7.394,0,0,1,1.413-.766,6.37,6.37,0,0,1,1.581-.24A2.779,2.779,0,0,0,1706.34,4379.424Z" transform="translate(-1688.76 -4354.359)" fill="#344154"/>
          <path id="Trazado_140423" data-name="Trazado 140423" d="M1704.46,4374.958a2.079,2.079,0,0,0,.838-.154c.455-.145.8-.312.778-.36a1.693,1.693,0,0,0-.838.157C1704.8,4374.755,1704.448,4374.9,1704.46,4374.958Z" transform="translate(-1689.131 -4355.125)" fill="#344154"/>
          <path id="Trazado_140424" data-name="Trazado 140424" d="M1704,4373.672c0,.06.324.1.731.071a1.5,1.5,0,0,0,.719-.119,2.677,2.677,0,0,0-.731-.084C1704.323,4373.553,1704,4373.612,1704,4373.672Z" transform="translate(-1689.222 -4355.301)" fill="#344154"/>
          <path id="Trazado_140425" data-name="Trazado 140425" d="M1704.26,4372.141a4.046,4.046,0,0,0,.623.659c.383.323.719.551.755.5s-.24-.335-.623-.658S1704.308,4372.094,1704.26,4372.141Z" transform="translate(-1689.171 -4355.578)" fill="#344154"/>
          <path id="Trazado_140426" data-name="Trazado 140426" d="M1704.68,4371.241a2.588,2.588,0,0,0,1.473,1.426,7.735,7.735,0,0,0-.743-.707C1705.015,4371.577,1704.74,4371.2,1704.68,4371.241Z" transform="translate(-1689.088 -4355.755)" fill="#344154"/>
          <path id="Trazado_140427" data-name="Trazado 140427" d="M1705.652,4374.272a3.577,3.577,0,0,0,.85.706,6.817,6.817,0,0,0,1.078.551,3.358,3.358,0,0,0,.694.216.635.635,0,0,0,.431-.084.442.442,0,0,0,.156-.454,2.047,2.047,0,0,0-2.312-1.2,2.264,2.264,0,0,0-.754.335.741.741,0,0,0-.215.216,3.435,3.435,0,0,1,.994-.407,2.117,2.117,0,0,1,1.125.132,1.8,1.8,0,0,1,.958.922.275.275,0,0,1-.359.288,3.054,3.054,0,0,1-.647-.191,6.882,6.882,0,0,1-1.066-.5C1706,4374.511,1705.676,4374.248,1705.652,4374.272Z" transform="translate(-1688.91 -4355.218)" fill="#344154"/>
          <path id="Trazado_140428" data-name="Trazado 140428" d="M1705.832,4374.807a1.2,1.2,0,0,0,.6-.515,1.873,1.873,0,0,0,.287-.815,1.2,1.2,0,0,0-.347-1.018.444.444,0,0,0-.6.168,1.2,1.2,0,0,0-.168.5,3.431,3.431,0,0,0,0,.851,1.557,1.557,0,0,0,.192.742v-.754a4.046,4.046,0,0,1,.072-.8c0-.275.216-.671.467-.527s.263.551.251.827a1.747,1.747,0,0,1-.215.754C1706.083,4374.615,1705.808,4374.77,1705.832,4374.807Z" transform="translate(-1688.91 -4355.525)" fill="#344154"/>
          <path id="Trazado_140429" data-name="Trazado 140429" d="M1694.46,4363.69a6.319,6.319,0,0,1,.946.85,5.388,5.388,0,0,1,1.2,5.653c-.276.731-.575,1.138-.539,1.2s.1-.083.228-.263a4.275,4.275,0,0,0,.443-.839,5.231,5.231,0,0,0,.311-3.09,5.4,5.4,0,0,0-1.5-2.718,5.248,5.248,0,0,0-.742-.586.95.95,0,0,0-.347-.2Z" transform="translate(-1691.107 -4357.247)" fill="#344154"/>
          <path id="Trazado_140430" data-name="Trazado 140430" d="M1700.2,4360.05a29.474,29.474,0,0,0-2.395,2.623,33.649,33.649,0,0,0-2.228,2.754,29.342,29.342,0,0,0,2.4-2.623,33.383,33.383,0,0,0,2.228-2.754Z" transform="translate(-1690.885 -4357.966)" fill="#344154"/>
          <path id="Trazado_140431" data-name="Trazado 140431" d="M1698,4370.241a10.227,10.227,0,0,0,1.772,1.808,10.011,10.011,0,0,0,2.072,1.461c0-.06-.874-.719-1.928-1.628A22.093,22.093,0,0,0,1698,4370.241Z" transform="translate(-1690.407 -4355.953)" fill="#344154"/>
          <path id="Trazado_140432" data-name="Trazado 140432" d="M1695.909,4368.431s-.084.251-.156.515-.18.491-.132.526.24-.155.335-.467S1695.969,4368.431,1695.909,4368.431Z" transform="translate(-1690.88 -4356.311)" fill="#344154"/>
          <path id="Trazado_140433" data-name="Trazado 140433" d="M1695.9,4366.741c-.06,0-.084.216-.06.467s.084.455.144.443.084-.215,0-.467S1695.961,4366.729,1695.9,4366.741Z" transform="translate(-1690.835 -4356.645)" fill="#344154"/>
          <path id="Trazado_140434" data-name="Trazado 140434" d="M1695.11,4365.3a4.635,4.635,0,0,1,.287.431c.132.227.192.443.251.443s.1-.275-.072-.551S1695.134,4365.254,1695.11,4365.3Z" transform="translate(-1690.978 -4356.931)" fill="#344154"/>
          <path id="Trazado_140435" data-name="Trazado 140435" d="M1694.46,4364.392v.288c0,.132.18.228.228.191s0-.155,0-.288S1694.508,4364.354,1694.46,4364.392Z" transform="translate(-1691.107 -4357.109)" fill="#344154"/>
        </g>
        <g id="Grupo_63570" data-name="Grupo 63570" transform="translate(1.461 155.159)">
          <path id="Trazado_140436" data-name="Trazado 140436" d="M1743.322,4212.937s-5.736,24.275-4.107,29.065,12.131,7.581,12.131,7.581l-.359,66.454-58.107,71.855,21.449,17.557s62.909-71.975,68.466-85.028-3.593-108.549-3.593-108.549Z" transform="translate(-1692.88 -4203.044)" fill="#344154"/>
          <path id="Trazado_140437" data-name="Trazado 140437" d="M1767.792,4204.5l2.838,201.828-29.556.144L1726.235,4242.1h0c-3.138-2.994-7.557-8.119-6.946-19.557l.719-13.28Z" transform="translate(-1687.673 -4204.5)" fill="#344154"/>
          <path id="Trazado_140438" data-name="Trazado 140438" d="M1733.75,4321.985s0-.107.168-.3l.563-.826c.539-.767,1.281-1.808,2.191-3.114l8.024-11.1v.155c-.647-7.006-1.425-15.509-2.263-24.659-1.078-11.976-1.94-22.885-2.4-30.765-.263-3.94-.431-7.187-.527-9.341,0-1.054-.072-1.893-.084-2.539a3.624,3.624,0,0,1,0-.886,5.626,5.626,0,0,1,.108.874c0,.646.12,1.485.2,2.539.18,2.275.419,5.438.73,9.317.623,7.868,1.557,18.742,2.635,30.742.8,9.2,1.617,17.676,2.156,24.718v.144l-8.2,10.981-2.311,3.018-.623.791C1733.833,4321.9,1733.762,4322,1733.75,4321.985Z" transform="translate(-1684.805 -4197.76)" fill="#5e6178"/>
          <path id="Trazado_140439" data-name="Trazado 140439" d="M1743.883,4239.151a40.368,40.368,0,0,1-7.832-1.2,41.32,41.32,0,0,1-7.641-2.084,63.184,63.184,0,0,1,7.772,1.472,66.076,66.076,0,0,1,7.7,1.81Z" transform="translate(-1685.86 -4198.302)" fill="#5e6178"/>
          <path id="Trazado_140440" data-name="Trazado 140440" d="M1760.9,4296.606a30.066,30.066,0,0,0-7.976-2.084,30.412,30.412,0,0,0-8.215.791,6.8,6.8,0,0,1,2.3-.9,18.392,18.392,0,0,1,5.988-.514,17.992,17.992,0,0,1,5.8,1.449A6.639,6.639,0,0,1,1760.9,4296.606Z" transform="translate(-1682.639 -4186.848)" fill="#5e6178"/>
          <path id="Trazado_140441" data-name="Trazado 140441" d="M1773.15,4304c.132.1-8.179,11.257-18.575,24.922s-18.934,24.658-19.066,24.551,8.18-11.257,18.575-24.922S1773.018,4303.846,1773.15,4304Z" transform="translate(-1684.457 -4184.842)" fill="#5e6178"/>
          <path id="Trazado_140442" data-name="Trazado 140442" d="M1766.06,4217.259a5.018,5.018,0,0,1-1.665,2.192,8.227,8.227,0,0,1-12.047-1.269,4.851,4.851,0,0,1-1.2-2.492,25.908,25.908,0,0,0,1.509,2.216,8.227,8.227,0,0,0,11.437,1.2A13.46,13.46,0,0,0,1766.06,4217.259Z" transform="translate(-1681.367 -4202.29)" fill="#5e6178"/>
        </g>
        <path id="Trazado_140443" data-name="Trazado 140443" d="M1731.193,4136.237a25.772,25.772,0,0,1-1.4-35.927" transform="translate(-1685.434 -4069.927)" fill="#344154"/>
        <g id="Grupo_63575" data-name="Grupo 63575" transform="translate(21.401 71.495)">
          <g id="Grupo_63574" data-name="Grupo 63574">
            <path id="Trazado_140444" data-name="Trazado 140444" d="M1717.278,4146s-6.419,7.258-7.748,35c0,0,18.287,3.474,18.622,2.468S1717.278,4146,1717.278,4146Z" transform="translate(-1709.53 -4132.396)" fill="#d9a171"/>
            <g id="Grupo_63571" data-name="Grupo 63571" transform="translate(0 13.605)" opacity="0.3">
              <path id="Trazado_140445" data-name="Trazado 140445" d="M1717.278,4146s-6.419,7.258-7.748,35c0,0,18.287,3.474,18.622,2.468S1717.278,4146,1717.278,4146Z" transform="translate(-1709.53 -4146)" fill="#d9a171"/>
            </g>
            <g id="Grupo_63573" data-name="Grupo 63573" transform="translate(5.791)">
              <path id="Trazado_140446" data-name="Trazado 140446" d="M1720.32,4175.26" transform="translate(-1713.189 -4126.614)" fill="#5e6178"/>
              <path id="Trazado_140447" data-name="Trazado 140447" d="M1719.293,4229.093h56.155l-.91-8.766s-6.419-33.377-6.371-33.808l1.006-2.131a21.138,21.138,0,0,0,.252-17.652h0l27.544-9.4-6.73-22.694c-12.479,2.107-31.341,4.455-31.341,4.455l-2.8.24s-19.473,1.018-19.892,1.065c-8.144.982-17.616,1.6-21.078,10.323-1.856,4.659-.1,11.652,2.934,18.874l7.185,22.144c2.874,12.179-1.713,11.6-4.24,23.856C1720.6,4217.453,1719.257,4227.393,1719.293,4229.093Z" transform="translate(-1714.365 -4134.64)" fill="#d9a171"/>
              <g id="Grupo_63572" data-name="Grupo 63572" opacity="0.3">
                <path id="Trazado_140448" data-name="Trazado 140448" d="M1719.293,4229.093h56.155l-.91-8.766s-6.419-33.377-6.371-33.808l1.006-2.131a21.138,21.138,0,0,0,.252-17.652h0l27.544-9.4-6.73-22.694c-12.479,2.107-31.341,4.455-31.341,4.455l-2.8.24s-19.473,1.018-19.892,1.065c-8.144.982-17.616,1.6-21.078,10.323-1.856,4.659-.1,11.652,2.934,18.874l7.185,22.144c2.874,12.179-1.713,11.6-4.24,23.856C1720.6,4217.453,1719.257,4227.393,1719.293,4229.093Z" transform="translate(-1714.365 -4134.64)" fill="#d9a171"/>
              </g>
            </g>
            <path id="Trazado_140449" data-name="Trazado 140449" d="M1788.278,4153.89a4.774,4.774,0,0,1-1.2.516c-.791.287-1.952.694-3.389,1.2-2.874.981-6.874,2.264-11.281,3.676s-8.383,2.8-11.137,3.964c-1.413.563-2.527,1.066-3.305,1.4a5.7,5.7,0,0,1-1.2.491,5.325,5.325,0,0,1,1.126-.707c.755-.407,1.844-.97,3.233-1.593a106.057,106.057,0,0,1,11.125-4.155c4.419-1.414,8.383-2.635,11.341-3.5,1.449-.43,2.635-.766,3.449-.981A5.628,5.628,0,0,1,1788.278,4153.89Z" transform="translate(-1700.196 -4130.836)" fill="#344154"/>
          </g>
          <path id="Trazado_140450" data-name="Trazado 140450" d="M1792.61,4143.862c0,.167-16.61.311-37.125.311s-37.125-.144-37.125-.311,16.6-.312,37.125-.312S1792.61,4143.682,1792.61,4143.862Z" transform="translate(-1707.785 -4132.88)" fill="#fafafa"/>
          <path id="Trazado_140451" data-name="Trazado 140451" d="M1795.405,4153.051c0,.168-18.479.312-41.269.312s-41.256-.144-41.256-.312,18.467-.311,41.256-.311S1795.405,4152.9,1795.405,4153.051Z" transform="translate(-1708.868 -4131.064)" fill="#fafafa"/>
          <path id="Trazado_140452" data-name="Trazado 140452" d="M1717.856,4163.542a18.524,18.524,0,0,1-6.886,0,19.153,19.153,0,0,1,6.886,0Z" transform="translate(-1709.245 -4128.991)" fill="#fafafa"/>
          <path id="Trazado_140453" data-name="Trazado 140453" d="M1770.683,4163.862c0,.18-12.083.311-26.982.311s-26.981-.131-26.981-.311,12.071-.312,26.981-.312S1770.683,4163.694,1770.683,4163.862Z" transform="translate(-1708.109 -4128.928)" fill="#fafafa"/>
          <path id="Trazado_140454" data-name="Trazado 140454" d="M1768.782,4174.661c0,.167-10.85.312-24.215.312s-24.227-.145-24.227-.312,10.838-.311,24.227-.311S1768.782,4174.494,1768.782,4174.661Z" transform="translate(-1707.394 -4126.794)" fill="#fafafa"/>
          <path id="Trazado_140455" data-name="Trazado 140455" d="M1767.733,4184.662c0,.179-9.82.311-21.94.311s-21.964-.132-21.964-.311,9.832-.312,21.964-.312S1767.733,4184.494,1767.733,4184.662Z" transform="translate(-1706.704 -4124.818)" fill="#fafafa"/>
          <path id="Trazado_140456" data-name="Trazado 140456" d="M1769.849,4192.761c0,.168-10.515.312-23.485.312s-23.485-.144-23.485-.312,10.515-.311,23.485-.311S1769.849,4192.594,1769.849,4192.761Z" transform="translate(-1706.892 -4123.217)" fill="#fafafa"/>
          <path id="Trazado_140457" data-name="Trazado 140457" d="M1773.456,4203.052c0,.167-11.976.311-26.718.311s-26.718-.144-26.718-.311,11.976-.312,26.718-.312S1773.456,4202.92,1773.456,4203.052Z" transform="translate(-1707.457 -4121.185)" fill="#fafafa"/>
          <path id="Trazado_140458" data-name="Trazado 140458" d="M1724.78,4186.246a3.939,3.939,0,0,1-.5-1.1c-.324-.863-.719-1.88-1.2-3.066-.982-2.587-2.4-6.167-3.82-10.143s-2.647-7.629-3.4-10.311c-.371-1.33-.659-2.4-.814-3.186a5.034,5.034,0,0,1-.2-1.2,43.1,43.1,0,0,1,1.437,4.264c.863,2.634,2.12,6.239,3.593,10.215s2.767,7.581,3.593,10.2c.443,1.317.779,2.4.994,3.137a4.966,4.966,0,0,1,.324,1.186Z" transform="translate(-1708.481 -4130.174)" fill="#344154"/>
        </g>
      </g>
    </g>
  </g>
</svg>
