<svg xmlns="http://www.w3.org/2000/svg" width="505" height="469" viewBox="0 0 505 469">
  <g id="img31" transform="translate(-916 -3468)">
    <rect id="Rectángulo_33824" data-name="Rectángulo 33824" width="505" height="469" transform="translate(916 3468)" fill="none"/>
    <g id="Grupo_78647" data-name="Grupo 78647" transform="translate(1 -6012)">
      <rect id="Rectángulo_31333" data-name="Rectángulo 31333" width="505" height="435" transform="translate(915 9497)" fill="none" opacity="0.412"/>
      <g id="background" transform="translate(849.539 9520.397)">
        <circle id="Elipse_4345" data-name="Elipse 4345" cx="194.243" cy="194.243" r="194.243" transform="translate(99.679 11.558)" fill="#d9a171" opacity="0.255"/>
      </g>
      <g id="Grupo_68378" data-name="Grupo 68378" transform="translate(1147.851 9529.849)">
        <g id="Grupo_68365" data-name="Grupo 68365">
          <path id="Trazado_134161" data-name="Trazado 134161" d="M788.561,597.322H592.121V314.671H810.144V578.912C810.144,589.08,800.481,597.322,788.561,597.322Z" transform="translate(-592.07 -314.671)" fill="#f7f7f7"/>
          <path id="Trazado_134197" data-name="Trazado 134197" d="M0,0H217.659V13.123H0Z" transform="translate(0 0)" fill="#d9a171"/>
        </g>
        <g id="Grupo_68367" data-name="Grupo 68367" transform="translate(51.641 152.128)">
          <g id="Grupo_68366" data-name="Grupo 68366">
            <path id="Trazado_134162" data-name="Trazado 134162" d="M834.695,704.634c2.936,0,2.936-3.319,0-3.319H725.442c-2.936,0-2.936,3.319,0,3.319H834.695Z" transform="translate(-723.24 -701.315)" fill="#5e6178"/>
          </g>
        </g>
        <g id="Grupo_68368" data-name="Grupo 68368" transform="translate(46.695 22.224)">
          <path id="Trazado_134163" data-name="Trazado 134163" d="M789.019,371.155a57.791,57.791,0,0,0-43.8,20l43.8,37.949,43.8-37.949A57.792,57.792,0,0,0,789.019,371.155Z" transform="translate(-731.628 -371.155)" fill="#aed3f2"/>
          <path id="Trazado_134164" data-name="Trazado 134164" d="M924.5,496.858,867.143,505.1v57.952A57.918,57.918,0,0,0,925.094,505.1,58.575,58.575,0,0,0,924.5,496.858Z" transform="translate(-805.577 -447.399)" fill="#5e6178"/>
          <path id="Trazado_134165" data-name="Trazado 134165" d="M724.327,422.481A57.93,57.93,0,0,0,737.974,509l30.663-49.171Z" transform="translate(-710.67 -402.286)" fill="#6595bf"/>
          <path id="Trazado_134166" data-name="Trazado 134166" d="M809.5,575.562a57.68,57.68,0,0,1-31.328-9.2l31.334-48.746Z" transform="translate(-751.612 -459.988)" fill="#5e6178"/>
          <path id="Trazado_134167" data-name="Trazado 134167" d="M931.991,442.958a57.688,57.688,0,0,0-13.563-29.7l-43.8,37.949Z" transform="translate(-810.12 -396.691)" fill="#5e6178"/>
        </g>
        <g id="Grupo_68373" data-name="Grupo 68373" transform="translate(25.683 169.902)">
          <g id="Grupo_68369" data-name="Grupo 68369" transform="translate(0 28.916)">
            <rect id="Rectángulo_31715" data-name="Rectángulo 31715" width="21.289" height="51.278" transform="translate(0 19.856)" fill="#a66d58"/>
            <rect id="Rectángulo_31716" data-name="Rectángulo 31716" width="21.289" height="24.097" fill="#d9a171"/>
          </g>
          <g id="Grupo_68371" data-name="Grupo 68371" transform="translate(93.435 42.218)">
            <rect id="Rectángulo_31719" data-name="Rectángulo 31719" width="21.289" height="54.17" transform="translate(0 4.819)" fill="#a66d58"/>
            <rect id="Rectángulo_31720" data-name="Rectángulo 31720" width="21.289" height="35.953" fill="#d9a171"/>
          </g>
          <g id="Grupo_68372" data-name="Grupo 68372" transform="translate(46.717)">
            <rect id="Rectángulo_31721" data-name="Rectángulo 31721" width="21.289" height="72.748" transform="translate(0 28.169)" fill="#a66d58"/>
            <rect id="Rectángulo_31722" data-name="Rectángulo 31722" width="21.289" height="58.187" fill="#d9a171"/>
          </g>
        </g>
        <g id="Grupo_68377" data-name="Grupo 68377" transform="translate(5.516 4.673)">
          <g id="Grupo_68374" data-name="Grupo 68374">
            <path id="Trazado_134168" data-name="Trazado 134168" d="M608.81,332.147a2.8,2.8,0,1,1,2.8-2.8A2.8,2.8,0,0,1,608.81,332.147Zm0-5.133a2.333,2.333,0,1,0,2.333,2.333A2.336,2.336,0,0,0,608.81,327.015Z" transform="translate(-606.011 -326.548)" fill="#fff"/>
          </g>
          <g id="Grupo_68375" data-name="Grupo 68375" transform="translate(8.632)">
            <path id="Trazado_134169" data-name="Trazado 134169" d="M630.75,332.147a2.8,2.8,0,1,1,2.8-2.8A2.8,2.8,0,0,1,630.75,332.147Zm0-5.133a2.333,2.333,0,1,0,2.333,2.333A2.336,2.336,0,0,0,630.75,327.015Z" transform="translate(-627.95 -326.548)" fill="#fff"/>
          </g>
          <g id="Grupo_68376" data-name="Grupo 68376" transform="translate(17.264)">
            <path id="Trazado_134170" data-name="Trazado 134170" d="M652.689,332.147a2.8,2.8,0,1,1,2.8-2.8A2.8,2.8,0,0,1,652.689,332.147Zm0-5.133a2.333,2.333,0,1,0,2.333,2.333A2.336,2.336,0,0,0,652.689,327.015Z" transform="translate(-649.889 -326.548)" fill="#fff"/>
          </g>
        </g>
      </g>
      <path id="Trazado_134171" data-name="Trazado 134171" d="M404.047,740.464H253.83v-232H418V726.515A13.949,13.949,0,0,1,404.047,740.464Z" transform="translate(725.465 9157.84)" fill="#2e4661" opacity="0.07"/>
      <g id="Grupo_68380" data-name="Grupo 68380" transform="translate(960.644 9648.756)">
        <g id="Grupo_68379" data-name="Grupo 68379">
          <path id="Trazado_134172" data-name="Trazado 134172" d="M366.538,710.258H209.972V467.2H386.863V689.932A20.325,20.325,0,0,1,366.538,710.258Z" transform="translate(-209.972 -467.198)" fill="#f2e9e4"/>
        </g>
        <rect id="Rectángulo_31723" data-name="Rectángulo 31723" width="143.197" height="90.551" transform="translate(18.775 19.408)" fill="#fff"/>
        <path id="Trazado_134173" data-name="Trazado 134173" d="M360.912,554.928a5.984,5.984,0,0,0,3.568,2.949c3.626,1.354,8.5.376,10.591-2.659,3.494-5.075,2.512-12.339,6.271-17.612a12.339,12.339,0,0,1,6.6-4.658,11.282,11.282,0,0,1,8.331.791c3.976,2.19,5.352,6.716,5.391,10.823a127.93,127.93,0,0,1-2.449,23.827c-.687,3.766-1.746,7.636-4.476,10.612-3.7,4.036-9.8,5.717-15.629,6.615-14.751,2.274-29.881.883-44.775-.512l-35.94-3.368c-3.377-.316-13.32.194-15.342-2.146-1.974-2.285-.423-10.028.732-12.418,2.571-5.323,9.6-8.326,16.2-7.988,14.889.762,9-14.786,13.769-22.169,2.531-3.922,8.106-6.741,12.908-5.107,4.58,1.559,6.492,6.156,8.749,9.971,1.172,1.981,2.836,4.033,5.341,4.462,4.258.729,7.81-3.6,12.145-3.434a7.252,7.252,0,0,1,5.859,3.856C360.265,549.517,359.739,552.56,360.912,554.928Z" transform="translate(-251.426 -504.115)" fill="#f7f7f7"/>
        <path id="Trazado_134174" data-name="Trazado 134174" d="M398.817,620.163c-.006,0,.023-6.517.025-6.875.035-9.726.034-19.452.046-29.178.012-9.293.777-18.583.627-27.852-.067-4.288-1.92-6.53-6.436-5.379a20.874,20.874,0,0,0-11.312,7.412c-1.9,2.466-3.471,5.555-6.419,6.548-5.269,1.776-9.579-4.159-14.31-7.078a14.71,14.71,0,0,0-16.757,1.251c-5.524,4.671-6.791,12.748-11.466,18.269a18.872,18.872,0,0,1-21.713,4.779c-2.966-1.378-5.516-3.525-8.44-4.991-11.6-5.814-27.72,2.551-29.645,15.38v26.546S399.051,620.4,398.817,620.163Z" transform="translate(-246.205 -515.118)" fill="#d9a171"/>
        <rect id="Rectángulo_31724" data-name="Rectángulo 31724" width="10.763" height="10.763" transform="translate(21.114 123.764)" fill="#5e6178"/>
        <rect id="Rectángulo_31725" data-name="Rectángulo 31725" width="10.763" height="10.763" transform="translate(21.114 139.675)" fill="#5e6178"/>
        <rect id="Rectángulo_31726" data-name="Rectángulo 31726" width="31.354" height="3.276" transform="translate(40.769 127.04)" fill="#f7f7f7"/>
        <rect id="Rectángulo_31727" data-name="Rectángulo 31727" width="31.354" height="3.276" transform="translate(40.301 144.354)" fill="#f7f7f7"/>
        <rect id="Rectángulo_31728" data-name="Rectángulo 31728" width="136.646" height="3.539" transform="translate(22.518 168.791)" fill="#f7f7f7"/>
        <rect id="Rectángulo_31729" data-name="Rectángulo 31729" width="60.835" height="48.493" transform="translate(22.518 179.071)" fill="#6595bf"/>
        <rect id="Rectángulo_31730" data-name="Rectángulo 31730" width="66.451" height="21.117" transform="translate(92.713 179.539)" fill="#f7f7f7"/>
        <rect id="Rectángulo_31731" data-name="Rectángulo 31731" width="66.451" height="21.117" transform="translate(92.011 206.213)" fill="#f7f7f7"/>
      </g>
      <g id="Grupo_68382" data-name="Grupo 68382" transform="translate(949.218 9555.368)">
        <path id="Trazado_134175" data-name="Trazado 134175" d="M273.711,231.015h-92a.672.672,0,0,0-.642.7v48.736c0,12.016,8.939,21.756,19.967,21.756h38.145l15.6,21.882a.744.744,0,0,0,1.349-.421l.32-21.462h17.262a.673.673,0,0,0,.642-.7V231.714A.672.672,0,0,0,273.711,231.015Z" transform="translate(-181.07 -231.015)" fill="#5e6178"/>
        <g id="Grupo_68381" data-name="Grupo 68381" transform="translate(12.048 11.647)">
          <rect id="Rectángulo_31732" data-name="Rectángulo 31732" width="57.306" height="2.388" fill="#dddae8"/>
          <rect id="Rectángulo_31733" data-name="Rectángulo 31733" width="68.35" height="2.388" transform="translate(0 18.207)" fill="#dddae8"/>
          <rect id="Rectángulo_31734" data-name="Rectángulo 31734" width="68.35" height="2.388" transform="translate(0 36.413)" fill="#dddae8"/>
        </g>
      </g>
      <g id="Grupo_68385" data-name="Grupo 68385" transform="translate(1033.478 9529.849)">
        <g id="Grupo_68383" data-name="Grupo 68383">
          <path id="Trazado_134176" data-name="Trazado 134176" d="M490.071,206.466H421.834V158.1h63.9l13.685,14.453v23.928C499.416,201.994,495.232,206.466,490.071,206.466Z" transform="translate(-421.834 -158.096)" fill="#d9a171"/>
          <path id="Trazado_134177" data-name="Trazado 134177" d="M618.14,172.665l-13.738.346V158.1Z" transform="translate(-540.508 -158.096)" fill="#a66d58"/>
        </g>
        <g id="Grupo_68384" data-name="Grupo 68384" transform="translate(11.817 12.553)">
          <rect id="Rectángulo_31735" data-name="Rectángulo 31735" width="43.532" height="2.073" transform="translate(6.896)" fill="#f7f7f7"/>
          <rect id="Rectángulo_31736" data-name="Rectángulo 31736" width="50.428" height="2.073" transform="translate(0 10.019)" fill="#f7f7f7"/>
          <rect id="Rectángulo_31737" data-name="Rectángulo 31737" width="50.428" height="2.073" transform="translate(0 20.039)" fill="#f7f7f7"/>
        </g>
      </g>
      <g id="Grupo_68389" data-name="Grupo 68389" transform="translate(1220.25 9700.055)">
        <g id="Grupo_68386" data-name="Grupo 68386" transform="translate(0 54.154)">
          <path id="Trazado_134178" data-name="Trazado 134178" d="M1008.14,566.744a.463.463,0,0,1-.458-.4c-.086-.625-.142-1.261-.167-1.889a.463.463,0,1,1,.925-.037c.024.6.078,1.2.16,1.8a.463.463,0,0,1-.4.522A.488.488,0,0,1,1008.14,566.744Z" transform="translate(-1007.514 -563.974)" fill="#5d66d3"/>
        </g>
        <g id="Grupo_68387" data-name="Grupo 68387" transform="translate(0.207 5.047)">
          <path id="Trazado_134179" data-name="Trazado 134179" d="M1008.649,451.225a.487.487,0,0,1-.07-.005.462.462,0,0,1-.388-.527,21.763,21.763,0,0,1,.892-3.658.463.463,0,0,1,.878.3,20.793,20.793,0,0,0-.855,3.5A.463.463,0,0,1,1008.649,451.225Zm2.315-6.971a.463.463,0,0,1-.411-.675,29.107,29.107,0,0,1,1.935-3.209.463.463,0,0,1,.761.527,28.112,28.112,0,0,0-1.873,3.107A.464.464,0,0,1,1010.965,444.254Zm4.174-6.067a.463.463,0,0,1-.349-.767c.8-.918,1.673-1.823,2.593-2.689a.463.463,0,1,1,.635.674c-.9.845-1.749,1.728-2.529,2.624A.462.462,0,0,1,1015.138,438.187Zm5.36-5.062a.463.463,0,0,1-.286-.827c.97-.762,1.99-1.494,3.03-2.176a.463.463,0,1,1,.507.774c-1.018.668-2.016,1.384-2.966,2.13A.461.461,0,0,1,1020.5,433.126Zm6.167-4.047a.463.463,0,0,1-.224-.869c1.076-.591,2.19-1.161,3.311-1.692a.463.463,0,0,1,.4.837c-1.1.524-2.2,1.085-3.262,1.667A.461.461,0,0,1,1026.666,429.078Zm6.665-3.164a.463.463,0,0,1-.174-.892c1.132-.459,2.3-.9,3.479-1.3a.463.463,0,0,1,.3.876c-1.161.4-2.316.832-3.432,1.285A.462.462,0,0,1,1033.33,425.914Zm6.975-2.4a.463.463,0,0,1-.128-.908c1.17-.336,2.378-.652,3.591-.939a.463.463,0,0,1,.213.9c-1.2.283-2.392.6-3.548.927A.463.463,0,0,1,1040.305,423.511Zm59.031-1.312-.376,0a.463.463,0,0,1-.46-.466.455.455,0,0,1,.466-.46l.369,0c1.145,0,2.248-.04,3.28-.12a.463.463,0,1,1,.072.923C1101.633,422.158,1100.505,422.2,1099.337,422.2Zm-4.06-.142h-.031c-1.1-.072-2.31-.173-3.693-.31a.463.463,0,1,1,.091-.921c1.373.135,2.571.236,3.662.307a.463.463,0,0,1-.03.925Zm-47.792-.245a.463.463,0,0,1-.086-.918c1.193-.226,2.423-.432,3.658-.614a.463.463,0,0,1,.135.916c-1.222.179-2.44.384-3.62.607A.492.492,0,0,1,1047.484,421.812Zm58.824-.219a.463.463,0,0,1-.087-.918,25.684,25.684,0,0,0,3.5-.93.463.463,0,1,1,.3.875,26.611,26.611,0,0,1-3.627.964A.48.48,0,0,1,1106.308,421.594Zm-18.38-.234-.051,0-1.1-.12q-1.28-.138-2.566-.264a.463.463,0,0,1,.09-.922q1.291.126,2.576.265l1.1.12a.463.463,0,0,1-.05.923Zm-33.145-.623a.463.463,0,0,1-.049-.923c1.2-.13,2.446-.242,3.691-.333a.463.463,0,0,1,.067.924c-1.235.09-2.465.2-3.659.33A.4.4,0,0,1,1054.783,420.736Zm25.8-.087h-.037c-1.24-.1-2.475-.186-3.673-.259a.463.463,0,1,1,.056-.924c1.2.073,2.446.16,3.691.26a.463.463,0,0,1-.036.924Zm-7.369-.443h-.018c-1.242-.048-2.479-.082-3.678-.1a.463.463,0,0,1-.456-.47.457.457,0,0,1,.47-.456c1.207.018,2.451.052,3.7.1a.463.463,0,0,1-.018.926Zm-11.07-.01a.463.463,0,0,1-.018-.926c1.209-.049,2.455-.082,3.7-.1a.47.47,0,0,1,.468.457.463.463,0,0,1-.457.469c-1.239.015-2.476.047-3.676.1Zm51.108-1.028a.463.463,0,0,1-.22-.871,23.541,23.541,0,0,0,3.039-1.958.463.463,0,1,1,.559.738,24.469,24.469,0,0,1-3.159,2.036A.463.463,0,0,1,1113.251,419.168Zm5.876-4.423a.463.463,0,0,1-.327-.79,31.378,31.378,0,0,0,2.414-2.716.463.463,0,0,1,.726.575,32.316,32.316,0,0,1-2.486,2.8A.461.461,0,0,1,1119.126,414.745Zm4.591-5.76a.463.463,0,0,1-.389-.714c.639-.993,1.258-2.053,1.842-3.153a.463.463,0,1,1,.818.434c-.6,1.122-1.229,2.205-1.881,3.22A.463.463,0,0,1,1123.718,408.985Z" transform="translate(-1008.186 -404.873)" fill="#5d66d3"/>
        </g>
        <g id="Grupo_68388" data-name="Grupo 68388" transform="translate(118.756)">
          <path id="Trazado_134180" data-name="Trazado 134180" d="M1392.733,391.154a.463.463,0,0,1-.423-.65c.243-.55.483-1.12.714-1.692a.463.463,0,0,1,.859.346c-.235.582-.479,1.161-.726,1.72A.463.463,0,0,1,1392.733,391.154Z" transform="translate(-1392.271 -388.522)" fill="#5d66d3"/>
        </g>
      </g>
      <g id="Grupo_68390" data-name="Grupo 68390" transform="translate(1323.9 9664.516)">
        <path id="Trazado_134181" data-name="Trazado 134181" d="M1381.778,274.644l-1.934,43.911-14.5-15.222s16.495-29.921,16.61-29.426l-.633-.528c.488-.14-17.642,28.819-17.642,28.819l-20.35-5.273,37.434-23.034Z" transform="translate(-1343.329 -273.379)" fill="#8cabef"/>
      </g>
      <g id="Grupo_68394" data-name="Grupo 68394" transform="translate(1147.851 9806.342)">
        <rect id="Rectángulo_31738" data-name="Rectángulo 31738" width="139.62" height="100.935" transform="translate(0 5.856)" fill="#2e4661" opacity="0.07"/>
        <g id="Grupo_68393" data-name="Grupo 68393" transform="translate(4.77)">
          <g id="Grupo_68392" data-name="Grupo 68392">
            <g id="Grupo_68391" data-name="Grupo 68391">
              <path id="Trazado_134196" data-name="Trazado 134196" d="M0,0H140.569V101.236H0Z" fill="#6595bf"/>
              <rect id="Rectángulo_31740" data-name="Rectángulo 31740" width="140.377" height="8.059" fill="#5e6178"/>
            </g>
            <path id="Trazado_134182" data-name="Trazado 134182" d="M1257.822,760.121v-.313h-17.254V742.876h-.313v16.932h-20.685V742.876h-.312v16.932h-20.685V742.876h-.312v16.932h-20.686V742.876h-.312v16.932h-20.685V742.876h-.313v16.932h-20.685V742.876h-.312v16.932h-17.229v.313h17.229v19.131h-17.229v.312h17.229v19.131h-17.229v.312h17.229v19.131h-17.229v.312h17.229v17.8h.312v-17.8h20.685v17.8h.313v-17.8h20.685v17.8h.312v-17.8h20.686v17.8h.312v-17.8h20.685v17.8h.313v-17.8h20.685v17.8h.313v-17.8h17.254v-.312h-17.254V799.007h17.254v-.312h-17.254V779.563h17.254v-.312h-17.254V760.121Zm-38.565,0v19.131h-20.685V760.121Zm-41.683,19.443h20.686v19.131h-20.686Zm-.312,19.131h-20.685V779.563h20.685Zm21.31-19.131h20.685v19.131h-20.685Zm-.312-19.443v19.131h-20.686V760.121Zm-21,0v19.131h-20.685V760.121Zm-41.683,0h20.685v19.131h-20.685Zm0,19.443h20.685v19.131h-20.685Zm0,38.574V799.007h20.685v19.131Zm21,0V799.007h20.685v19.131Zm21,0V799.007h20.686v19.131Zm21,0V799.007h20.685v19.131Zm41.683,0h-20.685V799.007h20.685Zm0-19.443h-20.685V779.563h20.685Zm0-19.443h-20.685V760.121h20.685Z" transform="translate(-1117.549 -734.663)" opacity="0.603"/>
          </g>
          <path id="Trazado_134183" data-name="Trazado 134183" d="M1248.084,768.338a4.287,4.287,0,0,0-3.01,7.342l-14.92,12.848-1.135.977a4.287,4.287,0,1,0-5.019,6.937l-3.269,7.868-1.393,3.355a4.266,4.266,0,0,0-4.675,2.022l-14.414-9.111-10.68-6.751a4.288,4.288,0,1,0-8.179-.716l-20.214,8.251-1.982.809a4.288,4.288,0,1,0-6.874,4.824l-3,3.408-14.329,16.266a4.315,4.315,0,1,0,1.111,1.1l12.236-13.889,5.31-6.027a4.286,4.286,0,0,0,5.9-3.972c0-.058-.007-.114-.009-.171l.292-.119,22.148-9.04a4.279,4.279,0,0,0,6.753.6l9.686,6.123,15.714,9.932a4.287,4.287,0,1,0,6.629-2.918l4.67-11.243a4.286,4.286,0,0,0,5.191-4.192,4.269,4.269,0,0,0-.587-2.16l2.639-2.273,11.3-9.734,2.439-2.1a4.289,4.289,0,1,0,1.667-8.242Z" transform="translate(-1122.642 -747.301)" fill="#dddae8"/>
        </g>
      </g>
      <g id="Grupo_68405" data-name="Grupo 68405" transform="translate(1167.5 9648.756)">
        <g id="Grupo_68403" data-name="Grupo 68403">
          <g id="Grupo_68401" data-name="Grupo 68401">
            <g id="Grupo_68398" data-name="Grupo 68398">
              <g id="Grupo_68396" data-name="Grupo 68396" transform="translate(110.131 91.42)">
                <g id="Grupo_68395" data-name="Grupo 68395">
                  <path id="Trazado_134184" data-name="Trazado 134184" d="M1265.649,555.361l-10.309,16.513-58.5-36.851,10.309-16.513Z" transform="translate(-1196.844 -518.51)" fill="#f7f7f7"/>
                  <path id="Trazado_134185" data-name="Trazado 134185" d="M1355.175,620.884l-.119.19c-3.252,5.208-9.055,7.454-12.961,5.015l-44.9-27.561,11.8-19.845,45,28.352C1357.9,609.476,1358.427,615.676,1355.175,620.884Z" transform="translate(-1266.221 -560.112)" fill="#353a85"/>
                </g>
                <path id="Trazado_134186" data-name="Trazado 134186" d="M1210.1,539.178l2.832,2.062,25.632-6.653-21.356-13.627Z" transform="translate(-1206.011 -520.203)" fill="#bbbcbf" opacity="0.2" style="mix-blend-mode: multiply;isolation: isolate"/>
              </g>
              <g id="Grupo_68397" data-name="Grupo 68397">
                <path id="Trazado_134187" data-name="Trazado 134187" d="M970.757,272.311a58.594,58.594,0,1,0,18.673,80.733A58.594,58.594,0,0,0,970.757,272.311Zm11.728,76.4a50.406,50.406,0,1,1-16.064-69.451A50.405,50.405,0,0,1,982.484,348.708Z" transform="translate(-868.443 -250.73)" fill="#5e6178"/>
                <circle id="Elipse_4346" data-name="Elipse 4346" cx="50.406" cy="50.406" r="50.406" transform="translate(0 71.284) rotate(-45)" fill="#d1e7f5" opacity="0.5"/>
              </g>
            </g>
            <g id="Grupo_68400" data-name="Grupo 68400" transform="translate(27.914 25.822)">
              <g id="Grupo_68399" data-name="Grupo 68399" opacity="0.22">
                <path id="Trazado_134188" data-name="Trazado 134188" d="M937.517,349.412a35.5,35.5,0,0,1,66.161-18.82c2.294,3.913,8.531.643,6.234-3.275a43.071,43.071,0,0,0-46.046-20.4c-17.845,3.8-31.012,19.136-33.157,37.062a38.861,38.861,0,0,0-.232,5.227c.07,4.522,7.11,4.76,7.04.205Z" transform="translate(-930.47 -305.98)" fill="#fff"/>
              </g>
              <circle id="Elipse_4347" data-name="Elipse 4347" cx="4.638" cy="4.638" r="4.638" transform="translate(76.069 31.443) rotate(-7.528)" fill="#fff" opacity="0.31"/>
            </g>
          </g>
          <path id="Trazado_134189" data-name="Trazado 134189" d="M1292.942,593.257l11.226-18.881a1.47,1.47,0,0,0-.389-1.933l-.2-.146a1.47,1.47,0,0,0-2.146.442l-11.055,19.012a1.47,1.47,0,0,0,.557,2.024l.026.014A1.47,1.47,0,0,0,1292.942,593.257Z" transform="translate(-1151.243 -464.076)" fill="#d67086"/>
          <g id="Grupo_68402" data-name="Grupo 68402" transform="translate(18.037 19.089)">
            <path id="Trazado_134190" data-name="Trazado 134190" d="M1000.889,336.724a49.883,49.883,0,1,1-6.692-24.972,50.26,50.26,0,0,1,6.692,24.972,1.342,1.342,0,0,0,2.682,0,52.56,52.56,0,1,0-16.657,38.386,53.154,53.154,0,0,0,16.657-38.386A1.342,1.342,0,0,0,1000.889,336.724Z" transform="translate(-898.471 -284.168)" fill="#f7f7f7"/>
          </g>
        </g>
        <path id="Trazado_134191" data-name="Trazado 134191" d="M1348.469,597.036c1.894-4.973,4.638-14.8,6.216-19.575-3.456-11.625-10.569-31.043-11.307-31.256-4.311-1.248-8.154-2.39-12.451-3.631-.2-.057-1.459,6.372-1.657,6.314a9.169,9.169,0,0,1-.276-2.8v0l-.828-8.356a1.577,1.577,0,0,0-1.18-1.474c-2.518-.654-7.956-1.931-8.193-1.536-.087.145-.557,7.4-.947,9.472l-.908-.474-1.184-13.536s-9.405-2.37-9.59-1.934c-.217.513-2.309,12-2.309,12s-3.638,27.407-4.052,29.355c-.605,2.854-2.512,5.41-2.237,8.256.307,3.177,1.7,6.126,3.072,9.02l9.955,20.951c.724,4.74,1.483,15.6,2.574,20.265,12.272-2.477,24.6-4.351,38.258-8.7C1351.81,619.272,1347.652,599.18,1348.469,597.036Z" transform="translate(-1156.328 -433.786)" fill="#eac5b0"/>
        <g id="Grupo_68404" data-name="Grupo 68404" transform="translate(146.33 169.07)">
          <path id="Trazado_134192" data-name="Trazado 134192" d="M1330.9,813.167l-2.833-24.911,49.064-18.168,8.53,30.371-54.593,16.3Z" transform="translate(-1323.762 -770.088)" fill="#f7f7f7"/>
          <path id="Trazado_134193" data-name="Trazado 134193" d="M1377.908,817.74s-50.465,28.839-60.9,31.57l-2.882,67.9h85.806Z" transform="translate(-1314.125 -803.032)" fill="#aed3f2"/>
          <path id="Trazado_134194" data-name="Trazado 134194" d="M1349.522,853.928a2.8,2.8,0,1,1-1.986-3.421A2.8,2.8,0,0,1,1349.522,853.928Z" transform="translate(-1334.794 -825.621)" fill="#292949"/>
        </g>
        <path id="Trazado_134195" data-name="Trazado 134195" d="M1252.019,636.907l-6.545-10.321L1236,617.764s-1.841-5.319,4.1-5.466,9.932,4.817,12.561,8.756c1.156,1.733,6.741,6.775,11.077,9.86,5.672,4.035-.254,21.8-.254,21.8S1252.676,637.892,1252.019,636.907Z" transform="translate(-1113.597 -491.928)" fill="#eac5b0"/>
      </g>
    </g>
  </g>
</svg>
