<svg xmlns="http://www.w3.org/2000/svg" width="522.57" height="30.332" viewBox="0 0 522.57 30.332">
  <g id="img32" transform="translate(2988.241 11038.021)">
    <rect id="Rectángulo_33969" data-name="Rectángulo 33969" width="521.287" height="29.331" transform="translate(-2987.241 -11037.021)" fill="#f2f2f2"/>
    <line id="Línea_486" data-name="Línea 486" y2="24.43" transform="translate(-2770.156 -11037.021)" fill="none" stroke="#9d9d9d" stroke-miterlimit="10" stroke-width="2"/>
    <line id="Línea_508" data-name="Línea 508" y2="24.43" transform="translate(-2874.193 -11037.021)" fill="none" stroke="#9d9d9d" stroke-miterlimit="10" stroke-width="2"/>
    <line id="Línea_509" data-name="Línea 509" y2="24.43" transform="translate(-2987.24 -11037.021)" fill="none" stroke="#9d9d9d" stroke-miterlimit="10" stroke-width="2"/>
    <g id="Grupo_78848" data-name="Grupo 78848" transform="translate(-2708.421 -11037.021)">
      <path id="Rectángulo_33971" data-name="Rectángulo 33971" d="M0,0H172.183a0,0,0,0,1,0,0V17.526a6.9,6.9,0,0,1-6.9,6.9H6.9a6.9,6.9,0,0,1-6.9-6.9V0A0,0,0,0,1,0,0Z" transform="translate(32.414 0)" fill="#fff"/>
      <path id="Trazado_143771" data-name="Trazado 143771" d="M555.659,407.158H517.537v20.276a4.736,4.736,0,0,1-4.736,4.736H351.2a4.736,4.736,0,0,1-4.736-4.736V407.158h-33.56" transform="translate(-312.909 -407.158)" fill="none" stroke="#9d9d9d" stroke-miterlimit="10" stroke-width="2"/>
    </g>
    <path id="Trazado_143836" data-name="Trazado 143836" d="M.806,0V-7.874H1.848v3.9l3.91-3.9H7.17l-3.3,3.19L7.315,0H5.94l-2.8-3.985L1.848-2.729V0ZM11.784-.7a3.6,3.6,0,0,1-1.034.645A2.988,2.988,0,0,1,9.684.129,2.074,2.074,0,0,1,8.239-.33a1.516,1.516,0,0,1-.5-1.174,1.561,1.561,0,0,1,.191-.765,1.578,1.578,0,0,1,.5-.556,2.349,2.349,0,0,1,.7-.317,6.908,6.908,0,0,1,.859-.145A8.837,8.837,0,0,0,11.7-3.62q.005-.2.005-.252a1.067,1.067,0,0,0-.274-.833,1.618,1.618,0,0,0-1.1-.328,1.707,1.707,0,0,0-1.007.239,1.46,1.46,0,0,0-.481.846L7.9-4.077a2.342,2.342,0,0,1,.424-.98,1.86,1.86,0,0,1,.854-.575,3.809,3.809,0,0,1,1.294-.2,3.426,3.426,0,0,1,1.187.172,1.564,1.564,0,0,1,.671.432,1.521,1.521,0,0,1,.3.658,5.444,5.444,0,0,1,.048.892V-2.39a13.682,13.682,0,0,0,.062,1.705A2.151,2.151,0,0,0,12.987,0h-1.01A2.05,2.05,0,0,1,11.784-.7ZM11.7-2.863a7.093,7.093,0,0,1-1.579.365,3.653,3.653,0,0,0-.843.193A.841.841,0,0,0,8.9-1.99a.825.825,0,0,0-.134.459.823.823,0,0,0,.293.645,1.259,1.259,0,0,0,.857.258,1.994,1.994,0,0,0,.994-.244,1.5,1.5,0,0,0,.639-.669,2.335,2.335,0,0,0,.156-.967Zm-1.88-3.55.714-1.5h1.268l-1.182,1.5ZM14.169,0V-5.7h.87v.865a2.36,2.36,0,0,1,.615-.8,1.074,1.074,0,0,1,.62-.193,1.886,1.886,0,0,1,.994.312l-.333.9a1.383,1.383,0,0,0-.709-.209.921.921,0,0,0-.569.191,1.033,1.033,0,0,0-.36.529,3.766,3.766,0,0,0-.161,1.128V0Zm7.375,0V-.72a1.774,1.774,0,0,1-1.6.849,2.237,2.237,0,0,1-1.254-.376,2.472,2.472,0,0,1-.886-1.05,3.629,3.629,0,0,1-.314-1.55,4.056,4.056,0,0,1,.285-1.55,2.245,2.245,0,0,1,.854-1.066,2.283,2.283,0,0,1,1.273-.371,1.9,1.9,0,0,1,.918.218,1.92,1.92,0,0,1,.655.567V-7.874h.961V0ZM18.487-2.847a2.477,2.477,0,0,0,.462,1.638,1.393,1.393,0,0,0,1.09.542,1.367,1.367,0,0,0,1.077-.518,2.39,2.39,0,0,0,.443-1.582,2.682,2.682,0,0,0-.451-1.719A1.388,1.388,0,0,0,20-5.033a1.34,1.34,0,0,0-1.077.526A2.6,2.6,0,0,0,18.487-2.847Zm9.378,1.01,1,.124a2.437,2.437,0,0,1-.875,1.359,2.632,2.632,0,0,1-1.633.483,2.609,2.609,0,0,1-1.985-.771A3.012,3.012,0,0,1,23.638-2.8a3.152,3.152,0,0,1,.741-2.234A2.509,2.509,0,0,1,26.3-5.833a2.439,2.439,0,0,1,1.869.779A3.094,3.094,0,0,1,28.9-2.863q0,.086-.005.258H24.637a2.192,2.192,0,0,0,.532,1.439,1.583,1.583,0,0,0,1.192.5,1.479,1.479,0,0,0,.908-.279A1.854,1.854,0,0,0,27.865-1.837ZM24.691-3.4h3.185a1.932,1.932,0,0,0-.365-1.08,1.482,1.482,0,0,0-1.2-.559,1.536,1.536,0,0,0-1.12.446A1.764,1.764,0,0,0,24.691-3.4ZM29.434,0l2.084-2.965L29.589-5.7H30.8l.875,1.337q.247.381.4.639.236-.354.435-.628L33.467-5.7h1.155L32.651-3.019,34.772,0H33.585L32.415-1.772,32.1-2.25,30.6,0Z" transform="translate(-2734.442 -11021.247)" fill="#727272"/>
    <path id="Trazado_143837" data-name="Trazado 143837" d="M5.838-2.9l1.542.489A3.457,3.457,0,0,1,6.2-.491,3.363,3.363,0,0,1,4.109.134,3.387,3.387,0,0,1,1.531-.937a4.1,4.1,0,0,1-1.01-2.93A4.3,4.3,0,0,1,1.536-6.921,3.481,3.481,0,0,1,4.206-8.008a3.275,3.275,0,0,1,2.347.854A3.106,3.106,0,0,1,7.358-5.7l-1.574.376A1.669,1.669,0,0,0,5.2-6.295a1.67,1.67,0,0,0-1.077-.354A1.792,1.792,0,0,0,2.7-6.021a3.08,3.08,0,0,0-.545,2.036A3.3,3.3,0,0,0,2.7-1.858a1.744,1.744,0,0,0,1.4.634,1.593,1.593,0,0,0,1.09-.4A2.34,2.34,0,0,0,5.838-2.9Zm2.546-.038a3.086,3.086,0,0,1,.371-1.456A2.544,2.544,0,0,1,9.8-5.462a3.116,3.116,0,0,1,1.517-.371,2.848,2.848,0,0,1,2.122.841,2.9,2.9,0,0,1,.827,2.124,2.939,2.939,0,0,1-.835,2.146,2.823,2.823,0,0,1-2.1.851,3.312,3.312,0,0,1-1.5-.354A2.432,2.432,0,0,1,8.755-1.265,3.463,3.463,0,0,1,8.384-2.933Zm1.547.081a1.89,1.89,0,0,0,.4,1.3,1.28,1.28,0,0,0,.994.451,1.272,1.272,0,0,0,.991-.451,1.916,1.916,0,0,0,.4-1.311,1.881,1.881,0,0,0-.4-1.289,1.272,1.272,0,0,0-.991-.451,1.28,1.28,0,0,0-.994.451A1.89,1.89,0,0,0,9.931-2.852ZM15.34-5.7h1.391v.779a2.238,2.238,0,0,1,1.778-.908,1.915,1.915,0,0,1,.951.226,1.734,1.734,0,0,1,.661.682,2.635,2.635,0,0,1,.811-.682,1.99,1.99,0,0,1,.929-.226,2.07,2.07,0,0,1,1.063.255,1.563,1.563,0,0,1,.65.749,3.25,3.25,0,0,1,.156,1.182V0H22.22V-3.26a2.426,2.426,0,0,0-.156-1.1.715.715,0,0,0-.645-.322,1.029,1.029,0,0,0-.6.193,1.073,1.073,0,0,0-.4.567A4.077,4.077,0,0,0,20.3-2.739V0H18.788V-3.126A4.336,4.336,0,0,0,18.708-4.2a.686.686,0,0,0-.25-.36A.79.79,0,0,0,18-4.678a1.1,1.1,0,0,0-.628.188,1.031,1.031,0,0,0-.4.542,4.032,4.032,0,0,0-.121,1.176V0H15.34Zm9.851,0H26.6v.838a2.106,2.106,0,0,1,.741-.7,2.043,2.043,0,0,1,1.037-.269,2.175,2.175,0,0,1,1.687.779,3.152,3.152,0,0,1,.693,2.17,3.248,3.248,0,0,1-.7,2.221,2.175,2.175,0,0,1-1.692.792,1.922,1.922,0,0,1-.857-.188A2.888,2.888,0,0,1,26.7-.7V2.17H25.19Zm1.493,2.755a2.2,2.2,0,0,0,.381,1.421,1.166,1.166,0,0,0,.929.459,1.091,1.091,0,0,0,.875-.422,2.172,2.172,0,0,0,.349-1.383,2.062,2.062,0,0,0-.36-1.332,1.113,1.113,0,0,0-.892-.435,1.158,1.158,0,0,0-.918.427A1.9,1.9,0,0,0,26.684-2.949ZM33.4,0H31.888V-5.7h1.4v.811a2.438,2.438,0,0,1,.647-.757,1.191,1.191,0,0,1,.653-.183,1.916,1.916,0,0,1,.994.285l-.467,1.316a1.324,1.324,0,0,0-.709-.247.838.838,0,0,0-.537.175,1.193,1.193,0,0,0-.346.631A8.965,8.965,0,0,0,33.4-1.762Zm2.487-2.933a3.086,3.086,0,0,1,.371-1.456A2.544,2.544,0,0,1,37.3-5.462a3.116,3.116,0,0,1,1.517-.371,2.848,2.848,0,0,1,2.122.841,2.9,2.9,0,0,1,.827,2.124,2.939,2.939,0,0,1-.835,2.146,2.823,2.823,0,0,1-2.1.851,3.312,3.312,0,0,1-1.5-.354,2.432,2.432,0,0,1-1.082-1.039A3.463,3.463,0,0,1,35.884-2.933Zm1.547.081a1.89,1.89,0,0,0,.4,1.3,1.28,1.28,0,0,0,.994.451,1.272,1.272,0,0,0,.991-.451,1.916,1.916,0,0,0,.4-1.311,1.881,1.881,0,0,0-.4-1.289,1.272,1.272,0,0,0-.991-.451,1.28,1.28,0,0,0-.994.451A1.89,1.89,0,0,0,37.431-2.852ZM42.888,0V-7.874H44.4v2.836a2.136,2.136,0,0,1,1.654-.795,2.224,2.224,0,0,1,1.724.755,3.125,3.125,0,0,1,.682,2.167,3.3,3.3,0,0,1-.7,2.25,2.17,2.17,0,0,1-1.689.79,2.088,2.088,0,0,1-.964-.244,2.305,2.305,0,0,1-.819-.722V0Zm1.5-2.976a2.426,2.426,0,0,0,.279,1.311,1.194,1.194,0,0,0,1.042.6,1.068,1.068,0,0,0,.851-.427,2.1,2.1,0,0,0,.352-1.345,2.228,2.228,0,0,0-.354-1.41,1.122,1.122,0,0,0-.908-.432,1.137,1.137,0,0,0-.9.422A1.936,1.936,0,0,0,44.387-2.976ZM50.8-3.964l-1.37-.247a2.133,2.133,0,0,1,.795-1.225,2.909,2.909,0,0,1,1.676-.4,3.612,3.612,0,0,1,1.5.239,1.5,1.5,0,0,1,.7.607,3.112,3.112,0,0,1,.2,1.351l-.016,1.762a6.116,6.116,0,0,0,.073,1.109A3.237,3.237,0,0,0,54.629,0H53.136q-.059-.15-.145-.446-.038-.134-.054-.177a2.721,2.721,0,0,1-.827.564,2.369,2.369,0,0,1-.94.188,1.944,1.944,0,0,1-1.388-.478,1.589,1.589,0,0,1-.508-1.208,1.622,1.622,0,0,1,.231-.862A1.509,1.509,0,0,1,50.153-3a5.058,5.058,0,0,1,1.2-.352,8.223,8.223,0,0,0,1.466-.371v-.15a.781.781,0,0,0-.215-.62,1.287,1.287,0,0,0-.811-.185,1.08,1.08,0,0,0-.628.158A1.1,1.1,0,0,0,50.8-3.964Zm2.02,1.225a9.434,9.434,0,0,1-.918.231,2.767,2.767,0,0,0-.822.263.629.629,0,0,0-.3.532.74.74,0,0,0,.236.548.825.825,0,0,0,.6.231A1.307,1.307,0,0,0,52.4-1.2a.945.945,0,0,0,.36-.5,2.98,2.98,0,0,0,.059-.736ZM60.978,0H59.469V-2.911a4.5,4.5,0,0,0-.1-1.2.838.838,0,0,0-.314-.422.9.9,0,0,0-.524-.15,1.21,1.21,0,0,0-.7.215,1.082,1.082,0,0,0-.427.569,4.921,4.921,0,0,0-.115,1.311V0H55.779V-5.7h1.4v.838a2.284,2.284,0,0,1,1.88-.967,2.265,2.265,0,0,1,.913.18,1.53,1.53,0,0,1,.626.459,1.664,1.664,0,0,1,.3.634,4.714,4.714,0,0,1,.083,1.015Zm4.146-5.7v1.2H64.093v2.3a5.718,5.718,0,0,0,.03.814.332.332,0,0,0,.134.191.426.426,0,0,0,.255.075,1.952,1.952,0,0,0,.607-.145L65.248-.1a3,3,0,0,1-1.192.226,1.891,1.891,0,0,1-.736-.137,1.074,1.074,0,0,1-.481-.354,1.4,1.4,0,0,1-.212-.588,7.316,7.316,0,0,1-.048-1.063V-4.5h-.693V-5.7h.693V-6.837l1.515-.881V-5.7Zm4.351,3.889,1.5.252A2.467,2.467,0,0,1,70.063-.3,2.69,2.69,0,0,1,68.5.129a2.552,2.552,0,0,1-2.2-.972,3.266,3.266,0,0,1-.564-1.966,3.15,3.15,0,0,1,.741-2.221,2.441,2.441,0,0,1,1.875-.8,2.532,2.532,0,0,1,2.009.841,3.719,3.719,0,0,1,.7,2.575H67.278a1.527,1.527,0,0,0,.365,1.045,1.142,1.142,0,0,0,.87.373.924.924,0,0,0,.6-.193A1.194,1.194,0,0,0,69.475-1.815Zm.086-1.525a1.453,1.453,0,0,0-.338-1,1.038,1.038,0,0,0-.784-.341,1.048,1.048,0,0,0-.816.36,1.393,1.393,0,0,0-.317.978ZM80.577,0h-1.4V-.838a2.265,2.265,0,0,1-.824.728,2.115,2.115,0,0,1-.959.239,2.173,2.173,0,0,1-1.684-.792,3.223,3.223,0,0,1-.7-2.21,3.185,3.185,0,0,1,.682-2.2,2.224,2.224,0,0,1,1.724-.755,2.136,2.136,0,0,1,1.654.795V-7.874h1.509ZM76.549-2.976A2.612,2.612,0,0,0,76.8-1.654a1.141,1.141,0,0,0,1.021.591,1.111,1.111,0,0,0,.886-.443,2.045,2.045,0,0,0,.365-1.324,2.238,2.238,0,0,0-.354-1.415,1.122,1.122,0,0,0-.908-.432,1.134,1.134,0,0,0-.9.427A1.929,1.929,0,0,0,76.549-2.976Zm8.819,1.16,1.5.252A2.467,2.467,0,0,1,85.956-.3a2.69,2.69,0,0,1-1.566.432,2.552,2.552,0,0,1-2.2-.972,3.266,3.266,0,0,1-.564-1.966,3.15,3.15,0,0,1,.741-2.221,2.441,2.441,0,0,1,1.875-.8,2.532,2.532,0,0,1,2.009.841,3.719,3.719,0,0,1,.7,2.575H83.171a1.527,1.527,0,0,0,.365,1.045,1.142,1.142,0,0,0,.87.373.924.924,0,0,0,.6-.193A1.194,1.194,0,0,0,85.368-1.815Zm.086-1.525a1.453,1.453,0,0,0-.338-1,1.038,1.038,0,0,0-.784-.341,1.048,1.048,0,0,0-.816.36,1.393,1.393,0,0,0-.317.978Zm10.758-.677-1.488.269a1.08,1.08,0,0,0-.341-.671,1.03,1.03,0,0,0-.69-.226,1.128,1.128,0,0,0-.9.389,2,2,0,0,0-.336,1.3A2.308,2.308,0,0,0,92.8-1.52a1.12,1.12,0,0,0,.916.419,1.017,1.017,0,0,0,.7-.244,1.47,1.47,0,0,0,.387-.841l1.482.252A2.631,2.631,0,0,1,95.4-.392a2.743,2.743,0,0,1-1.756.521,2.611,2.611,0,0,1-2-.79,3.061,3.061,0,0,1-.744-2.186,3.068,3.068,0,0,1,.747-2.2,2.652,2.652,0,0,1,2.02-.787,2.755,2.755,0,0,1,1.657.448A2.485,2.485,0,0,1,96.212-4.018Zm1.144-2.46v-1.4h1.509v1.4Zm0,6.478V-5.7h1.509V0Zm6.359-1.815,1.5.252A2.467,2.467,0,0,1,104.3-.3a2.69,2.69,0,0,1-1.566.432,2.552,2.552,0,0,1-2.2-.972,3.266,3.266,0,0,1-.564-1.966,3.15,3.15,0,0,1,.741-2.221,2.441,2.441,0,0,1,1.875-.8,2.532,2.532,0,0,1,2.009.841,3.719,3.719,0,0,1,.7,2.575h-3.781a1.527,1.527,0,0,0,.365,1.045,1.142,1.142,0,0,0,.87.373.924.924,0,0,0,.6-.193A1.194,1.194,0,0,0,103.716-1.815Zm.086-1.525a1.453,1.453,0,0,0-.338-1,1.038,1.038,0,0,0-.784-.341,1.048,1.048,0,0,0-.816.36,1.393,1.393,0,0,0-.317.978ZM107.975,0h-1.509V-5.7h1.4v.811a2.438,2.438,0,0,1,.647-.757,1.191,1.191,0,0,1,.653-.183,1.916,1.916,0,0,1,.994.285l-.467,1.316a1.324,1.324,0,0,0-.709-.247.838.838,0,0,0-.537.175,1.193,1.193,0,0,0-.346.631,8.966,8.966,0,0,0-.126,1.912Zm4.281,0h-1.509V-5.7h1.4v.811a2.438,2.438,0,0,1,.647-.757,1.191,1.191,0,0,1,.653-.183,1.916,1.916,0,0,1,.994.285l-.467,1.316a1.324,1.324,0,0,0-.709-.247.838.838,0,0,0-.537.175,1.193,1.193,0,0,0-.346.631,8.966,8.966,0,0,0-.126,1.912ZM118.4-1.815l1.5.252a2.467,2.467,0,0,1-.916,1.26,2.69,2.69,0,0,1-1.566.432,2.552,2.552,0,0,1-2.2-.972,3.266,3.266,0,0,1-.564-1.966,3.15,3.15,0,0,1,.741-2.221,2.441,2.441,0,0,1,1.875-.8,2.532,2.532,0,0,1,2.009.841,3.719,3.719,0,0,1,.7,2.575H116.2a1.527,1.527,0,0,0,.365,1.045,1.142,1.142,0,0,0,.87.373.924.924,0,0,0,.6-.193A1.194,1.194,0,0,0,118.4-1.815Zm.086-1.525a1.453,1.453,0,0,0-.338-1,1.038,1.038,0,0,0-.784-.341,1.048,1.048,0,0,0-.816.36,1.393,1.393,0,0,0-.317.978Z" transform="translate(-2662.898 -11021.247)" fill="#409165"/>
    <path id="Trazado_143834" data-name="Trazado 143834" d="M-.016,0,3.008-7.874H4.13L7.353,0H6.166L5.248-2.385H1.955L1.09,0ZM2.256-3.233H4.925L4.1-5.414q-.376-.994-.559-1.633a10.038,10.038,0,0,1-.424,1.5ZM8.051,0V-5.7h.87v.865a2.36,2.36,0,0,1,.615-.8,1.074,1.074,0,0,1,.62-.193,1.886,1.886,0,0,1,.994.312l-.333.9a1.383,1.383,0,0,0-.709-.209.921.921,0,0,0-.569.191,1.033,1.033,0,0,0-.36.529,3.766,3.766,0,0,0-.161,1.128V0Zm5.785-.865.14.854a3.586,3.586,0,0,1-.73.086,1.654,1.654,0,0,1-.816-.167.932.932,0,0,1-.408-.438A3.462,3.462,0,0,1,11.9-1.67V-4.952h-.709V-5.7H11.9V-7.117l.961-.58V-5.7h.972v.752h-.972v3.335a1.685,1.685,0,0,0,.051.532.4.4,0,0,0,.167.188.643.643,0,0,0,.33.07A3.145,3.145,0,0,0,13.836-.865ZM15.12,0V-5.7h.967V0Zm-.048-6.413.714-1.5h1.268l-1.182,1.5ZM21.56-2.089l.951.124a2.466,2.466,0,0,1-.8,1.539,2.324,2.324,0,0,1-1.576.556,2.449,2.449,0,0,1-1.883-.765,3.105,3.105,0,0,1-.712-2.194,3.97,3.97,0,0,1,.306-1.617,2.135,2.135,0,0,1,.932-1.039,2.765,2.765,0,0,1,1.362-.346,2.367,2.367,0,0,1,1.52.47,2.155,2.155,0,0,1,.757,1.335l-.94.145A1.561,1.561,0,0,0,21-4.748a1.23,1.23,0,0,0-.824-.29,1.5,1.5,0,0,0-1.187.524,2.486,2.486,0,0,0-.457,1.657,2.57,2.57,0,0,0,.44,1.67,1.433,1.433,0,0,0,1.149.521,1.355,1.355,0,0,0,.951-.349A1.733,1.733,0,0,0,21.56-2.089ZM27.076,0V-.838a2.088,2.088,0,0,1-1.81.967,2.307,2.307,0,0,1-.943-.193,1.553,1.553,0,0,1-.65-.486,1.822,1.822,0,0,1-.3-.717,4.909,4.909,0,0,1-.059-.9V-5.7h.967v3.164a5.638,5.638,0,0,0,.059,1.021,1.008,1.008,0,0,0,.387.6,1.2,1.2,0,0,0,.73.218,1.591,1.591,0,0,0,.816-.223,1.239,1.239,0,0,0,.54-.607,3.046,3.046,0,0,0,.158-1.115V-5.7h.967V0Zm2.358,0V-7.874H30.4V0Zm2.105-2.852A2.94,2.94,0,0,1,32.42-5.2a2.654,2.654,0,0,1,1.794-.634,2.559,2.559,0,0,1,1.923.771,2.932,2.932,0,0,1,.747,2.13,3.774,3.774,0,0,1-.33,1.732,2.338,2.338,0,0,1-.961.98,2.8,2.8,0,0,1-1.378.349,2.564,2.564,0,0,1-1.936-.768A3.068,3.068,0,0,1,31.539-2.852Zm.994,0a2.43,2.43,0,0,0,.478,1.641,1.532,1.532,0,0,0,1.2.545,1.523,1.523,0,0,0,1.2-.548,2.487,2.487,0,0,0,.478-1.67,2.357,2.357,0,0,0-.481-1.6,1.529,1.529,0,0,0-1.2-.545,1.536,1.536,0,0,0-1.2.542A2.419,2.419,0,0,0,32.533-2.852ZM37.63-1.7l.956-.15a1.336,1.336,0,0,0,.448.881,1.563,1.563,0,0,0,1.029.306,1.511,1.511,0,0,0,.988-.271.811.811,0,0,0,.322-.636.587.587,0,0,0-.285-.516,4.193,4.193,0,0,0-.988-.328,9.018,9.018,0,0,1-1.474-.465A1.428,1.428,0,0,1,38-3.424a1.437,1.437,0,0,1-.212-.765,1.469,1.469,0,0,1,.175-.706,1.565,1.565,0,0,1,.475-.54,1.993,1.993,0,0,1,.615-.282,2.924,2.924,0,0,1,.835-.115,3.3,3.3,0,0,1,1.179.193,1.6,1.6,0,0,1,.749.524,2.046,2.046,0,0,1,.333.884l-.945.129a1.034,1.034,0,0,0-.373-.687,1.365,1.365,0,0,0-.873-.247,1.581,1.581,0,0,0-.951.22.641.641,0,0,0-.285.516.534.534,0,0,0,.118.338.853.853,0,0,0,.371.258q.145.054.854.247A11.889,11.889,0,0,1,41.5-3.01a1.452,1.452,0,0,1,.636.508,1.417,1.417,0,0,1,.231.827,1.623,1.623,0,0,1-.282.91,1.823,1.823,0,0,1-.814.661,2.962,2.962,0,0,1-1.2.234,2.68,2.68,0,0,1-1.695-.462A2.148,2.148,0,0,1,37.63-1.7Z" transform="translate(-2955.172 -11020.563)" fill="#727272"/>
    <path id="Trazado_143835" data-name="Trazado 143835" d="M.849,0V-7.874H3.561a6.579,6.579,0,0,1,1.4.113A2.667,2.667,0,0,1,6.118-7.2,3.2,3.2,0,0,1,7.05-5.852,5.282,5.282,0,0,1,7.358-3.98a5.5,5.5,0,0,1-.209,1.59,3.857,3.857,0,0,1-.537,1.147,2.853,2.853,0,0,1-.717.714,2.922,2.922,0,0,1-.94.395A5.365,5.365,0,0,1,3.69,0ZM1.891-.929H3.572a4.08,4.08,0,0,0,1.222-.145A1.748,1.748,0,0,0,5.5-1.482a2.484,2.484,0,0,0,.577-1A4.871,4.871,0,0,0,6.284-4a3.664,3.664,0,0,0-.406-1.9,2.041,2.041,0,0,0-.986-.889,4.074,4.074,0,0,0-1.348-.161H1.891Zm10.5.226a3.6,3.6,0,0,1-1.034.645,2.988,2.988,0,0,1-1.066.188A2.074,2.074,0,0,1,8.846-.33a1.516,1.516,0,0,1-.5-1.174,1.561,1.561,0,0,1,.191-.765,1.578,1.578,0,0,1,.5-.556,2.349,2.349,0,0,1,.7-.317,6.908,6.908,0,0,1,.859-.145,8.837,8.837,0,0,0,1.724-.333q.005-.2.005-.252a1.067,1.067,0,0,0-.274-.833,1.618,1.618,0,0,0-1.1-.328,1.707,1.707,0,0,0-1.007.239,1.46,1.46,0,0,0-.481.846l-.945-.129a2.342,2.342,0,0,1,.424-.98,1.86,1.86,0,0,1,.854-.575,3.809,3.809,0,0,1,1.294-.2,3.426,3.426,0,0,1,1.187.172,1.564,1.564,0,0,1,.671.432,1.521,1.521,0,0,1,.3.658,5.444,5.444,0,0,1,.048.892V-2.39A13.682,13.682,0,0,0,13.35-.685,2.151,2.151,0,0,0,13.594,0h-1.01A2.05,2.05,0,0,1,12.391-.7Zm-.081-2.159a7.093,7.093,0,0,1-1.579.365,3.653,3.653,0,0,0-.843.193.841.841,0,0,0-.381.314.825.825,0,0,0-.134.459.823.823,0,0,0,.293.645,1.259,1.259,0,0,0,.857.258,1.994,1.994,0,0,0,.994-.244,1.5,1.5,0,0,0,.639-.669,2.335,2.335,0,0,0,.156-.967Zm4.587,2,.14.854a3.586,3.586,0,0,1-.73.086,1.654,1.654,0,0,1-.816-.167.932.932,0,0,1-.408-.438,3.462,3.462,0,0,1-.118-1.141V-4.952h-.709V-5.7h.709V-7.117l.961-.58V-5.7H16.9v.752h-.972v3.335a1.685,1.685,0,0,0,.051.532.4.4,0,0,0,.167.188.643.643,0,0,0,.33.07A3.145,3.145,0,0,0,16.9-.865Zm.585-1.987A2.94,2.94,0,0,1,18.364-5.2a2.654,2.654,0,0,1,1.794-.634,2.559,2.559,0,0,1,1.923.771,2.932,2.932,0,0,1,.747,2.13A3.774,3.774,0,0,1,22.5-1.2a2.338,2.338,0,0,1-.961.98,2.8,2.8,0,0,1-1.378.349,2.564,2.564,0,0,1-1.936-.768A3.068,3.068,0,0,1,17.483-2.852Zm.994,0a2.43,2.43,0,0,0,.478,1.641,1.532,1.532,0,0,0,1.2.545,1.523,1.523,0,0,0,1.2-.548,2.487,2.487,0,0,0,.478-1.67,2.357,2.357,0,0,0-.481-1.6,1.529,1.529,0,0,0-1.2-.545,1.536,1.536,0,0,0-1.2.542A2.419,2.419,0,0,0,18.477-2.852Zm5.1,1.149.956-.15a1.336,1.336,0,0,0,.448.881,1.563,1.563,0,0,0,1.029.306A1.511,1.511,0,0,0,27-.937a.811.811,0,0,0,.322-.636.587.587,0,0,0-.285-.516,4.193,4.193,0,0,0-.988-.328,9.018,9.018,0,0,1-1.474-.465,1.428,1.428,0,0,1-.623-.542,1.437,1.437,0,0,1-.212-.765,1.469,1.469,0,0,1,.175-.706,1.565,1.565,0,0,1,.475-.54A1.993,1.993,0,0,1,25-5.718a2.924,2.924,0,0,1,.835-.115,3.3,3.3,0,0,1,1.179.193,1.6,1.6,0,0,1,.749.524,2.046,2.046,0,0,1,.333.884l-.945.129a1.034,1.034,0,0,0-.373-.687,1.365,1.365,0,0,0-.873-.247,1.581,1.581,0,0,0-.951.22.641.641,0,0,0-.285.516.534.534,0,0,0,.118.338.853.853,0,0,0,.371.258q.145.054.854.247a11.889,11.889,0,0,1,1.431.448,1.452,1.452,0,0,1,.636.508,1.417,1.417,0,0,1,.231.827,1.623,1.623,0,0,1-.282.91,1.823,1.823,0,0,1-.814.661,2.962,2.962,0,0,1-1.2.234,2.68,2.68,0,0,1-1.695-.462A2.148,2.148,0,0,1,23.574-1.7Z" transform="translate(-2838.479 -11020.563)" fill="#727272"/>
    <path id="Trazado_143773" data-name="Trazado 143773" d="M-196.285,0H323.56" transform="translate(-2789.513 -11008.346)" fill="none" stroke="#9d9d9d" stroke-width="1"/>
    <rect id="Rectángulo_33974" data-name="Rectángulo 33974" width="1.733" height="11.366" transform="translate(-2492.99 -11023.649) rotate(-90)" fill="#606060"/>
    <path id="Trazado_143838" data-name="Trazado 143838" d="M0,0H1.733V11.366H0Z" transform="translate(-2488.174 -11030.198)" fill="#606060"/>
    <path id="Trazado_143772" data-name="Trazado 143772" d="M-7305.291-1424.722H-7006.8" transform="translate(4318.05 -9612.299)" fill="none" stroke="#9d9d9d" stroke-width="2"/>
  </g>
</svg>
