<svg xmlns="http://www.w3.org/2000/svg" width="345.616" height="64.635" viewBox="0 0 345.616 64.635">
  <g id="img33" transform="translate(5230.033 7970.635)">
    <g id="Grupo_78861" data-name="Grupo 78861" transform="translate(-5230.033 -7970.635)">
      <g id="Grupo_78860" data-name="Grupo 78860" transform="translate(0 0)">
        <g id="Rectángulo_33977" data-name="Rectángulo 33977" fill="#fff" stroke="#707070" stroke-width="1">
          <rect width="345.616" height="64.635" stroke="none"/>
          <rect x="0.5" y="0.5" width="344.616" height="63.635" fill="none"/>
        </g>
      </g>
    </g>
    <path id="Trazado_143840" data-name="Trazado 143840" d="M5.838-2.9l1.542.489A3.457,3.457,0,0,1,6.2-.491,3.363,3.363,0,0,1,4.109.134,3.387,3.387,0,0,1,1.531-.937a4.1,4.1,0,0,1-1.01-2.93A4.3,4.3,0,0,1,1.536-6.921,3.481,3.481,0,0,1,4.206-8.008a3.275,3.275,0,0,1,2.347.854A3.106,3.106,0,0,1,7.358-5.7l-1.574.376A1.669,1.669,0,0,0,5.2-6.295a1.67,1.67,0,0,0-1.077-.354A1.792,1.792,0,0,0,2.7-6.021a3.08,3.08,0,0,0-.545,2.036A3.3,3.3,0,0,0,2.7-1.858a1.744,1.744,0,0,0,1.4.634,1.593,1.593,0,0,0,1.09-.4A2.34,2.34,0,0,0,5.838-2.9Zm2.546-.038a3.086,3.086,0,0,1,.371-1.456A2.544,2.544,0,0,1,9.8-5.462a3.116,3.116,0,0,1,1.517-.371,2.848,2.848,0,0,1,2.122.841,2.9,2.9,0,0,1,.827,2.124,2.939,2.939,0,0,1-.835,2.146,2.823,2.823,0,0,1-2.1.851,3.312,3.312,0,0,1-1.5-.354A2.432,2.432,0,0,1,8.755-1.265,3.463,3.463,0,0,1,8.384-2.933Zm1.547.081a1.89,1.89,0,0,0,.4,1.3,1.28,1.28,0,0,0,.994.451,1.272,1.272,0,0,0,.991-.451,1.916,1.916,0,0,0,.4-1.311,1.881,1.881,0,0,0-.4-1.289,1.272,1.272,0,0,0-.991-.451,1.28,1.28,0,0,0-.994.451A1.89,1.89,0,0,0,9.931-2.852Zm.634-3.55.741-1.606H13L11.521-6.4ZM20.684,0h-1.4V-.838a2.265,2.265,0,0,1-.824.728A2.115,2.115,0,0,1,17.5.129a2.173,2.173,0,0,1-1.684-.792,3.223,3.223,0,0,1-.7-2.21,3.185,3.185,0,0,1,.682-2.2,2.224,2.224,0,0,1,1.724-.755,2.136,2.136,0,0,1,1.654.795V-7.874h1.509ZM16.656-2.976a2.612,2.612,0,0,0,.252,1.321,1.141,1.141,0,0,0,1.021.591,1.111,1.111,0,0,0,.886-.443,2.045,2.045,0,0,0,.365-1.324,2.238,2.238,0,0,0-.354-1.415,1.122,1.122,0,0,0-.908-.432,1.134,1.134,0,0,0-.9.427A1.929,1.929,0,0,0,16.656-2.976Zm5.516-3.5v-1.4h1.509v1.4Zm0,6.478V-5.7h1.509V0Zm2.917.376,1.724.209a.589.589,0,0,0,.2.414,1.135,1.135,0,0,0,.677.161,1.757,1.757,0,0,0,.886-.177.73.73,0,0,0,.3-.381,2.292,2.292,0,0,0,.07-.693V-.924A2.042,2.042,0,0,1,27.237,0a2.1,2.1,0,0,1-1.821-.972,3.3,3.3,0,0,1-.526-1.912,3.145,3.145,0,0,1,.69-2.191A2.227,2.227,0,0,1,27.3-5.833a2.089,2.089,0,0,1,1.746.929v-.8h1.413V-.585A5.1,5.1,0,0,1,30.288.924a1.87,1.87,0,0,1-.467.784,2.067,2.067,0,0,1-.8.446,4.227,4.227,0,0,1-1.27.161,3.288,3.288,0,0,1-2.057-.5,1.559,1.559,0,0,1-.607-1.26Q25.083.483,25.088.376ZM26.437-2.97a2.057,2.057,0,0,0,.352,1.329,1.088,1.088,0,0,0,.867.422,1.2,1.2,0,0,0,.935-.432,1.885,1.885,0,0,0,.381-1.281,2,2,0,0,0-.365-1.316,1.161,1.161,0,0,0-.924-.43,1.114,1.114,0,0,0-.894.422A1.977,1.977,0,0,0,26.437-2.97Zm5.162.038a3.086,3.086,0,0,1,.371-1.456,2.544,2.544,0,0,1,1.05-1.074,3.116,3.116,0,0,1,1.517-.371,2.848,2.848,0,0,1,2.122.841,2.9,2.9,0,0,1,.827,2.124A2.939,2.939,0,0,1,36.65-.722a2.823,2.823,0,0,1-2.1.851,3.312,3.312,0,0,1-1.5-.354,2.432,2.432,0,0,1-1.082-1.039A3.463,3.463,0,0,1,31.6-2.933Zm1.547.081a1.89,1.89,0,0,0,.4,1.3,1.28,1.28,0,0,0,.994.451,1.272,1.272,0,0,0,.991-.451,1.916,1.916,0,0,0,.4-1.311,1.881,1.881,0,0,0-.4-1.289,1.272,1.272,0,0,0-.991-.451,1.28,1.28,0,0,0-.994.451A1.89,1.89,0,0,0,33.145-2.852Z" transform="translate(-5206.124 -7918.923)" fill="#12263f"/>
    <path id="Trazado_143842" data-name="Trazado 143842" d="M.795-7.874H3.7a5.674,5.674,0,0,1,1.5.15A2.633,2.633,0,0,1,6.386-7a3.44,3.44,0,0,1,.752,1.276A5.811,5.811,0,0,1,7.4-3.862a5.175,5.175,0,0,1-.242,1.676A3.472,3.472,0,0,1,6.311-.795a2.8,2.8,0,0,1-1.117.628A4.81,4.81,0,0,1,3.787,0H.795Zm1.59,1.332v5.215H3.572A4.332,4.332,0,0,0,4.533-1.4a1.467,1.467,0,0,0,.642-.328,1.667,1.667,0,0,0,.416-.76,5.137,5.137,0,0,0,.161-1.442,4.7,4.7,0,0,0-.161-1.4A1.8,1.8,0,0,0,5.14-6.1,1.513,1.513,0,0,0,4.4-6.467,7.208,7.208,0,0,0,3.1-6.542Zm9.652,4.727,1.5.252A2.467,2.467,0,0,1,12.625-.3a2.69,2.69,0,0,1-1.566.432,2.552,2.552,0,0,1-2.2-.972,3.266,3.266,0,0,1-.564-1.966A3.15,3.15,0,0,1,9.034-5.03a2.441,2.441,0,0,1,1.875-.8,2.532,2.532,0,0,1,2.009.841,3.719,3.719,0,0,1,.7,2.575H9.84a1.527,1.527,0,0,0,.365,1.045,1.142,1.142,0,0,0,.87.373.924.924,0,0,0,.6-.193A1.194,1.194,0,0,0,12.037-1.815Zm.086-1.525a1.453,1.453,0,0,0-.338-1A1.038,1.038,0,0,0,11-4.678a1.048,1.048,0,0,0-.816.36,1.393,1.393,0,0,0-.317.978ZM10.194-6.4l.741-1.606h1.692L11.15-6.4ZM14.787,0V-7.874H16.3v2.836a2.136,2.136,0,0,1,1.654-.795,2.224,2.224,0,0,1,1.724.755,3.125,3.125,0,0,1,.682,2.167,3.3,3.3,0,0,1-.7,2.25,2.17,2.17,0,0,1-1.689.79,2.088,2.088,0,0,1-.964-.244,2.305,2.305,0,0,1-.819-.722V0Zm1.5-2.976a2.426,2.426,0,0,0,.279,1.311,1.194,1.194,0,0,0,1.042.6,1.068,1.068,0,0,0,.851-.427,2.1,2.1,0,0,0,.352-1.345,2.228,2.228,0,0,0-.354-1.41,1.122,1.122,0,0,0-.908-.432,1.137,1.137,0,0,0-.9.422A1.936,1.936,0,0,0,16.285-2.976Zm5.285-3.5v-1.4H23.08v1.4ZM21.57,0V-5.7H23.08V0Zm5.672-5.7v1.2H26.211v2.3a5.718,5.718,0,0,0,.03.814.332.332,0,0,0,.134.191.426.426,0,0,0,.255.075,1.952,1.952,0,0,0,.607-.145L27.366-.1a3,3,0,0,1-1.192.226,1.891,1.891,0,0,1-.736-.137,1.074,1.074,0,0,1-.481-.354,1.4,1.4,0,0,1-.212-.588A7.316,7.316,0,0,1,24.7-2.014V-4.5H24V-5.7H24.7V-6.837l1.515-.881V-5.7Zm.7,2.771a3.086,3.086,0,0,1,.371-1.456,2.544,2.544,0,0,1,1.05-1.074,3.116,3.116,0,0,1,1.517-.371A2.848,2.848,0,0,1,33-4.992a2.9,2.9,0,0,1,.827,2.124,2.939,2.939,0,0,1-.835,2.146,2.823,2.823,0,0,1-2.1.851,3.312,3.312,0,0,1-1.5-.354,2.432,2.432,0,0,1-1.082-1.039A3.463,3.463,0,0,1,27.94-2.933Zm1.547.081a1.89,1.89,0,0,0,.4,1.3,1.28,1.28,0,0,0,.994.451,1.272,1.272,0,0,0,.991-.451,1.916,1.916,0,0,0,.4-1.311,1.881,1.881,0,0,0-.4-1.289,1.272,1.272,0,0,0-.991-.451,1.28,1.28,0,0,0-.994.451A1.89,1.89,0,0,0,29.487-2.852Z" transform="translate(-5026.382 -7918.923)" fill="#12263f"/>
    <path id="Trazado_143841" data-name="Trazado 143841" d="M.816,0V-7.874H2.363L5.586-2.616V-7.874H7.063V0h-1.6L2.293-5.135V0ZM8.384-2.933a3.086,3.086,0,0,1,.371-1.456A2.544,2.544,0,0,1,9.8-5.462a3.116,3.116,0,0,1,1.517-.371,2.848,2.848,0,0,1,2.122.841,2.9,2.9,0,0,1,.827,2.124,2.939,2.939,0,0,1-.835,2.146,2.823,2.823,0,0,1-2.1.851,3.312,3.312,0,0,1-1.5-.354A2.432,2.432,0,0,1,8.755-1.265,3.463,3.463,0,0,1,8.384-2.933Zm1.547.081a1.89,1.89,0,0,0,.4,1.3,1.28,1.28,0,0,0,.994.451,1.272,1.272,0,0,0,.991-.451,1.916,1.916,0,0,0,.4-1.311,1.881,1.881,0,0,0-.4-1.289,1.272,1.272,0,0,0-.991-.451,1.28,1.28,0,0,0-.994.451A1.89,1.89,0,0,0,9.931-2.852ZM15.34-5.7h1.391v.779a2.238,2.238,0,0,1,1.778-.908,1.915,1.915,0,0,1,.951.226,1.734,1.734,0,0,1,.661.682,2.635,2.635,0,0,1,.811-.682,1.99,1.99,0,0,1,.929-.226,2.07,2.07,0,0,1,1.063.255,1.563,1.563,0,0,1,.65.749,3.25,3.25,0,0,1,.156,1.182V0H22.22V-3.26a2.426,2.426,0,0,0-.156-1.1.715.715,0,0,0-.645-.322,1.029,1.029,0,0,0-.6.193,1.073,1.073,0,0,0-.4.567A4.077,4.077,0,0,0,20.3-2.739V0H18.788V-3.126A4.336,4.336,0,0,0,18.708-4.2a.686.686,0,0,0-.25-.36A.79.79,0,0,0,18-4.678a1.1,1.1,0,0,0-.628.188,1.031,1.031,0,0,0-.4.542,4.032,4.032,0,0,0-.121,1.176V0H15.34ZM25.169,0V-7.874h1.509v2.836a2.136,2.136,0,0,1,1.654-.795,2.224,2.224,0,0,1,1.724.755,3.125,3.125,0,0,1,.682,2.167,3.3,3.3,0,0,1-.7,2.25,2.17,2.17,0,0,1-1.689.79,2.088,2.088,0,0,1-.964-.244,2.305,2.305,0,0,1-.819-.722V0Zm1.5-2.976a2.426,2.426,0,0,0,.279,1.311,1.194,1.194,0,0,0,1.042.6,1.068,1.068,0,0,0,.851-.427,2.1,2.1,0,0,0,.352-1.345,2.228,2.228,0,0,0-.354-1.41,1.122,1.122,0,0,0-.908-.432,1.137,1.137,0,0,0-.9.422A1.936,1.936,0,0,0,26.667-2.976ZM33.4,0H31.888V-5.7h1.4v.811a2.438,2.438,0,0,1,.647-.757,1.191,1.191,0,0,1,.653-.183,1.916,1.916,0,0,1,.994.285l-.467,1.316a1.324,1.324,0,0,0-.709-.247.838.838,0,0,0-.537.175,1.193,1.193,0,0,0-.346.631A8.965,8.965,0,0,0,33.4-1.762Zm6.139-1.815,1.5.252A2.467,2.467,0,0,1,40.125-.3a2.69,2.69,0,0,1-1.566.432,2.552,2.552,0,0,1-2.2-.972,3.266,3.266,0,0,1-.564-1.966,3.15,3.15,0,0,1,.741-2.221,2.441,2.441,0,0,1,1.875-.8,2.532,2.532,0,0,1,2.009.841,3.719,3.719,0,0,1,.7,2.575H37.34a1.527,1.527,0,0,0,.365,1.045,1.142,1.142,0,0,0,.87.373.924.924,0,0,0,.6-.193A1.194,1.194,0,0,0,39.537-1.815Zm.086-1.525a1.453,1.453,0,0,0-.338-1,1.038,1.038,0,0,0-.784-.341,1.048,1.048,0,0,0-.816.36,1.393,1.393,0,0,0-.317.978Z" transform="translate(-5121.491 -7918.923)" fill="#12263f"/>
    <path id="Trazado_143844" data-name="Trazado 143844" d="M5.838-2.9l1.542.489A3.457,3.457,0,0,1,6.2-.491,3.363,3.363,0,0,1,4.109.134,3.387,3.387,0,0,1,1.531-.937a4.1,4.1,0,0,1-1.01-2.93A4.3,4.3,0,0,1,1.536-6.921,3.481,3.481,0,0,1,4.206-8.008a3.275,3.275,0,0,1,2.347.854A3.106,3.106,0,0,1,7.358-5.7l-1.574.376A1.669,1.669,0,0,0,5.2-6.295a1.67,1.67,0,0,0-1.077-.354A1.792,1.792,0,0,0,2.7-6.021a3.08,3.08,0,0,0-.545,2.036A3.3,3.3,0,0,0,2.7-1.858a1.744,1.744,0,0,0,1.4.634,1.593,1.593,0,0,0,1.09-.4A2.34,2.34,0,0,0,5.838-2.9ZM10.178,0H8.669V-5.7h1.4v.811a2.438,2.438,0,0,1,.647-.757,1.191,1.191,0,0,1,.653-.183,1.916,1.916,0,0,1,.994.285L11.9-4.232a1.324,1.324,0,0,0-.709-.247.838.838,0,0,0-.537.175,1.193,1.193,0,0,0-.346.631,8.966,8.966,0,0,0-.126,1.912Zm6.139-1.815,1.5.252A2.467,2.467,0,0,1,16.906-.3,2.69,2.69,0,0,1,15.34.129a2.552,2.552,0,0,1-2.2-.972,3.266,3.266,0,0,1-.564-1.966,3.15,3.15,0,0,1,.741-2.221,2.441,2.441,0,0,1,1.875-.8,2.532,2.532,0,0,1,2.009.841,3.719,3.719,0,0,1,.7,2.575H14.121a1.527,1.527,0,0,0,.365,1.045,1.142,1.142,0,0,0,.87.373.924.924,0,0,0,.6-.193A1.194,1.194,0,0,0,16.317-1.815ZM16.4-3.341a1.453,1.453,0,0,0-.338-1,1.038,1.038,0,0,0-.784-.341,1.048,1.048,0,0,0-.816.36,1.393,1.393,0,0,0-.317.978ZM14.475-6.4l.741-1.606h1.692L15.431-6.4ZM24.363,0h-1.4V-.838a2.265,2.265,0,0,1-.824.728,2.115,2.115,0,0,1-.959.239,2.173,2.173,0,0,1-1.684-.792,3.223,3.223,0,0,1-.7-2.21,3.185,3.185,0,0,1,.682-2.2A2.224,2.224,0,0,1,21.2-5.833a2.136,2.136,0,0,1,1.654.795V-7.874h1.509ZM20.335-2.976a2.612,2.612,0,0,0,.252,1.321,1.141,1.141,0,0,0,1.021.591,1.111,1.111,0,0,0,.886-.443,2.045,2.045,0,0,0,.365-1.324A2.238,2.238,0,0,0,22.5-4.246a1.122,1.122,0,0,0-.908-.432,1.134,1.134,0,0,0-.9.427A1.929,1.929,0,0,0,20.335-2.976Zm5.516-3.5v-1.4H27.36v1.4Zm0,6.478V-5.7H27.36V0Zm5.672-5.7v1.2H30.492v2.3a5.718,5.718,0,0,0,.03.814.332.332,0,0,0,.134.191.426.426,0,0,0,.255.075,1.952,1.952,0,0,0,.607-.145L31.646-.1a3,3,0,0,1-1.192.226,1.891,1.891,0,0,1-.736-.137,1.074,1.074,0,0,1-.481-.354,1.4,1.4,0,0,1-.212-.588,7.316,7.316,0,0,1-.048-1.063V-4.5h-.693V-5.7h.693V-6.837l1.515-.881V-5.7Zm.7,2.771a3.086,3.086,0,0,1,.371-1.456,2.544,2.544,0,0,1,1.05-1.074,3.116,3.116,0,0,1,1.517-.371,2.848,2.848,0,0,1,2.122.841,2.9,2.9,0,0,1,.827,2.124,2.939,2.939,0,0,1-.835,2.146,2.823,2.823,0,0,1-2.1.851,3.312,3.312,0,0,1-1.5-.354,2.432,2.432,0,0,1-1.082-1.039A3.463,3.463,0,0,1,32.221-2.933Zm1.547.081a1.89,1.89,0,0,0,.4,1.3,1.28,1.28,0,0,0,.994.451,1.272,1.272,0,0,0,.991-.451,1.916,1.916,0,0,0,.4-1.311,1.881,1.881,0,0,0-.4-1.289,1.272,1.272,0,0,0-.991-.451,1.28,1.28,0,0,0-.994.451A1.89,1.89,0,0,0,33.768-2.852Z" transform="translate(-4941.75 -7918.923)" fill="#12263f"/>
    <path id="Trazado_143839" data-name="Trazado 143839" d="M5.838-2.9l1.542.489A3.457,3.457,0,0,1,6.2-.491,3.363,3.363,0,0,1,4.109.134,3.387,3.387,0,0,1,1.531-.937a4.1,4.1,0,0,1-1.01-2.93A4.3,4.3,0,0,1,1.536-6.921,3.481,3.481,0,0,1,4.206-8.008a3.275,3.275,0,0,1,2.347.854A3.106,3.106,0,0,1,7.358-5.7l-1.574.376A1.669,1.669,0,0,0,5.2-6.295a1.67,1.67,0,0,0-1.077-.354A1.792,1.792,0,0,0,2.7-6.021a3.08,3.08,0,0,0-.545,2.036A3.3,3.3,0,0,0,2.7-1.858a1.744,1.744,0,0,0,1.4.634,1.593,1.593,0,0,0,1.09-.4A2.34,2.34,0,0,0,5.838-2.9ZM12.488,0V-.854a2.2,2.2,0,0,1-.819.72A2.3,2.3,0,0,1,10.6.129,2.1,2.1,0,0,1,9.566-.124a1.49,1.49,0,0,1-.661-.709,3.164,3.164,0,0,1-.2-1.262V-5.7H10.21v2.621a7.269,7.269,0,0,0,.083,1.474.8.8,0,0,0,.3.43.933.933,0,0,0,.559.158,1.188,1.188,0,0,0,.693-.212,1.079,1.079,0,0,0,.419-.526A6.11,6.11,0,0,0,12.38-3.3V-5.7H13.89V0Zm6.268-1.815,1.5.252A2.467,2.467,0,0,1,19.344-.3a2.69,2.69,0,0,1-1.566.432,2.552,2.552,0,0,1-2.2-.972,3.266,3.266,0,0,1-.564-1.966,3.15,3.15,0,0,1,.741-2.221,2.441,2.441,0,0,1,1.875-.8,2.532,2.532,0,0,1,2.009.841,3.719,3.719,0,0,1,.7,2.575H16.559a1.527,1.527,0,0,0,.365,1.045,1.142,1.142,0,0,0,.87.373.924.924,0,0,0,.6-.193A1.194,1.194,0,0,0,18.756-1.815Zm.086-1.525a1.453,1.453,0,0,0-.338-1,1.038,1.038,0,0,0-.784-.341,1.048,1.048,0,0,0-.816.36,1.393,1.393,0,0,0-.317.978ZM26.759,0H25.25V-2.911a4.5,4.5,0,0,0-.1-1.2.838.838,0,0,0-.314-.422.9.9,0,0,0-.524-.15,1.21,1.21,0,0,0-.7.215,1.082,1.082,0,0,0-.427.569,4.921,4.921,0,0,0-.115,1.311V0H21.56V-5.7h1.4v.838a2.284,2.284,0,0,1,1.88-.967,2.265,2.265,0,0,1,.913.18,1.53,1.53,0,0,1,.626.459,1.664,1.664,0,0,1,.3.634,4.714,4.714,0,0,1,.083,1.015Zm4.146-5.7v1.2H29.874v2.3a5.718,5.718,0,0,0,.03.814.332.332,0,0,0,.134.191.426.426,0,0,0,.255.075,1.952,1.952,0,0,0,.607-.145L31.029-.1a3,3,0,0,1-1.192.226A1.891,1.891,0,0,1,29.1-.008a1.074,1.074,0,0,1-.481-.354,1.4,1.4,0,0,1-.212-.588,7.316,7.316,0,0,1-.048-1.063V-4.5h-.693V-5.7h.693V-6.837l1.515-.881V-5.7Zm2.175,1.74-1.37-.247a2.133,2.133,0,0,1,.795-1.225,2.909,2.909,0,0,1,1.676-.4,3.612,3.612,0,0,1,1.5.239,1.5,1.5,0,0,1,.7.607,3.112,3.112,0,0,1,.2,1.351l-.016,1.762a6.116,6.116,0,0,0,.073,1.109A3.237,3.237,0,0,0,36.91,0H35.417q-.059-.15-.145-.446-.038-.134-.054-.177a2.721,2.721,0,0,1-.827.564,2.369,2.369,0,0,1-.94.188,1.944,1.944,0,0,1-1.388-.478,1.589,1.589,0,0,1-.508-1.208,1.622,1.622,0,0,1,.231-.862A1.509,1.509,0,0,1,32.433-3a5.058,5.058,0,0,1,1.2-.352A8.223,8.223,0,0,0,35.1-3.722v-.15a.781.781,0,0,0-.215-.62,1.287,1.287,0,0,0-.811-.185,1.08,1.08,0,0,0-.628.158A1.1,1.1,0,0,0,33.081-3.964ZM35.1-2.739a9.434,9.434,0,0,1-.918.231,2.767,2.767,0,0,0-.822.263.629.629,0,0,0-.3.532.74.74,0,0,0,.236.548.825.825,0,0,0,.6.231,1.307,1.307,0,0,0,.779-.269.945.945,0,0,0,.36-.5,2.98,2.98,0,0,0,.059-.736Z" transform="translate(-5160.847 -7951.133)" fill="#12263f"/>
    <path id="Trazado_143843" data-name="Trazado 143843" d="M.779,0V-7.874H3.158L4.587-2.5,6-7.874H8.384V0H6.907V-6.2L5.344,0H3.813L2.256-6.2V0ZM9.6-2.933a3.086,3.086,0,0,1,.371-1.456,2.544,2.544,0,0,1,1.05-1.074,3.116,3.116,0,0,1,1.517-.371,2.848,2.848,0,0,1,2.122.841,2.9,2.9,0,0,1,.827,2.124,2.939,2.939,0,0,1-.835,2.146,2.823,2.823,0,0,1-2.1.851,3.312,3.312,0,0,1-1.5-.354A2.432,2.432,0,0,1,9.974-1.265,3.463,3.463,0,0,1,9.6-2.933Zm1.547.081a1.89,1.89,0,0,0,.4,1.3,1.28,1.28,0,0,0,.994.451,1.272,1.272,0,0,0,.991-.451,1.916,1.916,0,0,0,.4-1.311,1.881,1.881,0,0,0-.4-1.289,1.272,1.272,0,0,0-.991-.451,1.28,1.28,0,0,0-.994.451A1.89,1.89,0,0,0,11.15-2.852ZM18.24,0l-2.3-5.7h1.584L18.6-2.793l.312.972q.124-.371.156-.489.075-.242.161-.483L20.313-5.7h1.552L19.6,0ZM22.79-6.478v-1.4H24.3v1.4ZM22.79,0V-5.7H24.3V0Zm2.943-5.7h1.391v.779A2.238,2.238,0,0,1,28.9-5.833a1.915,1.915,0,0,1,.951.226,1.734,1.734,0,0,1,.661.682,2.635,2.635,0,0,1,.811-.682,1.99,1.99,0,0,1,.929-.226,2.07,2.07,0,0,1,1.063.255,1.563,1.563,0,0,1,.65.749,3.25,3.25,0,0,1,.156,1.182V0H32.613V-3.26a2.426,2.426,0,0,0-.156-1.1.715.715,0,0,0-.645-.322,1.029,1.029,0,0,0-.6.193,1.073,1.073,0,0,0-.4.567,4.077,4.077,0,0,0-.124,1.179V0H29.181V-3.126A4.336,4.336,0,0,0,29.1-4.2a.686.686,0,0,0-.25-.36.79.79,0,0,0-.459-.118,1.1,1.1,0,0,0-.628.188,1.031,1.031,0,0,0-.4.542,4.032,4.032,0,0,0-.121,1.176V0H25.733Zm9.894-.773v-1.4h1.509v1.4Zm0,6.478V-5.7h1.509V0Zm6.359-1.815,1.5.252A2.467,2.467,0,0,1,42.574-.3a2.69,2.69,0,0,1-1.566.432,2.552,2.552,0,0,1-2.2-.972,3.266,3.266,0,0,1-.564-1.966,3.15,3.15,0,0,1,.741-2.221,2.441,2.441,0,0,1,1.875-.8,2.532,2.532,0,0,1,2.009.841,3.719,3.719,0,0,1,.7,2.575H39.789a1.527,1.527,0,0,0,.365,1.045,1.142,1.142,0,0,0,.87.373.924.924,0,0,0,.6-.193A1.194,1.194,0,0,0,41.986-1.815Zm.086-1.525a1.453,1.453,0,0,0-.338-1,1.038,1.038,0,0,0-.784-.341,1.048,1.048,0,0,0-.816.36,1.393,1.393,0,0,0-.317.978ZM49.989,0H48.479V-2.911a4.5,4.5,0,0,0-.1-1.2.838.838,0,0,0-.314-.422.9.9,0,0,0-.524-.15,1.21,1.21,0,0,0-.7.215,1.082,1.082,0,0,0-.427.569A4.921,4.921,0,0,0,46.3-2.583V0H44.79V-5.7h1.4v.838a2.284,2.284,0,0,1,1.88-.967,2.265,2.265,0,0,1,.913.18,1.53,1.53,0,0,1,.626.459,1.664,1.664,0,0,1,.3.634,4.714,4.714,0,0,1,.083,1.015Zm4.146-5.7v1.2H53.1v2.3a5.717,5.717,0,0,0,.03.814.332.332,0,0,0,.134.191.426.426,0,0,0,.255.075,1.952,1.952,0,0,0,.607-.145L54.259-.1a3,3,0,0,1-1.192.226,1.891,1.891,0,0,1-.736-.137,1.074,1.074,0,0,1-.481-.354,1.4,1.4,0,0,1-.212-.588,7.316,7.316,0,0,1-.048-1.063V-4.5H50.9V-5.7h.693V-6.837L53.1-7.718V-5.7Zm.7,2.771A3.086,3.086,0,0,1,55.2-4.388a2.544,2.544,0,0,1,1.05-1.074,3.116,3.116,0,0,1,1.517-.371,2.848,2.848,0,0,1,2.122.841,2.9,2.9,0,0,1,.827,2.124,2.939,2.939,0,0,1-.835,2.146,2.823,2.823,0,0,1-2.1.851,3.312,3.312,0,0,1-1.5-.354A2.432,2.432,0,0,1,55.2-1.265,3.463,3.463,0,0,1,54.833-2.933Zm1.547.081a1.89,1.89,0,0,0,.4,1.3,1.28,1.28,0,0,0,.994.451,1.272,1.272,0,0,0,.991-.451,1.916,1.916,0,0,0,.4-1.311,1.881,1.881,0,0,0-.4-1.289,1.272,1.272,0,0,0-.991-.451,1.28,1.28,0,0,0-.994.451A1.89,1.89,0,0,0,56.38-2.852Z" transform="translate(-4996.051 -7951.133)" fill="#12263f"/>
    <line id="Línea_504" data-name="Línea 504" y2="33.826" transform="translate(-5145.461 -7939.827)" fill="none" stroke="#707070" stroke-width="1"/>
    <line id="Línea_506" data-name="Línea 506" y2="33.826" transform="translate(-4969.679 -7939.827)" fill="none" stroke="#707070" stroke-width="1"/>
    <line id="Línea_493" data-name="Línea 493" y2="64.635" transform="translate(-5057.808 -7970.635)" fill="none" stroke="#707070" stroke-width="1"/>
    <line id="Línea_505" data-name="Línea 505" x2="345.616" transform="translate(-5230.033 -7939.161)" fill="none" stroke="#707070" stroke-width="1"/>
  </g>
</svg>
