<svg xmlns="http://www.w3.org/2000/svg" xmlns:xlink="http://www.w3.org/1999/xlink" width="622.442" height="261.043" viewBox="0 0 622.442 261.043">
  <defs>
    <clipPath id="clip-path">
      <rect id="Rectángulo_9053" data-name="Rectángulo 9053" width="225.606" height="198.802" transform="translate(0 0)" fill="none" opacity="0"/>
    </clipPath>
  </defs>
  <g id="img5" transform="translate(-399.339 -2897)">
    <path id="Trazado_143678" data-name="Trazado 143678" d="M1318.987,561.789H1033.9a8.377,8.377,0,0,0-8.376,8.376v6.14a6.62,6.62,0,0,0-1.241,4,5.306,5.306,0,0,1-5.3,5.019l-66.35.2c.018.442.034.884.051,1.325l66.3-.2a5.309,5.309,0,0,1,5.3,5.019,6.651,6.651,0,0,0,1.238,3.993v6.27a8.376,8.376,0,0,0,8.376,8.376h285.093a8.376,8.376,0,0,0,8.376-8.376V570.165A8.377,8.377,0,0,0,1318.987,561.789Z" transform="translate(-339.996 2512.381)" fill="#d9a171"/>
    <path id="Trazado_143776" data-name="Trazado 143776" d="M1318.987,561.789H1033.9a8.377,8.377,0,0,0-8.376,8.376v6.14a6.62,6.62,0,0,0-1.241,4,5.306,5.306,0,0,1-5.3,5.019l-66.35.2c.018.442.034.884.051,1.325l66.3-.2a5.309,5.309,0,0,1,5.3,5.019,6.651,6.651,0,0,0,1.238,3.993v6.27a8.376,8.376,0,0,0,8.376,8.376h285.093a8.376,8.376,0,0,0,8.376-8.376V570.165A8.377,8.377,0,0,0,1318.987,561.789Z" transform="translate(-305.582 2445.4)" fill="#6595bf"/>
    <path id="Trazado_143777" data-name="Trazado 143777" d="M1318.987,561.789H1033.9a8.377,8.377,0,0,0-8.376,8.376v6.14a6.62,6.62,0,0,0-1.241,4,5.306,5.306,0,0,1-5.3,5.019l-66.35.2c.018.442.034.884.051,1.325l66.3-.2a5.309,5.309,0,0,1,5.3,5.019,6.651,6.651,0,0,0,1.238,3.993v6.27a8.376,8.376,0,0,0,8.376,8.376h285.093a8.376,8.376,0,0,0,8.376-8.376V570.165A8.377,8.377,0,0,0,1318.987,561.789Z" transform="translate(-317.363 2380.4)" fill="#5e6178"/>
    <ellipse id="Elipse_4819" data-name="Elipse 4819" cx="122.105" cy="122.105" rx="122.105" ry="122.105" transform="translate(402.839 2910.333)" fill="none" stroke="#6595bf" stroke-miterlimit="10" stroke-width="7"/>
    <path id="Trazado_143866" data-name="Trazado 143866" d="M7.438,14.656H3.328L2.547,17H.055L4.289,5.625H6.461L10.719,17H8.227Zm-3.477-1.9H6.8L5.375,8.5ZM14.789,13.8l1.563-5.258h2.422l-3.4,9.766-.187.445a2.577,2.577,0,0,1-2.5,1.656,3.552,3.552,0,0,1-1-.148V18.555l.344.008a1.857,1.857,0,0,0,.957-.2,1.283,1.283,0,0,0,.5-.648l.266-.7L10.789,8.547h2.43Zm9.938,2.336a2.831,2.831,0,0,1-2.312,1.016,2.67,2.67,0,0,1-2.074-.781,3.335,3.335,0,0,1-.73-2.289V8.547h2.258v5.467q0,1.322,1.2,1.322a1.63,1.63,0,0,0,1.578-.8V8.547h2.266V17H24.789Zm3.539-3.43a5.094,5.094,0,0,1,.887-3.148,2.877,2.877,0,0,1,2.426-1.172,2.589,2.589,0,0,1,2.039.922V5h2.266V17H33.844l-.109-.9a2.657,2.657,0,0,1-2.172,1.055,2.869,2.869,0,0,1-2.395-1.176A5.258,5.258,0,0,1,28.266,12.711Zm2.258.168a3.337,3.337,0,0,0,.414,1.823,1.349,1.349,0,0,0,1.2.634,1.511,1.511,0,0,0,1.477-.884V11.111a1.489,1.489,0,0,0-1.461-.884Q30.523,10.227,30.523,12.879ZM42.531,17a2.507,2.507,0,0,1-.227-.758,2.732,2.732,0,0,1-2.133.914,3,3,0,0,1-2.059-.719,2.312,2.312,0,0,1-.816-1.812,2.389,2.389,0,0,1,1-2.062,4.915,4.915,0,0,1,2.879-.727h1.039v-.484a1.393,1.393,0,0,0-.3-.937,1.183,1.183,0,0,0-.949-.352,1.345,1.345,0,0,0-.895.273.929.929,0,0,0-.324.75H37.484a2.268,2.268,0,0,1,.453-1.359,3,3,0,0,1,1.281-.98,4.669,4.669,0,0,1,1.859-.355,3.689,3.689,0,0,1,2.48.785,2.747,2.747,0,0,1,.918,2.207v3.664a4.041,4.041,0,0,0,.336,1.82V17Zm-1.867-1.57a1.945,1.945,0,0,0,.922-.223,1.462,1.462,0,0,0,.625-.6V13.156h-.844q-1.7,0-1.8,1.172l-.008.133a.9.9,0,0,0,.3.7A1.153,1.153,0,0,0,40.664,15.43ZM52.578,17H50.313V8.547h2.266ZM50.18,6.359a1.112,1.112,0,0,1,.34-.836,1.465,1.465,0,0,1,1.848,0,1.105,1.105,0,0,1,.344.836,1.108,1.108,0,0,1-.348.844,1.448,1.448,0,0,1-1.836,0A1.108,1.108,0,0,1,50.18,6.359Zm6.336,2.188.07.977a2.951,2.951,0,0,1,2.43-1.133,2.453,2.453,0,0,1,2,.789,3.682,3.682,0,0,1,.672,2.359V17H59.43V11.594a1.465,1.465,0,0,0-.312-1.043,1.4,1.4,0,0,0-1.039-.324,1.553,1.553,0,0,0-1.43.813V17H54.391V8.547Zm10.4,6.789a1.481,1.481,0,0,0,1.016-.344,1.2,1.2,0,0,0,.406-.914h2.117a2.9,2.9,0,0,1-.469,1.574,3.093,3.093,0,0,1-1.262,1.109,3.949,3.949,0,0,1-1.77.395A3.67,3.67,0,0,1,64.094,16a4.56,4.56,0,0,1-1.047-3.184v-.148a4.508,4.508,0,0,1,1.039-3.117,3.627,3.627,0,0,1,2.852-1.164,3.555,3.555,0,0,1,2.543.9,3.2,3.2,0,0,1,.973,2.4H68.336a1.551,1.551,0,0,0-.406-1.072,1.51,1.51,0,0,0-2.223.163,3.333,3.333,0,0,0-.4,1.866v.235a3.375,3.375,0,0,0,.4,1.878A1.377,1.377,0,0,0,66.914,15.336ZM74.125,17H71.859V5h2.266Zm6.922-.859a2.831,2.831,0,0,1-2.312,1.016,2.67,2.67,0,0,1-2.074-.781,3.335,3.335,0,0,1-.73-2.289V8.547h2.258v5.467q0,1.322,1.2,1.322a1.63,1.63,0,0,0,1.578-.8V8.547h2.266V17H81.109ZM87.32,17H85.055V8.547H87.32Zm-2.4-10.641a1.112,1.112,0,0,1,.34-.836,1.465,1.465,0,0,1,1.848,0,1.105,1.105,0,0,1,.344.836,1.108,1.108,0,0,1-.348.844,1.448,1.448,0,0,1-1.836,0A1.108,1.108,0,0,1,84.922,6.359Zm3.906,6.352a5.094,5.094,0,0,1,.887-3.148,2.877,2.877,0,0,1,2.426-1.172,2.589,2.589,0,0,1,2.039.922V5h2.266V17H94.406l-.109-.9a2.657,2.657,0,0,1-2.172,1.055A2.869,2.869,0,0,1,89.73,15.98,5.258,5.258,0,0,1,88.828,12.711Zm2.258.168A3.337,3.337,0,0,0,91.5,14.7a1.349,1.349,0,0,0,1.2.634,1.511,1.511,0,0,0,1.477-.884V11.111a1.489,1.489,0,0,0-1.461-.884Q91.086,10.227,91.086,12.879ZM103.094,17a2.507,2.507,0,0,1-.227-.758,2.732,2.732,0,0,1-2.133.914,3,3,0,0,1-2.059-.719,2.312,2.312,0,0,1-.816-1.812,2.389,2.389,0,0,1,1-2.062,4.915,4.915,0,0,1,2.879-.727h1.039v-.484a1.393,1.393,0,0,0-.3-.937,1.183,1.183,0,0,0-.949-.352,1.345,1.345,0,0,0-.895.273.929.929,0,0,0-.324.75H98.047A2.268,2.268,0,0,1,98.5,9.727a3,3,0,0,1,1.281-.98,4.669,4.669,0,0,1,1.859-.355,3.689,3.689,0,0,1,2.48.785,2.747,2.747,0,0,1,.918,2.207v3.664a4.041,4.041,0,0,0,.336,1.82V17Zm-1.867-1.57a1.945,1.945,0,0,0,.922-.223,1.462,1.462,0,0,0,.625-.6V13.156h-.844q-1.7,0-1.8,1.172l-.008.133a.9.9,0,0,0,.3.7A1.153,1.153,0,0,0,101.227,15.43Zm13.422,1.727a4.15,4.15,0,0,1-3.027-1.141,4.054,4.054,0,0,1-1.168-3.039v-.219a5.106,5.106,0,0,1,.492-2.277,3.612,3.612,0,0,1,1.395-1.547,3.914,3.914,0,0,1,2.059-.543,3.508,3.508,0,0,1,2.73,1.094,4.444,4.444,0,0,1,1,3.1v.922h-5.383a2.1,2.1,0,0,0,.66,1.328,2,2,0,0,0,1.395.5,2.437,2.437,0,0,0,2.039-.945l1.109,1.242a3.389,3.389,0,0,1-1.375,1.121A4.511,4.511,0,0,1,114.648,17.156Zm-.258-6.945a1.411,1.411,0,0,0-1.09.455,2.357,2.357,0,0,0-.535,1.3h3.141v-.181a1.681,1.681,0,0,0-.406-1.165A1.456,1.456,0,0,0,114.391,10.211Zm7.094-1.664.07.977a2.951,2.951,0,0,1,2.43-1.133,2.453,2.453,0,0,1,2,.789,3.682,3.682,0,0,1,.672,2.359V17H124.4V11.594a1.465,1.465,0,0,0-.312-1.043,1.4,1.4,0,0,0-1.039-.324,1.553,1.553,0,0,0-1.43.813V17h-2.258V8.547ZM134.734,17h-2.266V5h2.266Zm1.508-4.3a5.013,5.013,0,0,1,.484-2.242,3.546,3.546,0,0,1,1.395-1.523,4.069,4.069,0,0,1,2.113-.539,3.849,3.849,0,0,1,2.793,1.047,4.2,4.2,0,0,1,1.207,2.844l.016.578a4.418,4.418,0,0,1-1.086,3.121,4.209,4.209,0,0,1-5.832,0,4.5,4.5,0,0,1-1.09-3.187Zm2.258.16a3.16,3.16,0,0,0,.453,1.843,1.628,1.628,0,0,0,2.578.008,3.457,3.457,0,0,0,.461-2.015,3.128,3.128,0,0,0-.461-1.831,1.5,1.5,0,0,0-1.3-.649,1.474,1.474,0,0,0-1.281.646A3.516,3.516,0,0,0,138.5,12.856Zm11.719,1.808a.727.727,0,0,0-.41-.652,4.659,4.659,0,0,0-1.316-.426q-3.016-.633-3.016-2.562a2.323,2.323,0,0,1,.934-1.879,3.766,3.766,0,0,1,2.441-.754,4.053,4.053,0,0,1,2.574.758,2.388,2.388,0,0,1,.965,1.969h-2.258a1.092,1.092,0,0,0-.312-.8,1.322,1.322,0,0,0-.977-.316,1.351,1.351,0,0,0-.883.258.814.814,0,0,0-.312.656.7.7,0,0,0,.355.605,3.657,3.657,0,0,0,1.2.4,9.8,9.8,0,0,1,1.422.379,2.336,2.336,0,0,1,1.789,2.273,2.205,2.205,0,0,1-.992,1.871,4.28,4.28,0,0,1-2.562.715,4.47,4.47,0,0,1-1.887-.379,3.166,3.166,0,0,1-1.293-1.039,2.414,2.414,0,0,1-.469-1.426h2.141a1.179,1.179,0,0,0,.445.922,1.766,1.766,0,0,0,1.109.32,1.635,1.635,0,0,0,.98-.246A.766.766,0,0,0,150.219,14.664Zm9.75-6.117.07.945a2.971,2.971,0,0,1,2.43-1.1,2.255,2.255,0,0,1,2.242,1.289,2.9,2.9,0,0,1,2.539-1.289,2.521,2.521,0,0,1,2.047.8,3.681,3.681,0,0,1,.672,2.41V17H167.7V11.609a1.61,1.61,0,0,0-.281-1.051,1.246,1.246,0,0,0-.992-.332,1.409,1.409,0,0,0-1.406.969l.008,5.8h-2.258V11.617a1.59,1.59,0,0,0-.289-1.062,1.259,1.259,0,0,0-.984-.328,1.463,1.463,0,0,0-1.391.8V17h-2.258V8.547ZM171.352,12.7a5.013,5.013,0,0,1,.484-2.242A3.546,3.546,0,0,1,173.23,8.93a4.069,4.069,0,0,1,2.113-.539,3.849,3.849,0,0,1,2.793,1.047,4.2,4.2,0,0,1,1.207,2.844l.016.578a4.418,4.418,0,0,1-1.086,3.121,4.209,4.209,0,0,1-5.832,0,4.5,4.5,0,0,1-1.09-3.187Zm2.258.16a3.16,3.16,0,0,0,.453,1.843,1.628,1.628,0,0,0,2.578.008,3.457,3.457,0,0,0,.461-2.015,3.128,3.128,0,0,0-.461-1.831,1.5,1.5,0,0,0-1.3-.649,1.474,1.474,0,0,0-1.281.646A3.516,3.516,0,0,0,173.609,12.856ZM175.789,5h2.461l-2.164,2.422H174.25Zm4.609,7.711a5.094,5.094,0,0,1,.887-3.148,2.877,2.877,0,0,1,2.426-1.172,2.589,2.589,0,0,1,2.039.922V5h2.266V17h-2.039l-.109-.9a2.657,2.657,0,0,1-2.172,1.055A2.869,2.869,0,0,1,181.3,15.98,5.258,5.258,0,0,1,180.4,12.711Zm2.258.168a3.337,3.337,0,0,0,.414,1.823,1.349,1.349,0,0,0,1.2.634,1.511,1.511,0,0,0,1.477-.884V11.111a1.489,1.489,0,0,0-1.461-.884Q182.656,10.227,182.656,12.879Zm12.172,3.262a2.831,2.831,0,0,1-2.312,1.016,2.67,2.67,0,0,1-2.074-.781,3.335,3.335,0,0,1-.73-2.289V8.547h2.258v5.467q0,1.322,1.2,1.322a1.63,1.63,0,0,0,1.578-.8V8.547h2.266V17h-2.125ZM201.1,17h-2.266V5H201.1Zm1.508-4.3a5.013,5.013,0,0,1,.484-2.242,3.546,3.546,0,0,1,1.395-1.523,4.069,4.069,0,0,1,2.113-.539,3.849,3.849,0,0,1,2.793,1.047,4.2,4.2,0,0,1,1.207,2.844l.016.578a4.418,4.418,0,0,1-1.086,3.121,4.209,4.209,0,0,1-5.832,0,4.5,4.5,0,0,1-1.09-3.187Zm2.258.16a3.16,3.16,0,0,0,.453,1.843,1.628,1.628,0,0,0,2.578.008,3.457,3.457,0,0,0,.461-2.015,3.128,3.128,0,0,0-.461-1.831,1.5,1.5,0,0,0-1.3-.649,1.474,1.474,0,0,0-1.281.646A3.516,3.516,0,0,0,204.867,12.856Zm11.719,1.808a.727.727,0,0,0-.41-.652,4.659,4.659,0,0,0-1.316-.426q-3.016-.633-3.016-2.562a2.323,2.323,0,0,1,.934-1.879,3.766,3.766,0,0,1,2.441-.754,4.053,4.053,0,0,1,2.574.758,2.388,2.388,0,0,1,.965,1.969H216.5a1.092,1.092,0,0,0-.312-.8,1.322,1.322,0,0,0-.977-.316,1.351,1.351,0,0,0-.883.258.814.814,0,0,0-.312.656.7.7,0,0,0,.355.605,3.657,3.657,0,0,0,1.2.4,9.8,9.8,0,0,1,1.422.379,2.336,2.336,0,0,1,1.789,2.273,2.205,2.205,0,0,1-.992,1.871,4.28,4.28,0,0,1-2.562.715,4.47,4.47,0,0,1-1.887-.379,3.166,3.166,0,0,1-1.293-1.039,2.414,2.414,0,0,1-.469-1.426h2.141a1.179,1.179,0,0,0,.445.922,1.766,1.766,0,0,0,1.109.32,1.635,1.635,0,0,0,.98-.246A.766.766,0,0,0,216.586,14.664Z" transform="translate(764 3022)" fill="#fff"/>
    <path id="Trazado_143865" data-name="Trazado 143865" d="M5.219,14.18,7.8,5.625h2.609L6.445,17H4L.055,5.625h2.6ZM13.711,17H11.445V8.547h2.266Zm-2.4-10.641a1.112,1.112,0,0,1,.34-.836,1.277,1.277,0,0,1,.926-.328,1.28,1.28,0,0,1,.922.328,1.105,1.105,0,0,1,.344.836A1.108,1.108,0,0,1,13.5,7.2a1.448,1.448,0,0,1-1.836,0A1.108,1.108,0,0,1,11.313,6.359Zm3.906,6.352a5.094,5.094,0,0,1,.887-3.148,2.877,2.877,0,0,1,2.426-1.172,2.589,2.589,0,0,1,2.039.922V5h2.266V17H20.8l-.109-.9a2.657,2.657,0,0,1-2.172,1.055,2.869,2.869,0,0,1-2.395-1.176A5.258,5.258,0,0,1,15.219,12.711Zm2.258.168a3.337,3.337,0,0,0,.414,1.823,1.349,1.349,0,0,0,1.2.634,1.511,1.511,0,0,0,1.477-.884V11.111a1.489,1.489,0,0,0-1.461-.884Q17.477,10.227,17.477,12.879Zm11,4.277a4.15,4.15,0,0,1-3.027-1.141,4.054,4.054,0,0,1-1.168-3.039v-.219a5.106,5.106,0,0,1,.492-2.277,3.612,3.612,0,0,1,1.395-1.547,3.914,3.914,0,0,1,2.059-.543,3.508,3.508,0,0,1,2.73,1.094,4.444,4.444,0,0,1,1,3.1v.922H26.57a2.1,2.1,0,0,0,.66,1.328,2,2,0,0,0,1.395.5,2.437,2.437,0,0,0,2.039-.945l1.109,1.242A3.389,3.389,0,0,1,30.4,16.754,4.511,4.511,0,0,1,28.477,17.156Zm-.258-6.945a1.411,1.411,0,0,0-1.09.455,2.357,2.357,0,0,0-.535,1.3h3.141v-.181a1.681,1.681,0,0,0-.406-1.165A1.456,1.456,0,0,0,28.219,10.211ZM32.883,12.7a5.013,5.013,0,0,1,.484-2.242A3.546,3.546,0,0,1,34.762,8.93a4.069,4.069,0,0,1,2.113-.539,3.849,3.849,0,0,1,2.793,1.047,4.2,4.2,0,0,1,1.207,2.844l.016.578A4.418,4.418,0,0,1,39.8,15.98a4.209,4.209,0,0,1-5.832,0,4.5,4.5,0,0,1-1.09-3.187Zm2.258.16a3.16,3.16,0,0,0,.453,1.843,1.628,1.628,0,0,0,2.578.008,3.457,3.457,0,0,0,.461-2.015,3.128,3.128,0,0,0-.461-1.831,1.5,1.5,0,0,0-1.3-.649,1.474,1.474,0,0,0-1.281.646A3.516,3.516,0,0,0,35.141,12.856ZM48.969,6.469V8.547h1.445V10.2H48.969v4.219a1.007,1.007,0,0,0,.18.672.9.9,0,0,0,.688.2,3.6,3.6,0,0,0,.664-.055v1.711a4.648,4.648,0,0,1-1.367.2,2.156,2.156,0,0,1-2.422-2.4V10.2H45.477V8.547h1.234V6.469Zm7.766,9.672a2.831,2.831,0,0,1-2.312,1.016,2.67,2.67,0,0,1-2.074-.781,3.335,3.335,0,0,1-.73-2.289V8.547h2.258v5.467q0,1.322,1.2,1.322a1.63,1.63,0,0,0,1.578-.8V8.547h2.266V17H56.8Zm6.594-9.672V8.547h1.445V10.2H63.328v4.219a1.007,1.007,0,0,0,.18.672.9.9,0,0,0,.688.2,3.6,3.6,0,0,0,.664-.055v1.711a4.648,4.648,0,0,1-1.367.2,2.156,2.156,0,0,1-2.422-2.4V10.2H59.836V8.547H61.07V6.469ZM65.445,12.7a5.013,5.013,0,0,1,.484-2.242A3.546,3.546,0,0,1,67.324,8.93a4.069,4.069,0,0,1,2.113-.539A3.849,3.849,0,0,1,72.23,9.438a4.2,4.2,0,0,1,1.207,2.844l.016.578a4.418,4.418,0,0,1-1.086,3.121,4.209,4.209,0,0,1-5.832,0,4.5,4.5,0,0,1-1.09-3.187Zm2.258.16a3.16,3.16,0,0,0,.453,1.843,1.628,1.628,0,0,0,2.578.008,3.457,3.457,0,0,0,.461-2.015,3.128,3.128,0,0,0-.461-1.831,1.5,1.5,0,0,0-1.3-.649,1.474,1.474,0,0,0-1.281.646A3.516,3.516,0,0,0,67.7,12.856Zm11.891-2.192a6.134,6.134,0,0,0-.812-.062,1.654,1.654,0,0,0-1.68.867V17H74.844V8.547h2.133l.063,1.008a2.092,2.092,0,0,1,1.883-1.164,2.366,2.366,0,0,1,.7.1ZM83.063,17H80.8V8.547h2.266Zm-2.4-10.641A1.112,1.112,0,0,1,81,5.523a1.465,1.465,0,0,1,1.848,0,1.105,1.105,0,0,1,.344.836,1.108,1.108,0,0,1-.348.844,1.448,1.448,0,0,1-1.836,0A1.108,1.108,0,0,1,80.664,6.359ZM89.82,17a2.507,2.507,0,0,1-.227-.758,2.732,2.732,0,0,1-2.133.914,3,3,0,0,1-2.059-.719,2.312,2.312,0,0,1-.816-1.812,2.389,2.389,0,0,1,1-2.062,4.915,4.915,0,0,1,2.879-.727H89.5v-.484a1.393,1.393,0,0,0-.3-.937,1.183,1.183,0,0,0-.949-.352,1.345,1.345,0,0,0-.895.273.929.929,0,0,0-.324.75H84.773a2.268,2.268,0,0,1,.453-1.359,3,3,0,0,1,1.281-.98,4.669,4.669,0,0,1,1.859-.355,3.689,3.689,0,0,1,2.48.785,2.747,2.747,0,0,1,.918,2.207v3.664a4.041,4.041,0,0,0,.336,1.82V17Zm-1.867-1.57a1.945,1.945,0,0,0,.922-.223,1.462,1.462,0,0,0,.625-.6V13.156h-.844q-1.7,0-1.8,1.172l-.008.133a.9.9,0,0,0,.3.7A1.153,1.153,0,0,0,87.953,15.43ZM95.883,17H93.617V5h2.266Zm5.75.156a4.15,4.15,0,0,1-3.027-1.141,4.054,4.054,0,0,1-1.168-3.039v-.219a5.106,5.106,0,0,1,.492-2.277,3.612,3.612,0,0,1,1.395-1.547,3.914,3.914,0,0,1,2.059-.543,3.508,3.508,0,0,1,2.73,1.094,4.444,4.444,0,0,1,1,3.1v.922H99.727a2.1,2.1,0,0,0,.66,1.328,2,2,0,0,0,1.395.5,2.437,2.437,0,0,0,2.039-.945l1.109,1.242a3.389,3.389,0,0,1-1.375,1.121A4.511,4.511,0,0,1,101.633,17.156Zm-.258-6.945a1.411,1.411,0,0,0-1.09.455,2.357,2.357,0,0,0-.535,1.3h3.141v-.181a1.681,1.681,0,0,0-.406-1.165A1.456,1.456,0,0,0,101.375,10.211Zm9.594,4.453a.727.727,0,0,0-.41-.652,4.659,4.659,0,0,0-1.316-.426q-3.016-.633-3.016-2.562a2.323,2.323,0,0,1,.934-1.879,3.766,3.766,0,0,1,2.441-.754,4.053,4.053,0,0,1,2.574.758,2.388,2.388,0,0,1,.965,1.969h-2.258a1.092,1.092,0,0,0-.312-.8,1.322,1.322,0,0,0-.977-.316,1.351,1.351,0,0,0-.883.258.814.814,0,0,0-.312.656.7.7,0,0,0,.355.605,3.657,3.657,0,0,0,1.2.4,9.8,9.8,0,0,1,1.422.379,2.336,2.336,0,0,1,1.789,2.273,2.2,2.2,0,0,1-.992,1.871,4.28,4.28,0,0,1-2.562.715,4.47,4.47,0,0,1-1.887-.379,3.166,3.166,0,0,1-1.293-1.039,2.414,2.414,0,0,1-.469-1.426H108.1a1.179,1.179,0,0,0,.445.922,1.766,1.766,0,0,0,1.109.32,1.635,1.635,0,0,0,.98-.246A.766.766,0,0,0,110.969,14.664Zm7.734-2.289a11.99,11.99,0,0,1,.477-3.406,8.989,8.989,0,0,1,1.406-2.863,5.251,5.251,0,0,1,2.016-1.73l.438,1.219A5.438,5.438,0,0,0,121.258,8.2a12.082,12.082,0,0,0-.641,4.125v.242a12.313,12.313,0,0,0,.633,4.141,5.544,5.544,0,0,0,1.789,2.648l-.437,1.2a5.253,5.253,0,0,1-1.98-1.684,8.838,8.838,0,0,1-1.4-2.785,11.918,11.918,0,0,1-.516-3.3Zm9.758-1.625,2.367-5.125h2.563l-3.734,7.25V17h-2.383V12.875l-3.734-7.25h2.57Zm4.961,1.945a5.013,5.013,0,0,1,.484-2.242A3.546,3.546,0,0,1,135.3,8.93a4.069,4.069,0,0,1,2.113-.539,3.849,3.849,0,0,1,2.793,1.047,4.2,4.2,0,0,1,1.207,2.844l.016.578a4.418,4.418,0,0,1-1.086,3.121,4.209,4.209,0,0,1-5.832,0,4.5,4.5,0,0,1-1.09-3.187Zm2.258.16a3.16,3.16,0,0,0,.453,1.843,1.628,1.628,0,0,0,2.578.008,3.457,3.457,0,0,0,.461-2.015,3.128,3.128,0,0,0-.461-1.831,1.5,1.5,0,0,0-1.3-.649,1.474,1.474,0,0,0-1.281.646A3.516,3.516,0,0,0,135.68,12.856Zm12.2,3.285a2.831,2.831,0,0,1-2.312,1.016,2.67,2.67,0,0,1-2.074-.781,3.335,3.335,0,0,1-.73-2.289V8.547h2.258v5.467q0,1.322,1.2,1.322a1.63,1.63,0,0,0,1.578-.8V8.547h2.266V17h-2.125Zm12.6-8.617H157V17h-2.344V7.523h-3.437v-1.9h9.266Zm5.742,8.617a2.831,2.831,0,0,1-2.312,1.016,2.67,2.67,0,0,1-2.074-.781,3.335,3.335,0,0,1-.73-2.289V8.547h2.258v5.467q0,1.322,1.2,1.322a1.63,1.63,0,0,0,1.578-.8V8.547h2.266V17h-2.125Zm11.508-3.289a5.119,5.119,0,0,1-.867,3.168,2.872,2.872,0,0,1-2.422,1.137,2.639,2.639,0,0,1-2.2-1.055l-.1.9h-2.031V5h2.258V9.3a2.571,2.571,0,0,1,2.055-.914,2.9,2.9,0,0,1,2.426,1.137,5.126,5.126,0,0,1,.879,3.2Zm-2.258-.164a3.363,3.363,0,0,0-.406-1.871,1.374,1.374,0,0,0-1.211-.59,1.489,1.489,0,0,0-1.484.883v3.336a1.509,1.509,0,0,0,1.5.891,1.394,1.394,0,0,0,1.438-1.078A5.562,5.562,0,0,0,175.477,12.688Zm7.539,4.469a4.15,4.15,0,0,1-3.027-1.141,4.054,4.054,0,0,1-1.168-3.039v-.219a5.106,5.106,0,0,1,.492-2.277,3.612,3.612,0,0,1,1.395-1.547,3.914,3.914,0,0,1,2.059-.543,3.508,3.508,0,0,1,2.73,1.094,4.444,4.444,0,0,1,1,3.1v.922h-5.383a2.1,2.1,0,0,0,.66,1.328,2,2,0,0,0,1.395.5,2.437,2.437,0,0,0,2.039-.945l1.109,1.242a3.389,3.389,0,0,1-1.375,1.121A4.511,4.511,0,0,1,183.016,17.156Zm-.258-6.945a1.411,1.411,0,0,0-1.09.455,2.357,2.357,0,0,0-.535,1.3h3.141v-.181a1.681,1.681,0,0,0-.406-1.165A1.456,1.456,0,0,0,182.758,10.211Zm5.6,9.641-1.18-.617.281-.508a4.059,4.059,0,0,0,.539-1.9v-1.75h1.906l-.008,1.563a4.059,4.059,0,0,1-.437,1.75A4.486,4.486,0,0,1,188.359,19.852Zm14.656-5.922,1.109-5.383h2.18L204.148,17h-1.891l-1.6-5.32-1.6,5.32h-1.883l-2.156-8.453h2.18l1.1,5.375,1.547-5.375h1.633Zm8.3,3.227a4.15,4.15,0,0,1-3.027-1.141,4.054,4.054,0,0,1-1.168-3.039v-.219a5.106,5.106,0,0,1,.492-2.277A3.612,3.612,0,0,1,209,8.934a3.914,3.914,0,0,1,2.059-.543,3.508,3.508,0,0,1,2.73,1.094,4.444,4.444,0,0,1,1,3.1v.922h-5.383a2.1,2.1,0,0,0,.66,1.328,2,2,0,0,0,1.395.5,2.437,2.437,0,0,0,2.039-.945l1.109,1.242a3.389,3.389,0,0,1-1.375,1.121A4.511,4.511,0,0,1,211.313,17.156Zm-.258-6.945a1.411,1.411,0,0,0-1.09.455,2.357,2.357,0,0,0-.535,1.3h3.141v-.181a1.681,1.681,0,0,0-.406-1.165A1.456,1.456,0,0,0,211.055,10.211Zm12.633,2.641a5.119,5.119,0,0,1-.867,3.168,2.872,2.872,0,0,1-2.422,1.137,2.639,2.639,0,0,1-2.2-1.055l-.1.9H216.07V5h2.258V9.3a2.571,2.571,0,0,1,2.055-.914,2.9,2.9,0,0,1,2.426,1.137,5.126,5.126,0,0,1,.879,3.2Zm-2.258-.164a3.363,3.363,0,0,0-.406-1.871,1.374,1.374,0,0,0-1.211-.59,1.489,1.489,0,0,0-1.484.883v3.336a1.509,1.509,0,0,0,1.5.891,1.394,1.394,0,0,0,1.438-1.078A5.562,5.562,0,0,0,221.43,12.688Zm7.281.008a5.013,5.013,0,0,1,.484-2.242A3.546,3.546,0,0,1,230.59,8.93a4.069,4.069,0,0,1,2.113-.539A3.849,3.849,0,0,1,235.5,9.438a4.2,4.2,0,0,1,1.207,2.844l.016.578a4.418,4.418,0,0,1-1.086,3.121,4.209,4.209,0,0,1-5.832,0,4.5,4.5,0,0,1-1.09-3.187Zm2.258.16a3.16,3.16,0,0,0,.453,1.843,1.628,1.628,0,0,0,2.578.008,3.457,3.457,0,0,0,.461-2.015A3.128,3.128,0,0,0,234,10.86a1.5,1.5,0,0,0-1.3-.649,1.474,1.474,0,0,0-1.281.646A3.516,3.516,0,0,0,230.969,12.856ZM238.656,17V10.2H237.4V8.547h1.258V8.156a3.17,3.17,0,0,1,.98-2.457,3.945,3.945,0,0,1,2.723-.863,9.031,9.031,0,0,1,2.563.461l-.328,1.867a10,10,0,0,0-1.187-.293A5.834,5.834,0,0,0,242.5,6.8q-1.578,0-1.578,1.4v.344h1.664V10.2h-1.664V17Zm7.32,0h-2.266V8.547h2.266Zm5.383-1.664a1.481,1.481,0,0,0,1.016-.344,1.2,1.2,0,0,0,.406-.914H254.9a2.9,2.9,0,0,1-.469,1.574,3.093,3.093,0,0,1-1.262,1.109,3.949,3.949,0,0,1-1.77.395A3.67,3.67,0,0,1,248.539,16a4.56,4.56,0,0,1-1.047-3.184v-.148a4.508,4.508,0,0,1,1.039-3.117,3.627,3.627,0,0,1,2.852-1.164,3.555,3.555,0,0,1,2.543.9,3.2,3.2,0,0,1,.973,2.4h-2.117a1.551,1.551,0,0,0-.406-1.072,1.51,1.51,0,0,0-2.223.163,3.333,3.333,0,0,0-.4,1.866v.235a3.375,3.375,0,0,0,.4,1.878A1.377,1.377,0,0,0,251.359,15.336ZM258.57,17H256.3V8.547h2.266Zm-2.4-10.641a1.112,1.112,0,0,1,.34-.836,1.465,1.465,0,0,1,1.848,0,1.105,1.105,0,0,1,.344.836,1.108,1.108,0,0,1-.348.844,1.448,1.448,0,0,1-1.836,0A1.108,1.108,0,0,1,256.172,6.359ZM265.328,17a2.508,2.508,0,0,1-.227-.758,2.732,2.732,0,0,1-2.133.914,3,3,0,0,1-2.059-.719,2.312,2.312,0,0,1-.816-1.812,2.389,2.389,0,0,1,1-2.062,4.915,4.915,0,0,1,2.879-.727h1.039v-.484a1.393,1.393,0,0,0-.3-.937,1.183,1.183,0,0,0-.949-.352,1.345,1.345,0,0,0-.895.273.929.929,0,0,0-.324.75h-2.258a2.268,2.268,0,0,1,.453-1.359,3,3,0,0,1,1.281-.98,4.669,4.669,0,0,1,1.859-.355,3.689,3.689,0,0,1,2.48.785,2.747,2.747,0,0,1,.918,2.207v3.664a4.041,4.041,0,0,0,.336,1.82V17Zm-1.867-1.57a1.945,1.945,0,0,0,.922-.223,1.462,1.462,0,0,0,.625-.6V13.156h-.844q-1.7,0-1.8,1.172l-.008.133a.9.9,0,0,0,.3.7A1.153,1.153,0,0,0,263.461,15.43Zm7.93,1.57h-2.266V5h2.266Zm5.75-4.445a11.377,11.377,0,0,1-.508,3.4,9.225,9.225,0,0,1-1.461,2.883,5.263,5.263,0,0,1-2.039,1.719l-.437-1.2a5.494,5.494,0,0,0,1.75-2.578,11.938,11.938,0,0,0,.664-4.008v-.414a12.209,12.209,0,0,0-.637-4.117A5.727,5.727,0,0,0,272.7,5.57l.438-1.2a5.265,5.265,0,0,1,2,1.672,9.106,9.106,0,0,1,1.461,2.82,11.3,11.3,0,0,1,.543,3.336Z" transform="translate(724 2957)" fill="#fff"/>
    <path id="Trazado_143867" data-name="Trazado 143867" d="M9.945,13.211A4.025,4.025,0,0,1,8.59,16.1a4.76,4.76,0,0,1-3.223,1.055,4.28,4.28,0,0,1-3.441-1.473A6.038,6.038,0,0,1,.672,11.641v-.7A6.819,6.819,0,0,1,1.25,8.055,4.332,4.332,0,0,1,2.9,6.137a4.629,4.629,0,0,1,2.5-.668A4.637,4.637,0,0,1,8.57,6.523,4.326,4.326,0,0,1,9.961,9.484H7.617A2.376,2.376,0,0,0,7,7.887a2.271,2.271,0,0,0-1.605-.5,1.991,1.991,0,0,0-1.754.84,4.707,4.707,0,0,0-.6,2.605V11.7a5.038,5.038,0,0,0,.559,2.7,1.954,1.954,0,0,0,1.762.852,2.314,2.314,0,0,0,1.621-.5A2.241,2.241,0,0,0,7.6,13.211ZM16.234,17a2.507,2.507,0,0,1-.227-.758,2.732,2.732,0,0,1-2.133.914,3,3,0,0,1-2.059-.719A2.312,2.312,0,0,1,11,14.625a2.389,2.389,0,0,1,1-2.062,4.915,4.915,0,0,1,2.879-.727h1.039v-.484a1.393,1.393,0,0,0-.3-.937,1.183,1.183,0,0,0-.949-.352,1.345,1.345,0,0,0-.895.273.929.929,0,0,0-.324.75H11.188a2.268,2.268,0,0,1,.453-1.359,3,3,0,0,1,1.281-.98,4.669,4.669,0,0,1,1.859-.355,3.689,3.689,0,0,1,2.48.785,2.747,2.747,0,0,1,.918,2.207v3.664a4.041,4.041,0,0,0,.336,1.82V17Zm-1.867-1.57a1.945,1.945,0,0,0,.922-.223,1.462,1.462,0,0,0,.625-.6V13.156H15.07q-1.7,0-1.8,1.172l-.008.133a.9.9,0,0,0,.3.7A1.153,1.153,0,0,0,14.367,15.43Zm13.156-2.578a5.07,5.07,0,0,1-.887,3.129,2.843,2.843,0,0,1-2.395,1.176,2.633,2.633,0,0,1-2.07-.891V20.25H19.914V8.547h2.094l.078.828a2.654,2.654,0,0,1,2.141-.984,2.862,2.862,0,0,1,2.43,1.156,5.207,5.207,0,0,1,.867,3.188Zm-2.258-.164a3.327,3.327,0,0,0-.418-1.82,1.361,1.361,0,0,0-1.215-.641,1.478,1.478,0,0,0-1.461.813V14.5a1.5,1.5,0,0,0,1.477.836Q25.266,15.336,25.266,12.688ZM33.82,17a2.507,2.507,0,0,1-.227-.758,2.732,2.732,0,0,1-2.133.914,3,3,0,0,1-2.059-.719,2.312,2.312,0,0,1-.816-1.812,2.389,2.389,0,0,1,1-2.062,4.915,4.915,0,0,1,2.879-.727H33.5v-.484a1.393,1.393,0,0,0-.3-.937,1.183,1.183,0,0,0-.949-.352,1.345,1.345,0,0,0-.895.273.929.929,0,0,0-.324.75H28.773a2.268,2.268,0,0,1,.453-1.359,3,3,0,0,1,1.281-.98,4.669,4.669,0,0,1,1.859-.355,3.689,3.689,0,0,1,2.48.785,2.747,2.747,0,0,1,.918,2.207v3.664a4.041,4.041,0,0,0,.336,1.82V17Zm-1.867-1.57a1.945,1.945,0,0,0,.922-.223,1.462,1.462,0,0,0,.625-.6V13.156h-.844q-1.7,0-1.8,1.172l-.008.133a.9.9,0,0,0,.3.7A1.153,1.153,0,0,0,31.953,15.43Zm9.063-.094a1.481,1.481,0,0,0,1.016-.344,1.2,1.2,0,0,0,.406-.914h2.117a2.9,2.9,0,0,1-.469,1.574,3.093,3.093,0,0,1-1.262,1.109,3.949,3.949,0,0,1-1.77.395A3.67,3.67,0,0,1,38.2,16a4.56,4.56,0,0,1-1.047-3.184v-.148a4.508,4.508,0,0,1,1.039-3.117,3.627,3.627,0,0,1,2.852-1.164,3.555,3.555,0,0,1,2.543.9,3.2,3.2,0,0,1,.973,2.4H42.438a1.551,1.551,0,0,0-.406-1.072,1.51,1.51,0,0,0-2.223.163,3.333,3.333,0,0,0-.4,1.866v.235a3.375,3.375,0,0,0,.4,1.878A1.377,1.377,0,0,0,41.016,15.336ZM48.227,17H45.961V8.547h2.266Zm-2.4-10.641a1.112,1.112,0,0,1,.34-.836,1.465,1.465,0,0,1,1.848,0,1.105,1.105,0,0,1,.344.836,1.108,1.108,0,0,1-.348.844,1.448,1.448,0,0,1-1.836,0A1.108,1.108,0,0,1,45.828,6.359Zm6.961.109V8.547h1.445V10.2H52.789v4.219a1.007,1.007,0,0,0,.18.672.9.9,0,0,0,.688.2,3.6,3.6,0,0,0,.664-.055v1.711a4.648,4.648,0,0,1-1.367.2,2.156,2.156,0,0,1-2.422-2.4V10.2H49.3V8.547h1.234V6.469ZM60.391,17a2.507,2.507,0,0,1-.227-.758,2.732,2.732,0,0,1-2.133.914,3,3,0,0,1-2.059-.719,2.312,2.312,0,0,1-.816-1.812,2.389,2.389,0,0,1,1-2.062,4.915,4.915,0,0,1,2.879-.727H60.07v-.484a1.393,1.393,0,0,0-.3-.937,1.183,1.183,0,0,0-.949-.352,1.345,1.345,0,0,0-.895.273.929.929,0,0,0-.324.75H55.344A2.268,2.268,0,0,1,55.8,9.727a3,3,0,0,1,1.281-.98,4.669,4.669,0,0,1,1.859-.355,3.689,3.689,0,0,1,2.48.785,2.747,2.747,0,0,1,.918,2.207v3.664a4.041,4.041,0,0,0,.336,1.82V17Zm-1.867-1.57a1.945,1.945,0,0,0,.922-.223,1.462,1.462,0,0,0,.625-.6V13.156h-.844q-1.7,0-1.8,1.172l-.008.133a.9.9,0,0,0,.3.7A1.153,1.153,0,0,0,58.523,15.43Zm9.063-.094a1.481,1.481,0,0,0,1.016-.344,1.2,1.2,0,0,0,.406-.914h2.117a2.9,2.9,0,0,1-.469,1.574,3.093,3.093,0,0,1-1.262,1.109,3.949,3.949,0,0,1-1.77.395A3.67,3.67,0,0,1,64.766,16a4.56,4.56,0,0,1-1.047-3.184v-.148a4.508,4.508,0,0,1,1.039-3.117,3.627,3.627,0,0,1,2.852-1.164,3.555,3.555,0,0,1,2.543.9,3.2,3.2,0,0,1,.973,2.4H69.008a1.551,1.551,0,0,0-.406-1.072,1.51,1.51,0,0,0-2.223.163,3.333,3.333,0,0,0-.4,1.866v.235a3.375,3.375,0,0,0,.4,1.878A1.377,1.377,0,0,0,67.586,15.336ZM74.8,17H72.531V8.547H74.8ZM72.4,6.359a1.112,1.112,0,0,1,.34-.836,1.465,1.465,0,0,1,1.848,0,1.105,1.105,0,0,1,.344.836,1.108,1.108,0,0,1-.348.844,1.448,1.448,0,0,1-1.836,0A1.108,1.108,0,0,1,72.4,6.359ZM76.3,12.7a5.013,5.013,0,0,1,.484-2.242A3.546,3.546,0,0,1,78.184,8.93,4.069,4.069,0,0,1,80.3,8.391,3.849,3.849,0,0,1,83.09,9.438,4.2,4.2,0,0,1,84.3,12.281l.016.578a4.418,4.418,0,0,1-1.086,3.121,4.209,4.209,0,0,1-5.832,0A4.5,4.5,0,0,1,76.3,12.8Zm2.258.16a3.16,3.16,0,0,0,.453,1.843,1.628,1.628,0,0,0,2.578.008,3.457,3.457,0,0,0,.461-2.015,3.128,3.128,0,0,0-.461-1.831,1.5,1.5,0,0,0-1.3-.649,1.474,1.474,0,0,0-1.281.646A3.516,3.516,0,0,0,78.563,12.856ZM80.742,5H83.2L81.039,7.422H79.2Zm7.039,3.547.07.977a2.951,2.951,0,0,1,2.43-1.133,2.453,2.453,0,0,1,2,.789,3.682,3.682,0,0,1,.672,2.359V17H90.7V11.594a1.465,1.465,0,0,0-.312-1.043,1.4,1.4,0,0,0-1.039-.324,1.553,1.553,0,0,0-1.43.813V17H85.656V8.547ZM98.75,12.375a11.99,11.99,0,0,1,.477-3.406,8.989,8.989,0,0,1,1.406-2.863,5.251,5.251,0,0,1,2.016-1.73l.438,1.219A5.438,5.438,0,0,0,101.3,8.2a12.082,12.082,0,0,0-.641,4.125v.242a12.313,12.313,0,0,0,.633,4.141,5.544,5.544,0,0,0,1.789,2.648l-.437,1.2a5.253,5.253,0,0,1-1.98-1.684,8.838,8.838,0,0,1-1.4-2.785,11.918,11.918,0,0,1-.516-3.3Zm8.68,1.867,1.57-5.7h2.359L108.508,17h-2.156L103.5,8.547h2.359Zm7.3,2.758h-2.266V8.547h2.266Zm-2.4-10.641a1.112,1.112,0,0,1,.34-.836,1.465,1.465,0,0,1,1.848,0,1.105,1.105,0,0,1,.344.836,1.108,1.108,0,0,1-.348.844,1.448,1.448,0,0,1-1.836,0A1.108,1.108,0,0,1,112.336,6.359Zm9.008,4.3a6.134,6.134,0,0,0-.812-.062,1.654,1.654,0,0,0-1.68.867V17h-2.258V8.547h2.133l.063,1.008a2.092,2.092,0,0,1,1.883-1.164,2.366,2.366,0,0,1,.7.1Zm4.18-4.2V8.547h1.445V10.2h-1.445v4.219a1.007,1.007,0,0,0,.18.672.9.9,0,0,0,.688.2,3.6,3.6,0,0,0,.664-.055v1.711a4.648,4.648,0,0,1-1.367.2,2.156,2.156,0,0,1-2.422-2.4V10.2h-1.234V8.547h1.234V6.469Zm7.766,9.672a2.831,2.831,0,0,1-2.312,1.016,2.67,2.67,0,0,1-2.074-.781,3.335,3.335,0,0,1-.73-2.289V8.547h2.258v5.467q0,1.322,1.2,1.322a1.63,1.63,0,0,0,1.578-.8V8.547h2.266V17h-2.125Zm8.789.859a2.507,2.507,0,0,1-.227-.758,2.732,2.732,0,0,1-2.133.914,3,3,0,0,1-2.059-.719,2.312,2.312,0,0,1-.816-1.812,2.389,2.389,0,0,1,1-2.062,4.915,4.915,0,0,1,2.879-.727h1.039v-.484a1.393,1.393,0,0,0-.3-.937,1.183,1.183,0,0,0-.949-.352,1.345,1.345,0,0,0-.895.273.929.929,0,0,0-.324.75h-2.258a2.268,2.268,0,0,1,.453-1.359,3,3,0,0,1,1.281-.98,4.669,4.669,0,0,1,1.859-.355,3.689,3.689,0,0,1,2.48.785,2.747,2.747,0,0,1,.918,2.207v3.664a4.041,4.041,0,0,0,.336,1.82V17Zm-1.867-1.57a1.945,1.945,0,0,0,.922-.223,1.462,1.462,0,0,0,.625-.6V13.156h-.844q-1.7,0-1.8,1.172l-.008.133a.9.9,0,0,0,.3.7A1.153,1.153,0,0,0,140.211,15.43Zm7.93,1.57h-2.266V5h2.266Zm9-3.2L158.7,8.547h2.422l-3.4,9.766-.187.445a2.577,2.577,0,0,1-2.5,1.656,3.552,3.552,0,0,1-1-.148V18.555l.344.008a1.857,1.857,0,0,0,.957-.2,1.283,1.283,0,0,0,.5-.648l.266-.7-2.961-8.477h2.43Zm16.469-.953a5.07,5.07,0,0,1-.887,3.129,2.843,2.843,0,0,1-2.395,1.176,2.633,2.633,0,0,1-2.07-.891V20.25H166V8.547h2.094l.078.828a2.654,2.654,0,0,1,2.141-.984,2.862,2.862,0,0,1,2.43,1.156,5.207,5.207,0,0,1,.867,3.188Zm-2.258-.164a3.327,3.327,0,0,0-.418-1.82,1.361,1.361,0,0,0-1.215-.641,1.479,1.479,0,0,0-1.461.813V14.5a1.5,1.5,0,0,0,1.477.836Q171.352,15.336,171.352,12.688Zm8.406-2.023a6.134,6.134,0,0,0-.812-.062,1.654,1.654,0,0,0-1.68.867V17h-2.258V8.547h2.133l.063,1.008a2.092,2.092,0,0,1,1.883-1.164,2.366,2.366,0,0,1,.7.1Zm4.977,6.492a4.15,4.15,0,0,1-3.027-1.141,4.054,4.054,0,0,1-1.168-3.039v-.219a5.106,5.106,0,0,1,.492-2.277,3.612,3.612,0,0,1,1.395-1.547,3.914,3.914,0,0,1,2.059-.543,3.508,3.508,0,0,1,2.73,1.094,4.444,4.444,0,0,1,1,3.1v.922h-5.383a2.1,2.1,0,0,0,.66,1.328,2,2,0,0,0,1.395.5,2.437,2.437,0,0,0,2.039-.945l1.109,1.242a3.389,3.389,0,0,1-1.375,1.121A4.511,4.511,0,0,1,184.734,17.156Zm-.258-6.945a1.411,1.411,0,0,0-1.09.455,2.357,2.357,0,0,0-.535,1.3h3.141v-.181a1.681,1.681,0,0,0-.406-1.165A1.456,1.456,0,0,0,184.477,10.211Zm9.594,4.453a.727.727,0,0,0-.41-.652,4.659,4.659,0,0,0-1.316-.426q-3.016-.633-3.016-2.562a2.323,2.323,0,0,1,.934-1.879,3.766,3.766,0,0,1,2.441-.754,4.053,4.053,0,0,1,2.574.758,2.388,2.388,0,0,1,.965,1.969h-2.258a1.092,1.092,0,0,0-.312-.8A1.322,1.322,0,0,0,192.7,10a1.351,1.351,0,0,0-.883.258.814.814,0,0,0-.312.656.7.7,0,0,0,.355.605,3.657,3.657,0,0,0,1.2.4,9.8,9.8,0,0,1,1.422.379,2.336,2.336,0,0,1,1.789,2.273,2.205,2.205,0,0,1-.992,1.871,4.28,4.28,0,0,1-2.562.715,4.47,4.47,0,0,1-1.887-.379,3.166,3.166,0,0,1-1.293-1.039,2.414,2.414,0,0,1-.469-1.426H191.2a1.179,1.179,0,0,0,.445.922,1.766,1.766,0,0,0,1.109.32,1.635,1.635,0,0,0,.98-.246A.766.766,0,0,0,194.07,14.664Zm7.539,2.492a4.15,4.15,0,0,1-3.027-1.141,4.054,4.054,0,0,1-1.168-3.039v-.219a5.106,5.106,0,0,1,.492-2.277A3.612,3.612,0,0,1,199.3,8.934a3.914,3.914,0,0,1,2.059-.543,3.508,3.508,0,0,1,2.73,1.094,4.444,4.444,0,0,1,1,3.1v.922H199.7a2.1,2.1,0,0,0,.66,1.328,2,2,0,0,0,1.395.5,2.437,2.437,0,0,0,2.039-.945l1.109,1.242a3.389,3.389,0,0,1-1.375,1.121A4.511,4.511,0,0,1,201.609,17.156Zm-.258-6.945a1.411,1.411,0,0,0-1.09.455,2.357,2.357,0,0,0-.535,1.3h3.141v-.181a1.681,1.681,0,0,0-.406-1.165A1.456,1.456,0,0,0,201.352,10.211Zm7.094-1.664.07.977a2.951,2.951,0,0,1,2.43-1.133,2.453,2.453,0,0,1,2,.789,3.682,3.682,0,0,1,.672,2.359V17h-2.258V11.594a1.465,1.465,0,0,0-.312-1.043,1.4,1.4,0,0,0-1.039-.324,1.553,1.553,0,0,0-1.43.813V17H206.32V8.547Zm10.4,6.789a1.481,1.481,0,0,0,1.016-.344,1.2,1.2,0,0,0,.406-.914h2.117a2.9,2.9,0,0,1-.469,1.574,3.093,3.093,0,0,1-1.262,1.109,3.949,3.949,0,0,1-1.77.395A3.67,3.67,0,0,1,216.023,16a4.56,4.56,0,0,1-1.047-3.184v-.148a4.508,4.508,0,0,1,1.039-3.117,3.627,3.627,0,0,1,2.852-1.164,3.555,3.555,0,0,1,2.543.9,3.2,3.2,0,0,1,.973,2.4h-2.117a1.551,1.551,0,0,0-.406-1.072,1.51,1.51,0,0,0-2.223.163,3.333,3.333,0,0,0-.4,1.866v.235a3.375,3.375,0,0,0,.4,1.878A1.377,1.377,0,0,0,218.844,15.336ZM226.055,17h-2.266V8.547h2.266Zm-2.4-10.641a1.112,1.112,0,0,1,.34-.836,1.465,1.465,0,0,1,1.848,0,1.105,1.105,0,0,1,.344.836,1.109,1.109,0,0,1-.348.844A1.448,1.448,0,0,1,224,7.2,1.109,1.109,0,0,1,223.656,6.359ZM232.813,17a2.507,2.507,0,0,1-.227-.758,2.732,2.732,0,0,1-2.133.914,3,3,0,0,1-2.059-.719,2.312,2.312,0,0,1-.816-1.812,2.389,2.389,0,0,1,1-2.062,4.915,4.915,0,0,1,2.879-.727h1.039v-.484a1.393,1.393,0,0,0-.3-.937,1.183,1.183,0,0,0-.949-.352,1.345,1.345,0,0,0-.895.273.929.929,0,0,0-.324.75h-2.258a2.268,2.268,0,0,1,.453-1.359,3,3,0,0,1,1.281-.98,4.669,4.669,0,0,1,1.859-.355,3.689,3.689,0,0,1,2.48.785,2.747,2.747,0,0,1,.918,2.207v3.664a4.041,4.041,0,0,0,.336,1.82V17Zm-1.867-1.57a1.945,1.945,0,0,0,.922-.223,1.462,1.462,0,0,0,.625-.6V13.156h-.844q-1.7,0-1.8,1.172l-.008.133a.9.9,0,0,0,.3.7A1.153,1.153,0,0,0,230.945,15.43Zm7.93,1.57h-2.266V5h2.266Zm5.75-4.445a11.377,11.377,0,0,1-.508,3.4,9.225,9.225,0,0,1-1.461,2.883,5.264,5.264,0,0,1-2.039,1.719l-.437-1.2a5.494,5.494,0,0,0,1.75-2.578,11.939,11.939,0,0,0,.664-4.008v-.414a12.208,12.208,0,0,0-.637-4.117A5.727,5.727,0,0,0,240.18,5.57l.438-1.2a5.265,5.265,0,0,1,2,1.672,9.106,9.106,0,0,1,1.461,2.82,11.3,11.3,0,0,1,.543,3.336Z" transform="translate(708 3090)" fill="#12263f"/>
    <g id="Grupo_70473" data-name="Grupo 70473" transform="translate(225.754 -63)">
      <g id="Grupo_70472" data-name="Grupo 70472" transform="translate(319.717 2963.523)">
        <g id="Grupo_58631" data-name="Grupo 58631" transform="translate(0)">
          <path id="Trazado_111056" data-name="Trazado 111056" d="M13624.6,3202.23h98.642v93.948a7.75,7.75,0,0,1-7.751,7.753H13624.6v-101.7Z" transform="translate(-13624.598 -3202.23)" fill="#aed3f2"/>
          <path id="Polígono_4" data-name="Polígono 4" d="M24.5,0,49,40H0Z" transform="translate(74.529 23.477) rotate(90)" fill="#fff"/>
        </g>
      </g>
      <g id="Grupo_70236" data-name="Grupo 70236" transform="translate(180 2960)">
        <rect id="Rectángulo_31121" data-name="Rectángulo 31121" width="241.396" height="250" transform="translate(0 0)" fill="none"/>
      </g>
      <g id="Grupo_58634" data-name="Grupo 58634" transform="translate(180 3017.562)">
        <g id="Grupo_58632" data-name="Grupo 58632" transform="translate(0 0)">
          <rect id="Rectángulo_9042" data-name="Rectángulo 9042" width="163.731" height="108.272" rx="14.57" transform="translate(6.608)" fill="#344154"/>
          <path id="Trazado_111065" data-name="Trazado 111065" d="M13375,3583.9h177.39v2.674a6.8,6.8,0,0,1-6.8,6.8H13381.8a6.8,6.8,0,0,1-6.8-6.8Z" transform="translate(-13374.999 -3483.638)" fill="#344154"/>
          <rect id="Rectángulo_9043" data-name="Rectángulo 9043" width="154.48" height="91.435" transform="translate(11.23 4.301)" fill="#5e6178"/>
          <path id="Trazado_111066" data-name="Trazado 111066" d="M13194,3371.1h2.708l7.487-.031,25.024-.053h.186l-.094.157c-.313.542-.654,1.119-.992,1.7l-1.051,1.8-.03.053h-.061l-30.974-.058h-.026v-.022l-1.626-2.639-.4-.669-.133-.222.157.233c.1.16.242.382.432.672l1.654,2.57-.039-.019,30.973-.061-.091.053,1.048-1.8.994-1.7.094.156-24.924-.053-7.521-.031h-2.588Z" transform="translate(-13121.428 -3270.842)" fill="#5e6178"/>
        </g>
        <g id="Grupo_58633" data-name="Grupo 58633" transform="translate(6.608 100.163)">
          <line id="Línea_352" data-name="Línea 352" x2="163.743" transform="translate(0 0.099)" fill="#344154"/>
          <path id="Trazado_111067" data-name="Trazado 111067" d="M13185.068,3371.079c0,.057-36.671.1-81.863.1s-81.865-.046-81.865-.1,36.666-.1,81.865-.1S13185.068,3371.026,13185.068,3371.079Z" transform="translate(-13021.323 -3370.979)" fill="#5e6178"/>
        </g>
      </g>
      <g id="Grupo_58636" data-name="Grupo 58636" transform="translate(193.533 3003.154)">
        <path id="Trazado_111068" data-name="Trazado 111068" d="M13386.79,3072.189h0a4.585,4.585,0,0,1,4.584,4.583v9.385H13377.7V3077.5a5.3,5.3,0,0,1,5.3-5.3Z" transform="translate(-13302.247 -3072.063)" fill="#344154"/>
        <path id="Trazado_111069" data-name="Trazado 111069" d="M13308.231,3071.986c0,.058-12.906.088-28.821.076s-28.819-.073-28.819-.126,12.9-.088,28.819-.073S13308.231,3071.932,13308.231,3071.986Z" transform="translate(-13223.69 -3071.86)" fill="#344154"/>
        <path id="Trazado_111070" data-name="Trazado 111070" d="M13264.945,3072.1l-5.7-.038-8.286.05h-60.86a9.357,9.357,0,0,0-9.355,9.358v100.571h78.82v-104.8C13259.788,3072.11,13264.945,3072.1,13264.945,3072.1Z" transform="translate(-13180.519 -3071.983)" fill="#fafafa"/>
        <path id="Trazado_111071" data-name="Trazado 111071" d="M13264.588,3071.983l-47.521.1-23.767.02h-2.969c-.5,0-.985.019-1.476.046a9.59,9.59,0,0,0-1.439.26,9.2,9.2,0,0,0-6.3,5.653c-.076.233-.183.454-.237.695l-.183.707a10.861,10.861,0,0,0-.171,1.455c-.039,1.968,0,3.958-.017,5.936l.065,95.049-.19-.187,78.82.05-.144.138.037-56.529.048-28.264.033-14.132v-5.3a5.328,5.328,0,0,1,.037-.882,4.514,4.514,0,0,1,.137-.875,4.659,4.659,0,0,1,1.91-2.876,5.545,5.545,0,0,1,1.582-.764A6.722,6.722,0,0,1,13264.588,3071.983Zm0,0a6.9,6.9,0,0,0-1.735.31,5.532,5.532,0,0,0-1.576.764,4.65,4.65,0,0,0-1.909,2.872,4.821,4.821,0,0,0-.136.867,5.781,5.781,0,0,0-.032.882l0,1.765v3.533l.028,14.132.043,28.265.04,56.528v.142h-.138l-78.82.05h-.189v-.191l.063-95.048c0-1.983,0-3.958.026-5.947a10.749,10.749,0,0,1,.177-1.489l.188-.73c.057-.244.166-.474.246-.711a9.419,9.419,0,0,1,6.47-5.79,10.063,10.063,0,0,1,1.474-.263c.5-.027,1-.058,1.5-.046h26.733Z" transform="translate(-13180.161 -3071.868)" fill="#344154"/>
        <path id="Trazado_111072" data-name="Trazado 111072" d="M13303.961,3121.8c0,.165-7.586.3-16.943.3s-16.948-.134-16.948-.3,7.588-.3,16.948-.3S13303.961,3121.634,13303.961,3121.8Z" transform="translate(-13235.729 -3102.54)" fill="#d9a171"/>
        <path id="Trazado_111073" data-name="Trazado 111073" d="M13284.893,3135.977a72.149,72.149,0,0,1-13.1,0,36.366,36.366,0,0,1,6.555-.3C13281.965,3135.68,13284.893,3135.8,13284.893,3135.977Z" transform="translate(-13236.791 -3111.304)" fill="#5e6178"/>
        <path id="Trazado_111074" data-name="Trazado 111074" d="M13222.633,3179.218c0,.164-5.571.3-12.437.3s-12.445-.133-12.445-.3,5.569-.3,12.445-.3S13222.633,3179.053,13222.633,3179.218Z" transform="translate(-13191.03 -3138.028)" fill="#5e6178"/>
        <path id="Trazado_111075" data-name="Trazado 111075" d="M13296.435,3179.218c0,.164-5.574.3-12.444.3s-12.44-.133-12.44-.3,5.569-.3,12.44-.3S13296.435,3179.053,13296.435,3179.218Z" transform="translate(-13236.645 -3138.028)" fill="#d9a171"/>
        <path id="Trazado_111076" data-name="Trazado 111076" d="M13222.633,3190.768c0,.164-5.571.3-12.437.3s-12.445-.133-12.445-.3,5.569-.3,12.445-.3S13222.633,3190.6,13222.633,3190.768Z" transform="translate(-13191.03 -3145.167)" fill="#5e6178"/>
        <path id="Trazado_111077" data-name="Trazado 111077" d="M13222.633,3202.318c0,.165-5.571.3-12.437.3s-12.445-.134-12.445-.3,5.569-.3,12.445-.3S13222.633,3202.154,13222.633,3202.318Z" transform="translate(-13191.03 -3152.305)" fill="#d9a171"/>
        <path id="Trazado_111078" data-name="Trazado 111078" d="M13284.893,3159.518a72.208,72.208,0,0,1-13.1,0,36.351,36.351,0,0,1,6.555-.3C13281.965,3159.22,13284.893,3159.346,13284.893,3159.518Z" transform="translate(-13236.791 -3125.853)" fill="#5e6178"/>
        <path id="Trazado_111079" data-name="Trazado 111079" d="M13351.463,3179.218a32.2,32.2,0,0,1-8.732,0,32.125,32.125,0,0,1,8.732,0Z" transform="translate(-13280.638 -3138.028)" fill="#5e6178"/>
        <path id="Trazado_111080" data-name="Trazado 111080" d="M13335.415,3135.977a212.158,212.158,0,0,1-22.485,0,106.549,106.549,0,0,1,11.244-.3C13330.384,3135.68,13335.415,3135.8,13335.415,3135.977Z" transform="translate(-13262.218 -3111.304)" fill="#5e6178"/>
        <path id="Trazado_111081" data-name="Trazado 111081" d="M13308.982,3147.238c0,.165-8.32.3-18.574.3s-18.579-.134-18.579-.3,8.316-.3,18.579-.3S13308.982,3147.073,13308.982,3147.238Z" transform="translate(-13236.815 -3118.263)" fill="#5e6178"/>
        <path id="Trazado_111082" data-name="Trazado 111082" d="M13307.466,3190.768c0,.164-8.046.3-17.976.3s-17.95-.133-17.95-.3,8.043-.3,17.95-.3S13307.466,3190.6,13307.466,3190.768Z" transform="translate(-13236.637 -3145.167)" fill="#5e6178"/>
        <path id="Trazado_111083" data-name="Trazado 111083" d="M13311.019,3224.2c0,.164-7.551.3-16.867.3s-16.863-.134-16.863-.3,7.549-.3,16.863-.3S13311.019,3224.033,13311.019,3224.2Z" transform="translate(-13240.189 -3165.828)" fill="#d9a171"/>
        <path id="Trazado_111084" data-name="Trazado 111084" d="M13311.019,3235.437c0,.165-7.551.3-16.867.3s-16.863-.134-16.863-.3,7.549-.3,16.863-.3S13311.019,3235.273,13311.019,3235.437Z" transform="translate(-13240.189 -3172.775)" fill="#5e6178"/>
        <path id="Trazado_111085" data-name="Trazado 111085" d="M13311.019,3246.677c0,.164-7.551.3-16.867.3s-16.863-.134-16.863-.3,7.549-.3,16.863-.3S13311.019,3246.513,13311.019,3246.677Z" transform="translate(-13240.189 -3179.722)" fill="#5e6178"/>
        <path id="Trazado_111086" data-name="Trazado 111086" d="M13311.019,3257.918c0,.164-7.551.3-16.867.3s-16.863-.134-16.863-.3,7.549-.3,16.863-.3S13311.019,3257.765,13311.019,3257.918Z" transform="translate(-13240.189 -3186.669)" fill="#5e6178"/>
        <path id="Trazado_111087" data-name="Trazado 111087" d="M13296.746,3269.158a13.428,13.428,0,0,1-2.845.21c-1.757.053-4.181.088-6.875.088s-5.109-.034-6.873-.088a1.43,1.43,0,1,1,0-.421c1.755-.053,4.2-.087,6.873-.087s5.107.034,6.875.087A13.571,13.571,0,0,1,13296.746,3269.158Z" transform="translate(-13240.202 -3193.616)" fill="#5e6178"/>
        <path id="Trazado_111088" data-name="Trazado 111088" d="M13302.629,3202.917c0,.165-6.494.3-14.516.3s-14.513-.134-14.513-.3,6.493-.3,14.513-.3S13302.629,3202.765,13302.629,3202.917Z" transform="translate(-13237.912 -3152.676)" fill="#5e6178"/>
        <g id="Grupo_58635" data-name="Grupo 58635" transform="translate(35.666 99.609)">
          <path id="Trazado_111089" data-name="Trazado 111089" d="M13274.9,3333.33a.68.68,0,1,1-.68-.68A.679.679,0,0,1,13274.9,3333.33Z" transform="translate(-13273.537 -3332.649)" fill="#344154"/>
          <path id="Trazado_111090" data-name="Trazado 111090" d="M13285.5,3333.33a.68.68,0,1,1-.68-.68A.679.679,0,0,1,13285.5,3333.33Z" transform="translate(-13280.089 -3332.649)" fill="#344154"/>
          <path id="Trazado_111091" data-name="Trazado 111091" d="M13296.1,3333.33a.68.68,0,1,1-.681-.68A.681.681,0,0,1,13296.1,3333.33Z" transform="translate(-13286.642 -3332.649)" fill="#344154"/>
        </g>
        <path id="Trazado_111092" data-name="Trazado 111092" d="M13296.932,3292.578c0,.164-5.567.3-12.437.3s-12.445-.134-12.445-.3,5.569-.3,12.445-.3S13296.932,3292.413,13296.932,3292.578Z" transform="translate(-13236.951 -3208.09)" fill="#d9a171"/>
        <path id="Trazado_111093" data-name="Trazado 111093" d="M13307.935,3304.128c0,.165-8.05.3-17.973.3s-17.973-.133-17.973-.3,8.048-.3,17.973-.3S13307.935,3303.964,13307.935,3304.128Z" transform="translate(-13236.914 -3215.229)" fill="#5e6178"/>
      </g>
      <g id="Grupo_58646" data-name="Grupo 58646" transform="translate(345.73 3138.571)">
        <g id="Grupo_58638" data-name="Grupo 58638" transform="translate(12.946 8.25)">
          <rect id="Rectángulo_9044" data-name="Rectángulo 9044" width="43.574" height="54.499" transform="translate(0 43.573) rotate(-89.63)" fill="#aed3f2"/>
          <rect id="Rectángulo_9045" data-name="Rectángulo 9045" width="38.088" height="50.671" transform="translate(1.888 40.875) rotate(-89.63)" fill="#d9a171"/>
          <path id="Trazado_111094" data-name="Trazado 111094" d="M13791.5,3582.053l17.842-23.563,10.847,14.887,7.466-7.868,14.463,16.875Z" transform="translate(-13789.951 -3541.275)" fill="#d9a171" opacity="0.2"/>
          <g id="Grupo_58637" data-name="Grupo 58637" transform="translate(27.044 10.408)" opacity="0.2">
            <path id="Trazado_111095" data-name="Trazado 111095" d="M13460.925,3341.186a3.994,3.994,0,1,1-3.931-4.016A3.993,3.993,0,0,1,13460.925,3341.186Z" transform="translate(-13452.938 -3337.169)" fill="#d9a171"/>
          </g>
        </g>
        <g id="Grupo_58640" data-name="Grupo 58640" transform="translate(11.858 3.718)">
          <rect id="Rectángulo_9046" data-name="Rectángulo 9046" width="43.574" height="54.499" transform="translate(0 43.573) rotate(-89.63)" fill="#aed3f2"/>
          <rect id="Rectángulo_9047" data-name="Rectángulo 9047" width="38.088" height="50.671" transform="translate(1.904 40.882) rotate(-89.63)" fill="#d9a171"/>
          <path id="Trazado_111096" data-name="Trazado 111096" d="M13781.3,3576.265l17.842-23.555,10.847,14.878,7.466-7.868,14.542,16.875Z" transform="translate(-13779.759 -3535.505)" fill="#d9a171" opacity="0.2"/>
          <g id="Grupo_58639" data-name="Grupo 58639" transform="translate(27.034 10.39)" opacity="0.2">
            <path id="Trazado_111097" data-name="Trazado 111097" d="M13450.724,3335.4a3.992,3.992,0,1,1-3.93-4.016A3.989,3.989,0,0,1,13450.724,3335.4Z" transform="translate(-13442.738 -3331.379)" fill="#d9a171"/>
          </g>
        </g>
        <g id="Grupo_58642" data-name="Grupo 58642" transform="translate(7.835 0)">
          <rect id="Rectángulo_9048" data-name="Rectángulo 9048" width="43.574" height="54.499" transform="translate(0 43.573) rotate(-89.63)" fill="#aed3f2"/>
          <rect id="Rectángulo_9049" data-name="Rectángulo 9049" width="38.088" height="50.671" transform="translate(1.896 40.803) rotate(-89.63)" fill="#d9a171"/>
          <path id="Trazado_111098" data-name="Trazado 111098" d="M13772.2,3571.483l17.842-23.564,10.923,14.887,7.468-7.875,14.461,16.874Z" transform="translate(-13770.711 -3530.761)" fill="#d9a171" opacity="0.2"/>
          <g id="Grupo_58641" data-name="Grupo 58641" transform="translate(26.985 10.343)" opacity="0.2">
            <path id="Trazado_111099" data-name="Trazado 111099" d="M13441.624,3330.606a3.991,3.991,0,1,1-3.931-4.016,3.99,3.99,0,0,1,3.931,4.016Z" transform="translate(-13433.641 -3326.59)" fill="#d9a171"/>
          </g>
        </g>
        <g id="Grupo_58644" data-name="Grupo 58644" transform="translate(5.84 4.628)">
          <rect id="Rectángulo_9050" data-name="Rectángulo 9050" width="43.574" height="54.499" transform="translate(0 43.573) rotate(-89.63)" fill="#aed3f2"/>
          <rect id="Rectángulo_9051" data-name="Rectángulo 9051" width="38.088" height="50.671" transform="translate(1.904 40.873) rotate(-89.63)" fill="#5e6178"/>
          <path id="Trazado_111100" data-name="Trazado 111100" d="M13762.1,3577.435l17.844-23.556,10.845,14.879,7.468-7.867,14.461,16.875Z" transform="translate(-13760.549 -3536.665)" fill="#d9a171" opacity="0.2"/>
          <g id="Grupo_58643" data-name="Grupo 58643" transform="translate(27.045 10.399)" opacity="0.2">
            <path id="Trazado_111101" data-name="Trazado 111101" d="M13431.527,3336.566a3.993,3.993,0,1,1-3.933-4.017A4,4,0,0,1,13431.527,3336.566Z" transform="translate(-13423.539 -3332.548)" fill="#d9a171"/>
          </g>
        </g>
        <g id="Grupo_58645" data-name="Grupo 58645" transform="translate(0 21.222)">
          <rect id="Rectángulo_9052" data-name="Rectángulo 9052" width="31.462" height="42.073" transform="translate(44.204)" fill="#344154"/>
          <path id="Trazado_111102" data-name="Trazado 111102" d="M13381.7,3339.85v42.073h46.932V3339.85Zm28.456,9.958h-9.965c-1.148-.08-2.049-1.353-2.049-2.9s.9-2.816,2.049-2.9h9.965c1.15.08,2.051,1.353,2.051,2.9S13411.307,3349.729,13410.156,3349.808Z" transform="translate(-13381.7 -3339.843)" fill="#d9a171"/>
        </g>
      </g>
      <g id="Grupo_58664" data-name="Grupo 58664" transform="translate(188.123 3122.655)">
        <g id="Grupo_58663" data-name="Grupo 58663">
          <g id="Grupo_58660" data-name="Grupo 58660" transform="translate(0 19.702)">
            <rect id="Rectángulo_9054" data-name="Rectángulo 9054" width="23.998" height="65.661" fill="#6595bf"/>
            <rect id="Rectángulo_9055" data-name="Rectángulo 9055" width="15.099" height="28.515" transform="translate(4.409 4.316)" fill="#aed3f2"/>
            <path id="Trazado_111143" data-name="Trazado 111143" d="M13057.308,3368.553a5.93,5.93,0,1,1-1.737-4.2A5.934,5.934,0,0,1,13057.308,3368.553Z" transform="translate(-13039.4 -3316.774)" fill="#aed3f2"/>
            <rect id="Rectángulo_9056" data-name="Rectángulo 9056" width="9.44" height="2.425" transform="translate(7.282 9.574)" fill="#6595bf"/>
            <rect id="Rectángulo_9057" data-name="Rectángulo 9057" width="9.44" height="2.425" transform="translate(7.282 14.698)" fill="#6595bf"/>
          </g>
          <g id="Grupo_58661" data-name="Grupo 58661" transform="translate(25.989 8.826)">
            <rect id="Rectángulo_9058" data-name="Rectángulo 9058" width="23.998" height="76.551" fill="#6595bf"/>
            <rect id="Rectángulo_9059" data-name="Rectángulo 9059" width="15.099" height="28.515" transform="translate(4.476 4.316)" fill="#aed3f2"/>
            <path id="Trazado_111144" data-name="Trazado 111144" d="M13096.3,3368.573a5.934,5.934,0,1,1-5.934-5.933A5.933,5.933,0,0,1,13096.3,3368.573Z" transform="translate(-13078.332 -3305.904)" fill="#aed3f2"/>
            <rect id="Rectángulo_9060" data-name="Rectángulo 9060" width="9.44" height="2.425" transform="translate(7.283 9.574)" fill="#6595bf"/>
            <rect id="Rectángulo_9061" data-name="Rectángulo 9061" width="9.44" height="2.425" transform="translate(7.283 14.698)" fill="#6595bf"/>
          </g>
          <g id="Grupo_58662" data-name="Grupo 58662" transform="translate(52.045)">
            <rect id="Rectángulo_9062" data-name="Rectángulo 9062" width="23.998" height="85.377" fill="#6595bf"/>
            <rect id="Rectángulo_9063" data-name="Rectángulo 9063" width="15.099" height="28.515" transform="translate(4.41 4.316)" fill="#aed3f2"/>
            <path id="Trazado_111145" data-name="Trazado 111145" d="M13135.205,3368.573a5.932,5.932,0,1,1-5.932-5.933A5.932,5.932,0,0,1,13135.205,3368.573Z" transform="translate(-13117.302 -3297.079)" fill="#aed3f2"/>
            <rect id="Rectángulo_9064" data-name="Rectángulo 9064" width="9.44" height="2.425" transform="translate(7.283 9.574)" fill="#6595bf"/>
            <rect id="Rectángulo_9065" data-name="Rectángulo 9065" width="9.44" height="2.425" transform="translate(7.283 14.698)" fill="#6595bf"/>
          </g>
        </g>
      </g>
      <g id="Grupo_58659" data-name="Grupo 58659" transform="translate(196.188 3011.198)" clip-path="url(#clip-path)">
        <g id="Grupo_58658" data-name="Grupo 58658" transform="translate(-3.481 12.938)">
          <g id="Grupo_58651" data-name="Grupo 58651" transform="translate(0 74.747)">
            <g id="Grupo_58647" data-name="Grupo 58647" transform="translate(0 99.48)">
              <path id="Trazado_111103" data-name="Trazado 111103" d="M13344.665,3386.871l-77.042-4.714c-.488-1.107-.812-1.747-.812-1.747l-20.844.417-6.792-.417s-.107.209-.272.561l-70.091,1.4c-13.973,0-28.662,8.524-28.662,19.4-.179,10.365,4.844,21.62,17.364,21.369l95.5-.324,95.5.324c12.521.251,15.813-7.3,15.855-16.258C13365.725,3390.213,13355.3,3387.008,13344.665,3386.871Z" transform="translate(-13140.145 -3380.41)" fill="#5e6178"/>
              <path id="Trazado_111104" data-name="Trazado 111104" d="M13176.4,3428.487h1.812l5.2-.043,19.219-.086,64.12-.087-.269.288c-.128-2.092-.27-4.313-.407-6.591-.29-4.621-.575-9.163-.844-13.49l.237.252-59.073-6.577-17.5-2-4.715-.568-1.224-.157a2.531,2.531,0,0,1-.416-.072,2.957,2.957,0,0,1,.416,0l1.229.107,4.73.474,17.521,1.84,59.087,6.4h.224v.23c.272,4.313.554,8.862.846,13.483.138,2.257.281,4.5.412,6.591v.288h-.287l-64.118-.087-19.219-.079-5.206-.05h-1.352Z" transform="translate(-13150.341 -3385.737)" fill="#344154"/>
              <path id="Trazado_111105" data-name="Trazado 111105" d="M13195.779,3399.288c-.06.071-1.017-.719-2.7-1.725a28.6,28.6,0,0,0-14.588-4.2,23.578,23.578,0,0,1-3.206,0,2.65,2.65,0,0,1,.848-.2,18.751,18.751,0,0,1,2.348-.209,25.4,25.4,0,0,1,14.808,4.256,18.416,18.416,0,0,1,1.881,1.438A6.129,6.129,0,0,1,13195.779,3399.288Z" transform="translate(-13150.029 -3383.935)" fill="#344154"/>
              <path id="Trazado_111106" data-name="Trazado 111106" d="M13389.689,3396.068c0,.143-15.165,3.816-33.937,8.2s-34.027,7.828-34.062,7.684,15.157-3.816,33.938-8.208S13389.689,3395.917,13389.689,3396.068Z" transform="translate(-13191.206 -3384.813)" fill="#344154"/>
              <path id="Trazado_111107" data-name="Trazado 111107" d="M13394.277,3394a29.462,29.462,0,0,0-5.951,2.875,35.593,35.593,0,0,0-4.837,4.492,5.1,5.1,0,0,1,1.035-1.689,15.908,15.908,0,0,1,7.8-5.311A5.193,5.193,0,0,1,13394.277,3394Z" transform="translate(-13208.588 -3384.232)" fill="#344154"/>
            </g>
            <path id="Trazado_111108" data-name="Trazado 111108" d="M13346.686,3272.3l24.436,42.484a18.048,18.048,0,0,1,.491,17.063h0a18.071,18.071,0,0,1-16.661,9.954l-37.469-1.057-.992-13.656,33-6.318-22.279-38.51Z" transform="translate(-13189.743 -3250.523)" fill="#ffbf9d"/>
            <path id="Trazado_111109" data-name="Trazado 111109" d="M13224.321,3345l34.456,9.121.718-10.329-31.752-18.443,23.191-43.045-19.427-10-24.437,42.484h0a19.9,19.9,0,0,0,11.5,28.391Z" transform="translate(-13158.301 -3250.523)" fill="#ffbf9d"/>
            <path id="Trazado_111110" data-name="Trazado 111110" d="M13310.552,3291.054l23.544-12.4a119,119,0,0,0-10.062-16.826,51.839,51.839,0,0,0-31.451-19.83h0l-27.089.324a35.851,35.851,0,0,0-9.66,2.221v-.1c-14.7,3.242-31.015,35.3-31.015,35.3l21.432,11.284.473,3.371a22.867,22.867,0,0,0,5.587,12.01l-6.247,41.047,69.561,1.437-8.854-29.4Z" transform="translate(-13163.961 -3242)" fill="#d9a171"/>
            <path id="Trazado_111111" data-name="Trazado 111111" d="M13261.518,3320.123a5.374,5.374,0,0,1-1.033-.784,15.453,15.453,0,0,1-2.367-2.645,17.252,17.252,0,0,1-2.873-11.191,36.807,36.807,0,0,1,1.594-6.238c.625-1.876,1.258-3.529,1.8-4.916s1.026-2.487,1.373-3.248a5.418,5.418,0,0,1,.6-1.15,7.046,7.046,0,0,1-.4,1.229l-1.208,3.306c-.5,1.395-1.1,3.062-1.7,4.93a39.563,39.563,0,0,0-1.524,6.153,17.79,17.79,0,0,0,.58,6.231,16.7,16.7,0,0,0,2.1,4.679A29.749,29.749,0,0,0,13261.518,3320.123Z" transform="translate(-13172.498 -3255.487)" fill="#344154"/>
            <g id="Grupo_58648" data-name="Grupo 58648" transform="translate(74.645 69.588)">
              <path id="Trazado_111112" data-name="Trazado 111112" d="M13618.952,3597.264,13615,3551.48h84.739l-5.606,46.351Z" transform="translate(-13615 -3551.48)" fill="#344154"/>
              <path id="Trazado_111113" data-name="Trazado 111113" d="M13306.272,3370.678a5.387,5.387,0,1,1-1.574-3.816A5.394,5.394,0,0,1,13306.272,3370.678Z" transform="translate(-13258.478 -3346.263)" fill="#fafafa"/>
            </g>
            <g id="Grupo_58650" data-name="Grupo 58650" transform="translate(115.542 124.313)">
              <path id="Trazado_111114" data-name="Trazado 111114" d="M13671.9,3627.621l14.376,2v15.639l-13.225-.344Z" transform="translate(-13671.9 -3627.621)" fill="#ffbf9d"/>
              <g id="Grupo_58649" data-name="Grupo 58649" transform="translate(14.375 2.012)">
                <path id="Trazado_111115" data-name="Trazado 111115" d="M13320.9,3417.76h6.467a7.187,7.187,0,0,1,3.595.956l3.414,1.969a52.582,52.582,0,0,0,5.959,2.875c3.931,1.265,10.549,2.962,11.938,4.04,3.982,3.069,2.772,6.691.588,7.072-1.918.331-31.947-1.25-31.947-1.25Z" transform="translate(-13320.901 -3417.76)" fill="#d9a171"/>
                <path id="Trazado_111116" data-name="Trazado 111116" d="M13335.414,3434.518a10.405,10.405,0,0,1-.716-4.061,9.842,9.842,0,0,1,.449-4.1c.146.028,0,1.84.088,4.082A34.219,34.219,0,0,1,13335.414,3434.518Z" transform="translate(-13324.779 -3420.179)" fill="#344154"/>
                <path id="Trazado_111117" data-name="Trazado 111117" d="M13339.9,3434.67a25.673,25.673,0,0,1,.057-7.46,12.807,12.807,0,0,1,.238,3.738A13.606,13.606,0,0,1,13339.9,3434.67Z" transform="translate(-13326.176 -3420.418)" fill="#344154"/>
                <path id="Trazado_111118" data-name="Trazado 111118" d="M13344.729,3435.448a13.984,13.984,0,0,1-.568-3.831c-.164-2.127-.179-3.852,0-3.866s.4,1.7.568,3.824A13.594,13.594,0,0,1,13344.729,3435.448Z" transform="translate(-13327.409 -3420.57)" fill="#344154"/>
                <path id="Trazado_111119" data-name="Trazado 111119" d="M13329.281,3429.374a4.48,4.48,0,0,1-1.323-.417,12.335,12.335,0,0,1-3.234-2c-.3-.258-.613-.546-.922-.862a3.751,3.751,0,0,1-.824-1.171,1.629,1.629,0,0,1,.179-1.6,1.249,1.249,0,0,1,.8-.446,2.172,2.172,0,0,1,.872.1,6.469,6.469,0,0,1,1.358,11.457,4.09,4.09,0,0,1-1.489.669,1.765,1.765,0,0,1-.841-.043,1.115,1.115,0,0,1-.654-.574,1.6,1.6,0,0,1,.194-1.488,4.525,4.525,0,0,1,.826-1,10.033,10.033,0,0,1,3.185-2.084,4.21,4.21,0,0,1,1.336-.382c0,.044-.46.188-1.251.576a10.536,10.536,0,0,0-3,2.156,4.316,4.316,0,0,0-.72.934,1.254,1.254,0,0,0-.15,1.093.854.854,0,0,0,1,.344,3.714,3.714,0,0,0,1.295-.61,5.98,5.98,0,0,0-1.229-10.573,1.012,1.012,0,0,0-1.157.172,1.169,1.169,0,0,0-.129,1.143,6.284,6.284,0,0,0,1.581,1.9,17.71,17.71,0,0,0,4.283,2.7Z" transform="translate(-13321.448 -3419.197)" fill="#344154"/>
              </g>
              <path id="Trazado_111120" data-name="Trazado 111120" d="M13355.743,3434.713a4.18,4.18,0,0,0,.785-.985,3.685,3.685,0,0,0-.426-3.256,7.269,7.269,0,0,0-4-3.02c-1.825-.654-4-.969-6.209-1.659a43.322,43.322,0,0,1-10.681-4.866c-1.271-.812-2.25-1.538-2.91-2.055a5.911,5.911,0,0,1-.985-.863,6.22,6.22,0,0,1,1.107.718c.72.46,1.705,1.136,2.982,1.9a48.679,48.679,0,0,0,10.646,4.672c2.154.719,4.313,1.007,6.224,1.718a7.5,7.5,0,0,1,4.164,3.292,3.826,3.826,0,0,1,.272,3.544,2.278,2.278,0,0,1-.663.718C13355.887,3434.684,13355.815,3434.727,13355.743,3434.713Z" transform="translate(-13309.457 -3415.818)" fill="#344154"/>
            </g>
            <path id="Trazado_111121" data-name="Trazado 111121" d="M13321.688,3257.555a.945.945,0,0,1,0,.223,3.2,3.2,0,0,1-.05.64c-.05.6-.131,1.438-.231,2.5-.222,2.221-.536,5.4-.939,9.394v.244l-.216-.115-12.494-6.576.3-.08-6.783,11.442-.144.244-.231-.172-11.42-8.761h.322l-4.972,3.9-6.767,5.341-.248.194-.146-.28c-2.254-4.162-4.419-8.173-6.468-11.953l.323.108-13.705,6.109-.253.108-.043-.266c-.8-4.7-1.487-8.79-2.069-12.219l.216.115-7.848,3-2.092.769-.541.187a.529.529,0,0,1-.186.051l.173-.086.527-.23,2.056-.848,7.795-3.126.174-.073.037.187c.608,3.4,1.341,7.482,2.156,12.176l-.3-.159,13.656-6.181.209-.093.113.2c2.05,3.781,4.229,7.784,6.47,11.945l-.4-.086,6.787-5.312,4.971-3.9.168-.129.163.129,11.407,8.783-.366.072,6.836-11.414.108-.187.186.1,12.434,6.684-.235.123c.458-3.982.833-7.187,1.09-9.343.138-1.064.238-1.891.316-2.495a4.176,4.176,0,0,1,.087-.639A1.12,1.12,0,0,1,13321.688,3257.555Z" transform="translate(-13169.635 -3246.314)" fill="#aed3f2"/>
            <path id="Trazado_111122" data-name="Trazado 111122" d="M13329.787,3273.419a2.261,2.261,0,0,1-.057.3c-.059.222-.128.51-.218.876-.216.8-.508,1.934-.892,3.385-.8,2.975-1.946,7.252-3.383,12.593l-.059.2-.194-.094-14.59-7,.288-.079-12.3,17.537-.179.252-.225-.222-11.814-11.974-2.48-2.515.338.043-15.928,9.983-.221.144-.138-.237-8.582-15.158.265.1-16.371,5.635-.15.05-.061-.151c-1.544-4.5-2.773-8.064-3.593-10.537l-.941-2.8-.229-.718a1.3,1.3,0,0,1-.065-.252.829.829,0,0,1,.107.23c.067.187.159.417.274.718l1.022,2.774c.883,2.466,2.153,6.009,3.771,10.487l-.21-.1,16.34-5.75.173-.064.092.165,8.627,15.13-.359-.094,15.91-10,.179-.115.151.158q1.245,1.237,2.489,2.516l11.8,11.981-.4.036,12.355-17.494.109-.165.172.086,14.555,7.1-.244.115c1.5-5.319,2.7-9.581,3.542-12.549.417-1.438.722-2.566.971-3.364.115-.359.2-.639.266-.863A1.413,1.413,0,0,1,13329.787,3273.419Z" transform="translate(-13167.67 -3250.657)" fill="#aed3f2"/>
          </g>
          <g id="Grupo_58657" data-name="Grupo 58657" transform="translate(92.131 0)">
            <path id="Trazado_111123" data-name="Trazado 111123" d="M13330.671,3163.329a15.176,15.176,0,0,1-11.563-3.652c3.767,1.9,8.791-.719,10.112-4.722s.235-11.5-3.054-14.109a13.062,13.062,0,0,0-11.351-2.443c-3.88,1.042-7.993,6.936-9.263,10.781l.07.115c-.6-.237-1.192-.46-1.8-.661a31.105,31.105,0,0,0-13.391-1.625,21.753,21.753,0,0,0-12.221,5.391l26.307,42.29c4.78-.424,9.014-3.644,11.5-7.733s3.464-8.963,3.7-13.757c.059-1.2.059-2.415,0-3.629l8.46,1.358a18.862,18.862,0,0,0-5.629-5.03A7.072,7.072,0,0,0,13330.671,3163.329Z" transform="translate(-13271.106 -3138.002)" fill="#344154"/>
            <g id="Grupo_58656" data-name="Grupo 58656" transform="translate(1.095 15.36)">
              <g id="Grupo_58655" data-name="Grupo 58655" transform="translate(0 0)">
                <g id="Grupo_58654" data-name="Grupo 58654">
                  <path id="Trazado_111124" data-name="Trazado 111124" d="M13295.042,3234.968a13.232,13.232,0,0,0,12.938-13.075l.61-52.611h0a4.189,4.189,0,0,0-3.743-4.248l-22.224-5.621c-7.117-.719-11.854,8.014-12.3,15.158-.5,7.906-.791,17.638.142,23.56,1.892,11.909,11.019,13.419,11.019,13.419s0,4.615.037,10.257a13.227,13.227,0,0,0,13.513,13.16Z" transform="translate(-13269.852 -3159.372)" fill="#ffbf9d"/>
                  <g id="Grupo_58652" data-name="Grupo 58652" transform="translate(2.579 18.67)">
                    <path id="Trazado_111125" data-name="Trazado 111125" d="M13277,3190.7a1.523,1.523,0,0,0,1.473,1.539,1.437,1.437,0,0,0,1.572-1.373,1.536,1.536,0,0,0-1.471-1.545,1.434,1.434,0,0,0-1.574,1.38Z" transform="translate(-13274.442 -3186.464)" fill="#344154"/>
                    <path id="Trazado_111126" data-name="Trazado 111126" d="M13273.484,3186.924c.192.2,1.35-.654,2.991-.654s2.873.826,3.023.625c.089-.086-.1-.445-.624-.827a4.183,4.183,0,0,0-2.422-.719,4,4,0,0,0-2.38.769C13273.557,3186.478,13273.341,3186.838,13273.484,3186.924Z" transform="translate(-13273.44 -3185.349)" fill="#344154"/>
                  </g>
                  <g id="Grupo_58653" data-name="Grupo 58653" transform="translate(18.705 19.001)">
                    <path id="Trazado_111127" data-name="Trazado 111127" d="M13298.7,3190.7a1.517,1.517,0,0,0,1.437,1.538,1.44,1.44,0,0,0,1.576-1.373,1.53,1.53,0,0,0-1.438-1.544,1.435,1.435,0,0,0-1.574,1.38Z" transform="translate(-13296.672 -3186.794)" fill="#344154"/>
                    <path id="Trazado_111128" data-name="Trazado 111128" d="M13295.9,3187.384c.186.2,1.343-.655,2.989-.655s2.875.827,3.019.626c.092-.086-.1-.445-.625-.826a4.175,4.175,0,0,0-2.422-.719,4.018,4.018,0,0,0-2.381.762C13295.968,3186.91,13295.821,3187.276,13295.9,3187.384Z" transform="translate(-13295.877 -3185.809)" fill="#344154"/>
                  </g>
                  <path id="Trazado_111129" data-name="Trazado 111129" d="M13285.971,3199.564a11.1,11.1,0,0,0-2.668-.481c-.425-.043-.817-.122-.892-.41a2.174,2.174,0,0,1,.281-1.243c.395-1.014.8-2.085,1.243-3.2,1.718-4.55,2.971-8.287,2.783-8.352s-1.729,3.594-3.45,8.108q-.625,1.682-1.187,3.22a2.447,2.447,0,0,0-.222,1.646,1.064,1.064,0,0,0,.715.611,3.171,3.171,0,0,0,.722.1,10.768,10.768,0,0,0,2.674,0Z" transform="translate(-13273.215 -3166.827)" fill="#344154"/>
                  <path id="Trazado_111130" data-name="Trazado 111130" d="M13286.1,3230.338a30.3,30.3,0,0,0,15.941-4.248s-3.865,8.18-15.811,7.066Z" transform="translate(-13274.42 -3178.137)" fill="#ff9a6c"/>
                  <path id="Trazado_111131" data-name="Trazado 111131" d="M13288.533,3209.992a2.974,2.974,0,0,1,2.653-1.1,2.722,2.722,0,0,1,1.868,1.006,1.716,1.716,0,0,1,.131,1.955,2,2,0,0,1-2.158.546,6.187,6.187,0,0,1-2.1-1.258,1.661,1.661,0,0,1-.466-.481.534.534,0,0,1,0-.611" transform="translate(-13275.06 -3173.295)" fill="#ff9a6c"/>
                  <path id="Trazado_111132" data-name="Trazado 111132" d="M13292.349,3206.5c-.266,0-.271,1.769-1.8,3.041s-3.427,1.063-3.442,1.315c0,.116.423.345,1.229.366a4.412,4.412,0,0,0,2.873-1,3.887,3.887,0,0,0,1.4-2.544C13292.637,3206.931,13292.421,3206.493,13292.349,3206.5Z" transform="translate(-13274.706 -3172.627)" fill="#344154"/>
                </g>
                <path id="Trazado_111133" data-name="Trazado 111133" d="M13294.9,3183.516c.159.445,1.8.23,3.731.467s3.483.754,3.734.352c.117-.187-.148-.611-.782-1.042a6.27,6.27,0,0,0-2.773-.971,6.186,6.186,0,0,0-2.919.345C13295.185,3182.926,13294.825,3183.278,13294.9,3183.516Z" transform="translate(-13276.895 -3165.814)" fill="#344154"/>
                <path id="Trazado_111134" data-name="Trazado 111134" d="M13273.78,3182.667c.295.373,1.439,0,2.782,0s2.515.251,2.781-.137c.115-.195-.065-.568-.569-.92a4.042,4.042,0,0,0-4.483.137C13273.78,3182.106,13273.637,3182.487,13273.78,3182.667Z" transform="translate(-13270.941 -3165.455)" fill="#344154"/>
              </g>
              <path id="Trazado_111135" data-name="Trazado 111135" d="M13321.857,3193.6a2.989,2.989,0,0,1,3.112.158,5.52,5.52,0,0,1-3.479,10.249" transform="translate(-13284.375 -3168.897)" fill="#ffbf9d"/>
              <path id="Trazado_111136" data-name="Trazado 111136" d="M13323,3201.49c0-.086.469.1,1.04-.159a2.277,2.277,0,0,0-.248-3.946c-.6-.244-1.038-.122-1.058-.216s.4-.374,1.186-.2a2.163,2.163,0,0,1,1.167.719,2.664,2.664,0,0,1,.588,1.566,2.366,2.366,0,0,1-1.486,2.48C13323.356,3201.949,13322.925,3201.54,13323,3201.49Z" transform="translate(-13284.725 -3169.931)" fill="#ff9a6c"/>
            </g>
            <path id="Trazado_111137" data-name="Trazado 111137" d="M13326.833,3206.274a2.491,2.491,0,0,1,.547.381l1.438,1.193,5.138,4.363.172.143-.15.18c-1.911,2.293-4.039,5.175-6.47,8.179-.538.676-1.083,1.337-1.608,1.962l-.438.518v-.683c-.215-4.844-.388-9.135-.483-12.218,0-1.437-.063-2.681-.085-3.629a.664.664,0,1,1,.194-.008c.063.948.15,2.156.25,3.594.188,3.076.423,7.367.656,12.218l-.469-.157,1.6-1.955c2.387-3,4.543-5.857,6.509-8.136v.323l-5.028-4.513-1.38-1.287a2.58,2.58,0,0,1-.388-.467Z" transform="translate(-13284.231 -3156.941)" fill="#5e6178"/>
            <path id="Trazado_111138" data-name="Trazado 111138" d="M13286.852,3152.19a43.422,43.422,0,0,0-8.686.948,14.55,14.55,0,0,0-7.5,4.227,8.845,8.845,0,0,0-2.076,8.122,6.389,6.389,0,0,0,6.6,4.593c2.193-.288,4.313-1.912,6.412-1.272s3.105,3.055,5.158,3.436,3.848-1.438,5.9-1.625c2.27-.2,4.238,1.661,5.244,3.709s1.4,4.349,2.418,6.39a5.185,5.185,0,0,0,3.061,2.918,4.235,4.235,0,0,0,3.719-1.049,8.662,8.662,0,0,0,2.156-3.321,18.488,18.488,0,0,0-15.027-25.35" transform="translate(-13268.327 -3141.992)" fill="#344154"/>
            <path id="Trazado_111139" data-name="Trazado 111139" d="M13329.481,3165.238c-.094,0-.364-.963-1.1-2.422a17.231,17.231,0,0,0-9.206-8.323c-1.521-.575-2.535-.754-2.515-.848s.261,0,.719.043a10.9,10.9,0,0,1,1.918.446,15.756,15.756,0,0,1,9.433,8.524,11.521,11.521,0,0,1,.646,1.861A3.372,3.372,0,0,1,13329.481,3165.238Z" transform="translate(-13281.923 -3142.39)" fill="#d9a171"/>
            <path id="Trazado_111140" data-name="Trazado 111140" d="M13340.564,3144.932a19.231,19.231,0,0,0-2.877-.891,11.492,11.492,0,0,0-6.984,1.056,15.465,15.465,0,0,0-5.4,4.693c-1.107,1.5-1.617,2.545-1.7,2.509a2.445,2.445,0,0,1,.285-.776,14.206,14.206,0,0,1,1.107-1.948,14.4,14.4,0,0,1,5.472-4.959,11.028,11.028,0,0,1,7.3-.941,8.172,8.172,0,0,1,2.114.784A2.507,2.507,0,0,1,13340.564,3144.932Z" transform="translate(-13283.874 -3139.528)" fill="#5e6178"/>
            <path id="Trazado_111141" data-name="Trazado 111141" d="M13328.684,3165a7.321,7.321,0,0,1,0,2.451,19.383,19.383,0,0,1-4.625,10.738,7.467,7.467,0,0,1-1.79,1.667c-.146-.115,2.659-2.681,4.438-6.893A32.31,32.31,0,0,0,13328.684,3165Z" transform="translate(-13283.5 -3145.596)" fill="#5e6178"/>
            <path id="Trazado_111142" data-name="Trazado 111142" d="M13330,3165.341a2.059,2.059,0,0,1,.285.675,11.3,11.3,0,0,1,.469,1.962,16.829,16.829,0,0,1-3.191,12.636,11.45,11.45,0,0,1-1.344,1.5c-.346.324-.555.489-.574.46s.668-.812,1.609-2.156a18.6,18.6,0,0,0,3.117-12.362C13330.211,3166.368,13329.922,3165.362,13330,3165.341Z" transform="translate(-13284.447 -3145.691)" fill="#5e6178"/>
          </g>
        </g>
      </g>
    </g>
  </g>
</svg>
