<svg xmlns="http://www.w3.org/2000/svg" width="370.944" height="278.226" viewBox="0 0 370.944 278.226">
  <g id="img6" transform="translate(-1018 -7724)">
    <path id="Trazado_143540" data-name="Trazado 143540" d="M0,0H369V277H0Z" transform="translate(1019 7724)" fill="none"/>
    <g id="Grupo_78630" data-name="Grupo 78630" transform="translate(7116.944 11670.348)">
      <g id="freepik--background-complete--inject-68" transform="translate(-6098.944 -3946.348)">
        <rect id="Rectángulo_8092" data-name="Rectángulo 8092" width="15.605" height="0.208" transform="translate(329.067 267.612)" fill="#aed3f2"/>
        <rect id="Rectángulo_8093" data-name="Rectángulo 8093" width="7.225" height="0.208" transform="translate(265.417 273.315)" fill="#aed3f2"/>
        <rect id="Rectángulo_8094" data-name="Rectángulo 8094" width="16.095" height="0.208" transform="translate(188.008 270.447)" fill="#aed3f2"/>
        <rect id="Rectángulo_8095" data-name="Rectángulo 8095" width="35.907" height="0.208" transform="translate(22.539 270.339)" fill="#aed3f2"/>
        <rect id="Rectángulo_8096" data-name="Rectángulo 8096" width="5.263" height="0.208" transform="translate(9.877 270.339)" fill="#aed3f2"/>
        <rect id="Rectángulo_8097" data-name="Rectángulo 8097" width="77.883" height="0.208" transform="translate(112.635 265.417)" fill="#aed3f2"/>
        <rect id="Rectángulo_8098" data-name="Rectángulo 8098" width="168.146" height="119.826" transform="translate(4.066 3.617)" fill="#fafafa"/>
        <rect id="Rectángulo_8099" data-name="Rectángulo 8099" width="169.8" height="119.826" transform="translate(5.52 3.617)" fill="#aed3f2"/>
        <rect id="Rectángulo_8100" data-name="Rectángulo 8100" width="161.088" height="110.041" transform="translate(9.877 8.505)" fill="#fafafa"/>
        <path id="Trazado_106059" data-name="Trazado 106059" d="M5357.594,2975.869l25.556-110.041h33.5L5391.1,2975.869Z" transform="translate(-5318.386 -2857.323)" fill="#fff" stroke="#5e6178" stroke-miterlimit="10" stroke-width="0"/>
        <path id="Trazado_106060" data-name="Trazado 106060" d="M5404.414,2975.869l25.565-110.041h15.131l-25.565,110.041Z" transform="translate(-5326.281 -2857.323)" fill="#fff" stroke="#5e6178" stroke-miterlimit="10" stroke-width="0"/>
        <rect id="Rectángulo_8101" data-name="Rectángulo 8101" width="0.557" height="110.041" transform="translate(170.408 8.505)" fill="#fafafa"/>
        <path id="Trazado_106061" data-name="Trazado 106061" d="M5311.394,2859.015V2906.5h12.563s22.538-14.724,27.7-45.011a5.038,5.038,0,0,0-4.109-5.821,5.143,5.143,0,0,0-.879-.074h-31.859a3.417,3.417,0,0,0-3.417,3.417Z" transform="translate(-5310.595 -2855.597)" fill="#e0e0e0"/>
        <path id="Trazado_106062" data-name="Trazado 106062" d="M5311.394,3004.8v-83.362h12.563s25.5,49.093,28.449,83.362Z" transform="translate(-5310.595 -2866.7)" fill="#e0e0e0"/>
        <rect id="Rectángulo_8102" data-name="Rectángulo 8102" width="14.25" height="3.833" rx="1.51" transform="translate(0 50.905)" fill="#aed3f2"/>
        <path id="Trazado_106063" data-name="Trazado 106063" d="M5517.427,2859.015V2906.5h-12.586s-22.572-14.724-27.7-45.011a5.053,5.053,0,0,1,4.988-5.895h31.892A3.427,3.427,0,0,1,5517.427,2859.015Z" transform="translate(-5338.531 -2855.597)" fill="#e0e0e0"/>
        <path id="Trazado_106064" data-name="Trazado 106064" d="M5517.29,3004.8v-83.362H5504.7s-25.491,49.093-28.451,83.362Z" transform="translate(-5338.394 -2866.7)" fill="#e0e0e0"/>
        <rect id="Rectángulo_8103" data-name="Rectángulo 8103" width="14.25" height="3.833" rx="1.51" transform="translate(165.419 50.897)" fill="#aed3f2"/>
        <rect id="Rectángulo_8104" data-name="Rectángulo 8104" width="27.627" height="107.032" transform="translate(147.47 153.248)" fill="#fafafa"/>
        <path id="Trazado_106065" data-name="Trazado 106065" d="M5510.605,3166.161h7.374V3153.8h-15.105Z" transform="translate(-5342.883 -2905.881)" fill="#f4f8ff"/>
        <rect id="Rectángulo_8105" data-name="Rectángulo 8105" width="27.627" height="107.032" transform="translate(15.297 153.248)" fill="#e0e0e0"/>
        <rect id="Rectángulo_8106" data-name="Rectángulo 8106" width="138.607" height="102.775" transform="translate(36.489 153.248)" fill="#fafafa"/>
        <path id="Trazado_106066" data-name="Trazado 106066" d="M5404.414,3018.068c0,9.977,9.611,18.174,21.366,18.174h10.609c11.747,0,21.357-8.18,21.357-18.174Z" transform="translate(-5326.281 -2882.994)" fill="#f2e9e4"/>
        <path id="Trazado_106067" data-name="Trazado 106067" d="M5396.67,2990.6h19.952s-3.467,9.145-3.467,14.532,15.18,26.479-6.51,26.479-6.508-21.1-6.508-26.479S5396.67,2990.6,5396.67,2990.6Z" transform="translate(-5324.688 -2878.363)" fill="#e0e0e0"/>
        <rect id="Rectángulo_8107" data-name="Rectángulo 8107" width="127.167" height="25.914" transform="translate(42.209 159.508)" fill="#f2e9e4"/>
        <path id="Trazado_106068" data-name="Trazado 106068" d="M5361.7,3166.161h-7.374V3153.8h15.115Z" transform="translate(-5317.834 -2905.881)" fill="#fafafa"/>
        <path id="Trazado_106069" data-name="Trazado 106069" d="M5432.984,3062.245a3.907,3.907,0,1,0,3.907-3.907,3.907,3.907,0,0,0-3.907,3.907Z" transform="translate(-5331.099 -2889.785)" fill="#fafafa"/>
        <rect id="Rectángulo_8108" data-name="Rectángulo 8108" width="127.167" height="25.914" transform="translate(42.209 191.683)" fill="#f2e9e4"/>
        <path id="Trazado_106070" data-name="Trazado 106070" d="M5432.984,3100.946a3.907,3.907,0,1,0,3.907-3.907,3.906,3.906,0,0,0-3.907,3.907Z" transform="translate(-5331.099 -2896.311)" fill="#fafafa"/>
        <rect id="Rectángulo_8109" data-name="Rectángulo 8109" width="127.167" height="25.914" transform="translate(42.209 223.849)" fill="#f2e9e4"/>
        <circle id="Elipse_4126" data-name="Elipse 4126" cx="3.907" cy="3.907" r="3.907" transform="translate(101.886 232.902)" fill="#fafafa"/>
        <rect id="Rectángulo_8110" data-name="Rectángulo 8110" width="61.713" height="43.93" transform="translate(201.052 2.17)" fill="#e0e0e0"/>
        <rect id="Rectángulo_8111" data-name="Rectángulo 8111" width="63.243" height="43.93" transform="translate(204.561 2.17)" fill="#aed3f2"/>
        <rect id="Rectángulo_8112" data-name="Rectángulo 8112" width="55.179" height="35.866" transform="translate(208.592 6.202)" fill="#fff" stroke="#5e6178" stroke-miterlimit="10" stroke-width="0"/>
        <rect id="Rectángulo_8113" data-name="Rectángulo 8113" width="35.758" height="14.973" transform="translate(218.303 16.644)" fill="#aed3f2"/>
        <rect id="Rectángulo_8114" data-name="Rectángulo 8114" width="37.562" height="39.391" transform="translate(275.269 24.135)" fill="#e0e0e0"/>
        <rect id="Rectángulo_8115" data-name="Rectángulo 8115" width="39.1" height="39.391" transform="translate(278.786 24.135)" fill="#aed3f2"/>
        <rect id="Rectángulo_8116" data-name="Rectángulo 8116" width="31.035" height="31.326" transform="translate(282.818 28.167)" fill="#fff" stroke="#5e6178" stroke-miterlimit="10" stroke-width="0"/>
        <path id="Trazado_106071" data-name="Trazado 106071" d="M5662.293,2907.259h0a5.221,5.221,0,0,1,5.213-5.221h1.182a5.221,5.221,0,0,1,5.211,5.221h0a5.212,5.212,0,0,1-5.211,5.213h-1.141a5.212,5.212,0,0,1-5.254-5.171Z" transform="translate(-5369.765 -2863.428)" fill="#aed3f2"/>
        <path id="Trazado_106072" data-name="Trazado 106072" d="M5707.238,2948.118H5590.021v22.921h-18.032v22.921h-18.031v22.921h-18.033V3039.8h-18.033v22.913h-18.032v22.921h-18.034v22.921h-18.032v22.921h243.444Z" transform="translate(-5336.293 -2871.199)" fill="#fafafa"/>
        <rect id="Rectángulo_8117" data-name="Rectángulo 8117" width="102.783" height="6.875" transform="translate(125.646 237.358)" fill="#f2e9e4"/>
        <rect id="Rectángulo_8118" data-name="Rectángulo 8118" width="102.783" height="6.875" transform="translate(143.679 214.437)" fill="#f2e9e4"/>
        <rect id="Rectángulo_8119" data-name="Rectángulo 8119" width="102.783" height="6.875" transform="translate(161.711 191.516)" fill="#f2e9e4"/>
        <rect id="Rectángulo_8120" data-name="Rectángulo 8120" width="102.783" height="6.875" transform="translate(179.744 168.595)" fill="#f2e9e4"/>
        <rect id="Rectángulo_8121" data-name="Rectángulo 8121" width="102.783" height="6.875" transform="translate(197.776 145.682)" fill="#f2e9e4"/>
        <rect id="Rectángulo_8122" data-name="Rectángulo 8122" width="102.783" height="6.875" transform="translate(215.809 122.761)" fill="#f2e9e4"/>
        <rect id="Rectángulo_8123" data-name="Rectángulo 8123" width="102.783" height="6.875" transform="translate(233.842 99.84)" fill="#f2e9e4"/>
        <rect id="Rectángulo_8124" data-name="Rectángulo 8124" width="102.783" height="6.875" transform="translate(251.874 76.919)" fill="#f2e9e4"/>
        <path id="Trazado_106073" data-name="Trazado 106073" d="M5709.322,2948.118v22.921h-18.033v22.921h-18.032v22.921h-18.033V3039.8h-18.033v22.913h-18.033v22.921h-18.032v22.921h-18.032v22.921h144.26v-183.36Z" transform="translate(-5356.412 -2871.199)" fill="#fff" stroke="#5e6178" stroke-miterlimit="10" stroke-width="0"/>
      </g>
      <g id="freepik--Documents--inject-68" transform="translate(-6071.271 -3943.462)">
        <path id="Trazado_106074" data-name="Trazado 106074" d="M5445.5,2974.07h0a9.145,9.145,0,0,0-8.912-7.092h-66.51a9.145,9.145,0,0,0-9.145,9.145h0v147.835a9.145,9.145,0,0,0,9.145,9.146h211.169a9.144,9.144,0,0,0,9.145-9.146V2999.776a9.144,9.144,0,0,0-9.145-9.145H5466.307A21.35,21.35,0,0,1,5445.5,2974.07Z" transform="translate(-5346.622 -2877.265)" fill="#d9a171"/>
        <path id="Trazado_106075" data-name="Trazado 106075" d="M5445.5,2974.07h0a9.145,9.145,0,0,0-8.912-7.092h-66.51a9.145,9.145,0,0,0-9.145,9.145h0v147.835a9.145,9.145,0,0,0,9.145,9.146h211.169a9.144,9.144,0,0,0,9.145-9.146V2999.776a9.144,9.144,0,0,0-9.145-9.145H5466.307A21.35,21.35,0,0,1,5445.5,2974.07Z" transform="translate(-5346.622 -2877.265)" fill="#344154" opacity="0.6" style="isolation: isolate"/>
        <path id="Trazado_106076" data-name="Trazado 106076" d="M5434.409,2920.128l5.927,19.2a9.654,9.654,0,0,0,12.064,6.369l19.188-5.927Z" transform="translate(-5359.012 -2869.365)" fill="#d9a171" opacity="0.22" style="isolation: isolate"/>
        <path id="Trazado_106077" data-name="Trazado 106077" d="M5419.117,2920.128l-68.588,21.192a9.636,9.636,0,0,0-6.38,12.041l0,.015,39.158,126.768a9.646,9.646,0,0,0,12.061,6.369h0l87.785-27.12a9.635,9.635,0,0,0,6.372-12.045l0-.009-33.255-107.572Z" transform="translate(-5343.721 -2869.365)" fill="#d9a171"/>
        <path id="Trazado_106078" data-name="Trazado 106078" d="M5419.117,2920.128l-68.588,21.192a9.636,9.636,0,0,0-6.38,12.041l0,.015,39.158,126.768a9.646,9.646,0,0,0,12.061,6.369h0l87.785-27.12a9.635,9.635,0,0,0,6.372-12.045l0-.009-33.255-107.572Z" transform="translate(-5343.721 -2869.365)" fill="#fff" stroke="#5e6178" stroke-miterlimit="10" stroke-width="0" opacity="0.8" style="isolation: isolate"/>
        <g id="Grupo_57126" data-name="Grupo 57126" transform="translate(49.781 176.256)" opacity="0.28">
          <path id="Trazado_106079" data-name="Trazado 106079" d="M5466.118,3079.308l-57.065,17.625a4.223,4.223,0,0,1-5.271-2.777h0a4.223,4.223,0,0,1,2.784-5.262l57.066-17.633a4.222,4.222,0,0,1,5.27,2.784h0A4.223,4.223,0,0,1,5466.118,3079.308Z" transform="translate(-5403.598 -3071.074)" fill="#d9a171"/>
        </g>
        <g id="Grupo_57127" data-name="Grupo 57127" transform="translate(15.254 72.813)" opacity="0.28">
          <path id="Trazado_106080" data-name="Trazado 106080" d="M5397.7,2954.888l-30.179,9.32a4.232,4.232,0,0,1-5.27-2.777h0a4.231,4.231,0,0,1,2.785-5.271l30.18-9.319a4.214,4.214,0,0,1,5.27,2.777h0A4.232,4.232,0,0,1,5397.7,2954.888Z" transform="translate(-5362.067 -2946.65)" fill="#d9a171"/>
        </g>
        <g id="Grupo_57128" data-name="Grupo 57128" transform="translate(20.198 82.7)" opacity="0.28">
          <path id="Trazado_106081" data-name="Trazado 106081" d="M5423.33,2966.778l-49.883,15.406a4.225,4.225,0,0,1-5.247-2.785h0a4.217,4.217,0,0,1,2.777-5.263l49.883-15.4a4.221,4.221,0,0,1,5.271,2.776h0A4.24,4.24,0,0,1,5423.33,2966.778Z" transform="translate(-5368.014 -2958.543)" fill="#d9a171"/>
        </g>
        <g id="Grupo_57129" data-name="Grupo 57129" transform="translate(25.122 91.59)" opacity="0.28">
          <path id="Trazado_106082" data-name="Trazado 106082" d="M5452.179,2977.468l-72.795,22.447a4.216,4.216,0,0,1-5.263-2.777h0a4.232,4.232,0,0,1,2.777-5.271l72.795-22.447a4.223,4.223,0,0,1,5.263,2.777h0A4.223,4.223,0,0,1,5452.179,2977.468Z" transform="translate(-5373.936 -2969.236)" fill="#d9a171"/>
        </g>
        <g id="Grupo_57130" data-name="Grupo 57130" transform="translate(60.53 107.555)" opacity="0.28">
          <path id="Trazado_106083" data-name="Trazado 106083" d="M5464.292,2996.668l-42.317,13.078a4.225,4.225,0,0,1-5.263-2.785h0a4.225,4.225,0,0,1,2.777-5.264l42.317-13.076a4.24,4.24,0,0,1,5.271,2.785h0A4.226,4.226,0,0,1,5464.292,2996.668Z" transform="translate(-5416.527 -2988.438)" fill="#d9a171"/>
        </g>
        <g id="Grupo_57131" data-name="Grupo 57131" transform="translate(30.05 126.624)" opacity="0.28">
          <path id="Trazado_106084" data-name="Trazado 106084" d="M5396.388,3019.608l-11.065,3.417a4.224,4.224,0,0,1-5.271-2.777h0a4.223,4.223,0,0,1,2.785-5.271l11.065-3.417a4.231,4.231,0,0,1,5.271,2.777h0A4.239,4.239,0,0,1,5396.388,3019.608Z" transform="translate(-5379.865 -3011.375)" fill="#d9a171"/>
        </g>
        <g id="Grupo_57132" data-name="Grupo 57132" transform="translate(34.988 123.523)" opacity="0.28">
          <path id="Trazado_106085" data-name="Trazado 106085" d="M5464.049,3015.878l-72.795,22.489a4.223,4.223,0,0,1-5.262-2.785h0a4.214,4.214,0,0,1,2.776-5.263l72.795-22.489a4.222,4.222,0,0,1,5.263,2.777h0A4.224,4.224,0,0,1,5464.049,3015.878Z" transform="translate(-5385.805 -3007.645)" fill="#d9a171"/>
        </g>
        <g id="Grupo_57133" data-name="Grupo 57133" transform="translate(39.92 148.166)" opacity="0.28">
          <path id="Trazado_106086" data-name="Trazado 106086" d="M5441.888,3045.518l-44.7,13.809a4.225,4.225,0,0,1-5.263-2.777h0a4.232,4.232,0,0,1,2.777-5.271l44.7-13.809a4.23,4.23,0,0,1,5.27,2.785h0A4.214,4.214,0,0,1,5441.888,3045.518Z" transform="translate(-5391.736 -3037.286)" fill="#d9a171"/>
        </g>
        <g id="Grupo_57134" data-name="Grupo 57134" transform="translate(100.778 139.492)" opacity="0.28">
          <path id="Trazado_106087" data-name="Trazado 106087" d="M5482.323,3035.088l-11.931,3.683a4.231,4.231,0,0,1-5.27-2.785h0a4.222,4.222,0,0,1,2.785-5.263l11.93-3.683a4.215,4.215,0,0,1,5.263,2.777h0A4.222,4.222,0,0,1,5482.323,3035.088Z" transform="translate(-5464.938 -3026.853)" fill="#d9a171"/>
        </g>
        <g id="Grupo_57135" data-name="Grupo 57135" transform="translate(44.857 155.434)" opacity="0.28">
          <path id="Trazado_106088" data-name="Trazado 106088" d="M5475.911,3054.3l-72.779,22.448a4.223,4.223,0,0,1-5.271-2.785h0a4.215,4.215,0,0,1,2.786-5.262l72.787-22.489A4.239,4.239,0,0,1,5478.7,3049h0a4.224,4.224,0,0,1-2.763,5.3Z" transform="translate(-5397.675 -3046.028)" fill="#d9a171"/>
        </g>
        <path id="Trazado_106089" data-name="Trazado 106089" d="M5472.9,2862.161l21.766,48.5a5.247,5.247,0,0,1-2.627,6.917l-92.333,41.444a5.239,5.239,0,0,1-6.917-2.627l-21.773-48.5a5.238,5.238,0,0,1,2.627-6.925l92.332-41.444A5.253,5.253,0,0,1,5472.9,2862.161Z" transform="translate(-5348.245 -2859.069)" fill="#d9a171"/>
        <path id="Trazado_106090" data-name="Trazado 106090" d="M5472.9,2862.161l21.766,48.5a5.247,5.247,0,0,1-2.627,6.917l-92.333,41.444a5.239,5.239,0,0,1-6.917-2.627l-21.773-48.5a5.238,5.238,0,0,1,2.627-6.925l92.332-41.444A5.253,5.253,0,0,1,5472.9,2862.161Z" transform="translate(-5348.245 -2859.069)" fill="#344154" opacity="0.3" style="isolation: isolate"/>
        <rect id="Rectángulo_8125" data-name="Rectángulo 8125" width="3.234" height="0.831" transform="matrix(0.912, -0.409, 0.409, 0.912, 107.154, 2.019)" fill="#d9a171"/>
        <rect id="Rectángulo_8126" data-name="Rectángulo 8126" width="10.085" height="0.831" transform="matrix(0.912, -0.409, 0.409, 0.912, 93.82, 7.996)" fill="#d9a171"/>
        <rect id="Rectángulo_8127" data-name="Rectángulo 8127" width="0.831" height="6.152" transform="translate(21.931 54.054) rotate(-24.18)" fill="#d9a171"/>
        <path id="Trazado_106091" data-name="Trazado 106091" d="M5469.892,2859.351l-23.812,46.641a21.325,21.325,0,0,1-24.358,10.932l-50.673-13.21a5.313,5.313,0,0,1,2.677-2.744l92.333-41.444A5.234,5.234,0,0,1,5469.892,2859.351Z" transform="translate(-5348.328 -2859.069)" fill="#d9a171" opacity="0.6" style="isolation: isolate"/>
        <path id="Trazado_106092" data-name="Trazado 106092" d="M5512.937,2931.208l-71.648,4.423a9.644,9.644,0,0,0-9.055,10.2v.02l8.172,132.421a9.644,9.644,0,0,0,10.207,9.047l.027,0,91.7-5.661a9.628,9.628,0,0,0,9.03-10.189l0-.029-6.9-112.377Z" transform="translate(-5358.642 -2871.234)" fill="#d9a171"/>
        <path id="Trazado_106093" data-name="Trazado 106093" d="M5512.937,2931.208l-71.648,4.423a9.644,9.644,0,0,0-9.055,10.2v.02l8.172,132.421a9.644,9.644,0,0,0,10.207,9.047l.027,0,91.7-5.661a9.628,9.628,0,0,0,9.03-10.189l0-.029-6.9-112.377Z" transform="translate(-5358.642 -2871.234)" fill="#fff" stroke="#5e6178" stroke-miterlimit="10" stroke-width="0" opacity="0.8" style="isolation: isolate"/>
        <g id="Grupo_57136" data-name="Grupo 57136" transform="translate(94.545 190.211)" opacity="0.22">
          <path id="Trazado_106094" data-name="Trazado 106094" d="M5521.521,3096.271l-59.618,3.684a4.225,4.225,0,0,1-4.456-3.95h0a4.232,4.232,0,0,1,3.94-4.464l59.618-3.675a4.223,4.223,0,0,1,4.464,3.941h0A4.222,4.222,0,0,1,5521.521,3096.271Z" transform="translate(-5457.441 -3087.859)" fill="#d9a171"/>
        </g>
        <g id="Grupo_57137" data-name="Grupo 57137" transform="translate(87.337 75.198)" opacity="0.22">
          <path id="Trazado_106095" data-name="Trazado 106095" d="M5484.777,2957.948l-31.535,1.929a4.232,4.232,0,0,1-4.464-3.94h0a4.233,4.233,0,0,1,3.95-4.465l31.534-1.945a4.215,4.215,0,0,1,4.457,3.941h0A4.223,4.223,0,0,1,5484.777,2957.948Z" transform="translate(-5448.771 -2949.519)" fill="#d9a171"/>
        </g>
        <g id="Grupo_57138" data-name="Grupo 57138" transform="translate(88.368 90.628)" opacity="0.22">
          <path id="Trazado_106096" data-name="Trazado 106096" d="M5506.583,2976.492l-52.1,3.209a4.216,4.216,0,0,1-4.464-3.94h0a4.223,4.223,0,0,1,3.949-4.465l52.094-3.209a4.215,4.215,0,0,1,4.465,3.94h0A4.223,4.223,0,0,1,5506.583,2976.492Z" transform="translate(-5450.01 -2968.078)" fill="#d9a171"/>
        </g>
        <g id="Grupo_57139" data-name="Grupo 57139" transform="translate(89.382 105.826)" opacity="0.22">
          <path id="Trazado_106097" data-name="Trazado 106097" d="M5531.757,2994.781l-76.038,4.689a4.232,4.232,0,0,1-4.481-3.949h0a4.216,4.216,0,0,1,3.941-4.456l76.046-4.7a4.223,4.223,0,0,1,4.456,3.949h0A4.224,4.224,0,0,1,5531.757,2994.781Z" transform="translate(-5451.23 -2986.36)" fill="#d9a171"/>
        </g>
        <g id="Grupo_57140" data-name="Grupo 57140" transform="translate(122.262 122.511)" opacity="0.22">
          <path id="Trazado_106098" data-name="Trazado 106098" d="M5539.457,3014.842l-44.2,2.727a4.224,4.224,0,0,1-4.465-3.94h0a4.215,4.215,0,0,1,3.941-4.465l44.2-2.727a4.214,4.214,0,0,1,4.464,3.941h0A4.221,4.221,0,0,1,5539.457,3014.842Z" transform="translate(-5490.78 -3006.428)" fill="#d9a171"/>
        </g>
        <g id="Grupo_57141" data-name="Grupo 57141" transform="translate(90.429 126.486)" opacity="0.22">
          <path id="Trazado_106099" data-name="Trazado 106099" d="M5468.519,3019.622l-11.565.715a4.216,4.216,0,0,1-4.457-3.941h0a4.226,4.226,0,0,1,3.941-4.465l11.564-.715a4.23,4.23,0,0,1,4.464,3.949h0A4.223,4.223,0,0,1,5468.519,3019.622Z" transform="translate(-5452.489 -3011.209)" fill="#d9a171"/>
        </g>
        <g id="Grupo_57142" data-name="Grupo 57142" transform="translate(91.452 139.189)" opacity="0.22">
          <path id="Trazado_106100" data-name="Trazado 106100" d="M5534.239,3034.9l-76.046,4.69a4.226,4.226,0,0,1-4.465-3.942h0a4.232,4.232,0,0,1,3.949-4.464l76.038-4.689a4.224,4.224,0,0,1,4.465,3.949h0A4.215,4.215,0,0,1,5534.239,3034.9Z" transform="translate(-5453.721 -3026.489)" fill="#d9a171"/>
        </g>
        <g id="Grupo_57143" data-name="Grupo 57143" transform="translate(92.483 157.68)" opacity="0.22">
          <path id="Trazado_106101" data-name="Trazado 106101" d="M5506.13,3057.142l-46.7,2.885a4.233,4.233,0,0,1-4.465-3.949h0a4.223,4.223,0,0,1,3.949-4.456l46.7-2.885a4.222,4.222,0,0,1,4.457,3.949h0A4.207,4.207,0,0,1,5506.13,3057.142Z" transform="translate(-5454.96 -3048.729)" fill="#d9a171"/>
        </g>
        <g id="Grupo_57144" data-name="Grupo 57144" transform="translate(156.057 155.874)" opacity="0.22">
          <path id="Trazado_106102" data-name="Trazado 106102" d="M5548.365,3054.972l-12.471.765a4.216,4.216,0,0,1-4.457-3.941h0a4.214,4.214,0,0,1,3.94-4.464l12.471-.765a4.215,4.215,0,0,1,4.465,3.941h0A4.232,4.232,0,0,1,5548.365,3054.972Z" transform="translate(-5531.43 -3046.558)" fill="#d9a171"/>
        </g>
        <g id="Grupo_57145" data-name="Grupo 57145" transform="translate(93.514 172.552)" opacity="0.22">
          <path id="Trazado_106103" data-name="Trazado 106103" d="M5536.709,3075.031l-76.038,4.689a4.224,4.224,0,0,1-4.464-3.94h0a4.224,4.224,0,0,1,3.94-4.465l76.046-4.689a4.214,4.214,0,0,1,4.457,3.94h0A4.216,4.216,0,0,1,5536.709,3075.031Z" transform="translate(-5456.2 -3066.619)" fill="#d9a171"/>
        </g>
        <path id="Trazado_106104" data-name="Trazado 106104" d="M5529.309,2931.208l1.239,20.052a9.645,9.645,0,0,0,10.216,9.037h0l20.078-1.239Z" transform="translate(-5375.014 -2871.234)" fill="#d9a171" opacity="0.22" style="isolation: isolate"/>
        <path id="Trazado_106105" data-name="Trazado 106105" d="M5478.484,2989.938h0a7.191,7.191,0,0,0-7.284-7.1c-.066,0-.132,0-.2.005h-66.593a11.625,11.625,0,0,0-10.923,9.146L5367.2,3126.633c-.98,5.046,2.312,9.145,7.358,9.145h211.17a11.654,11.654,0,0,0,10.925-9.145l21.673-110.989c.981-5.055-2.311-9.144-7.357-9.144h-114.9C5486.091,3006.5,5478.825,2999.632,5478.484,2989.938Z" transform="translate(-5347.65 -2879.939)" fill="#d9a171" opacity="0.5" style="isolation: isolate"/>
      </g>
      <g id="freepik--Character--inject-68" transform="translate(-5897.03 -3899.719)">
        <path id="Trazado_106106" data-name="Trazado 106106" d="M5649.122,2937.4c1.164,3.9,7.166,11.2,7.64,16.511s-9.761,13.809-9.761,13.809-7.648-25.573-2.86-28.558S5649.122,2937.4,5649.122,2937.4Z" transform="translate(-5568.353 -2915.979)" fill="#344154"/>
        <path id="Trazado_106107" data-name="Trazado 106107" d="M5615.046,2969.643c-1.812,1.513-3.592,2.785-5.446,4.091s-3.767,2.494-5.712,3.608a64.392,64.392,0,0,1-6.027,3.151c-1.048.474-2.087.939-3.168,1.347-.533.216-1.072.424-1.621.607l-1.662.582a10.985,10.985,0,0,1-4.374.316,25.014,25.014,0,0,1-3.625-.7,48.049,48.049,0,0,1-6.493-2.312,86.507,86.507,0,0,1-11.8-6.276l1.554-2.894c1.963.832,3.974,1.663,5.971,2.386s4.007,1.489,6.018,2.112a50.5,50.5,0,0,0,5.986,1.563,19.438,19.438,0,0,0,2.818.341,5.85,5.85,0,0,0,2.095-.216,53.606,53.606,0,0,0,5.555-2.494c.922-.482,1.836-.973,2.735-1.5s1.812-1.047,2.7-1.6c1.788-1.106,3.533-2.278,5.262-3.483s3.45-2.494,4.988-3.716Z" transform="translate(-5555.295 -2920.6)" fill="#ffd2b1"/>
        <path id="Trazado_106108" data-name="Trazado 106108" d="M5627.778,2959.964c-2.062-1.613-10.591,3.666-13.177,5.869l1.887,11.415s12.263-5.137,12.994-8.646C5630.256,2964.935,5629.316,2961.194,5627.778,2959.964Z" transform="translate(-5563.637 -2919.775)" fill="#d9a171"/>
        <path id="Trazado_106109" data-name="Trazado 106109" d="M5627.778,2959.964c-2.062-1.613-10.591,3.666-13.177,5.869l1.887,11.415s12.263-5.137,12.994-8.646C5630.256,2964.935,5629.316,2961.194,5627.778,2959.964Z" transform="translate(-5563.637 -2919.775)" fill="#344154" opacity="0.2" style="isolation: isolate"/>
        <path id="Trazado_106110" data-name="Trazado 106110" d="M5657.532,2993.549l-25.888,5.047c-13.377-36.223-10.467-37.413-10.467-37.413a52.26,52.26,0,0,1,5.82-2.743l.349-.133c1.663-.607,2-.7,4.207-1.347,3.808-.907,7.358-1.664,11.756-2.287l.832-.116c.831-.1,1.587-.183,2.353-.258.515-.058,1.03-.091,1.522-.124l1.663-.092c2.842-.142,4.879-.1,4.879-.1C5653.766,2976.606,5655.047,2983.1,5657.532,2993.549Z" transform="translate(-5564.701 -2918.816)" fill="#d9a171"/>
        <path id="Trazado_106111" data-name="Trazado 106111" d="M5657.532,2993.549l-25.888,5.047c-13.377-36.223-10.467-37.413-10.467-37.413a52.26,52.26,0,0,1,5.82-2.743l.349-.133c1.663-.607,2-.7,4.207-1.347,3.808-.907,7.358-1.664,11.756-2.287l.832-.116c.831-.1,1.587-.183,2.353-.258.515-.058,1.03-.091,1.522-.124l1.663-.092c2.842-.142,4.879-.1,4.879-.1C5653.766,2976.606,5655.047,2983.1,5657.532,2993.549Z" transform="translate(-5564.701 -2918.816)" fill="#344154" opacity="0.2" style="isolation: isolate"/>
        <path id="Trazado_106112" data-name="Trazado 106112" d="M5640.513,2939.032c-1.661,2.752,4.366,4.024,7.932,1.206,2.852-2.262,2.179-7.483-.266-8.7S5640.513,2939.032,5640.513,2939.032Z" transform="translate(-5567.959 -2915.013)" fill="#d9a171"/>
        <path id="Trazado_106113" data-name="Trazado 106113" d="M5640.513,2939.032c-1.661,2.752,4.366,4.024,7.932,1.206,2.852-2.262,2.179-7.483-.266-8.7S5640.513,2939.032,5640.513,2939.032Z" transform="translate(-5567.959 -2915.013)" fill="#344154" opacity="0.4" style="isolation: isolate"/>
        <path id="Trazado_106114" data-name="Trazado 106114" d="M5669.088,3178.892l-6.477.482-2.369-14.906,6.477-.482Z" transform="translate(-5571.335 -2954.229)" fill="#ffd2b1"/>
        <path id="Trazado_106115" data-name="Trazado 106115" d="M5722.882,3154.5l-5.5,3.459-9.785-11.606,5.5-3.466Z" transform="translate(-5579.32 -2950.671)" fill="#ffd2b1"/>
        <path id="Trazado_106116" data-name="Trazado 106116" d="M5660.242,3164.469l1.313,8.28,6.386-1.073-1.213-7.682Z" transform="translate(-5571.335 -2954.23)" fill="#cf6f64"/>
        <path id="Trazado_106117" data-name="Trazado 106117" d="M5713.1,3142.895l-5.5,3.458,4.057,4.805,5.62-3.317Z" transform="translate(-5579.32 -2950.672)" fill="#cf6f64"/>
        <path id="Trazado_106118" data-name="Trazado 106118" d="M5634.3,3006.9s-.092,51.4,4.107,70.75c4.372,20.135,17.234,65.944,17.234,65.944l9.328-1.206s-7.291-46.274-10.4-66.285c-3.384-21.807-1.306-72.9-1.306-72.9Z" transform="translate(-5566.96 -2927.117)" fill="#d9a171"/>
        <path id="Trazado_106119" data-name="Trazado 106119" d="M5634.3,3006.9s-.092,51.4,4.107,70.75c4.372,20.135,17.234,65.944,17.234,65.944l9.328-1.206s-7.291-46.274-10.4-66.285c-3.384-21.807-1.306-72.9-1.306-72.9Z" transform="translate(-5566.96 -2927.117)" fill="#344154" opacity="0.7" style="isolation: isolate"/>
        <path id="Trazado_106120" data-name="Trazado 106120" d="M5655.484,3029.681l-4.573-4.556c.175,19.745,1.28,29.5,5.08,40.122C5655.392,3054.015,5655.342,3040.73,5655.484,3029.681Z" transform="translate(-5569.76 -2930.813)" fill="#344154" opacity="0.5" style="isolation: isolate"/>
        <path id="Trazado_106121" data-name="Trazado 106121" d="M5642.041,3005.291s13.942,42.475,20.859,66.942c7.3,25.815,35.284,54.364,35.284,54.364l8.031-4.639s-19.122-27.1-26.155-51.188c-14.3-48.893-8.421-59.252-18.973-69.2Z" transform="translate(-5568.264 -2926.842)" fill="#d9a171"/>
        <path id="Trazado_106122" data-name="Trazado 106122" d="M5642.041,3005.291s13.942,42.475,20.859,66.942c7.3,25.815,35.284,54.364,35.284,54.364l8.031-4.639s-19.122-27.1-26.155-51.188c-14.3-48.893-8.421-59.252-18.973-69.2Z" transform="translate(-5568.264 -2926.842)" fill="#344154" opacity="0.7" style="isolation: isolate"/>
        <path id="Trazado_106123" data-name="Trazado 106123" d="M5627.4,2922.535c3.709,1.239,7.076,10.442,7.217,14.067s-10.741,8.621-10.741,8.621-4.8-11.639-3.459-19.122C5621,2922.851,5627.4,2922.535,5627.4,2922.535Z" transform="translate(-5564.578 -2913.514)" fill="#344154"/>
        <path id="Trazado_106124" data-name="Trazado 106124" d="M5566.467,2971.9l-4.4-4.789-1.438,6s3.126,2.76,5.653,1.813Z" transform="translate(-5554.537 -2921.032)" fill="#ffd2b1"/>
        <path id="Trazado_106125" data-name="Trazado 106125" d="M5556.377,2965.465l-3.077,2.444,6.094,4.93,1.439-6Z" transform="translate(-5553.301 -2920.753)" fill="#ffd2b1"/>
        <path id="Trazado_106126" data-name="Trazado 106126" d="M5716.673,3158.444l5.139-5.18a.523.523,0,0,1,.681-.049l4.682,3.475a1.037,1.037,0,0,1,.176,1.459.87.87,0,0,1-.084.1c-1.831,1.771-2.793,2.536-5.056,4.814-1.388,1.405-3.275,3.592-5.2,5.529s-3.941.132-3.326-.831c2.8-4.382,2.3-6.02,2.5-8.247A1.667,1.667,0,0,1,5716.673,3158.444Z" transform="translate(-5580.327 -2952.395)" fill="#344154"/>
        <path id="Trazado_106127" data-name="Trazado 106127" d="M5660.489,3181.375h7.3a.548.548,0,0,1,.539.449l1.148,5.77a.981.981,0,0,1-.791,1.14.941.941,0,0,1-.182.016c-2.552-.042-3.783-.192-6.993-.192-1.97,0-6.044.2-8.77.2s-3.019-2.694-1.9-2.935c4.989-1.1,6.942-2.6,8.581-4.049A1.665,1.665,0,0,1,5660.489,3181.375Z" transform="translate(-5569.644 -2957.161)" fill="#344154"/>
        <path id="Trazado_106128" data-name="Trazado 106128" d="M5661.582,2969.754l-3.991,2.378,4.606,17.318C5661.191,2984.2,5661.641,2978.443,5661.582,2969.754Z" transform="translate(-5570.887 -2921.477)" fill="#d9a171" opacity="0.27" style="isolation: isolate"/>
        <path id="Trazado_106129" data-name="Trazado 106129" d="M5635.111,2934.975c2.835,2.369,6.95,5.82,11.8,1.787,4.157-3.475,7.066-12.595-.392-12.928C5642.619,2923.66,5635.111,2934.975,5635.111,2934.975Z" transform="translate(-5567.097 -2913.733)" fill="#344154"/>
        <path id="Trazado_106130" data-name="Trazado 106130" d="M5641.586,2939.185c0,3.924.605,11,3.741,13.011,0,0-.283,4.041-7.317,5.4-7.723,1.5-4.439-3.118-4.439-3.118,4.023-1.829,3.325-4.939,1.995-7.732Z" transform="translate(-5566.719 -2916.322)" fill="#ffd2b1"/>
        <path id="Trazado_106131" data-name="Trazado 106131" d="M5639.68,2942.9l-3.559,4.481a12.653,12.653,0,0,1,.766,2.012c1.562-.549,3.433-2.744,3.274-4.464A5.671,5.671,0,0,0,5639.68,2942.9Z" transform="translate(-5567.267 -2916.948)" fill="#f5bc8c"/>
        <path id="Trazado_106132" data-name="Trazado 106132" d="M5640.191,2926.773c.831,6.393,1.338,9.079-1.222,12.945-3.849,5.82-11.881,5.446-14.616-.565-2.495-5.413-3.425-14.965,2.263-18.665a8.786,8.786,0,0,1,13.575,6.285Z" transform="translate(-5564.953 -2912.923)" fill="#ffd2b1"/>
        <path id="Trazado_106133" data-name="Trazado 106133" d="M5630.2,2914.337c-4.324,3.068,4.348,3.974,4.356,8.422,0,1.837,3.018,7.666,7.309,7.333l4.156-7.383C5650.39,2915.643,5640.055,2907.329,5630.2,2914.337Z" transform="translate(-5566.063 -2911.685)" fill="#344154"/>
        <path id="Trazado_106134" data-name="Trazado 106134" d="M5628.374,2914.871c-7.607-.4-10.924,5.654-10.051,11.091a49.564,49.564,0,0,1,16.246-1.288C5644.993,2925.738,5628.374,2914.871,5628.374,2914.871Z" transform="translate(-5564.241 -2912.219)" fill="#344154"/>
        <path id="Trazado_106135" data-name="Trazado 106135" d="M5645.426,2934.554a4.689,4.689,0,0,1-1.089,3.425c-1.072,1.255-2.495.516-2.992-.973-.425-1.347-.375-3.616,1.072-4.331a2.12,2.12,0,0,1,2.814,1.034A2.091,2.091,0,0,1,5645.426,2934.554Z" transform="translate(-5568.108 -2915.191)" fill="#ffd2b1"/>
        <path id="Trazado_106136" data-name="Trazado 106136" d="M5632.44,2932.543c.1.515-.092.98-.424,1.048s-.691-.3-.79-.832.092-.989.424-1.055S5632.34,2932.028,5632.44,2932.543Z" transform="translate(-5566.436 -2915.059)" fill="#344154"/>
        <path id="Trazado_106137" data-name="Trazado 106137" d="M5625.45,2933.907c.1.515-.092.99-.424,1.056s-.69-.3-.79-.831.091-.99.424-1.048S5625.35,2933.383,5625.45,2933.907Z" transform="translate(-5565.258 -2915.293)" fill="#344154"/>
        <path id="Trazado_106138" data-name="Trazado 106138" d="M5624.676,2933.073l-1.306-.108S5624.194,2933.8,5624.676,2933.073Z" transform="translate(-5565.116 -2915.273)" fill="#344154"/>
        <path id="Trazado_106139" data-name="Trazado 106139" d="M5627.518,2934.785a14.207,14.207,0,0,1-1.2,3.634,2.253,2.253,0,0,0,1.9,0Z" transform="translate(-5565.614 -2915.58)" fill="#e8b590"/>
        <path id="Trazado_106140" data-name="Trazado 106140" d="M5631.19,2940.62a.151.151,0,0,1-.029-.3h0a4.157,4.157,0,0,0,3.01-2.245.153.153,0,1,1,.282.117,4.38,4.38,0,0,1-3.233,2.427Z" transform="translate(-5566.41 -2916.119)" fill="#344154"/>
        <path id="Trazado_106141" data-name="Trazado 106141" d="M5633.744,2929.771a.32.32,0,0,1-.207-.074,2.444,2.444,0,0,0-2.128-.632.326.326,0,0,1-.158-.632,3.085,3.085,0,0,1,2.7.773.306.306,0,0,1,0,.432A.3.3,0,0,1,5633.744,2929.771Z" transform="translate(-5566.405 -2914.499)" fill="#344154"/>
        <path id="Trazado_106142" data-name="Trazado 106142" d="M5621.769,2930.985a.257.257,0,0,1-.117,0,.309.309,0,0,1-.168-.4l0-.007a3.051,3.051,0,0,1,2.1-1.854.3.3,0,0,1,.355.232l0,.017a.3.3,0,0,1-.229.356l-.012,0a2.5,2.5,0,0,0-1.663,1.488A.312.312,0,0,1,5621.769,2930.985Z" transform="translate(-5564.795 -2914.556)" fill="#344154"/>
        <path id="Trazado_106143" data-name="Trazado 106143" d="M5714.811,3162.7a.885.885,0,0,1-.715-.4.527.527,0,0,1-.091-.515c.291-.782,2.585-1.28,2.843-1.338a.158.158,0,0,1,.158.066.142.142,0,0,1,0,.167c-.45.74-1.331,1.978-2.153,2.02Zm1.738-1.871c-.907.233-2.1.649-2.253,1.064a.209.209,0,0,0,.05.224.565.565,0,0,0,.5.274C5715.284,3162.365,5715.908,3161.792,5716.549,3160.827Z" transform="translate(-5580.395 -2953.631)" fill="#d9a171"/>
        <path id="Trazado_106144" data-name="Trazado 106144" d="M5716.161,3160.571a3.033,3.033,0,0,1-2.177-.656.54.54,0,0,1,.057-.673.836.836,0,0,1,.607-.316h.067c.931,0,2.211,1.255,2.26,1.305a.148.148,0,0,1,.042.15.159.159,0,0,1-.109.108A2.976,2.976,0,0,1,5716.161,3160.571Zm-1.446-1.338h-.05a.5.5,0,0,0-.383.2c-.116.158-.083.25-.041.308.249.383,1.522.6,2.3.507a3.671,3.671,0,0,0-1.828-1.014Z" transform="translate(-5580.38 -2953.375)" fill="#d9a171"/>
        <path id="Trazado_106145" data-name="Trazado 106145" d="M5659.314,3182.411a2.5,2.5,0,0,1-1.589-.4.832.832,0,0,1-.314-.74.479.479,0,0,1,.232-.415c.764-.449,3.441.881,3.741,1.031a.156.156,0,0,1-.033.291A11.005,11.005,0,0,1,5659.314,3182.411Zm-1.23-1.347a.547.547,0,0,0-.283.058.158.158,0,0,0-.083.158.586.586,0,0,0,.208.5c.415.358,1.487.416,2.9.183a8.7,8.7,0,0,0-2.743-.9Z" transform="translate(-5570.856 -2957.058)" fill="#d9a171"/>
        <path id="Trazado_106146" data-name="Trazado 106146" d="M5661.627,3181.853h-.058c-.832-.358-2.436-1.771-2.32-2.494,0-.166.15-.382.566-.424h.125c1.446,0,1.82,2.644,1.837,2.76a.166.166,0,0,1-.057.15A.168.168,0,0,1,5661.627,3181.853Zm-1.663-2.628h-.091c-.267,0-.283.125-.283.159-.066.44,1.031,1.545,1.863,2.036-.167-.648-.592-2.178-1.522-2.178Z" transform="translate(-5571.166 -2956.749)" fill="#d9a171"/>
        <path id="Trazado_106147" data-name="Trazado 106147" d="M5631.666,2931.712l-1.306-.117S5631.184,2932.443,5631.666,2931.712Z" transform="translate(-5566.294 -2915.042)" fill="#344154"/>
        <path id="Trazado_106148" data-name="Trazado 106148" d="M5636.761,2965.646c-13.908,3.1-9.61-5.313-8.779-7.167l.349-.133c1.663-.607,2-.7,4.207-1.347a83.6,83.6,0,0,1,11.756-2.287l.831-.116c.833-.108,1.589-.191,2.352-.258.516-.058,1.033-.091,1.522-.124l1.663-.1h0C5650.944,2955.412,5651.635,2962.346,5636.761,2965.646Z" transform="translate(-5565.679 -2918.84)" fill="#ffd2b1"/>
        <path id="Trazado_106149" data-name="Trazado 106149" d="M5659.573,2999.629l1.621,2.095c.125.158-.05.383-.35.441l-27.153,5.287c-.233.05-.449,0-.491-.175l-.689-2.27a.428.428,0,0,1,.382-.383l26.221-5.1A.476.476,0,0,1,5659.573,2999.629Z" transform="translate(-5566.658 -2926.493)" fill="#26395a"/>
        <path id="Trazado_106150" data-name="Trazado 106150" d="M5661.263,3003.315l.707-.133c.141,0,.233-.116.208-.208l-.915-2.944c0-.091-.166-.133-.307-.107l-.7.133c-.143,0-.233.125-.209.208l.916,2.951C5660.99,3003.3,5661.132,3003.349,5661.263,3003.315Z" transform="translate(-5571.3 -2926.563)" fill="#d9a171"/>
        <path id="Trazado_106151" data-name="Trazado 106151" d="M5641.283,3015.4l-5.413-2.012.832,5.146s3.923,1.413,5.927-.4Z" transform="translate(-5567.224 -2928.834)" fill="#ffd2b1"/>
        <path id="Trazado_106152" data-name="Trazado 106152" d="M5629.411,3014.749l-1.288,3.375,7.274.407-.831-5.146Z" transform="translate(-5565.918 -2928.833)" fill="#ffd2b1"/>
        <path id="Trazado_106153" data-name="Trazado 106153" d="M5636.114,3008.216l.707-.133c.134,0,.232-.116.2-.208l-.914-2.943c0-.091-.159-.133-.3-.108l-.707.133c-.141,0-.233.125-.2.208l.914,2.951C5635.839,3008.2,5635.972,3008.249,5636.114,3008.216Z" transform="translate(-5567.06 -2927.39)" fill="#d9a171"/>
        <path id="Trazado_106154" data-name="Trazado 106154" d="M5648.692,3005.756l.7-.134c.142,0,.233-.116.207-.208l-.915-2.943c0-.092-.166-.133-.307-.108l-.7.133c-.143,0-.233.125-.208.208l.913,2.951A.267.267,0,0,0,5648.692,3005.756Z" transform="translate(-5569.18 -2926.974)" fill="#d9a171"/>
        <path id="Trazado_106155" data-name="Trazado 106155" d="M5643.881,2950.862c.591-.225,1.331,1.854,1.148,2.12-.425.607-8.19,2.727-8.539,1.538a5.2,5.2,0,0,1,.291-1.9C5637.006,2952.225,5638.728,2952.957,5643.881,2950.862Z" transform="translate(-5567.328 -2918.288)" fill="#d9a171"/>
        <path id="Trazado_106156" data-name="Trazado 106156" d="M5643.787,2950.651c.3-.69,1.156-1.8,1.9-1.165s1.064,2,.574,2.22S5643.272,2951.806,5643.787,2950.651Z" transform="translate(-5568.547 -2918.028)" fill="#d9a171"/>
        <path id="Trazado_106157" data-name="Trazado 106157" d="M5645.671,2951.185c.515-.549,1.663-1.3,2.187-.457s.333,2.237-.2,2.278S5644.8,2952.091,5645.671,2951.185Z" transform="translate(-5568.844 -2918.204)" fill="#d9a171"/>
        <path id="Trazado_106158" data-name="Trazado 106158" d="M5646.05,2950.418a2.3,2.3,0,0,1,1.154-2.22c.948-.615,1.87-1.015,2.237-1.663a4.6,4.6,0,0,1,.092,1.862c-.191.89-3.143,1.572-2.943,2.345Z" transform="translate(-5568.94 -2917.562)" fill="#d9a171"/>
        <path id="Trazado_106159" data-name="Trazado 106159" d="M5645.8,2950.123a2.306,2.306,0,0,1-.233-2.494,7.4,7.4,0,0,0,.981-2.594,4.623,4.623,0,0,1,1.089,1.513c.316.831-1.788,3.018-1.2,3.567Z" transform="translate(-5568.815 -2917.308)" fill="#d9a171"/>
        <path id="Trazado_106160" data-name="Trazado 106160" d="M5706.951,3122.835a.1.1,0,0,1-.083-.05c-.191-.267-19.2-27.386-26.164-51.213a349.212,349.212,0,0,1-10.459-46.624c-1.437-8.879-2.31-14.242-5.17-18.639a.1.1,0,1,1,.141-.149c2.893,4.439,3.765,9.818,5.2,18.722a350.168,350.168,0,0,0,10.476,46.557c6.958,23.794,25.947,50.88,26.138,51.155a.116.116,0,0,1,0,.141A.109.109,0,0,1,5706.951,3122.835Z" transform="translate(-5572.144 -2927.611)" fill="#d9a171"/>
        <path id="Trazado_106161" data-name="Trazado 106161" d="M5706.951,3122.835a.1.1,0,0,1-.083-.05c-.191-.267-19.2-27.386-26.164-51.213a349.212,349.212,0,0,1-10.459-46.624c-1.437-8.879-2.31-14.242-5.17-18.639a.1.1,0,1,1,.141-.149c2.893,4.439,3.765,9.818,5.2,18.722a350.168,350.168,0,0,0,10.476,46.557c6.958,23.794,25.947,50.88,26.138,51.155a.116.116,0,0,1,0,.141A.109.109,0,0,1,5706.951,3122.835Z" transform="translate(-5572.144 -2927.611)" fill="#344154" opacity="0.4" style="isolation: isolate"/>
        <path id="Trazado_106162" data-name="Trazado 106162" d="M5670.457,3169.623l-12.7,1.646-.832-3.541,13.227-2.8Z" transform="translate(-5570.774 -2954.387)" fill="#d9a171"/>
        <path id="Trazado_106163" data-name="Trazado 106163" d="M5717.5,3145.179l-9.37,5.412-3.16-2.7,10.25-6.934Z" transform="translate(-5578.875 -2950.345)" fill="#d9a171"/>
        <path id="Trazado_106164" data-name="Trazado 106164" d="M5662.685,2964.575c.449,2.311.707,4.49.956,6.743s.34,4.481.409,6.734a66.268,66.268,0,0,1-.15,6.809c-.091,1.139-.19,2.278-.35,3.425-.066.566-.141,1.139-.249,1.713l-.307,1.762a11.071,11.071,0,0,1-1.837,3.982,24.638,24.638,0,0,1-2.361,2.835,47.019,47.019,0,0,1-5.155,4.573,86.02,86.02,0,0,1-11.192,7.308l-1.779-2.76q2.5-1.984,4.989-4.074c1.664-1.388,3.244-2.793,4.764-4.257a52.071,52.071,0,0,0,4.25-4.481,19.708,19.708,0,0,0,1.661-2.311,5.752,5.752,0,0,0,.831-1.937,54.577,54.577,0,0,0,.474-6.086v-3.118c0-1.039-.041-2.095-.09-3.142-.1-2.1-.291-4.157-.515-6.285s-.518-4.232-.832-6.2Z" transform="translate(-5568.031 -2920.603)" fill="#ffd2b1"/>
        <path id="Trazado_106165" data-name="Trazado 106165" d="M5664.062,2955.72c3.55,2.877,2.7,11.424,2.7,11.424l-11.972,3.941s.548-9.852,1.148-13.393C5656.637,2953.476,5660.561,2952.886,5664.062,2955.72Z" transform="translate(-5570.416 -2918.816)" fill="#d9a171"/>
        <path id="Trazado_106166" data-name="Trazado 106166" d="M5664.062,2955.72c3.55,2.877,2.7,11.424,2.7,11.424l-11.972,3.941s.548-9.852,1.148-13.393C5656.637,2953.476,5660.561,2952.886,5664.062,2955.72Z" transform="translate(-5570.416 -2918.816)" fill="#344154" opacity="0.2" style="isolation: isolate"/>
      </g>
    </g>
  </g>
</svg>
