<svg xmlns="http://www.w3.org/2000/svg" width="381" height="100.433" viewBox="0 0 381 100.433">
  <g id="img8" transform="translate(-327 -8465.003)">
    <g id="Grupo_78875" data-name="Grupo 78875">
      <g id="Grupo_78846" data-name="Grupo 78846" transform="translate(75.792 8126.042)">
        <rect id="Rectángulo_33968" data-name="Rectángulo 33968" width="352.878" height="43.495" transform="translate(251.208 339.961)" fill="#f2f2f2"/>
        <rect id="Rectángulo_33969" data-name="Rectángulo 33969" width="380" height="41.667" transform="translate(251.208 396.727)" fill="#f2f2f2"/>
        <path id="Rectángulo_33970" data-name="Rectángulo 33970" d="M0,0H136.108a0,0,0,0,1,0,0V30.3a6.9,6.9,0,0,1-6.9,6.9H6.9A6.9,6.9,0,0,1,0,30.3V0A0,0,0,0,1,0,0Z" transform="translate(265.131 339.961)" fill="#fff"/>
        <path id="Rectángulo_33971" data-name="Rectángulo 33971" d="M0,0H167.411a0,0,0,0,1,0,0V30.3a6.9,6.9,0,0,1-6.9,6.9H6.9A6.9,6.9,0,0,1,0,30.3V0A0,0,0,0,1,0,0Z" transform="translate(268.969 396.727)" fill="#fff"/>
        <path id="Trazado_143770" data-name="Trazado 143770" d="M605.8,377.164v-37.2H402.952v31.371a7.423,7.423,0,0,1-7.423,7.423H274.266a7.423,7.423,0,0,1-7.423-7.423V339.961h-4.6" transform="translate(-1.713 0)" fill="none" stroke="#9d9d9d" stroke-miterlimit="10" stroke-width="2"/>
        <line id="Línea_482" data-name="Línea 482" y2="37.203" transform="translate(538.496 339.961)" fill="none" stroke="#9d9d9d" stroke-miterlimit="10" stroke-width="2"/>
        <line id="Línea_483" data-name="Línea 483" y2="37.203" transform="translate(568.612 396.727)" fill="none" stroke="#9d9d9d" stroke-miterlimit="10" stroke-width="2"/>
        <path id="Trazado_143771" data-name="Trazado 143771" d="M262.241,407.158h8.395v30.877a7.212,7.212,0,0,0,7.213,7.212H430.837a7.212,7.212,0,0,0,7.212-7.212V407.158H632.92v38.088" transform="translate(-1.713 -10.431)" fill="none" stroke="#9d9d9d" stroke-miterlimit="10" stroke-width="2"/>
        <path id="Trazado_143780" data-name="Trazado 143780" d="M1.6,0V-14.316H3.5v5.879h7.441v-5.879h1.895V0H10.938V-6.748H3.5V0ZM15.107-5.186a5.346,5.346,0,0,1,1.6-4.268,4.826,4.826,0,0,1,3.262-1.152,4.653,4.653,0,0,1,3.5,1.4,5.331,5.331,0,0,1,1.357,3.872,6.861,6.861,0,0,1-.6,3.149A4.251,4.251,0,0,1,22.476-.4a5.089,5.089,0,0,1-2.5.635,4.662,4.662,0,0,1-3.521-1.4A5.578,5.578,0,0,1,15.107-5.186Zm1.807,0A4.417,4.417,0,0,0,17.783-2.2a2.786,2.786,0,0,0,2.188.991,2.77,2.77,0,0,0,2.178-1,4.522,4.522,0,0,0,.869-3.037,4.285,4.285,0,0,0-.874-2.915,2.78,2.78,0,0,0-2.173-.991,2.792,2.792,0,0,0-2.187.986A4.4,4.4,0,0,0,16.914-5.186Zm9.961-7.09v-2.041h1.758v2.041Zm-2.227,16.3.332-1.494a3.534,3.534,0,0,0,.83.137.931.931,0,0,0,.8-.356A3.639,3.639,0,0,0,26.875.527v-10.9h1.758V.566a5.13,5.13,0,0,1-.5,2.666,2.324,2.324,0,0,1-2.109.977A5.093,5.093,0,0,1,24.648,4.023ZM38.1-1.279a6.546,6.546,0,0,1-1.88,1.172,5.432,5.432,0,0,1-1.938.342A3.771,3.771,0,0,1,31.65-.6a2.756,2.756,0,0,1-.918-2.134,2.838,2.838,0,0,1,.347-1.392,2.87,2.87,0,0,1,.908-1.011,4.271,4.271,0,0,1,1.265-.576,12.561,12.561,0,0,1,1.563-.264,16.067,16.067,0,0,0,3.135-.605q.01-.361.01-.459a1.941,1.941,0,0,0-.5-1.514,2.942,2.942,0,0,0-2-.6,3.1,3.1,0,0,0-1.831.435,2.655,2.655,0,0,0-.874,1.538l-1.719-.234a4.259,4.259,0,0,1,.771-1.782,3.382,3.382,0,0,1,1.553-1.045,6.926,6.926,0,0,1,2.354-.366,6.229,6.229,0,0,1,2.158.313,2.844,2.844,0,0,1,1.221.786,2.765,2.765,0,0,1,.547,1.2,9.9,9.9,0,0,1,.088,1.621v2.344a24.876,24.876,0,0,0,.112,3.1A3.912,3.912,0,0,0,40.283,0H38.447A3.727,3.727,0,0,1,38.1-1.279Zm-.146-3.926a12.9,12.9,0,0,1-2.871.664,6.641,6.641,0,0,0-1.533.352,1.528,1.528,0,0,0-.693.571,1.5,1.5,0,0,0-.244.835,1.5,1.5,0,0,0,.532,1.172,2.29,2.29,0,0,0,1.558.469A3.625,3.625,0,0,0,36.5-1.587,2.736,2.736,0,0,0,37.666-2.8a4.246,4.246,0,0,0,.283-1.758ZM51.2-1.689V0H41.738a3.11,3.11,0,0,1,.205-1.221,6.458,6.458,0,0,1,1.157-1.9,18.13,18.13,0,0,1,2.3-2.168,19.5,19.5,0,0,0,3.154-3.032,3.631,3.631,0,0,0,.82-2.114,2.349,2.349,0,0,0-.747-1.763,2.7,2.7,0,0,0-1.948-.718,2.745,2.745,0,0,0-2.031.762,2.882,2.882,0,0,0-.771,2.109l-1.807-.186a4.447,4.447,0,0,1,1.4-3.081,4.764,4.764,0,0,1,3.252-1.06,4.538,4.538,0,0,1,3.262,1.143,3.751,3.751,0,0,1,1.2,2.832,4.3,4.3,0,0,1-.352,1.689,6.556,6.556,0,0,1-1.167,1.748,28.43,28.43,0,0,1-2.71,2.52q-1.582,1.328-2.031,1.8a5.78,5.78,0,0,0-.742.952Z" transform="translate(441.734 364.861)" fill="#727272"/>
        <path id="Trazado_143781" data-name="Trazado 143781" d="M1.6,0V-14.316H3.5v5.879h7.441v-5.879h1.895V0H10.938V-6.748H3.5V0ZM15.107-5.186a5.346,5.346,0,0,1,1.6-4.268,4.826,4.826,0,0,1,3.262-1.152,4.653,4.653,0,0,1,3.5,1.4,5.331,5.331,0,0,1,1.357,3.872,6.861,6.861,0,0,1-.6,3.149A4.251,4.251,0,0,1,22.476-.4a5.089,5.089,0,0,1-2.5.635,4.662,4.662,0,0,1-3.521-1.4A5.578,5.578,0,0,1,15.107-5.186Zm1.807,0A4.417,4.417,0,0,0,17.783-2.2a2.786,2.786,0,0,0,2.188.991,2.77,2.77,0,0,0,2.178-1,4.522,4.522,0,0,0,.869-3.037,4.285,4.285,0,0,0-.874-2.915,2.78,2.78,0,0,0-2.173-.991,2.792,2.792,0,0,0-2.187.986A4.4,4.4,0,0,0,16.914-5.186Zm9.961-7.09v-2.041h1.758v2.041Zm-2.227,16.3.332-1.494a3.534,3.534,0,0,0,.83.137.931.931,0,0,0,.8-.356A3.639,3.639,0,0,0,26.875.527v-10.9h1.758V.566a5.13,5.13,0,0,1-.5,2.666,2.324,2.324,0,0,1-2.109.977A5.093,5.093,0,0,1,24.648,4.023ZM38.1-1.279a6.546,6.546,0,0,1-1.88,1.172,5.432,5.432,0,0,1-1.938.342A3.771,3.771,0,0,1,31.65-.6a2.756,2.756,0,0,1-.918-2.134,2.838,2.838,0,0,1,.347-1.392,2.87,2.87,0,0,1,.908-1.011,4.271,4.271,0,0,1,1.265-.576,12.561,12.561,0,0,1,1.563-.264,16.067,16.067,0,0,0,3.135-.605q.01-.361.01-.459a1.941,1.941,0,0,0-.5-1.514,2.942,2.942,0,0,0-2-.6,3.1,3.1,0,0,0-1.831.435,2.655,2.655,0,0,0-.874,1.538l-1.719-.234a4.259,4.259,0,0,1,.771-1.782,3.382,3.382,0,0,1,1.553-1.045,6.926,6.926,0,0,1,2.354-.366,6.229,6.229,0,0,1,2.158.313,2.844,2.844,0,0,1,1.221.786,2.765,2.765,0,0,1,.547,1.2,9.9,9.9,0,0,1,.088,1.621v2.344a24.876,24.876,0,0,0,.112,3.1A3.912,3.912,0,0,0,40.283,0H38.447A3.727,3.727,0,0,1,38.1-1.279Zm-.146-3.926a12.9,12.9,0,0,1-2.871.664,6.641,6.641,0,0,0-1.533.352,1.528,1.528,0,0,0-.693.571,1.5,1.5,0,0,0-.244.835,1.5,1.5,0,0,0,.532,1.172,2.29,2.29,0,0,0,1.558.469A3.625,3.625,0,0,0,36.5-1.587,2.736,2.736,0,0,0,37.666-2.8a4.246,4.246,0,0,0,.283-1.758ZM51.2-1.689V0H41.738a3.11,3.11,0,0,1,.205-1.221,6.458,6.458,0,0,1,1.157-1.9,18.13,18.13,0,0,1,2.3-2.168,19.5,19.5,0,0,0,3.154-3.032,3.631,3.631,0,0,0,.82-2.114,2.349,2.349,0,0,0-.747-1.763,2.7,2.7,0,0,0-1.948-.718,2.745,2.745,0,0,0-2.031.762,2.882,2.882,0,0,0-.771,2.109l-1.807-.186a4.447,4.447,0,0,1,1.4-3.081,4.764,4.764,0,0,1,3.252-1.06,4.538,4.538,0,0,1,3.262,1.143,3.751,3.751,0,0,1,1.2,2.832,4.3,4.3,0,0,1-.352,1.689,6.556,6.556,0,0,1-1.167,1.748,28.43,28.43,0,0,1-2.71,2.52q-1.582,1.328-2.031,1.8a5.78,5.78,0,0,0-.742.952Z" transform="translate(477.756 423.519)" fill="#727272"/>
        <path id="Trazado_143779" data-name="Trazado 143779" d="M1.533,0V-14.2H4.424V-2.412h7.188V0ZM13.652-11.777v-2.539H16.4v2.539ZM13.652,0V-10.371H16.4V0Zm5.439,0V-14.316h2.744V-9.16a3.883,3.883,0,0,1,3.008-1.445,4.043,4.043,0,0,1,3.135,1.372,5.681,5.681,0,0,1,1.24,3.94A6,6,0,0,1,27.954-1.2,3.946,3.946,0,0,1,24.883.234,3.8,3.8,0,0,1,23.13-.21a4.191,4.191,0,0,1-1.489-1.313V0Zm2.725-5.41a4.411,4.411,0,0,0,.508,2.383,2.171,2.171,0,0,0,1.895,1.094,1.941,1.941,0,0,0,1.548-.776,3.82,3.82,0,0,0,.64-2.446,4.05,4.05,0,0,0-.645-2.563,2.04,2.04,0,0,0-1.65-.786,2.068,2.068,0,0,0-1.641.767A3.52,3.52,0,0,0,21.816-5.41ZM34.053,0H31.309V-10.371h2.549V-8.9a4.432,4.432,0,0,1,1.177-1.377,2.165,2.165,0,0,1,1.187-.332,3.483,3.483,0,0,1,1.807.518L37.178-7.7a2.408,2.408,0,0,0-1.289-.449,1.523,1.523,0,0,0-.977.317,2.17,2.17,0,0,0-.63,1.147A16.3,16.3,0,0,0,34.053-3.2Zm4.521-5.332a5.61,5.61,0,0,1,.674-2.646,4.625,4.625,0,0,1,1.909-1.953,5.666,5.666,0,0,1,2.759-.674,5.178,5.178,0,0,1,3.857,1.528,5.28,5.28,0,0,1,1.5,3.862,5.343,5.343,0,0,1-1.519,3.9A5.133,5.133,0,0,1,43.936.234a6.022,6.022,0,0,1-2.72-.645A4.421,4.421,0,0,1,39.248-2.3,6.3,6.3,0,0,1,38.574-5.332Zm2.813.146a3.436,3.436,0,0,0,.732,2.363A2.327,2.327,0,0,0,43.926-2a2.312,2.312,0,0,0,1.8-.82,3.483,3.483,0,0,0,.728-2.383,3.42,3.42,0,0,0-.728-2.344,2.312,2.312,0,0,0-1.8-.82,2.327,2.327,0,0,0-1.807.82A3.436,3.436,0,0,0,41.387-5.186ZM66.494,0H63.945V-1.523A4.118,4.118,0,0,1,62.446-.2,3.846,3.846,0,0,1,60.7.234a3.95,3.95,0,0,1-3.062-1.44,5.859,5.859,0,0,1-1.274-4.019,5.791,5.791,0,0,1,1.24-4.009,4.043,4.043,0,0,1,3.135-1.372A3.883,3.883,0,0,1,63.75-9.16v-5.156h2.744ZM59.17-5.41a4.749,4.749,0,0,0,.459,2.4,2.074,2.074,0,0,0,1.855,1.074A2.02,2.02,0,0,0,63.1-2.739a3.719,3.719,0,0,0,.664-2.407,4.07,4.07,0,0,0-.645-2.573,2.04,2.04,0,0,0-1.65-.786,2.062,2.062,0,0,0-1.636.776A3.508,3.508,0,0,0,59.17-5.41ZM69.2-11.777v-2.539h2.744v2.539ZM69.2,0V-10.371h2.744V0Zm7.607-7.207-2.49-.449a3.879,3.879,0,0,1,1.445-2.227,5.289,5.289,0,0,1,3.047-.723,6.566,6.566,0,0,1,2.734.435,2.727,2.727,0,0,1,1.265,1.1,5.659,5.659,0,0,1,.366,2.456l-.029,3.2a11.12,11.12,0,0,0,.132,2.017A5.886,5.886,0,0,0,83.77,0H81.055q-.107-.273-.264-.811-.068-.244-.1-.322a4.947,4.947,0,0,1-1.5,1.025A4.307,4.307,0,0,1,77.48.234a3.534,3.534,0,0,1-2.524-.869,2.889,2.889,0,0,1-.923-2.2,2.949,2.949,0,0,1,.42-1.567A2.744,2.744,0,0,1,75.63-5.454a9.2,9.2,0,0,1,2.183-.64,14.951,14.951,0,0,0,2.666-.674v-.273a1.421,1.421,0,0,0-.391-1.128,2.341,2.341,0,0,0-1.475-.337,1.964,1.964,0,0,0-1.143.288A2,2,0,0,0,76.807-7.207ZM80.479-4.98a17.153,17.153,0,0,1-1.67.42,5.03,5.03,0,0,0-1.494.479,1.145,1.145,0,0,0-.537.967,1.346,1.346,0,0,0,.43,1A1.5,1.5,0,0,0,78.3-1.7a2.377,2.377,0,0,0,1.416-.488,1.719,1.719,0,0,0,.654-.908,5.419,5.419,0,0,0,.107-1.338ZM88.506,0H85.762V-10.371h2.549V-8.9a4.432,4.432,0,0,1,1.177-1.377,2.165,2.165,0,0,1,1.187-.332,3.483,3.483,0,0,1,1.807.518L91.631-7.7a2.408,2.408,0,0,0-1.289-.449,1.523,1.523,0,0,0-.977.317,2.17,2.17,0,0,0-.63,1.147A16.3,16.3,0,0,0,88.506-3.2Zm5.156-11.777v-2.539h2.744v2.539ZM93.662,0V-10.371h2.744V0Zm4.922-5.332a5.61,5.61,0,0,1,.674-2.646,4.625,4.625,0,0,1,1.909-1.953,5.666,5.666,0,0,1,2.759-.674,5.178,5.178,0,0,1,3.857,1.528,5.28,5.28,0,0,1,1.5,3.862,5.343,5.343,0,0,1-1.519,3.9A5.133,5.133,0,0,1,103.945.234a6.022,6.022,0,0,1-2.72-.645A4.421,4.421,0,0,1,99.258-2.3,6.3,6.3,0,0,1,98.584-5.332Zm2.813.146a3.436,3.436,0,0,0,.732,2.363,2.327,2.327,0,0,0,1.807.82,2.312,2.312,0,0,0,1.8-.82,3.483,3.483,0,0,0,.728-2.383,3.42,3.42,0,0,0-.728-2.344,2.312,2.312,0,0,0-1.8-.82,2.327,2.327,0,0,0-1.807.82A3.436,3.436,0,0,0,101.4-5.186Z" transform="translate(298.828 423.519)" fill="#409165"/>
        <path id="Trazado_143778" data-name="Trazado 143778" d="M1.465,0V-14.316H4.355v5.635H10.02v-5.635H12.91V0H10.02V-6.26H4.355V0ZM15.244-5.332a5.61,5.61,0,0,1,.674-2.646,4.625,4.625,0,0,1,1.909-1.953,5.666,5.666,0,0,1,2.759-.674,5.178,5.178,0,0,1,3.857,1.528,5.28,5.28,0,0,1,1.5,3.862,5.343,5.343,0,0,1-1.519,3.9A5.133,5.133,0,0,1,20.605.234a6.022,6.022,0,0,1-2.72-.645A4.421,4.421,0,0,1,15.918-2.3,6.3,6.3,0,0,1,15.244-5.332Zm2.813.146a3.436,3.436,0,0,0,.732,2.363A2.327,2.327,0,0,0,20.6-2a2.312,2.312,0,0,0,1.8-.82,3.483,3.483,0,0,0,.728-2.383A3.42,3.42,0,0,0,22.4-7.549a2.312,2.312,0,0,0-1.8-.82,2.327,2.327,0,0,0-1.807.82A3.436,3.436,0,0,0,18.057-5.186Zm9.98-6.592v-2.539h2.744v2.539Zm2.744,1.406V-.322a10.416,10.416,0,0,1-.259,2.8,2.268,2.268,0,0,1-1,1.274,3.5,3.5,0,0,1-1.88.459,5.8,5.8,0,0,1-.884-.073,9.688,9.688,0,0,1-1.021-.22l.479-2.344q.2.039.366.063a2.254,2.254,0,0,0,.317.024,1.209,1.209,0,0,0,.688-.181.87.87,0,0,0,.356-.435,7.114,7.114,0,0,0,.088-1.523v-9.893ZM35.7-7.207l-2.49-.449a3.879,3.879,0,0,1,1.445-2.227,5.289,5.289,0,0,1,3.047-.723,6.566,6.566,0,0,1,2.734.435,2.727,2.727,0,0,1,1.265,1.1,5.659,5.659,0,0,1,.366,2.456l-.029,3.2a11.12,11.12,0,0,0,.132,2.017A5.886,5.886,0,0,0,42.666,0H39.951q-.107-.273-.264-.811-.068-.244-.1-.322a4.947,4.947,0,0,1-1.5,1.025,4.307,4.307,0,0,1-1.709.342,3.534,3.534,0,0,1-2.524-.869,2.889,2.889,0,0,1-.923-2.2A2.949,2.949,0,0,1,33.35-4.4a2.744,2.744,0,0,1,1.177-1.055,9.2,9.2,0,0,1,2.183-.64,14.951,14.951,0,0,0,2.666-.674v-.273a1.421,1.421,0,0,0-.391-1.128,2.341,2.341,0,0,0-1.475-.337,1.964,1.964,0,0,0-1.143.288A2,2,0,0,0,35.7-7.207ZM39.375-4.98a17.153,17.153,0,0,1-1.67.42,5.03,5.03,0,0,0-1.494.479,1.144,1.144,0,0,0-.537.967,1.346,1.346,0,0,0,.43,1A1.5,1.5,0,0,0,37.2-1.7a2.376,2.376,0,0,0,1.416-.488,1.719,1.719,0,0,0,.654-.908,5.419,5.419,0,0,0,.107-1.338ZM51.211,0H48.467V-10.342a9.46,9.46,0,0,1-3.545,2.08v-2.49a7.936,7.936,0,0,0,2.334-1.333,5.065,5.065,0,0,0,1.729-2.29h2.227Z" transform="translate(311.82 361.908)" fill="#409165"/>
        <line id="Línea_484" data-name="Línea 484" x2="380" transform="translate(251.208 438.394)" fill="none" stroke="#9d9d9d" stroke-miterlimit="10" stroke-width="2"/>
        <line id="Línea_485" data-name="Línea 485" x2="352.878" transform="translate(251.208 383.456)" fill="none" stroke="#9d9d9d" stroke-miterlimit="10" stroke-width="2"/>
        <g id="Grupo_78846-2" data-name="Grupo 78846" transform="translate(559.958 349.908)">
          <rect id="Rectángulo_33972" data-name="Rectángulo 33972" width="2.639" height="17.308" transform="translate(0 9.974) rotate(-90)" fill="#606060"/>
          <rect id="Rectángulo_33973" data-name="Rectángulo 33973" width="2.639" height="17.308" transform="translate(7.335)" fill="#606060"/>
        </g>
        <g id="Grupo_78847" data-name="Grupo 78847" transform="translate(590.035 407.117)">
          <rect id="Rectángulo_33974" data-name="Rectángulo 33974" width="2.639" height="17.308" transform="translate(0 9.974) rotate(-90)" fill="#606060"/>
          <rect id="Rectángulo_33975" data-name="Rectángulo 33975" width="2.639" height="17.308" transform="translate(7.335)" fill="#606060"/>
        </g>
      </g>
      <path id="Trazado_143543" data-name="Trazado 143543" d="M43.241,17.663c-1.675-1.193-3.2-2.287-4.737-3.369a2.868,2.868,0,0,0-.812-.436,1.343,1.343,0,0,0-1.5.637,1.4,1.4,0,0,0,.187,1.667,4.3,4.3,0,0,0,.591.469q4,2.85,8.01,5.7c1.262.9,2.269.483,2.562-1.045q.923-4.823,1.849-9.645a3.639,3.639,0,0,0,.1-.805,1.379,1.379,0,0,0-1.256-1.306,1.342,1.342,0,0,0-1.486,1.107c-.33,1.593-.624,3.194-.935,4.791-.029.146-.077.289-.088.329-.8-1.549-1.508-3.222-2.482-4.719A23.063,23.063,0,0,0,26.33.212,23.662,23.662,0,0,0,.116,18.159a2.838,2.838,0,0,0-.114.8A1.382,1.382,0,0,0,1.221,20.24a1.369,1.369,0,0,0,1.506-1.01c.266-.87.441-1.774.778-2.614,3.27-8.149,9.242-12.85,18-13.741a20.857,20.857,0,0,1,21.51,14.037C43.084,17.11,43.137,17.311,43.241,17.663Z" transform="translate(502.624 8485.037) rotate(90)" fill="#6595bf"/>
    </g>
    <path id="Trazado_143544" data-name="Trazado 143544" d="M1252.289,2566.894q-4.126-2.662-8.249-5.326a3.633,3.633,0,0,0-.71-.394,1.378,1.378,0,0,0-1.681.674,1.341,1.341,0,0,0,.469,1.792c1.355.9,2.727,1.778,4.089,2.667.067.044.13.091.18.13H1213.1a1.571,1.571,0,1,0,0,3.136h34.147c-1.706,1.088-3.272,2.083-4.826,3.086a2.825,2.825,0,0,0-.709.589,1.344,1.344,0,0,0,.028,1.628,1.4,1.4,0,0,0,1.615.452,4.389,4.389,0,0,0,.659-.372q4.142-2.643,8.281-5.295C1253.6,2568.827,1253.6,2567.739,1252.289,2566.894Z" transform="translate(-884.427 5916.777)" fill="#6595bf"/>
  </g>
</svg>
