<svg id="img8" xmlns="http://www.w3.org/2000/svg" width="505" height="298" viewBox="0 0 505 298">
  <rect id="Rectángulo_33870" data-name="Rectángulo 33870" width="505" height="233" transform="translate(0)" fill="#c8c9d1" opacity="0.319"/>
  <g id="Grupo_78673" data-name="Grupo 78673">
    <rect id="Rectángulo_31391" data-name="Rectángulo 31391" width="505" height="298" fill="none"/>
    <g id="Grupo_63271" data-name="Grupo 63271" transform="translate(0.9 10.141)">
      <g id="Grupo_63270" data-name="Grupo 63270" transform="translate(382.027 243.099)">
        <path id="Trazado_132610" data-name="Trazado 132610" d="M485,588.31v16.235H482.44v1.769H485V617.2h47.589v-9.889h-3.522v-2.178h3.522v-3.2h1.567v-1.472h-1.864V588.31Z" transform="translate(-482.423 -572.776)" fill="#fafafa"/>
        <path id="Trazado_132611" data-name="Trazado 132611" d="M482.38,588.353V617h12.636v-9.889h-3.522v-1.972l3.522.069V601.97h1.593l-.026-1.666-1.864-.047V588.31Z" transform="translate(-444.847 -572.776)" fill="#e0e0e0"/>
        <path id="Trazado_132612" data-name="Trazado 132612" d="M551.778,629.341c0,.1-8.606.181-19.214.181s-19.214-.078-19.214-.181,8.606-.181,19.214-.181S551.778,629.246,551.778,629.341Z" transform="translate(-513.35 -596.04)" fill="#e0e0e0"/>
        <path id="Trazado_132613" data-name="Trazado 132613" d="M551.778,625.511c0,.095-8.606.181-19.214.181s-19.214-.082-19.214-.181,8.606-.181,19.214-.181S551.778,625.412,551.778,625.511Z" transform="translate(-513.35 -593.859)" fill="#e0e0e0"/>
        <path id="Trazado_132614" data-name="Trazado 132614" d="M546.038,615.191c0,.1-8.606.185-19.214.185s-19.214-.082-19.214-.185,8.615-.181,19.214-.181S546.038,615.1,546.038,615.191Z" transform="translate(-505.139 -587.982)" fill="#e0e0e0"/>
        <path id="Trazado_132615" data-name="Trazado 132615" d="M545.488,643.291c0,.1-8.606.181-19.214.181s-19.214-.077-19.214-.181,8.615-.181,19.214-.181S545.488,643.2,545.488,643.291Z" transform="translate(-504.352 -603.984)" fill="#e0e0e0"/>
        <path id="Trazado_132616" data-name="Trazado 132616" d="M366.3,561.973l1.042,19.214a1.282,1.282,0,0,0,1.283,1.231l34.635.25a1.283,1.283,0,0,0,1.283-1.283l.108-14.982a1.283,1.283,0,0,0-1.249-1.313H382.073a1.275,1.275,0,0,1-.921-.379l-3.655-3.668a1.288,1.288,0,0,0-.908-.379l-8.968-.065a1.28,1.28,0,0,0-1.322,1.24C366.3,561.886,366.3,561.929,366.3,561.973Z" transform="translate(-302.918 -556.995)" fill="#26aab7"/>
        <g id="Grupo_63267" data-name="Grupo 63267" transform="translate(63.381 3.603)" opacity="0.3">
          <path id="Trazado_132617" data-name="Trazado 132617" d="M366.3,561.973l1.042,19.214a1.282,1.282,0,0,0,1.283,1.231l34.635.25a1.283,1.283,0,0,0,1.283-1.283l.108-14.982a1.283,1.283,0,0,0-1.249-1.313H382.073a1.275,1.275,0,0,1-.921-.379l-3.655-3.668a1.288,1.288,0,0,0-.908-.379l-8.968-.065a1.28,1.28,0,0,0-1.322,1.24C366.3,561.886,366.3,561.929,366.3,561.973Z" transform="translate(-366.299 -560.599)"/>
        </g>
        <rect id="Rectángulo_31583" data-name="Rectángulo 31583" width="37.848" height="22.616" transform="translate(101.631 28.482) rotate(-179.58)" fill="#f5f5f5"/>
        <path id="Trazado_132618" data-name="Trazado 132618" d="M360.542,568.67l2.721,23.6a.843.843,0,0,0,.818.745l36.878.267a.846.846,0,0,0,.84-.771l2.032-23.562a.839.839,0,0,0-.8-.878h-.013l-41.631-.3a.838.838,0,0,0-.848.831A.393.393,0,0,1,360.542,568.67Z" transform="translate(-299.615 -561.08)" fill="#ebebeb"/>
        <path id="Trazado_132619" data-name="Trazado 132619" d="M389.973,553.577l1.042,19.244a1.282,1.282,0,0,0,1.283,1.231l34.635.25a1.283,1.283,0,0,0,1.283-1.283l.108-14.982a1.283,1.283,0,0,0-1.249-1.313H405.743a1.274,1.274,0,0,1-.921-.379l-3.668-3.668a1.31,1.31,0,0,0-.908-.383l-8.968-.065a1.286,1.286,0,0,0-1.309,1.253A.734.734,0,0,1,389.973,553.577Z" transform="translate(-336.779 -552.23)" fill="#e0e0e0"/>
        <rect id="Rectángulo_31584" data-name="Rectángulo 31584" width="37.848" height="22.616" transform="translate(91.44 24.853) rotate(-179.58)" fill="#f5f5f5"/>
        <path id="Trazado_132620" data-name="Trazado 132620" d="M384.228,560.194l2.7,23.6a.836.836,0,0,0,.818.745l36.878.267a.835.835,0,0,0,.839-.762l2.032-23.571a.843.843,0,0,0-.766-.908c-.022,0-.039,0-.06,0l-41.631-.3a.832.832,0,0,0-.818.848A.565.565,0,0,0,384.228,560.194Z" transform="translate(-333.482 -556.233)" fill="#e0e0e0"/>
        <path id="Trazado_132621" data-name="Trazado 132621" d="M416.644,564.077l1.042,19.253a1.28,1.28,0,0,0,1.283,1.223l34.635.258a1.283,1.283,0,0,0,1.283-1.283l.108-14.986a1.283,1.283,0,0,0-1.283-1.283h-21.3a1.289,1.289,0,0,1-.917-.379l-3.677-3.677a1.288,1.288,0,0,0-.908-.379l-8.968-.065a1.28,1.28,0,0,0-1.3,1.261A.262.262,0,0,1,416.644,564.077Z" transform="translate(-374.932 -558.226)" fill="#ebebeb"/>
        <rect id="Rectángulo_31585" data-name="Rectángulo 31585" width="37.848" height="22.616" transform="translate(79.958 29.357) rotate(-179.58)" fill="#fafafa"/>
        <path id="Trazado_132622" data-name="Trazado 132622" d="M410.876,570.664l2.717,23.6a.828.828,0,0,0,.818.736l36.878.267a.826.826,0,0,0,.839-.762l2.032-23.562a.828.828,0,0,0-.753-.9.415.415,0,0,0-.073,0L411.7,569.73a.838.838,0,0,0-.831.848A.6.6,0,0,0,410.876,570.664Z" transform="translate(-371.617 -562.196)" fill="#ebebeb"/>
        <path id="Trazado_132623" data-name="Trazado 132623" d="M458.106,579.35v32.741H410.87V579.35Zm-15.413,5.889a2.414,2.414,0,0,0-2.415-2.415H428.745a2.423,2.423,0,0,0,0,4.839H440.27A2.429,2.429,0,0,0,442.694,585.239Z" transform="translate(-375.559 -567.674)" fill="#f5f5f5"/>
        <path id="Trazado_132624" data-name="Trazado 132624" d="M377.191,579.35v32.741H351.73V579.35Z" transform="translate(-269.183 -567.674)" fill="#e0e0e0"/>
      </g>
      <rect id="Rectángulo_31591" data-name="Rectángulo 31591" width="14.22" height="15.081" transform="matrix(-1, -0.005, 0.005, -1, 120.426, 70.855)" fill="#ebebeb"/>
      <rect id="Rectángulo_31592" data-name="Rectángulo 31592" width="14.22" height="15.081" transform="matrix(-1, -0.005, 0.005, -1, 85.539, 70.774)" fill="#f5f5f5"/>
      <path id="Trazado_132631" data-name="Trazado 132631" d="M847.76,146.553c-9.446.077-18.921,0-28.367-.129a.155.155,0,0,1-.121-.181.157.157,0,0,1,.121-.121c9.446-.056,18.921,0,28.367.172a.129.129,0,0,1,.129.129A.132.132,0,0,1,847.76,146.553Z" transform="translate(-736.435 -86.567)" fill="#e0e0e0"/>
      <rect id="Rectángulo_31593" data-name="Rectángulo 31593" width="25.831" height="12.291" transform="matrix(-1, -0.005, 0.005, -1, 129.133, 83.548)" fill="#ebebeb"/>
      <rect id="Rectángulo_31594" data-name="Rectángulo 31594" width="25.831" height="12.291" transform="matrix(-1, -0.005, 0.005, -1, 56.943, 83.409)" fill="#f5f5f5"/>
      <path id="Trazado_132632" data-name="Trazado 132632" d="M850.414,179.217c-17.165.194-34.381,0-51.546-.258a.155.155,0,0,1-.12-.181.157.157,0,0,1,.12-.121c17.156-.09,34.381-.082,51.537.293a.136.136,0,0,1,.1.159.14.14,0,0,1-.1.1Z" transform="translate(-767.7 -104.521)" fill="#e0e0e0"/>
      <rect id="Rectángulo_31596" data-name="Rectángulo 31596" width="4.06" height="15.025" transform="translate(126.239 86.33)" fill="#e0e0e0"/>
      <rect id="Rectángulo_31602" data-name="Rectángulo 31602" width="46.479" height="3.608" transform="translate(24.904 220.509)" fill="#ebebeb"/>
      <rect id="Rectángulo_31603" data-name="Rectángulo 31603" width="12.765" height="3.608" transform="translate(24.904 220.509)" fill="#e0e0e0"/>
      <path id="Trazado_132642" data-name="Trazado 132642" d="M854.792,513.85v16.235h2.562v1.761h-2.562v10.888H807.207v-9.906h3.522v-2.153h-3.522v-3.233H805.64v-1.468H807.5V513.85Z" transform="translate(-777.511 -287.274)" fill="#f5f5f5"/>
      <path id="Trazado_132643" data-name="Trazado 132643" d="M906.973,513.9v28.638H894.337v-9.885h3.522v-1.976h-3.522v-3.233H892.77V525.8h1.86V513.85Z" transform="translate(-864.641 -287.274)" fill="#e0e0e0"/>
      <path id="Trazado_132644" data-name="Trazado 132644" d="M805.59,554.851c0,.095,8.606.181,19.214.181s19.214-.082,19.214-.181-8.606-.181-19.214-.181S805.59,554.76,805.59,554.851Z" transform="translate(-764.154 -310.52)" fill="#e0e0e0"/>
      <path id="Trazado_132645" data-name="Trazado 132645" d="M805.59,551.041c0,.1,8.606.185,19.214.185s19.214-.082,19.214-.185-8.606-.181-19.214-.181S805.59,550.946,805.59,551.041Z" transform="translate(-764.154 -308.35)" fill="#e0e0e0"/>
      <path id="Trazado_132646" data-name="Trazado 132646" d="M811.33,540.731c0,.1,8.606.181,19.214.181s19.214-.077,19.214-.181-8.615-.181-19.214-.181S811.33,540.636,811.33,540.731Z" transform="translate(-772.365 -302.479)" fill="#e0e0e0"/>
      <path id="Trazado_132647" data-name="Trazado 132647" d="M811.88,568.831c0,.1,8.606.181,19.214.181s19.214-.077,19.214-.181-8.615-.181-19.214-.181S811.88,568.736,811.88,568.831Z" transform="translate(-773.152 -318.481)" fill="#e0e0e0"/>
      <path id="Trazado_132648" data-name="Trazado 132648" d="M867.332,588.9v16.235h2.562V606.9h-2.562v10.888H819.747v-9.906h3.522v-2.153h-3.522v-3.2H818.18v-1.468h1.864V588.9h47.288Z" transform="translate(-795.45 -330.013)" fill="#f5f5f5"/>
      <path id="Trazado_132649" data-name="Trazado 132649" d="M919.543,588.953V617.6H906.907v-9.889h3.53v-1.972l-3.53.065V602.57h-1.6l.026-1.675,1.864-.043V588.91Z" transform="translate(-882.61 -330.019)" fill="#e0e0e0"/>
      <path id="Trazado_132650" data-name="Trazado 132650" d="M818.13,629.931c0,.1,8.606.181,19.214.181s19.214-.078,19.214-.181-8.606-.181-19.214-.181S818.13,629.836,818.13,629.931Z" transform="translate(-782.093 -353.277)" fill="#e0e0e0"/>
      <path id="Trazado_132651" data-name="Trazado 132651" d="M818.13,626.1c0,.1,8.606.185,19.214.185s19.214-.082,19.214-.185-8.606-.181-19.214-.181S818.13,626,818.13,626.1Z" transform="translate(-782.093 -351.096)" fill="#e0e0e0"/>
      <path id="Trazado_132652" data-name="Trazado 132652" d="M823.87,615.851c0,.1,8.606.181,19.214.181s19.214-.078,19.214-.181-8.615-.181-19.214-.181S823.87,615.726,823.87,615.851Z" transform="translate(-790.304 -345.259)" fill="#e0e0e0"/>
      <path id="Trazado_132653" data-name="Trazado 132653" d="M824.42,643.891c0,.1,8.606.181,19.214.181s19.214-.077,19.214-.181-8.615-.181-19.214-.181S824.42,643.792,824.42,643.891Z" transform="translate(-791.091 -361.227)" fill="#e0e0e0"/>
      <path id="Trazado_132654" data-name="Trazado 132654" d="M865.713,438.41v16.235h2.562v1.769h-2.562V467.3H818.128v-9.915h3.522v-2.153h-3.522v-3.2H816.57v-1.472h1.864V438.41Z" transform="translate(-793.138 -247.187)" fill="#f5f5f5"/>
      <path id="Trazado_132655" data-name="Trazado 132655" d="M917.933,438.457V467.1H905.3v-9.885h3.522v-1.976l-3.522.065V452.07h-1.6l.026-1.662,1.864-.052V438.41Z" transform="translate(-880.307 -247.193)" fill="#e0e0e0"/>
      <path id="Trazado_132656" data-name="Trazado 132656" d="M816.53,479.441c0,.1,8.606.181,19.214.181s19.214-.077,19.214-.181-8.606-.181-19.214-.181S816.53,479.346,816.53,479.441Z" transform="translate(-779.804 -270.589)" fill="#e0e0e0"/>
      <path id="Trazado_132657" data-name="Trazado 132657" d="M816.53,475.615c0,.095,8.606.181,19.214.181s19.214-.082,19.214-.181-8.606-.185-19.214-.185S816.53,475.512,816.53,475.615Z" transform="translate(-779.804 -268.473)" fill="#e0e0e0"/>
      <path id="Trazado_132658" data-name="Trazado 132658" d="M822.27,465.291c0,.1,8.606.181,19.214.181s19.214-.078,19.214-.181-8.615-.181-19.214-.181S822.27,465.2,822.27,465.291Z" transform="translate(-788.015 -262.773)" fill="#e0e0e0"/>
      <path id="Trazado_132659" data-name="Trazado 132659" d="M822.82,493.391c0,.1,8.606.181,19.214.181s19.214-.077,19.214-.181-8.606-.181-19.214-.181S822.82,493.3,822.82,493.391Z" transform="translate(-788.802 -278.294)" fill="#e0e0e0"/>
      <rect id="Rectángulo_31604" data-name="Rectángulo 31604" width="46.479" height="3.608" transform="translate(28.017 255.283)" fill="#ebebeb"/>
      <rect id="Rectángulo_31605" data-name="Rectángulo 31605" width="12.765" height="3.608" transform="translate(28.017 255.283)" fill="#e0e0e0"/>
      <g id="freepik--Board--inject-8" transform="translate(21.703)">
        <rect id="Rectángulo_31606" data-name="Rectángulo 31606" width="481.291" height="188.614" transform="translate(0.172 0.168)" fill="#fff"/>
        <path id="Trazado_132660" data-name="Trazado 132660" d="M148.9,232.807c0-1.05.08-73.05.2-188.614l-.2.133,481.1.039h0l-.258-.168V232.812l.238-.155-481.131.155,481.131.155h.238V44.03h-.285l-481.1.039h-.2V44.2C148.826,159.757,148.9,231.757,148.9,232.807Z" transform="translate(-148.64 -44.03)" fill="#263238"/>
        <path id="Trazado_132661" data-name="Trazado 132661" d="M263.541,118.74s1.679,15.369-.482,23.8l-20.553-.9s4.4-15.171,1.7-21.9Z" transform="translate(141.61 -86.576)" fill="#e0e0e0"/>
        <path id="Trazado_132662" data-name="Trazado 132662" d="M265.4,118.759s-.142,16.6-.986,21.672l-20.828-.994s1.83-16.325,1.128-20.686Z" transform="translate(139.471 -86.582)" fill="#6595bf"/>
        <path id="Trazado_132663" data-name="Trazado 132663" d="M251.89,134.925c0,.09,3.117.353,6.974.581s7,.344,7,.258-3.117-.353-6.974-.59A69.958,69.958,0,0,0,251.89,134.925Z" transform="translate(133.513 -95.774)" fill="#fff"/>
        <path id="Trazado_132664" data-name="Trazado 132664" d="M251.9,143.115c0,.09,3.117.353,6.983.59a69.887,69.887,0,0,0,7,.25c0-.095-3.117-.353-6.974-.581S251.909,143.055,251.9,143.115Z" transform="translate(133.49 -100.447)" fill="#fff"/>
        <path id="Trazado_132665" data-name="Trazado 132665" d="M257.65,151.094a24.1,24.1,0,0,0,3.969.409,24.709,24.709,0,0,0,3.991.069,47.938,47.938,0,0,0-7.96-.478Z" transform="translate(140.675 -104.973)" fill="#fff"/>
        <path id="Trazado_132666" data-name="Trazado 132666" d="M264.574,176.45s-.142,16.609-.986,21.672l-20.828-.986s1.83-16.325,1.128-20.686Z" transform="translate(140.971 -119.441)" fill="#6595bf"/>
        <path id="Trazado_132667" data-name="Trazado 132667" d="M251.12,192.61c0,.09,3.117.353,6.974.59a69.957,69.957,0,0,0,7,.25c0-.095-3.117-.353-6.983-.581S251.12,192.52,251.12,192.61Z" transform="translate(137.862 -128.627)" fill="#fff"/>
        <path id="Trazado_132668" data-name="Trazado 132668" d="M251.12,200.78c0,.095,3.117.357,6.974.59s7,.344,7,.25-3.117-.353-6.974-.581S251.12,200.69,251.12,200.78Z" transform="translate(137.862 -133.279)" fill="#fff"/>
        <path id="Trazado_132669" data-name="Trazado 132669" d="M256.81,208.768a23.2,23.2,0,0,0,3.969.409,23.814,23.814,0,0,0,4,.069,24.1,24.1,0,0,0-3.969-.4A25.252,25.252,0,0,0,256.81,208.768Z" transform="translate(142.09 -137.819)" fill="#fff"/>
        <path id="Trazado_132670" data-name="Trazado 132670" d="M264.574,241.79s-.142,16.6-.986,21.672l-20.828-.986s1.83-16.325,1.128-20.686Z" transform="translate(140.971 -156.651)" fill="#263238"/>
        <path id="Trazado_132671" data-name="Trazado 132671" d="M251.12,257.942c0,.09,3.117.353,6.974.581s7,.344,7,.258-3.117-.353-6.983-.59A68.332,68.332,0,0,0,251.12,257.942Z" transform="translate(137.862 -165.829)" fill="#fff"/>
        <path id="Trazado_132672" data-name="Trazado 132672" d="M251.12,266.112c0,.09,3.117.353,6.974.581s7,.344,7,.258-3.117-.353-6.974-.581S251.12,266.026,251.12,266.112Z" transform="translate(137.862 -170.486)" fill="#fff"/>
        <path id="Trazado_132673" data-name="Trazado 132673" d="M256.82,274.108a24.1,24.1,0,0,0,3.969.4,24.71,24.71,0,0,0,3.991.077,24.1,24.1,0,0,0-3.969-.4A24.71,24.71,0,0,0,256.82,274.108Z" transform="translate(142.078 -175.029)" fill="#fff"/>
        <path id="Trazado_132674" data-name="Trazado 132674" d="M258.934,318.19s-.142,16.609-.986,21.672l-20.828-.986s1.83-16.325,1.128-20.686Z" transform="translate(184.561 -200.16)" fill="#455a64"/>
        <path id="Trazado_132675" data-name="Trazado 132675" d="M245.4,334.352c0,.09,3.117.353,6.983.59a69.984,69.984,0,0,0,7,.25c0-.095-3.117-.353-6.983-.581S245.4,334.266,245.4,334.352Z" transform="translate(154.764 -209.347)" fill="#fff"/>
        <path id="Trazado_132676" data-name="Trazado 132676" d="M245.42,342.519c0,.095,3.117.357,6.983.59s7,.344,7,.258-3.117-.357-6.983-.59S245.429,342.429,245.42,342.519Z" transform="translate(154.73 -213.997)" fill="#fff"/>
        <path id="Trazado_132677" data-name="Trazado 132677" d="M251.18,350.52a25.07,25.07,0,0,0,3.969.4,22.883,22.883,0,0,0,3.991.069,25.067,25.067,0,0,0-3.969-.4A23.765,23.765,0,0,0,251.18,350.52Z" transform="translate(178.302 -218.54)" fill="#fff"/>
        <path id="Trazado_132678" data-name="Trazado 132678" d="M323.064,318.544s-.142,16.609-.986,21.672l-20.828-.982s1.83-16.325,1.128-20.695h20.686Z" transform="translate(54.778 -200.359)" fill="#263238"/>
        <path id="Trazado_132679" data-name="Trazado 132679" d="M309.54,334.693c0,.09,3.117.353,6.983.581s7,.344,7,.258-3.117-.357-6.983-.59A69.933,69.933,0,0,0,309.54,334.693Z" transform="translate(49.734 -209.538)" fill="#fff"/>
        <path id="Trazado_132680" data-name="Trazado 132680" d="M309.55,342.855c0,.09,3.117.353,6.983.581s7,.344,7,.258-3.117-.353-6.983-.59A69.979,69.979,0,0,0,309.55,342.855Z" transform="translate(49.717 -214.186)" fill="#fff"/>
        <path id="Trazado_132681" data-name="Trazado 132681" d="M315.3,350.856a24.09,24.09,0,0,0,3.969.4,24.757,24.757,0,0,0,4,.078,23.3,23.3,0,0,0-3.978-.409A24.66,24.66,0,0,0,315.3,350.856Z" transform="translate(46.913 -218.735)" fill="#fff"/>
        <path id="Trazado_132682" data-name="Trazado 132682" d="M376.714,321.284s-.142,16.609-.986,21.672l-20.828-.982s1.83-16.325,1.128-20.695h20.686Z" transform="translate(-35.343 -201.919)" fill="#6595bf"/>
        <path id="Trazado_132683" data-name="Trazado 132683" d="M363.18,337.449c0,.095,3.117.357,6.983.59s7,.344,7,.258-3.117-.357-6.983-.59S363.184,337.359,363.18,337.449Z" transform="translate(-40.02 -211.11)" fill="#fff"/>
        <path id="Trazado_132684" data-name="Trazado 132684" d="M363.2,345.625c0,.09,3.117.353,6.983.581s7,.344,7,.258-3.117-.353-6.983-.59A69.955,69.955,0,0,0,363.2,345.625Z" transform="translate(-40.054 -215.764)" fill="#fff"/>
        <path id="Trazado_132685" data-name="Trazado 132685" d="M368.95,353.624a24.094,24.094,0,0,0,3.969.4,24.767,24.767,0,0,0,4,.077,23.3,23.3,0,0,0-3.978-.409A24.166,24.166,0,0,0,368.95,353.624Z" transform="translate(-42.601 -220.31)" fill="#fff"/>
        <path id="Trazado_132686" data-name="Trazado 132686" d="M314.024,387.25s-.142,16.609-.986,21.672l-20.828-.986s1.83-16.321,1.128-20.686Z" transform="translate(69.964 -239.488)" fill="#455a64"/>
        <path id="Trazado_132687" data-name="Trazado 132687" d="M300.51,403.41c0,.09,3.117.353,6.974.59a69.977,69.977,0,0,0,7,.25c0-.095-3.117-.353-6.983-.581S300.514,403.32,300.51,403.41Z" transform="translate(64.854 -248.674)" fill="#fff"/>
        <path id="Trazado_132688" data-name="Trazado 132688" d="M300.53,411.58c0,.095,3.117.357,6.974.59s7,.344,7,.25-3.117-.353-6.974-.581S300.539,411.49,300.53,411.58Z" transform="translate(64.82 -253.327)" fill="#fff"/>
        <path id="Trazado_132689" data-name="Trazado 132689" d="M306.27,419.648a23.2,23.2,0,0,0,3.969.409,23.759,23.759,0,0,0,3.991.069,24.1,24.1,0,0,0-3.969-.4A25.219,25.219,0,0,0,306.27,419.648Z" transform="translate(61.984 -257.912)" fill="#fff"/>
        <path id="Trazado_132690" data-name="Trazado 132690" d="M469.3,298.66s-.142,16.609-.986,21.672l-20.828-.986s1.83-16.325,1.128-20.686Z" transform="translate(-190.877 -189.038)" fill="#263238"/>
        <path id="Trazado_132691" data-name="Trazado 132691" d="M455.78,314.815c0,.09,3.117.353,6.983.581s6.987.344,7,.258-3.117-.353-6.974-.59A70.068,70.068,0,0,0,455.78,314.815Z" transform="translate(-194.96 -198.218)" fill="#fff"/>
        <path id="Trazado_132692" data-name="Trazado 132692" d="M455.8,322.974c0,.09,3.117.353,6.983.59a69.934,69.934,0,0,0,7,.25c0-.095-3.113-.353-6.974-.581S455.809,322.892,455.8,322.974Z" transform="translate(-194.994 -202.869)" fill="#fff"/>
        <path id="Trazado_132693" data-name="Trazado 132693" d="M461.55,330.984a23.2,23.2,0,0,0,3.969.409,24.719,24.719,0,0,0,3.991.069,47.95,47.95,0,0,0-7.96-.478Z" transform="translate(-197.098 -207.417)" fill="#fff"/>
        <path id="Trazado_132694" data-name="Trazado 132694" d="M574.334,389.194s-.142,16.609-.986,21.672l-20.828-.982s1.825-16.325,1.128-20.695h20.686Z" transform="translate(-367.307 -240.593)" fill="#455a64"/>
        <path id="Trazado_132695" data-name="Trazado 132695" d="M560.82,405.359c0,.095,3.117.357,6.974.59s7,.344,7,.258-3.117-.357-6.983-.59S560.824,405.269,560.82,405.359Z" transform="translate(-370.715 -249.784)" fill="#fff"/>
        <path id="Trazado_132696" data-name="Trazado 132696" d="M560.84,413.535c0,.09,3.117.353,6.974.581s7,.344,7,.258-3.117-.353-6.983-.59A69.786,69.786,0,0,0,560.84,413.535Z" transform="translate(-370.749 -254.437)" fill="#fff"/>
        <path id="Trazado_132697" data-name="Trazado 132697" d="M566.58,421.536a24.1,24.1,0,0,0,3.969.4,24.71,24.71,0,0,0,3.991.077,23.2,23.2,0,0,0-3.969-.409A24.71,24.71,0,0,0,566.58,421.536Z" transform="translate(-372.339 -258.986)" fill="#fff"/>
        <path id="Trazado_132698" data-name="Trazado 132698" d="M634.067,390.03s-.142,16.609-.986,21.672l-20.841-.986s1.83-16.325,1.128-20.686Z" transform="translate(-467.643 -241.071)" fill="#455a64"/>
        <path id="Trazado_132699" data-name="Trazado 132699" d="M620.53,406.185c0,.09,3.117.353,6.983.581s6.987.344,7,.258-3.117-.353-6.974-.59A70.01,70.01,0,0,0,620.53,406.185Z" transform="translate(-470.632 -250.252)" fill="#fff"/>
        <path id="Trazado_132700" data-name="Trazado 132700" d="M620.54,414.359c0,.09,3.117.353,6.983.59a69.941,69.941,0,0,0,7,.25c0-.095-3.113-.353-6.974-.581S620.544,414.269,620.54,414.359Z" transform="translate(-470.649 -254.909)" fill="#fff"/>
        <path id="Trazado_132701" data-name="Trazado 132701" d="M626.3,422.354a23.205,23.205,0,0,0,3.969.409,24.706,24.706,0,0,0,3.991.069,47.928,47.928,0,0,0-7.96-.478Z" transform="translate(-471.981 -259.451)" fill="#fff"/>
        <path id="Trazado_132702" data-name="Trazado 132702" d="M693.764,390.85s-.142,16.609-.986,21.672l-20.828-.986s1.83-16.325,1.128-20.686Z" transform="translate(-567.926 -241.538)" fill="#263238"/>
        <path id="Trazado_132703" data-name="Trazado 132703" d="M680.23,407.01c0,.09,3.117.353,6.983.59a70.007,70.007,0,0,0,7,.25c0-.095-3.117-.353-6.983-.581S680.234,406.92,680.23,407.01Z" transform="translate(-570.533 -250.724)" fill="#fff"/>
        <path id="Trazado_132704" data-name="Trazado 132704" d="M680.25,415.2c0,.095,3.117.357,6.983.59s7,.344,7,.25-3.117-.353-6.983-.581S680.259,415.1,680.25,415.2Z" transform="translate(-570.566 -255.386)" fill="#fff"/>
        <path id="Trazado_132705" data-name="Trazado 132705" d="M686,423.224a23.206,23.206,0,0,0,3.969.409,23.806,23.806,0,0,0,4,.069A48.765,48.765,0,0,0,686,423.224Z" transform="translate(-571.595 -259.968)" fill="#fff"/>
        <path id="Trazado_132706" data-name="Trazado 132706" d="M765.544,388.584s-.142,16.609-.986,21.672l-20.828-.982s1.825-16.325,1.128-20.695h20.686Z" transform="translate(-708.755 -240.246)" fill="#455a64"/>
        <path id="Trazado_132707" data-name="Trazado 132707" d="M752.03,404.786c0,.09,3.117.353,6.974.581s7,.344,7,.258-3.117-.357-6.983-.59A65.511,65.511,0,0,0,752.03,404.786Z" transform="translate(-712.788 -249.451)" fill="#fff"/>
        <path id="Trazado_132708" data-name="Trazado 132708" d="M752.05,412.925c0,.09,3.117.353,6.974.581s7,.344,7,.258-3.117-.353-6.974-.59A69.93,69.93,0,0,0,752.05,412.925Z" transform="translate(-712.817 -254.09)" fill="#fff"/>
        <path id="Trazado_132709" data-name="Trazado 132709" d="M757.79,420.935a24.089,24.089,0,0,0,3.969.4,24.711,24.711,0,0,0,3.991.078,23.486,23.486,0,0,0-4-.392A24.4,24.4,0,0,0,757.79,420.935Z" transform="translate(-715.014 -258.647)" fill="#fff"/>
        <path id="Trazado_132710" data-name="Trazado 132710" d="M817.584,394.17s-.142,16.609-.986,21.672l-20.828-.986s1.825-16.325,1.119-20.686Z" transform="translate(-783.199 -243.429)" fill="#455a64"/>
        <path id="Trazado_132711" data-name="Trazado 132711" d="M804.07,410.325c0,.09,3.117.353,6.974.581s7,.344,7,.258-3.117-.353-6.983-.59A69.855,69.855,0,0,0,804.07,410.325Z" transform="translate(-787.233 -252.609)" fill="#fff"/>
        <path id="Trazado_132712" data-name="Trazado 132712" d="M804.09,418.5c0,.09,3.117.353,6.974.59a69.945,69.945,0,0,0,7,.25c0-.095-3.117-.353-6.983-.581S804.1,418.409,804.09,418.5Z" transform="translate(-787.261 -257.267)" fill="#fff"/>
        <path id="Trazado_132713" data-name="Trazado 132713" d="M809.83,426.494a23.2,23.2,0,0,0,3.969.409,24.708,24.708,0,0,0,3.991.069,47.951,47.951,0,0,0-7.96-.478Z" transform="translate(-789.458 -261.809)" fill="#fff"/>
        <path id="Trazado_132714" data-name="Trazado 132714" d="M574.124,319.1s-.142,16.609-.982,21.672l-20.833-.986s1.83-16.325,1.128-20.686Z" transform="translate(-366.954 -200.678)" fill="#455a64"/>
        <path id="Trazado_132715" data-name="Trazado 132715" d="M560.54,335.259c0,.095,3.117.357,6.983.59s7,.344,7,.25-3.117-.353-6.983-.581S560.54,335.169,560.54,335.259Z" transform="translate(-370.258 -209.863)" fill="#fff"/>
        <path id="Trazado_132716" data-name="Trazado 132716" d="M560.61,343.429c0,.095,3.117.357,6.983.59s7,.344,7,.258-3.117-.357-6.983-.59S560.64,343.339,560.61,343.429Z" transform="translate(-370.376 -214.516)" fill="#fff"/>
        <path id="Trazado_132717" data-name="Trazado 132717" d="M566.36,351.428a25.064,25.064,0,0,0,3.969.4,22.93,22.93,0,0,0,4,.069,25.172,25.172,0,0,0-3.978-.4A23.267,23.267,0,0,0,566.36,351.428Z" transform="translate(-371.977 -219.057)" fill="#fff"/>
        <path id="Trazado_132718" data-name="Trazado 132718" d="M637.284,319.29s-.142,16.609-.986,21.672l-20.828-.986s1.825-16.325,1.119-20.686Z" transform="translate(-473.051 -200.786)" fill="#d9a171"/>
        <path id="Trazado_132719" data-name="Trazado 132719" d="M623.77,335.445c0,.09,3.117.353,6.974.581s7,.344,7,.258-3.117-.353-6.983-.59A69.839,69.839,0,0,0,623.77,335.445Z" transform="translate(-476.048 -209.966)" fill="#fff"/>
        <path id="Trazado_132720" data-name="Trazado 132720" d="M623.78,343.619c0,.09,3.117.353,6.974.59a69.975,69.975,0,0,0,7,.25c0-.095-3.117-.353-6.983-.581S623.784,343.529,623.78,343.619Z" transform="translate(-476.065 -214.624)" fill="#fff"/>
        <path id="Trazado_132721" data-name="Trazado 132721" d="M629.55,351.618a23.308,23.308,0,0,0,3.978.409,24.711,24.711,0,0,0,3.991.069,24.094,24.094,0,0,0-3.969-.4A25.323,25.323,0,0,0,629.55,351.618Z" transform="translate(-477.415 -219.17)" fill="#fff"/>
        <path id="Trazado_132722" data-name="Trazado 132722" d="M761.764,319.31s-.142,16.609-.986,21.672L739.95,340s1.83-16.325,1.128-20.686Z" transform="translate(-703.348 -200.797)" fill="#455a64"/>
        <path id="Trazado_132723" data-name="Trazado 132723" d="M748.25,335.469c0,.095,3.117.357,6.983.59s7,.344,7,.258-3.117-.357-6.974-.59S748.259,335.379,748.25,335.469Z" transform="translate(-682.092 -209.982)" fill="#fff"/>
        <path id="Trazado_132724" data-name="Trazado 132724" d="M748.25,343.646c0,.09,3.117.353,6.983.581s7,.344,7,.258-3.117-.357-6.983-.59S748.254,343.552,748.25,343.646Z" transform="translate(-682.099 -214.638)" fill="#fff"/>
        <path id="Trazado_132725" data-name="Trazado 132725" d="M754.01,351.642a24.1,24.1,0,0,0,3.969.4,24.714,24.714,0,0,0,3.991.078,23.2,23.2,0,0,0-3.969-.409A23.78,23.78,0,0,0,754.01,351.642Z" transform="translate(-709.607 -219.181)" fill="#fff"/>
        <path id="Trazado_132726" data-name="Trazado 132726" d="M339.684,241.79s-.142,16.6-.986,21.672l-20.828-.986S319.7,246.151,319,241.79Z" transform="translate(26.86 -156.651)" fill="#263238"/>
        <path id="Trazado_132727" data-name="Trazado 132727" d="M326.16,257.942c0,.09,3.117.353,6.983.581s7,.344,7,.258-3.113-.353-6.974-.59A68.548,68.548,0,0,0,326.16,257.942Z" transform="translate(21.929 -165.829)" fill="#fff"/>
        <path id="Trazado_132728" data-name="Trazado 132728" d="M326.17,266.112c0,.09,3.117.353,6.983.581s7,.344,7,.258-3.117-.353-6.983-.581S326.179,266.026,326.17,266.112Z" transform="translate(21.908 -170.485)" fill="#fff"/>
        <path id="Trazado_132729" data-name="Trazado 132729" d="M331.93,274.108a24.1,24.1,0,0,0,3.969.4,24.711,24.711,0,0,0,3.991.077,24.1,24.1,0,0,0-3.969-.4A24.711,24.711,0,0,0,331.93,274.108Z" transform="translate(19.171 -175.029)" fill="#fff"/>
        <path id="Trazado_132730" data-name="Trazado 132730" d="M320.464,118.759s-.142,16.6-.986,21.672l-20.828-.994s1.83-16.325,1.128-20.686Z" transform="translate(59.146 -86.582)" fill="#6595bf"/>
        <path id="Trazado_132731" data-name="Trazado 132731" d="M306.93,134.925c0,.09,3.117.353,6.983.581s7,.344,7,.258-3.117-.353-6.983-.59A69.982,69.982,0,0,0,306.93,134.925Z" transform="translate(54.101 -95.774)" fill="#fff"/>
        <path id="Trazado_132732" data-name="Trazado 132732" d="M306.95,143.115c0,.09,3.117.353,6.983.59a70.012,70.012,0,0,0,7,.25c0-.095-3.117-.353-6.983-.581S306.959,143.055,306.95,143.115Z" transform="translate(54.068 -100.447)" fill="#fff"/>
        <path id="Trazado_132733" data-name="Trazado 132733" d="M312.69,151.094a24.1,24.1,0,0,0,3.969.409,24.762,24.762,0,0,0,4,.069,48.1,48.1,0,0,0-7.965-.478Z" transform="translate(51.268 -104.973)" fill="#fff"/>
        <path id="Trazado_132734" data-name="Trazado 132734" d="M321.524,176.654s-.142,16.609-.986,21.672l-20.828-.982s1.83-16.325,1.128-20.695h20.686Z" transform="translate(57.365 -119.555)" fill="#6595bf"/>
        <path id="Trazado_132735" data-name="Trazado 132735" d="M308,192.819c0,.095,3.117.357,6.983.59s7,.344,7,.258-3.117-.357-6.974-.59S308.009,192.729,308,192.819Z" transform="translate(52.316 -128.746)" fill="#fff"/>
        <path id="Trazado_132736" data-name="Trazado 132736" d="M308,200.979c0,.09,3.117.353,6.983.581s7,.344,7,.258-3.117-.353-6.983-.59S308,200.893,308,200.979Z" transform="translate(52.311 -133.393)" fill="#fff"/>
        <path id="Trazado_132737" data-name="Trazado 132737" d="M313.77,208.994a24.1,24.1,0,0,0,3.969.4,24.707,24.707,0,0,0,3.991.077,23.2,23.2,0,0,0-3.969-.409A24.225,24.225,0,0,0,313.77,208.994Z" transform="translate(49.471 -137.946)" fill="#fff"/>
        <path id="Trazado_132738" data-name="Trazado 132738" d="M380.764,118.759s-.142,16.6-.986,21.672l-20.828-.994s1.83-16.325,1.128-20.686Z" transform="translate(-42.147 -86.582)" fill="#6595bf"/>
        <path id="Trazado_132739" data-name="Trazado 132739" d="M367.23,134.925c0,.09,3.117.353,6.983.581s7,.344,7,.258-3.117-.353-6.983-.59A69.958,69.958,0,0,0,367.23,134.925Z" transform="translate(-46.797 -95.774)" fill="#fff"/>
        <path id="Trazado_132740" data-name="Trazado 132740" d="M367.24,143.115c0,.09,3.117.353,6.983.59a70.012,70.012,0,0,0,7,.25c0-.095-3.117-.353-6.983-.581S367.244,143.055,367.24,143.115Z" transform="translate(-46.814 -100.447)" fill="#fff"/>
        <path id="Trazado_132741" data-name="Trazado 132741" d="M373,151.094a24.1,24.1,0,0,0,3.969.409,24.762,24.762,0,0,0,4,.069,48.1,48.1,0,0,0-7.965-.478Z" transform="translate(-49.359 -104.973)" fill="#fff"/>
        <path id="Trazado_132742" data-name="Trazado 132742" d="M441.054,118.759s-.142,16.6-.982,21.672l-20.833-.994s1.83-16.325,1.128-20.686Z" transform="translate(-143.422 -86.582)" fill="#6595bf"/>
        <path id="Trazado_132743" data-name="Trazado 132743" d="M427.52,134.925c0,.09,3.117.353,6.983.581s7,.344,7,.258-3.117-.353-6.983-.59A69.981,69.981,0,0,0,427.52,134.925Z" transform="translate(-147.679 -95.774)" fill="#fff"/>
        <path id="Trazado_132744" data-name="Trazado 132744" d="M427.54,143.115c0,.09,3.117.353,6.983.59a70.012,70.012,0,0,0,7,.25c0-.095-3.117-.353-6.983-.581S427.549,143.055,427.54,143.115Z" transform="translate(-147.712 -100.447)" fill="#fff"/>
        <path id="Trazado_132745" data-name="Trazado 132745" d="M433.29,151.144a24.1,24.1,0,0,0,3.969.409,24.76,24.76,0,0,0,4,.069A48.773,48.773,0,0,0,433.29,151.144Z" transform="translate(-149.952 -105.023)" fill="#fff"/>
        <path id="Trazado_132746" data-name="Trazado 132746" d="M501.354,118.759s-.142,16.6-.982,21.672l-20.833-.994s1.83-16.325,1.128-20.686Z" transform="translate(-244.714 -86.582)" fill="#6595bf"/>
        <path id="Trazado_132747" data-name="Trazado 132747" d="M487.82,134.925c0,.09,3.117.353,6.983.581s7,.344,7,.258-3.117-.353-6.983-.59A69.958,69.958,0,0,0,487.82,134.925Z" transform="translate(-248.578 -95.774)" fill="#fff"/>
        <path id="Trazado_132748" data-name="Trazado 132748" d="M487.83,143.115c0,.09,3.117.353,6.983.59a69.983,69.983,0,0,0,7,.25c0-.095-3.117-.353-6.983-.581S487.834,143.055,487.83,143.115Z" transform="translate(-248.594 -100.447)" fill="#fff"/>
        <path id="Trazado_132749" data-name="Trazado 132749" d="M493.59,151.094a24.1,24.1,0,0,0,3.969.409,24.762,24.762,0,0,0,4,.069,48.1,48.1,0,0,0-7.965-.478Z" transform="translate(-250.562 -104.973)" fill="#fff"/>
        <path id="Trazado_132750" data-name="Trazado 132750" d="M581.964,127.31s-.142,16.609-.986,21.672L560.12,148s1.83-16.325,1.128-20.686Z" transform="translate(-380.114 -91.457)" fill="#d9a171"/>
        <path id="Trazado_132751" data-name="Trazado 132751" d="M568.42,143.469c0,.09,3.117.353,6.983.59a69.919,69.919,0,0,0,7,.25c0-.095-3.117-.353-6.974-.581S568.429,143.379,568.42,143.469Z" transform="translate(-383.438 -100.642)" fill="#fff"/>
        <path id="Trazado_132752" data-name="Trazado 132752" d="M568.43,151.64c0,.095,3.117.357,6.983.59s7,.344,7,.25-3.113-.353-6.974-.581S568.434,151.55,568.43,151.64Z" transform="translate(-383.455 -105.295)" fill="#fff"/>
        <path id="Trazado_132753" data-name="Trazado 132753" d="M574.18,159.634a23.2,23.2,0,0,0,3.969.409,23.762,23.762,0,0,0,3.991.069,47.947,47.947,0,0,0-7.96-.478Z" transform="translate(-385.019 -109.836)" fill="#fff"/>
        <path id="Trazado_132754" data-name="Trazado 132754" d="M635.924,128.124s-.142,16.609-.986,21.672l-20.828-.982s1.83-16.325,1.128-20.695h20.686Z" transform="translate(-470.766 -91.918)" fill="#d9a171"/>
        <path id="Trazado_132755" data-name="Trazado 132755" d="M622.39,144.289c0,.095,3.117.357,6.983.59s7,.344,7,.258-3.117-.357-6.983-.59S622.394,144.2,622.39,144.289Z" transform="translate(-473.751 -101.109)" fill="#fff"/>
        <path id="Trazado_132756" data-name="Trazado 132756" d="M622.41,152.465c0,.09,3.117.353,6.983.581s7,.344,7,.258-3.117-.353-6.983-.59A69.947,69.947,0,0,0,622.41,152.465Z" transform="translate(-473.784 -105.762)" fill="#fff"/>
        <path id="Trazado_132757" data-name="Trazado 132757" d="M628.16,160.464a24.089,24.089,0,0,0,3.969.4,24.764,24.764,0,0,0,4,.077,23.3,23.3,0,0,0-3.978-.409A24.169,24.169,0,0,0,628.16,160.464Z" transform="translate(-475.09 -110.309)" fill="#fff"/>
        <path id="Trazado_132758" data-name="Trazado 132758" d="M695.554,129.87s-.142,16.6-.982,21.672l-20.833-.986s1.83-16.325,1.128-20.686Z" transform="translate(-570.933 -92.914)" fill="#d9a171"/>
        <path id="Trazado_132759" data-name="Trazado 132759" d="M682.02,146.025c0,.09,3.117.353,6.983.581s7,.344,7,.258-3.117-.353-6.983-.59A69.984,69.984,0,0,0,682.02,146.025Z" transform="translate(-573.528 -102.095)" fill="#fff"/>
        <path id="Trazado_132760" data-name="Trazado 132760" d="M682.03,154.2c0,.09,3.117.353,6.983.581s7,.353,7,.258-3.117-.353-6.983-.581S682.035,154.109,682.03,154.2Z" transform="translate(-573.545 -106.752)" fill="#fff"/>
        <path id="Trazado_132761" data-name="Trazado 132761" d="M687.79,162.236a24.092,24.092,0,0,0,3.969.4,24.76,24.76,0,0,0,4,.077A48.776,48.776,0,0,0,687.79,162.236Z" transform="translate(-574.582 -111.34)" fill="#fff"/>
        <path id="Trazado_132762" data-name="Trazado 132762" d="M766.444,127.86s-.142,16.609-.986,21.672l-20.859-.986s1.825-16.325,1.128-20.686Z" transform="translate(-710.03 -91.77)" fill="#d9a171"/>
        <path id="Trazado_132763" data-name="Trazado 132763" d="M752.9,144.019c0,.095,3.117.357,6.974.59s7,.344,7,.258-3.117-.357-6.983-.59S752.909,143.929,752.9,144.019Z" transform="translate(-714.033 -100.955)" fill="#fff"/>
        <path id="Trazado_132764" data-name="Trazado 132764" d="M752.91,152.2c0,.09,3.117.353,6.974.581s7,.344,7,.258-3.117-.357-6.974-.59S752.914,152.1,752.91,152.2Z" transform="translate(-714.047 -105.61)" fill="#fff"/>
        <path id="Trazado_132765" data-name="Trazado 132765" d="M758.66,160.192a24.1,24.1,0,0,0,3.969.4,24.7,24.7,0,0,0,3.991.077,23.2,23.2,0,0,0-3.969-.409A23.761,23.761,0,0,0,758.66,160.192Z" transform="translate(-716.259 -110.153)" fill="#fff"/>
        <path id="Trazado_132766" data-name="Trazado 132766" d="M772.3,190.74s-.142,16.609-.986,21.672l-20.828-.986s1.825-16.325,1.119-20.686Z" transform="translate(-718.425 -127.579)" fill="#d9a171"/>
        <path id="Trazado_132767" data-name="Trazado 132767" d="M758.79,206.925c0,.095,3.117.357,6.974.59s7,.344,7,.258-3.117-.357-6.983-.59S758.79,206.826,758.79,206.925Z" transform="translate(-722.459 -136.776)" fill="#fff"/>
        <path id="Trazado_132768" data-name="Trazado 132768" d="M758.8,215.083c0,.09,3.117.353,6.974.581s7,.344,7,.258-3.117-.357-6.983-.59A69.851,69.851,0,0,0,758.8,215.083Z" transform="translate(-722.473 -141.422)" fill="#fff"/>
        <path id="Trazado_132769" data-name="Trazado 132769" d="M764.54,223.08a48.856,48.856,0,0,0,7.969.482,47.364,47.364,0,0,0-7.969-.482Z" transform="translate(-724.678 -145.966)" fill="#fff"/>
        <path id="Trazado_132770" data-name="Trazado 132770" d="M808.924,133.26s-.142,16.609-.986,21.672l-20.828-.986s1.83-16.325,1.128-20.686Z" transform="translate(-770.811 -94.845)" fill="#455a64"/>
        <path id="Trazado_132771" data-name="Trazado 132771" d="M795.4,149.415c0,.09,3.117.353,6.983.581s7,.344,7,.258-3.117-.353-6.983-.59A69.954,69.954,0,0,0,795.4,149.415Z" transform="translate(-774.839 -104.025)" fill="#fff"/>
        <path id="Trazado_132772" data-name="Trazado 132772" d="M795.41,157.589c0,.09,3.117.353,6.983.59a69.968,69.968,0,0,0,7,.25c0-.095-3.117-.353-6.983-.581S795.414,157.5,795.41,157.589Z" transform="translate(-774.853 -108.683)" fill="#fff"/>
        <path id="Trazado_132773" data-name="Trazado 132773" d="M801.16,165.634a23.2,23.2,0,0,0,3.969.409,24.762,24.762,0,0,0,4,.069A48.771,48.771,0,0,0,801.16,165.634Z" transform="translate(-777.06 -113.274)" fill="#fff"/>
        <path id="Trazado_132774" data-name="Trazado 132774" d="M595.014,158.8s-.142,16.609-.982,21.672l-20.833-.986s1.83-16.325,1.128-20.686Z" transform="translate(-402.045 -109.39)" fill="#455a64"/>
        <path id="Trazado_132775" data-name="Trazado 132775" d="M581.48,174.962c0,.09,3.117.357,6.983.59s7,.344,7,.25-3.117-.353-6.983-.581S581.484,174.876,581.48,174.962Z" transform="translate(-405.297 -118.577)" fill="#fff"/>
        <path id="Trazado_132776" data-name="Trazado 132776" d="M581.5,183.129c0,.095,3.117.357,6.983.59s7,.344,7,.258-3.117-.357-6.983-.59S581.508,183.039,581.5,183.129Z" transform="translate(-405.33 -123.227)" fill="#fff"/>
        <path id="Trazado_132777" data-name="Trazado 132777" d="M587.25,191.13a25.066,25.066,0,0,0,3.969.4,22.933,22.933,0,0,0,4,.069,25.17,25.17,0,0,0-3.978-.4A23.7,23.7,0,0,0,587.25,191.13Z" transform="translate(-406.832 -127.77)" fill="#fff"/>
        <path id="Trazado_132778" data-name="Trazado 132778" d="M588.934,244.42s-.133,16.609-.982,21.672l-20.833-.986s1.83-16.325,1.128-20.686Z" transform="translate(-391.832 -158.149)" fill="#d9a171"/>
        <path id="Trazado_132779" data-name="Trazado 132779" d="M575.41,260.575c0,.09,3.117.353,6.983.581s7,.344,7,.258-3.117-.353-6.983-.59A70.019,70.019,0,0,0,575.41,260.575Z" transform="translate(-395.14 -167.329)" fill="#fff"/>
        <path id="Trazado_132780" data-name="Trazado 132780" d="M575.43,268.749c0,.09,3.117.353,6.974.59a69.964,69.964,0,0,0,7,.25c0-.095-3.117-.353-6.983-.581S575.43,268.659,575.43,268.749Z" transform="translate(-395.162 -171.987)" fill="#fff"/>
        <path id="Trazado_132781" data-name="Trazado 132781" d="M581.17,276.744a23.2,23.2,0,0,0,3.969.409,24.758,24.758,0,0,0,4,.069,47.959,47.959,0,0,0-7.965-.478Z" transform="translate(-396.687 -176.528)" fill="#fff"/>
        <path id="Trazado_132782" data-name="Trazado 132782" d="M367.243,160.63s-1.683,15.369.482,23.8l20.553-.9s-4.408-15.171-1.7-21.9Z" transform="translate(-54.846 -110.432)" fill="#ebebeb"/>
        <path id="Trazado_132783" data-name="Trazado 132783" d="M381.6,154.56s1.283,17.444,2.419,20.962L365.3,177.494l-2.811-2.678s-1.993-15.369-1.709-19.748Z" transform="translate(-46.888 -106.975)" fill="#455a64"/>
        <path id="Trazado_132784" data-name="Trazado 132784" d="M406.619,201.29l.422,2.811-2.811-2.669Z" transform="translate(-95.302 -133.587)" fill="#263238"/>
        <path id="Trazado_132785" data-name="Trazado 132785" d="M372.61,172.455a14.965,14.965,0,0,0,2.1-.25l5-.732,5.054-.641a16.263,16.263,0,0,0,2.088-.306,12.383,12.383,0,0,0-2.114.069c-1.283.095-3.1.276-5.067.53s-3.754.564-5.033.814A12.548,12.548,0,0,0,372.61,172.455Z" transform="translate(-56.11 -116.058)" fill="#fff"/>
        <path id="Trazado_132786" data-name="Trazado 132786" d="M372,181.676a11.347,11.347,0,0,0,2.023-.069c1.244-.09,2.966-.258,4.856-.5s3.6-.508,4.83-.723a11.53,11.53,0,0,0,1.98-.435,13.1,13.1,0,0,0-2.01.207l-4.835.641-4.843.59A12.064,12.064,0,0,0,372,181.676Z" transform="translate(-54.433 -121.434)" fill="#fff"/>
        <path id="Trazado_132787" data-name="Trazado 132787" d="M371.99,189.958a60.468,60.468,0,0,0,6.294-.68,58.885,58.885,0,0,0,6.242-1.007,60.528,60.528,0,0,0-6.29.68A59.324,59.324,0,0,0,371.99,189.958Z" transform="translate(-53.054 -126.172)" fill="#fff"/>
        <path id="Trazado_132788" data-name="Trazado 132788" d="M278.188,203.39s1.283,17.445,2.419,20.962l-18.719,1.972-2.811-2.678s-1.993-15.369-1.709-19.748Z" transform="translate(112.914 -134.783)" fill="#455a64"/>
        <path id="Trazado_132789" data-name="Trazado 132789" d="M303.209,250.12l.422,2.816-2.811-2.678Z" transform="translate(76.828 -161.395)" fill="#263238"/>
        <path id="Trazado_132790" data-name="Trazado 132790" d="M269.13,221.314a12.779,12.779,0,0,0,2.1-.25l5.033-.71,5.054-.641a13.714,13.714,0,0,0,2.088-.306,12.385,12.385,0,0,0-2.114.069c-1.283.095-3.1.276-5.067.538s-3.754.555-5.033.805A12.958,12.958,0,0,0,269.13,221.314Z" transform="translate(119.982 -143.894)" fill="#fff"/>
        <path id="Trazado_132791" data-name="Trazado 132791" d="M268.59,230.5a11.465,11.465,0,0,0,2.032-.077c1.244-.09,2.966-.258,4.856-.5s3.6-.508,4.83-.732a12.5,12.5,0,0,0,1.98-.431,12.1,12.1,0,0,0-2.011.2l-4.835.641-4.843.594A13.726,13.726,0,0,0,268.59,230.5Z" transform="translate(128.624 -149.236)" fill="#fff"/>
        <path id="Trazado_132792" data-name="Trazado 132792" d="M268.56,238.823a60.408,60.408,0,0,0,6.294-.641,58.729,58.729,0,0,0,6.242-1.012,60.521,60.521,0,0,0-6.29.68A59.98,59.98,0,0,0,268.56,238.823Z" transform="translate(129.908 -154.02)" fill="#fff"/>
        <rect id="Rectángulo_31607" data-name="Rectángulo 31607" width="15.641" height="3.573" transform="translate(452.05 35.569)" fill="#a66d58"/>
        <rect id="Rectángulo_31608" data-name="Rectángulo 31608" width="15.641" height="3.573" transform="translate(452.05 120.954)" fill="#263238"/>
        <rect id="Rectángulo_31609" data-name="Rectángulo 31609" width="15.641" height="3.573" transform="translate(452.05 149.846)" fill="#263238"/>
        <rect id="Rectángulo_31610" data-name="Rectángulo 31610" width="53.991" height="3.573" transform="translate(306.125 14.461)" fill="#e0e0e0"/>
        <rect id="Rectángulo_31611" data-name="Rectángulo 31611" width="53.991" height="3.573" transform="translate(128.565 14.461)" fill="#e0e0e0"/>
        <rect id="Rectángulo_31612" data-name="Rectángulo 31612" width="25.784" height="3.573" transform="translate(25.913 14.461)" fill="#e0e0e0"/>
        <path id="Trazado_132793" data-name="Trazado 132793" d="M174.69,113.028c0,.095,101.044.172,225.666.172s225.687-.09,225.687-.172-101.03-.168-225.687-.168S174.69,112.925,174.69,113.028Z" transform="translate(-155.67 -83.228)" fill="#263238"/>
        <path id="Trazado_132794" data-name="Trazado 132794" d="M174.69,310.418c0,.095,101.044.168,225.666.168s225.687-.069,225.687-.168-101.03-.168-225.687-.168S174.69,310.327,174.69,310.418Z" transform="translate(-155.67 -195.638)" fill="#263238"/>
        <path id="Trazado_132795" data-name="Trazado 132795" d="M174.69,445.908c0,.095,101.044.168,225.666.168s225.687-.069,225.687-.168-101.03-.168-225.687-.168S174.69,445.818,174.69,445.908Z" transform="translate(-155.67 -272.797)" fill="#263238"/>
        <path id="Trazado_132796" data-name="Trazado 132796" d="M174.69,379.858c0,.09,101.044.168,225.666.168s225.687-.077,225.687-.168-101.03-.168-225.687-.168S174.69,379.763,174.69,379.858Z" transform="translate(-155.67 -235.183)" fill="#263238"/>
        <path id="Trazado_132797" data-name="Trazado 132797" d="M230.128,234.526c.095,0,.168-36.116.168-80.666s-.069-80.7-.168-80.7-.168,36.116-.168,80.7S230.038,234.526,230.128,234.526Z" transform="translate(216.282 -60.619)" fill="#263238"/>
        <path id="Trazado_132798" data-name="Trazado 132798" d="M533.568,236.792c.09,0,.168-36.064.168-80.541s-.078-80.541-.168-80.541-.168,36.051-.168,80.541S533.477,236.792,533.568,236.792Z" transform="translate(-307.121 -62.071)" fill="#263238"/>
        <path id="Trazado_132799" data-name="Trazado 132799" d="M730.078,238.724c.09,0,.168-36.064.168-80.545s-.077-80.558-.168-80.558-.168,36.064-.168,80.558S729.983,238.724,730.078,238.724Z" transform="translate(-633.854 -63.159)" fill="#263238"/>
        <path id="Trazado_132800" data-name="Trazado 132800" d="M562.5,234.318l-.25.09-.745.306a14.172,14.172,0,0,0-2.6,1.606,14.958,14.958,0,0,0-3.306,3.543,16.173,16.173,0,0,0-1.459,2.665,16.914,16.914,0,0,0-.982,3.259,15.2,15.2,0,0,0,.68,7.723,16.79,16.79,0,0,0,5.084,7.306,16.261,16.261,0,0,0,9.088,3.651,17.737,17.737,0,0,0,10.285-2.2,17.43,17.43,0,0,0,7.116-7.745,15.214,15.214,0,0,0,1.158-9.717,15.425,15.425,0,0,0-4.292-7.771,13.086,13.086,0,0,0-3.319-2.342,14.3,14.3,0,0,0-3.535-1.283,22.076,22.076,0,0,0-6.406-.4,40.106,40.106,0,0,0-4.8.641c-1.283.245-2.312.482-3,.641l-.771.185a1.412,1.412,0,0,0-.263.077l.267-.039.779-.159c.685-.142,1.692-.353,3-.577a40.753,40.753,0,0,1,4.8-.59,21.953,21.953,0,0,1,6.341.443,14.4,14.4,0,0,1,3.47,1.248,13.274,13.274,0,0,1,3.242,2.32,15.069,15.069,0,0,1,4.206,7.655,14.909,14.909,0,0,1-1.154,9.51,17.138,17.138,0,0,1-6.987,7.594,17.517,17.517,0,0,1-10.1,2.165,15.943,15.943,0,0,1-8.92-3.56,16.579,16.579,0,0,1-5.02-7.147,14.948,14.948,0,0,1-.7-7.581,15.969,15.969,0,0,1,.934-3.2,16.963,16.963,0,0,1,1.421-2.643,15.123,15.123,0,0,1,3.2-3.543,15.569,15.569,0,0,1,2.562-1.653l.723-.332A.96.96,0,0,0,562.5,234.318Z" transform="translate(-384.536 -151.603)" fill="#263238"/>
        <path id="Trazado_132801" data-name="Trazado 132801" d="M636.889,228.558c.056-.077-2.506-2.209-5.717-4.77a70.531,70.531,0,0,0-5.933-4.482c-.056.09,2.506,2.2,5.717,4.766S636.833,228.631,636.889,228.558Z" transform="translate(-475.289 -143.845)" fill="#263238"/>
        <path id="Trazado_132802" data-name="Trazado 132802" d="M623.64,229.489a4.355,4.355,0,0,0,.818.116l2.256.194c1.92.155,4.546.34,7.482.525h.245l-.069-.232a.923.923,0,0,0-.09-.28,29.1,29.1,0,0,0-3.2-7c-.53-.831-1-1.481-1.339-1.92a3.992,3.992,0,0,0-.564-.642,4.863,4.863,0,0,0,.456.723c.306.456.745,1.115,1.249,1.959a32.918,32.918,0,0,1,3.108,6.983l.082.276.168-.22c-2.932-.185-5.571-.331-7.487-.422l-2.26-.09A3.751,3.751,0,0,0,623.64,229.489Z" transform="translate(-471.447 -144.384)" fill="#263238"/>
        <path id="Trazado_132803" data-name="Trazado 132803" d="M794.52,292.185a13.739,13.739,0,0,0-.551-1.356,24.016,24.016,0,0,1,6.531-27.54,24.875,24.875,0,0,1,3.2-2.364c.8-.5,1.283-.749,1.283-.775a1.912,1.912,0,0,0-.344.155c-.224.116-.564.263-.969.508a21.794,21.794,0,0,0-3.293,2.3,23.5,23.5,0,0,0-4.06,4.361,23.465,23.465,0,0,0-3.75,19.614,21.841,21.841,0,0,0,1.283,3.793c.185.435.37.758.482.982C794.391,291.965,794.451,292.077,794.52,292.185Z" transform="translate(-768.917 -167.107)" fill="#263238"/>
        <path id="Trazado_132804" data-name="Trazado 132804" d="M809.93,322.7a14.984,14.984,0,0,0,1.692,1.481l1.92,1.533,1.119.891a2.414,2.414,0,0,0,1.455.732.93.93,0,0,0,.749-.512,3.161,3.161,0,0,0,.263-.758c.121-.482.237-.947.353-1.391.219-.87.409-1.666.581-2.364a14.73,14.73,0,0,0,.456-2.2,14.782,14.782,0,0,0-.68,2.131c-.2.7-.418,1.485-.642,2.342-.12.448-.245.908-.379,1.391s-.276,1-.71,1.02a2.2,2.2,0,0,1-1.231-.641l-1.141-.878-1.92-1.472A15.827,15.827,0,0,0,809.93,322.7Z" transform="translate(-790.23 -201.259)" fill="#263238"/>
        <path id="Trazado_132805" data-name="Trazado 132805" d="M384.27,235.725c0,.09,6.359,1.8,14.259,3.806s14.319,3.56,14.345,3.47-6.359-1.787-14.263-3.8S384.291,235.635,384.27,235.725Z" transform="translate(-92.871 -153.195)" fill="#263238"/>
        <path id="Trazado_132806" data-name="Trazado 132806" d="M387.29,243.616c0,.09,7,2.118,15.671,4.542s15.744,4.309,15.761,4.219-6.987-2.118-15.671-4.542S387.307,243.525,387.29,243.616Z" transform="translate(-101.402 -157.689)" fill="#263238"/>
        <path id="Trazado_132807" data-name="Trazado 132807" d="M396.32,256.645c0,.09,6.694,1.774,14.995,3.767s15.047,3.522,15.072,3.431-6.695-1.769-14.995-3.758S396.337,256.555,396.32,256.645Z" transform="translate(-114.975 -165.109)" fill="#263238"/>
        <rect id="Rectángulo_31614" data-name="Rectángulo 31614" width="13.556" height="13.556" transform="translate(313.024 168.051) rotate(-169.28)" fill="#fff"/>
        <path id="Trazado_132812" data-name="Trazado 132812" d="M448.989,393.613,437.46,391.43" transform="translate(-161.287 -241.869)" fill="#fff"/>
        <path id="Trazado_132814" data-name="Trazado 132814" d="M440.978,402.153l-2.338-.443" transform="translate(-152.001 -247.723)" fill="#fff"/>
      </g>
      <g id="freepik--Plants--inject-8" transform="translate(0 228.389)">
        <path id="Trazado_132825" data-name="Trazado 132825" d="M965.11,599.962a14.1,14.1,0,0,0-8.774-1.063,7.333,7.333,0,0,0-4.335,1.92c-1.081,1.184-1.283,3.3-.043,4.322a4.156,4.156,0,0,0,2.734.7c2.321,0,4.895-.435,6.746.96,1.055.792,1.761,2.118,3.022,2.51a2.994,2.994,0,0,0,3.293-1.468,5.132,5.132,0,0,0,.37-3.767A5.775,5.775,0,0,0,965.11,599.962Z" transform="translate(-951.107 -563.954)" fill="#d9a171"/>
        <path id="Trazado_132826" data-name="Trazado 132826" d="M951.693,542.264c-1.632,2.333-4.809,1.559-6.277.133s-2.092-3.483-2.656-5.45c-1.283-4.482-2.6-9.209-1.64-13.781a7.648,7.648,0,0,1,1.761-3.745,4.01,4.01,0,0,1,3.793-1.283c1.6.422,2.561,1.993,3.311,3.479a32.723,32.723,0,0,1,3.246,14.091,11.481,11.481,0,0,1-1.537,6.527" transform="translate(-931.572 -518.06)" fill="#d9a171"/>
        <path id="Trazado_132827" data-name="Trazado 132827" d="M891.992,555.535a8.49,8.49,0,0,1-1.317-7.805,15.1,15.1,0,0,1,4.637-6.707,24.942,24.942,0,0,1,8.283-4.882,8.8,8.8,0,0,1,3.72-.641,3.92,3.92,0,0,1,3.126,1.89c.87,1.658,0,3.677-.87,5.321a62.7,62.7,0,0,1-5.45,8.262c-1.628,2.1-3.5,4.167-5.976,5.123s-5.067.839-6.406-.883" transform="translate(-867.394 -527.986)" fill="#d9a171"/>
        <path id="Trazado_132828" data-name="Trazado 132828" d="M956.1,627.6a4.611,4.611,0,0,1-.146-1.055c-.078-.771-.172-1.744-.28-2.889a41.577,41.577,0,0,0-.641-4.245,32.754,32.754,0,0,0-1.537-5,18.52,18.52,0,0,0-2.562-4.529,9.362,9.362,0,0,0-3.2-2.682,9.02,9.02,0,0,0-2.721-.852,5.413,5.413,0,0,1-1.05-.146,4.437,4.437,0,0,1,1.068,0,8.229,8.229,0,0,1,2.837.736,9.447,9.447,0,0,1,3.405,2.708,17.89,17.89,0,0,1,2.652,4.624,30.347,30.347,0,0,1,1.533,5.084,35.935,35.935,0,0,1,.564,4.292c.09,1.231.129,2.222.142,2.906A5.027,5.027,0,0,1,956.1,627.6Z" transform="translate(-935.869 -568.234)" fill="#263238"/>
        <path id="Trazado_132829" data-name="Trazado 132829" d="M949.525,587.572a1.732,1.732,0,0,1-.03-.5v-1.4c0-1.223,0-2.984-.065-5.17-.108-4.357-.482-9.05-1.21-15.667-.685-6.221-1.606-13.449-2.562-18.164-.211-1.068-.422-2.032-.641-2.876s-.344-1.576-.508-2.166-.237-1.007-.327-1.365a2.094,2.094,0,0,1-.082-.487,2.184,2.184,0,0,1,.168.461c.108.353.245.8.409,1.352s.366,1.283.577,2.144.456,1.8.685,2.867a160.342,160.342,0,0,1,2.708,16.859c.732,6.63,1.055,12.661,1.081,17.031,0,2.191,0,3.956-.078,5.175,0,.577-.056,1.037-.082,1.408A2.335,2.335,0,0,1,949.525,587.572Z" transform="translate(-929.494 -530.429)" fill="#263238"/>
        <path id="Trazado_132830" data-name="Trazado 132830" d="M908.579,580.7a9.336,9.336,0,0,1,0-1.472,39.7,39.7,0,0,1,.448-3.978,51.567,51.567,0,0,1,1.283-5.765,48.318,48.318,0,0,1,2.419-6.854,36.518,36.518,0,0,1,7.121-11.086,18.994,18.994,0,0,1,1.67-1.554c.258-.22.487-.435.719-.6l.641-.448a9.112,9.112,0,0,1,1.236-.792,42.457,42.457,0,0,0-4.047,3.621,38.3,38.3,0,0,0-6.944,11.043,53.681,53.681,0,0,0-2.394,6.763,57.485,57.485,0,0,0-1.369,5.765c-.306,1.657-.482,3.005-.59,3.939A8.862,8.862,0,0,1,908.579,580.7Z" transform="translate(-888.579 -535.196)" fill="#263238"/>
      </g>
      <g id="freepik--character-2--inject-8" transform="translate(161.345 90.346)">
        <path id="Trazado_132831" data-name="Trazado 132831" d="M743.837,223.61c0,3.806-5.007,6.277-4.822,10.074.082,1.632,1.141,3.07,1.391,4.68.34,2.166-.814,4.266-1.193,6.406-.779,4.482,1.92,9.045,5.834,11.344s8.7,2.6,13.161,1.851" transform="translate(-720.357 -212.332)" fill="#263238"/>
        <path id="Trazado_132832" data-name="Trazado 132832" d="M700.181,219.16c-.082,2.045,1.317,3.845,2.73,5.308s2.971,3.035,3.332,5.054c.641,3.573-2.773,7.043-1.92,10.548.448,1.89,2.058,3.371,2.394,5.282s-.641,3.707-1.8,5.162-2.626,1.283-3.668,2.863a15.539,15.539,0,0,1-4.607,4.37c-3.844,2.282-8.7-.684-10.621-1.184" transform="translate(-646.121 -209.798)" fill="#263238"/>
        <path id="Trazado_132833" data-name="Trazado 132833" d="M701.351,210.905c-.108-1.851,1.558-3.337,3.255-4.068s3.612-1.05,5.123-2.14a24.1,24.1,0,0,0,3.311-3.621,11.41,11.41,0,0,1,19.343,4.611c.745,2.618.392,5.765-1.627,7.564-2.351,2.114-5.937,1.774-9.05,1.244s-6.63-1.042-9.144.852c-1.524,1.145-2.355,2.953-3.255,4.632s-2.036,3.4-3.844,4.081-4.254-.314-4.387-2.217" transform="translate(-678.559 -197.415)" fill="#263238"/>
        <path id="Trazado_132834" data-name="Trazado 132834" d="M698.693,220.841l16.295-4.718c5.244-.736,8.968,5.623,9.48,10.888.577,5.859,1.042,13.027.5,17.432-1.1,8.851-7.805,10.2-7.805,10.2s.077,2.562.168,5.717a9.451,9.451,0,0,1-8.968,9.721h0a9.455,9.455,0,0,1-9.893-8.834l-2.394-37.184A3.085,3.085,0,0,1,698.693,220.841Z" transform="translate(-668.871 -208.035)" fill="#ffbe9d"/>
        <path id="Trazado_132835" data-name="Trazado 132835" d="M702.644,255.139a1.13,1.13,0,0,1-1.042,1.18,1.088,1.088,0,0,1-1.2-.96v-.017a1.137,1.137,0,0,1,1.05-1.18,1.086,1.086,0,0,1,1.2.956A.032.032,0,0,0,702.644,255.139Z" transform="translate(-648.175 -229.727)" fill="#263238"/>
        <path id="Trazado_132836" data-name="Trazado 132836" d="M704.92,250.707c-.133.155-1.012-.456-2.23-.409s-2.079.685-2.221.542.069-.34.448-.641a3.1,3.1,0,0,1,1.769-.641,3.015,3.015,0,0,1,1.782.512C704.851,250.376,704.984,250.638,704.92,250.707Z" transform="translate(-650.472 -227.108)" fill="#263238"/>
        <path id="Trazado_132837" data-name="Trazado 132837" d="M730.176,255.873a1.124,1.124,0,0,1-1.05,1.171,1.07,1.07,0,0,1-1.193-.93c0-.013,0-.03,0-.043a1.131,1.131,0,0,1,1.05-1.18,1.086,1.086,0,0,1,1.2.956A.027.027,0,0,0,730.176,255.873Z" transform="translate(-687.555 -230.143)" fill="#263238"/>
        <path id="Trazado_132838" data-name="Trazado 132838" d="M732.652,252.177c-.133.155-1.012-.448-2.23-.4s-2.079.684-2.221.538.069-.331.448-.641a3.046,3.046,0,0,1,1.774-.641,2.993,2.993,0,0,1,1.774.508C732.566,251.85,732.717,252.113,732.652,252.177Z" transform="translate(-690.143 -227.945)" fill="#263238"/>
        <path id="Trazado_132839" data-name="Trazado 132839" d="M711.074,260.923a7.843,7.843,0,0,1,1.959-.422c.306-.043.6-.116.642-.331a1.607,1.607,0,0,0-.237-.908l-1-2.333a40.537,40.537,0,0,1-2.273-6.109,41.1,41.1,0,0,1,2.76,5.911l.96,2.351a1.768,1.768,0,0,1,.2,1.21.768.768,0,0,1-.5.469,2.207,2.207,0,0,1-.525.095A7.692,7.692,0,0,1,711.074,260.923Z" transform="translate(-663.842 -227.827)" fill="#263238"/>
        <path id="Trazado_132840" data-name="Trazado 132840" d="M726.383,302.238A21.251,21.251,0,0,1,714.6,299.62c.1,0,3.444,6.019,11.856,4.822Z" transform="translate(-678.096 -255.619)" fill="#eb996e"/>
        <path id="Trazado_132841" data-name="Trazado 132841" d="M721.451,280.109a2.2,2.2,0,0,0-1.985-.749,2.02,2.02,0,0,0-1.356.788,1.284,1.284,0,0,0-.043,1.455,1.461,1.461,0,0,0,1.606.344,4.524,4.524,0,0,0,1.52-.982,1.3,1.3,0,0,0,.332-.37.4.4,0,0,0,0-.448" transform="translate(-674.637 -244.069)" fill="#c1507f"/>
        <path id="Trazado_132842" data-name="Trazado 132842" d="M716.389,276.52c.2,0,.245,1.283,1.408,2.2s2.562.706,2.562.891c0,.082-.306.267-.9.3a3.249,3.249,0,0,1-2.153-.641,2.88,2.88,0,0,1-1.089-1.843C716.148,276.847,716.281,276.52,716.389,276.52Z" transform="translate(-672.687 -242.464)" fill="#263238"/>
        <path id="Trazado_132843" data-name="Trazado 132843" d="M732.606,247.617c-.108.34-1.326.224-2.747.443s-2.562.641-2.76.357c-.09-.133.1-.456.555-.788a4.809,4.809,0,0,1,4.193-.611C732.382,247.208,732.653,247.462,732.606,247.617Z" transform="translate(-689.623 -225.529)" fill="#263238"/>
        <path id="Trazado_132844" data-name="Trazado 132844" d="M705.883,242.6c-.207.28-1.05,0-2.058.052s-1.856.245-2.062-.039c-.09-.133.039-.418.4-.693a2.885,2.885,0,0,1,1.658-.508,2.767,2.767,0,0,1,1.657.5C705.844,242.145,705.951,242.429,705.883,242.6Z" transform="translate(-652.003 -222.468)" fill="#263238"/>
        <path id="Trazado_132845" data-name="Trazado 132845" d="M717.259,249.849c2.432.409,2.613-.831,4.37-2.562a7.943,7.943,0,0,0,2.217-6.781c-.34-2.157-1.58-4.318-.9-6.406.9-2.734,4.675-3.69,5.592-6.406.538-1.589-.052-3.405.564-4.964a5.688,5.688,0,0,1,3.535-2.932,15.206,15.206,0,0,0,4.254-2.011c1.21-1.007,1.92-2.859,1.089-4.189a83.335,83.335,0,0,0-19.072,5.278,7.572,7.572,0,0,0-3.72,2.562c-.814,1.283-.758,3.126-.641,4.744q.943,11.837,1.869,23.7" transform="translate(-689.934 -206.632)" fill="#263238"/>
        <path id="Trazado_132846" data-name="Trazado 132846" d="M786.386,248.683a6.764,6.764,0,0,0-12.868-1.924c-1.145,2.523-.642,5.532.6,8.025,1.455,2.958,4.322,5.61,7.607,5.356,3.1-.237,5.493-3.035,6.29-6.032s.34-6.169-.129-9.235" transform="translate(-765.179 -223.255)" fill="#263238"/>
        <path id="Trazado_132847" data-name="Trazado 132847" d="M782.15,262.564a1.514,1.514,0,0,1-.482-.5,4.336,4.336,0,0,1-.71-1.744,8.641,8.641,0,0,1,0-2.785c.146-1.038.461-2.14.68-3.3a8.189,8.189,0,0,0,.09-3.268,27.2,27.2,0,0,0-.93-2.562,3.338,3.338,0,0,1-.116-1.881,1.111,1.111,0,0,1,.327-.641,2.964,2.964,0,0,0-.181.641,3.511,3.511,0,0,0,.232,1.761,21.851,21.851,0,0,1,1.012,2.562,8.15,8.15,0,0,1-.052,3.414c-.224,1.184-.551,2.282-.706,3.285a8.766,8.766,0,0,0-.078,2.682A5.694,5.694,0,0,0,782.15,262.564Z" transform="translate(-762.281 -225.021)" fill="#455a64"/>
        <path id="Trazado_132848" data-name="Trazado 132848" d="M793.282,260.067A4.317,4.317,0,0,1,792,261.432a7.742,7.742,0,0,1-8.7.435,4.318,4.318,0,0,1-1.442-1.231c.043-.052.568.448,1.576.986a8.034,8.034,0,0,0,8.4-.413C792.761,260.571,793.243,260.024,793.282,260.067Z" transform="translate(-773.878 -233.093)" fill="#455a64"/>
        <path id="Trazado_132849" data-name="Trazado 132849" d="M791.3,263.31a4.033,4.033,0,0,1-.706,1.4,9.609,9.609,0,0,1-6.255,4.043,4.174,4.174,0,0,1-1.567.065,14.036,14.036,0,0,1,1.52-.327,11.06,11.06,0,0,0,6.092-3.939A11.727,11.727,0,0,1,791.3,263.31Z" transform="translate(-772.287 -234.941)" fill="#455a64"/>
        <path id="Trazado_132850" data-name="Trazado 132850" d="M715.847,243.323a.874.874,0,0,1-.1-.1,2.782,2.782,0,0,1-.232-.353,4.744,4.744,0,0,1-.641-1.52,5.494,5.494,0,0,1,.056-2.6,4.994,4.994,0,0,1,1.959-2.824c1.025-.771,2.368-1.326,3.2-2.523a2.657,2.657,0,0,0,.409-2.088,11.784,11.784,0,0,0-.839-2.26,6.567,6.567,0,0,1-.056-5.257,5.789,5.789,0,0,1,1.718-2.282,7.06,7.06,0,0,1,2.665-1.205c.947-.25,1.92-.4,2.768-.7a5.482,5.482,0,0,0,2.295-1.352,3.87,3.87,0,0,0,.943-2.342,18.925,18.925,0,0,1,.331-2.562,8.79,8.79,0,0,1,2.243-4.241,6.941,6.941,0,0,1,3.681-1.98,5.59,5.59,0,0,1,3.418.4,5.371,5.371,0,0,1,2.023,1.645,4.634,4.634,0,0,1,.736,1.472,2.45,2.45,0,0,1,.1.564,5.632,5.632,0,0,0-.96-1.92,5.3,5.3,0,0,0-5.27-1.868,6.7,6.7,0,0,0-3.5,1.92,8.608,8.608,0,0,0-2.127,4.094,20.506,20.506,0,0,0-.314,2.562,4.205,4.205,0,0,1-1.025,2.562,5.813,5.813,0,0,1-2.454,1.459c-.917.306-1.864.461-2.794.71a6.559,6.559,0,0,0-2.523,1.132,5.425,5.425,0,0,0-1.6,2.118,6.215,6.215,0,0,0,.03,4.977,11.235,11.235,0,0,1,.844,2.338,2.973,2.973,0,0,1-.482,2.325c-.921,1.283-2.308,1.83-3.294,2.562a4.717,4.717,0,0,0-1.92,2.656,5.36,5.36,0,0,0-.121,2.519A6.012,6.012,0,0,0,715.847,243.323Z" transform="translate(-694.227 -202.887)" fill="#455a64"/>
        <path id="Trazado_132851" data-name="Trazado 132851" d="M713.034,214.846a1.026,1.026,0,0,1-.121-.4,1.925,1.925,0,0,1,.258-1.18,3.053,3.053,0,0,1,1.434-1.283,4.578,4.578,0,0,1,2.523-.159c.93.142,1.92.482,2.953.641a3.889,3.889,0,0,0,3.169-.6,7.106,7.106,0,0,0,1.782-3.2,13.126,13.126,0,0,1,1.92-3.694,12.142,12.142,0,0,1,6.527-4.52,6.972,6.972,0,0,1,3.522,0,5.477,5.477,0,0,1,2.626,1.58,4.049,4.049,0,0,1,1.05,2.3,3.893,3.893,0,0,1-.232,1.92,3.108,3.108,0,0,1-.641,1.033,1.3,1.3,0,0,1-.319.276,4.092,4.092,0,0,0,.805-1.356,3.951,3.951,0,0,0-.878-3.956,5.251,5.251,0,0,0-2.51-1.459,6.722,6.722,0,0,0-3.358.056,11.945,11.945,0,0,0-6.3,4.413,12.829,12.829,0,0,0-1.868,3.586,7.157,7.157,0,0,1-1.92,3.38,3.356,3.356,0,0,1-1.718.706,5.836,5.836,0,0,1-1.731-.065c-1.094-.194-2.049-.542-2.945-.7a4.352,4.352,0,0,0-2.394.095,2.848,2.848,0,0,0-1.391,1.141,1.931,1.931,0,0,0-.306,1.094C713,214.7,713.059,214.838,713.034,214.846Z" transform="translate(-691.62 -199.009)" fill="#455a64"/>
        <path id="Trazado_132852" data-name="Trazado 132852" d="M557.989,379.432s4.873-7.62,5.726-8.262,8.421-3.268,9.062-3.057,9.73,1.92,8.666,2.992-7.4-.22-7.4-.22l-.857.409s5.476.969,6.621,1.658c1.05.641.641,1.92-.34,1.808s-5.765-1.119-6.044-.934,5.17,1.378,5.765,1.735c.788.482.84,1.92-.159,1.808-.59-.052-5.726-1.468-5.726-1.468a43.479,43.479,0,0,1,4.439,2.006c.607.6.1,1.481-.784,1.283-.607-.146-3.479-1.576-4.292-1.769,0,0-.762.194-1.481,1.722-.331.719-1.877,5.175-4.568,5.072-2.376-.09-4.744,1.83-4.744,1.83Z" transform="translate(-465.747 -294.618)" fill="#ffbe9d"/>
        <path id="Trazado_132853" data-name="Trazado 132853" d="M569.578,374.391a4.252,4.252,0,0,1-1.67.435,9.773,9.773,0,0,1-1.877.043c-.7-.09-1.455-.211-2.256-.331l-1.7-.276h.1a24.765,24.765,0,0,1-3.952,1.167,25.221,25.221,0,0,1,3.844-1.558h.108l1.679.258,2.23.366a12.856,12.856,0,0,0,1.821.039C568.924,374.486,569.557,374.348,569.578,374.391Z" transform="translate(-453.898 -297.903)" fill="#eb996e"/>
        <path id="Trazado_132854" data-name="Trazado 132854" d="M598.6,330.45s5.171,3.13,7.043,7,11.822,29.8,11.822,29.8l24.94-12.356,6.251,10.664-23.5,18.689a15.439,15.439,0,0,1-10.453,2.144h0c-5.623-.844-8.382-.973-10.319-6.32l-6.251-17.294,1.33-31.72" transform="translate(-550.163 -273.176)" fill="#f5ca56"/>
        <g id="Grupo_63268" data-name="Grupo 63268" transform="translate(55.442 72.428)" opacity="0.3">
          <path id="Trazado_132855" data-name="Trazado 132855" d="M681.033,365.65c5.765,8.326,6.7,12.257,7.306,22.365.207,3.358,0,6.974-2,9.656-.732.982-2.157,1.821-3.1,1.038s-.263-2.17.043-3.332c1.787-6.794,2.42-12.029,1.154-18.009s-.943-5.872-3.405-11.469" transform="translate(-681.032 -365.65)"/>
        </g>
        <path id="Trazado_132856" data-name="Trazado 132856" d="M670.363,426.324a23.641,23.641,0,0,1,3.13-10.384,5.425,5.425,0,0,0-.934,1.317,16.885,16.885,0,0,0-2.243,7.444A5.848,5.848,0,0,0,670.363,426.324Z" transform="translate(-606.052 -321.861)" fill="#263238"/>
        <path id="Trazado_132857" data-name="Trazado 132857" d="M744.292,397.571l3.651,62.649H688.23s1.77-31.385,3.991-44.787c2.325-23.7,9.717-27.209,14.9-38.639L704.2,321.361l12.636-5.846.512-2.915,19.623,2.376.577,5.9s1.8,5.2,2.82,7.9c3.164,8.326,7.5,18.331,6.858,25.62-.288,3.311-4.822,25.332-4.822,25.332l1.748,17.793Z" transform="translate(-688.23 -263.011)" fill="#ffd947"/>
        <path id="Trazado_132858" data-name="Trazado 132858" d="M688.454,343.17a2.377,2.377,0,0,0,.155.487c.129.34.3.788.512,1.356.448,1.18,1.141,2.863,2,4.951s1.868,4.559,2.781,7.392a53.789,53.789,0,0,1,2.131,9.407,30.611,30.611,0,0,1-.108,9.609c-.5,2.919-1.283,5.493-1.8,7.685s-.852,3.991-1.05,5.239c-.077.6-.142,1.076-.185,1.442a2.771,2.771,0,0,0-.043.5,2.163,2.163,0,0,0,.108-.5c.065-.357.146-.831.25-1.429.237-1.236.581-3.022,1.145-5.2s1.343-4.753,1.877-7.685a30.576,30.576,0,0,0,.129-9.7,52.412,52.412,0,0,0-2.14-9.467c-.934-2.837-1.98-5.317-2.859-7.392l-2.1-4.908c-.232-.555-.422-1-.564-1.33A2.893,2.893,0,0,0,688.454,343.17Z" transform="translate(-637.067 -280.42)" fill="#263238"/>
        <g id="Grupo_63269" data-name="Grupo 63269" transform="translate(14.926 116.464)" opacity="0.3">
          <path id="Trazado_132859" data-name="Trazado 132859" d="M740.572,471.834c.641,3.07-1.856,6.079-4.792,7.168s-6.187.736-9.295.37l-21.672-2.562c-1.145-.133-2.48-.4-2.971-1.442a2.635,2.635,0,0,1,0-1.851,6.954,6.954,0,0,1,3.642-4.021,15.376,15.376,0,0,1,5.386-1.343c7.461-.749,14.956.577,22.335,1.92" transform="translate(-701.674 -467.936)"/>
        </g>
        <path id="Trazado_132860" data-name="Trazado 132860" d="M677.593,441.009l-5.515.5-2.407,1.218s.577-.641,1.076-1.249a19.374,19.374,0,0,1,2.445-2.032l4.107-.422s2.308-.172,2.454-1.769l-3.138-.3s3.246-.224,3.2-1.843l-2.377-.422a.744.744,0,0,0,.753-.732c0-.043,0-.09-.009-.133l-6.57-.723-6.256,4.439-6.044,5.347-1.365.056-.474,8.735s5.36-.641,6.828-1.382,7.969-6.6,7.969-6.6,3.405-.3,4.348-1.115A2.53,2.53,0,0,0,677.593,441.009Z" transform="translate(-606.868 -331.634)" fill="#ffbe9d"/>
        <path id="Trazado_132861" data-name="Trazado 132861" d="M661.4,451.551h.34l.986-.108c.857-.1,2.127-.263,3.733-.53a22.254,22.254,0,0,0,2.652-.59,4.3,4.3,0,0,0,1.365-.758c.435-.314.87-.641,1.313-1.02,1.787-1.442,3.746-3.138,5.868-5.033l-.069.03a18.676,18.676,0,0,0,3.082-.53,5.928,5.928,0,0,0,.779-.267,3.279,3.279,0,0,0,.383-.207l.181-.129.159-.146a3.018,3.018,0,0,0,.542-.672,2.056,2.056,0,0,0,.319-.844v-.168h-.172l-5.506.5h0l-2.415,1.218.181.237.771-.9.383-.448c.133-.142.276-.276.422-.4.594-.53,1.283-1.025,1.92-1.52l-.077.03,2.467-.258,1.283-.129a3.777,3.777,0,0,0,.641-.077,4.212,4.212,0,0,0,.641-.155,2.95,2.95,0,0,0,1.089-.59,1.714,1.714,0,0,0,.577-1.119v-.155h-.146l-3.13-.3v.3a7.029,7.029,0,0,0,2.01-.456,2.858,2.858,0,0,0,.891-.551,1.345,1.345,0,0,0,.409-1v-.121h-.121l-2.518-.366v.293a1.239,1.239,0,0,0,.7-.306.908.908,0,0,0,.267-.732v-.121h-.116l-6.514-.792h-.056l-.039.03-6.307,4.443h0c-2.32,2.071-4.335,3.844-6.027,5.369h.056l-5.58.314-1.481.09-.379.03h.383l1.494-.039,5.58-.232h0l6.131-5.343h0l6.225-4.417h-.09l6.5.8-.129-.133a.589.589,0,0,1-.181.5.992.992,0,0,1-.525.224l-1.068.142,1.063.155,2.518.366-.129-.142a1.007,1.007,0,0,1-.327.771,2.39,2.39,0,0,1-.788.5,7.013,7.013,0,0,1-1.92.431v.3l3.13.306-.142-.168a1.377,1.377,0,0,1-.474.917,2.491,2.491,0,0,1-.973.525,3.282,3.282,0,0,1-.607.146,6.334,6.334,0,0,1-.641.069l-1.283.134-2.467.25h-.069c-.68.5-1.339.994-1.955,1.533-.155.142-.3.28-.443.435l-.392.456-.762.883-.5.577.672-.34,2.407-1.223h-.052l5.506-.508-.146-.146a1.97,1.97,0,0,1-.276.723,2.779,2.779,0,0,1-1.92,1.283,17.666,17.666,0,0,1-3.031.538h-.043q-3.171,2.88-5.829,5.059c-.435.366-.87.71-1.283,1.025a4.3,4.3,0,0,1-1.283.745,21.953,21.953,0,0,1-2.618.607c-1.6.293-2.863.474-3.72.6l-.982.146-.25.039Z" transform="translate(-612.131 -331.383)" fill="#eb996e"/>
        <path id="Trazado_132862" data-name="Trazado 132862" d="M664.83,444.234a5.859,5.859,0,0,0,1.128-.7c.641-.469,1.58-1.119,2.562-1.864l.276-.207-.095.03c1.158.043,2.2.069,2.953.077a5.145,5.145,0,0,0,1.205-.052,4.689,4.689,0,0,0-1.2-.159c-.749-.056-1.787-.121-2.945-.172h-.056l-.039.03-.276.207c-1,.736-1.89,1.421-2.531,1.92A5.533,5.533,0,0,0,664.83,444.234Z" transform="translate(-603.072 -336.241)" fill="#eb996e"/>
        <path id="Trazado_132863" data-name="Trazado 132863" d="M662.77,437.938a4.926,4.926,0,0,0,1.033-.641c.641-.43,1.459-1.038,2.394-1.731l-.108.03.366.039c1.244.129,2.376.224,3.2.28a5.294,5.294,0,0,0,1.33,0,6.5,6.5,0,0,0-1.283-.245c-.814-.108-1.92-.245-3.2-.37l-.366-.039h-.056l-.052.039c-.93.7-1.756,1.33-2.338,1.8A5.675,5.675,0,0,0,662.77,437.938Z" transform="translate(-600.315 -332.864)" fill="#eb996e"/>
        <path id="Trazado_132864" data-name="Trazado 132864" d="M707.579,387.964A15.52,15.52,0,0,1,705.2,377.42l4.77-28.035c.542-4.688,1.21-11.094,4.482-14.513,2.234-2.351,4.951-4.409,7.62-4.383l5.726,16.243-2.153,31.385,29.051,5.2v12.73s-22.2-.736-34.553-1.076a15.493,15.493,0,0,1-12.541-7.013h-.021Z" transform="translate(-702.228 -273.199)" fill="#f5ca56"/>
        <path id="Trazado_132865" data-name="Trazado 132865" d="M704.76,419.36l.133.211.4.641a16.406,16.406,0,0,0,1.864,2.114,15.67,15.67,0,0,0,3.681,2.562,15.4,15.4,0,0,0,5.765,1.589c8.877.34,21.237.719,35.225,1.167H752V414.577h-.142l-29.051-5.17.108.146c.762-7.25,1.395-13.221,1.838-17.4.207-2.071.37-3.694.486-4.817.052-.542.091-.96.116-1.283a1.713,1.713,0,0,0,0-.435,2.187,2.187,0,0,1-.065.431c-.065.28-.09.719-.159,1.283-.129,1.119-.319,2.742-.555,4.8-.469,4.176-1.141,10.139-1.92,17.384v.129h.12l29.047,5.231-.133-.159v12.73l.172-.168-35.225-1.055a15.47,15.47,0,0,1-5.7-1.524,15.683,15.683,0,0,1-3.677-2.493,17.114,17.114,0,0,1-1.92-2.071c-.185-.25-.327-.443-.431-.59A1.373,1.373,0,0,0,704.76,419.36Z" transform="translate(-699.409 -304.594)" fill="#263238"/>
        <path id="Trazado_132866" data-name="Trazado 132866" d="M764.408,332.95c0,.065.982.435,2.428,1.365a16.35,16.35,0,0,1,2.364,1.851,17.294,17.294,0,0,1,4.167,5.976,16.655,16.655,0,0,1,.908,2.863c.366,1.679.37,2.755.435,2.747a3.113,3.113,0,0,0,0-.749,6.037,6.037,0,0,0-.065-.883,8.72,8.72,0,0,0-.168-1.158,15.442,15.442,0,0,0-.852-2.932,16.695,16.695,0,0,0-4.249-6.109,15.523,15.523,0,0,0-2.454-1.817,9.972,9.972,0,0,0-1.033-.564,6.11,6.11,0,0,0-.805-.357A2.465,2.465,0,0,0,764.408,332.95Z" transform="translate(-747.815 -274.6)" fill="#263238"/>
        <path id="Trazado_132867" data-name="Trazado 132867" d="M713.23,319.156a2.116,2.116,0,0,0,.706.486,21.687,21.687,0,0,0,2.157.87c1.825.693,4.232,1.92,6.983,3.113a21.28,21.28,0,0,0,7.409,1.92,10.59,10.59,0,0,0,2.333-.129c.276-.039.482-.09.641-.121s.211-.065.211-.078a20.271,20.271,0,0,1-3.151.09,22.867,22.867,0,0,1-7.293-2.006c-2.73-1.184-5.171-2.381-7.043-3.022-.93-.331-1.692-.542-2.183-.771A7.708,7.708,0,0,0,713.23,319.156Z" transform="translate(-684.721 -266.743)" fill="#263238"/>
        <path id="Trazado_132868" data-name="Trazado 132868" d="M545.65,401.818l2.88-22.628,19.713.964-1.378,22.714Z" transform="translate(-447.148 -300.933)" fill="#6595bf"/>
        <path id="Trazado_132869" data-name="Trazado 132869" d="M579.589,386.169a1.81,1.81,0,0,0,2.118.03c.641-.379,1.158-.973,1.787-1.395,1.877-1.283,4.542-.921,6.354-2.286.258-.185.508-.5.37-.788s-.474-.306-.771-.3l-7.513.056" transform="translate(-483.773 -302.208)" fill="#ffbe9d"/>
        <path id="Trazado_132870" data-name="Trazado 132870" d="M581.5,381.213a2.878,2.878,0,0,1,.814-.09c.521-.03,1.283-.056,2.217-.09l3.281-.069h.956a1.47,1.47,0,0,1,1.094.25.642.642,0,0,1,.116.7,1.35,1.35,0,0,1-.383.482,4.852,4.852,0,0,1-.956.564,28.742,28.742,0,0,1-3.9,1.05,5.589,5.589,0,0,0-1.559.68c-.443.289-.813.642-1.184.934a2.652,2.652,0,0,1-2.127.71c-.551-.116-.732-.422-.71-.422a2.242,2.242,0,0,0,.736.258,2.565,2.565,0,0,0,1.92-.779c.353-.293.71-.641,1.18-.995a5.872,5.872,0,0,1,1.64-.762,35.949,35.949,0,0,0,3.844-1.055,4.87,4.87,0,0,0,.865-.512c.245-.194.37-.456.237-.555a1.568,1.568,0,0,0-.792-.129h-4.232c-.934,0-1.692-.03-2.217-.052A4.106,4.106,0,0,1,581.5,381.213Z" transform="translate(-483.359 -301.931)" fill="#eb996e"/>
        <path id="Trazado_132871" data-name="Trazado 132871" d="M555.57,395.842a2.67,2.67,0,0,0,.555.276,13.4,13.4,0,0,0,1.606.564,6.977,6.977,0,0,0,2.531.276,5.055,5.055,0,0,0,1.481-.37,6.3,6.3,0,0,0,1.343-.9,1.256,1.256,0,0,1,.641-.258.921.921,0,0,1,.6.237,5,5,0,0,1,.831,1.158,1.572,1.572,0,0,0,1.18.792,1.707,1.707,0,0,0,1.167-.418,2.879,2.879,0,0,0,.831-1.511,2.021,2.021,0,0,0,.1-.641,2.7,2.7,0,0,0-.232.577,2.9,2.9,0,0,1-.852,1.365,1.525,1.525,0,0,1-1,.327,1.276,1.276,0,0,1-.943-.693,5.006,5.006,0,0,0-.865-1.21,1.2,1.2,0,0,0-.827-.319,1.533,1.533,0,0,0-.831.319,6.047,6.047,0,0,1-1.283.865,4.469,4.469,0,0,1-1.378.366,7.175,7.175,0,0,1-2.441-.2C556.418,396.113,555.587,395.786,555.57,395.842Z" transform="translate(-451.617 -309.965)" fill="#fff"/>
        <path id="Trazado_132872" data-name="Trazado 132872" d="M556.68,404.79c0,.09,2.971.293,6.656.456a63.794,63.794,0,0,0,6.669.129c0-.09-2.971-.293-6.656-.461A62.682,62.682,0,0,0,556.68,404.79Z" transform="translate(-453.657 -315.49)" fill="#fff"/>
        <path id="Trazado_132873" data-name="Trazado 132873" d="M560.25,412.267a7.83,7.83,0,0,0,1.5.392c.934.2,2.234.435,3.677.641s2.747.383,3.7.474a6.626,6.626,0,0,0,1.546.078,7.238,7.238,0,0,0-1.511-.306l-3.681-.577-3.681-.555A6.523,6.523,0,0,0,560.25,412.267Z" transform="translate(-455.863 -319.769)" fill="#fff"/>
        <path id="Trazado_132874" data-name="Trazado 132874" d="M690.3,395.754a1.376,1.376,0,0,0,.276.25l.818.641c.723.555,1.774,1.369,3.156,2.256a18.858,18.858,0,0,0,5.226,2.415,11.007,11.007,0,0,0,7.009-.237,29.548,29.548,0,0,0,5.945-3.8,13.183,13.183,0,0,1,5.072-2.458,6.577,6.577,0,0,1,3.758.185,10.354,10.354,0,0,1,1.249.641,3.841,3.841,0,0,0-1.2-.775,6.487,6.487,0,0,0-3.844-.293,13.1,13.1,0,0,0-5.205,2.441,30.166,30.166,0,0,1-5.885,3.741,10.819,10.819,0,0,1-6.8.25,19.3,19.3,0,0,1-5.188-2.32c-1.382-.857-2.454-1.632-3.2-2.166l-.857-.6A1.4,1.4,0,0,0,690.3,395.754Z" transform="translate(-663.987 -309.605)" fill="#fafafa"/>
        <path id="Trazado_132875" data-name="Trazado 132875" d="M768.12,366.772c0,.065.986-.232,2.562-.469a21.534,21.534,0,0,1,2.837-.224,24.562,24.562,0,0,1,3.466.22,24.039,24.039,0,0,1,3.393.775,21.057,21.057,0,0,1,2.652,1.02c1.472.68,2.32,1.236,2.351,1.18a2.994,2.994,0,0,0-.568-.422,14.8,14.8,0,0,0-1.679-.973,19.36,19.36,0,0,0-2.665-1.094,20.2,20.2,0,0,0-6.957-1.007,18.836,18.836,0,0,0-2.863.3,13.989,13.989,0,0,0-1.92.456A2.816,2.816,0,0,0,768.12,366.772Z" transform="translate(-760.061 -293.289)" fill="#fafafa"/>
        <path id="Trazado_132876" data-name="Trazado 132876" d="M771.63,421.89a6.672,6.672,0,0,1,2.966.314,17.374,17.374,0,0,1,2.958,1.4,13.746,13.746,0,0,0,3.758,1.58,10.761,10.761,0,0,0,7.246-1,10.08,10.08,0,0,0,1.843-1.283,3.674,3.674,0,0,0,.564-.594,16.352,16.352,0,0,1-2.518,1.666,10.873,10.873,0,0,1-7.043.883,14.476,14.476,0,0,1-3.689-1.524,16.1,16.1,0,0,0-3.035-1.356,6.236,6.236,0,0,0-2.234-.267A1.963,1.963,0,0,0,771.63,421.89Z" transform="translate(-767.157 -325.142)" fill="#fafafa"/>
        <path id="Trazado_132877" data-name="Trazado 132877" d="M751.305,461.418c.056,0-.366-.844-.736-2.26a13.3,13.3,0,0,1,1.821-10.888c.814-1.223,1.481-1.855,1.434-1.92a2.272,2.272,0,0,0-.486.422,10.938,10.938,0,0,0-1.141,1.343,12.675,12.675,0,0,0-1.856,11.107,11.681,11.681,0,0,0,.641,1.64A2.254,2.254,0,0,0,751.305,461.418Z" transform="translate(-720.618 -339.179)" fill="#fafafa"/>
        <path id="Trazado_132878" data-name="Trazado 132878" d="M693.235,359.13c.09.039.379-.508,1.012-.857a9.527,9.527,0,0,1,1.283-.422c.039-.095-.68-.288-1.416.133S693.145,359.117,693.235,359.13Z" transform="translate(-637.965 -288.708)" fill="#fafafa"/>
        <path id="Trazado_132879" data-name="Trazado 132879" d="M707.01,328.943c0,.039.482-.056,1.339,0a7.849,7.849,0,0,1,3.375,1.283,13.45,13.45,0,0,1,1.98,1.546c.641.641,1.326,1.33,2.01,2.092a17.44,17.44,0,0,0,5.123,4.335,13.328,13.328,0,0,0,6.583,1.18,23.106,23.106,0,0,0,5.373-1.055c1.485-.469,2.656-.93,3.466-1.249l.921-.383a1.07,1.07,0,0,0,.314-.155,1.172,1.172,0,0,0-.34.09l-.943.327c-.818.28-2.006.706-3.492,1.141a23.252,23.252,0,0,1-5.317.982A13.231,13.231,0,0,1,721,337.907a17.765,17.765,0,0,1-5.016-4.245c-.7-.749-1.369-1.468-2.049-2.088a13.945,13.945,0,0,0-2.045-1.537,7.659,7.659,0,0,0-3.491-1.184,4.388,4.388,0,0,0-1.007.039A1.072,1.072,0,0,0,707.01,328.943Z" transform="translate(-685.867 -272.259)" fill="#fafafa"/>
        <path id="Trazado_132880" data-name="Trazado 132880" d="M713.68,315.44a3.869,3.869,0,0,0,.7.34c.448.207,1.119.474,1.955.779a47.942,47.942,0,0,0,6.682,1.92,48.826,48.826,0,0,0,6.884.943c.891.056,1.606.077,2.105.077a2.89,2.89,0,0,0,.771-.039,4.188,4.188,0,0,0-.771-.095c-.5-.03-1.21-.09-2.088-.181a63.034,63.034,0,0,1-6.832-1.033,61.555,61.555,0,0,1-6.673-1.808c-.84-.28-1.52-.512-1.985-.68A3.165,3.165,0,0,0,713.68,315.44Z" transform="translate(-684.018 -264.628)" fill="#fafafa"/>
        <path id="Trazado_132881" data-name="Trazado 132881" d="M641.506,420.44a.718.718,0,0,0,.077-.181,3.176,3.176,0,0,0,.116-.525,5.768,5.768,0,0,0-.069-2,10.786,10.786,0,0,0-1.02-2.772c-.508-.995-1.171-2.011-1.808-3.108a12.012,12.012,0,0,1-1.391-3.242,6.7,6.7,0,0,1-.056-2.85,9.338,9.338,0,0,1,.947-2.484,2.015,2.015,0,0,0-.435.59,6.238,6.238,0,0,0-.745,1.851,6.76,6.76,0,0,0,0,2.966,11.792,11.792,0,0,0,1.4,3.336c.642,1.106,1.313,2.114,1.825,3.083a11.4,11.4,0,0,1,1.055,2.682A7.328,7.328,0,0,1,641.506,420.44Z" transform="translate(-559.971 -314.652)" fill="#fafafa"/>
        <path id="Trazado_132882" data-name="Trazado 132882" d="M697.95,497.1a2.807,2.807,0,0,0,.435-.232c.276-.168.706-.37,1.283-.641a14.26,14.26,0,0,1,5.016-1.1,24.318,24.318,0,0,1,7.568.956c2.785.758,5.765,1.972,8.907,3.07a29.636,29.636,0,0,0,9.256,1.92,21.981,21.981,0,0,0,7.607-1.244,21.391,21.391,0,0,0,4.662-2.312c.512-.344.9-.641,1.145-.831a2.942,2.942,0,0,0,.379-.314c0-.03-.551.392-1.593,1.038a22.784,22.784,0,0,1-4.671,2.2,22.392,22.392,0,0,1-7.534,1.158,29.842,29.842,0,0,1-9.144-1.92c-3.156-1.089-6.122-2.3-8.968-3.048a24.014,24.014,0,0,0-7.685-.9,13.949,13.949,0,0,0-5.054,1.218,9.388,9.388,0,0,0-1.236.7A2.173,2.173,0,0,0,697.95,497.1Z" transform="translate(-688.681 -366.811)" fill="#fafafa"/>
        <path id="Trazado_132883" data-name="Trazado 132883" d="M694.12,550.028a9.048,9.048,0,0,0,1.757,1.283,14.418,14.418,0,0,0,5.61,1.774,20.247,20.247,0,0,0,4.086.052,27.921,27.921,0,0,0,4.611-.839c3.2-.827,6.557-2.217,10.134-3.466a31.951,31.951,0,0,1,10.384-2.1,16.982,16.982,0,0,1,4.581.642c1.4.379,2.7.831,3.918,1.1a7.951,7.951,0,0,0,5.795-.5,4.387,4.387,0,0,0,1.244-1.025,2.478,2.478,0,0,0,.314-.469c-.129.133-.25.275-.366.422a4.52,4.52,0,0,1-1.283.956,7.906,7.906,0,0,1-5.683.383c-1.205-.28-2.484-.745-3.9-1.141a17.107,17.107,0,0,0-4.645-.642,31.851,31.851,0,0,0-10.5,2.092c-3.582,1.248-6.931,2.643-10.1,3.479a28.289,28.289,0,0,1-4.559.865,21.067,21.067,0,0,1-4.034,0,14.7,14.7,0,0,1-5.571-1.658,8.093,8.093,0,0,1-.792-.461,6.643,6.643,0,0,1-.564-.379A4.421,4.421,0,0,0,694.12,550.028Z" transform="translate(-689.376 -396.189)" fill="#fafafa"/>
        <path id="Trazado_132884" data-name="Trazado 132884" d="M689.059,594.527a1.307,1.307,0,0,0,.133-.069l.392-.232a14.646,14.646,0,0,1,1.52-.805,18.817,18.817,0,0,1,6.092-1.606,31.33,31.33,0,0,1,9.334.641c3.47.693,7.2,1.864,11.189,2.824a47.327,47.327,0,0,0,5.9,1.076,39.926,39.926,0,0,0,14.922-1.205,38.347,38.347,0,0,0,5.976-2.191c.685-.306,1.2-.59,1.55-.775.155-.082.289-.155.392-.22s.133-.078.129-.082a.981.981,0,0,0-.142.056l-.409.185c-.357.168-.878.422-1.567.71a41.226,41.226,0,0,1-15.27,3.418,41.048,41.048,0,0,1-5.541-.232,49.168,49.168,0,0,1-5.859-1.068c-3.969-.96-7.685-2.127-11.206-2.807a30.74,30.74,0,0,0-9.415-.551,17.964,17.964,0,0,0-6.122,1.722A11.121,11.121,0,0,0,689.059,594.527Z" transform="translate(-687.229 -421.814)" fill="#fafafa"/>
        <path id="Trazado_132885" data-name="Trazado 132885" d="M695.63,441.789c.03.056,1.115-.542,2.992-1.2a24.452,24.452,0,0,1,3.362-.883,23.546,23.546,0,0,1,8.473,0,24.014,24.014,0,0,1,3.371.857c1.877.641,2.966,1.231,3,1.171a4.7,4.7,0,0,0-.749-.443c-.3-.164-.607-.31-.921-.443-.366-.159-.775-.353-1.248-.512a22.012,22.012,0,0,0-3.392-.943,22.559,22.559,0,0,0-8.58.03,20.892,20.892,0,0,0-3.379.969c-.482.159-.883.357-1.283.521a9.032,9.032,0,0,0-.917.448A4.31,4.31,0,0,0,695.63,441.789Z" transform="translate(-660.297 -334.993)" fill="#fafafa"/>
        <path id="Trazado_132886" data-name="Trazado 132886" d="M691,639.846a.309.309,0,0,0,.142-.056l.383-.211c.168-.095.379-.211.641-.331s.542-.267.878-.409a20.685,20.685,0,0,1,5.95-1.576,36.094,36.094,0,0,1,9.14.185c3.431.422,7.16,1.21,11.146,1.679A65.94,65.94,0,0,0,739.7,638.3a61.526,61.526,0,0,0,6.019-1.511c.706-.207,1.236-.4,1.606-.525l.409-.146a.515.515,0,0,0,.142-.056.465.465,0,0,0-.155,0l-.422.116c-.37.1-.908.28-1.619.469-1.4.4-3.457.917-6.027,1.4a67.957,67.957,0,0,1-20.333.723c-3.965-.461-7.685-1.244-11.146-1.653a35.45,35.45,0,0,0-9.209-.116,20.336,20.336,0,0,0-5.971,1.692,9.2,9.2,0,0,0-.87.448,7.174,7.174,0,0,0-.641.357l-.366.237Z" transform="translate(-689.355 -447.213)" fill="#fafafa"/>
      </g>
    </g>
    <g id="Rectángulo_31615" data-name="Rectángulo 31615" transform="translate(4 297)" fill="none" stroke="#707070" stroke-width="1">
      <rect width="497" height="1" stroke="none"/>
      <rect x="0.5" y="0.5" width="496" fill="none"/>
    </g>
  </g>
</svg>
