<svg xmlns="http://www.w3.org/2000/svg" xmlns:xlink="http://www.w3.org/1999/xlink" width="400" height="341" viewBox="0 0 400 341">
  <defs>
    <clipPath id="clip-path">
      <rect id="Rectángulo_33872" data-name="Rectángulo 33872" width="400" height="341" transform="translate(180 6784)" fill="none"/>
    </clipPath>
  </defs>
  <g id="img9" transform="translate(-180 -6784)" clip-path="url(#clip-path)">
    <g id="Grupo_78599" data-name="Grupo 78599" transform="translate(200 6763.428)">
      <g id="Grupo_78598" data-name="Grupo 78598" transform="translate(21.737 11.819)">
        <g id="Grupo_78597" data-name="Grupo 78597" transform="translate(1.967 15.761)">
          <g id="Grupo_78400" data-name="Grupo 78400" transform="translate(197.102)">
            <path id="Trazado_143441" data-name="Trazado 143441" d="M599.157,64.716a9.98,9.98,0,1,0-9.98,9.98A9.992,9.992,0,0,0,599.157,64.716Zm-5.15,0a4.829,4.829,0,1,1-4.83-4.828A4.836,4.836,0,0,1,594.006,64.716Z" transform="translate(-579.196 -54.736)" fill="#6595bf"/>
          </g>
          <g id="Grupo_78401" data-name="Grupo 78401" transform="translate(268.041 212.799)">
            <path id="Trazado_143442" data-name="Trazado 143442" d="M550.187,208.451a8.9,8.9,0,1,0-8.9,8.9A8.906,8.906,0,0,0,550.187,208.451Zm-5.152,0a3.745,3.745,0,1,1-3.744-3.746A3.748,3.748,0,0,1,545.035,208.451Z" transform="translate(-532.395 -199.555)" fill="#5e6178"/>
          </g>
          <g id="Grupo_78402" data-name="Grupo 78402" transform="translate(12.474 195.421)">
            <path id="Trazado_143443" data-name="Trazado 143443" d="M724.111,196.625a8.9,8.9,0,1,0-8.9,8.9A8.905,8.905,0,0,0,724.111,196.625Zm-5.15,0a3.745,3.745,0,1,1-3.746-3.744A3.75,3.75,0,0,1,718.961,196.625Z" transform="translate(-706.321 -187.729)" fill="#5e6178"/>
          </g>
          <ellipse id="Elipse_4784" data-name="Elipse 4784" cx="4.171" cy="4.171" rx="4.171" ry="4.171" transform="translate(78.861 143.375)" fill="#5e6178"/>
          <ellipse id="Elipse_4785" data-name="Elipse 4785" cx="4.171" cy="4.171" rx="4.171" ry="4.171" transform="translate(211.344 152.642)" fill="#5e6178"/>
          <g id="Grupo_78403" data-name="Grupo 78403" transform="translate(58.005 60.181)">
            <path id="Trazado_143444" data-name="Trazado 143444" d="M711.62,100.1H633.443a2.2,2.2,0,1,1,0-4.408H711.62a2.2,2.2,0,0,1,0,4.408Z" transform="translate(-631.239 -95.692)" fill="#6595bf"/>
          </g>
          <g id="Grupo_78404" data-name="Grupo 78404" transform="translate(41.74 173.999)">
            <path id="Trazado_143445" data-name="Trazado 143445" d="M722.689,177.558H644.512a2.2,2.2,0,1,1,0-4.408h78.177a2.2,2.2,0,0,1,0,4.408Z" transform="translate(-642.308 -173.15)" fill="#6595bf"/>
          </g>
          <g id="Grupo_78405" data-name="Grupo 78405" transform="translate(237.477 272.73)">
            <path id="Trazado_143446" data-name="Trazado 143446" d="M582.286,244.749H526.631a2.2,2.2,0,0,1,0-4.408h55.655a2.2,2.2,0,0,1,0,4.408Z" transform="translate(-524.427 -240.341)" fill="#6595bf"/>
          </g>
          <path id="Trazado_143447" data-name="Trazado 143447" d="M546.956,169.1a45.894,45.894,0,0,1,21.617,27.923c5.619,20.126,22.826,72.546,22.826,72.546s9.833,11.566,10.887,20.132-1.054,29.285-4.214,33.148a8.907,8.907,0,0,1-7.669,3.222l-41.384-3.925-16.3-109.121Z" transform="translate(-317.206 -1.052)" fill="#f1b41f"/>
          <path id="Trazado_143448" data-name="Trazado 143448" d="M607.527,172.466s-29.592,9.282-36.966,17.358L594.79,302.547l-.386,35.566H734.7c0-1.756,1.259-118.089,1.259-118.089l8.427-45.65-49.864-8.78-9.833-7.725-55.483,2.81-8.427,8.427Z" transform="translate(-514.634 -6.324)" fill="#f1b41f"/>
          <g id="Grupo_78406" data-name="Grupo 78406" transform="translate(79.87 261.693)" opacity="0.3">
            <path id="Trazado_143449" data-name="Trazado 143449" d="M678.665,235.071c-.432-.955-1.051-1.988-2.078-2.2-1.69-.348-2.82,1.649-3.4,3.277a148.16,148.16,0,0,1-18.429,35.984l-.36,17.307c8.179-6.881,16.244-14.253,21.458-23.586S683.067,244.812,678.665,235.071Z" transform="translate(-654.402 -232.83)" fill="#303030"/>
          </g>
          <path id="Trazado_143450" data-name="Trazado 143450" d="M731.54,179.616s-9.751,13.292-13.8,21.969-37.6,81.558-39.623,89.077-7.23,31.235,8.1,36.731h31.525l31.641-63.983L751,189.148Z" transform="translate(-675.613 3.884)" fill="#f1b41f"/>
          <g id="Grupo_78407" data-name="Grupo 78407" transform="translate(5.753 279.962)">
            <path id="Trazado_143451" data-name="Trazado 143451" d="M735.266,250.359c-.041.047-.7-.62-2.154-1.446a24.171,24.171,0,0,0-6.617-2.4,31.75,31.75,0,0,0-4.823-.677,19.161,19.161,0,0,0-5.529.36,20.612,20.612,0,0,0-10.612,6.662,28.751,28.751,0,0,0-6.01,11.172,55.727,55.727,0,0,0-1.9,10.312c-.3,2.981-.406,5.409-.508,7.086-.05.783-.09,1.422-.122,1.931a2.905,2.905,0,0,1-.082.672,2.87,2.87,0,0,1-.04-.676c0-.508,0-1.149.007-1.935.031-1.68.076-4.114.318-7.115a53.3,53.3,0,0,1,1.788-10.433,28.822,28.822,0,0,1,6.091-11.416,20.94,20.94,0,0,1,10.944-6.8,19.418,19.418,0,0,1,5.685-.317,31.287,31.287,0,0,1,4.886.761,22.743,22.743,0,0,1,6.64,2.613,11.428,11.428,0,0,1,1.565,1.159A2.784,2.784,0,0,1,735.266,250.359Z" transform="translate(-696.873 -245.263)" fill="#263238"/>
          </g>
          <g id="Grupo_78408" data-name="Grupo 78408" transform="translate(29.197 272.071)">
            <path id="Trazado_143452" data-name="Trazado 143452" d="M691.125,240.14a3.7,3.7,0,0,1,1.059-.17,18.31,18.31,0,0,1,2.924-.04,24.3,24.3,0,0,1,4.3.635,25.623,25.623,0,0,1,9.564,4.563,24.3,24.3,0,0,1,3.2,2.942,18.291,18.291,0,0,1,1.809,2.3,3.624,3.624,0,0,1,.533.93c-.093.066-.948-1.2-2.654-2.933a27.59,27.59,0,0,0-3.224-2.789,27.445,27.445,0,0,0-9.366-4.468,27.621,27.621,0,0,0-4.2-.749C692.652,240.124,691.133,240.255,691.125,240.14Z" transform="translate(-691.125 -239.893)" fill="#263238"/>
          </g>
          <g id="Grupo_78409" data-name="Grupo 78409" transform="translate(21.369 267.587)">
            <path id="Trazado_143453" data-name="Trazado 143453" d="M723.98,238.066a6.752,6.752,0,0,1-1.459-.112c-.929-.119-2.279-.256-3.948-.379a67.256,67.256,0,0,0-25.784,3.086c-1.593.513-2.873.964-3.748,1.3a6.8,6.8,0,0,1-1.39.453,6.782,6.782,0,0,1,1.3-.672c.851-.4,2.115-.918,3.7-1.487a59.617,59.617,0,0,1,25.96-3.1c1.675.179,3.024.381,3.947.573A6.766,6.766,0,0,1,723.98,238.066Z" transform="translate(-687.65 -236.841)" fill="#263238"/>
          </g>
          <g id="Grupo_78410" data-name="Grupo 78410" transform="translate(106.141 162.78)">
            <path id="Trazado_143454" data-name="Trazado 143454" d="M667.891,209.28a2.01,2.01,0,0,1-.32-.379c-.225-.3-.51-.682-.86-1.153-.773-1.07-1.84-2.546-3.17-4.389L652.56,187.865l.491-.069c-1.7,4.989-3.574,10.492-5.547,16.284l-.125.367-.317-.2-.654-.422a33.633,33.633,0,0,1-6.865-5.8,40.911,40.911,0,0,1-4.9-6.777,56.576,56.576,0,0,1-5.393-13.04,88.433,88.433,0,0,1-2.043-9.287c-.184-1.058-.331-1.9-.441-2.541-.053-.289-.113-.5-.148-.649a.722.722,0,0,1-.073-.216c.129-.054.472,1.167.895,3.362.452,2.2,1.084,5.378,2.222,9.212a57.859,57.859,0,0,0,5.463,12.876,40.911,40.911,0,0,0,4.859,6.659,33.4,33.4,0,0,0,6.749,5.684l.641.413-.442.162,5.594-16.268.179-.519.312.45c4.389,6.349,8.123,11.748,10.8,15.618,1.277,1.881,2.3,3.388,3.042,4.48l.788,1.2A2.06,2.06,0,0,1,667.891,209.28Z" transform="translate(-626.543 -165.515)" fill="#263238"/>
          </g>
          <g id="Grupo_78411" data-name="Grupo 78411" transform="translate(183.708 260.355)" opacity="0.3">
            <path id="Trazado_143455" data-name="Trazado 143455" d="M577.268,231.919a63.731,63.731,0,0,0,8.105,37.8c6.53,11.353,16.094,21.473,28.011,26.9.385-11.569-.17-25.2.215-36.765Z" transform="translate(-576.962 -231.919)" fill="#303030"/>
          </g>
          <g id="Grupo_78417" data-name="Grupo 78417" transform="translate(179.999 217.518)">
            <path id="Trazado_143456" data-name="Trazado 143456" d="M569.719,230.374s-5.1,1.414-1.274,11.854,5.1,9.81,7.644,19.577,5.521,18.679,9.979,24.2,21.021,16.775,21.021,16.775l14.863-14.014s-2.449-10.445-1.862-17.537,2.075-24.505,1.862-27.478-3.4-10.192-3.4-10.192V228.62l-7.644-23.514s-4.247-1.912-5.732,4.883l-2.548-7.21s-4.035-.645-5.1,7.635.849,19.747.849,19.747L596.26,244.6l-3.184,9.767-2.761.425s-4.154-1.134-6.43-8.955S575.451,228.676,569.719,230.374Z" transform="translate(-567.024 -202.767)" fill="#ffbe9d"/>
            <g id="Grupo_78412" data-name="Grupo 78412" transform="translate(33.393 34.936)">
              <path id="Trazado_143457" data-name="Trazado 143457" d="M586.965,256.146a2.4,2.4,0,0,1-.069-.535l-.107-1.556c-.076-1.424-.182-3.394-.313-5.848-.229-5.069-.548-12.126-.918-20.362l.066.172a2.977,2.977,0,0,0-3.008-.783,4.381,4.381,0,0,0-2.755,2.019c-1.3,2.089-1.369,4.811-1.776,7.438-.805,5.951-1.572,11.619-2.272,16.784-.354,2.579-.727,5.034-1.23,7.306a47.871,47.871,0,0,1-1.843,6.194,51.9,51.9,0,0,0-1.6,5.043,15.46,15.46,0,0,0-.479,3.932,12.243,12.243,0,0,0,.588,3.33,4.9,4.9,0,0,1-.357-.814,9.249,9.249,0,0,1-.467-2.507,15.049,15.049,0,0,1,.386-4.017,48.82,48.82,0,0,1,1.524-5.106,48.857,48.857,0,0,0,1.756-6.16c.478-2.254.83-4.7,1.168-7.275.685-5.166,1.436-10.835,2.225-16.788.188-1.328.331-2.639.563-3.945a10.352,10.352,0,0,1,1.311-3.734,4.985,4.985,0,0,1,3.125-2.269,3.552,3.552,0,0,1,3.577.987l.063.076,0,.1c.284,8.239.526,15.3.7,20.37.065,2.455.115,4.429.151,5.854.007.638.012,1.154.016,1.559A2.319,2.319,0,0,1,586.965,256.146Z" transform="translate(-570.407 -226.542)" fill="#eb996e"/>
            </g>
            <g id="Grupo_78413" data-name="Grupo 78413" transform="translate(38.756 17.504)">
              <path id="Trazado_143458" data-name="Trazado 143458" d="M573.107,234.958a6.13,6.13,0,0,1-.626-1.33,33.588,33.588,0,0,1-1.245-3.806,38.341,38.341,0,0,1-1.068-5.85,17.08,17.08,0,0,1-.063-3.547,7.579,7.579,0,0,1,1.283-3.64,5.187,5.187,0,0,1,2.717-2.04l.229-.068.116.206c2.153,3.8,4.022,7.15,5.337,9.561q.906,1.693,1.522,2.849a4.775,4.775,0,0,1,.488,1.07,4.934,4.934,0,0,1-.671-.964q-.681-1.122-1.679-2.761c-1.406-2.36-3.34-5.673-5.515-9.46l.344.138a4.639,4.639,0,0,0-2.392,1.818,7.082,7.082,0,0,0-1.187,3.356,17.182,17.182,0,0,0,.029,3.427,43.191,43.191,0,0,0,.927,5.8c.375,1.633.773,2.933,1.051,3.829A7.773,7.773,0,0,1,573.107,234.958Z" transform="translate(-570.038 -214.679)" fill="#eb996e"/>
            </g>
            <g id="Grupo_78414" data-name="Grupo 78414" transform="translate(37.647 5.337)">
              <path id="Trazado_143459" data-name="Trazado 143459" d="M578.327,240.755a5.917,5.917,0,0,1-.137-1.353c-.041-1-.091-2.236-.151-3.7-.1-3.123-.2-7.434-.265-12.2-.035-4.758-.222-9.085.188-12.221a18.723,18.723,0,0,1,.8-3.637,4.608,4.608,0,0,1,.545-1.252,34.608,34.608,0,0,0-.915,4.934c-.3,3.084-.044,7.4-.007,12.167.068,4.764.1,9.077.087,12.2-.016,1.461-.031,2.7-.043,3.7A5.807,5.807,0,0,1,578.327,240.755Z" transform="translate(-577.701 -206.399)" fill="#eb996e"/>
            </g>
            <g id="Grupo_78415" data-name="Grupo 78415" transform="translate(25.701 54.8)">
              <path id="Trazado_143460" data-name="Trazado 143460" d="M582.831,264.108c-.087-.072.843-1.167,1.993-3.152a26.068,26.068,0,0,0,1.729-3.625,25.944,25.944,0,0,0,1.737-9.62,26.172,26.172,0,0,0-.351-4c-.384-2.261-.873-3.613-.767-3.649a3.2,3.2,0,0,1,.423.918,16.924,16.924,0,0,1,.764,2.651,22.735,22.735,0,0,1,.491,4.07,24.191,24.191,0,0,1-1.777,9.836,22.73,22.73,0,0,1-1.882,3.641,16.8,16.8,0,0,1-1.643,2.216C583.115,263.88,582.862,264.134,582.831,264.108Z" transform="translate(-582.825 -240.061)" fill="#eb996e"/>
            </g>
            <path id="Trazado_143461" data-name="Trazado 143461" d="M548.452,251.454l12.9,4.477s12.315-6.37,20.81,0,15.87,23.158,13.535,29.952c0,0-5.862,7.237-10.321,8.3s-21.794-3.137-29.006-4.655c-7.231-1.524-19.647-9.6-19.647-9.6Z" transform="translate(-496.655 -179.913)" fill="#ffbe9d"/>
            <g id="Grupo_78416" data-name="Grupo 78416" transform="translate(52.678 61.449)">
              <path id="Trazado_143462" data-name="Trazado 143462" d="M568.6,273.682a4.162,4.162,0,0,1-.138-1.142c-.051-.874-.113-1.91-.184-3.117-.137-2.632-.314-6.27-.367-10.3a102.162,102.162,0,0,1,.3-10.314c.113-1.317.259-2.379.389-3.106a4.219,4.219,0,0,1,.268-1.12c.1.015-.106,1.63-.229,4.255s-.179,6.26-.119,10.277c.073,3.937.14,7.5.191,10.292.015,1.318.012,2.386-.009,3.125A4.244,4.244,0,0,1,568.6,273.682Z" transform="translate(-567.893 -244.586)" fill="#eb996e"/>
            </g>
          </g>
          <g id="Grupo_78418" data-name="Grupo 78418" transform="translate(240.788 283.844)">
            <path id="Trazado_143463" data-name="Trazado 143463" d="M574.27,257.092a40.743,40.743,0,0,0-4.289-3.868,23.6,23.6,0,0,0-26.147-1.441,40.994,40.994,0,0,0-4.689,3.372A6.542,6.542,0,0,1,540.209,254a21.014,21.014,0,0,1,3.4-2.591,23.186,23.186,0,0,1,26.626,1.468,21.156,21.156,0,0,1,3.1,2.948A6.51,6.51,0,0,1,574.27,257.092Z" transform="translate(-539.144 -247.905)" fill="#263238"/>
          </g>
          <g id="Grupo_78419" data-name="Grupo 78419" transform="translate(236.889 277.385)">
            <path id="Trazado_143464" data-name="Trazado 143464" d="M577.639,248.4a25.293,25.293,0,0,0-5.366-2.959A23.738,23.738,0,0,0,557.751,245a33.738,33.738,0,0,0-7.509,3.125,35.645,35.645,0,0,0-5.44,3.844c-1.449,1.234-2.555,2.313-3.315,3.064a9.616,9.616,0,0,1-1.214,1.137,8.132,8.132,0,0,1,1.043-1.3,40.485,40.485,0,0,1,3.2-3.224,33.265,33.265,0,0,1,5.441-4,32.711,32.711,0,0,1,7.626-3.225,23.289,23.289,0,0,1,14.841.62,17.13,17.13,0,0,1,3.97,2.241,11.074,11.074,0,0,1,.943.8C577.551,248.277,577.653,248.385,577.639,248.4Z" transform="translate(-540.272 -243.509)" fill="#263238"/>
          </g>
          <g id="Grupo_78420" data-name="Grupo 78420" transform="translate(234.434 270.901)">
            <path id="Trazado_143465" data-name="Trazado 143465" d="M580.128,241.15c-.032.12-2.286-.569-6.032-1.076a48.282,48.282,0,0,0-6.612-.42,48.129,48.129,0,0,0-15.908,2.8,48.669,48.669,0,0,0-6.072,2.652c-3.347,1.754-5.231,3.172-5.3,3.071a8.718,8.718,0,0,1,1.292-1.033,18.29,18.29,0,0,1,1.6-1.095c.644-.4,1.358-.886,2.207-1.321a43.636,43.636,0,0,1,6.085-2.8,45.507,45.507,0,0,1,16.1-2.833,43.807,43.807,0,0,1,6.674.554c.946.119,1.784.334,2.524.489a17.945,17.945,0,0,1,1.879.482A8.626,8.626,0,0,1,580.128,241.15Z" transform="translate(-540.201 -239.096)" fill="#263238"/>
          </g>
          <g id="Grupo_78421" data-name="Grupo 78421" transform="translate(143.801 158.886)">
            <path id="Trazado_143466" data-name="Trazado 143466" d="M638.458,162.865a10.777,10.777,0,0,1,.895,3.43,33.512,33.512,0,0,1-.491,10.005,59.225,59.225,0,0,1-1.666,6.974,52.828,52.828,0,0,1-3.387,7.748c-2.779,5.357-6.274,11.2-10.324,17.429l-.473.729v-.871c-.006-4.117-.012-8.439-.019-12.925l.453.216c-3.466,2.8-7.118,5.747-10.878,8.781l.1-.138a114.462,114.462,0,0,0-4.839,26.15c-1.065,14.177-.207,27.737.461,40.037.573,12.318.949,23.411,1.333,32.725s.705,16.85.987,22.054c.151,2.579.27,4.592.354,5.991.044.663.078,1.18.1,1.558.021.351.015.532.015.532s-.037-.178-.076-.528c-.04-.376-.094-.89-.163-1.553-.129-1.367-.3-3.384-.469-5.986-.353-5.2-.755-12.737-1.18-22.05s-.911-20.407-1.462-32.715c-.7-12.292-1.577-25.879-.508-40.11a114.372,114.372,0,0,1,4.886-26.283l.026-.082.069-.056c3.766-3.028,7.423-5.967,10.9-8.759l.454-.364,0,.582c-.007,4.486-.013,8.808-.019,12.925l-.475-.143c8-12.412,14.51-23.195,15.513-31.92a34.436,34.436,0,0,0,.629-9.932,16.873,16.873,0,0,0-.479-2.582C638.535,163.166,638.458,162.865,638.458,162.865Z" transform="translate(-606.719 -162.865)" fill="#263238"/>
          </g>
          <path id="Trazado_143467" data-name="Trazado 143467" d="M623.265,265.131l-.416-.015a3.288,3.288,0,1,0,.416.015Z" transform="translate(-468.617 44.019)" fill="#fff"/>
          <g id="Grupo_78422" data-name="Grupo 78422" transform="translate(151.039 217.518)">
            <path id="Trazado_143468" data-name="Trazado 143468" d="M623.265,234.577l-.416-.015a3.288,3.288,0,1,0,.416.015Z" transform="translate(-619.656 -187.842)" fill="#fff"/>
            <path id="Trazado_143469" data-name="Trazado 143469" d="M622.828,209.335a3.286,3.286,0,0,0,.436-6.555l-.416-.013a3.286,3.286,0,0,0-.021,6.568Z" transform="translate(-619.656 -202.767)" fill="#fff"/>
          </g>
          <g id="Grupo_78423" data-name="Grupo 78423" transform="translate(88.699 18.491)">
            <path id="Trazado_143470" data-name="Trazado 143470" d="M611.379,155.109c-4.083-4.521-8.2-9.091-11.181-14.408s-4.752-11.522-3.766-17.533c.576-3.516,2.07-6.865,2.307-10.421.326-4.892-1.729-10,0-14.588,2.711-7.168,12.359-8.274,18.207-13.225,4.555-3.856,6.774-10.117,11.783-13.358,4.377-2.833,10-2.771,15.163-2.041s10.356,2.034,15.524,1.339c3.684-.5,7.153-1.985,10.76-2.879s7.634-1.128,10.847.738,5.018,6.43,2.909,9.491c5.989-2.761,13.595,1.907,15.233,8.293s-1.641,13.288-6.715,17.5-11.636,6.172-18.116,7.393c-18.344,3.458-38.243,1.506-54.052-8.421" transform="translate(-596.159 -67.32)" fill="#263238"/>
          </g>
          <g id="Grupo_78529" data-name="Grupo 78529" transform="translate(101.004 32.898)">
            <g id="Grupo_78528" data-name="Grupo 78528" transform="translate(0)">
              <g id="Grupo_78527" data-name="Grupo 78527" transform="translate(0)">
                <g id="Grupo_78446" data-name="Grupo 78446">
                  <g id="Grupo_78445" data-name="Grupo 78445">
                    <g id="Grupo_78444" data-name="Grupo 78444">
                      <g id="Grupo_78433" data-name="Grupo 78433">
                        <g id="Grupo_78432" data-name="Grupo 78432">
                          <g id="Grupo_78431" data-name="Grupo 78431">
                            <g id="Grupo_78430" data-name="Grupo 78430">
                              <g id="Grupo_78429" data-name="Grupo 78429">
                                <g id="Grupo_78428" data-name="Grupo 78428">
                                  <g id="Grupo_78427" data-name="Grupo 78427">
                                    <g id="Grupo_78426" data-name="Grupo 78426">
                                      <g id="Grupo_78425" data-name="Grupo 78425">
                                        <g id="Grupo_78424" data-name="Grupo 78424">
                                          <path id="Trazado_143471" data-name="Trazado 143471" d="M665.894,212.18c-.895-6.944-1.628-12.737-1.674-13.457,0,0,23.206-5.215,21.928-28.68-.619-11.339-3.793-34.593-6.908-55.6a43.772,43.772,0,0,0-46.23-37.225l-2.263.151c-24.3,3.056-35.276,25.4-31.548,49.6l13.11,81.157S617.9,226.09,629.87,229.2l15.1,21.574,2.5-9.287,11.256-9.8a44.268,44.268,0,0,0,5.55-8.261A18.079,18.079,0,0,0,665.894,212.18Z" transform="translate(-598.487 -77.125)" fill="#ffbe9d"/>
                                        </g>
                                      </g>
                                    </g>
                                  </g>
                                </g>
                              </g>
                            </g>
                          </g>
                        </g>
                      </g>
                      <g id="Grupo_78443" data-name="Grupo 78443" transform="translate(34.602 114.615)">
                        <g id="Grupo_78442" data-name="Grupo 78442" transform="translate(0)">
                          <g id="Grupo_78441" data-name="Grupo 78441">
                            <g id="Grupo_78440" data-name="Grupo 78440">
                              <g id="Grupo_78439" data-name="Grupo 78439">
                                <g id="Grupo_78438" data-name="Grupo 78438">
                                  <g id="Grupo_78437" data-name="Grupo 78437">
                                    <g id="Grupo_78436" data-name="Grupo 78436">
                                      <g id="Grupo_78435" data-name="Grupo 78435">
                                        <g id="Grupo_78434" data-name="Grupo 78434">
                                          <path id="Trazado_143472" data-name="Trazado 143472" d="M644.267,161.768s-14.737,2.2-31.147-6.643c0,0,8.354,16.391,31.608,12.715Z" transform="translate(-613.12 -155.125)" fill="#eb996e"/>
                                        </g>
                                      </g>
                                    </g>
                                  </g>
                                </g>
                              </g>
                            </g>
                          </g>
                        </g>
                      </g>
                    </g>
                  </g>
                </g>
                <g id="Grupo_78526" data-name="Grupo 78526" transform="translate(24.763 35.496)">
                  <g id="Grupo_78525" data-name="Grupo 78525" transform="translate(0)">
                    <g id="Grupo_78504" data-name="Grupo 78504" transform="translate(3.104 10.569)">
                      <g id="Grupo_78503" data-name="Grupo 78503" transform="translate(0)">
                        <g id="Grupo_78502" data-name="Grupo 78502" transform="translate(0)">
                          <g id="Grupo_78468" data-name="Grupo 78468" transform="translate(35.372)">
                            <g id="Grupo_78456" data-name="Grupo 78456" transform="translate(3.301 8.605)">
                              <g id="Grupo_78455" data-name="Grupo 78455" transform="translate(0)">
                                <g id="Grupo_78454" data-name="Grupo 78454" transform="translate(0)">
                                  <g id="Grupo_78453" data-name="Grupo 78453">
                                    <g id="Grupo_78452" data-name="Grupo 78452">
                                      <g id="Grupo_78451" data-name="Grupo 78451">
                                        <g id="Grupo_78450" data-name="Grupo 78450">
                                          <g id="Grupo_78449" data-name="Grupo 78449">
                                            <g id="Grupo_78448" data-name="Grupo 78448">
                                              <g id="Grupo_78447" data-name="Grupo 78447">
                                                <path id="Trazado_143473" data-name="Trazado 143473" d="M615.017,117.147a3.354,3.354,0,0,1-3,3.593,3.208,3.208,0,0,1-3.653-2.787,3.357,3.357,0,0,1,3-3.6A3.212,3.212,0,0,1,615.017,117.147Z" transform="translate(-608.344 -114.33)" fill="#263238"/>
                                              </g>
                                            </g>
                                          </g>
                                        </g>
                                      </g>
                                    </g>
                                  </g>
                                </g>
                              </g>
                            </g>
                            <g id="Grupo_78467" data-name="Grupo 78467" transform="translate(0)">
                              <g id="Grupo_78466" data-name="Grupo 78466">
                                <g id="Grupo_78465" data-name="Grupo 78465">
                                  <g id="Grupo_78464" data-name="Grupo 78464">
                                    <g id="Grupo_78463" data-name="Grupo 78463">
                                      <g id="Grupo_78462" data-name="Grupo 78462">
                                        <g id="Grupo_78461" data-name="Grupo 78461">
                                          <g id="Grupo_78460" data-name="Grupo 78460">
                                            <g id="Grupo_78459" data-name="Grupo 78459">
                                              <g id="Grupo_78458" data-name="Grupo 78458">
                                                <g id="Grupo_78457" data-name="Grupo 78457">
                                                  <path id="Trazado_143474" data-name="Trazado 143474" d="M619.345,111.576c-.386.464-3.049-1.243-6.652-.992-3.6.2-6.122,2.228-6.542,1.813-.2-.182.165-1,1.261-1.915a9.205,9.205,0,0,1,5.2-1.991,8.84,8.84,0,0,1,5.33,1.334C619.107,110.6,619.536,111.367,619.345,111.576Z" transform="translate(-606.097 -108.474)" fill="#263238"/>
                                                </g>
                                              </g>
                                            </g>
                                          </g>
                                        </g>
                                      </g>
                                    </g>
                                  </g>
                                </g>
                              </g>
                            </g>
                          </g>
                          <g id="Grupo_78490" data-name="Grupo 78490" transform="translate(0 3.041)">
                            <g id="Grupo_78478" data-name="Grupo 78478" transform="translate(4.637 7.998)">
                              <g id="Grupo_78477" data-name="Grupo 78477" transform="translate(0)">
                                <g id="Grupo_78476" data-name="Grupo 78476" transform="translate(0)">
                                  <g id="Grupo_78475" data-name="Grupo 78475">
                                    <g id="Grupo_78474" data-name="Grupo 78474">
                                      <g id="Grupo_78473" data-name="Grupo 78473">
                                        <g id="Grupo_78472" data-name="Grupo 78472">
                                          <g id="Grupo_78471" data-name="Grupo 78471">
                                            <g id="Grupo_78470" data-name="Grupo 78470">
                                              <g id="Grupo_78469" data-name="Grupo 78469">
                                                <path id="Trazado_143475" data-name="Trazado 143475" d="M638.179,118.8a3.353,3.353,0,0,1-3,3.593,3.207,3.207,0,0,1-3.653-2.787,3.357,3.357,0,0,1,3-3.6A3.21,3.21,0,0,1,638.179,118.8Z" transform="translate(-631.508 -115.986)" fill="#263238"/>
                                              </g>
                                            </g>
                                          </g>
                                        </g>
                                      </g>
                                    </g>
                                  </g>
                                </g>
                              </g>
                            </g>
                            <g id="Grupo_78489" data-name="Grupo 78489">
                              <g id="Grupo_78488" data-name="Grupo 78488">
                                <g id="Grupo_78487" data-name="Grupo 78487">
                                  <g id="Grupo_78486" data-name="Grupo 78486">
                                    <g id="Grupo_78485" data-name="Grupo 78485">
                                      <g id="Grupo_78484" data-name="Grupo 78484">
                                        <g id="Grupo_78483" data-name="Grupo 78483">
                                          <g id="Grupo_78482" data-name="Grupo 78482">
                                            <g id="Grupo_78481" data-name="Grupo 78481">
                                              <g id="Grupo_78480" data-name="Grupo 78480">
                                                <g id="Grupo_78479" data-name="Grupo 78479">
                                                  <path id="Trazado_143476" data-name="Trazado 143476" d="M643.417,113.646c-.386.464-3.052-1.243-6.652-.993-3.6.2-6.122,2.229-6.542,1.815-.2-.182.162-1,1.261-1.915a9.205,9.205,0,0,1,5.2-1.993,8.855,8.855,0,0,1,5.331,1.336C643.176,112.672,643.607,113.438,643.417,113.646Z" transform="translate(-630.17 -110.543)" fill="#263238"/>
                                                </g>
                                              </g>
                                            </g>
                                          </g>
                                        </g>
                                      </g>
                                    </g>
                                  </g>
                                </g>
                              </g>
                            </g>
                          </g>
                          <g id="Grupo_78501" data-name="Grupo 78501" transform="translate(24.423 2.076)">
                            <g id="Grupo_78500" data-name="Grupo 78500" transform="translate(0)">
                              <g id="Grupo_78499" data-name="Grupo 78499" transform="translate(0)">
                                <g id="Grupo_78498" data-name="Grupo 78498">
                                  <g id="Grupo_78497" data-name="Grupo 78497">
                                    <g id="Grupo_78496" data-name="Grupo 78496">
                                      <g id="Grupo_78495" data-name="Grupo 78495">
                                        <g id="Grupo_78494" data-name="Grupo 78494">
                                          <g id="Grupo_78493" data-name="Grupo 78493">
                                            <g id="Grupo_78492" data-name="Grupo 78492">
                                              <g id="Grupo_78491" data-name="Grupo 78491">
                                                <path id="Trazado_143477" data-name="Trazado 143477" d="M617.639,139.8c-.031-.2,2.184-.741,5.781-1.447.914-.157,1.774-.4,1.887-1.036a4.691,4.691,0,0,0-.8-2.686q-1.521-3.253-3.189-6.824c-4.446-9.722-7.729-17.74-7.337-17.917s4.316,7.562,8.761,17.285q1.611,3.6,3.078,6.872c.417,1.023,1.1,2.169.719,3.579a2.31,2.31,0,0,1-1.422,1.446,6.19,6.19,0,0,1-1.549.322C619.931,139.835,617.666,140,617.639,139.8Z" transform="translate(-613.951 -109.887)" fill="#263238"/>
                                              </g>
                                            </g>
                                          </g>
                                        </g>
                                      </g>
                                    </g>
                                  </g>
                                </g>
                              </g>
                            </g>
                          </g>
                        </g>
                      </g>
                    </g>
                    <g id="Grupo_78514" data-name="Grupo 78514" transform="translate(0 0.26)">
                      <g id="Grupo_78513" data-name="Grupo 78513">
                        <g id="Grupo_78512" data-name="Grupo 78512">
                          <g id="Grupo_78511" data-name="Grupo 78511">
                            <g id="Grupo_78510" data-name="Grupo 78510">
                              <g id="Grupo_78509" data-name="Grupo 78509">
                                <g id="Grupo_78508" data-name="Grupo 78508">
                                  <g id="Grupo_78507" data-name="Grupo 78507">
                                    <g id="Grupo_78506" data-name="Grupo 78506">
                                      <g id="Grupo_78505" data-name="Grupo 78505">
                                        <path id="Trazado_143478" data-name="Trazado 143478" d="M646.539,103.728c-.291,1-3.919.78-8.113,1.572-4.208.708-7.535,2.173-8.154,1.333-.279-.4.254-1.365,1.569-2.405a14.351,14.351,0,0,1,12.392-2.213C645.826,102.535,646.659,103.254,646.539,103.728Z" transform="translate(-630.2 -101.458)" fill="#263238"/>
                                      </g>
                                    </g>
                                  </g>
                                </g>
                              </g>
                            </g>
                          </g>
                        </g>
                      </g>
                    </g>
                    <g id="Grupo_78524" data-name="Grupo 78524" transform="translate(37.386)">
                      <g id="Grupo_78523" data-name="Grupo 78523" transform="translate(0)">
                        <g id="Grupo_78522" data-name="Grupo 78522" transform="translate(0)">
                          <g id="Grupo_78521" data-name="Grupo 78521">
                            <g id="Grupo_78520" data-name="Grupo 78520">
                              <g id="Grupo_78519" data-name="Grupo 78519">
                                <g id="Grupo_78518" data-name="Grupo 78518">
                                  <g id="Grupo_78517" data-name="Grupo 78517">
                                    <g id="Grupo_78516" data-name="Grupo 78516">
                                      <g id="Grupo_78515" data-name="Grupo 78515">
                                        <path id="Trazado_143479" data-name="Trazado 143479" d="M619.768,104.614c-.579.861-3.118.178-6.1.337-2.993.056-5.475.918-6.114.1-.284-.4.059-1.245,1.112-2.092a8.855,8.855,0,0,1,9.846-.353C619.618,103.376,620.022,104.2,619.768,104.614Z" transform="translate(-607.454 -101.281)" fill="#263238"/>
                                      </g>
                                    </g>
                                  </g>
                                </g>
                              </g>
                            </g>
                          </g>
                        </g>
                      </g>
                    </g>
                  </g>
                </g>
              </g>
            </g>
          </g>
          <g id="Grupo_78551" data-name="Grupo 78551" transform="translate(89.837 99.552)">
            <g id="Grupo_78539" data-name="Grupo 78539" transform="translate(0 0)">
              <g id="Grupo_78538" data-name="Grupo 78538" transform="translate(0)">
                <g id="Grupo_78537" data-name="Grupo 78537">
                  <g id="Grupo_78536" data-name="Grupo 78536">
                    <g id="Grupo_78535" data-name="Grupo 78535">
                      <g id="Grupo_78534" data-name="Grupo 78534">
                        <g id="Grupo_78533" data-name="Grupo 78533">
                          <g id="Grupo_78532" data-name="Grupo 78532">
                            <g id="Grupo_78531" data-name="Grupo 78531">
                              <g id="Grupo_78530" data-name="Grupo 78530">
                                <path id="Trazado_143480" data-name="Trazado 143480" d="M667.8,122.918c-.411-.147-16.428-3.687-14.844,12.308s18.919,10.781,18.9,10.32S667.8,122.918,667.8,122.918Z" transform="translate(-652.841 -122.486)" fill="#ffbe9d"/>
                              </g>
                            </g>
                          </g>
                        </g>
                      </g>
                    </g>
                  </g>
                </g>
              </g>
            </g>
            <g id="Grupo_78550" data-name="Grupo 78550" transform="translate(4.143 5.439)">
              <g id="Grupo_78549" data-name="Grupo 78549" transform="translate(0)">
                <g id="Grupo_78548" data-name="Grupo 78548" transform="translate(0)">
                  <g id="Grupo_78547" data-name="Grupo 78547">
                    <g id="Grupo_78546" data-name="Grupo 78546">
                      <g id="Grupo_78545" data-name="Grupo 78545">
                        <g id="Grupo_78544" data-name="Grupo 78544">
                          <g id="Grupo_78543" data-name="Grupo 78543">
                            <g id="Grupo_78542" data-name="Grupo 78542">
                              <g id="Grupo_78541" data-name="Grupo 78541">
                                <g id="Grupo_78540" data-name="Grupo 78540">
                                  <path id="Trazado_143481" data-name="Trazado 143481" d="M665.431,138.556c-.075-.044-.26.222-.71.485a2.792,2.792,0,0,1-2.078.248c-1.752-.453-3.44-2.993-3.8-5.869a9.241,9.241,0,0,1,.385-4.067,3.236,3.236,0,0,1,1.884-2.347,1.425,1.425,0,0,1,1.719.6c.259.428.19.755.276.774.05.037.317-.3.123-.949a1.8,1.8,0,0,0-.729-.94,2.121,2.121,0,0,0-1.581-.254,3.933,3.933,0,0,0-2.665,2.768,9.525,9.525,0,0,0-.525,4.554c.422,3.214,2.372,6.066,4.749,6.505a3,3,0,0,0,2.507-.676C665.44,138.946,665.489,138.58,665.431,138.556Z" transform="translate(-657.652 -126.187)" fill="#eb996e"/>
                                </g>
                              </g>
                            </g>
                          </g>
                        </g>
                      </g>
                    </g>
                  </g>
                </g>
              </g>
            </g>
          </g>
          <g id="Grupo_78554" data-name="Grupo 78554" transform="translate(98.409 28.822)">
            <g id="Grupo_78553" data-name="Grupo 78553" transform="translate(0)">
              <g id="Grupo_78552" data-name="Grupo 78552">
                <path id="Trazado_143482" data-name="Trazado 143482" d="M686.194,93.9c-1.1,6.367-14.012,12.2-24.718,11.889-9.872-.288-14.745-5.186-21.918-8.667-4.539-2.2-4.539-2.2-10.7-1.2-4.981.81-7.566,6.686-10.362,10.887,5.327,11.611,3.174,25.115.917,37.69a6.393,6.393,0,0,1-1.619,3.823c-1.8,1.585-4.714.635-6.482-.983-2.832-2.592-4.12-6.436-5.049-10.161a66.111,66.111,0,0,1-1.584-26.01A44.987,44.987,0,0,1,615.5,87.68c7.378-8.061,18.163-12.707,29.077-13.269a52.344,52.344,0,0,1,31.015,8.8c4.239,2.777,8.205,6.213,10.6,10.681" transform="translate(-604.025 -74.351)" fill="#263238"/>
              </g>
            </g>
          </g>
          <path id="Trazado_143483" data-name="Trazado 143483" d="M631.139,137.1q-4.078-1.9-8.152-3.8a2.761,2.761,0,0,0-1.484-.373,2.369,2.369,0,0,0-1.411.958,7.584,7.584,0,0,0-.9,8.332,6.371,6.371,0,0,0,7.651,2.812c2.89-1.2,4.3-4.552,4.52-7.672Z" transform="translate(-471.801 -18.042)" fill="#eb996e"/>
          <g id="Grupo_78555" data-name="Grupo 78555" transform="translate(145.547 113.827)">
            <path id="Trazado_143484" data-name="Trazado 143484" d="M628.249,145.932c.022.069-.378.3-1.193.475a7.069,7.069,0,0,1-3.507-.259,7.317,7.317,0,0,1-4.048-3.363,7.516,7.516,0,0,1-.5-6.43,7.856,7.856,0,0,1,1.891-2.852,7.272,7.272,0,0,1,1.323-1,2.152,2.152,0,0,1,.94-.3,2.111,2.111,0,0,1,.946.184,11.694,11.694,0,0,1,1.271.72l1.111.683,1.985,1.242c2.419,1.534,3.872,2.557,3.787,2.7s-1.69-.614-4.219-1.96l-2.059-1.114-1.143-.629a12.711,12.711,0,0,0-1.152-.607.862.862,0,0,0-.892.085,6.354,6.354,0,0,0-1.071.849,6.9,6.9,0,0,0-1.586,2.43,6.583,6.583,0,0,0,.344,5.46,6.723,6.723,0,0,0,3.369,3.1,7.955,7.955,0,0,0,3.156.591C627.783,145.918,628.222,145.842,628.249,145.932Z" transform="translate(-618.502 -132.2)" fill="#263238"/>
          </g>
          <g id="Grupo_78556" data-name="Grupo 78556" transform="translate(119.01 73.839)">
            <path id="Trazado_143485" data-name="Trazado 143485" d="M656.682,121.934a28.783,28.783,0,0,0-.636-4.05,16.645,16.645,0,0,0-6.091-9.057,16.437,16.437,0,0,0-15.571-2.319,16.48,16.48,0,0,0-7.617,5.728,16.343,16.343,0,0,0,0,19.395,16.485,16.485,0,0,0,7.619,5.729,16.564,16.564,0,0,0,21.662-11.376,28.783,28.783,0,0,0,.636-4.05.85.85,0,0,1,.018.27l-.01.8a7.5,7.5,0,0,1-.1,1.293,11.743,11.743,0,0,1-.313,1.746,15.794,15.794,0,0,1-1.807,4.51,16.865,16.865,0,0,1-11.359,8.039,16.988,16.988,0,0,1-8.916-.7,16.985,16.985,0,0,1-7.907-5.9,16.885,16.885,0,0,1,0-20.1,16.981,16.981,0,0,1,7.905-5.9,16.983,16.983,0,0,1,8.915-.7,16.872,16.872,0,0,1,11.36,8.039,15.777,15.777,0,0,1,1.807,4.51,11.71,11.71,0,0,1,.313,1.746,7.5,7.5,0,0,1,.1,1.293c0,.319.007.58.01.8A.85.85,0,0,1,656.682,121.934Z" transform="translate(-622.971 -104.987)" fill="#263238"/>
          </g>
          <g id="Grupo_78557" data-name="Grupo 78557" transform="translate(159.757 72.699)">
            <path id="Trazado_143486" data-name="Trazado 143486" d="M628.679,120.73a28.994,28.994,0,0,0-.625-3.945,16.217,16.217,0,0,0-5.935-8.822,16.017,16.017,0,0,0-15.167-2.257,16.046,16.046,0,0,0-7.419,5.579,15.92,15.92,0,0,0,0,18.889,16.031,16.031,0,0,0,7.421,5.581,16.137,16.137,0,0,0,21.1-11.079,29.065,29.065,0,0,0,.623-3.945,6.716,6.716,0,0,1,.009,1.042,7.687,7.687,0,0,1-.1,1.259,11.463,11.463,0,0,1-.306,1.7,16.382,16.382,0,0,1-12.831,12.233,16.541,16.541,0,0,1-8.69-.685,16.554,16.554,0,0,1-7.71-5.754,16.463,16.463,0,0,1,0-19.593,16.551,16.551,0,0,1,7.708-5.753,16.538,16.538,0,0,1,8.689-.686,16.385,16.385,0,0,1,12.832,12.233,11.257,11.257,0,0,1,.3,1.7,7.553,7.553,0,0,1,.1,1.261A6.7,6.7,0,0,1,628.679,120.73Z" transform="translate(-595.822 -104.211)" fill="#263238"/>
          </g>
          <g id="Grupo_78558" data-name="Grupo 78558" transform="translate(151.919 83.691)">
            <path id="Trazado_143487" data-name="Trazado 143487" d="M626.126,113.535c-.066.068-.451-.257-1.159-.592a6.494,6.494,0,0,0-5.842.1c-.693.361-1.064.7-1.133.639-.056-.046.215-.511.909-1.005a5.653,5.653,0,0,1,3.121-.986,5.719,5.719,0,0,1,3.155.876C625.887,113.034,626.178,113.486,626.126,113.535Z" transform="translate(-617.984 -111.691)" fill="#263238"/>
          </g>
          <g id="Grupo_78559" data-name="Grupo 78559" transform="translate(105.357 88.408)">
            <path id="Trazado_143488" data-name="Trazado 143488" d="M660,114.907c.1.134-3.17,2.743-7.3,5.828s-7.563,5.476-7.663,5.343,3.167-2.743,7.3-5.829S659.894,114.773,660,114.907Z" transform="translate(-645.03 -114.901)" fill="#263238"/>
          </g>
          <g id="Grupo_78560" data-name="Grupo 78560" transform="translate(106.279 164.229)" opacity="0.3">
            <path id="Trazado_143489" data-name="Trazado 143489" d="M636.707,166.5c-1.621,15.809,4.391,32.5,17.07,42.075.995.752,2.244,1.5,3.416,1.073a3.746,3.746,0,0,0,1.769-1.825,30.873,30.873,0,0,0,3.781-20.312c-2.009,5.287-3.732,10.477-5.759,16.008C645.936,196.811,639.051,182.547,636.707,166.5Z" transform="translate(-636.448 -166.501)" fill="#303030"/>
          </g>
          <path id="Trazado_143490" data-name="Trazado 143490" d="M606.413,202.908l9.3-3.4,1.541,15.736s10.04-18.3,14.195-26.648,2.017-23.083,2.017-23.083,1.487,12.834-8.574,29.2L617.3,207.064V194.139Z" transform="translate(-456.949 -2.735)" fill="#303030"/>
          <g id="Grupo_78561" data-name="Grupo 78561" transform="translate(8.413 278.221)" opacity="0.3">
            <path id="Trazado_143491" data-name="Trazado 143491" d="M726.295,246.009c-4.15-1.959-8.924-2.222-13.482-1.691-4.814.56-9.645,2.034-13.417,5.077s-6.33,7.839-5.86,12.663l.467.066c3.245-8.786,9.7-15.181,18.03-15.953s16.453,2.933,22.167,9.037C733.645,250.652,730.443,247.967,726.295,246.009Z" transform="translate(-693.48 -244.078)" fill="#303030"/>
          </g>
          <g id="Grupo_78562" data-name="Grupo 78562" transform="translate(242.076 282.567)" opacity="0.3">
            <path id="Trazado_143492" data-name="Trazado 143492" d="M570.283,253.6a21.319,21.319,0,0,0-12.018-6.191,27,27,0,0,0-22.42,6.49l1.776-1.442a28.281,28.281,0,0,1,14.929-4.057,21.621,21.621,0,0,1,14.233,5.685c3.478,3.315,5.569,7.789,7.563,12.159A15.244,15.244,0,0,0,570.283,253.6Z" transform="translate(-535.845 -247.035)" fill="#303030"/>
          </g>
          <g id="Grupo_78563" data-name="Grupo 78563" transform="translate(216.53 184.264)">
            <path id="Trazado_143493" data-name="Trazado 143493" d="M571.507,211.924a5.668,5.668,0,0,1,.417-1.271l1.323-3.387c1.127-2.854,2.673-6.8,4.305-11.185s3.04-8.384,4.053-11.282l1.211-3.427a5.7,5.7,0,0,1,.516-1.236,5.641,5.641,0,0,1-.289,1.306c-.224.83-.575,2.023-1.03,3.491-.91,2.934-2.257,6.962-3.891,11.359s-3.247,8.323-4.477,11.138c-.614,1.408-1.128,2.541-1.5,3.315A5.77,5.77,0,0,1,571.507,211.924Z" transform="translate(-571.501 -180.136)" fill="#263238"/>
          </g>
          <g id="Grupo_78564" data-name="Grupo 78564" transform="translate(64.602 192.312)">
            <path id="Trazado_143494" data-name="Trazado 143494" d="M684.562,210.5c-.163.034-1.43-5.51-2.827-12.38s-2.4-12.469-2.232-12.5,1.43,5.509,2.827,12.381S684.726,210.462,684.562,210.5Z" transform="translate(-679.485 -185.613)" fill="#263238"/>
          </g>
          <g id="Grupo_78571" data-name="Grupo 78571" transform="translate(12.858 210.611)">
            <g id="Grupo_78569" data-name="Grupo 78569" transform="translate(0)">
              <path id="Trazado_143495" data-name="Trazado 143495" d="M661.19,273.943c.367.187-4.267-36.3-4.267-36.3s2.925-27.69,4.57-28.969l.043-9.769s4.529-2.743,5.744,1.685c0,0,4.014-3.487,4.717,4.812s.849,16.782.849,16.782l8.937,22.347,1.472.744s1.919-17.507,3.036-20.082,1.882-8.841,6.119-7.9,4.59,4.445,3.828,10.158-1.709,11.608-1.356,15.3,2.029,11.808,1.514,18.259-4.047,13.257-7.756,18.036S677.849,293.7,674,296.677C672.653,297.717,661.19,273.943,661.19,273.943Z" transform="translate(-606.566 -198.066)" fill="#ffbe9d"/>
              <g id="Grupo_78565" data-name="Grupo 78565" transform="translate(55.127 11.083)">
                <path id="Trazado_143496" data-name="Trazado 143496" d="M679.966,240.712a7.752,7.752,0,0,1,.025-1.562c.076-1.12.175-2.541.291-4.238.273-3.577.691-8.514,1.19-13.962.257-2.718.5-5.308.727-7.681a13.733,13.733,0,0,0,.041-3.294,4.669,4.669,0,0,0-1.114-2.517,5.016,5.016,0,0,0-3.648-1.6,9.529,9.529,0,0,0-1.521.194c-.009-.019.115-.084.362-.191a4.01,4.01,0,0,1,1.151-.24,5.129,5.129,0,0,1,3.97,1.546,5.061,5.061,0,0,1,1.3,2.732,13.778,13.778,0,0,1,.019,3.422c-.21,2.375-.439,4.967-.68,7.685-.5,5.45-.984,10.38-1.366,13.948l-.483,4.22A7.611,7.611,0,0,1,679.966,240.712Z" transform="translate(-675.957 -205.609)" fill="#eb996e"/>
              </g>
              <g id="Grupo_78566" data-name="Grupo 78566" transform="translate(58.804 31.262)">
                <path id="Trazado_143497" data-name="Trazado 143497" d="M679.785,219.344a12.549,12.549,0,0,0-1.583,2.88c-.72,1.9-.98,4.761-1.486,7.876-.482,3.12-.951,5.938-1.321,7.973a18.4,18.4,0,0,1-.721,3.275,18.193,18.193,0,0,1,.3-3.34c.26-2.053.663-4.881,1.145-8,.505-3.1.83-5.982,1.685-7.939a7.542,7.542,0,0,1,1.292-2.128C679.486,219.5,679.765,219.322,679.785,219.344Z" transform="translate(-674.648 -219.342)" fill="#eb996e"/>
              </g>
              <g id="Grupo_78567" data-name="Grupo 78567" transform="translate(60.636 2.045)">
                <path id="Trazado_143498" data-name="Trazado 143498" d="M675.218,199.458a4.5,4.5,0,0,1,.312,1.148c.163.746.366,1.831.588,3.177.445,2.692.933,6.435,1.242,10.589s.373,7.929.328,10.658c-.022,1.364-.063,2.467-.115,3.228a4.437,4.437,0,0,1-.14,1.181,38.945,38.945,0,0,1-.175-4.408c-.065-2.72-.2-6.476-.5-10.615s-.724-7.872-1.061-10.571A38.769,38.769,0,0,1,675.218,199.458Z" transform="translate(-675.199 -199.458)" fill="#eb996e"/>
              </g>
              <g id="Grupo_78568" data-name="Grupo 78568" transform="translate(81.053 34.606)">
                <path id="Trazado_143499" data-name="Trazado 143499" d="M664.723,223.262c.088.138-1.306.786-3.009.256-1.71-.51-2.505-1.825-2.356-1.891a7.866,7.866,0,0,0,5.365,1.635Z" transform="translate(-659.34 -221.618)" fill="#eb996e"/>
              </g>
              <path id="Trazado_143500" data-name="Trazado 143500" d="M725.537,246.616l-23.611,9.923H687.86s-13.915,4.342-16.055,17.385-2.447,19.756,3.669,21.368,23.394,1.793,31.957-1.049S738.423,273.3,738.423,273.3l2.161-13.092Z" transform="translate(-670.41 -175.277)" fill="#ffbe9d"/>
            </g>
            <g id="Grupo_78570" data-name="Grupo 78570" transform="translate(53.555 64.323)">
              <path id="Trazado_143501" data-name="Trazado 143501" d="M683.985,263.272c-.031.028-.267-.191-.672-.616a14.6,14.6,0,0,1-1.534-1.951,26.658,26.658,0,0,1-3.3-7.468,44.15,44.15,0,0,1-1.455-8.023,14.9,14.9,0,0,1-.091-3.374,24.465,24.465,0,0,1,.517,3.324,59.743,59.743,0,0,0,1.612,7.907,31.161,31.161,0,0,0,3.077,7.4C683.2,262.239,684.069,263.2,683.985,263.272Z" transform="translate(-676.883 -241.841)" fill="#eb996e"/>
            </g>
          </g>
          <g id="Grupo_78572" data-name="Grupo 78572" transform="translate(73.109 268.161)">
            <path id="Trazado_143502" data-name="Trazado 143502" d="M679.245,269.575a24.314,24.314,0,0,0,1.345-5.061,16.309,16.309,0,0,0-3.171-11.849c-1.434-2.01-3.048-3.76-4.407-5.453a25.329,25.329,0,0,1-3.192-4.826,12.67,12.67,0,0,1-1.183-3.723,4.249,4.249,0,0,1-.04-1.431,16.081,16.081,0,0,0,1.606,4.961,27.059,27.059,0,0,0,3.24,4.665c1.371,1.657,3,3.4,4.47,5.456a17.011,17.011,0,0,1,2.945,6.46,16.42,16.42,0,0,1,.156,5.8,14.916,14.916,0,0,1-1.082,3.751,8.086,8.086,0,0,1-.476.946C679.336,269.48,679.264,269.584,679.245,269.575Z" transform="translate(-668.561 -237.232)" fill="#eb996e"/>
          </g>
          <g id="Grupo_78576" data-name="Grupo 78576" transform="translate(222.027 7.041)">
            <g id="Grupo_78575" data-name="Grupo 78575" transform="translate(0)">
              <g id="Grupo_78574" data-name="Grupo 78574">
                <g id="Grupo_78573" data-name="Grupo 78573">
                  <path id="Trazado_143504" data-name="Trazado 143504" d="M508.066,151.052,518.3,133.019a48.315,48.315,0,1,1,11.572,12.872l.018.022Z" transform="translate(-508.066 -59.528)" fill="#daebf0"/>
                </g>
              </g>
            </g>
          </g>
          <g id="Grupo_78595" data-name="Grupo 78595" transform="translate(248.062 48.546)">
            <g id="Grupo_78582" data-name="Grupo 78582" transform="translate(38.31 0.001)">
              <g id="Grupo_78581" data-name="Grupo 78581" transform="translate(0)">
                <g id="Grupo_78580" data-name="Grupo 78580" transform="translate(0)">
                  <g id="Grupo_78579" data-name="Grupo 78579">
                    <g id="Grupo_78578" data-name="Grupo 78578">
                      <g id="Grupo_78577" data-name="Grupo 78577">
                        <path id="Trazado_143505" data-name="Trazado 143505" d="M525.612,92.488a4.714,4.714,0,1,0,4.714-4.714A4.713,4.713,0,0,0,525.612,92.488Z" transform="translate(-525.612 -87.774)" fill="#303030"/>
                      </g>
                    </g>
                  </g>
                </g>
              </g>
            </g>
            <g id="Grupo_78588" data-name="Grupo 78588" transform="translate(19.447 0.001)">
              <g id="Grupo_78587" data-name="Grupo 78587" transform="translate(0)">
                <g id="Grupo_78586" data-name="Grupo 78586" transform="translate(0)">
                  <g id="Grupo_78585" data-name="Grupo 78585">
                    <g id="Grupo_78584" data-name="Grupo 78584">
                      <g id="Grupo_78583" data-name="Grupo 78583">
                        <path id="Trazado_143506" data-name="Trazado 143506" d="M538.449,92.488a4.714,4.714,0,1,0,4.714-4.714A4.713,4.713,0,0,0,538.449,92.488Z" transform="translate(-538.449 -87.774)" fill="#303030"/>
                      </g>
                    </g>
                  </g>
                </g>
              </g>
            </g>
            <g id="Grupo_78594" data-name="Grupo 78594" transform="translate(0)">
              <g id="Grupo_78593" data-name="Grupo 78593" transform="translate(0)">
                <g id="Grupo_78592" data-name="Grupo 78592">
                  <g id="Grupo_78591" data-name="Grupo 78591">
                    <g id="Grupo_78590" data-name="Grupo 78590">
                      <g id="Grupo_78589" data-name="Grupo 78589">
                        <path id="Trazado_143507" data-name="Trazado 143507" d="M552.315,90.131a4.714,4.714,0,1,0,6.439-1.725A4.713,4.713,0,0,0,552.315,90.131Z" transform="translate(-551.683 -87.774)" fill="#303030"/>
                      </g>
                    </g>
                  </g>
                </g>
              </g>
            </g>
          </g>
          <g id="Grupo_78596" data-name="Grupo 78596" transform="translate(60.31 329.584)">
            <path id="Trazado_143508" data-name="Trazado 143508" d="M738.535,283.441H571.194a2.2,2.2,0,0,1,0-4.408H738.535a2.2,2.2,0,0,1,0,4.408Z" transform="translate(-568.99 -279.033)" fill="#d9a171"/>
          </g>
        </g>
      </g>
      <rect id="Rectángulo_33874" data-name="Rectángulo 33874" width="361" height="361" transform="translate(0 -0.428)" fill="none"/>
    </g>
  </g>
</svg>
