<svg xmlns="http://www.w3.org/2000/svg" width="251.684" height="479.003" viewBox="0 0 251.684 479.003">
  <g id="imgX" transform="translate(2022.966 -2287.157)">
    <rect id="Rect치ngulo_8377" data-name="Rect치ngulo 8377" width="5.896" height="328.79" rx="1.68" transform="translate(-1816.656 2404.452)" fill="#aed2f0"/>
    <g id="Grupo_78845" data-name="Grupo 78845">
      <path id="Trazado_143769" data-name="Trazado 143769" d="M-1863.491,2438.745l-50.907,16.679c-13.079,6.092-61.28,29.6-74.48,70.295l.017-.006,51.417,49.567,47.388,89.557,53.309,101.323.582-.271V2431.68A139.733,139.733,0,0,0-1863.491,2438.745Z" fill="#6795bc"/>
    </g>
    <g id="Grupo_57866" data-name="Grupo 57866" opacity="0.3">
      <path id="Trazado_107115" data-name="Trazado 107115" d="M-1836.564,2428.893q-9.335,149.626-18.684,299.24l18.441,38.022Z" fill="#344153"/>
    </g>
    <path id="Trazado_107116" data-name="Trazado 107116" d="M-1894.459,2532.381c.218.085,2.087-4.61,4.719-10.276s4.962-10.179,4.768-10.288a13.1,13.1,0,0,0-1.832,2.778c-1.031,1.783-2.354,4.307-3.64,7.17s-2.426,5.484-3.069,7.413a12.235,12.235,0,0,0-.946,3.2Z" fill="#f9f9f9"/>
    <path id="Trazado_107117" data-name="Trazado 107117" d="M-1936.316,2511.344a84.9,84.9,0,0,0,9.985,6.7,90.705,90.705,0,0,0,10.422,6.066,95.341,95.341,0,0,0-10-6.709A90.6,90.6,0,0,0-1936.316,2511.344Z" fill="#f9f9f9"/>
    <path id="Trazado_107118" data-name="Trazado 107118" d="M-1918.154,2496.191a43.68,43.68,0,0,0,.837-8.153,44.322,44.322,0,0,0,0-8.226,40.327,40.327,0,0,0-.837,8.177,42.077,42.077,0,0,0,0,8.2Z" fill="#f9f9f9"/>
    <path id="Trazado_107119" data-name="Trazado 107119" d="M-1959.925,2493.279a94.4,94.4,0,0,0,14.656-9.051,45.668,45.668,0,0,0-7.546,4.173,45.2,45.2,0,0,0-7.11,4.877Z" fill="#f9f9f9"/>
    <path id="Trazado_107120" data-name="Trazado 107120" d="M-1896.061,2576.154a81.365,81.365,0,0,0-4.137-10.628,85.2,85.2,0,0,0-4.853-10.312,79.046,79.046,0,0,0,4.149,10.628A81.711,81.711,0,0,0-1896.061,2576.154Z" fill="#f9f9f9"/>
    <path id="Trazado_107121" data-name="Trazado 107121" d="M-1877.45,2595a36.308,36.308,0,0,0,3.749-6.612,37.36,37.36,0,0,0,3.082-6.976,37.442,37.442,0,0,0-3.737,6.588A36.318,36.318,0,0,0-1877.45,2595Z" fill="#f9f9f9"/>
    <path id="Trazado_107122" data-name="Trazado 107122" d="M-1893.016,2620.365a26.207,26.207,0,0,0,7.9,2.014,25.48,25.48,0,0,0,8.141.243c0-.231-3.64-.4-8.031-1.031S-1892.955,2620.122-1893.016,2620.365Z" fill="#f9f9f9"/>
    <path id="Trazado_107123" data-name="Trazado 107123" d="M-1912.974,2592.618a79.559,79.559,0,0,0-6.188-14.559,39.77,39.77,0,0,0,2.718,7.461A37.346,37.346,0,0,0-1912.974,2592.618Z" fill="#f9f9f9"/>
    <path id="Trazado_107124" data-name="Trazado 107124" d="M-1864.432,2651.219c.194.121,2.426-3,5.557-6.576s5.872-6.272,5.7-6.442A42.027,42.027,0,0,0-1864.432,2651.219Z" fill="#f9f9f9"/>
    <path id="Trazado_107125" data-name="Trazado 107125" d="M-1855.624,2588.2a44.881,44.881,0,0,0,4,7.68,46.793,46.793,0,0,0,4.719,7.279,99.206,99.206,0,0,0-8.723-15Z" fill="#f9f9f9"/>
    <path id="Trazado_107126" data-name="Trazado 107126" d="M-1861.9,2566.582a50.676,50.676,0,0,0,8.59-1.808,48.253,48.253,0,0,0,8.383-2.584,48.232,48.232,0,0,0-8.59,1.808A48.168,48.168,0,0,0-1861.9,2566.582Z" fill="#f9f9f9"/>
    <path id="Trazado_107127" data-name="Trazado 107127" d="M-1861.533,2522.02a54.059,54.059,0,0,0-4.61,6.272,52.059,52.059,0,0,0-4.27,6.454,30.46,30.46,0,0,0,4.926-6.005,29.066,29.066,0,0,0,3.955-6.721Z" fill="#f9f9f9"/>
    <path id="Trazado_107128" data-name="Trazado 107128" d="M-1847.314,2519.8a68.542,68.542,0,0,0,11.15,9.706,34.584,34.584,0,0,0-5.314-5.168A35.159,35.159,0,0,0-1847.314,2519.8Z" fill="#f9f9f9"/>
    <path id="Trazado_107129" data-name="Trazado 107129" d="M-1858.585,2496.485a49.926,49.926,0,0,0,12.727-14.947c-.206-.121-2.718,3.47-6.236,7.595S-1858.718,2496.313-1858.585,2496.485Z" fill="#f9f9f9"/>
    <path id="Trazado_107130" data-name="Trazado 107130" d="M-1897.857,2489.312a102.292,102.292,0,0,0,17.47,5.35,54.269,54.269,0,0,0-8.614-3.082A51.5,51.5,0,0,0-1897.857,2489.312Z" fill="#f9f9f9"/>
    <path id="Trazado_107131" data-name="Trazado 107131" d="M-1842.522,2451.884c.231,0,.121-3.518.679-7.8s1.529-7.68,1.213-7.68a28.328,28.328,0,0,0-1.941,15.517Z" fill="#f9f9f9"/>
    <path id="Trazado_107161" data-name="Trazado 107161" d="M-1876.028,2336.555a98.314,98.314,0,0,0,.231-19.169,32.758,32.758,0,0,0-7.049-17.567c-4.2-4.853-10.652-7.971-16.985-7.158-3.931.51-7.68,2.426-11.6,2.329-4.61-.133-8.553-2.96-12.727-4.853a33.361,33.361,0,0,0-20.952-2.2,20.021,20.021,0,0,0-9.912,5.011,11.112,11.112,0,0,0-3.215,10.264,53.019,53.019,0,0,0-13.833,1.212,17.868,17.868,0,0,0-11.04,7.68c-2.293,4.016-2.135,9.6,1.153,12.836a8.843,8.843,0,0,0-9.779,6.673,11.416,11.416,0,0,0,4.61,11.429,21.3,21.3,0,0,0,14.365,2.887c4.283-.813,9.22-2.014,12.654-4.61" fill="#344153"/>
    <path id="Trazado_107162" data-name="Trazado 107162" d="M-1872.694,2481.3h0a33.146,33.146,0,0,1-40.3-23.634c-2.608-9.851-4.719-18.1-4.719-18.1s-25.684,4.416-34.176-19.97-23.055-81.776-23.055-81.776h0a89.511,89.511,0,0,1,88.832-17.9l4.61,1.541,32.624,118.823a33.17,33.17,0,0,1-23.051,40.813Z" fill="#fdbe9f"/>
    <path id="Trazado_107163" data-name="Trazado 107163" d="M-1917.875,2439.23a59.9,59.9,0,0,0,28.778-19.715s-1.626,20.091-26.691,26.121Z" fill="#a86552"/>
    <path id="Trazado_107164" data-name="Trazado 107164" d="M-1876.116,2347.875c.364-.328,15.1-10.591,20.164,6.284s-12.909,18.429-13.079,17.992S-1876.116,2347.875-1876.116,2347.875Z" fill="#fdbe9f"/>
    <path id="Trazado_107165" data-name="Trazado 107165" d="M-1865.755,2364.205a5.063,5.063,0,0,0,.922.194,2.984,2.984,0,0,0,2.147-.643c1.541-1.213,2.232-4.465,1.407-7.522a10.121,10.121,0,0,0-2.075-3.967,3.555,3.555,0,0,0-2.887-1.541,1.528,1.528,0,0,0-1.541,1.322c-.1.534.121.849,0,.91s-.449-.182-.51-.922a1.9,1.9,0,0,1,.34-1.213,2.306,2.306,0,0,1,1.541-.922,4.3,4.3,0,0,1,3.846,1.686,10.33,10.33,0,0,1,2.426,4.4c.922,3.421.133,7.122-2.1,8.565a3.28,3.28,0,0,1-2.827.364C-1865.646,2364.6-1865.863,2364.265-1865.755,2364.205Z" fill="#a86552"/>
    <path id="Trazado_107166" data-name="Trazado 107166" d="M-1954.269,2373.049a3.64,3.64,0,0,0,4.526,2.452l.084-.026a3.519,3.519,0,0,0,2.548-4.271v-.085a3.64,3.64,0,0,0-4.537-2.426,3.529,3.529,0,0,0-2.645,4.234h0Z" fill="#344153"/>
    <path id="Trazado_107167" data-name="Trazado 107167" d="M-1958.821,2370.683c.582.315,2.56-2.511,6.309-3.773s7.146-.291,7.388-.9c.146-.255-.582-.934-2.075-1.407a10.006,10.006,0,0,0-6.139.146,9.7,9.7,0,0,0-4.853,3.64C-1958.991,2369.615-1959.1,2370.562-1958.821,2370.683Z" fill="#344153"/>
    <path id="Trazado_107168" data-name="Trazado 107168" d="M-1917.4,2360.686a3.64,3.64,0,0,0,4.537,2.426,3.518,3.518,0,0,0,2.561-4.265v-.079a3.64,3.64,0,0,0-4.537-2.426,3.517,3.517,0,0,0-2.548,4.271Z" fill="#344153"/>
    <path id="Trazado_107169" data-name="Trazado 107169" d="M-1921.733,2359.011c.582.315,2.584-2.524,6.333-3.785s7.134-.291,7.388-.886c.121-.267-.582-.946-2.087-1.407a10.055,10.055,0,0,0-6.151.146,9.79,9.79,0,0,0-4.853,3.579C-1921.891,2357.932-1922.012,2358.89-1921.733,2359.011Z" fill="#344153"/>
    <path id="Trazado_107170" data-name="Trazado 107170" d="M-1926,2391.454c0-.218-2.523.146-6.454.934-.995.231-1.965.34-2.354-.255a5.249,5.249,0,0,1-.3-3.082c.121-2.621.243-5.375.388-8.25.437-11.7.425-21.183,0-21.207s-1.213,9.475-1.662,21.159c-.1,2.875-.17,5.629-.243,8.25a5.676,5.676,0,0,0,.752,3.919,2.536,2.536,0,0,0,2.038.886,6.932,6.932,0,0,0,1.711-.328C-1928.309,2392.387-1925.943,2391.611-1926,2391.454Z" fill="#344153"/>
    <path id="Trazado_107171" data-name="Trazado 107171" d="M-1914.09,2390.239c-.619.17.728,4.246-1.783,8.3s-7,5.071-6.843,5.641c0,.279,1.213.473,3.069-.085a10.778,10.778,0,0,0,5.787-4.489,9.235,9.235,0,0,0,1.213-6.867C-1913.034,2391.028-1913.823,2390.167-1914.09,2390.239Z" fill="#344153"/>
    <path id="Trazado_107172" data-name="Trazado 107172" d="M-1959.659,2363.634c.946.631,3.227-1.116,6.321-2.208s5.933-1.359,6.236-2.426c.121-.522-.582-1.213-2-1.662a9.7,9.7,0,0,0-10.179,3.785C-1960.023,2362.336-1960.083,2363.309-1959.659,2363.634Z" fill="#344153"/>
    <path id="Trazado_107173" data-name="Trazado 107173" d="M-1921.394,2343.786c.57.3,1.541-.206,2.633-.861a28.668,28.668,0,0,1,4.416-2.172,28.2,28.2,0,0,1,4.78-1.213c1.31-.255,2.317-.461,2.548-1.068s-.5-1.541-2.16-2.16a10.4,10.4,0,0,0-11.987,4.465C-1922.012,2342.342-1921.927,2343.531-1921.394,2343.786Z" fill="#344153"/>
    <path id="Trazado_107174" data-name="Trazado 107174" d="M-1973.671,2345.812a60.474,60.474,0,0,0,35.014-13.806c11.04-9.026,24.847-15.359,28.62-13.576s7.34,14.437,20.528,15.359c0,0,4.7,24.665,14.255,21.51s-5.168-39.539-5.168-39.539l-26.51-6.248-27.152,1.007-24.386,5.533-21.1,12.132Z" fill="#344153"/>
    <path id="Trazado_107194" data-name="Trazado 107194" d="M-1840.095,2721.559l-17.883-8.6,9.827-29.117,21.607-5c2.014-.461,4.258-1,6.746-1.686a27.294,27.294,0,0,0,8.189-3.858,41.346,41.346,0,0,0,8.577-7.279c2.038-2.778,6.382-1.735,6.382,1.347s-5.459,10.919-15.153,16.4,7.449,8.165,13.661,9.221,25.283,5.326,26.424,7.5c1.662,3.166-1.541,5.593-7.68,4.38s-25.029-3.64-25.478-.328v.1a13.48,13.48,0,0,1-.813,15.663c-3.47,4.355-8.687,9.8-12.508,8.978C-1825.44,2727.824-1840.095,2721.559-1840.095,2721.559Z" fill="#fdbe9f"/>
    <path id="Trazado_107195" data-name="Trazado 107195" d="M-1839,2670.409l-16.767,56.682-130.2-39.551a52.229,52.229,0,0,1-34.707-65.2l.007-.022c.1-.328.194-.655.3-.983l31.968-99.314,69.311,17.216-38.047,91.877Z" fill="#6795bc"/>
    <path id="Trazado_107196" data-name="Trazado 107196" d="M-1988.861,2686.542l.631.23,1.868.594,7.279,2.257,27.285,8.359,94.742,28.76.352.1.121-.34c5.8-17.337,11.416-36.4,17.919-55.966l.121-.364-.388-.146-3.264-1.068-114.88-38.156.182.413c9.221-22.275,16.694-40.534,21.911-53.26l6.03-14.668,1.541-3.858c.352-.9.5-1.322.5-1.322s-.218.425-.594,1.286l-1.626,3.809c-1.407,3.385-3.482,8.323-6.139,14.619l-22.171,53.159-.121.3.328.109,114.868,38.314,3.276,1.092-.243-.51c-6.515,19.594-12.132,38.641-17.9,55.954l.461-.243-94.814-28.45-27.382-8.165-7.279-2.135-1.9-.534Z" fill="#344153"/>
    <path id="Trazado_107197" data-name="Trazado 107197" d="M-1981.193,2647.638c.121,0,.983-1.432,2.718-3.64a35.237,35.237,0,0,1,17.749-11.78c2.669-.764,4.392-.983,4.38-1.116a3.526,3.526,0,0,0-1.213,0,23.167,23.167,0,0,0-3.288.558,31.671,31.671,0,0,0-18.053,11.962,22.069,22.069,0,0,0-1.783,2.827,3.353,3.353,0,0,0-.51,1.189Z" fill="#344153"/>
    <path id="Trazado_107198" data-name="Trazado 107198" d="M-1949.649,2544.052a44.191,44.191,0,0,0,.4-8.4,44.275,44.275,0,0,0-.4-8.408A88.386,88.386,0,0,0-1949.649,2544.052Z" fill="#f9f9f9"/>
    <path id="Trazado_107199" data-name="Trazado 107199" d="M-1975.782,2545.4a46.439,46.439,0,0,0,2.827-8.056,46.247,46.247,0,0,0,2.05-8.286A90.047,90.047,0,0,0-1975.782,2545.4Z" fill="#f9f9f9"/>
    <path id="Trazado_107200" data-name="Trazado 107200" d="M-1959.574,2568.984a28.922,28.922,0,0,0,15.189-4.465c-.109-.206-3.312,1.31-7.51,2.524S-1959.594,2568.754-1959.574,2568.984Z" fill="#f9f9f9"/>
    <path id="Trazado_107201" data-name="Trazado 107201" d="M-1989.14,2581.932a40.529,40.529,0,0,0-.983-8.019,40.7,40.7,0,0,0-1.771-7.9,42.748,42.748,0,0,0,.983,8.032,40.965,40.965,0,0,0,1.771,7.886Z" fill="#f9f9f9"/>
    <path id="Trazado_107202" data-name="Trazado 107202" d="M-1978.573,2603.124a85.174,85.174,0,0,0,6.9-15.129A87.274,87.274,0,0,0-1978.573,2603.124Z" fill="#f9f9f9"/>
    <path id="Trazado_107203" data-name="Trazado 107203" d="M-1974.241,2621.65a37.834,37.834,0,0,0,7.279-3.069,38.554,38.554,0,0,0,6.928-3.81,42.021,42.021,0,0,0-7.279,3.069A39.026,39.026,0,0,0-1974.241,2621.65Z" fill="#f9f9f9"/>
    <path id="Trazado_107204" data-name="Trazado 107204" d="M-2007.484,2616.725a59.524,59.524,0,0,0,2.936,7.049,60.456,60.456,0,0,0,3.069,6.976A40.354,40.354,0,0,0-2007.484,2616.725Z" fill="#f9f9f9"/>
    <path id="Trazado_107205" data-name="Trazado 107205" d="M-1998.239,2661.357a91.673,91.673,0,0,0,1.711-17.252,48.687,48.687,0,0,0-1.213,8.59A48,48,0,0,0-1998.239,2661.357Z" fill="#f9f9f9"/>
    <path id="Trazado_107206" data-name="Trazado 107206" d="M-1974.763,2675.445a76.112,76.112,0,0,0,11.708-10.725,39.613,39.613,0,0,0-6.139,5.071A40.16,40.16,0,0,0-1974.763,2675.445Z" fill="#f9f9f9"/>
    <path id="Trazado_107207" data-name="Trazado 107207" d="M-1934.193,2679.485a89.2,89.2,0,0,0,10.045,13.709,45.071,45.071,0,0,0-4.7-7.085,46.02,46.02,0,0,0-5.35-6.624Z" fill="#f9f9f9"/>
    <path id="Trazado_107208" data-name="Trazado 107208" d="M-1947.053,2660.486a28.176,28.176,0,0,0,6.224-5.472,27.35,27.35,0,0,0,4.974-6.612c-.182-.133-2.426,2.754-5.556,6.066S-1947.146,2660.311-1947.053,2660.486Z" fill="#f9f9f9"/>
    <path id="Trazado_107209" data-name="Trazado 107209" d="M-1916.455,2664.8a12.05,12.05,0,0,0,6.139.752,12.405,12.405,0,0,0,5.969-1.626c-.1-.231-2.693.594-6.066.825S-1916.455,2664.574-1916.455,2664.8Z" fill="#f9f9f9"/>
    <path id="Trazado_107210" data-name="Trazado 107210" d="M-1897.08,2698.4a29.437,29.437,0,0,0,1.529-6.612,28.114,28.114,0,0,0,.752-6.746A57.932,57.932,0,0,0-1897.08,2698.4Z" fill="#f9f9f9"/>
    <path id="Trazado_107211" data-name="Trazado 107211" d="M-1874.223,2710.01a99.9,99.9,0,0,0,15.08-9.512,49.088,49.088,0,0,0-7.765,4.428,49.788,49.788,0,0,0-7.316,5.083Z" fill="#f9f9f9"/>
    <path id="Trazado_107212" data-name="Trazado 107212" d="M-1882.376,2669.1c-.17.158,2.05,2.8,4.525,6.248s4.319,6.37,4.525,6.26a25.49,25.49,0,0,0-3.858-6.745,24.743,24.743,0,0,0-5.193-5.763Z" fill="#f9f9f9"/>
    <path id="Trazado_107213" data-name="Trazado 107213" d="M-1864.712,2676.864a15.11,15.11,0,0,0,4.5-1.8,14.56,14.56,0,0,0,4.125-2.523A29.2,29.2,0,0,0-1864.712,2676.864Z" fill="#f9f9f9"/>
    <g id="Grupo_57869" data-name="Grupo 57869" opacity="0.2">
      <path id="Trazado_107214" data-name="Trazado 107214" d="M-1956.043,2628.768c-6.94.7-13.9,1.432-20.831,2.3a25.6,25.6,0,0,0-7.073,1.529,8.989,8.989,0,0,0-5.035,4.938,5.508,5.508,0,0,0,1.917,6.442,6.409,6.409,0,0,0,6.3-.279,33.177,33.177,0,0,0,5.193-4.076,29.006,29.006,0,0,1,10.664-5.581,17.785,17.785,0,0,0,5.108-1.783,4.417,4.417,0,0,0,2.208-4.6" fill="#344153"/>
    </g>
    <rect id="Rect치ngulo_8378" data-name="Rect치ngulo 8378" width="5.896" height="146.181" rx="1.68" transform="translate(-1816.656 2404.452)" fill="#d7a075"/>
  </g>
</svg>
